<?xml version="1.0" encoding="UTF-8" standalone="no"?>
<svg
   xmlns:dc="http://purl.org/dc/elements/1.1/"
   xmlns:cc="http://creativecommons.org/ns#"
   xmlns:rdf="http://www.w3.org/1999/02/22-rdf-syntax-ns#"
   xmlns:svg="http://www.w3.org/2000/svg"
   xmlns="http://www.w3.org/2000/svg"
   xmlns:sodipodi="http://sodipodi.sourceforge.net/DTD/sodipodi-0.dtd"
   xmlns:inkscape="http://www.inkscape.org/namespaces/inkscape"
   version="1.1"
   x="0px"
   y="0px"
   width="83.5px"
   height="32px"
   viewBox="0 0 83.5 32"
   enable-background="new 0 0 83.5 32"
   xml:space="preserve"
   id="svg260"
   sodipodi:docname="striker45.svg"
   inkscape:version="1.0.2-2 (e86c870879, 2021-01-15)"><metadata
   id="metadata266"><rdf:RDF><cc:Work
       rdf:about=""><dc:format>image/svg+xml</dc:format><dc:type
         rdf:resource="http://purl.org/dc/dcmitype/StillImage" /></cc:Work></rdf:RDF></metadata><defs
   id="defs264" /><sodipodi:namedview
   pagecolor="#ffffff"
   bordercolor="#666666"
   borderopacity="1"
   objecttolerance="10"
   gridtolerance="10"
   guidetolerance="10"
   inkscape:pageopacity="0"
   inkscape:pageshadow="2"
   inkscape:window-width="1842"
   inkscape:window-height="1051"
   id="namedview262"
   showgrid="false"
   inkscape:zoom="7.2754491"
   inkscape:cx="-21.892239"
   inkscape:cy="-15.074788"
   inkscape:window-x="-9"
   inkscape:window-y="-9"
   inkscape:window-maximized="1"
   inkscape:current-layer="svg260" />

<g
   id="guides">
</g>
<path
   style="fill:#ffffff;stroke-width:0.0703627"
   d="m 54.437941,31.734514 c 0,-0.175655 -0.04555,-0.403289 -0.248137,-1.240055 -0.05153,-0.212848 -0.129966,-0.576976 -0.174297,-0.809173 -0.04433,-0.232196 -0.107542,-0.532997 -0.140468,-0.668445 -0.03293,-0.135449 -0.09582,-0.436249 -0.139773,-0.668446 -0.04395,-0.232197 -0.12275,-0.580492 -0.175112,-0.77399 -0.05236,-0.193498 -0.147309,-0.652615 -0.210995,-1.02026 -0.06368,-0.367645 -0.15997,-0.842593 -0.213964,-1.05544 -0.054,-0.212848 -0.148849,-0.62447 -0.210789,-0.914716 -0.06194,-0.290247 -0.142234,-0.654374 -0.178434,-0.809171 -0.150845,-0.645059 -0.418912,-2.084601 -0.418912,-2.249598 0,-0.09786 -0.02585,-0.177917 -0.05746,-0.177917 -0.0316,0 -0.09803,-0.213727 -0.147618,-0.474948 -0.04959,-0.261222 -0.116495,-0.585769 -0.14868,-0.721218 -0.03218,-0.135448 -0.09463,-0.436249 -0.138788,-0.668446 -0.04415,-0.232197 -0.113754,-0.54883 -0.154676,-0.703627 -0.150045,-0.567594 -0.2675,-1.202474 -0.2675,-1.445929 0,-0.137396 -0.02657,-0.279893 -0.05904,-0.316657 -0.03247,-0.03677 -0.0996,-0.256825 -0.149172,-0.489022 -0.04957,-0.232196 -0.131285,-0.596323 -0.181576,-0.809171 -0.05029,-0.212847 -0.130823,-0.56955 -0.17896,-0.792672 -0.07848,-0.363782 -0.102684,-0.400803 -0.234338,-0.358478 -0.08075,0.02596 -0.320964,0.08187 -0.533811,0.124228 l -0.386995,0.07702 -0.01969,0.897125 -0.01969,0.897125 h -0.208987 -0.208986 v -0.85256 c 0,-0.850423 -4.22e-4,-0.852448 -0.158316,-0.808021 -0.08708,0.0245 -0.61928,0.137486 -1.182679,0.25109 -0.5634,0.113604 -1.101674,0.234487 -1.196167,0.268629 -0.09449,0.03415 -0.409277,0.102251 -0.699523,0.151345 -0.290246,0.04909 -0.61952,0.117675 -0.731717,0.152398 -0.497917,0.154086 -1.012279,0.08599 -3.560409,-0.471356 -1.248443,-0.27307 -1.334282,-0.277721 -1.613183,-0.08741 -0.170264,0.116187 -0.340351,0.360938 -0.578862,0.832976 -0.290069,0.574078 -1.987098,4.054576 -2.384379,4.890209 -0.07359,0.154799 -0.170146,0.431852 -0.21456,0.615675 -0.08758,0.362472 -0.123407,0.383462 -0.405003,0.23725 -0.102719,-0.05333 -0.265921,-0.128482 -0.36267,-0.166992 -0.229858,-0.0915 -0.583847,-0.251836 -2.286788,-1.035797 -0.309595,-0.142524 -0.713302,-0.323904 -0.897124,-0.403067 -0.463456,-0.199586 -0.458784,-0.227194 0.238697,-1.410123 0.110588,-0.187559 0.20107,-0.356083 0.20107,-0.374499 0,-0.01842 0.08458,-0.167422 0.187958,-0.331126 0.103376,-0.163703 0.284428,-0.487623 0.402336,-0.71982 0.117909,-0.232197 0.25497,-0.464017 0.304582,-0.515156 0.04962,-0.05114 0.0902,-0.135573 0.0902,-0.187634 0,-0.05206 0.02374,-0.105209 0.05277,-0.118108 0.02903,-0.0129 0.131748,-0.181771 0.228274,-0.375268 0.09653,-0.193497 0.215265,-0.393654 0.263861,-0.444793 0.04859,-0.05114 0.08836,-0.138212 0.08836,-0.193497 0,-0.05529 0.03167,-0.100521 0.07036,-0.100521 0.0387,0 0.07037,-0.03234 0.07037,-0.07187 0,-0.09913 0.32534,-0.590424 0.697282,-1.052966 0.482105,-0.599537 0.559745,-0.837003 0.528291,-1.615798 -0.0211,-0.522418 -0.05145,-0.6787 -0.141614,-0.729158 -0.06312,-0.03532 -0.300437,-0.249899 -0.527376,-0.476837 -0.41184,-0.41184 -0.917569,-0.704976 -0.965933,-0.559885 -0.01647,0.04943 -0.86151,0.07448 -2.569339,0.07617 -2.620252,0.0026 -2.812118,0.01897 -3.670589,0.313602 -0.193498,0.06641 -0.401802,0.164936 -0.462898,0.218949 -0.06109,0.05402 -0.131334,0.09821 -0.156081,0.09821 -0.059,0 -0.782583,0.359798 -2.758432,1.371632 -0.890089,0.455816 -2.330766,1.191001 -3.201504,1.633747 -0.870739,0.442746 -1.630657,0.833736 -1.688706,0.868867 -0.194526,0.117727 -1.298557,0.637651 -1.583161,0.745562 -0.190607,0.07227 -0.657883,0.118901 -1.447694,0.144465 l -1.166244,0.03775 -0.251074,-0.220447 c -0.307418,-0.269915 -0.477218,-0.234331 -0.477218,0.100009 0,0.232718 -0.0016,0.23385 -0.404586,0.275526 -0.222522,0.02302 -0.673723,0.07573 -1.002669,0.117137 -0.328945,0.0414 -0.762181,0.09193 -0.962744,0.11226 l -0.364661,0.03697 -0.02233,-0.27218 c -0.01667,-0.203179 -0.04909,-0.26412 -0.127878,-0.240389 -0.05805,0.01749 -0.298686,0.04372 -0.534749,0.05831 -0.463544,0.02864 -0.661418,-0.07349 -0.661418,-0.341394 0,-0.07464 -0.0475,-0.1357 -0.105543,-0.1357 -0.09275,0 -0.105545,-0.562262 -0.105545,-4.638185 0,-2.5510016 0.01922,-4.6882695 0.0427,-4.7494839 0.05463,-0.1423682 0.660918,-0.160654 0.660918,-0.019934 0,0.072652 0.753178,0.1090012 3.676453,0.17745 2.022049,0.047342 4.262222,0.084907 4.978164,0.083474 0.71594,-0.00143 2.710334,0.034442 4.431985,0.079726 3.268242,0.085972 3.705263,0.066662 4.536794,-0.2004312 0.800374,-0.2570906 1.776977,-0.9396474 2.283106,-1.5956847 0.162477,-0.2106 0.349066,-0.4048431 0.414642,-0.4316514 0.150725,-0.061615 1.313822,-0.3695789 1.878298,-0.4973297 0.116099,-0.026272 0.242751,-0.072355 0.281451,-0.1023974 0.0387,-0.030039 0.195453,-0.078006 0.348341,-0.1065808 0.152889,-0.028575 0.577663,-0.1738942 0.943943,-0.3229286 0.665097,-0.2706196 0.66727,-0.2709718 1.670129,-0.2709718 h 1.004165 l 0.02205,-0.2286789 c 0.01838,-0.1905481 0.05431,-0.2323915 0.215546,-0.2509435 l 0.193498,-0.022269 V 1.4651596 0.1681223 h 0.211088 0.211089 l 0.0086,0.47494833 c 0.0047,0.2612217 0.0016,0.76783357 -0.007,1.12580417 -0.01414,0.591692 -0.0037,0.6508946 0.11454,0.6512888 0.07156,2.385e-4 0.220465,0.047568 0.330916,0.1051699 0.110451,0.057601 0.22587,0.089259 0.256487,0.070338 0.03061,-0.018921 0.07382,0.012911 0.09602,0.070737 0.02219,0.057827 0.122759,0.1051403 0.223486,0.1051403 0.260448,0 0.384177,0.1570111 0.384177,0.4875131 0,0.2586672 0.01708,0.2864768 0.175907,0.2864768 0.128998,0 0.175907,-0.037524 0.175907,-0.1407249 0,-0.1094537 0.04691,-0.1407259 0.211089,-0.1407259 0.164179,0 0.211088,0.031268 0.211088,0.1407259 0,0.1172707 0.04691,0.1407249 0.281451,0.1407249 0.234541,0 0.28145,-0.023456 0.28145,-0.1407249 0,-0.1094537 0.04691,-0.1407259 0.211089,-0.1407259 0.164179,0 0.211087,0.031268 0.211087,0.1407259 0,0.1139197 0.04691,0.1407249 0.24627,0.1407249 0.199361,0 0.246269,-0.026804 0.246269,-0.1407249 0,-0.1094537 0.04691,-0.1407259 0.211089,-0.1407259 0.16418,0 0.211088,0.031268 0.211088,0.1407259 0,0.1139197 0.04691,0.1407249 0.24627,0.1407249 0.199361,0 0.246269,-0.026804 0.246269,-0.1407249 0,-0.1094537 0.04691,-0.1407259 0.211088,-0.1407259 0.16418,0 0.211089,0.031268 0.211089,0.1407259 0,0.1139197 0.04691,0.1407249 0.246269,0.1407249 0.199361,0 0.24627,-0.026804 0.24627,-0.1407249 0,-0.1094537 0.04691,-0.1407259 0.211088,-0.1407259 0.164179,0 0.211088,0.031268 0.211088,0.1407259 0,0.1139197 0.04691,0.1407249 0.246269,0.1407249 0.199362,0 0.24627,-0.026804 0.24627,-0.1407249 0,-0.1094537 0.04691,-0.1407259 0.211088,-0.1407259 0.16418,0 0.211089,0.031268 0.211089,0.1407259 0,0.1139197 0.04691,0.1407249 0.246269,0.1407249 0.199361,0 0.24627,-0.026804 0.24627,-0.1407249 0,-0.1094537 0.04691,-0.1407259 0.211088,-0.1407259 0.164179,0 0.211088,0.031268 0.211088,0.1407259 0,0.1172707 0.04691,0.1407249 0.281451,0.1407249 0.234543,0 0.281451,-0.023456 0.281451,-0.1407249 0,-0.1094537 0.04691,-0.1407259 0.211088,-0.1407259 0.164179,0 0.211089,0.031268 0.211089,0.1407259 0,0.1139197 0.04691,0.1407249 0.246269,0.1407249 0.19936,0 0.24627,-0.026804 0.24627,-0.1407249 0,-0.1094537 0.04691,-0.1407259 0.211087,-0.1407259 0.16418,0 0.211088,0.031268 0.211088,0.1407259 0,0.1172707 0.04691,0.1407249 0.281451,0.1407249 0.234543,0 0.281451,-0.023456 0.281451,-0.1407249 0,-0.1094537 0.04691,-0.1407259 0.211088,-0.1407259 0.16418,0 0.211089,0.031268 0.211089,0.1407259 0,0.1139197 0.04691,0.1407249 0.246269,0.1407249 0.199362,0 0.24627,-0.026804 0.24627,-0.1407249 0,-0.1094537 0.04691,-0.1407259 0.211088,-0.1407259 0.164179,0 0.211089,0.031268 0.211089,0.1407259 0,0.1139197 0.04691,0.1407249 0.246269,0.1407249 0.19936,0 0.24627,-0.026804 0.24627,-0.1407249 0,-0.1094537 0.04691,-0.1407259 0.211088,-0.1407259 0.164179,0 0.211087,0.031268 0.211087,0.1407259 0,0.1139197 0.04691,0.1407249 0.24627,0.1407249 0.199361,0 0.24627,-0.026804 0.24627,-0.1407249 0,-0.1094537 0.04691,-0.1407259 0.211088,-0.1407259 0.16418,0 0.211088,0.031268 0.211088,0.1407259 0,0.1139197 0.04691,0.1407249 0.24627,0.1407249 0.199361,0 0.246269,-0.026804 0.246269,-0.1407249 0,-0.1094537 0.04691,-0.1407259 0.211089,-0.1407259 0.164179,0 0.211088,0.031268 0.211088,0.1407259 0,0.1139197 0.04691,0.1407249 0.24627,0.1407249 0.19936,0 0.246269,-0.026804 0.246269,-0.1407249 0,-0.1139207 0.04691,-0.1407259 0.24627,-0.1407259 0.19936,0 0.246269,0.026804 0.246269,0.1407259 0,0.1139197 0.04691,0.1407249 0.24627,0.1407249 0.19936,0 0.24627,-0.026804 0.24627,-0.1407249 0,-0.1094537 0.04691,-0.1407259 0.211087,-0.1407259 0.16418,0 0.211088,0.031268 0.211088,0.1407259 0,0.1139197 0.04691,0.1407249 0.24627,0.1407249 0.199361,0 0.246269,-0.026804 0.246269,-0.1407249 0,-0.1094537 0.04691,-0.1407259 0.211089,-0.1407259 0.164179,0 0.211088,0.031268 0.211088,0.1407259 0,0.1139197 0.04691,0.1407249 0.24627,0.1407249 0.19936,0 0.246269,-0.026804 0.246269,-0.1407249 0,-0.132784 0.04691,-0.1407259 0.831189,-0.1407259 h 0.831188 l 0.202235,0.2110883 0.202235,0.2110884 h 1.002422 1.002423 l 0.02227,-0.1934977 0.02227,-0.1934978 1.424845,-0.019043 c 1.389088,-0.018573 1.424846,-0.015481 1.424846,0.1231353 0,0.1155855 0.04606,0.1421818 0.24627,0.1421818 0.19936,0 0.246269,-0.026804 0.246269,-0.1407249 0,-0.130851 0.04691,-0.1407259 0.668445,-0.1407259 0.621537,0 0.668447,0.00983 0.668447,0.1407259 0,0.1172707 0.04691,0.1407249 0.28145,0.1407249 0.234543,0 0.281451,-0.023456 0.281451,-0.1407249 0,-0.1335201 0.04691,-0.1407259 0.916056,-0.1407259 H 67.80956 L 67.768494,3.100554 c -0.05313,-0.211674 0.07289,-0.3125899 0.426251,-0.3413496 l 0.280559,-0.022832 0.0062,-0.6684452 c 0.01595,-1.69895679 0.0044,-1.61834294 0.231198,-1.61834294 0.243231,0 0.262995,0.0693437 0.334353,1.17309094 0.04176,0.6459658 0.07067,0.7761676 0.195939,0.8826983 0.08082,0.06873 0.20236,0.1122068 0.270084,0.09662 0.07235,-0.016658 0.123135,0.01247 0.123135,0.070614 0,0.054427 0.03609,0.098954 0.0802,0.098954 0.108133,0 0.266615,0.2173296 0.26938,0.3694038 0.0013,0.072754 0.05629,0.1231353 0.134347,0.1231353 0.165387,0 0.295464,0.1510432 0.279749,0.3248442 -0.0066,0.072877 -0.007,0.7261991 -8.3e-4,1.4518146 l 0.01115,1.319301 h 0.8402 c 0.484234,0 0.858625,-0.029814 0.883687,-0.070358 0.06686,-0.1081739 0.70861,-0.085992 0.803012,0.027756 0.05361,0.064604 0.07459,0.3590774 0.06139,0.861943 l -0.02005,0.7638212 -1.28412,-0.027122 -1.28412,-0.027121 -0.0097,0.5900242 c -0.0053,0.3245135 -0.0025,0.8120758 0.0063,1.0834714 0.02298,0.7030708 -0.04004,0.7490878 -0.990092,0.7228738 -0.696862,-0.01923 -0.73147,-0.02743 -0.752922,-0.17847 -0.01837,-0.1293622 -0.06703,-0.1583165 -0.266068,-0.1583165 -0.151611,0 -0.258876,0.039848 -0.284085,0.1055445 -0.02228,0.05805 -0.116272,0.105544 -0.20888,0.105544 -0.102758,0 -0.168376,-0.04113 -0.168376,-0.105544 0,-0.076225 -0.07818,-0.1055445 -0.281451,-0.1055445 -0.20327,0 -0.281451,0.029313 -0.281451,0.1055445 0,0.06567 -0.06646,0.105544 -0.175907,0.105544 -0.109453,0 -0.175907,-0.03987 -0.175907,-0.105544 0,-0.076225 -0.07818,-0.1055445 -0.281451,-0.1055445 -0.20327,0 -0.281451,0.029313 -0.281451,0.1055445 0,0.139619 -0.323682,0.139619 -0.377258,0 -0.05455,-0.1421478 -0.508355,-0.1421478 -0.562902,0 -0.05248,0.136763 -0.318805,0.136763 -0.371286,0 -0.02463,-0.064186 -0.1311,-0.1055445 -0.271715,-0.1055445 -0.140614,0 -0.247083,0.041353 -0.271715,0.1055445 -0.05379,0.140189 -0.396731,0.140189 -0.396731,0 0,-0.1450893 -0.462307,-0.1450893 -0.517984,0 -0.05379,0.140189 -0.396731,0.140189 -0.396731,0 0,-0.076225 -0.07818,-0.1055445 -0.281452,-0.1055445 -0.203269,0 -0.28145,0.029313 -0.28145,0.1055445 0,0.06567 -0.06646,0.105544 -0.175906,0.105544 -0.109454,0 -0.175908,-0.03987 -0.175908,-0.105544 0,-0.076225 -0.07818,-0.1055445 -0.28145,-0.1055445 -0.203271,0 -0.281451,0.029313 -0.281451,0.1055445 0,0.07037 -0.07037,0.105544 -0.211088,0.105544 -0.140726,0 -0.211089,-0.03518 -0.211089,-0.105544 0,-0.073718 -0.07427,-0.1055445 -0.246269,-0.1055445 -0.171997,0 -0.24627,0.031831 -0.24627,0.1055445 0,0.07037 -0.07036,0.105544 -0.211088,0.105544 -0.140725,0 -0.211089,-0.03518 -0.211089,-0.105544 0,-0.076225 -0.07818,-0.1055445 -0.28145,-0.1055445 -0.203271,0 -0.281451,0.029313 -0.281451,0.1055445 0,0.06602 -0.0667,0.105544 -0.178115,0.105544 -0.09796,0 -0.196341,-0.04749 -0.218616,-0.105544 -0.02499,-0.065117 -0.131938,-0.1055445 -0.279243,-0.1055445 -0.165306,0 -0.238741,0.032466 -0.238741,0.1055445 0,0.06602 -0.0667,0.105544 -0.178116,0.105544 -0.09796,0 -0.196341,-0.04749 -0.218615,-0.105544 -0.02476,-0.064523 -0.131394,-0.1055445 -0.27435,-0.1055445 -0.188938,0 -0.238166,0.030408 -0.256332,0.1583165 -0.02088,0.146974 -0.06266,0.159809 -0.583235,0.179144 -0.308412,0.01146 -0.577549,0.04311 -0.598082,0.07036 -0.02053,0.02724 -0.192948,0.105363 -0.383142,0.173596 -0.458373,0.164442 -0.970451,0.63503 -1.157696,1.063898 -0.114092,0.261316 -0.15002,0.485701 -0.15002,0.936931 0,0.32633 0.0308,0.650879 0.06844,0.721221 0.05231,0.09774 0.03043,0.168918 -0.09282,0.301901 -0.08869,0.09571 -0.206316,0.189024 -0.261377,0.207379 -0.08561,0.02853 -0.08661,0.0937 -0.0069,0.449871 0.153715,0.686758 0.360481,1.660171 0.432228,2.034844 0.03705,0.193499 0.118936,0.573456 0.181963,0.844353 0.06303,0.270897 0.143114,0.627107 0.177972,0.791581 0.03486,0.164473 0.09211,0.43361 0.12723,0.598084 0.03512,0.164473 0.09836,0.473189 0.140543,0.686036 0.07777,0.392454 0.114958,0.560577 0.319025,1.442436 0.06269,0.270897 0.143888,0.650856 0.180447,0.844353 0.03656,0.193497 0.148741,0.731772 0.249292,1.196166 0.36659,1.693087 0.44153,2.045156 0.486757,2.286789 0.06214,0.331992 0.144637,0.711917 0.282653,1.301711 0.143433,0.612941 0.213635,0.939187 0.317951,1.477616 0.137728,0.710889 0.350852,1.660938 0.504256,2.247848 0.03992,0.15273 0.143921,0.374373 0.231116,0.492539 0.323303,0.43815 0.280264,0.610483 -0.173073,0.692992 -0.135117,0.02459 -0.467309,0.09645 -0.738206,0.159673 -0.270896,0.06323 -0.619193,0.1398 -0.77399,0.170159 -0.154798,0.03036 -0.613915,0.126436 -1.02026,0.213503 -1.195062,0.256067 -1.196166,0.256106 -1.196166,0.04267 z M 45.553637,15.287667 c 0.844461,-0.198513 0.97233,-0.248429 1.189109,-0.464194 0.275717,-0.274428 0.340955,-0.612991 0.290072,-1.505391 -0.03041,-0.533335 -0.06235,-0.659127 -0.219795,-0.865544 C 46.48278,12.019567 46.347709,11.98906 44.76092,11.98906 h -1.42296 l -0.160609,0.369404 c -0.226917,0.521914 -0.262155,1.297117 -0.08309,1.82772 0.07478,0.221582 0.119365,0.419477 0.09908,0.439767 -0.09024,0.09024 -0.294889,0.02795 -0.294889,-0.08976 0,-0.06966 -0.02734,-0.156732 -0.06075,-0.193497 -0.13194,-0.145152 -0.238519,-0.590269 -0.293995,-1.22783 -0.09568,-1.099544 -0.105747,-1.125804 -0.431848,-1.125804 -0.344043,0 -0.522684,0.08855 -0.806988,0.400037 -0.517177,0.566613 -0.4918,1.732869 0.04858,2.232851 0.261784,0.242212 0.484548,0.317167 1.580186,0.531696 0.232198,0.04547 0.517166,0.108718 0.633265,0.140562 0.318013,0.08723 1.605892,0.08299 1.986737,-0.0066 z M 18.69405,14.587649 c 0.434482,-0.120402 1.773842,-0.712719 1.899419,-0.839996 0.01935,-0.01962 0.62095,-0.332058 1.336892,-0.694322 2.37104,-1.199743 3.903747,-1.983098 4.010675,-2.049824 0.05805,-0.03622 0.323506,-0.169819 0.589905,-0.296878 0.61596,-0.293782 0.746987,-0.508506 0.746987,-1.2241429 0,-0.7410182 -0.0856,-0.8225251 -0.925998,-0.8817042 -0.361439,-0.025453 -1.781208,-0.053117 -3.15504,-0.061482 -1.373833,-0.0084 -3.226131,-0.03563 -4.11622,-0.060581 -1.800987,-0.050486 -2.132287,-0.00635 -2.436726,0.3247757 -0.349273,0.3798664 -0.372392,0.5403955 -0.284882,1.9780114 0.04396,0.722205 0.09758,1.708889 0.119164,2.192634 0.04791,1.073977 0.115242,1.344521 0.392746,1.578024 0.190327,0.160151 0.27763,0.181044 0.756484,0.181044 0.331135,0 0.745283,-0.05652 1.066594,-0.145558 z"
   id="path424" /></svg>
