<?xml version="1.0" encoding="UTF-8" standalone="no"?>
<svg
   xmlns:dc="http://purl.org/dc/elements/1.1/"
   xmlns:cc="http://creativecommons.org/ns#"
   xmlns:rdf="http://www.w3.org/1999/02/22-rdf-syntax-ns#"
   xmlns:svg="http://www.w3.org/2000/svg"
   xmlns="http://www.w3.org/2000/svg"
   xmlns:sodipodi="http://sodipodi.sourceforge.net/DTD/sodipodi-0.dtd"
   xmlns:inkscape="http://www.inkscape.org/namespaces/inkscape"
   version="1.1"
   x="0px"
   y="0px"
   width="77.833px"
   height="32px"
   viewBox="0 0 77.833 32"
   enable-background="new 0 0 77.833 32"
   xml:space="preserve"
   id="svg239"
   sodipodi:docname="oden.svg"
   inkscape:version="1.0.2-2 (e86c870879, 2021-01-15)"><metadata
   id="metadata245"><rdf:RDF><cc:Work
       rdf:about=""><dc:format>image/svg+xml</dc:format><dc:type
         rdf:resource="http://purl.org/dc/dcmitype/StillImage" /></cc:Work></rdf:RDF></metadata><defs
   id="defs243" /><sodipodi:namedview
   pagecolor="#ffffff"
   bordercolor="#666666"
   borderopacity="1"
   objecttolerance="10"
   gridtolerance="10"
   guidetolerance="10"
   inkscape:pageopacity="0"
   inkscape:pageshadow="2"
   inkscape:window-width="1842"
   inkscape:window-height="1051"
   id="namedview241"
   showgrid="false"
   inkscape:zoom="15.610345"
   inkscape:cx="45.651224"
   inkscape:cy="11.005288"
   inkscape:window-x="-9"
   inkscape:window-y="-9"
   inkscape:window-maximized="1"
   inkscape:current-layer="svg239" />

<g
   id="guides">
</g>
<path
   style="fill:#ffffff;stroke-width:0.0905946"
   d="m 25.433697,29.764678 c -0.03424,-0.0554 -0.05775,-0.300695 -0.05224,-0.545103 0.0055,-0.244408 -0.0467,-0.61695 -0.116023,-0.827871 -0.06932,-0.210921 -0.152512,-0.526178 -0.18487,-0.700573 -0.03236,-0.174395 -0.09525,-0.398617 -0.13976,-0.498271 -0.06827,-0.152846 -0.400527,-1.488875 -0.720964,-2.899027 -0.04529,-0.199308 -0.106997,-0.464298 -0.137128,-0.588865 -0.206793,-0.854946 -0.568029,-3.504913 -0.650978,-4.775466 l -0.05449,-0.834601 -0.418158,0.04775 c -0.747991,0.08541 -0.832771,0.122337 -0.956532,0.416678 -0.11023,0.262162 -0.123921,0.269147 -0.180165,0.09194 -0.143932,-0.453488 -1.331755,-0.778549 -2.837301,-0.776461 -0.161938,1.81e-4 -0.294433,-0.03387 -0.294433,-0.07577 0,-0.0419 -0.112111,-0.07122 -0.249135,-0.06515 -0.137024,0.0061 -0.633,-0.03228 -1.102169,-0.08521 -0.469169,-0.05293 -0.883554,-0.07738 -0.920857,-0.05433 -0.0373,0.02305 -0.08167,3.62e-4 -0.0986,-0.05041 -0.01747,-0.05242 -0.488423,-0.110087 -1.089666,-0.133424 -0.58239,-0.0226 -1.158883,-0.0662 -1.281095,-0.09687 -0.313845,-0.07877 -1.163336,0.357249 -1.491416,0.765501 -0.145604,0.181185 -0.356054,0.614038 -0.467668,0.961896 -0.111613,0.347859 -0.236803,0.714006 -0.278201,0.81366 -0.0414,0.09965 -0.20482,0.568481 -0.363163,1.041838 -0.33779,1.009812 -0.462238,1.231469 -0.74119,1.320156 -0.199072,0.06329 -0.199944,0.06804 -0.02506,0.136396 0.09965,0.03895 -1.215101,0.07369 -2.921677,0.07719 -2.694877,0.0055 -3.1028664,0.02424 -3.1028664,0.14226 0,0.223792 -0.1783206,0.153745 -0.2882849,-0.113243 -0.08104,-0.196773 -0.1105297,-0.215816 -0.1402905,-0.0906 -0.033386,0.140468 -0.1789255,0.160294 -1.2767148,0.173914 -1.6954715,0.02104 -2.02666886,-0.007 -2.16607276,-0.183338 C 0.55379044,22.191363 0.57231774,21.918387 0.79195644,20.80594 1.2366229,18.553751 1.3272657,17.51417 1.3211958,14.7361 1.3182058,13.365856 1.2758538,11.86361 1.2270888,11.397777 1.1783238,10.931943 1.1713728,10.401964 1.2116418,10.220046 1.3486841,9.6009531 2.2348056,9.0286371 3.0563087,9.0286371 c 0.1722388,0 0.3383571,-0.04077 0.369152,-0.09059 0.074854,-0.121117 2.606699,-0.1202 2.7278867,9.88e-4 0.061033,0.06103 2.7491036,0.0761 8.0583936,0.04516 13.562519,-0.07903 17.106395,-0.08051 17.40563,-0.0073 0.288544,0.0706 0.288783,0.07035 0.317082,-0.323394 0.02576,-0.358445 0.05287,-0.398347 0.300102,-0.441687 0.249801,-0.04379 0.269488,-0.07402 0.243387,-0.373747 -0.01562,-0.179357 0.125648,-0.912313 0.313924,-1.628792 0.274016,-1.04276 0.3387,-1.442781 0.324183,-2.004797 -0.01,-0.386159 0.01766,-0.702108 0.06141,-0.702108 0.118095,0 0.189528,0.241806 0.189528,0.641572 0,0.334014 0.01605,0.354969 0.271784,0.354969 0.149481,0 0.271784,0.04077 0.271784,0.0906 0,0.142437 0.246579,0.105762 0.304546,-0.0453 0.06926,-0.180499 0.510806,-0.180499 0.510806,0 0,0.116548 0.275224,0.135892 1.933444,0.135892 h 1.933445 l 0.108571,-0.362379 c 0.09948,-0.332029 0.134822,-0.362378 0.422016,-0.362378 0.218221,0 0.313445,0.04128 0.313445,0.135892 0,0.0906 0.0906,0.135892 0.271784,0.135892 0.181189,0 0.271784,-0.0453 0.271784,-0.135892 0,-0.07619 0.08084,-0.135892 0.184032,-0.135892 0.101219,0 0.207499,0.06115 0.236179,0.135892 0.02868,0.07474 0.149704,0.135892 0.268941,0.135892 0.132309,0 0.216794,-0.05296 0.216794,-0.135892 0,-0.0755 0.08053,-0.135892 0.18119,-0.135892 0.10066,0 0.181189,0.0604 0.181189,0.135892 0,0.0906 0.0906,0.135892 0.271784,0.135892 0.181189,0 0.271784,-0.0453 0.271784,-0.135892 0,-0.07474 0.07717,-0.135892 0.171496,-0.135892 0.09432,0 0.194963,0.06115 0.223644,0.135892 0.02868,0.07474 0.155344,0.135892 0.281477,0.135892 0.143452,0 0.229329,-0.05089 0.229329,-0.135892 0,-0.0755 0.08053,-0.135892 0.181189,-0.135892 0.100661,0 0.18119,0.0604 0.18119,0.135892 0,0.0906 0.09059,0.135892 0.271784,0.135892 0.181189,0 0.271783,-0.0453 0.271783,-0.135892 0,-0.0755 0.08053,-0.135892 0.18119,-0.135892 0.10066,0 0.181189,0.0604 0.181189,0.135892 0,0.085 0.08588,0.135892 0.229329,0.135892 0.126133,0 0.252797,-0.06115 0.281477,-0.135892 0.02868,-0.07474 0.12932,-0.135892 0.223644,-0.135892 0.09432,0 0.171496,0.06115 0.171496,0.135892 0,0.0906 0.0906,0.135892 0.271784,0.135892 0.18119,0 0.271784,-0.0453 0.271784,-0.135892 0,-0.0755 0.08053,-0.135892 0.181189,-0.135892 0.100661,0 0.18119,0.0604 0.18119,0.135892 0,0.0906 0.09059,0.135892 0.271784,0.135892 0.181189,0 0.271784,-0.0453 0.271784,-0.135892 0,-0.0755 0.08053,-0.135892 0.181189,-0.135892 0.10066,0 0.181189,0.0604 0.181189,0.135892 0,0.0906 0.0906,0.135892 0.271784,0.135892 0.181189,0 0.271784,-0.0453 0.271784,-0.135892 0,-0.0755 0.08053,-0.135892 0.181189,-0.135892 0.100661,0 0.18119,0.0604 0.18119,0.135892 0,0.0906 0.09059,0.135892 0.271783,0.135892 0.18119,0 0.271784,-0.0453 0.271784,-0.135892 0,-0.177258 0.986831,-0.199303 1.013883,-0.02265 0.0095,0.06228 0.04011,-0.274049 0.06795,-0.747406 l 0.0506,-0.860649 h 0.543568 0.543568 v 2.627245 c 0,1.444984 -0.035,2.739355 -0.07777,2.876379 -0.06267,0.200754 -0.04947,0.249136 0.06795,0.249136 0.08014,0 0.145713,0.06115 0.145713,0.135892 0,0.0906 0.0906,0.135891 0.271784,0.135891 0.181189,0 0.271784,-0.0453 0.271784,-0.135891 0,-0.176788 0.3273,-0.176788 0.39514,0 0.06926,0.180498 0.510806,0.180498 0.510806,0 0,-0.177349 0.352157,-0.177349 0.420212,0 0.110401,0.287699 0.363627,0.108067 0.802816,-0.569496 0.368691,-0.568803 0.501133,-0.704337 0.711811,-0.728432 l 0.258837,-0.0296 -0.06288,0.541757 c -0.07453,0.64218 0.03577,0.921665 0.363741,0.921665 0.138091,0 0.223299,-0.05185 0.223299,-0.135892 0,-0.176788 0.327301,-0.176788 0.395141,0 0.06926,0.180498 0.510806,0.180498 0.510806,0 0,-0.0755 0.08053,-0.135892 0.181189,-0.135892 0.10066,0 0.181189,0.0604 0.181189,0.135892 0,0.0906 0.09059,0.135892 0.271784,0.135892 0.181189,0 0.271784,-0.0453 0.271784,-0.135892 0,-0.0755 0.08053,-0.135892 0.181189,-0.135892 0.100661,0 0.18119,0.0604 0.18119,0.135892 0,0.0906 0.09059,0.135892 0.271783,0.135892 0.18119,0 0.271784,-0.0453 0.271784,-0.135892 0,-0.0755 0.08053,-0.135892 0.18119,-0.135892 0.10066,0 0.181189,0.0604 0.181189,0.135892 0,0.180498 0.441543,0.180498 0.510806,0 0.06784,-0.176788 0.39514,-0.176788 0.39514,0 0,0.0906 0.0906,0.135892 0.271784,0.135892 0.181189,0 0.271784,-0.0453 0.271784,-0.135892 0,-0.176788 0.3273,-0.176788 0.39514,0 0.06926,0.180498 0.510806,0.180498 0.510806,0 0,-0.176788 0.327301,-0.176788 0.395141,0 0.06805,0.177348 0.420211,0.177348 0.420211,0 0,-0.179765 0.416753,-0.179765 0.485735,0 0.06806,0.177348 0.420212,0.177348 0.420212,0 0,-0.179765 0.416752,-0.179765 0.485734,0 0.06926,0.180498 0.510807,0.180498 0.510807,0 0,-0.0755 0.08053,-0.135892 0.181189,-0.135892 0.10066,0 0.181189,0.0604 0.181189,0.135892 0,0.0906 0.0906,0.135892 0.271784,0.135892 0.181189,0 0.271784,-0.0453 0.271784,-0.135892 0,-0.0755 0.08053,-0.135892 0.181189,-0.135892 0.100661,0 0.18119,0.0604 0.18119,0.135892 0,0.0906 0.09059,0.135892 0.271783,0.135892 0.18119,0 0.271784,-0.0453 0.271784,-0.135892 0,-0.0755 0.08053,-0.135892 0.18119,-0.135892 0.10066,0 0.181189,0.0604 0.181189,0.135892 0,0.08456 0.08556,0.135892 0.226486,0.135892 0.140926,0 0.226487,-0.05134 0.226487,-0.135892 0,-0.0755 0.08053,-0.135892 0.181189,-0.135892 0.100661,0 0.18119,0.0604 0.18119,0.135892 0,0.0906 0.09059,0.135892 0.271784,0.135892 0.181189,0 0.271783,-0.0453 0.271783,-0.135892 0,-0.0755 0.08053,-0.135892 0.18119,-0.135892 0.10066,0 0.181189,0.0604 0.181189,0.135892 0,0.0906 0.0906,0.135892 0.271784,0.135892 0.181189,0 0.271784,-0.0453 0.271784,-0.135892 0,-0.111801 0.161817,-0.135892 0.912789,-0.135892 h 0.912789 l -0.01524,0.385024 c -0.0084,0.211765 -0.01146,0.823279 -0.0068,1.35892 l 0.0084,0.9738929 h 1.847497 c 1.558647,0 1.855651,-0.02125 1.899644,-0.135892 0.04445,-0.115844 0.390707,-0.135892 2.347035,-0.135892 1.664119,0 2.324768,0.02988 2.403601,0.108714 0.05985,0.05985 0.108713,0.347629 0.108713,0.640267 0,0.490326 -0.01405,0.527093 -0.181189,0.474047 -0.128583,-0.04081 -0.181189,-0.01628 -0.181189,0.08449 0,0.0781 0.06243,0.141997 0.138734,0.141997 0.202521,0 0.248778,0.204381 0.138742,0.613022 l -0.097,0.360228 -2.332456,0.04181 c -1.282851,0.02299 -2.346045,0.0079 -2.362654,-0.03365 -0.01661,-0.0415 -0.858714,-0.07546 -1.871344,-0.07546 h -1.841146 l -0.05083,1.33627 c -0.02796,0.734949 -0.0525,1.397423 -0.05454,1.472163 -0.002,0.07474 0.02129,0.309155 0.05185,0.52092 l 0.05556,0.385027 -0.394543,8.15e-4 c -0.216998,4.53e-4 -0.608573,0.0265 -0.870165,0.05792 -0.403573,0.04848 -0.475622,0.03463 -0.475622,-0.09138 0,-0.109358 -0.08365,-0.148539 -0.317081,-0.148539 -0.221453,0 -0.317081,0.04098 -0.317081,0.135892 0,0.07474 -0.05679,0.135892 -0.126199,0.135892 -0.06941,0 -0.149665,-0.06115 -0.178347,-0.135892 -0.06768,-0.17638 -0.500955,-0.17638 -0.568639,0 -0.06725,0.175245 -0.27006,0.175245 -0.337307,0 -0.02868,-0.07474 -0.156625,-0.135892 -0.28432,-0.135892 -0.127694,0 -0.255639,0.06115 -0.284319,0.135892 -0.02868,0.07474 -0.104575,0.135892 -0.168654,0.135892 -0.06408,0 -0.139972,-0.06115 -0.168653,-0.135892 -0.02868,-0.07474 -0.156625,-0.135892 -0.28432,-0.135892 -0.127695,0 -0.255639,0.06115 -0.284319,0.135892 -0.06725,0.175245 -0.27006,0.175245 -0.337308,0 -0.02868,-0.07474 -0.156624,-0.135892 -0.284319,-0.135892 -0.127695,0 -0.255639,0.06115 -0.28432,0.135892 -0.02868,0.07474 -0.108936,0.135892 -0.178346,0.135892 -0.06941,0 -0.126199,-0.06115 -0.126199,-0.135892 0,-0.09091 -0.09091,-0.135892 -0.274627,-0.135892 -0.160541,0 -0.296291,0.05645 -0.326774,0.135892 -0.02868,0.07474 -0.108937,0.135892 -0.178347,0.135892 -0.06941,0 -0.126199,-0.06115 -0.126199,-0.135892 0,-0.196441 -0.509232,-0.178124 -0.629661,0.02265 -0.09057,0.150991 -0.09963,0.150991 -0.190192,0 -0.117527,-0.195935 -0.58973,-0.21208 -0.662423,-0.02265 -0.02868,0.07474 -0.114577,0.135892 -0.190882,0.135892 -0.0763,0 -0.138735,-0.06115 -0.138735,-0.135892 0,-0.08948 -0.08952,-0.135892 -0.262091,-0.135892 -0.149398,0 -0.284513,0.05843 -0.314238,0.135892 -0.02868,0.07474 -0.114577,0.135892 -0.190882,0.135892 -0.0763,0 -0.138735,-0.06115 -0.138735,-0.135892 0,-0.183017 -0.506099,-0.183017 -0.576329,0 -0.02868,0.07474 -0.114577,0.135892 -0.190882,0.135892 -0.0763,0 -0.138735,-0.06115 -0.138735,-0.135892 0,-0.191797 -0.447934,-0.174933 -0.601593,0.02265 -0.117426,0.150991 -0.127823,0.150991 -0.218328,0 -0.122979,-0.205171 -0.592156,-0.20935 -0.705795,-0.0063 -0.07981,0.142608 -0.09485,0.142608 -0.23746,0 -0.191781,-0.191782 -0.592285,-0.202845 -0.592285,-0.01636 0,0.07474 -0.05679,0.135892 -0.126199,0.135892 -0.06941,0 -0.149665,-0.06115 -0.178347,-0.135892 -0.03048,-0.07944 -0.166233,-0.135892 -0.326773,-0.135892 -0.183716,0 -0.274627,0.04499 -0.274627,0.135892 0,0.07474 -0.05679,0.135892 -0.126199,0.135892 -0.06941,0 -0.149666,-0.06115 -0.178347,-0.135892 -0.03048,-0.07944 -0.166233,-0.135892 -0.326774,-0.135892 -0.183716,0 -0.274627,0.04499 -0.274627,0.135892 0,0.176481 -0.236823,0.176481 -0.304545,0 -0.06768,-0.17638 -0.500956,-0.17638 -0.568639,0 -0.02868,0.07474 -0.108937,0.135892 -0.178347,0.135892 -0.06941,0 -0.126199,-0.06115 -0.126199,-0.135892 0,-0.09409 -0.09455,-0.135892 -0.307388,-0.135892 -0.189662,0 -0.32736,0.05205 -0.359536,0.135892 -0.03997,0.104148 -0.21153,0.135892 -0.73445,0.135892 h -0.682303 v -0.309672 c 0,-0.558334 0.04673,-0.596275 0.73445,-0.596275 0.355917,0 0.62447,-0.03896 0.62447,-0.0906 0,-0.05174 -0.28166,-0.09209 -0.656811,-0.09408 -0.639018,-0.0034 -0.661753,-0.01134 -0.839213,-0.293425 -0.25312,-0.402347 -0.497058,-0.437734 -0.497058,-0.07211 v 0.278426 h -2.808434 c -2.186053,0 -2.808558,0.0251 -2.808992,0.113243 -2.71e-4,0.06228 -0.06844,0.235546 -0.151407,0.385028 -0.106745,0.192322 -0.162414,0.569763 -0.190408,1.290973 -0.02176,0.560554 -0.07593,1.01919 -0.120378,1.01919 -0.04445,0 -0.08082,0.084 -0.08082,0.186674 0,0.184483 0.02796,0.186343 2.382967,0.15854 l 2.382966,-0.02813 0.357521,-0.33782 c 0.196637,-0.185801 0.372127,-0.294862 0.389979,-0.242358 0.03654,0.107461 -0.180035,0.329004 -0.574238,0.587422 -0.243813,0.15983 -0.471521,0.175467 -2.806108,0.192707 l -2.540763,0.01876 -0.10659,0.307799 c -0.05862,0.169289 -0.153493,0.629674 -0.210818,1.023077 -0.05732,0.393403 -0.163546,1.122954 -0.236048,1.621224 -0.0725,0.498271 -0.171501,1.170936 -0.22,1.494812 -0.190736,1.273745 -0.200712,1.424653 -0.09836,1.487909 0.05597,0.03459 0.101763,0.220568 0.101763,0.413282 0,0.257335 -0.04078,0.358243 -0.153546,0.379959 -0.08445,0.01627 -0.624621,-0.04269 -1.200379,-0.131004 -0.575758,-0.08832 -1.372973,-0.203593 -1.77159,-0.256169 -0.398616,-0.05258 -0.806292,-0.131626 -0.905946,-0.175665 -0.09965,-0.04404 -0.283108,-0.09196 -0.407676,-0.106489 -0.219378,-0.02559 -0.225953,-0.04632 -0.20947,-0.660579 0.0094,-0.34879 0.05957,-0.899152 0.111574,-1.223028 0.311844,-1.942007 0.397453,-2.402043 0.606927,-3.261407 0.127528,-0.523184 0.266882,-1.032779 0.309676,-1.132433 0.192269,-0.447734 0.270665,-1.186524 0.177908,-1.676578 -0.05181,-0.273731 -0.136152,-0.511941 -0.187424,-0.529356 -0.05127,-0.01741 -0.223738,-0.164247 -0.383259,-0.326294 -0.159522,-0.162047 -0.399687,-0.32122 -0.5337,-0.353717 -0.329887,-0.07999 -6.947941,-0.09925 -7.026745,-0.02045 -0.03438,0.03438 -0.01784,0.09087 0.03676,0.125534 0.06019,0.03821 0.120289,0.580184 0.152655,1.376642 0.09824,2.417481 0.456706,4.86983 1.066017,7.292868 0.100239,0.398617 0.237779,0.947909 0.305646,1.22065 0.06787,0.272741 0.103836,0.527539 0.07993,0.566216 -0.0239,0.03868 -2.72e-4,0.07033 0.05248,0.07033 0.05277,0 0.09621,0.07134 0.09654,0.15854 3.62e-4,0.0872 0.07954,0.278301 0.17603,0.424673 0.09649,0.146373 0.154966,0.299252 0.129949,0.33973 -0.02502,0.04048 6.34e-4,0.0736 0.05693,0.0736 0.06039,0 0.04556,0.05686 -0.03616,0.138573 -0.170596,0.170594 -0.784697,0.392061 -0.938856,0.338584 -0.06228,-0.02161 -0.113244,0.0024 -0.113244,0.05331 0,0.05093 -0.193646,0.120617 -0.430324,0.154869 -0.236679,0.03425 -0.476551,0.09896 -0.53305,0.143807 -0.0565,0.04484 -0.250144,0.08707 -0.430324,0.09385 -0.18018,0.0068 -0.3276,0.03961 -0.3276,0.07297 0,0.03336 -0.173262,0.103527 -0.385027,0.15593 -0.211765,0.0524 -0.792703,0.208342 -1.290973,0.346533 -0.498271,0.138191 -1.007866,0.24847 -1.132433,0.245065 -0.124568,-0.0034 -0.272535,0.03189 -0.328816,0.07844 -0.05628,0.04655 -0.276792,0.101986 -0.490024,0.1232 -0.213232,0.02121 -0.416017,0.0844 -0.450634,0.140408 -0.06207,0.10043 -0.623828,0.263555 -0.9221,0.267764 -0.08426,0.0012 -0.181207,-0.04317 -0.215445,-0.09856 z m 28.090598,-13.85085 c 0.03267,-0.05285 -0.05945,-0.0906 -0.221139,-0.0906 -0.152422,0 -0.277131,0.04077 -0.277131,0.0906 0,0.04983 0.09951,0.0906 0.221139,0.0906 0.121627,0 0.246336,-0.04077 0.277131,-0.0906 z m -0.885185,-0.05473 c -0.0301,-0.0301 -0.108242,-0.03332 -0.17364,-0.0071 -0.07227,0.02892 -0.0508,0.05039 0.05474,0.05473 0.0955,0.0039 0.149009,-0.01748 0.118905,-0.04758 z m 2.313296,-2.183309 c -0.111426,-0.0215 -0.315263,-0.02206 -0.452973,-0.0012 -0.137709,0.02082 -0.04654,0.03842 0.202593,0.0391 0.249135,7.25e-4 0.361806,-0.01636 0.25038,-0.03786 z m 20.144737,-0.842174 c 0.208372,0 0.215163,-0.02264 0.215163,-0.717347 0,-0.953496 -0.02516,-1.003951 -0.500554,-1.003951 -0.667654,0 -0.677177,0.01277 -0.677177,0.90809 0,0.863427 0.03598,0.926581 0.486946,0.854715 0.143253,-0.02283 0.357283,-0.04151 0.475622,-0.04151 z m 1.78132,0.0062 c 0.03924,-0.0034 0.05962,-0.383252 0.0453,-0.844152 l -0.02605,-0.838 -0.476775,-0.02742 c -0.56593,-0.03255 -0.61737,0.04386 -0.647068,0.961195 -0.02472,0.76349 0.08298,0.83646 1.104594,0.748381 z M 3.055307,10.639434 C 3.2188909,10.171416 2.6541358,9.8342706 2.2775126,10.17511 c -0.1889987,0.171041 -0.2074617,0.327466 -0.069154,0.585895 0.074551,0.139299 0.1721224,0.17403 0.4286744,0.152585 0.2680336,-0.02241 0.3487795,-0.07533 0.418274,-0.274156 z M 60.25809,9.7235786 c 0.01735,-0.09114 0.0068,-0.264401 -0.0235,-0.385027 -0.0487,-0.19402 -0.105336,-0.219321 -0.490984,-0.219321 -0.366464,0 -0.454336,0.03438 -0.551374,0.215691 -0.06408,0.119725 -0.08772,0.303022 -0.05314,0.411974 0.05569,0.175459 0.116675,0.193424 0.574867,0.169336 0.412172,-0.02167 0.51875,-0.0594 0.544122,-0.192653 z m 1.722211,-0.0047 c 0.01785,-0.09375 -0.01921,-0.267009 -0.08237,-0.385027 -0.09068,-0.169434 -0.189222,-0.21458 -0.468381,-0.21458 -0.404211,0 -0.612382,0.162048 -0.612382,0.476701 0,0.313663 0.07079,0.349631 0.629685,0.319955 0.406493,-0.02158 0.50711,-0.05875 0.533452,-0.197049 z m 1.629194,-0.08417 c 0.04093,-0.356969 -0.126638,-0.515441 -0.545029,-0.515441 -0.411118,0 -0.616599,0.161376 -0.616599,0.48425 0,0.278735 0.105079,0.325652 0.67946,0.303373 0.424226,-0.01645 0.454826,-0.03373 0.482168,-0.272182 z m 1.68241,0.156609 c 0.158864,-0.413991 -0.05409,-0.67205 -0.554582,-0.67205 -0.410948,0 -0.568158,0.126174 -0.568158,0.455993 0,0.327767 0.05224,0.359359 0.594272,0.359359 0.348178,0 0.488031,-0.03792 0.528468,-0.143302 z m 1.671133,-0.07244 c 0.01784,-0.09375 -0.01924,-0.267008 -0.08241,-0.385027 -0.09235,-0.172547 -0.188147,-0.214579 -0.489088,-0.214579 -0.415252,0 -0.591675,0.121559 -0.591675,0.407676 0,0.310756 0.186731,0.417884 0.67805,0.388995 0.359121,-0.02112 0.459389,-0.06185 0.485119,-0.197065 z m 1.629758,0.0047 c 0.01735,-0.09114 0.0068,-0.2644 -0.0235,-0.385027 -0.04869,-0.19402 -0.105336,-0.219321 -0.490984,-0.219321 -0.366463,0 -0.454335,0.03437 -0.551373,0.215692 -0.06408,0.119725 -0.08772,0.303022 -0.05314,0.411974 0.05569,0.175459 0.116675,0.193424 0.574868,0.169335 0.412172,-0.02167 0.518749,-0.0594 0.544121,-0.192653 z M 48.166994,7.8443296 c 0.222011,-0.174634 0.238704,-0.237988 0.238704,-0.905946 0,-0.418391 -0.03782,-0.718182 -0.09059,-0.718182 -0.04983,0 -0.0906,-0.06115 -0.0906,-0.135892 0,-0.07848 -0.08613,-0.13882 -0.203838,-0.142823 -0.112111,-0.0038 -0.285373,-0.02341 -0.385027,-0.04354 -0.206292,-0.04168 -0.799166,-0.101208 -1.721297,-0.172823 -0.34879,-0.02709 -0.715698,-0.06509 -0.815352,-0.08445 -0.09965,-0.01936 -0.650017,-0.06319 -1.223028,-0.09741 -0.573011,-0.03422 -1.204908,-0.08099 -1.404217,-0.103942 -0.199308,-0.02295 -0.484681,-0.05602 -0.634162,-0.07349 -0.149481,-0.01747 -0.767126,-0.06066 -1.372545,-0.09599 -1.042575,-0.06084 -1.110815,-0.05418 -1.290974,0.125981 -0.169241,0.169242 -0.190212,0.295853 -0.190212,1.148425 0,0.938284 0.0055,0.96372 0.264815,1.223028 l 0.264815,0.264815 h 4.207402 c 4.119338,0 4.212398,-0.0039 4.446106,-0.187765 z m -12.312097,-2.66669 c 0.596032,-0.07434 1.136202,-0.135168 1.200379,-0.135168 0.06418,0 0.116687,-0.04077 0.116687,-0.0906 0,-0.122079 -2.22335,-0.119188 -2.452011,0.0032 -0.194789,0.104248 -0.238947,0.359598 -0.06199,0.358467 0.06228,-3.98e-4 0.600905,-0.06155 1.196935,-0.135892 z m 13.003774,-0.442557 c 0,-0.283393 -0.139313,-0.327347 -1.026599,-0.323892 -0.719575,0.0028 -1.057077,0.111128 -1.057077,0.339286 0,0.156576 0.179325,0.186733 1.155081,0.194248 0.921027,0.0071 0.928595,0.0054 0.928595,-0.209642 z"
   id="path261" /><path
   style="fill:#ffffff;stroke-width:0.016015"
   d="m 46.678908,18.483424 c 0,-0.01404 -0.01441,-0.02929 -0.03203,-0.0339 -0.01762,-0.0046 -0.03203,-0.01835 -0.03203,-0.03053 0,-0.01218 -0.01,-0.02215 -0.02215,-0.02215 -0.01219,0 -0.02592,-0.01441 -0.03053,-0.03203 -0.0046,-0.01762 -0.01986,-0.03203 -0.0339,-0.03203 -0.01774,0 -0.02552,-0.0148 -0.02552,-0.04855 0,-0.02838 -0.01,-0.05238 -0.02402,-0.05777 -0.01321,-0.0051 -0.02402,-0.01926 -0.02402,-0.03153 0,-0.01227 -0.01441,-0.02231 -0.03203,-0.02231 -0.01809,0 -0.03203,-0.01068 -0.03203,-0.02453 0,-0.01349 -0.01081,-0.02867 -0.02402,-0.03374 -0.01393,-0.0053 -0.02402,-0.02931 -0.02402,-0.05705 0,-0.03436 -0.009,-0.05019 -0.03203,-0.05621 -0.02279,-0.006 -0.03203,-0.02184 -0.03203,-0.05506 0,-0.02672 -0.01027,-0.05062 -0.02402,-0.0559 -0.01683,-0.0065 -0.02402,-0.0327 -0.02402,-0.08758 0,-0.06769 -0.0044,-0.07836 -0.03203,-0.07836 -0.02898,0 -0.03203,-0.01068 -0.03203,-0.112106 0,-0.08897 -0.005,-0.112105 -0.02402,-0.112105 -0.01957,0 -0.02402,-0.02669 -0.02402,-0.144135 0,-0.117444 0.0044,-0.144135 0.02402,-0.144135 0.02089,0 0.02402,-0.07207 0.02402,-0.552519 0,-0.473907 -0.0033,-0.552518 -0.0234,-0.552518 -0.01839,0 -0.02439,-0.03002 -0.02803,-0.140131 l -0.0046,-0.140132 -0.196184,-0.0045 c -0.159842,-0.0037 -0.196184,-0.0089 -0.196184,-0.02803 0,-0.02035 0.09843,-0.02353 0.728684,-0.02353 h 0.728683 v 0.05605 c 0,0.03915 -0.0072,0.05605 -0.02402,0.05605 -0.01815,0 -0.02402,0.01957 -0.02402,0.08007 0,0.06259 -0.0056,0.08008 -0.02552,0.08008 -0.01404,0 -0.02929,0.01441 -0.0339,0.03203 -0.0063,0.02407 -0.02184,0.03203 -0.06256,0.03203 -0.03749,0 -0.05419,0.0074 -0.05419,0.02402 0,0.01321 -0.01081,0.02402 -0.02402,0.02402 -0.01678,0 -0.02402,0.0169 -0.02402,0.05605 0,0.04061 -0.007,0.05605 -0.02552,0.05605 -0.01404,0 -0.02929,0.01441 -0.0339,0.03203 -0.0046,0.01762 -0.01835,0.03203 -0.03053,0.03203 -0.01218,0 -0.02215,0.01 -0.02215,0.02216 0,0.01218 -0.01441,0.02592 -0.03203,0.03053 -0.02674,0.007 -0.03203,0.02184 -0.03203,0.08995 v 0.08157 h -0.05781 c -0.05663,0 -0.05767,0.0011 -0.05126,0.05605 0.0053,0.04572 0.0012,0.05605 -0.02227,0.05605 -0.02225,0 -0.02882,0.01276 -0.02882,0.05605 0,0.04538 -0.0061,0.05605 -0.03203,0.05605 -0.02776,0 -0.03203,0.01068 -0.03203,0.08008 0,0.0605 -0.0059,0.08007 -0.02402,0.08007 -0.0207,0 -0.02402,0.05427 -0.02402,0.392368 0,0.338095 0.0033,0.392369 0.02402,0.392369 0.01892,0 0.02402,0.02241 0.02402,0.105597 0,0.09213 0.0041,0.106666 0.03203,0.113973 0.02407,0.0063 0.03203,0.02185 0.03203,0.06256 0,0.03749 0.0074,0.05419 0.02402,0.05419 0.01678,0 0.02402,0.0169 0.02402,0.05605 0,0.04538 0.0061,0.05605 0.03203,0.05605 0.02593,0 0.03203,0.01068 0.03203,0.05605 0,0.05338 0.0027,0.05605 0.05605,0.05605 0.03915,0 0.05605,0.0072 0.05605,0.02402 0,0.01321 0.01081,0.02402 0.02402,0.02402 0.01844,0 0.02402,0.02046 0.02402,0.08808 v 0.08808 h -0.08008 c -0.06259,0 -0.08008,-0.0056 -0.08008,-0.02552 z"
   id="path263" /><path
   style="fill:#ffffff;stroke-width:0.016015"
   d="m 49.577626,18.203162 c 0,-0.03774 -0.04682,-0.04027 -0.1129,-0.0061 -0.04235,0.0219 -0.04725,0.0219 -0.04725,0 0,-0.01344 0.01081,-0.02443 0.02402,-0.02443 0.01678,0 0.02402,-0.01691 0.02402,-0.05605 0,-0.04538 0.0061,-0.05605 0.03203,-0.05605 0.02593,0 0.03203,-0.01068 0.03203,-0.05605 0,-0.03915 0.0072,-0.05605 0.02402,-0.05605 0.01844,0 0.02402,-0.02046 0.02402,-0.08808 0,-0.07741 0.0039,-0.08808 0.03203,-0.08808 0.02952,0 0.03203,-0.01068 0.03203,-0.136128 0,-0.110326 0.0046,-0.136128 0.02402,-0.136128 0.02104,0 0.02402,-0.100539 0.02402,-0.808759 0,-0.677914 -0.0036,-0.808758 -0.02215,-0.808758 -0.01219,0 -0.02592,-0.01441 -0.03053,-0.03203 -0.0082,-0.03135 -0.02185,-0.03203 -0.641355,-0.03203 h -0.632978 l -0.0069,0.03603 -0.0069,0.03603 -0.0022,-0.03603 -0.0022,-0.03603 h -0.528496 c -0.459097,0 -0.528496,-0.0032 -0.528496,-0.02402 0,-0.02118 0.175276,-0.02402 1.48139,-0.02402 1.306114,0 1.481389,0.0028 1.481389,0.02402 0,0.01977 -0.02864,0.02402 -0.161649,0.02402 -0.148181,0 -0.162348,0.0027 -0.170026,0.03203 -0.0046,0.01762 -0.01835,0.03203 -0.03053,0.03203 -0.01859,0 -0.02215,0.139172 -0.02215,0.864811 0,0.854134 -3.96e-4,0.864811 -0.03203,0.864811 -0.02953,0 -0.03203,0.01068 -0.03203,0.136631 0,0.106676 -0.0053,0.138652 -0.02402,0.145849 -0.01337,0.0051 -0.02402,0.02893 -0.02402,0.05368 0,0.031 -0.0097,0.047 -0.03203,0.05284 -0.02301,0.006 -0.03203,0.02185 -0.03203,0.05621 0,0.02774 -0.01009,0.0517 -0.02402,0.05705 -0.01375,0.0053 -0.02402,0.02918 -0.02402,0.0559 0,0.03321 -0.0092,0.0491 -0.03203,0.05506 -0.02376,0.0062 -0.03203,4.92e-4 -0.03203,-0.02215 z"
   id="path265" /></svg>
