<?xml version="1.0" encoding="UTF-8" standalone="no"?>
<svg
   xmlns:dc="http://purl.org/dc/elements/1.1/"
   xmlns:cc="http://creativecommons.org/ns#"
   xmlns:rdf="http://www.w3.org/1999/02/22-rdf-syntax-ns#"
   xmlns:svg="http://www.w3.org/2000/svg"
   xmlns="http://www.w3.org/2000/svg"
   xmlns:sodipodi="http://sodipodi.sourceforge.net/DTD/sodipodi-0.dtd"
   xmlns:inkscape="http://www.inkscape.org/namespaces/inkscape"
   version="1.1"
   id="Layer_1"
   x="0px"
   y="0px"
   width="92.592px"
   height="39.134px"
   viewBox="0 0 92.592 39.134"
   enable-background="new 0 0 92.592 39.134"
   xml:space="preserve"
   sodipodi:docname="mp5.svg"
   inkscape:version="1.0.2-2 (e86c870879, 2021-01-15)"><metadata
   id="metadata176"><rdf:RDF><cc:Work
       rdf:about=""><dc:format>image/svg+xml</dc:format><dc:type
         rdf:resource="http://purl.org/dc/dcmitype/StillImage" /></cc:Work></rdf:RDF></metadata><defs
   id="defs174" /><sodipodi:namedview
   pagecolor="#ffffff"
   bordercolor="#666666"
   borderopacity="1"
   objecttolerance="10"
   gridtolerance="10"
   guidetolerance="10"
   inkscape:pageopacity="0"
   inkscape:pageshadow="2"
   inkscape:window-width="1842"
   inkscape:window-height="1051"
   id="namedview172"
   showgrid="false"
   inkscape:zoom="2.3196786"
   inkscape:cx="144.89709"
   inkscape:cy="70.815025"
   inkscape:window-x="-9"
   inkscape:window-y="-9"
   inkscape:window-maximized="1"
   inkscape:current-layer="Layer_1" />

<path
   style="fill:#ffffff;stroke-width:0.152415"
   d="m 59.635189,38.094196 c -0.28739,-0.49057 -0.817466,-1.454197 -1.688684,-3.069872 -1.282085,-2.377626 -3.24023,-7.357571 -4.165166,-10.59283 -0.62313,-2.179592 -0.910557,-3.279914 -1.014521,-3.883772 -0.196348,-1.14045 -0.505962,-1.360796 -1.363245,-0.970192 -0.359211,0.163668 -0.486379,0.468227 -0.626666,1.500838 -0.05223,0.384465 -0.404542,1.239315 -0.479761,1.164097 -0.03893,-0.03893 0.03759,-0.493783 0.170037,-1.010786 0.13245,-0.517003 0.240819,-1.003053 0.240819,-1.080111 0,-0.07706 -0.375646,-0.140104 -0.834768,-0.140104 -0.978531,0 -1.027129,0.05218 -1.747485,1.876137 -0.697923,1.767159 -1.164809,2.619768 -1.585536,2.895439 -0.281221,0.184262 -0.92881,0.2705 -2.562403,0.341225 l -2.186075,0.09464 -1.130801,-0.552531 c -0.621939,-0.303892 -1.215323,-0.520097 -1.318629,-0.480454 -0.465549,0.178649 -3.749348,6.716069 -3.811443,7.587862 -0.04526,0.635411 -0.156053,0.888109 -0.389386,0.888109 -0.13327,0 -1.122325,-0.561475 -5.733445,-3.254808 -0.440098,-0.25706 -0.800178,-0.526387 -0.800178,-0.598507 0,-0.121848 1.375673,-2.231438 2.435429,-3.734721 0.253249,-0.359238 0.460453,-0.680165 0.460453,-0.71317 0,-0.033 0.416912,-0.689599 0.926473,-1.459099 2.059123,-3.109532 2.295998,-3.862946 1.626475,-5.173233 -0.446053,-0.872943 -0.927338,-1.206727 -1.907347,-1.322794 -0.525125,-0.06219 -0.798016,-0.165434 -0.798016,-0.301906 0,-0.165945 -0.469631,-0.207392 -2.349964,-0.207392 -2.439698,0 -2.83214,0.0526 -2.83214,0.379567 0,0.395374 -1.507841,0.529455 -1.870929,0.166367 -0.138072,-0.138072 -0.248065,-0.708905 -0.304529,-1.58043 -0.07628,-1.177403 -0.140833,-1.42088 -0.471236,-1.777392 -0.356288,-0.384441 -0.440869,-0.405852 -1.219136,-0.308614 -0.74703,0.09334 -0.857679,0.07023 -1.036736,-0.216483 -0.199224,-0.319009 -0.244553,-0.320971 -7.416618,-0.320971 H 6.6338632 l -0.498984,0.470658 c -0.2744412,0.25886 -0.6562953,0.550353 -0.8485646,0.647763 -0.7848432,0.397626 -0.9420745,0.847483 -1.0824201,3.096927 -0.2168727,3.476016 -0.8164026,6.603455 -1.3823307,7.210908 -0.3318748,0.356225 -0.8944345,0.614518 -1.3384157,0.614518 -0.4508433,0 -1.23833589,-1.555794 -0.89492229,-1.768035 0.081673,-0.05048 0.1083444,-0.196412 0.059269,-0.3243 -0.049075,-0.127889 -0.00968,-0.328367 0.087536,-0.44551 0.09722,-0.117143 0.1332918,-0.25646 0.080159,-0.309593 -0.053132,-0.05313 -0.015876,-0.193875 0.082791,-0.312763 0.13871039,-0.167135 0.13426329,-0.244051 -0.0196083,-0.339149 -0.1540135,-0.09519 -0.1345689,-0.160845 0.086008,-0.290425 C 1.1938132,20.354522 1.209067,20.29532 1.0426015,20.18572 0.88892041,20.084535 0.88180291,20.021142 1.0148885,19.938892 c 0.098493,-0.06087 0.1377856,-0.218283 0.087317,-0.3498 -0.050468,-0.131519 -0.00811,-0.29082 0.09412,-0.354003 0.1447888,-0.08949 0.1418044,-0.167989 -0.0135,-0.355119 -0.1312844,-0.158188 -0.1415341,-0.240239 -0.03001,-0.240239 0.093154,0 0.1691919,-0.15432 0.1689743,-0.342934 C 1.3189764,15.857554 1.4513,7.950598 1.4954717,7.918529 1.8497239,7.661332 2.8674182,7.437368 3.3069932,7.519867 3.6003918,7.574932 4.3205518,7.70792 4.9073488,7.815395 6.5056272,8.108129 6.5077044,8.110118 6.5077044,9.347789 v 1.061542 h 6.7634076 c 3.719874,0 6.977741,-0.04287 7.239704,-0.09526 0.421591,-0.08432 0.476296,-0.154889 0.476296,-0.614443 0,-0.320895 0.08732,-0.55269 0.228622,-0.606914 0.125743,-0.04825 0.228623,-0.223025 0.228623,-0.388385 0,-0.279308 0.07034,-0.293122 0.990696,-0.19456 0.988177,0.105825 0.990696,0.105106 0.990696,-0.282776 0,-0.441044 0.175151,-0.888613 0.607288,-1.551826 0.163861,-0.251485 0.408691,-0.653656 0.544063,-0.893714 l 0.246133,-0.436469 1.549376,0.08998 c 0.852157,0.04949 2.612471,0.108726 3.911807,0.131639 l 2.36243,0.04166 0.07932,-0.892373 c 0.06164,-0.6934172 0.15885,-0.9567715 0.436027,-1.1812151 0.532147,-0.4309069 1.690788,-0.3678335 2.990193,0.1627784 1.067915,0.4360837 1.114952,0.4976677 0.90647,1.1868397 -0.07612,0.251636 -0.04153,0.342933 0.129956,0.342933 0.128533,0 0.259391,0.07708 0.290794,0.171292 0.04002,0.12005 1.206464,0.177044 3.899207,0.190519 3.564843,0.01784 3.842116,-2.2e-5 3.842183,-0.2475 6.1e-5,-0.224396 -0.145058,-0.266726 -0.914418,-0.266726 -0.680053,0 -0.914488,-0.05443 -0.914488,-0.212315 0,-0.258569 0.506104,-0.479389 0.581349,-0.253652 0.06828,0.20484 0.637969,0.212629 0.637969,0.0087 0,-0.08383 0.137173,-0.152414 0.30483,-0.152414 0.167656,0 0.304829,0.06859 0.304829,0.152414 0,0.220868 0.571541,0.18753 0.653252,-0.0381 0.0552,-0.152414 0.13353,-0.152414 0.391671,0 0.38799,0.229083 0.784055,0.248331 0.784055,0.0381 0,-0.08383 0.10288,-0.152414 0.228622,-0.152414 0.125743,0 0.228623,0.06859 0.228623,0.152414 0,0.08383 0.171466,0.152415 0.381037,0.152415 0.20957,0 0.381037,-0.06859 0.381037,-0.152415 0,-0.08383 0.10288,-0.152414 0.228622,-0.152414 0.125742,0 0.228622,0.06859 0.228622,0.152414 0,0.08383 0.171467,0.152415 0.381037,0.152415 0.209571,0 0.381037,-0.06859 0.381037,-0.152415 0,-0.08383 0.10288,-0.152414 0.228623,-0.152414 0.125742,0 0.228622,0.06859 0.228622,0.152414 0,0.08383 0.171466,0.152415 0.381037,0.152415 0.20957,0 0.381037,-0.06859 0.381037,-0.152415 0,-0.08383 0.10288,-0.152414 0.228622,-0.152414 0.125742,0 0.228622,0.06859 0.228622,0.152414 0,0.08383 0.171467,0.152415 0.381037,0.152415 0.209571,0 0.381037,-0.06859 0.381037,-0.152415 0,-0.08383 0.10288,-0.152414 0.228623,-0.152414 0.125742,0 0.228622,0.06859 0.228622,0.152414 0,0.08383 0.171467,0.152415 0.381037,0.152415 0.20957,0 0.381037,-0.06859 0.381037,-0.152415 0,-0.08383 0.10288,-0.152414 0.228622,-0.152414 0.125742,0 0.228622,0.06859 0.228622,0.152414 0,0.08383 0.171467,0.152415 0.381038,0.152415 0.20957,0 0.381037,-0.06859 0.381037,-0.152415 0,-0.08383 0.10288,-0.152414 0.228622,-0.152414 0.125742,0 0.228622,0.06859 0.228622,0.152414 0,0.08383 0.171467,0.152415 0.381037,0.152415 0.20957,0 0.381037,-0.06859 0.381037,-0.152415 0,-0.08383 0.10288,-0.152414 0.228622,-0.152414 0.125743,0 0.228623,0.06859 0.228623,0.152414 0,0.08383 0.171466,0.152415 0.381037,0.152415 0.20957,0 0.381037,-0.06859 0.381037,-0.152415 0,-0.08383 0.10288,-0.152414 0.228622,-0.152414 0.125742,0 0.228622,0.06859 0.228622,0.152414 0,0.214908 0.571536,0.19058 0.644203,-0.02742 0.120211,-0.360636 0.575116,0.01155 0.575116,0.470543 0,0.418661 0.04869,0.458586 0.647763,0.531136 0.356269,0.04315 5.566917,0.116435 11.579217,0.162864 l 10.931456,0.08442 0.04241,-2.0968137 0.04241,-2.096814 h 0.52179 0.521792 l 0.421859,1.4479408 c 0.232021,0.7963674 0.425882,1.7320959 0.4308,2.0793969 0.0059,0.414395 0.08753,0.661614 0.237566,0.719187 0.17696,0.06791 0.228622,0.364343 0.228622,1.311833 0,0.986481 -0.04438,1.224102 -0.228622,1.224102 -0.168365,0 -0.228622,0.175662 -0.228622,0.666475 v 0.666475 l 0.800178,0.07706 c 0.440097,0.04238 1.490505,0.04191 2.334239,-0.001 1.983362,-0.101001 2.233583,0.01445 2.169955,1.0012 l -0.04606,0.714343 -1.430736,0.0441 c -0.945493,0.02914 -1.538536,0.119605 -1.748581,0.266726 -0.411762,0.28841 -0.859676,0.285286 -0.859676,-0.006 0,-0.165116 -0.169349,-0.228622 -0.609659,-0.228622 -0.508049,0 -0.609659,0.0508 -0.609659,0.30483 0,0.272993 -0.101611,0.304829 -0.97292,0.304829 -0.844738,0 -0.983422,-0.04016 -1.052635,-0.304829 -0.102689,-0.392687 -0.413082,-0.396716 -0.413082,-0.0054 0,0.164707 0.137173,0.37288 0.304829,0.462607 0.178257,0.0954 0.30483,0.31913 0.30483,0.538814 v 0.375675 h 2.117501 c 1.69383,0 2.134205,-0.04353 2.200992,-0.217573 0.08516,-0.22193 0.659479,-0.282435 4.55967,-0.480367 l 1.63846,-0.08315 v 2.219524 2.219523 h -1.667568 c -0.947304,0 -1.708255,-0.06583 -1.761766,-0.152415 -0.05181,-0.08383 -0.70743,-0.152415 -1.456936,-0.152415 -0.806883,0 -1.362738,-0.06217 -1.362738,-0.152415 0,-0.09545 -0.939892,-0.152415 -2.514845,-0.152415 -2.203313,0 -2.514844,0.0302 -2.514844,0.243783 0,0.217554 -0.34846,0.237716 -3.238815,0.187394 -2.164508,-0.03768 -3.348046,-0.117905 -3.568125,-0.241853 -0.181123,-0.102007 -0.479237,-0.428051 -0.662479,-0.724543 -0.632779,-1.023859 -0.469779,-1.004298 -8.066606,-0.968048 -6.213519,0.02965 -6.877004,0.0089 -7.2359,-0.226255 -0.249197,-0.16328 -0.395128,-0.398327 -0.395128,-0.636421 0,-0.294428 -0.07867,-0.377523 -0.357414,-0.377523 -0.196578,0 -0.466014,0.120026 -0.598748,0.266726 -0.215107,0.237742 -0.218256,0.374378 -0.02898,1.257422 0.263258,1.228176 0.279778,2.168541 0.04227,2.406051 -0.139451,0.13945 -0.135596,0.416546 0.01685,1.211697 0.335252,1.748628 1.044472,4.449948 1.671214,6.365422 0.554043,1.69329 0.799321,2.375859 1.673565,4.657256 0.178491,0.465786 1.001053,2.1989 1.827914,3.851363 l 1.503383,3.004478 -1.614504,0.873497 c -2.183497,1.181339 -2.045674,1.147041 -2.371865,0.590242 z M 46.223196,24.161378 c 0.173943,-0.144835 0.505717,-0.709149 0.737273,-1.254032 0.231558,-0.544883 0.517907,-1.206822 0.636332,-1.470976 0.118426,-0.264153 0.215319,-0.615835 0.215319,-0.781514 0,-0.570408 -0.328198,-0.654846 -2.370861,-0.609967 l -1.947313,0.04278 -0.284419,0.509609 c -0.464011,0.831387 -0.510953,1.695494 -0.137921,2.538796 0.384484,0.869187 0.282437,1.091685 -0.215129,0.469058 -0.465285,-0.582237 -0.677092,-1.496334 -0.575414,-2.483328 0.07635,-0.74118 0.05554,-0.806847 -0.308314,-0.972629 -0.214609,-0.09778 -0.500335,-0.135521 -0.634948,-0.08387 -0.348222,0.133625 -1.338845,2.296524 -1.358531,2.966178 -0.0157,0.534177 0.0246,0.582037 0.821769,0.975972 0.790781,0.390776 0.959192,0.414335 2.972089,0.415752 1.79956,0.0012 2.183348,-0.03975 2.450068,-0.261835 z M 81.64821,9.113805 c 0,-0.584257 -0.04516,-0.685867 -0.304829,-0.685867 -0.3206,0 -0.391214,0.347992 -0.208765,1.0288 0.169522,0.63257 0.513594,0.402829 0.513594,-0.342933 z M 36.228594,4.160323 c 0,-0.2235418 -0.10161,-0.3048296 -0.381037,-0.3048296 -0.358634,0 -0.510805,0.2766726 -0.279427,0.5080496 0.227409,0.227409 0.660464,0.09416 0.660464,-0.20322 z"
   id="path392" /></svg>
