<?xml version="1.0" encoding="UTF-8" standalone="no"?>
<svg
   version="1.1"
   x="0px"
   y="0px"
   width="96.583px"
   height="32px"
   viewBox="0 0 96.583 32"
   enable-background="new 0 0 96.583 32"
   xml:space="preserve"
   id="svg137"
   sodipodi:docname="sykov_akimbo.svg"
   inkscape:version="1.2.1 (9c6d41e410, 2022-07-14)"
   xmlns:inkscape="http://www.inkscape.org/namespaces/inkscape"
   xmlns:sodipodi="http://sodipodi.sourceforge.net/DTD/sodipodi-0.dtd"
   xmlns="http://www.w3.org/2000/svg"
   xmlns:svg="http://www.w3.org/2000/svg"
   xmlns:rdf="http://www.w3.org/1999/02/22-rdf-syntax-ns#"
   xmlns:cc="http://creativecommons.org/ns#"
   xmlns:dc="http://purl.org/dc/elements/1.1/"><metadata
   id="metadata143"><rdf:RDF><cc:Work
       rdf:about=""><dc:format>image/svg+xml</dc:format><dc:type
         rdf:resource="http://purl.org/dc/dcmitype/StillImage" /></cc:Work></rdf:RDF></metadata><defs
   id="defs141" /><sodipodi:namedview
   pagecolor="#ffffff"
   bordercolor="#666666"
   borderopacity="1"
   objecttolerance="10"
   gridtolerance="10"
   guidetolerance="10"
   inkscape:pageopacity="0"
   inkscape:pageshadow="2"
   inkscape:window-width="1920"
   inkscape:window-height="1017"
   id="namedview139"
   showgrid="false"
   inkscape:zoom="12.579854"
   inkscape:cx="37.440816"
   inkscape:cy="18.680662"
   inkscape:window-x="-8"
   inkscape:window-y="-8"
   inkscape:window-maximized="1"
   inkscape:current-layer="svg137"
   inkscape:showpageshadow="2"
   inkscape:pagecheckerboard="0"
   inkscape:deskcolor="#d1d1d1" />

<g
   id="guides">
</g>
<path
   style="fill:#ffffff;stroke-width:0.0398077"
   d="m 47.621524,31.164188 c -0.595076,0.0137 -0.665428,0.0082 -0.748323,-0.05913 l -0.0915,-0.07423 0.06165,-0.415145 c 0.03391,-0.228326 0.06164,-0.436361 0.06164,-0.462294 0,-0.02594 -0.03135,-0.04302 -0.06966,-0.03796 -0.03832,0.0051 -0.177144,-0.0033 -0.30851,-0.01839 -0.131365,-0.01515 -0.364238,-0.04433 -0.517497,-0.06482 -0.153259,-0.02048 -0.421959,-0.0588 -0.597113,-0.08516 -0.175154,-0.02634 -0.363244,-0.05014 -0.41798,-0.05288 -0.05474,-0.0028 -0.242547,-0.03087 -0.417356,-0.06252 -0.273221,-0.04947 -0.337484,-0.07735 -0.457789,-0.198579 -0.100056,-0.100829 -0.160003,-0.214476 -0.210312,-0.398696 -0.03869,-0.141718 -0.081,-0.33958 -0.09401,-0.439693 l -0.02363,-0.182026 -0.298192,0.291497 c -0.164007,0.160322 -0.312992,0.291494 -0.331078,0.291494 -0.01809,0 -0.06049,0.02761 -0.09424,0.06135 -0.05527,0.05527 -0.07352,0.05506 -0.184024,-0.0021 -0.06747,-0.03488 -0.132397,-0.08877 -0.144282,-0.119753 -0.01189,-0.03097 -0.0065,-0.100096 0.012,-0.153606 0.01849,-0.05351 0.132136,-0.210321 0.252554,-0.348469 0.120417,-0.138149 0.294475,-0.32353 0.386792,-0.41196 l 0.167852,-0.16078 -0.02273,-0.397685 c -0.01251,-0.218728 -0.02437,-0.603688 -0.02639,-0.855471 -0.0021,-0.251782 0.0092,-0.708574 0.02504,-1.015093 0.01579,-0.306517 0.03719,-0.620003 0.04758,-0.696631 0.01038,-0.07663 0.02939,-0.300548 0.04226,-0.497595 0.01284,-0.197047 0.02837,-0.438876 0.03447,-0.537401 0.0061,-0.09853 0.02435,-0.274693 0.04058,-0.391489 0.01622,-0.116796 0.03568,-0.269061 0.04327,-0.338364 0.0076,-0.0693 0.02565,-0.278274 0.04014,-0.464372 0.0145,-0.186101 0.05032,-0.444476 0.07962,-0.574164 0.02929,-0.12969 0.04617,-0.247263 0.03752,-0.261271 -0.0087,-0.01402 0.02803,-0.146065 0.08153,-0.29346 0.0535,-0.147395 0.09728,-0.302394 0.09728,-0.344445 0,-0.04205 0.02507,-0.135278 0.05569,-0.207179 0.03064,-0.0719 0.08885,-0.210755 0.129376,-0.30857 0.04052,-0.09781 0.07368,-0.191576 0.07368,-0.208358 0,-0.01677 0.0653,-0.160672 0.145101,-0.319751 0.0798,-0.15908 0.209675,-0.42836 0.288603,-0.5984 0.07893,-0.170044 0.143506,-0.335119 0.143506,-0.366839 0,-0.03172 0.05446,-0.143381 0.121024,-0.248138 0.06657,-0.104756 0.14937,-0.287697 0.184015,-0.40653 0.03464,-0.118836 0.104025,-0.293241 0.15418,-0.387569 0.05771,-0.10854 0.101354,-0.279987 0.118878,-0.467 0.01995,-0.212785 0.0091,-0.388435 -0.03877,-0.627524 -0.03785,-0.189088 -0.108267,-0.395928 -0.163567,-0.480455 -0.0534,-0.08163 -0.09647,-0.171202 -0.09569,-0.199037 7.86e-4,-0.02784 0.02583,-0.09473 0.05569,-0.148651 0.05141,-0.09286 0.04468,-0.106529 -0.127431,-0.258748 -0.09997,-0.08836 -0.240839,-0.201202 -0.313073,-0.250729 -0.07223,-0.04953 -0.274357,-0.142791 -0.449167,-0.207246 -0.174806,-0.06445 -0.385918,-0.125544 -0.469133,-0.135756 -0.08321,-0.01021 -0.285485,-0.04924 -0.449487,-0.08673 -0.164005,-0.03749 -0.338637,-0.0971 -0.388077,-0.132458 -0.05024,-0.03594 -0.115779,-0.152078 -0.14859,-0.26333 -0.03229,-0.109473 -0.06265,-0.387703 -0.06747,-0.618295 -0.0048,-0.23059 0.0047,-0.441073 0.02119,-0.467737 0.01855,-0.03002 0.0068,-0.04848 -0.03085,-0.04848 -0.04117,0 -0.05251,-0.02249 -0.03511,-0.06967 0.01415,-0.03831 0.04032,-0.0796 0.05818,-0.09174 0.01785,-0.01213 0.04089,-0.105147 0.05116,-0.206675 0.01028,-0.101526 0.04655,-0.251301 0.08062,-0.332834 0.03407,-0.08153 0.143146,-0.235054 0.242396,-0.341162 0.09925,-0.106108 0.169521,-0.210618 0.156154,-0.232246 -0.01339,-0.02162 -2.38e-4,-0.03932 0.02918,-0.03932 0.02942,0 0.08525,-0.05378 0.124072,-0.119503 0.03883,-0.06573 0.0607,-0.135505 0.04862,-0.155061 -0.01208,-0.01955 0.005,-0.04589 0.03788,-0.05852 0.03292,-0.01264 0.056,-0.0369 0.0513,-0.05393 -0.0047,-0.01704 0.02284,-0.08991 0.06119,-0.16195 0.03836,-0.07204 0.155495,-0.26233 0.260294,-0.422864 0.104796,-0.160532 0.264419,-0.379246 0.354717,-0.48603 0.0903,-0.106783 0.256489,-0.265806 0.369316,-0.353384 0.112827,-0.08757 0.269209,-0.212967 0.347516,-0.278651 0.07831,-0.06568 0.183468,-0.161981 0.233692,-0.213999 0.05022,-0.05202 0.08241,-0.108996 0.07152,-0.126623 -0.01089,-0.01762 -0.0021,-0.043 0.01955,-0.05639 0.02165,-0.01338 0.05701,-0.09075 0.07856,-0.1719324 0.02154,-0.08118 0.05017,-0.245809 0.0636,-0.365845 0.01344,-0.120039 0.04376,-0.241543 0.06738,-0.2700124 0.03053,-0.03678 0.149862,-0.04953 0.412403,-0.04406 0.288791,0.006 0.391775,-0.0069 0.471726,-0.05932 0.05625,-0.036862 0.104612,-0.088997 0.107455,-0.1158598 0.0028,-0.026865 0.0073,-0.1652795 0.01,-0.30759 l 0.0048,-0.2587489 0.184452,-0.021222 c 0.162005,-0.018628 0.197465,-0.00821 0.291383,0.085709 0.0907,0.090701 0.110288,0.1513242 0.12905,0.3993932 l 0.02212,0.2924605 1.15938,-0.01359 c 0.637655,-0.0075 1.374339,-0.008 1.637068,-0.0013 0.262731,0.0068 0.5583,0.01025 0.656825,0.0076 0.09852,-0.0027 1.889861,-0.0051 3.980754,-0.0054 2.09089,-2.64e-4 3.98971,-0.0046 4.219597,-0.0094 0.22989,-0.0048 2.191406,-0.0074 4.358927,-0.0057 2.16752,0.0016 4.075103,-0.0093 4.239063,-0.02443 0.271036,-0.02501 0.302721,-0.03712 0.348754,-0.1333521 0.02787,-0.058215 0.05789,-0.1812133 0.06676,-0.2733267 0.0089,-0.092113 0.03516,-0.186528 0.05848,-0.2098149 0.02992,-0.029914 0.136818,-0.029867 0.364243,1.592e-4 0.236438,0.031214 0.346547,0.065652 0.414734,0.1297119 0.05665,0.053224 0.10312,0.1557995 0.119222,0.2632106 0.01451,0.0968 0.04181,0.176 0.06068,0.176 0.01887,0 0.0551,0.06307 0.08053,0.140151 0.02646,0.08011 0.115083,0.1952164 0.206917,0.2687004 0.09619,0.07696 0.207691,0.224396 0.277848,0.367395 0.06612,0.1347834 0.134313,0.3602524 0.156509,0.5174984 0.02164,0.153261 0.03804,0.466744 0.03647,0.696633 -0.0016,0.229888 -0.02227,0.534414 -0.046,0.676726 -0.02368,0.142313 -0.06848,0.331939 -0.0995,0.421392 -0.03102,0.08945 -0.113542,0.250672 -0.183389,0.358267 -0.06984,0.107594 -0.157657,0.285193 -0.195143,0.394664 -0.03747,0.109472 -0.09469,0.270692 -0.127123,0.358269 -0.03243,0.08757 -0.106249,0.194647 -0.164029,0.237932 -0.09527,0.07136 -0.174492,0.07917 -0.849756,0.08377 -0.409577,0.0028 -1.110838,0.01952 -1.558348,0.03721 -0.797737,0.03152 -0.816843,0.0343 -0.97632,0.141927 -0.128234,0.08654 -0.242481,0.11956 -0.539799,0.156001 -0.207425,0.02543 -0.511488,0.06328 -0.675694,0.08412 -0.164204,0.02085 -0.432908,0.05552 -0.597113,0.07706 -0.164207,0.02154 -0.423949,0.05472 -0.577208,0.07373 -0.153261,0.01903 -0.401873,0.05479 -0.552477,0.07952 -0.150606,0.02472 -0.330985,0.07208 -0.400847,0.105233 -0.06986,0.03315 -0.201379,0.13604 -0.292258,0.22864 -0.107342,0.109371 -0.193549,0.250644 -0.246027,0.40318 -0.04443,0.129148 -0.08079,0.273655 -0.08079,0.321128 0,0.04747 0.0448,0.217997 0.09953,0.378944 0.05474,0.160946 0.126244,0.333407 0.158903,0.383247 0.03266,0.04984 0.08799,0.256428 0.122963,0.459079 0.03819,0.221243 0.05356,0.448647 0.03851,0.569152 -0.0138,0.110382 -0.03251,0.259314 -0.04158,0.330959 -0.0091,0.07165 -0.105083,0.313477 -0.213363,0.537404 -0.16892,0.349341 -0.241223,0.449851 -0.509324,0.70804 -0.263314,0.253583 -0.362541,0.320396 -0.630916,0.424824 -0.175153,0.06816 -0.443854,0.144621 -0.597113,0.169923 -0.153261,0.02531 -0.457787,0.07253 -0.676728,0.104932 -0.218942,0.0324 -0.505556,0.07578 -0.636922,0.09638 -0.131365,0.02062 -0.373194,0.05435 -0.537401,0.07501 -0.164206,0.02067 -0.395046,0.05651 -0.51298,0.07967 -0.117933,0.02316 -0.282573,0.0421 -0.365872,0.0421 -0.08329,0 -0.162518,0.01791 -0.176049,0.0398 -0.01354,0.02189 -0.09968,0.04014 -0.191433,0.04054 -0.09176,5.24e-4 -0.319097,0.02786 -0.505199,0.06102 -0.186098,0.03316 -0.472887,0.06079 -0.637306,0.0614 -0.164418,5.24e-4 -0.325638,-0.0081 -0.358267,-0.01928 -0.03263,-0.01124 -0.126994,-0.0302 -0.209703,-0.04218 -0.08271,-0.01197 -0.258333,-0.06723 -0.390279,-0.122757 -0.151301,-0.06368 -0.353043,-0.109603 -0.546255,-0.124342 -0.27224,-0.02077 -0.324081,-0.01314 -0.465581,0.06854 -0.08757,0.05055 -0.226645,0.144002 -0.309035,0.207674 -0.08239,0.06367 -0.19207,0.190206 -0.243731,0.281188 -0.05165,0.09098 -0.122026,0.290814 -0.156379,0.444071 -0.03435,0.153259 -0.08278,0.439873 -0.107615,0.636922 -0.02483,0.197048 -0.05145,0.429921 -0.05914,0.517498 -0.0076,0.08758 -0.03219,0.302538 -0.05445,0.477689 -0.02225,0.175154 -0.05912,0.488639 -0.08193,0.696634 -0.02281,0.207992 -0.05002,0.503564 -0.06047,0.656822 -0.01046,0.153259 -0.03758,0.435395 -0.0603,0.62697 -0.0227,0.191574 -0.06029,0.505059 -0.08351,0.696632 -0.02324,0.191574 -0.05736,0.473709 -0.07584,0.626968 -0.01849,0.153259 -0.05261,0.44883 -0.07585,0.656825 -0.02324,0.207994 -0.05107,0.503564 -0.06184,0.656825 -0.01078,0.153258 -0.03947,0.439872 -0.06374,0.636919 -0.02427,0.197048 -0.0598,0.492619 -0.07895,0.656825 -0.01916,0.164207 -0.05231,0.46361 -0.0737,0.665344 -0.02138,0.201734 -0.05195,0.389823 -0.06794,0.417979 -0.01598,0.02816 -0.06516,0.09131 -0.109298,0.140342 -0.07639,0.08487 -0.07692,0.09282 -0.0111,0.165544 0.03803,0.04201 0.125293,0.09966 0.193926,0.128083 0.06864,0.02843 0.160894,0.0878 0.205025,0.131928 0.05945,0.05944 0.08003,0.132089 0.07947,0.280361 -5.24e-4,0.110066 -0.01245,0.244905 -0.02673,0.299641 -0.01428,0.05474 -0.03546,0.144303 -0.04708,0.199038 -0.01161,0.05474 -0.04193,0.138881 -0.06736,0.186988 -0.03127,0.05915 -0.107578,0.100627 -0.235693,0.128102 -0.104199,0.02234 -0.598777,0.05124 -1.099057,0.06421 -0.500277,0.01296 -1.294736,0.04106 -1.765459,0.06241 -0.470726,0.02135 -1.151434,0.04563 -1.512687,0.05394 z m -2.987155,-1.919456 c 0.03371,-0.01189 0.08365,-0.03892 0.110967,-0.06006 0.02742,-0.02122 0.04132,-0.08531 0.03103,-0.143098 -0.01025,-0.05757 -0.05698,-0.136021 -0.103838,-0.174334 -0.04686,-0.03831 -0.129275,-0.06967 -0.18315,-0.06967 -0.05387,0 -0.123541,0.0256 -0.154819,0.05687 -0.03128,0.03128 -0.05659,0.0895 -0.05625,0.129375 2.66e-4,0.03988 0.01378,0.09229 0.02985,0.116478 0.01608,0.0242 0.08227,0.07144 0.147079,0.105014 0.06481,0.03357 0.145417,0.05131 0.179134,0.03941 z m 11.904043,-9.790296 c 0.229887,-0.012 0.434997,-0.03744 0.455795,-0.05653 0.02079,-0.01908 0.113676,-0.0347 0.206395,-0.0347 0.09271,0 0.344398,-0.02742 0.559294,-0.06095 0.214895,-0.03352 0.480288,-0.07789 0.589758,-0.0986 0.109471,-0.02071 0.351302,-0.04816 0.537401,-0.061 0.186102,-0.01285 0.418976,-0.04162 0.517498,-0.06395 0.09852,-0.02234 0.21496,-0.0556 0.258749,-0.07392 0.04379,-0.01831 0.146321,-0.04249 0.22785,-0.05371 0.08153,-0.01124 0.191141,-0.044 0.243583,-0.07284 0.05244,-0.02883 0.171834,-0.09437 0.265315,-0.145623 0.09348,-0.05125 0.252781,-0.176651 0.353998,-0.278652 0.10122,-0.102004 0.260821,-0.315443 0.354667,-0.474308 0.09385,-0.158867 0.177591,-0.338001 0.186096,-0.398077 0.0085,-0.06007 0.03383,-0.202147 0.05628,-0.315718 0.02742,-0.138699 0.02795,-0.319817 0.0016,-0.551693 -0.02157,-0.189858 -0.06038,-0.383553 -0.08622,-0.430429 -0.02586,-0.04687 -0.04813,-0.103139 -0.0495,-0.125035 -0.0013,-0.02189 -0.05108,-0.132494 -0.11045,-0.245781 -0.0594,-0.113282 -0.233942,-0.327443 -0.387897,-0.475908 -0.15396,-0.148466 -0.333123,-0.303622 -0.398139,-0.344787 -0.06502,-0.04117 -0.140963,-0.07834 -0.168769,-0.08259 -0.0278,-0.0043 -0.140122,-0.05133 -0.249592,-0.104624 -0.189319,-0.09215 -0.233714,-0.09669 -0.909044,-0.09291 -0.463664,0.0027 -0.725386,0.01934 -0.75435,0.04831 -0.02437,0.0244 -0.112409,0.04435 -0.195606,0.04435 -0.0832,0 -0.151269,0.01356 -0.151269,0.03012 0,0.01656 0.01627,0.08687 0.03617,0.156234 0.0199,0.06937 0.02437,0.137912 0.01,0.152333 -0.01442,0.01442 -0.02636,0.03816 -0.02657,0.05275 0,0.01459 -0.02976,0.107148 -0.0657,0.20567 -0.03594,0.09852 -0.08532,0.313486 -0.10974,0.477692 -0.0364,0.244815 -0.03325,0.351421 0.01751,0.592251 0.03406,0.16153 0.08809,0.349622 0.120068,0.41798 0.03198,0.06835 0.117418,0.219785 0.189866,0.336509 0.07305,0.117705 0.247251,0.304866 0.391109,0.420226 0.142663,0.114404 0.320728,0.231483 0.395702,0.260183 0.07497,0.0287 0.190052,0.07483 0.255736,0.102501 0.06568,0.02768 0.18532,0.06197 0.265858,0.07622 0.08054,0.01426 0.188022,0.06006 0.238846,0.101816 l 0.09241,0.07591 -0.08893,0.09025 c -0.08595,0.08722 -0.09865,0.08863 -0.378173,0.04204 -0.190782,-0.0318 -0.417939,-0.111455 -0.667396,-0.234024 -0.311954,-0.153275 -0.43257,-0.241341 -0.68881,-0.502923 -0.170851,-0.17441 -0.356813,-0.408669 -0.413247,-0.520576 -0.05643,-0.111905 -0.119933,-0.214566 -0.141106,-0.228134 -0.02117,-0.01356 -0.06979,-0.138962 -0.10803,-0.278652 -0.03825,-0.139693 -0.07364,-0.377257 -0.07865,-0.527923 -0.0051,-0.150665 -0.03017,-0.311885 -0.05593,-0.358268 -0.02575,-0.04639 -0.06475,-0.09749 -0.08663,-0.113577 -0.02189,-0.01608 -0.0851,-0.02953 -0.140448,-0.02985 -0.05536,-2.64e-4 -0.234487,-0.06456 -0.398076,-0.14271 -0.163589,-0.07816 -0.345473,-0.187813 -0.404186,-0.243686 -0.09143,-0.08701 -0.12285,-0.0959 -0.218943,-0.06192 -0.06171,0.02181 -0.203801,0.100323 -0.315772,0.174459 -0.111966,0.07414 -0.277666,0.20172 -0.368219,0.28353 -0.09055,0.08181 -0.164638,0.159088 -0.164638,0.171736 0,0.01264 -0.08957,0.141956 -0.199037,0.287353 -0.109469,0.145395 -0.199036,0.294125 -0.199036,0.330513 0,0.03638 -0.02945,0.135521 -0.06543,0.220297 -0.04871,0.114746 -0.06443,0.26842 -0.06148,0.601281 0.0021,0.245927 0.02063,0.478802 0.04106,0.517497 0.02043,0.03869 0.05864,0.174911 0.08493,0.302697 0.02628,0.127786 0.09099,0.295983 0.143783,0.373772 0.05279,0.07779 0.09598,0.162823 0.09598,0.188961 0,0.02612 0.04926,0.09471 0.109472,0.152376 0.06021,0.05767 0.208066,0.183447 0.328572,0.279497 0.1205,0.09605 0.263807,0.189717 0.318457,0.208138 0.05465,0.01841 0.117276,0.03039 0.139169,0.0266 0.02189,-0.0038 0.120418,0.01813 0.218942,0.04872 0.128422,0.03988 0.297456,0.04946 0.597114,0.03382 z m -25.662618,4.388533 -2.514532,0.0107 -0.08839,-0.09409 c -0.08245,-0.08777 -0.08546,-0.109572 -0.0448,-0.324531 0.02397,-0.126741 0.0548,-0.310674 0.06848,-0.408735 0.01367,-0.09806 0.03184,-0.189564 0.04036,-0.203342 0.0085,-0.01378 -0.111815,-0.04607 -0.2674,-0.07177 -0.155587,-0.0257 -0.29032,-0.03928 -0.299411,-0.03019 -0.0091,0.0091 -0.0828,0.0011 -0.163812,-0.01768 -0.08101,-0.01881 -0.353288,-0.0732 -0.605072,-0.120867 -0.251782,-0.04766 -0.50257,-0.08884 -0.557303,-0.09151 -0.05473,-0.0027 -0.233871,-0.0299 -0.398077,-0.06052 -0.164206,-0.03063 -0.342171,-0.08911 -0.395479,-0.129959 -0.05331,-0.04085 -0.126713,-0.123264 -0.163125,-0.183138 -0.03641,-0.05988 -0.0895,-0.179449 -0.11797,-0.265716 -0.02847,-0.08627 -0.05556,-0.220193 -0.0602,-0.297604 -0.0046,-0.0774 -0.0115,-0.203444 -0.01526,-0.280073 l -0.0068,-0.139324 -0.09966,0.113317 c -0.05482,0.06233 -0.219947,0.209982 -0.366961,0.328123 -0.147016,0.118143 -0.289639,0.233505 -0.316945,0.256363 -0.03418,0.02862 -0.07351,0.0288 -0.12627,5.24e-4 -0.04214,-0.02255 -0.104892,-0.06928 -0.139442,-0.103824 -0.03454,-0.03455 -0.06282,-0.08642 -0.06282,-0.115275 0,-0.02886 0.134874,-0.20989 0.299718,-0.4023 0.164845,-0.192411 0.361892,-0.392088 0.437882,-0.443724 0.07599,-0.05164 0.139903,-0.115633 0.142023,-0.14221 0.0021,-0.02658 -5.24e-4,-0.209545 -0.0059,-0.406592 -0.0053,-0.197047 -0.0072,-0.564272 -0.0041,-0.816056 0.0031,-0.251783 0.03208,-0.79814 0.06442,-1.214129 0.03233,-0.415989 0.07532,-0.793318 0.09553,-0.838508 0.02286,-0.05113 0.0221,-0.108301 -0.0021,-0.151361 -0.02538,-0.04536 -0.0248,-0.08598 0.0016,-0.117906 0.02222,-0.02679 0.05056,-0.215718 0.06294,-0.41984 0.0124,-0.20412 0.02942,-0.382791 0.03785,-0.397042 0.0084,-0.01425 0.02618,-0.145297 0.03941,-0.291209 0.01324,-0.145914 0.03991,-0.307133 0.05925,-0.358269 0.01934,-0.05113 0.04782,-0.191494 0.0633,-0.311912 0.01547,-0.120417 0.05264,-0.316124 0.08261,-0.434902 0.02996,-0.118777 0.04609,-0.229519 0.03586,-0.246088 -0.01025,-0.01656 0.02647,-0.149919 0.08157,-0.296328 0.05511,-0.146407 0.100193,-0.298894 0.100193,-0.338865 0,-0.03997 0.06561,-0.212491 0.1458,-0.383384 0.08019,-0.170891 0.147364,-0.32066 0.149279,-0.332816 0.0019,-0.01216 0.09035,-0.200248 0.196525,-0.417979 0.106176,-0.217733 0.245003,-0.497889 0.30851,-0.622574 0.0635,-0.124682 0.115458,-0.247063 0.115458,-0.271953 0,-0.02488 0.06451,-0.155317 0.143343,-0.289835 0.07884,-0.134516 0.150302,-0.280838 0.158808,-0.325159 0.0085,-0.04432 0.0622,-0.170147 0.119314,-0.27962 0.06367,-0.122026 0.12484,-0.33737 0.1581,-0.556562 0.04719,-0.311041 0.04633,-0.395811 -0.0066,-0.6519974 -0.03345,-0.161959 -0.09545,-0.359076 -0.137773,-0.438036 -0.04233,-0.07896 -0.07694,-0.1801484 -0.07694,-0.2248619 0,-0.044717 0.02707,-0.1199543 0.06016,-0.1671978 0.05468,-0.078066 0.05341,-0.090669 -0.01388,-0.1382303 C 27.046334,8.857627 26.909308,8.7406015 26.782558,8.6263597 26.655811,8.5121153 26.487402,8.3978232 26.408319,8.3723743 c -0.07908,-0.02546 -0.161697,-0.059516 -0.183592,-0.075702 -0.02189,-0.016191 -0.105106,-0.050455 -0.184918,-0.076139 -0.07981,-0.025701 -0.219538,-0.055679 -0.310501,-0.066643 -0.09097,-0.010968 -0.20928,-0.036622 -0.262917,-0.057015 -0.05364,-0.020399 -0.09753,-0.026362 -0.09753,-0.013272 0,0.013089 -0.02239,0.00575 -0.04976,-0.016296 -0.02737,-0.022044 -0.112456,-0.053104 -0.189085,-0.069017 -0.07663,-0.015924 -0.170852,-0.056744 -0.209386,-0.09074 -0.03853,-0.033996 -0.09566,-0.1480281 -0.126959,-0.2534071 -0.03129,-0.1053791 -0.05991,-0.3487528 -0.0636,-0.5408266 -0.0036,-0.1920739 0.0066,-0.4004108 0.02286,-0.4629683 0.01836,-0.070631 0.01301,-0.1239815 -0.01412,-0.1407501 -0.02403,-0.014865 -0.03333,-0.066672 -0.02064,-0.1151503 0.01267,-0.048479 0.03887,-0.088144 0.05822,-0.088144 0.01934,0 0.03517,-0.036852 0.03517,-0.081891 0,-0.045036 0.02008,-0.1616498 0.04464,-0.2591308 0.03012,-0.1196017 0.114261,-0.2552754 0.258749,-0.4172082 0.117766,-0.1319828 0.214121,-0.2691458 0.214121,-0.3048081 0,-0.035662 0.01171,-0.053138 0.02599,-0.038838 0.0143,0.014305 0.06745,-0.030171 0.118099,-0.098827 0.05065,-0.068657 0.0826,-0.1401963 0.07099,-0.1589759 -0.01161,-0.018785 0.0068,-0.044858 0.0409,-0.057943 0.03411,-0.013089 0.05323,-0.037989 0.04251,-0.055344 -0.01073,-0.017354 0.0894,-0.1973914 0.222495,-0.4000869 0.133099,-0.2026988 0.303041,-0.4329334 0.377651,-0.5116349 0.07461,-0.078701 0.135809,-0.1544319 0.135998,-0.1682887 2e-4,-0.01386 0.114854,-0.1213375 0.254803,-0.2388432 0.139953,-0.1175089 0.354727,-0.2846295 0.477281,-0.3713799 0.146224,-0.1035085 0.249285,-0.2140357 0.299814,-0.3215264 0.04235,-0.090089 0.106163,-0.3050147 0.141814,-0.4776147 0.03565,-0.1726 0.08555,-0.3387959 0.110886,-0.3693238 0.036,-0.043371 0.132383,-0.050968 0.440942,-0.034762 0.375723,0.019738 0.399439,0.016191 0.488878,-0.073256 0.08537,-0.085372 0.09165,-0.1164776 0.06841,-0.338886 -0.01966,-0.1880995 -0.01264,-0.2530815 0.03024,-0.2802338 0.03071,-0.019445 0.132747,-0.03562 0.226751,-0.035961 0.12607,-5.24e-4 0.198102,0.024586 0.274503,0.095438 0.09265,0.085905 0.104023,0.1271978 0.107735,0.3910021 l 0.0042,0.2949541 0.398077,-1.189e-4 c 0.218939,-7.97e-5 0.810083,0.01322 1.313647,0.029522 0.503567,0.016296 1.193233,0.037695 1.53259,0.047541 0.339361,0.00983 0.894675,0.02546 1.234034,0.034719 0.339358,0.00925 0.907415,0.025565 1.262344,0.03626 0.354931,0.010679 1.026683,0.029658 1.492783,0.042144 0.4661,0.012481 1.196766,0.032083 1.623702,0.043548 0.426937,0.01147 1.134516,0.031811 1.572399,0.04522 0.437882,0.013404 0.930501,0.02883 1.094707,0.034269 0.164207,0.00544 0.692652,0.022337 1.174324,0.037554 0.48167,0.015206 1.180292,0.034619 1.552492,0.043118 0.372201,0.0085 1.088736,0.026572 1.592302,0.040148 0.503564,0.013592 1.202188,0.031711 1.552493,0.040289 0.350306,0.00858 1.022059,0.02926 1.492782,0.045964 0.470726,0.016694 1.024037,0.03059 1.229589,0.030868 0.35261,5.24e-4 0.377911,-0.00513 0.44786,-0.099015 0.04078,-0.054737 0.08145,-0.1763224 0.09038,-0.2701922 0.0089,-0.093867 0.03875,-0.1977885 0.06626,-0.2309342 0.03927,-0.047321 0.09751,-0.054334 0.271112,-0.032644 0.121605,0.01518 0.275756,0.05046 0.342556,0.07837 0.0668,0.027913 0.150493,0.083576 0.185977,0.1236976 0.03549,0.040127 0.077,0.149083 0.09226,0.2421338 0.01526,0.093048 0.04374,0.1691794 0.06329,0.1691794 0.01955,0 0.04738,0.04926 0.06183,0.1094725 0.01444,0.060208 0.102468,0.199678 0.195585,0.3099296 0.09312,0.1102542 0.218151,0.2983432 0.277842,0.4179794 0.07176,0.1438265 0.115107,0.3051817 0.127949,0.4762686 0.01068,0.142311 0.01693,0.4784969 0.01386,0.7470784 -0.0031,0.2685809 -0.02292,0.5339698 -0.04413,0.5897526 -0.02122,0.055783 -0.03856,0.1383231 -0.03856,0.1834203 0,0.045099 -0.04761,0.1917187 -0.105803,0.3258216 -0.0582,0.1341023 -0.153897,0.3065194 -0.212674,0.3831485 -0.05878,0.076629 -0.130022,0.2109809 -0.15833,0.2985581 -0.02831,0.087577 -0.0841,0.2241858 -0.123989,0.3035784 -0.03988,0.079392 -0.06542,0.1514462 -0.05675,0.1601234 0.0087,0.00866 -0.04638,0.058358 -0.122337,0.1104051 -0.131161,0.089874 -0.167581,0.094347 -0.724059,0.088926 -0.322276,-0.00314 -0.657609,-0.00779 -0.745183,-0.010359 -0.08758,-0.00267 -0.526456,0.00241 -0.975286,0.011208 -0.761598,0.014813 -0.825353,0.021777 -0.955381,0.1047377 -0.07663,0.048882 -0.175154,0.096503 -0.218942,0.1058219 -0.04379,0.00933 -0.213964,0.026818 -0.378171,0.03889 -0.164206,0.012083 -0.576213,0.050292 -0.915573,0.084925 -0.339358,0.034635 -0.742411,0.068526 -0.895669,0.075318 -0.153261,0.00679 -0.422325,0.039016 -0.597924,0.071619 -0.226798,0.042107 -0.37432,0.096429 -0.509329,0.1875457 -0.104532,0.070546 -0.225139,0.1757182 -0.268019,0.233716 -0.04288,0.057995 -0.07861,0.1186322 -0.0794,0.1347489 -7.86e-4,0.016107 -0.02761,0.1034556 -0.05958,0.1940902 -0.03198,0.090635 -0.05814,0.2403429 -0.05814,0.3326863 0,0.092343 0.03607,0.2727466 0.08017,0.4008928 0.04409,0.1281462 0.1038,0.2697817 0.132694,0.3147407 0.0289,0.04496 0.07426,0.2637456 0.100816,0.4861956 0.02788,0.2335374 0.0357,0.4942784 0.01849,0.6170174 -0.01637,0.116909 -0.02602,0.232167 -0.02143,0.256126 0.0046,0.02395 -0.09003,0.237199 -0.210282,0.473868 -0.120253,0.23667 -0.25027,0.465792 -0.288927,0.509163 -0.03866,0.04336 -0.1895,0.174366 -0.335211,0.291107 -0.14571,0.116743 -0.342757,0.24696 -0.437882,0.28938 -0.09513,0.04241 -0.244611,0.104896 -0.332188,0.13884 -0.08757,0.03394 -0.284624,0.08251 -0.437882,0.107929 -0.15326,0.0254 -0.332393,0.04381 -0.398077,0.04088 -0.06568,-0.0029 -0.307513,0.02276 -0.537401,0.05711 -0.229887,0.03435 -0.480677,0.07317 -0.557306,0.08627 -0.07663,0.01309 -0.197212,0.01982 -0.267962,0.01491 -0.07075,-0.005 -0.294668,0.01863 -0.497594,0.05225 -0.202926,0.03364 -0.574963,0.08137 -0.826744,0.106084 -0.251784,0.02472 -0.592137,0.05266 -0.756343,0.0621 -0.164207,0.0094 -0.320155,0.02488 -0.346551,0.0343 -0.02639,0.0094 -0.160747,-7.86e-4 -0.298556,-0.02257 -0.137811,-0.02183 -0.304304,-0.04823 -0.369986,-0.05865 -0.06569,-0.01041 -0.231824,-0.07519 -0.369204,-0.143951 -0.199663,-0.09993 -0.306395,-0.126769 -0.531941,-0.133768 -0.178134,-0.0055 -0.320866,0.01144 -0.387141,0.04601 -0.05774,0.03013 -0.124429,0.05489 -0.148206,0.05502 -0.02377,1.19e-4 -0.123303,0.06263 -0.221176,0.138888 -0.09787,0.07625 -0.221529,0.215079 -0.274789,0.308507 -0.05326,0.09343 -0.128122,0.268392 -0.166361,0.38881 -0.03823,0.120418 -0.06978,0.282825 -0.07011,0.360909 -2.64e-4,0.07808 -0.01966,0.245162 -0.04297,0.371293 -0.02332,0.126127 -0.04745,0.304074 -0.05363,0.395434 -0.0061,0.09136 -0.0488,0.390027 -0.09471,0.663704 -0.04591,0.273676 -0.103591,0.640901 -0.128187,0.816053 -0.02459,0.175154 -0.05088,0.390114 -0.05841,0.477691 -0.0076,0.08757 -0.03324,0.335683 -0.05714,0.551345 -0.0239,0.215662 -0.05568,0.411898 -0.07062,0.436081 -0.01494,0.02419 -0.03228,0.09852 -0.03852,0.165192 -0.0062,0.06667 -0.03064,0.26453 -0.05422,0.439684 -0.02357,0.175151 -0.05993,0.428005 -0.08078,0.561895 -0.02085,0.133888 -0.03791,0.305558 -0.03791,0.381488 0,0.07593 -0.01208,0.150127 -0.02683,0.164879 -0.01476,0.01475 -0.03231,0.067 -0.03899,0.116108 -0.0067,0.0491 -0.02905,0.214671 -0.0497,0.367929 -0.02064,0.153261 -0.05748,0.430917 -0.08186,0.617019 -0.02437,0.186099 -0.06054,0.481672 -0.08033,0.656822 -0.01979,0.175154 -0.0546,0.443854 -0.07734,0.597114 -0.02273,0.153261 -0.05921,0.339741 -0.08104,0.414403 -0.02183,0.07466 -0.0767,0.175143 -0.121939,0.223294 l -0.08225,0.08755 0.142393,0.12502 c 0.07832,0.06876 0.16043,0.125022 0.182477,0.125022 0.02205,0 0.07371,0.03135 0.114801,0.06967 0.06025,0.05618 0.07236,0.115885 0.06257,0.308507 -0.0067,0.131366 -0.02469,0.301544 -0.04002,0.378174 -0.01534,0.07663 -0.05447,0.19592 -0.08696,0.265093 -0.03589,0.07639 -0.100944,0.137082 -0.165724,0.154584 -0.05866,0.01585 -1.238186,0.03364 -2.621183,0.03954 z m -4.732427,-2.010276 c 0.04807,-0.01762 0.08675,-0.07283 0.09413,-0.134336 0.0084,-0.07011 -0.02042,-0.137358 -0.08776,-0.204696 -0.05608,-0.05608 -0.1462,-0.100278 -0.20445,-0.100278 -0.05729,0 -0.129763,0.0256 -0.161041,0.05687 -0.03128,0.03128 -0.05659,0.08949 -0.05626,0.129375 2.66e-4,0.03987 0.01436,0.09412 0.03114,0.120541 0.0168,0.02642 0.09175,0.07378 0.166583,0.105245 0.0802,0.03373 0.169547,0.04492 0.217655,0.02729 z M 38.207041,12.41317 c 0.197047,-0.01086 0.420965,-0.0306 0.497594,-0.04384 0.07663,-0.01324 0.197196,-0.02008 0.267927,-0.01518 0.07073,0.0049 0.222993,-0.0106 0.338364,-0.03442 0.115371,-0.02382 0.478465,-0.07178 0.806878,-0.10656 0.328409,-0.03478 0.737741,-0.06859 0.909623,-0.07513 0.171882,-0.0066 0.332206,-0.03158 0.356277,-0.05565 0.02406,-0.02405 0.08817,-0.04377 0.142448,-0.04377 0.05427,0 0.162652,-0.02011 0.240837,-0.04466 0.07818,-0.02456 0.169022,-0.06021 0.201863,-0.0792 0.03284,-0.01899 0.130687,-0.07285 0.217436,-0.119681 0.08675,-0.04683 0.250299,-0.179974 0.363452,-0.295871 0.113153,-0.115898 0.272256,-0.320234 0.353564,-0.454082 0.08209,-0.135143 0.179269,-0.372235 0.218524,-0.533177 0.04665,-0.191265 0.06622,-0.397223 0.05755,-0.6056554 -0.0072,-0.173708 -0.02364,-0.374051 -0.03643,-0.445209 -0.0128,-0.07116 -0.04039,-0.1293734 -0.06129,-0.1293734 -0.02091,0 -0.03801,-0.02636 -0.03801,-0.05858 0,-0.03222 -0.04321,-0.156289 -0.09603,-0.2757135 C 42.882859,8.8509686 42.75003,8.6786285 42.539595,8.4680076 42.279543,8.2077224 42.17583,8.1340947 41.916676,8.0257907 41.745668,7.9543224 41.476968,7.8764111 41.319563,7.8526505 41.162158,7.8288825 40.97963,7.8116695 40.913949,7.8143895 c -0.06568,0.00273 -0.262731,0.014572 -0.437883,0.026362 -0.175154,0.011763 -0.34533,0.032099 -0.378173,0.045167 -0.03284,0.013063 -0.119763,0.019738 -0.193157,0.014839 l -0.133448,-0.0089 0.0268,0.1586211 c 0.02046,0.1210829 0.0058,0.2043174 -0.06202,0.3517179 -0.04885,0.1062002 -0.112668,0.3364008 -0.141818,0.5115548 -0.03033,0.182268 -0.04125,0.3950689 -0.02551,0.4975953 0.0151,0.09852 0.02321,0.194731 0.01796,0.213797 -0.0052,0.01905 0.01979,0.122852 0.05559,0.230643 0.03581,0.10779 0.112654,0.2771174 0.170785,0.3762864 0.05813,0.09917 0.125414,0.215138 0.149524,0.257713 0.02411,0.04258 0.176373,0.184006 0.338365,0.314291 0.244934,0.196994 0.359403,0.257615 0.679819,0.360014 0.211912,0.06772 0.406953,0.149233 0.433427,0.181131 0.0384,0.04627 0.03371,0.07393 -0.02324,0.136863 -0.03926,0.04337 -0.117977,0.07887 -0.174936,0.07887 -0.05696,0 -0.166144,-0.0182 -0.24263,-0.04045 -0.07648,-0.02225 -0.192802,-0.04976 -0.258483,-0.06114 -0.06569,-0.01139 -0.208992,-0.07648 -0.318461,-0.144668 -0.109465,-0.06819 -0.266896,-0.160805 -0.349842,-0.205812 -0.08295,-0.04501 -0.197522,-0.14532 -0.254611,-0.222911 -0.05709,-0.07759 -0.163626,-0.194816 -0.236746,-0.260498 -0.07312,-0.06568 -0.206456,-0.253773 -0.296302,-0.417979 -0.08984,-0.164206 -0.171317,-0.3433404 -0.181056,-0.3980774 -0.0097,-0.05473 -0.0445,-0.193697 -0.07726,-0.308806 -0.03275,-0.11511 -0.0563,-0.3177586 -0.05232,-0.4503324 0.0049,-0.1622058 -0.01102,-0.2590141 -0.04856,-0.2959906 -0.03068,-0.030223 -0.101947,-0.060939 -0.158361,-0.068257 -0.05641,-0.00731 -0.226589,-0.073812 -0.378171,-0.1477567 -0.151581,-0.073945 -0.342995,-0.1945195 -0.425363,-0.2679427 -0.148929,-0.1327563 -0.150582,-0.1331566 -0.297161,-0.07191 -0.08107,0.033876 -0.156987,0.075877 -0.1687,0.093345 -0.01171,0.017459 -0.101909,0.079038 -0.200433,0.1368234 -0.09852,0.057786 -0.238464,0.1637164 -0.310981,0.2353991 -0.07252,0.071682 -0.228889,0.2625163 -0.347492,0.4240729 -0.118606,0.1615566 -0.207179,0.307439 -0.19683,0.324182 0.01036,0.01675 -0.0111,0.09952 -0.04767,0.183953 -0.03656,0.08443 -0.0734,0.180376 -0.08185,0.213217 -0.0084,0.03284 -0.01531,0.2298904 -0.01529,0.4378854 3.7e-5,0.207993 0.01951,0.467737 0.04323,0.577207 0.02374,0.109473 0.06277,0.25278 0.08675,0.318461 0.02398,0.06569 0.0773,0.195359 0.118494,0.288171 0.0412,0.09281 0.0749,0.184698 0.0749,0.20419 0,0.01951 0.07262,0.110268 0.161371,0.201724 0.08876,0.09145 0.270667,0.236922 0.404247,0.323259 0.133581,0.08634 0.280404,0.158341 0.326272,0.160006 0.04587,0.0016 0.146092,0.02769 0.222721,0.05784 0.0978,0.03847 0.246103,0.04892 0.497595,0.03504 z"
   id="path576" /></svg>
