<?xml version="1.0" encoding="UTF-8" standalone="no"?>
<svg
   version="1.1"
   x="0px"
   y="0px"
   width="96.583px"
   height="32px"
   viewBox="0 0 96.583 32"
   enable-background="new 0 0 96.583 32"
   xml:space="preserve"
   id="svg137"
   sodipodi:docname="m19_akimbo.svg"
   inkscape:version="1.2.1 (9c6d41e410, 2022-07-14)"
   xmlns:inkscape="http://www.inkscape.org/namespaces/inkscape"
   xmlns:sodipodi="http://sodipodi.sourceforge.net/DTD/sodipodi-0.dtd"
   xmlns="http://www.w3.org/2000/svg"
   xmlns:svg="http://www.w3.org/2000/svg"
   xmlns:rdf="http://www.w3.org/1999/02/22-rdf-syntax-ns#"
   xmlns:cc="http://creativecommons.org/ns#"
   xmlns:dc="http://purl.org/dc/elements/1.1/"><metadata
   id="metadata143"><rdf:RDF><cc:Work
       rdf:about=""><dc:format>image/svg+xml</dc:format><dc:type
         rdf:resource="http://purl.org/dc/dcmitype/StillImage" /></cc:Work></rdf:RDF></metadata><defs
   id="defs141" /><sodipodi:namedview
   pagecolor="#ffffff"
   bordercolor="#666666"
   borderopacity="1"
   objecttolerance="10"
   gridtolerance="10"
   guidetolerance="10"
   inkscape:pageopacity="0"
   inkscape:pageshadow="2"
   inkscape:window-width="1920"
   inkscape:window-height="1017"
   id="namedview139"
   showgrid="false"
   inkscape:zoom="8.8953001"
   inkscape:cx="34.512608"
   inkscape:cy="25.294256"
   inkscape:window-x="-8"
   inkscape:window-y="-8"
   inkscape:window-maximized="1"
   inkscape:current-layer="svg137"
   inkscape:showpageshadow="2"
   inkscape:pagecheckerboard="0"
   inkscape:deskcolor="#d1d1d1" />

<g
   id="guides">
</g>
<path
   id="path397"
   style="fill:#ffffff;stroke-width:0.0423796"
   d="m 51.586148,0.49234078 c -0.0658,0.011 -0.08468,0.036474 -0.118592,0.088534 -0.05224,0.079549 -0.06214,0.1567176 -0.04087,0.3165326 l 0.02805,0.21132012 -0.206776,0.00546 c -0.113643,0.00367 -0.874243,0.011 -1.690053,0.0165 -0.815791,0.00546 -2.179377,0.025663 -3.030141,0.043076 -0.850764,0.018326 -2.09992,0.035928 -2.775857,0.040872 -0.675955,0.00546 -1.472171,0.011 -1.769346,0.014663 l -0.540354,0.00546 v 0.1257407 c 0,0.077167 -0.02859,0.1400372 -0.07424,0.1631327 -0.04234,0.021444 -0.228899,0.022178 -0.434391,0.00178 -0.198124,-0.019617 -0.825488,-0.044356 -1.394142,-0.05481 -0.568654,-0.011 -1.131241,-0.031163 -1.2502,-0.045826 -0.118958,-0.014663 -0.502338,-0.030607 -0.851973,-0.035561 -0.349636,-0.00546 -0.663749,-0.026398 -0.698098,-0.047652 -0.03483,-0.021632 -0.576812,-0.033356 -1.229011,-0.026576 -0.641606,0.00735 -1.252418,0.018326 -1.357318,0.024382 -0.104845,0.00735 -1.039357,0.0165 -2.076586,0.021265 -1.037249,0.00546 -2.024805,-0.00546 -2.194646,-0.021443 -0.25797,-0.025663 -0.330262,-0.050591 -0.438937,-0.152135 -0.07149,-0.066902 -0.137654,-0.1215244 -0.14682,-0.1215244 -0.0091,0 -0.0165,0.026209 -0.0165,0.058285 0,0.032076 0.02841,0.081932 0.06324,0.110894 0.03483,0.02878 0.126841,0.074238 0.204778,0.100993 0.12959,0.044545 0.11346,0.048576 -0.190297,0.048576 -0.267977,0 -0.331965,-0.012826 -0.332094,-0.064152 -7.3e-5,-0.035193 -0.03758,-0.1255579 -0.0834,-0.2007265 -0.04583,-0.075152 -0.131606,-0.14865242 -0.190536,-0.16349912 -0.05902,-0.014663 -0.107228,-0.044178 -0.107228,-0.065254 0,-0.021076 -0.0603,-0.092197 -0.133988,-0.1580013 l -0.133805,-0.1196907 -0.670384,-0.00367 -0.670365,-0.00367 -0.08559,0.1090602 c -0.04711,0.059933 -0.08578,0.1457199 -0.08578,0.1907186 0,0.044913 -0.022,0.12299172 -0.04894,0.17339792 -0.02694,0.050224 -0.04619,0.1634991 -0.04271,0.2514623 0.0037,0.087978 -0.0091,0.1600165 -0.03006,0.1600165 -0.01997,0 -0.06818,0.08358 -0.107228,0.1857508 -0.03904,0.102284 -0.06653,0.2023208 -0.06122,0.2224838 0.0055,0.020163 -0.02365,0.1512187 -0.06452,0.2910356 -0.04069,0.1398546 -0.106311,0.3591665 -0.14572,0.4873632 l -0.07167,0.2330963 h -0.0037 c 0.0037,6.969e-4 0.0018,0.00367 -0.0011,0.00367 -0.0013,-5.56e-5 -0.0018,-1.291e-4 -0.0037,-1.837e-4 -0.0017,-7.34e-5 -0.0037,-1.647e-4 -0.0055,-4.219e-4 -0.0018,-2.561e-4 -0.0037,-5.678e-4 -0.0055,-6.592e-4 -0.0018,-1.291e-4 -0.0055,-3.67e-5 -0.0073,-7.34e-5 -0.0018,0 -0.0055,-3.68e-5 -0.0073,-1.837e-4 -0.0014,-7.35e-5 -0.0037,-1.648e-4 -0.0037,-4.209e-4 0.0037,0.00367 0.0055,0.00546 0.0055,0.011 2.57e-4,0.00367 3.7e-5,0.00913 -2.57e-4,0.012826 -3.47e-4,0.00546 -7.69e-4,0.011 -0.0018,0.0165 -8.8e-4,0.00367 -0.0017,0.00913 -0.0018,0.012826 -8.08e-4,0.00546 -0.0018,0.00913 -0.0018,0.014663 -9.71e-4,0.00546 -0.0017,0.011 -0.0018,0.014663 -6.41e-4,0.00546 -0.0014,0.011 -0.0018,0.014663 -0.0018,0.00735 -0.0055,0.012826 -0.01283,0.014663 -3.85e-4,3.67e-5 -7.7e-4,3.67e-5 -0.0012,9.23e-5 0.0091,0.00735 0.02071,0.012826 0.01466,0.026209 -0.01283,0.031163 -0.02181,0.085049 -0.02181,0.119508 0,0.034459 -0.01833,0.051326 -0.0405,0.037576 -0.02237,-0.014663 -0.07056,0.02053 -0.107044,0.076254 -0.04711,0.071856 -0.06471,0.1932659 -0.0603,0.4159334 0.0037,0.1904068 -0.02291,0.4143012 -0.06727,0.5674071 -0.04033,0.139121 -0.126841,0.4150538 -0.192039,0.6131773 -0.06525,0.1981235 -0.151035,0.4915973 -0.190957,0.6522552 -0.03978,0.1605665 -0.109244,0.3704214 -0.154518,0.4661748 -0.04509,0.095682 -0.133438,0.2419487 -0.196254,0.3248717 -0.06287,0.083034 -0.228659,0.2559169 -0.368514,0.3844064 -0.139854,0.1284895 -0.300329,0.2747961 -0.356656,0.3251289 -0.05627,0.050402 -0.137287,0.1444362 -0.179812,0.2089197 -0.04253,0.064519 -0.07753,0.1788958 -0.07771,0.2540286 -1.64e-4,0.075152 0.03959,0.2181573 0.08835,0.3178331 0.06947,0.1420536 0.135821,0.2035678 0.307257,0.2846571 0.120242,0.056826 0.27573,0.1257406 0.345658,0.1530514 0.06984,0.027311 0.21363,0.08908 0.319336,0.1371047 0.105761,0.048208 0.248328,0.1017277 0.316936,0.1189591 0.0724,0.018326 0.249593,0.1580002 0.422293,0.333321 0.242188,0.2457619 0.32073,0.3608354 0.421817,0.6180525 0.08578,0.218267 0.125191,0.394799 0.127207,0.5703964 0.0016,0.139854 -0.01284,0.340085 -0.03171,0.444985 -0.01906,0.104845 -0.04271,0.276519 -0.05243,0.381419 -0.0091,0.104845 -0.07589,0.410012 -0.146637,0.678063 -0.07075,0.268051 -0.137104,0.538099 -0.147552,0.600108 -0.011,0.06195 -0.05958,0.214584 -0.109243,0.339041 -0.04968,0.124457 -0.117675,0.300054 -0.151219,0.390271 -0.03336,0.09018 -0.09036,0.221256 -0.126473,0.291202 -0.03611,0.07002 -0.07405,0.177246 -0.08432,0.238539 -0.011,0.06122 -0.04637,0.168632 -0.08046,0.238632 -0.03409,0.07002 -0.140038,0.336915 -0.235663,0.593326 -0.09549,0.256394 -0.198031,0.532912 -0.227707,0.614497 -0.02969,0.08157 -0.0757,0.210313 -0.102284,0.286068 -0.02658,0.0757 -0.0702,0.1997 -0.09678,0.275456 -0.02658,0.0757 -0.07478,0.204484 -0.107227,0.286069 -0.03244,0.08157 -0.06781,0.199205 -0.079,0.261397 -0.011,0.06214 -0.06764,0.252892 -0.12574,0.423796 -0.05811,0.17083 -0.163499,0.549116 -0.234159,0.840481 -0.07075,0.291347 -0.158184,0.653703 -0.194275,0.805197 -0.03611,0.151585 -0.07478,0.350643 -0.08615,0.442584 -0.011,0.09202 -0.02896,0.180912 -0.03941,0.197831 -0.011,0.0165 -0.05517,0.246824 -0.09935,0.510953 -0.04418,0.264145 -0.07992,0.508863 -0.07955,0.543817 4.21e-4,0.03502 -0.03006,0.305039 -0.06764,0.6002 -0.03758,0.295159 -0.06855,0.68611 -0.06855,0.868781 0,0.182746 -0.02896,0.483368 -0.06434,0.668221 -0.05169,0.269755 -0.05371,0.343257 -0.011,0.372473 0.02951,0.01997 0.124457,0.07368 0.210991,0.119509 0.08652,0.04564 0.204044,0.08321 0.261305,0.08321 0.05718,0 0.18982,-0.03666 0.294518,-0.08156 l 0.19037,-0.08156 -0.03831,0.133804 c -0.03225,0.112727 -0.02309,0.14902 0.05792,0.230018 0.08028,0.08028 0.169732,0.103565 0.540171,0.140037 0.244167,0.02401 0.891986,0.05408 1.439581,0.06672 0.547594,0.01283 1.003686,0.03116 1.013548,0.04106 0.0091,0.0091 0.238906,0.01833 0.5089,0.01833 0.269975,-1.28e-4 0.805508,-0.01998 1.190098,-0.04436 0.384589,-0.02419 0.823214,-0.06305 0.974726,-0.08633 0.151585,-0.02328 0.396724,-0.05902 0.544899,-0.07937 0.173031,-0.02383 0.322233,-0.07461 0.417088,-0.142054 l 0.147736,-0.105027 0.0165,-0.45789 c 0.0091,-0.25181 0.0275,-0.490589 0.04014,-0.530584 0.01284,-0.03996 0.0018,-0.08579 -0.02419,-0.101907 -0.03116,-0.01925 -0.01833,-0.04949 0.03776,-0.08871 0.04674,-0.03281 0.08743,-0.111811 0.09018,-0.175597 0.0037,-0.06397 0.0091,-0.166798 0.01283,-0.228624 0.0055,-0.06177 0.02401,-0.10283 0.04289,-0.09109 0.01906,0.011 0.03043,-0.0037 0.02511,-0.03593 -0.0055,-0.03153 0.0018,-0.08579 0.0165,-0.120792 0.01466,-0.03501 0.06452,-0.193266 0.111993,-0.351779 0.04747,-0.158551 0.08303,-0.301539 0.07918,-0.317852 -0.0037,-0.0165 0.0165,-0.139121 0.046,-0.272726 0.02915,-0.133622 0.03922,-0.265356 0.02236,-0.292612 -0.02034,-0.03299 -0.01283,-0.03812 0.02493,-0.01466 0.04143,0.02566 0.04949,0.011 0.03171,-0.05718 -0.01466,-0.05865 -0.0073,-0.08139 0.02126,-0.06361 0.02896,0.01833 0.03647,-0.0055 0.02126,-0.06361 -0.01283,-0.05022 -0.0091,-0.0823 0.0091,-0.07112 0.01833,0.011 0.05462,-0.09843 0.0812,-0.243598 0.02658,-0.14517 0.08706,-0.416447 0.134356,-0.602912 0.04728,-0.186467 0.09568,-0.396247 0.10741,-0.466175 0.011,-0.07002 0.03978,-0.174864 0.06214,-0.233097 0.02236,-0.05828 0.04729,-0.163131 0.05553,-0.233077 0.0091,-0.07002 0.04454,-0.241565 0.08046,-0.381418 0.03593,-0.139855 0.08817,-0.368698 0.116209,-0.508553 0.02805,-0.139853 0.05774,-0.330572 0.06599,-0.423796 0.0091,-0.0933 0.03537,-0.264879 0.05993,-0.381419 0.02475,-0.116576 0.05536,-0.259582 0.06818,-0.317852 0.01284,-0.05828 0.05737,-0.183295 0.09935,-0.277783 0.0418,-0.09458 0.09018,-0.266127 0.107411,-0.381418 0.0165,-0.115293 0.09623,-0.343074 0.175413,-0.506243 0.07937,-0.163133 0.167898,-0.333781 0.197171,-0.379182 0.02915,-0.04546 0.119874,-0.158001 0.201385,-0.250052 0.08157,-0.0922 0.185386,-0.202834 0.230696,-0.246074 0.04527,-0.04325 0.159649,-0.115109 0.254267,-0.159466 0.09458,-0.04455 0.233536,-0.09348 0.308834,-0.108877 0.07533,-0.01466 0.241894,-0.0055 0.370236,0.02034 0.128307,0.02658 0.242849,0.04765 0.254524,0.04693 0.011,-8.98e-4 0.112177,0.03739 0.223162,0.08505 0.111077,0.04765 0.249464,0.09421 0.307752,0.103375 0.05828,0.0091 0.173948,0.03355 0.257164,0.05408 0.09036,0.02237 0.866912,0.01466 1.928281,-0.0165 0.977384,-0.02988 2.158464,-0.06709 2.624639,-0.08285 0.466173,-0.0165 0.893984,-0.03299 0.950714,-0.03831 0.0614,-0.0055 0.169365,-0.08523 0.266859,-0.196913 0.129223,-0.148102 0.160017,-0.213997 0.146453,-0.313947 -0.0091,-0.06965 0.0037,-0.160201 0.02933,-0.201314 0.03446,-0.05536 0.03318,-0.09642 -0.0055,-0.157633 -0.0363,-0.05811 -0.03812,-0.0911 -0.0055,-0.110894 0.02731,-0.0165 0.03574,-0.09807 0.02126,-0.203292 -0.01284,-0.09623 0.0018,-0.356234 0.03354,-0.577673 0.0319,-0.221439 0.04968,-0.416574 0.03941,-0.43364 -0.011,-0.0165 0.02108,-0.328739 0.06947,-0.692562 0.05572,-0.4191954 0.117859,-0.7203304 0.169732,-0.8220224 0.04509,-0.08817 0.170097,-0.238119 0.278021,-0.3330659 0.140038,-0.123357 0.246477,-0.1792621 0.372566,-0.1956853 0.09715,-0.012826 0.70092,-0.030428 1.341903,-0.039413 0.640982,-0.00913 1.317323,0.00147 1.502908,0.023459 l 0.337374,0.039958 0.121707,-0.1394873 c 0.0933,-0.1068613 0.117859,-0.1715643 0.105395,-0.2778578 l -0.0165,-0.138571 h 0.243691 0.243599 l 0.02878,0.2542858 0.02878,0.2542669 0.21704,0.00546 c 0.119325,0.00367 0.297414,0.00546 0.395642,0.00367 0.106494,-4.765e-4 0.236909,-0.036841 0.32315,-0.090182 0.0966,-0.059754 0.153234,-0.1328884 0.17083,-0.2205955 0.01466,-0.072223 0.01869,-0.1437025 0.0091,-0.1587328 -0.0091,-0.014663 0.07167,-0.020898 0.180178,-0.012837 l 0.197335,0.014663 0.0091,0.2356437 c 0.0055,0.1295895 0.01466,0.2405937 0.02126,0.2466604 0.0055,0.00546 0.21781,3.852e-4 0.470152,-0.012826 0.258867,-0.012826 0.480489,-0.044902 0.508552,-0.072769 0.02731,-0.026943 0.08065,-0.060667 0.118592,-0.075152 0.03775,-0.014663 0.0812,-0.092197 0.09642,-0.1730305 0.02309,-0.1231744 0.04839,-0.1501188 0.155435,-0.1658828 0.07039,-0.011 0.136187,-0.00546 0.146452,0.011 0.011,0.0165 0.02584,0.1187754 0.03483,0.2275428 0.0091,0.108694 0.0264,0.2075269 0.03849,0.2196793 0.01283,0.012826 0.199938,0.030795 0.417326,0.041239 0.364757,0.018326 0.412579,0.011 0.619226,-0.094034 0.154883,-0.078448 0.225966,-0.1405873 0.230603,-0.2017163 0.0037,-0.048576 0.0037,-0.1191417 0.0017,-0.1565339 -0.0037,-0.050035 0.02218,-0.062693 0.09843,-0.048208 0.08835,0.0165 0.111443,0.057193 0.155984,0.2729814 l 0.05224,0.2532036 0.40402,-0.014663 c 0.259857,-0.00913 0.456843,-0.039958 0.552248,-0.085049 0.08156,-0.038489 0.18951,-0.081932 0.239806,-0.096228 0.05022,-0.014663 0.104477,-0.058841 0.120424,-0.098799 0.0165,-0.039958 0.03739,-0.1180428 0.04802,-0.1735805 0.011,-0.055535 0.04564,-0.1517687 0.07771,-0.2138141 0.03208,-0.061958 0.07771,-0.2527638 0.101361,-0.4238694 0.03886,-0.2800378 0.05774,-0.3232595 0.190626,-0.4327418 0.113276,-0.093299 0.158734,-0.1732132 0.195686,-0.3438422 0.0264,-0.1222581 0.07442,-0.4034148 0.106678,-0.6248353 0.03225,-0.2214384 0.06434,-0.7077562 0.07149,-1.0806883 0.0091,-0.4933386 0.02805,-0.6898677 0.068,-0.7211932 0.03024,-0.023648 0.06012,-0.1292232 0.06636,-0.2344157 0.0055,-0.1052114 0.02768,-0.2178823 0.04765,-0.2503077 0.01997,-0.032443 0.05315,-0.1367384 0.07332,-0.2317581 0.02034,-0.095126 0.04527,-0.3157811 0.05553,-0.4905897 0.011,-0.1748632 0.02822,-0.4268566 0.04014,-0.5600389 0.011,-0.1332558 0.0037,-0.3381062 -0.01906,-0.4553419 -0.02218,-0.1173081 -0.06965,-0.257951 -0.105579,-0.3127194 -0.04325,-0.065989 -0.07149,-0.2391998 -0.08377,-0.5131898 -0.01466,-0.3343475 -0.03318,-0.4247123 -0.09477,-0.4714711 -0.04362,-0.032989 -0.182012,-0.058474 -0.32249,-0.059208 -0.153051,-8.249e-4 -0.236285,-0.0165 -0.220009,-0.043621 0.01466,-0.02328 0.0013,-0.043989 -0.02933,-0.045826 -0.03977,-0.00178 -0.04106,-0.00913 -0.0037,-0.024015 0.03721,-0.014663 0.03922,-0.051137 0.0073,-0.1338047 -0.02365,-0.062315 -0.07552,-0.1435199 -0.115293,-0.1805458 -0.03977,-0.03703 -0.09642,-0.059387 -0.12574,-0.049667 -0.02951,0.00913 -0.07864,-0.00367 -0.109427,-0.028591 -0.03079,-0.025474 -0.101728,-0.044724 -0.15745,-0.042709 -0.0559,0.00178 -0.304783,-0.00735 -0.553166,-0.019796 -0.222887,-0.011 -0.335962,-0.0165 -0.401856,-0.00735 z m 1.150139,0.023091 c -0.011,0 -0.02126,0.00913 -0.02126,0.021265 0,0.011 0.0091,0.021265 0.02126,0.021265 0.011,0 0.02126,-0.00913 0.02126,-0.021265 0,-0.011 -0.0091,-0.021265 -0.02126,-0.021265 z M 35.171749,8.8841699 c 0.03593,0.00367 0.0548,0.027132 0.09092,0.074606 0.04014,0.052785 0.102462,0.1855681 0.138571,0.2948297 0.03593,0.109244 0.06543,0.234142 0.06543,0.277545 0,0.04344 0.01833,0.09696 0.03905,0.119142 0.02144,0.02218 0.05077,0.221494 0.06508,0.4429144 0.01466,0.221438 0.03684,0.437892 0.05004,0.481003 0.01283,0.04308 0.03006,0.119325 0.03775,0.169548 0.0073,0.05022 0.04436,0.173947 0.08175,0.275144 0.03721,0.101182 0.103932,0.253791 0.148102,0.339041 0.04418,0.08523 0.127207,0.217571 0.184505,0.294078 0.05737,0.07662 0.212236,0.214785 0.344246,0.307257 0.131972,0.09239 0.255825,0.168266 0.275144,0.168266 0.01925,0 0.12464,0.03959 0.234233,0.08817 0.10961,0.04839 0.22648,0.07771 0.259747,0.06489 0.03336,-0.01283 0.06067,7.4e-5 0.06103,0.02841 4.4e-4,0.03593 0.011,0.03409 0.03721,-0.0055 0.02878,-0.04527 0.0405,-0.04619 0.05462,-0.0037 0.011,0.03519 0.0559,0.04436 0.12739,0.0264 0.08414,-0.02108 0.116209,-0.06268 0.138021,-0.179262 0.02566,-0.136739 0.011,-0.170464 -0.14352,-0.338362 -0.09458,-0.102463 -0.22778,-0.306159 -0.296168,-0.452446 -0.06837,-0.146269 -0.166432,-0.361311 -0.217699,-0.47785 -0.0768,-0.174681 -0.09586,-0.30876 -0.107777,-0.76282 -0.01284,-0.5147474 -0.0073,-0.5732174 0.104299,-0.8899884 l 0.118774,-0.3390223 h 1.79774 1.797739 l 0.148286,0.1020951 c 0.08156,0.056091 0.21198,0.1611165 0.289789,0.2330782 0.07771,0.07204 0.178163,0.202211 0.222979,0.289203 0.05315,0.103197 0.08267,0.2506 0.08505,0.423796 0.0018,0.1460864 -0.0165,0.4181884 -0.03996,0.6046534 -0.02383,0.186485 -0.05462,0.501147 -0.06837,0.699271 -0.01283,0.198124 -0.0515,0.446048 -0.08395,0.55093 -0.03244,0.104845 -0.09018,0.251811 -0.128307,0.326467 -0.03812,0.07461 -0.125373,0.182928 -0.193944,0.240538 -0.06855,0.05755 -0.224922,0.132888 -0.347564,0.167348 -0.151769,0.04271 -0.540995,0.07093 -1.218912,0.08853 -0.547741,0.01466 -1.329659,0.03556 -1.737564,0.0473 -0.407886,0.011 -0.932348,0.03024 -1.165426,0.04143 -0.349048,0.0165 -0.457449,0.0055 -0.614514,-0.05865 -0.104845,-0.04344 -0.27652,-0.116941 -0.381419,-0.163499 -0.104846,-0.04656 -0.289918,-0.163315 -0.411204,-0.259326 -0.121342,-0.09605 -0.29483,-0.284583 -0.385635,-0.41892 -0.09092,-0.134355 -0.217461,-0.387302 -0.281431,-0.562111 -0.08139,-0.222116 -0.122991,-0.432723 -0.138571,-0.69927 -0.0165,-0.279598 -0.0037,-0.441797 0.04527,-0.6075514 0.03702,-0.124273 0.06543,-0.238777 0.06287,-0.254266 -0.0018,-0.01466 0.0091,-0.08798 0.02677,-0.161116 0.01833,-0.07515 0.116942,-0.215812 0.228202,-0.3231488 0.121892,-0.1174928 0.277472,-0.2166364 0.40807,-0.2597479 0.104299,-0.034458 0.157268,-0.051504 0.193266,-0.048208 z M 69.512731,9.01083 c -0.0658,0.011 -0.08468,0.036474 -0.118592,0.088534 -0.05224,0.07955 -0.06214,0.1567176 -0.04087,0.3165136 l 0.02805,0.211322 -0.206757,0.0055 c -0.113644,0.0037 -0.874262,0.011 -1.690053,0.0165 -0.81581,0.0055 -2.179379,0.02566 -3.030142,0.04308 -0.850764,0.01833 -2.099919,0.03593 -2.775875,0.04087 -0.675937,0.0055 -1.472152,0.011 -1.769347,0.01466 l -0.540335,0.0055 v 0.12574 c 0,0.07717 -0.02859,0.1400384 -0.07424,0.1631324 -0.04234,0.02144 -0.228899,0.02218 -0.434391,0.0018 -0.198123,-0.01961 -0.825487,-0.04436 -1.394142,-0.05481 -0.568654,-0.011 -1.13126,-0.03116 -1.2502,-0.04583 -0.118959,-0.01466 -0.502356,-0.03061 -0.851973,-0.03556 -0.349635,-0.0055 -0.663767,-0.0264 -0.698116,-0.04765 -0.03483,-0.02163 -0.576812,-0.03336 -1.229012,-0.02658 -0.641587,0.0073 -1.252418,0.01833 -1.357299,0.02438 -0.104845,0.0073 -1.039375,0.0165 -2.076604,0.02126 -1.037231,0.0055 -2.024788,-0.0055 -2.194628,-0.02144 -0.257988,-0.02566 -0.33028,-0.05059 -0.438956,-0.152135 -0.07149,-0.0669 -0.137654,-0.121524 -0.146819,-0.121524 -0.0091,0 -0.0165,0.02621 -0.0165,0.05828 0,0.03208 0.02841,0.08193 0.06305,0.110893 0.03483,0.02878 0.12684,0.07424 0.204777,0.100993 0.12959,0.04455 0.113459,0.04875 -0.190278,0.04875 -0.267996,0 -0.332095,-0.01283 -0.332095,-0.06415 -9.1e-5,-0.03519 -0.03757,-0.125557 -0.0834,-0.200726 -0.04583,-0.07515 -0.131606,-0.148653 -0.190535,-0.1635 -0.05902,-0.01466 -0.107228,-0.04418 -0.107228,-0.06525 0,-0.02108 -0.06012,-0.0922 -0.133804,-0.158001 L 46.302427,9.13169 45.632044,9.12802 44.961661,9.12435 l -0.0856,0.1090606 c -0.04711,0.05993 -0.08578,0.145718 -0.08578,0.190718 0,0.04509 -0.022,0.122991 -0.04894,0.173397 -0.02694,0.05022 -0.04619,0.163499 -0.04271,0.251462 0.0037,0.08798 -0.0091,0.1600174 -0.03006,0.1600174 -0.01997,0 -0.06818,0.08358 -0.107228,0.18575 -0.03905,0.102284 -0.06654,0.202322 -0.06122,0.222484 0.0055,0.02016 -0.02365,0.151219 -0.06452,0.291036 -0.04069,0.139854 -0.106311,0.359166 -0.14572,0.487363 l -0.07167,0.233096 h -0.0055 c 0.0055,0.0091 3.7e-5,0.01925 -0.011,0.02621 -2.93e-4,7.32e-4 -4.22e-4,0.0014 -7.52e-4,0.0018 -0.0073,0.01466 -0.01283,0.03097 -0.01833,0.04619 -0.0055,0.011 -0.0073,0.02328 -0.011,0.03519 0.0073,0.0073 0.011,0.0165 0.0055,0.03079 -0.01283,0.03116 -0.02181,0.08505 -0.02181,0.119508 0,0.03446 -0.01833,0.05133 -0.0405,0.03758 -0.02237,-0.01466 -0.07056,0.02053 -0.107044,0.07625 -0.04711,0.07186 -0.06471,0.193285 -0.0603,0.415933 0.0037,0.190407 -0.02272,0.414301 -0.06727,0.567408 -0.04033,0.13912 -0.12684,0.415053 -0.192038,0.613177 -0.06525,0.198123 -0.151035,0.491615 -0.190957,0.652255 -0.03977,0.160566 -0.109244,0.370421 -0.154517,0.466175 -0.04509,0.09568 -0.133439,0.241948 -0.196255,0.324871 -0.06287,0.08285 -0.22866,0.255935 -0.368514,0.384407 -0.139854,0.128489 -0.300329,0.274796 -0.356656,0.325129 -0.05627,0.0504 -0.137287,0.144252 -0.179812,0.208919 -0.04252,0.06452 -0.07753,0.178896 -0.07771,0.254029 -1.64e-4,0.07515 0.03959,0.218157 0.08835,0.317852 0.06946,0.142053 0.135821,0.203549 0.307257,0.284657 0.120242,0.05683 0.27573,0.12574 0.345658,0.153051 0.06983,0.02731 0.21363,0.08908 0.319336,0.137105 0.105762,0.04821 0.248328,0.101728 0.316936,0.118958 0.0724,0.01833 0.249593,0.158 0.422293,0.333322 0.242188,0.245762 0.32073,0.360834 0.421817,0.618071 0.08578,0.218249 0.12519,0.39478 0.127206,0.570377 0.0016,0.139855 -0.01283,0.340104 -0.03171,0.444986 -0.01906,0.104845 -0.04271,0.276537 -0.05243,0.381418 -0.0091,0.104845 -0.07589,0.410031 -0.146636,0.678082 -0.07075,0.268032 -0.137105,0.538081 -0.147553,0.600089 -0.011,0.06196 -0.05957,0.214584 -0.109244,0.339041 -0.04968,0.124458 -0.117675,0.300054 -0.151218,0.390272 -0.03336,0.09018 -0.09036,0.221255 -0.126474,0.291201 -0.03611,0.07002 -0.07405,0.177246 -0.08432,0.23854 -0.011,0.06122 -0.04637,0.168815 -0.08046,0.238631 -0.03409,0.07002 -0.140038,0.336934 -0.235663,0.593326 -0.09549,0.256394 -0.198032,0.532912 -0.227708,0.614497 -0.02969,0.08157 -0.0757,0.210312 -0.102273,0.286069 -0.02658,0.0757 -0.0702,0.199718 -0.09678,0.275474 -0.02658,0.0757 -0.07478,0.204465 -0.107228,0.28605 -0.03244,0.08157 -0.06782,0.199204 -0.079,0.261397 -0.011,0.06214 -0.06764,0.252911 -0.12574,0.423797 -0.05811,0.17083 -0.163499,0.549114 -0.234159,0.840481 -0.07075,0.291347 -0.158184,0.653703 -0.194274,0.805215 -0.03611,0.151585 -0.07478,0.350642 -0.08615,0.442584 -0.011,0.09202 -0.02896,0.180912 -0.03941,0.19783 -0.011,0.0165 -0.05518,0.246807 -0.09934,0.510953 -0.04418,0.264128 -0.07992,0.508845 -0.07955,0.543818 4.2e-4,0.03501 -0.03006,0.305021 -0.06764,0.600181 -0.03758,0.29516 -0.06855,0.68611 -0.06855,0.868782 0,0.182562 -0.02896,0.483385 -0.06434,0.66822 -0.05169,0.269756 -0.05371,0.343275 -0.011,0.372474 0.02951,0.01999 0.124457,0.07368 0.21099,0.119508 0.08652,0.04564 0.204045,0.08321 0.261306,0.08321 0.05719,0 0.18982,-0.03666 0.294518,-0.08156 l 0.19037,-0.08157 -0.03831,0.133806 c -0.03225,0.112727 -0.02309,0.149019 0.05792,0.230036 0.08028,0.08028 0.169731,0.103564 0.540169,0.140037 0.244168,0.02401 0.891988,0.05408 1.439581,0.06672 0.547595,0.01283 1.003687,0.03116 1.013548,0.04106 0.0091,0.0091 0.238907,0.01833 0.508902,0.01833 0.269975,-1.1e-4 0.805508,-0.01997 1.190097,-0.04436 0.38459,-0.02419 0.823214,-0.06305 0.974726,-0.08633 0.151585,-0.02328 0.396724,-0.05902 0.544899,-0.07937 0.173031,-0.02365 0.322233,-0.07461 0.417088,-0.142054 l 0.147737,-0.105028 0.0165,-0.457908 c 0.0091,-0.25181 0.0275,-0.490588 0.04014,-0.530566 0.01283,-0.03996 0.0018,-0.08578 -0.02419,-0.101906 -0.03097,-0.01925 -0.01833,-0.04949 0.03775,-0.08871 0.04674,-0.03281 0.08743,-0.11181 0.09018,-0.175596 0.0037,-0.06378 0.0091,-0.166798 0.01283,-0.228605 0.0055,-0.06196 0.02401,-0.10283 0.04289,-0.0911 0.01906,0.011 0.03043,-0.0037 0.02511,-0.03593 -0.0055,-0.03153 0.0018,-0.08578 0.0165,-0.12079 0.01466,-0.03502 0.06452,-0.193285 0.111993,-0.351799 0.04747,-0.15855 0.08303,-0.301539 0.07918,-0.317834 -0.0037,-0.0165 0.0165,-0.139121 0.046,-0.272743 0.02915,-0.133622 0.03922,-0.265356 0.02236,-0.292593 -0.02034,-0.03299 -0.01283,-0.03812 0.02493,-0.01466 0.04143,0.02566 0.04949,0.011 0.03171,-0.05718 -0.01466,-0.05865 -0.0073,-0.08139 0.02126,-0.06361 0.02896,0.01833 0.03647,-0.0055 0.02126,-0.06361 -0.01283,-0.05022 -0.0091,-0.0823 0.0091,-0.07112 0.01833,0.011 0.05462,-0.09843 0.0812,-0.2436 0.02658,-0.145168 0.08707,-0.416445 0.134356,-0.602912 0.04728,-0.186465 0.09568,-0.396247 0.10741,-0.466174 0.011,-0.07002 0.03977,-0.174863 0.06214,-0.233078 0.02236,-0.05829 0.04729,-0.163132 0.05553,-0.233096 0.0091,-0.07002 0.04455,-0.241565 0.08028,-0.381419 0.03593,-0.139854 0.08817,-0.368698 0.116209,-0.508551 0.02804,-0.139855 0.05774,-0.330554 0.06599,-0.423797 0.0091,-0.0933 0.03537,-0.26488 0.05993,-0.381418 0.02475,-0.116576 0.05536,-0.259565 0.06818,-0.317852 0.01283,-0.05828 0.05755,-0.183296 0.09934,-0.277785 0.0418,-0.0944 0.09018,-0.266125 0.107411,-0.381418 0.0165,-0.115293 0.09623,-0.343073 0.175413,-0.506224 0.07918,-0.163132 0.167898,-0.333799 0.197171,-0.379182 0.02915,-0.04546 0.119875,-0.157817 0.201386,-0.249978 0.08157,-0.0922 0.185385,-0.202927 0.230695,-0.246165 0.04527,-0.04325 0.15965,-0.114927 0.254267,-0.159467 0.09458,-0.04454 0.233536,-0.09348 0.308834,-0.108877 0.07533,-0.01466 0.241894,-0.0055 0.370238,0.02034 0.128305,0.02658 0.242847,0.04766 0.254523,0.04693 0.011,-8.8e-4 0.112176,0.03739 0.223161,0.08505 0.111077,0.04765 0.249465,0.09421 0.307753,0.103564 0.05828,0.0091 0.173947,0.03355 0.257163,0.05408 0.09036,0.02236 0.866912,0.01466 1.928282,-0.0165 0.977384,-0.02988 2.158463,-0.06708 2.624638,-0.08303 0.466156,-0.0165 0.893984,-0.03299 0.950714,-0.03831 0.0614,-0.0055 0.169365,-0.08523 0.266859,-0.196914 0.129224,-0.148103 0.160017,-0.213997 0.146453,-0.313948 -0.0091,-0.06965 0.0037,-0.1602 0.02933,-0.201313 0.03446,-0.05536 0.03318,-0.09642 -0.0055,-0.157634 -0.0363,-0.05792 -0.03812,-0.09109 -0.0055,-0.110893 0.02731,-0.0165 0.03574,-0.09806 0.02126,-0.203293 -0.01283,-0.09623 0.0018,-0.356233 0.03355,-0.577672 0.0319,-0.22142 0.04968,-0.416575 0.03941,-0.433639 -0.011,-0.0165 0.02108,-0.328722 0.06946,-0.692562 0.05572,-0.419196 0.117859,-0.720332 0.169731,-0.822005 0.04509,-0.08835 0.170098,-0.238137 0.278022,-0.333084 0.140037,-0.123358 0.246477,-0.179263 0.372566,-0.195686 0.09714,-0.01283 0.70092,-0.03043 1.341902,-0.03941 0.640983,-0.0091 1.317323,0.0015 1.50291,0.02346 l 0.337373,0.03996 0.121708,-0.139304 c 0.0933,-0.106861 0.117858,-0.171564 0.105394,-0.277858 l -0.0165,-0.138571 h 0.243691 0.243599 l 0.02878,0.254286 0.02878,0.254267 0.217039,0.0055 c 0.119326,0.0037 0.297416,0.0055 0.395661,0.0037 0.106495,-4.57e-4 0.23689,-0.03684 0.323131,-0.09018 0.0966,-0.05975 0.153234,-0.132888 0.170831,-0.220595 0.01466,-0.07222 0.01869,-0.143703 0.0091,-0.158733 -0.0091,-0.01466 0.07167,-0.0209 0.180179,-0.01284 l 0.197336,0.01466 0.0091,0.235644 c 0.0055,0.129589 0.01466,0.240594 0.02126,0.246679 0.0055,0.0055 0.217809,4.58e-4 0.470151,-0.01284 0.258869,-0.01283 0.480491,-0.0449 0.508553,-0.07277 0.02731,-0.02694 0.08065,-0.06086 0.118592,-0.07515 0.03794,-0.01466 0.0812,-0.0922 0.09642,-0.173031 0.02309,-0.123174 0.04839,-0.150119 0.155617,-0.165882 0.07039,-0.011 0.136188,-0.0055 0.146454,0.011 0.011,0.0165 0.02584,0.118775 0.03482,0.227542 0.0091,0.108694 0.0264,0.207527 0.03849,0.219679 0.01283,0.01283 0.199939,0.0308 0.417327,0.04143 0.364756,0.01833 0.412577,0.011 0.619225,-0.09403 0.154884,-0.07845 0.225966,-0.140587 0.230603,-0.201716 0.0037,-0.04858 0.0037,-0.118959 0.0017,-0.156351 -0.0037,-0.05004 0.02218,-0.06268 0.09843,-0.04802 0.08835,0.0165 0.111443,0.057 0.155984,0.272908 l 0.05224,0.253204 0.40402,-0.01466 c 0.259857,-0.0091 0.456844,-0.03996 0.552267,-0.08505 0.08156,-0.03849 0.189491,-0.08193 0.239787,-0.09623 0.05022,-0.01466 0.104478,-0.05884 0.120424,-0.0988 0.0165,-0.03996 0.03739,-0.118042 0.04802,-0.173581 0.011,-0.05553 0.04564,-0.151767 0.07753,-0.213795 0.03208,-0.06196 0.07771,-0.252781 0.10136,-0.423888 0.03886,-0.280038 0.05774,-0.323259 0.190628,-0.432741 0.113275,-0.0933 0.158733,-0.173214 0.195685,-0.343824 0.0264,-0.122258 0.07442,-0.403433 0.106678,-0.624853 0.03225,-0.221439 0.06434,-0.707739 0.07149,-1.08069 0.0091,-0.493338 0.02805,-0.689867 0.068,-0.721192 0.03024,-0.02365 0.06012,-0.129223 0.06636,-0.234416 0.0055,-0.105211 0.02768,-0.217883 0.04766,-0.250307 0.01998,-0.03244 0.05315,-0.136739 0.07332,-0.231759 0.02034,-0.09513 0.04527,-0.31578 0.05553,-0.490589 0.011,-0.174863 0.02822,-0.426858 0.04015,-0.56004 0.011,-0.133255 0.0037,-0.338105 -0.01906,-0.455341 -0.02218,-0.117309 -0.06965,-0.257951 -0.105578,-0.312701 -0.04325,-0.06599 -0.07149,-0.239219 -0.08377,-0.513208 -0.01466,-0.3343494 -0.03318,-0.4247134 -0.09476,-0.4714714 -0.04344,-0.03299 -0.182012,-0.05847 -0.322489,-0.05921 -0.153052,-8.43e-4 -0.236286,-0.0165 -0.22001,-0.04381 0.01466,-0.02328 0.0013,-0.04399 -0.02933,-0.04583 -0.03977,-0.0018 -0.04106,-0.0091 -0.0037,-0.02402 0.03721,-0.01466 0.03922,-0.05114 0.0073,-0.133804 -0.02365,-0.06214 -0.07552,-0.1435202 -0.115292,-0.180546 -0.03978,-0.03703 -0.09642,-0.059387 -0.125741,-0.049678 -0.0295,0.00913 -0.07864,-0.00367 -0.109427,-0.028591 -0.03079,-0.025474 -0.101727,-0.044724 -0.15745,-0.042708 -0.0559,0.00178 -0.304783,-0.00735 -0.553166,-0.019796 -0.222887,-0.011 -0.335962,-0.0165 -0.401856,-0.00735 z m 1.150121,0.023091 c -0.011,0 -0.02126,0.00913 -0.02126,0.021265 0,0.011 0.0091,0.021265 0.02126,0.021265 0.011,0 0.02126,-0.00913 0.02126,-0.021265 0,-0.011 -0.0091,-0.021265 -0.02126,-0.021265 z m -27.768168,2.309115 c -0.0037,0.0014 -0.0091,1.28e-4 -0.01466,0.0018 0.0037,-9.1e-5 0.0073,-1.8e-5 0.011,1.65e-4 8.25e-4,-6.78e-4 0.0017,-0.0014 0.0018,-0.0018 z m 1.180584,0.119508 c 3.12e-4,5.31e-4 6.97e-4,0.001 10e-4,0.0016 3.29e-4,-5.33e-4 6.59e-4,-10e-4 9.89e-4,-0.0016 z m -1.282644,0.06636 c -3.29e-4,1.1e-4 -6.59e-4,2.2e-4 -9.9e-4,3.3e-4 -0.0073,0.0073 -0.0165,0.01466 -0.02365,0.02163 -0.0073,0.0073 -0.0165,0.0165 -0.02438,0.02365 -8.79e-4,0.0016 -0.0018,0.0037 -0.0018,0.0055 0.0165,-0.0165 0.03262,-0.03409 0.05187,-0.0504 z m -0.03171,0.680885 c -4.77e-4,3.12e-4 -9.17e-4,6.24e-4 -0.0014,9.18e-4 4.59e-4,1.8e-5 0.0018,0.0017 0.0018,0.0017 3.67e-4,0 -0.0013,-0.0018 -9.16e-4,-0.0018 z m 10.337399,5.192914 c 0.03593,0.0037 0.0548,0.02713 0.09092,0.07461 0.04014,0.05279 0.102462,0.185568 0.138571,0.294849 0.03593,0.109244 0.06543,0.234123 0.06543,0.277526 0,0.04344 0.01833,0.09715 0.03905,0.119143 0.02144,0.02218 0.05077,0.221493 0.06507,0.442913 0.01466,0.221439 0.03684,0.437892 0.05003,0.481003 0.01283,0.04308 0.03006,0.119325 0.03776,0.169548 0.0073,0.05003 0.04436,0.173947 0.08175,0.275144 0.03721,0.101182 0.103932,0.253791 0.148103,0.339023 0.04418,0.08523 0.127207,0.217589 0.184487,0.294096 0.05737,0.07643 0.212236,0.214785 0.344264,0.307258 0.131972,0.09238 0.255824,0.168265 0.275126,0.168265 0.01925,0 0.12464,0.03959 0.234251,0.08798 0.10961,0.04839 0.226479,0.07771 0.259747,0.06489 0.03318,-0.01283 0.06067,9.3e-5 0.06104,0.02841 4.59e-4,0.03611 0.011,0.03409 0.03721,-0.0055 0.02878,-0.04527 0.0405,-0.04619 0.05462,-0.0037 0.011,0.03519 0.0559,0.04436 0.127391,0.0264 0.08414,-0.02108 0.116209,-0.06268 0.138021,-0.179263 0.02566,-0.136737 0.011,-0.170464 -0.14352,-0.33838 -0.09458,-0.102463 -0.227781,-0.30614 -0.296151,-0.452427 -0.06837,-0.14627 -0.166431,-0.361312 -0.217699,-0.477851 -0.0768,-0.174679 -0.09586,-0.30876 -0.107777,-0.762837 -0.01284,-0.514729 -0.0073,-0.5732 0.104289,-0.889971 l 0.118775,-0.33904 h 1.79774 1.797739 l 0.148286,0.102095 c 0.08156,0.05609 0.211998,0.161116 0.289789,0.233096 0.0779,0.07203 0.178163,0.202193 0.222997,0.289203 0.05315,0.103197 0.08267,0.250583 0.08505,0.423796 0.0018,0.146086 -0.0165,0.418188 -0.03996,0.604654 -0.02401,0.186466 -0.05481,0.501147 -0.06855,0.699271 -0.01283,0.198123 -0.0515,0.446048 -0.08395,0.550929 -0.03244,0.104845 -0.09018,0.251811 -0.128306,0.326467 -0.03812,0.07461 -0.125375,0.182928 -0.193927,0.240538 -0.06855,0.05756 -0.224921,0.13289 -0.347564,0.167348 -0.151768,0.04271 -0.540995,0.07093 -1.218912,0.08853 -0.547758,0.01466 -1.329658,0.03556 -1.737563,0.04728 -0.407905,0.011 -0.932349,0.03024 -1.165444,0.04143 -0.349031,0.0165 -0.457432,0.0055 -0.614497,-0.05865 -0.104845,-0.04344 -0.276537,-0.116943 -0.381419,-0.1635 -0.104845,-0.04656 -0.289918,-0.163132 -0.411222,-0.259325 -0.121342,-0.09605 -0.294831,-0.284566 -0.385634,-0.418903 -0.09073,-0.134356 -0.217444,-0.387302 -0.281432,-0.562111 -0.0812,-0.222135 -0.122991,-0.432722 -0.138571,-0.69927 -0.0165,-0.279599 -0.0037,-0.441796 0.04527,-0.60755 0.03703,-0.124457 0.06543,-0.238778 0.06287,-0.254267 -0.0018,-0.01466 0.0091,-0.08798 0.02677,-0.161116 0.01833,-0.07515 0.116943,-0.215793 0.228203,-0.323131 0.121891,-0.117492 0.27749,-0.216636 0.40807,-0.259747 0.104288,-0.03446 0.157266,-0.0515 0.193283,-0.04821 z" /></svg>
