<?xml version="1.0" encoding="UTF-8" standalone="no"?>
<svg
   xmlns:dc="http://purl.org/dc/elements/1.1/"
   xmlns:cc="http://creativecommons.org/ns#"
   xmlns:rdf="http://www.w3.org/1999/02/22-rdf-syntax-ns#"
   xmlns:svg="http://www.w3.org/2000/svg"
   xmlns="http://www.w3.org/2000/svg"
   xmlns:sodipodi="http://sodipodi.sourceforge.net/DTD/sodipodi-0.dtd"
   xmlns:inkscape="http://www.inkscape.org/namespaces/inkscape"
   version="1.1"
   x="0px"
   y="0px"
   width="68.375px"
   height="32px"
   viewBox="0 0 68.375 32"
   enable-background="new 0 0 68.375 32"
   xml:space="preserve"
   id="svg230"
   sodipodi:docname="p90.svg"
   inkscape:version="1.0.2-2 (e86c870879, 2021-01-15)"><metadata
   id="metadata236"><rdf:RDF><cc:Work
       rdf:about=""><dc:format>image/svg+xml</dc:format><dc:type
         rdf:resource="http://purl.org/dc/dcmitype/StillImage" /></cc:Work></rdf:RDF></metadata><defs
   id="defs234" /><sodipodi:namedview
   pagecolor="#ffffff"
   bordercolor="#666666"
   borderopacity="1"
   objecttolerance="10"
   gridtolerance="10"
   guidetolerance="10"
   inkscape:pageopacity="0"
   inkscape:pageshadow="2"
   inkscape:window-width="1842"
   inkscape:window-height="1051"
   id="namedview232"
   showgrid="false"
   inkscape:zoom="8.8848263"
   inkscape:cx="55.015022"
   inkscape:cy="-1.5869091"
   inkscape:window-x="-9"
   inkscape:window-y="-9"
   inkscape:window-maximized="1"
   inkscape:current-layer="svg230" />

<g
   id="guides">
</g>
<path
   style="fill:#ffffff;stroke-width:0.112551"
   d="m 45.005983,29.525525 c -0.226348,-0.226348 -0.223848,-0.280516 0.06227,-1.349518 0.470877,-1.759287 0.544063,-2.318513 0.352603,-2.694295 -0.09462,-0.18571 -0.241145,-0.378157 -0.325613,-0.42766 -0.08447,-0.0495 -0.153579,-0.185683 -0.153579,-0.302621 0,-0.29044 -0.721159,-0.3911 -1.765312,-0.246403 -0.938124,0.130004 -1.591127,0.51092 -2.736746,1.596428 -1.89306,1.793733 -4.225099,2.974747 -6.442709,3.262783 -0.449272,0.05835 -2.213859,0.107663 -3.921304,0.109574 l -3.104446,0.0035 -0.272097,-0.418912 C 26.413243,28.618352 26.17214,28.523507 22.937861,27.578792 22.504538,27.452221 21.288983,27.09123 20.236627,26.77659 18.033116,26.11777 17.285139,26.061138 17.085186,26.537986 l -0.112551,0.268415 -2.35359,-0.07145 c -1.294475,-0.0393 -5.0010379,-0.07145 -8.2368081,-0.07145 -6.81785583,0 -6.12497483,0.169002 -5.84898433,-1.426633 0.38393435,-2.219711 0.48518243,-10.373534 0.1607031,-12.941924 -0.083804,-0.663345 -0.081107,-0.98397 0.0097,-1.153653 L 0.82941932,10.9063 10.364194,10.9099 c 8.20546,0.0031 9.565234,0.02662 9.753251,0.168827 0.187957,0.142164 1.502401,0.165248 9.409299,0.165248 h 9.190821 l 0.314765,-0.759722 c 0.534494,-1.2900891 0.638979,-1.5399031 0.741433,-1.7727051 0.05449,-0.123807 0.345287,-0.807557 0.646223,-1.519445 0.486443,-1.150717 0.580334,-1.298293 0.846146,-1.329955 l 0.298989,-0.03561 v -1.061763 c 0,-0.583969 -0.04711,-1.061762 -0.104695,-1.061762 -0.06456,0 -0.06456,-0.1399466 0,-0.3650495 0.05758,-0.200777 0.104695,-0.52999 0.104695,-0.7315844 0,-0.4653403 0.194356,-0.4721482 0.625705,-0.021917 0.32084,0.334885 0.329313,0.3730313 0.30001,1.3506169 l -0.03016,1.006 h 0.346094 c 0.524467,0 1.121918,0.524443 1.121923,0.984825 2e-6,0.250112 0.05339,0.365792 0.16883,0.365792 0.09379,0 0.168827,-0.100046 0.168827,-0.225103 0,-0.165076 0.07503,-0.225103 0.281379,-0.225103 0.206344,0 0.281378,0.06003 0.281378,0.225103 0,0.187586 0.07503,0.225103 0.450206,0.225103 0.375171,0 0.450206,-0.03752 0.450206,-0.225103 0,-0.150069 0.07503,-0.225103 0.225103,-0.225103 0.150068,0 0.225103,0.07503 0.225103,0.225103 0,0.32691 0.734983,0.32691 0.820472,0 0.08019,-0.306666 0.530145,-0.306666 0.530145,0 0,0.187586 0.07503,0.225103 0.450206,0.225103 0.375171,0 0.450206,-0.03752 0.450206,-0.225103 0,-0.306666 0.44995,-0.306666 0.530145,0 0.07384,0.282351 0.820472,0.333563 0.820472,0.05628 0,-0.09379 0.100046,-0.168827 0.225103,-0.168827 0.125057,0 0.225103,0.07503 0.225103,0.168827 0,0.117911 0.118804,0.168827 0.39393,0.168827 0.275125,0 0.39393,-0.05092 0.39393,-0.168827 0,-0.112551 0.112551,-0.168827 0.337654,-0.168827 0.225103,0 0.337654,0.05628 0.337654,0.168827 0,0.117911 0.118805,0.168827 0.39393,0.168827 0.275126,0 0.39393,-0.05092 0.39393,-0.168827 0,-0.105048 0.106299,-0.168827 0.281379,-0.168827 0.175081,0 0.281379,0.06378 0.281379,0.168827 0,0.117911 0.118804,0.168827 0.39393,0.168827 0.275125,0 0.39393,-0.05092 0.39393,-0.168827 0,-0.105048 0.106298,-0.168827 0.281378,-0.168827 0.175081,0 0.281379,0.06378 0.281379,0.168827 0,0.117911 0.118805,0.168827 0.39393,0.168827 0.275125,0 0.39393,-0.05092 0.39393,-0.168827 0,-0.105048 0.106298,-0.168827 0.281379,-0.168827 0.17508,0 0.281378,0.06378 0.281378,0.168827 0,0.117911 0.118805,0.168827 0.39393,0.168827 0.275125,0 0.39393,-0.05092 0.39393,-0.168827 0,-0.09286 0.07597,-0.168827 0.168827,-0.168827 0.1776,0 0.201429,-0.16673 0.170915,-1.19584 -0.0094,-0.317243 0.03756,-0.899697 0.10437,-1.2943412 0.06681,-0.3946443 0.148456,-0.8821416 0.181435,-1.0833273 0.04748,-0.2896277 0.114014,-0.3657922 0.319559,-0.3657922 0.244275,0 0.263862,0.0548 0.331879,0.9285494 0.03976,0.5107022 0.07259,1.1944523 0.07296,1.5194443 l 6.75e-4,0.590895 h 0.392976 c 0.271083,0 0.436582,0.06982 0.533555,0.225103 0.07732,0.123807 0.205635,0.225103 0.285147,0.225103 0.07951,0 0.174955,0.151944 0.212097,0.337654 0.0415,0.207491 0.138037,0.338482 0.250427,0.339802 0.180138,0.0021 0.322825,0.282987 1.38414,2.724623 0.886009,2.0383311 0.905102,2.1206821 0.964476,4.1599071 l 0.05468,1.878138 -0.491168,0.04371 c -0.369512,0.03288 -0.302994,0.04858 0.268553,0.06337 0.444556,0.01151 0.759723,-0.02703 0.759723,-0.09289 0,-0.0619 0.151944,-0.112552 0.337654,-0.112552 0.18571,0 0.337654,0.05065 0.337654,0.112552 0,0.0619 0.07597,0.112551 0.168827,0.112551 0.09286,0 0.168828,-0.05065 0.168828,-0.112551 0,-0.136804 0.416229,-0.151492 0.468964,-0.01655 0.02063,0.0528 0.30342,0.130518 0.628412,0.172704 0.505206,0.06558 0.590895,0.04975 0.590895,-0.10913 0,-0.143268 0.058,-0.166051 0.253241,-0.09947 0.293899,0.100231 0.842945,0.09719 1.514453,-0.0084 0.452906,-0.0712 0.47627,-0.06056 0.540943,0.246443 0.03718,0.176475 0.140719,0.63516 0.230095,1.019303 0.08938,0.384141 0.162503,0.858537 0.162503,1.054212 v 0.355773 l -0.759722,-0.07457 c -0.992552,-0.09742 -1.205088,-0.09753 -1.928226,-0.001 -0.500216,0.06676 -0.623742,0.04869 -0.709039,-0.103724 -0.129374,-0.231174 -0.542314,-0.243165 -0.542314,-0.01574 0,0.189242 -0.28646,0.230166 -0.39393,0.05627 -0.0932,-0.150806 -0.506481,-0.144288 -0.506481,0.008 0,0.07943 -0.345525,0.10822 -1.013222,0.08441 -1.218116,-0.04343 -1.25791,0.02874 -0.562498,1.020113 0.414525,0.590946 0.450205,0.700466 0.450205,1.381901 0,0.407049 -0.08001,1.189896 -0.177802,1.739658 -0.09779,0.549762 -0.237073,1.37943 -0.309516,1.843704 l -0.131715,0.844136 -0.703446,0.03351 -0.703447,0.03351 v -0.853112 c 0,-1.049075 -0.185797,-1.522447 -0.747323,-1.904014 -0.385008,-0.261623 -0.537797,-0.292498 -1.44743,-0.292498 -0.902402,0 -1.064173,0.03207 -1.435821,0.284606 -0.507414,0.344798 -0.758712,0.798021 -0.759583,1.369938 -0.0016,1.045247 -0.51613,2.834787 -1.00106,3.481658 -0.09904,0.132118 -0.256051,0.354715 -0.348906,0.494661 -0.318124,0.479459 -1.47576,1.514146 -2.060405,1.841579 -1.373141,0.76903 -1.805891,0.851382 -4.487677,0.853991 -2.07023,0.002 -2.466755,-0.02443 -2.616821,-0.174493 z M 31.393612,24.680609 c 0.239697,-0.100138 0.806711,-0.353379 1.260031,-0.562757 0.45332,-0.209378 0.842897,-0.380687 0.865727,-0.380687 0.02283,0 0.471671,-0.205369 0.997421,-0.456376 1.44911,-0.691842 1.86877,-1.240542 1.870339,-2.445439 0.0011,-0.870339 -0.621833,-1.928766 -1.272333,-2.161709 -0.479865,-0.171839 -5.753967,-0.154807 -6.087134,0.01966 -0.515701,0.270051 -1.070195,0.790644 -1.487506,1.39656 -0.426286,0.618948 -0.437856,0.66154 -0.436542,1.606934 0.0011,0.799349 0.04782,1.058704 0.264055,1.466191 0.356393,0.671609 0.888361,1.196962 1.487068,1.468574 0.631885,0.286664 1.910957,0.311376 2.538874,0.04905 z m 19.085397,-0.675257 c 1.150807,-0.588857 1.397084,-2.489238 0.438165,-3.381068 -0.222315,-0.206762 -0.747837,-0.705207 -1.167826,-1.107656 -0.732001,-0.70143 -0.786942,-0.731726 -1.326964,-0.731726 -0.919127,0 -1.752463,0.498333 -2.156198,1.289402 -0.194744,0.381576 -0.219423,0.594892 -0.172534,1.491307 0.05438,1.039728 0.05311,1.04604 -0.210981,1.04604 -0.146132,0 -0.265694,0.05065 -0.265694,0.112551 0,0.06564 0.374668,0.112551 0.898901,0.112551 h 0.898901 l 0.154803,0.365793 c 0.213474,0.504425 0.542585,0.768932 1.170628,0.940837 0.582958,0.159566 1.262653,0.10561 1.738799,-0.138031 z m 16.41019,-7.625487 c 0,-0.22435 -0.06891,-0.275801 -0.43515,-0.324925 -0.631041,-0.08464 -1.028019,0.01556 -1.028019,0.259474 0,0.213606 0.228138,0.282664 1.041101,0.315147 0.373661,0.01493 0.422068,-0.01371 0.422068,-0.249696 z m -0.480688,-1.039507 c -0.0374,-0.0374 -0.134477,-0.0414 -0.215724,-0.0089 -0.08979,0.03593 -0.06312,0.0626 0.068,0.068 0.118647,0.0049 0.185123,-0.02171 0.147724,-0.05911 z M 56.309363,14.114017 v -0.281379 h -6.753086 c -6.669092,0 -6.753086,0.0028 -6.753086,0.224211 0,0.221053 0.0939,0.224632 6.668672,0.25415 3.66777,0.01647 6.706659,0.04219 6.753087,0.05717 0.04643,0.01498 0.08441,-0.09939 0.08441,-0.25415 z m 1.175409,-1.769591 c 0.22366,-0.319321 0.221782,-0.587105 -0.0066,-0.935604 -0.28855,-0.440382 -0.380987,-0.330191 -0.380987,0.454166 0,0.770916 0.09881,0.893666 0.387549,0.481438 z m -1.142797,-0.98792 c -0.04208,-0.160931 -0.153522,-0.225102 -0.390902,-0.225102 -0.182621,0 -0.493507,-0.123159 -0.690859,-0.273687 -0.377762,-0.288133 -1.971817,-0.5932 -5.310007,-1.0162191 -0.804743,-0.101978 -2.16364,-0.283977 -3.019772,-0.404442 -0.856132,-0.120465 -1.747124,-0.219027 -1.979984,-0.219027 -0.423087,0 -0.423686,6.75e-4 -0.863252,0.9757031 -0.241931,0.536637 -0.456755,1.017794 -0.477389,1.069239 -0.02064,0.05144 2.597418,0.09354 5.817894,0.09354 3.7822,0 5.88004,0.03985 5.924972,0.112552 0.03826,0.0619 0.289747,0.112551 0.558863,0.112551 0.433889,0 0.482635,-0.02549 0.430436,-0.225103 z m -10.859216,-3.6297831 -0.03461,-0.478344 -2.222891,-0.03052 -2.22289,-0.03052 v 0.50886 0.508861 h 2.2575 2.257501 z"
   id="path408" /></svg>
