<?xml version="1.0" encoding="UTF-8" standalone="no"?>
<svg
   xmlns:dc="http://purl.org/dc/elements/1.1/"
   xmlns:cc="http://creativecommons.org/ns#"
   xmlns:rdf="http://www.w3.org/1999/02/22-rdf-syntax-ns#"
   xmlns:svg="http://www.w3.org/2000/svg"
   xmlns="http://www.w3.org/2000/svg"
   xmlns:sodipodi="http://sodipodi.sourceforge.net/DTD/sodipodi-0.dtd"
   xmlns:inkscape="http://www.inkscape.org/namespaces/inkscape"
   version="1.1"
   x="0px"
   y="0px"
   width="96.583px"
   height="32px"
   viewBox="0 0 96.583 32"
   enable-background="new 0 0 96.583 32"
   xml:space="preserve"
   id="svg47"
   sodipodi:docname="bruenmk9.svg"
   inkscape:version="1.0.2-2 (e86c870879, 2021-01-15)"><metadata
   id="metadata53"><rdf:RDF><cc:Work
       rdf:about=""><dc:format>image/svg+xml</dc:format><dc:type
         rdf:resource="http://purl.org/dc/dcmitype/StillImage" /></cc:Work></rdf:RDF></metadata><defs
   id="defs51" /><sodipodi:namedview
   pagecolor="#ffffff"
   bordercolor="#666666"
   borderopacity="1"
   objecttolerance="10"
   gridtolerance="10"
   guidetolerance="10"
   inkscape:pageopacity="0"
   inkscape:pageshadow="2"
   inkscape:window-width="1842"
   inkscape:window-height="1051"
   id="namedview49"
   showgrid="false"
   inkscape:zoom="12.028788"
   inkscape:cx="54.986084"
   inkscape:cy="16.029035"
   inkscape:window-x="-9"
   inkscape:window-y="-9"
   inkscape:window-maximized="1"
   inkscape:current-layer="svg47" />

<g
   id="guides">
</g>
<path
   style="fill:#ffffff;stroke-width:0.0694871"
   d="m 47.858335,31.396486 c -0.08755,-0.01837 -0.333063,-0.124869 -0.545581,-0.23666 -0.505963,-0.266152 -0.883363,-0.265382 -2.549821,0.0052 -1.861954,0.30233 -2.127191,0.280149 -2.427687,-0.203021 l -0.154639,-0.248644 -0.0417,-5.732682 c -0.02874,-3.949963 -0.06703,-5.858062 -0.123137,-6.135868 -0.06695,-0.331466 -0.06368,-0.442714 0.01837,-0.625384 0.05489,-0.122208 0.113574,-0.44108 0.130401,-0.708605 0.03221,-0.512151 0.183391,-0.857916 0.459729,-1.051469 0.123785,-0.0867 0.146977,-0.173594 0.146977,-0.550673 v -0.447703 h -0.208462 c -0.171199,0 -0.20846,0.02857 -0.20846,0.15982 0,0.190708 -0.12042,0.326589 -0.289428,0.326589 -0.06746,0 -0.233189,0.09705 -0.368281,0.21566 -0.223293,0.196052 -0.245623,0.249224 -0.245623,0.584849 0,0.203054 -0.02458,0.379612 -0.05462,0.392352 -0.03004,0.01274 -0.131135,0.132026 -0.224648,0.265082 -0.161301,0.229509 -0.171866,0.306725 -0.205951,1.505037 l -0.03592,1.263116 -0.215828,0.266883 c -0.442668,0.547382 -0.407753,0.540593 -2.980576,0.579575 l -2.293073,0.03475 -0.325522,0.191358 c -0.179037,0.105247 -0.384839,0.277227 -0.457336,0.382179 -0.07249,0.104952 -0.297791,0.659858 -0.500652,1.233127 -0.202862,0.573267 -0.42894,1.167382 -0.502397,1.320254 -0.07345,0.152871 -0.269328,0.637543 -0.435267,1.077048 -0.752958,1.994268 -0.742069,1.951044 -0.546052,2.167641 0.183974,0.203289 0.03371,0.284489 -0.421269,0.227644 -0.214548,-0.02681 -0.390087,-0.07232 -0.390087,-0.101127 0,-0.02881 -0.101625,-0.07041 -0.225833,-0.09244 -0.288226,-0.05111 -3.149218,-0.648058 -3.700185,-0.772041 -0.229307,-0.0516 -0.565077,-0.114825 -0.746155,-0.1405 -0.181079,-0.02568 -0.376279,-0.09372 -0.433779,-0.151224 -0.09137,-0.09137 -0.09204,-0.12872 -0.0053,-0.296409 0.05457,-0.105525 0.2222,-0.302972 0.372513,-0.43877 0.342005,-0.308982 0.552786,-0.621219 1.186615,-1.757774 0.277072,-0.496832 0.712799,-1.255601 0.968282,-1.686153 0.255484,-0.430551 0.605227,-1.038938 0.777208,-1.351969 0.17198,-0.31303 0.378517,-0.648682 0.458971,-0.745893 0.20854,-0.251975 0.322379,-0.651995 0.327057,-1.149252 0.0048,-0.51457 -0.199197,-0.921097 -0.660474,-1.315933 -0.478128,-0.409261 -1.001892,-0.525787 -2.363327,-0.525787 -0.914513,0 -1.191043,0.0226 -1.37022,0.111986 -0.167562,0.08359 -0.333241,0.101639 -0.653431,0.07118 -0.665617,-0.06332 -0.976145,-0.123177 -1.083006,-0.208772 -0.07391,-0.05919 -0.105383,-0.05716 -0.127393,0.0083 -0.03641,0.108166 -1.591489,0.12505 -1.627437,0.01767 -0.08088,-0.241596 -4.388558,-0.441163 -6.090146,-0.282146 -1.523447,0.14237 -3.642316,0.560209 -4.783577,0.943317 -0.403239,0.135364 -0.595743,0.244563 -0.770357,0.436993 -0.352312,0.388256 -0.655936,0.886146 -0.950971,1.559418 -0.14654,0.334406 -0.287904,0.608011 -0.314144,0.608011 -0.02624,0 -0.1215696,0.132894 -0.2118425,0.29532 -0.090272,0.162426 -0.2983983,0.425229 -0.4625022,0.584008 -0.2966038,0.286981 -0.3021831,0.288932 -0.943083,0.329896 -0.3545929,0.02267 -1.7391354,0.07294 -3.076761,0.111719 C 1.4364827,21.829104 1.3519409,21.834228 1.2572056,21.963785 1.1801236,22.0692 1.1651426,22.06898 1.0569898,21.960885 0.96636275,21.870244 0.94013611,21.715924 0.94048399,21.275611 0.9410644,20.540943 0.79243098,18.563594 0.73323485,18.518466 0.69024735,18.485693 0.59871673,17.451063 0.23316371,12.865802 L 0.07889014,10.930694 0.3951212,10.636159 c 0.17392713,-0.161995 0.36525939,-0.313349 0.42518278,-0.336344 0.0599234,-0.02299 0.1191943,-0.114077 0.13171308,-0.202404 0.022679,-0.1600129 0.0261594,-0.1605144 0.96083654,-0.1386002 0.7774217,0.01823 1.027154,0.051806 1.458218,0.1960902 0.2860787,0.09575 0.536232,0.198952 0.5558964,0.22933 0.069897,0.107978 1.1597071,0.578078 1.9466471,0.839701 0.4395056,0.146117 1.174331,0.349326 1.6329455,0.451576 0.4586145,0.102249 0.8886154,0.214389 0.9555557,0.249199 0.2295071,0.119345 1.8927337,0.270439 2.9700357,0.269808 1.091647,-6.26e-4 2.847877,-0.163989 2.91629,-0.27125 0.02054,-0.0322 0.178047,-0.08042 0.350028,-0.107161 1.138616,-0.177064 4.099735,-1.200686 4.099735,-1.417229 0,-0.03349 0.193505,-0.147741 0.430013,-0.253879 0.236506,-0.106138 0.669024,-0.3447224 0.961151,-0.5301897 0.600222,-0.3810718 0.675403,-0.4099644 1.61415,-0.6203411 0.555118,-0.1244033 0.6775,-0.1748176 0.6775,-0.2790891 0,-0.092703 0.07075,-0.139521 0.260576,-0.1724141 0.143317,-0.024835 0.525013,-0.120059 0.848212,-0.2116096 0.3232,-0.091551 0.6468,-0.1664555 0.719113,-0.1664555 0.07231,0 0.23001,-0.045769 0.350439,-0.1017082 0.396324,-0.1840927 1.686573,-0.4541659 2.174373,-0.4551369 0.63715,-0.00127 0.804728,-0.049524 0.751741,-0.2164686 -0.02645,-0.083334 -0.002,-0.1458643 0.06754,-0.172538 0.08677,-0.033297 0.109021,-0.1581098 0.109021,-0.6115412 0,-0.4985716 0.02169,-0.5991054 0.173718,-0.8051666 0.100403,-0.1360882 0.173717,-0.3296902 0.173717,-0.4587348 V 5.1203287 l 1.511344,-0.0079 c 1.155732,-0.00604 1.609443,0.017304 1.928265,0.099212 0.500321,0.1285359 1.146536,0.379818 1.146536,0.4458326 0,0.026102 0.111512,0.087781 0.247804,0.1370643 0.397928,0.1438929 0.706765,0.458495 0.760122,0.7743113 0.02563,0.1516861 0.06877,0.2757928 0.09587,0.2757928 0.0271,0 0.171411,-0.1250767 0.320686,-0.2779482 l 0.271409,-0.2779481 h 0.583043 c 0.524604,0 0.586686,0.013929 0.619386,0.1389741 0.05278,0.2018277 0.506542,0.2018277 0.506542,0 0,-0.108091 0.04632,-0.1389741 0.208462,-0.1389741 0.162136,0 0.208461,0.030883 0.208461,0.1389741 0,0.1158118 0.04632,0.138974 0.277948,0.138974 0.231623,0 0.277948,-0.023162 0.277948,-0.138974 0,-0.1090255 0.04632,-0.1389741 0.214966,-0.1389741 0.156529,0 0.224847,0.03778 0.25131,0.1389741 0.02574,0.098439 0.09478,0.138974 0.236699,0.138974 0.154032,0 0.200357,-0.032132 0.200357,-0.138974 0,-0.2029671 0.482686,-0.2029671 0.535762,0 0.05278,0.2018277 0.506544,0.2018277 0.506544,0 0,-0.108091 0.04632,-0.1389741 0.20846,-0.1389741 0.162137,0 0.208462,0.030883 0.208462,0.1389741 0,0.1158118 0.04632,0.138974 0.277948,0.138974 0.231623,0 0.277948,-0.023162 0.277948,-0.138974 0,-0.1090255 0.04632,-0.1389741 0.214967,-0.1389741 0.156527,0 0.224846,0.03778 0.251309,0.1389741 0.02574,0.098439 0.09478,0.138974 0.236699,0.138974 0.154032,0 0.200357,-0.032132 0.200357,-0.138974 0,-0.1158118 0.04632,-0.1389741 0.277948,-0.1389741 0.231623,0 0.277948,0.023162 0.277948,0.1389741 0,0.1125028 0.04632,0.138974 0.243205,0.138974 0.196879,0 0.243204,-0.026471 0.243204,-0.138974 0,-0.1999859 0.413978,-0.1999859 0.466276,0 0.05188,0.1984006 0.437056,0.1984006 0.437056,0 0,-0.2029671 0.482685,-0.2029671 0.535762,0 0.05278,0.2018277 0.506543,0.2018277 0.506543,0 0,-0.108091 0.04632,-0.1389741 0.208462,-0.1389741 0.162136,0 0.208461,0.030883 0.208461,0.1389741 0,0.1158118 0.04632,0.138974 0.277948,0.138974 0.231623,0 0.277948,-0.023162 0.277948,-0.138974 0,-0.1290003 0.04613,-0.138932 0.642755,-0.1383865 l 0.642756,5.907e-4 0.521152,0.5184296 c 0.535017,0.5322208 0.650576,0.5993847 0.72,0.4184702 0.05206,-0.1356856 0.419899,-0.1356856 0.555584,0 0.05732,0.057327 0.184637,0.1042306 0.282912,0.1042306 0.105808,0 0.178681,0.039204 0.178681,0.096126 0,0.1404566 0.225589,0.1798102 1.036834,0.1808731 0.522647,6.88e-4 0.754667,0.028129 0.833844,0.098629 0.08542,0.076057 1.112648,0.319239 1.348513,0.319239 0.02568,0 0.0467,-0.1217316 0.0467,-0.2705138 0,-0.2986474 0.07156,-0.3548696 0.451666,-0.3548696 0.321851,0 0.451665,0.062051 0.451665,0.2158955 0,0.2543316 0.189979,0.1360453 0.235145,-0.1464084 l 0.04444,-0.2779482 h 0.346614 c 0.190638,0 0.346614,0.031269 0.346614,0.069487 0,0.04298 0.367141,0.069487 0.96245,0.069487 1.050587,0 1.400109,0.072006 1.400109,0.2884408 0,0.1313979 0.05091,0.135178 1.546087,0.1148048 1.489785,-0.0203 1.554334,-0.026948 1.772539,-0.1825857 0.364865,-0.2602419 0.810691,-1.3661981 0.736859,-1.8279179 -0.03831,-0.2395618 -0.16421,-0.3871814 -0.16421,-0.1925348 0,0.041996 -0.05004,0.1818155 -0.111207,0.3107091 L 59.573158,6.0762428 59.323299,5.9718448 C 59.185876,5.914426 58.977948,5.7946778 58.861238,5.7057377 58.744527,5.6167976 58.492691,5.4651886 58.301602,5.3688286 57.941675,5.1873299 57.851596,5.1580678 56.192992,4.6838474 55.228645,4.4081256 54.586408,4.1704675 54.514557,4.0627464 54.49545,4.0340979 54.112523,3.8655186 53.66361,3.6881263 52.877699,3.377566 52.094395,3.1497911 51.475811,3.0519422 51.062798,2.9866109 51.022451,2.9116804 51.145633,2.4387543 51.279237,1.9258092 51.69667,0.9162248 51.787699,0.88588212 c 0.03862,-0.0128737 0.11528,0.0216534 0.170355,0.0767281 0.09206,0.0920634 0.96808,0.52737078 1.373743,0.68263558 0.09473,0.036257 0.626307,0.1888727 1.181281,0.3391449 1.496706,0.4052686 1.808143,0.4998328 1.808143,0.5490206 0,0.02449 0.117259,0.086109 0.260576,0.1369331 0.143317,0.050823 0.620172,0.2425659 1.059678,0.4260938 0.470565,0.1964974 1.056216,0.3810754 1.424484,0.4489502 0.343961,0.063395 0.78479,0.1475751 0.979619,0.1870675 l 0.354237,0.071804 -0.05934,0.3176662 c -0.03264,0.1747163 -0.08621,0.3350265 -0.119038,0.3562447 -0.03283,0.021218 -0.08216,0.1105714 -0.109637,0.1985627 -0.03776,0.1209618 -0.0064,0.2035608 0.128711,0.3386412 0.183029,0.183029 0.318651,0.5475129 0.318651,0.856372 0,0.4814643 -0.510404,1.6283939 -0.853596,1.9181148 -0.487489,0.4115363 -0.641128,0.4412539 -2.289918,0.4429188 -1.45795,0.00147 -1.511343,0.00637 -1.511343,0.1387156 0,0.198045 -0.344431,0.3492196 -0.79565,0.3492196 -0.328088,0 -0.38563,0.019073 -0.38563,0.12782 0,0.160365 0.220669,0.2622956 0.798236,0.3687161 0.430677,0.079355 0.452531,0.09287 0.452531,0.2798325 0,0.17888 0.02216,0.1964503 0.247773,0.1964503 0.136275,0 0.308831,0.032673 0.383457,0.072618 0.08992,0.04812 2.00441,0.081219 5.675998,0.098122 3.390889,0.015614 6.564726,0.06762 8.180821,0.1340495 1.452279,0.059696 3.242439,0.1093521 3.978134,0.1103391 l 1.337625,0.0018 V 9.800516 c 0,-0.3168003 0.185252,-0.5933471 0.397459,-0.5933471 0.05132,0 0.111311,-0.046908 0.133311,-0.1042303 0.02488,-0.06485 0.130802,-0.1042305 0.280331,-0.1042305 0.365168,0 0.509153,-0.1061498 0.509153,-0.3753573 0,-0.2368313 0.234963,-0.8966861 0.385944,-1.0838707 0.181536,-0.2250545 0.4479,-1.1721206 0.4479,-1.5925021 0,-0.4414911 0.142803,-0.7005703 0.386153,-0.7005703 0.25105,0 0.734618,0.1650943 0.789089,0.2693989 0.03239,0.062029 0.07278,0.8909137 0.08975,1.8419664 0.02704,1.5147945 0.0453,1.7397421 0.147291,1.8143238 0.07645,0.05591 0.116433,0.1839001 0.116433,0.3727961 0,0.2632811 0.01527,0.2876593 0.180221,0.2876593 0.117552,0 0.192028,0.045144 0.214174,0.1298176 0.03266,0.1249162 0.262612,0.1321302 6.090988,0.1910892 4.823394,0.0488 6.068351,0.04358 6.112601,-0.02558 0.09368,-0.1464526 0.473047,-0.108059 0.514939,0.05212 0.04672,0.178804 0.161694,0.178804 0.20846,0 0.05333,-0.2040255 0.437055,-0.1974984 0.437055,0.0074 0,0.104957 0.03109,0.134467 0.109913,0.104231 0.06043,-0.02319 0.122987,-0.04218 0.138976,-0.04218 0.01596,0 0.02909,-0.04691 0.02909,-0.104231 0,-0.08934 0.208459,-0.104231 1.459226,-0.104231 h 1.459235 l -8.36e-4,0.955447 c -6.94e-4,0.525496 -0.0295,1.000395 -0.06428,1.055332 -0.04865,0.0769 -0.295204,0.106864 -1.071177,0.13021 -0.554383,0.01667 -1.179202,0.0089 -1.388481,-0.01722 -0.330175,-0.04126 -0.386294,-0.07062 -0.424292,-0.222005 -0.05157,-0.205329 -0.2027,-0.184745 -0.234588,0.03194 -0.03318,0.225475 -0.343031,0.207842 -0.40093,-0.02282 -0.05567,-0.221801 -0.152658,-0.221801 -0.236987,0 -0.05032,0.132454 -0.115973,0.173718 -0.27623,0.173718 -0.115605,0 -0.210156,-0.02345 -0.210114,-0.05211 3.3e-5,-0.02866 -0.711338,-0.04263 -1.580826,-0.03104 -0.869504,0.01159 -3.707206,0.04286 -6.306023,0.06948 l -4.725118,0.04841 -0.02018,0.573269 c -0.01686,0.47867 -0.0025,0.573267 0.08686,0.573267 0.06834,0 0.107038,-0.0639 0.107038,-0.176761 0,-0.174981 0.0051,-0.176556 0.503781,-0.156346 l 0.503781,0.02042 0.01915,1.097502 0.01915,1.097501 -0.50556,-0.02045 c -0.494067,-0.01999 -0.506061,-0.0248 -0.527546,-0.211542 -0.01259,-0.109373 -0.06459,-0.191089 -0.121602,-0.191089 -0.07628,0 -0.09962,0.10581 -0.09962,0.451666 v 0.451665 h -0.660127 -0.660127 v -0.213063 c 0,-0.191452 -0.01939,-0.210845 -0.191089,-0.191089 -0.150092,0.01727 -0.195808,0.06299 -0.213075,0.213076 -0.0203,0.176422 -0.04564,0.191089 -0.330064,0.191089 -0.305764,0 -0.308077,-0.0018 -0.308077,-0.243204 0,-0.237414 -0.0066,-0.243205 -0.277949,-0.243205 -0.152871,0 -0.277948,0.03127 -0.277948,0.06948 0,0.0398 -0.210608,0.06948 -0.492844,0.06948 h -0.49285 l 0.02381,1.274362 0.0238,1.274361 -0.243204,0.238008 c -0.133763,0.130904 -0.292694,0.313863 -0.353175,0.406577 -0.102744,0.157496 -0.124507,0.162547 -0.331293,0.07689 -0.33244,-0.137703 -0.769778,-0.130674 -0.875621,0.01408 -0.109588,0.149876 -0.524522,0.166523 -0.524522,0.02105 0,-0.05475 -0.05472,-0.115063 -0.121603,-0.134026 -0.06688,-0.01897 -1.356735,-0.05324 -2.866341,-0.07615 -1.509606,-0.02292 -2.924536,-0.05949 -3.144288,-0.08126 -0.389555,-0.03859 -0.39955,-0.03527 -0.39955,0.132589 0,0.119298 -0.09428,0.249428 -0.307016,0.423745 L 66.130475,19.14383 H 63.69275 c -2.391398,0 -2.437723,-0.0027 -2.437723,-0.138974 0,-0.111668 -0.04632,-0.138974 -0.23577,-0.138974 -0.145473,0 -0.251089,0.03992 -0.275768,0.10423 -0.022,0.05733 -0.115806,0.104231 -0.208461,0.104231 -0.09266,0 -0.186462,-0.0469 -0.208461,-0.104231 -0.0252,-0.06566 -0.131605,-0.10423 -0.287563,-0.10423 -0.155958,0 -0.262367,0.03857 -0.287564,0.10423 -0.022,0.05733 -0.111479,0.104231 -0.198845,0.104231 -0.08737,0 -0.176848,-0.0469 -0.198847,-0.104231 -0.0251,-0.06542 -0.131363,-0.10423 -0.285383,-0.10423 -0.171795,0 -0.245384,0.03126 -0.245384,0.10423 0,0.07279 -0.07335,0.104231 -0.243205,0.104231 -0.169857,0 -0.243205,-0.03144 -0.243205,-0.104231 0,-0.07217 -0.07252,-0.10423 -0.23577,-0.10423 -0.145473,0 -0.251089,0.03992 -0.275767,0.10423 -0.022,0.05733 -0.115807,0.104231 -0.208462,0.104231 -0.09266,0 -0.186462,-0.0469 -0.208461,-0.104231 -0.02519,-0.06566 -0.131605,-0.10423 -0.287564,-0.10423 -0.155957,0 -0.262365,0.03857 -0.287562,0.10423 -0.022,0.05733 -0.115807,0.104231 -0.208461,0.104231 -0.09266,0 -0.186463,-0.0469 -0.208462,-0.104231 -0.02468,-0.06431 -0.130295,-0.10423 -0.275768,-0.10423 -0.163248,0 -0.23577,0.03206 -0.23577,0.10423 0,0.07279 -0.07335,0.104231 -0.243204,0.104231 -0.169857,0 -0.243205,-0.03144 -0.243205,-0.104231 0,-0.07297 -0.07359,-0.10423 -0.245385,-0.10423 -0.154019,0 -0.260278,0.03881 -0.285383,0.10423 -0.022,0.05733 -0.111479,0.104231 -0.198846,0.104231 -0.08737,0 -0.176847,-0.0469 -0.198846,-0.104231 -0.0264,-0.0688 -0.135223,-0.10423 -0.320126,-0.10423 -0.202679,0 -0.280129,0.02882 -0.280129,0.10423 0,0.06948 -0.06948,0.104231 -0.208461,0.104231 -0.138974,0 -0.208461,-0.03475 -0.208461,-0.104231 0,-0.07217 -0.07252,-0.10423 -0.23577,-0.10423 -0.145473,0 -0.251089,0.03992 -0.275768,0.10423 -0.03084,0.08038 -0.164562,0.104231 -0.584177,0.104231 -0.306931,0 -0.577893,-0.03371 -0.621509,-0.07733 -0.143566,-0.143564 -0.228413,0.0139 -0.228413,0.423903 0,0.507618 -0.100963,0.626246 -0.532987,0.626246 -0.305322,0 -0.787267,-0.169842 -0.787267,-0.277442 0,-0.08975 -0.695198,-0.787698 -0.739982,-0.742914 -0.130541,0.130541 -0.157583,1.143696 -0.160323,6.006995 -0.0017,2.952848 -0.03047,5.423113 -0.06403,5.489476 -0.03355,0.06637 -0.110545,0.236505 -0.171096,0.378096 -0.06233,0.145745 -0.198507,0.303157 -0.313881,0.362819 -0.230062,0.11897 -0.660445,0.182352 -0.898714,0.132353 z M 40.231098,20.653933 c 0.417253,-0.236338 0.531891,-0.493386 0.575853,-1.291207 0.05089,-0.923467 -0.0128,-1.303409 -0.259896,-1.550505 L 40.349891,17.615057 H 39.13094 37.91199 l -0.239605,0.210375 c -0.131782,0.115707 -0.311286,0.342408 -0.398896,0.503781 -0.218838,0.403084 -0.223899,1.129815 -0.01112,1.596288 0.232819,0.510401 -0.0079,0.384758 -0.29964,-0.156346 -0.0721,-0.133763 -0.17834,-0.301249 -0.236089,-0.372193 -0.135225,-0.166121 -0.149566,-1.303802 -0.01699,-1.347994 0.04714,-0.01571 0.08571,-0.07385 0.08571,-0.129191 0,-0.318818 -0.64021,-0.04749 -0.933432,0.395598 -0.388167,0.586561 -0.571527,1.654796 -0.355685,2.072188 0.203479,0.393485 0.365292,0.42069 2.50514,0.421173 1.885901,4.17e-4 1.954053,-0.0043 2.219715,-0.154803 z m 9.152083,-4.108768 c 0.03259,-0.883714 0.08845,-0.945232 0.858324,-0.945232 0.313225,0 0.66957,0.03489 0.791878,0.07752 0.25063,0.08737 0.307824,0.06341 0.244229,-0.102319 -0.03892,-0.101424 -0.226016,-0.114176 -1.675116,-0.114176 -1.273806,0 -1.625102,0.01903 -1.603008,0.08686 0.01556,0.04777 0.110592,0.126989 0.21118,0.176037 0.188816,0.09207 0.194218,0.293 0.0079,0.293 -0.05324,0 -0.0968,0.05844 -0.0968,0.129882 0,0.09466 0.06613,0.140614 0.243865,0.169457 0.354483,0.05752 0.621161,0.277378 0.727579,0.599826 0.160334,0.485815 0.26325,0.3542 0.289988,-0.370855 z m 23.988055,0.288163 c 0.02305,-0.08599 0.04233,-0.313095 0.04284,-0.504676 8.33e-4,-0.294097 0.02529,-0.359009 0.157298,-0.416922 0.08599,-0.03773 0.166338,-0.138948 0.178554,-0.224938 0.01941,-0.136679 -0.0085,-0.156346 -0.221894,-0.156346 -0.301253,0 -0.460442,0.197534 -0.460442,0.571358 v 0.262486 h -0.595205 c -0.327367,0 -0.655367,-0.0322 -0.728897,-0.07155 -0.16884,-0.09036 -0.343586,-0.423298 -0.343586,-0.654617 0,-0.142654 -0.03384,-0.177168 -0.173718,-0.177168 h -0.173718 v 0.725982 0.725983 l 0.364807,0.02552 c 0.200644,0.01403 0.712937,0.0313 1.138434,0.03837 0.748605,0.01244 0.774976,0.0078 0.815521,-0.143492 z m -4.055938,0.01737 c 0,-0.03821 -0.04691,-0.06948 -0.104231,-0.06948 -0.05732,0 -0.10423,0.03127 -0.10423,0.06948 0,0.03822 0.04691,0.06948 0.10423,0.06948 0.05733,0 0.104231,-0.03127 0.104231,-0.06948 z m -2.320381,-0.109914 c -0.0232,-0.06046 -0.04218,-0.154259 -0.04218,-0.208461 0,-0.0542 -0.04691,-0.09855 -0.10423,-0.09855 -0.06948,0 -0.104231,0.06948 -0.104231,0.208461 0,0.165665 0.03006,0.208461 0.146409,0.208461 0.104957,0 0.134467,-0.03112 0.10423,-0.109914 z m -15.398815,-0.65444 c 0,-0.03821 -0.03127,-0.06948 -0.06948,-0.06948 -0.03822,0 -0.06948,0.03127 -0.06948,0.06948 0,0.03822 0.03127,0.06948 0.06948,0.06948 0.03822,0 0.06948,-0.03127 0.06948,-0.06948 z m 20.429191,-0.03239 c 0,-0.08857 -0.241614,-0.52351 -0.290817,-0.52351 -0.08806,0 -0.06658,0.379161 0.02676,0.472511 0.08096,0.08096 0.26405,0.116321 0.26405,0.051 z m -5.072555,-0.384537 c 0,-0.0436 0.440085,-0.06948 1.181281,-0.06948 0.741194,0 1.181279,-0.02589 1.181279,-0.06948 0,-0.04382 -0.474828,-0.06948 -1.28551,-0.06948 -1.239185,0 -1.28551,0.005 -1.28551,0.138974 0,0.07721 0.04632,0.138973 0.10423,0.138973 0.05732,0 0.10423,-0.03127 0.10423,-0.06948 z m 9.837143,-2.7455 c 0.06664,-0.355249 -0.04512,-0.450904 -0.526852,-0.450904 -0.36341,0 -0.404733,-0.01535 -0.442076,-0.164124 -0.04997,-0.199086 -0.341737,-0.252794 -1.373314,-0.252794 h -0.68517 v 0.208461 0.208461 h 0.78833 c 0.700082,0 0.802409,0.01555 0.914102,0.138974 0.09068,0.100198 0.214861,0.139239 0.445065,0.139923 0.459921,0.0013 0.614654,0.05951 0.66217,0.248821 0.06071,0.241897 0.164851,0.20516 0.217745,-0.07681 z M 1.4959431,11.739301 c 0,-0.09329 -0.031269,-0.169617 -0.069487,-0.169617 -0.038218,0 -0.069487,0.09565 -0.069487,0.212563 0,0.124013 0.028947,0.194671 0.069487,0.169616 0.038218,-0.02362 0.069487,-0.119274 0.069487,-0.212562 z M 95.564034,11.157778 c 0.04773,-0.0028 0.08685,-0.03628 0.08685,-0.07451 0,-0.04169 -0.277943,-0.06948 -0.694871,-0.06948 -0.382174,0 -0.694872,0.02898 -0.694872,0.06439 0,0.03542 0.05216,0.0745 0.115924,0.08686 0.09457,0.01833 0.820758,0.01389 1.186966,-0.0073 z M 27.000556,10.301546 c 0.07116,-0.08599 0.150836,-0.294323 0.177068,-0.4629615 0.03921,-0.2520774 0.02508,-0.3231477 -0.07941,-0.3995506 -0.173177,-0.1266313 -0.656429,-0.1237042 -0.656429,0.00401 0,0.1995304 0.286379,1.0148811 0.356461,1.0148811 0.04011,0 0.131147,-0.07035 0.202303,-0.156346 z M 76.264002,9.6240474 c 0,-0.076438 0.03127,-0.1389743 0.06948,-0.1389743 0.03822,0 0.06948,-0.033442 0.06948,-0.074323 0,-0.040873 -0.07035,-0.064327 -0.156346,-0.052115 -0.190506,0.027056 -0.275864,0.4043835 -0.09147,0.4043835 0.06252,0 0.108844,-0.059144 0.108844,-0.1389743 z M 53.680713,8.8671241 c 0,-0.1497793 -0.129419,-0.2158956 -0.422605,-0.2158956 -0.259168,0 -0.266284,0.1565391 -0.01168,0.2571424 0.300034,0.118558 0.434294,0.1058072 0.434294,-0.041246 z m 24.667901,-1.64038 c 0,-0.1273929 -0.03705,-0.1737176 -0.138975,-0.1737176 -0.135575,0 -0.196328,0.1974331 -0.09265,0.3011105 0.105481,0.1054865 0.231621,0.036111 0.231621,-0.1273929 z M 31.554873,6.69274 C 31.780999,6.6474539 32.005098,6.5715145 32.052871,6.5239858 32.17857,6.3989275 32.159454,6.0362384 32.018125,5.8647869 31.768344,5.5617648 31.706879,5.5243116 31.459366,5.5243116 c -0.495915,0 -0.811695,0.6460171 -0.527671,1.0794939 0.130676,0.1994365 0.09607,0.1944975 0.623175,0.088934 z M 30.293359,6.040501 c 0.127803,-0.1278026 0.13201,-0.1691831 0.04143,-0.4074353 -0.120858,-0.3178809 -0.557617,-0.2176335 -0.557617,0.1279874 0,0.3632171 0.280543,0.515094 0.51619,0.2794479 z"
   id="path249" /></svg>
