<?xml version="1.0" encoding="UTF-8" standalone="no"?>
<svg
   xmlns:dc="http://purl.org/dc/elements/1.1/"
   xmlns:cc="http://creativecommons.org/ns#"
   xmlns:rdf="http://www.w3.org/1999/02/22-rdf-syntax-ns#"
   xmlns:svg="http://www.w3.org/2000/svg"
   xmlns="http://www.w3.org/2000/svg"
   xmlns:sodipodi="http://sodipodi.sourceforge.net/DTD/sodipodi-0.dtd"
   xmlns:inkscape="http://www.inkscape.org/namespaces/inkscape"
   version="1.1"
   x="0px"
   y="0px"
   width="90.25px"
   height="32px"
   viewBox="0 0 90.25 32"
   enable-background="new 0 0 90.25 32"
   xml:space="preserve"
   id="svg32"
   sodipodi:docname="cr56amax.svg"
   inkscape:version="1.0.2-2 (e86c870879, 2021-01-15)"><metadata
   id="metadata38"><rdf:RDF><cc:Work
       rdf:about=""><dc:format>image/svg+xml</dc:format><dc:type
         rdf:resource="http://purl.org/dc/dcmitype/StillImage" /></cc:Work></rdf:RDF></metadata><defs
   id="defs36" /><sodipodi:namedview
   pagecolor="#ffffff"
   bordercolor="#666666"
   borderopacity="1"
   objecttolerance="10"
   gridtolerance="10"
   guidetolerance="10"
   inkscape:pageopacity="0"
   inkscape:pageshadow="2"
   inkscape:window-width="1842"
   inkscape:window-height="1051"
   id="namedview34"
   showgrid="false"
   inkscape:zoom="9.6526931"
   inkscape:cx="64.976595"
   inkscape:cy="7.6560139"
   inkscape:window-x="-9"
   inkscape:window-y="-9"
   inkscape:window-maximized="1"
   inkscape:current-layer="svg32" />

<g
   id="guides">
</g>
<path
   style="fill:#ffffff;stroke-width:0.103598"
   d="m 50.24338,30.425665 c -0.215654,-0.182992 -0.998541,-0.942731 -1.739749,-1.688311 -1.273088,-1.280597 -2.06088,-2.216061 -2.996668,-3.558393 -0.224177,-0.321567 -0.445618,-0.600209 -0.492091,-0.619201 -0.04647,-0.01899 -0.0845,-0.120002 -0.0845,-0.224463 0,-0.104461 -0.04378,-0.205469 -0.09729,-0.224463 -0.108776,-0.03861 -1.130097,-1.816346 -1.34411,-2.339588 -0.07574,-0.185182 -0.178675,-0.336694 -0.228741,-0.336694 -0.05007,0 -0.09103,-0.05244 -0.09103,-0.116543 0,-0.102429 -0.120952,-0.404753 -0.678695,-1.696422 -0.483162,-1.118946 -1.028177,-2.875613 -1.356798,-4.373168 l -0.186705,-0.850835 -0.235675,0.221406 c -0.129621,0.121773 -0.235676,0.28179 -0.235676,0.355593 0,0.228677 -0.413421,0.905505 -0.705801,1.155493 -0.153109,0.13091 -0.429892,0.303353 -0.615074,0.383206 -0.185181,0.07985 -0.33727,0.205841 -0.337976,0.279972 -0.0017,0.182477 -0.705019,0.627218 -0.973867,0.615852 -0.76371,-0.03229 -1.530948,0.02214 -2.799607,0.19861 -0.794379,0.110498 -1.596483,0.200905 -1.782454,0.200905 -0.367951,0 -0.865867,-0.188284 -0.865867,-0.327424 0,-0.04783 -0.09049,-0.08697 -0.201082,-0.08697 -0.110595,0 -0.229894,-0.04662 -0.265109,-0.103598 -0.09208,-0.148996 -0.603608,-0.127513 -0.924208,0.03882 -0.16397,0.08507 -0.379295,0.366647 -0.534749,0.699287 -0.143134,0.30628 -0.370537,0.789968 -0.505337,1.074862 -0.721365,1.524565 -1.091848,2.332486 -1.091848,2.381021 0,0.02988 -0.204883,0.485374 -0.455296,1.012212 -0.724977,1.525263 -0.797392,1.730719 -0.684415,1.941817 0.07382,0.137939 0.0527,0.24596 -0.07907,0.40445 -0.154153,0.185406 -0.211031,0.197859 -0.398841,0.08732 -0.120476,-0.07091 -0.400191,-0.234308 -0.621588,-0.363107 -0.585549,-0.340647 -0.790492,-0.474764 -0.95187,-0.622919 -0.07903,-0.07255 -0.290784,-0.207259 -0.470567,-0.299349 -0.179783,-0.09209 -0.350188,-0.198976 -0.378677,-0.237522 -0.02849,-0.03855 -0.318874,-0.221376 -0.645299,-0.406287 -0.326425,-0.184912 -0.620957,-0.380632 -0.654517,-0.434932 -0.03356,-0.0543 -0.244331,-0.192247 -0.46838,-0.306548 -0.457072,-0.233182 -0.521602,-0.482506 -0.200167,-0.7734 0.113958,-0.103131 0.207196,-0.269638 0.207196,-0.370016 0,-0.100379 0.03687,-0.198046 0.08193,-0.21704 0.09273,-0.03908 0.746851,-0.995345 0.746851,-1.091827 0,-0.0345 0.116548,-0.215528 0.258996,-0.402286 0.142447,-0.186759 0.258995,-0.362684 0.258995,-0.390945 0,-0.02826 0.186476,-0.332131 0.414392,-0.675266 0.227915,-0.343133 0.414392,-0.646507 0.414392,-0.674165 0,-0.02766 0.198131,-0.347318 0.440291,-0.71036 0.68066,-1.020431 0.689097,-1.034477 0.90779,-1.51127 0.236321,-0.515227 0.256623,-0.928719 0.07482,-1.523842 -0.201924,-0.660982 -0.470639,-0.912713 -1.243779,-1.165166 -0.385804,-0.125975 -0.796863,-0.229047 -0.913464,-0.229047 -0.164857,0 -0.197377,-0.04608 -0.14624,-0.207196 0.05745,-0.180995 0.01862,-0.207196 -0.307065,-0.207196 -0.235833,0 -0.394736,0.0571 -0.432456,0.155397 -0.0328,0.08547 -0.147883,0.155397 -0.255745,0.155397 -0.146942,0 -0.196112,-0.07468 -0.196112,-0.297844 0,-0.163814 -0.02914,-0.443529 -0.06475,-0.621588 l -0.06475,-0.323744 h -1.47207 -1.472084 l -0.110793,1.141597 c -0.163935,1.689165 -0.491485,2.204945 -1.840046,2.897448 -0.227916,0.117037 -0.577559,0.311311 -0.776985,0.431719 -0.199427,0.120408 -0.665618,0.38153 -1.035981,0.580272 -0.370363,0.198741 -0.743316,0.420946 -0.828784,0.493785 -0.08547,0.07284 -0.318564,0.206711 -0.51799,0.297489 -0.199426,0.09078 -0.54907,0.28193 -0.776985,0.42478 -0.227916,0.142851 -0.55425,0.328007 -0.725187,0.411459 -0.170936,0.08345 -0.49727,0.268618 -0.725186,0.411483 -0.227916,0.142863 -0.577559,0.346479 -0.776985,0.45248 -0.199426,0.105999 -0.595689,0.324736 -0.880583,0.486082 -0.284895,0.161345 -0.681157,0.385525 -0.880584,0.498176 -0.199426,0.112651 -0.5024502,0.290481 -0.6733869,0.395178 -0.1709368,0.104697 -0.511463,0.290895 -0.7567249,0.413774 -0.3950368,0.197918 -0.4778023,0.207441 -0.7251862,0.08344 -0.1535905,-0.07699 -0.36706,-0.165716 -0.4743766,-0.197176 -0.1572322,-0.04609 -0.091442,-0.12165 0.3388071,-0.389108 0.6494362,-0.403711 0.7527029,-0.612196 0.4319021,-0.871965 -0.2031186,-0.164475 -0.4294587,-0.19106 -1.6266902,-0.19106 -1.6611055,0 -1.9014417,0.09239 -1.9014417,0.730987 0,0.218 0.051376,0.428116 0.1141685,0.466924 0.062793,0.03881 0.1795005,0.226921 0.2593506,0.418029 0.07985,0.191108 0.2846364,0.419584 0.4550805,0.507725 0.2867728,0.148295 0.3400554,0.144869 0.7140223,-0.04591 0.2222682,-0.113393 0.4811363,-0.283181 0.5752626,-0.377308 0.1930655,-0.193065 0.3540763,-0.119792 0.1848446,0.08412 -0.060253,0.0726 -0.1100998,0.168981 -0.1107703,0.214179 -6.734e-4,0.0452 -0.092113,0.23623 -0.2032053,0.424519 l -0.2019864,0.342341 -2.1502022,0.07465 c -1.4078438,0.04887 -2.1862845,0.03856 -2.2547129,-0.02987 -0.057481,-0.05748 -0.1096158,-0.524551 -0.1158553,-1.037934 -0.00723,-0.594692 -0.058338,-0.980396 -0.1408421,-1.062864 -0.176934,-0.176857 -0.1629967,-0.467372 0.025899,-0.539859 0.2156763,-0.08276 0.1940753,-0.338249 -0.049164,-0.581488 -0.2857959,-0.285796 -0.3885938,-0.727822 -0.169263,-0.727822 0.2192945,0 0.2189706,-0.400809 -3.937e-4,-0.484987 -0.1382161,-0.05304 -0.1554393,-0.166449 -0.09987,-0.657621 0.054399,-0.480822 0.036933,-0.605125 -0.091975,-0.654592 -0.1768418,-0.06786 -0.2177237,-0.53711 -0.055526,-0.637354 0.056979,-0.03521 0.103598,-0.195695 0.103598,-0.356625 0,-0.20547 -0.061697,-0.30873 -0.207196,-0.346779 -0.2436166,-0.06371 -0.2804841,-0.437682 -0.051799,-0.525437 0.1941817,-0.07451 0.201937,-0.419187 0.013668,-0.607456 C 1.1790892,13.335789 1.0808621,12.968768 1.2077922,12.89032 1.3715489,12.789113 1.3365491,12.319461 1.1602072,12.251792 0.98797214,12.185702 0.94136774,11.59274 1.1084082,11.59274 c 0.2031934,0 0.110163,-0.492108 -0.1035981,-0.548007 C 0.75123313,10.978423 0.71069681,10.405085 0.95301154,10.3121 1.158216,10.23336 1.1490265,10.117305 0.91634204,9.8490178 0.68483555,9.5820888 0.53245194,8.3168795 0.7065443,8.1071115 c 0.0900588,-0.108515 1.9478284,-0.135367 9.5943847,-0.138679 5.583421,-0.0024 9.53028,0.03485 9.598411,0.09062 0.157532,0.128971 0.327861,0.140631 1.85354,0.126878 1.309685,-0.01181 1.324458,-0.01461 1.421381,-0.269536 0.08603,-0.226268 0.130646,-0.245172 0.366773,-0.155397 0.397377,0.151082 0.846024,0.124986 0.914396,-0.05319 0.0328,-0.08547 0.154332,-0.155397 0.270079,-0.155397 0.115746,0 0.210447,-0.04329 0.210447,-0.0962 0,-0.05291 0.0588,-0.157803 0.130657,-0.233096 0.07186,-0.07529 0.363231,-0.416163 0.647487,-0.757487 0.284258,-0.341324 0.645873,-0.760896 0.80359,-0.932382 0.157717,-0.171486 0.363044,-0.482588 0.45628,-0.691337 0.09324,-0.208749 0.278875,-0.438067 0.412529,-0.509596 0.133653,-0.07153 0.243006,-0.168795 0.243006,-0.216145 0,-0.04735 0.09324,-0.08609 0.207196,-0.08609 0.113957,0 0.207196,-0.0618 0.207196,-0.137339 0,-0.303683 0.466458,-0.587848 0.964958,-0.587848 h 0.485414 v -0.462546 c 0,-0.351278 0.0482,-0.488344 0.200386,-0.569789 0.333428,-0.178446 0.517078,-0.123045 0.588911,0.177651 0.08708,0.364551 0.230479,0.542857 0.52732,0.655716 0.139543,0.05305 0.237354,0.176682 0.237354,0.300002 0,0.170299 0.0676,0.20976 0.359342,0.20976 0.276852,0 0.345653,-0.03567 0.29971,-0.155397 -0.04361,-0.113641 0.01294,-0.155397 0.210447,-0.155397 0.171005,0 0.270079,0.05701 0.270079,0.155397 0,0.103598 0.103598,0.155397 0.310794,0.155397 0.207196,0 0.310794,-0.0518 0.310794,-0.155397 0,-0.09669 0.09784,-0.155397 0.258995,-0.155397 0.161153,0 0.258995,0.05871 0.258995,0.155397 0,0.103598 0.103598,0.155397 0.310794,0.155397 0.207196,0 0.310794,-0.0518 0.310794,-0.155397 0,-0.09669 0.09784,-0.155397 0.258996,-0.155397 0.161152,0 0.258995,0.05871 0.258995,0.155397 0,0.103598 0.103598,0.155397 0.310794,0.155397 0.207196,0 0.310794,-0.0518 0.310794,-0.155397 0,-0.08633 0.09209,-0.155397 0.207196,-0.155397 0.115109,0 0.207196,0.06906 0.207196,0.155397 0,0.108531 0.109354,0.155397 0.362593,0.155397 0.253239,0 0.362593,-0.04687 0.362593,-0.155397 0,-0.09669 0.09784,-0.155397 0.258995,-0.155397 0.161153,0 0.258995,0.05871 0.258995,0.155397 0,0.09669 0.09784,0.155397 0.258995,0.155397 0.161153,0 0.258995,-0.05871 0.258995,-0.155397 0,-0.09669 0.09784,-0.155397 0.258996,-0.155397 0.161152,0 0.258995,0.05871 0.258995,0.155397 0,0.108531 0.109354,0.155397 0.362593,0.155397 0.253239,0 0.362593,-0.04687 0.362593,-0.155397 0,-0.08633 0.09209,-0.155397 0.207196,-0.155397 0.115109,0 0.207196,0.06906 0.207196,0.155397 0,0.103598 0.103598,0.155397 0.310794,0.155397 0.207196,0 0.310794,-0.0518 0.310794,-0.155397 0,-0.09669 0.09784,-0.155397 0.258995,-0.155397 0.161153,0 0.258995,0.05871 0.258995,0.155397 0,0.108264 0.108993,0.155397 0.359342,0.155397 0.276853,0 0.345653,-0.03567 0.299711,-0.155397 -0.04361,-0.113641 0.01294,-0.155397 0.210447,-0.155397 0.171005,0 0.270079,0.05701 0.270079,0.155397 0,0.103598 0.103598,0.155397 0.310794,0.155397 0.207196,0 0.310794,-0.0518 0.310794,-0.155397 0,-0.09669 0.09784,-0.155397 0.258995,-0.155397 0.161153,0 0.258995,0.05871 0.258995,0.155397 0,0.103598 0.103598,0.155397 0.310794,0.155397 0.207196,0 0.310794,-0.0518 0.310794,-0.155397 0,-0.09669 0.09784,-0.155397 0.258995,-0.155397 0.161153,0 0.258995,0.05871 0.258995,0.155397 0,0.103598 0.103598,0.155397 0.310794,0.155397 0.207196,0 0.310794,-0.0518 0.310794,-0.155397 0,-0.08633 0.09209,-0.155397 0.207197,-0.155397 0.115108,0 0.207196,0.06906 0.207196,0.155397 0,0.108531 0.109354,0.155397 0.362593,0.155397 0.253239,0 0.362593,-0.04687 0.362593,-0.155397 0,-0.09669 0.09784,-0.155397 0.258995,-0.155397 0.161153,0 0.258995,0.05871 0.258995,0.155397 0,0.09669 0.09784,0.155397 0.258995,0.155397 0.161153,0 0.258995,-0.05871 0.258995,-0.155397 0,-0.09669 0.09784,-0.155397 0.258995,-0.155397 0.161153,0 0.258995,0.05871 0.258995,0.155397 0,0.108531 0.109354,0.155397 0.362593,0.155397 0.25324,0 0.362593,-0.04687 0.362593,-0.155397 0,-0.09669 0.09784,-0.155397 0.258996,-0.155397 0.161153,0 0.258995,0.05871 0.258995,0.155397 0,0.09669 0.09784,0.155397 0.258995,0.155397 0.161153,0 0.258995,-0.05871 0.258995,-0.155397 0,-0.09569 0.09716,-0.155397 0.252881,-0.155397 0.139084,0 0.281693,-0.04662 0.316908,-0.103598 0.08337,-0.134887 0.569789,-0.134887 0.569789,0 0,0.05698 0.116548,0.103598 0.258995,0.103598 0.142447,0 0.258995,-0.04662 0.258995,-0.103598 0,-0.05698 0.116548,-0.103598 0.258995,-0.103598 0.142448,0 0.258995,0.04662 0.258995,0.103598 0,0.05698 0.139858,0.103598 0.310795,0.103598 0.170936,0 0.310794,-0.04662 0.310794,-0.103598 0,-0.05698 0.139857,-0.103598 0.310794,-0.103598 0.170936,0 0.310794,0.04662 0.310794,0.103598 0,0.05698 0.116548,0.103598 0.258995,0.103598 0.142447,0 0.258995,-0.04662 0.258995,-0.103598 0,-0.05698 0.116548,-0.103598 0.258995,-0.103598 0.142447,0 0.258995,0.04662 0.258995,0.103598 0,0.05698 0.139857,0.103598 0.310794,0.103598 0.170937,0 0.310794,-0.04662 0.310794,-0.103598 0,-0.144487 0.375801,-0.129454 0.622994,0.02492 0.163796,0.102292 0.247785,0.102292 0.411581,0 0.247193,-0.154374 0.622994,-0.169407 0.622994,-0.02492 0,0.05698 0.139857,0.103598 0.310794,0.103598 0.170937,0 0.310794,-0.04662 0.310794,-0.103598 0,-0.05698 0.116548,-0.103598 0.258995,-0.103598 0.142447,0 0.258995,0.04662 0.258995,0.103598 0,0.05698 0.116548,0.103598 0.258995,0.103598 0.142447,0 0.258995,-0.04662 0.258995,-0.103598 0,-0.134887 0.486424,-0.134887 0.569789,0 0.08302,0.134321 0.538573,0.134321 0.621589,0 0.03521,-0.05698 0.177824,-0.103598 0.316908,-0.103598 0.139085,0 0.252881,0.04662 0.252881,0.103598 0,0.05698 0.116548,0.103598 0.258995,0.103598 0.142447,0 0.258995,-0.04662 0.258995,-0.103598 0,-0.134887 0.486424,-0.134887 0.569789,0 0.08337,0.134888 0.569789,0.134888 0.569789,0 0,-0.05698 0.139858,-0.103598 0.310794,-0.103598 0.170937,0 0.310794,0.04662 0.310794,0.103598 0,0.05698 0.116548,0.103598 0.258996,0.103598 0.142447,0 0.258995,-0.04662 0.258995,-0.103598 0,-0.05698 0.116547,-0.103598 0.258995,-0.103598 0.142447,0 0.258995,0.04662 0.258995,0.103598 0,0.05698 0.139857,0.103598 0.310794,0.103598 0.170937,0 0.310794,-0.04662 0.310794,-0.103598 0,-0.05698 0.116548,-0.103598 0.258995,-0.103598 0.142447,0 0.258995,0.04662 0.258995,0.103598 0,0.05698 0.113796,0.103598 0.252881,0.103598 0.139084,0 0.281693,-0.04662 0.316908,-0.103598 0.03522,-0.05698 0.177824,-0.103598 0.316909,-0.103598 0.139084,0 0.25288,0.04662 0.25288,0.103598 0,0.05698 0.139858,0.103598 0.310795,0.103598 0.170936,0 0.310794,-0.04662 0.310794,-0.103598 0,-0.05698 0.116547,-0.103598 0.258995,-0.103598 0.142447,0 0.258995,0.04662 0.258995,0.103598 0,0.05698 0.116548,0.103598 0.258995,0.103598 0.142447,0 0.258995,-0.04662 0.258995,-0.103598 0,-0.134887 0.486424,-0.134887 0.569789,0 0.03521,0.05698 0.175073,0.103598 0.310794,0.103598 0.135722,0 0.275579,-0.04662 0.310794,-0.103598 0.08328,-0.134744 0.466191,-0.134744 0.466191,0 0,0.05698 0.139858,0.103598 0.310795,0.103598 0.170936,0 0.310794,-0.04662 0.310794,-0.103598 0,-0.134887 0.486423,-0.134887 0.569789,0 0.03704,0.05994 0.598623,0.103598 1.332566,0.103598 h 1.268539 l 0.331116,0.341626 c 0.182114,0.187894 0.331117,0.420989 0.331117,0.51799 0,0.203801 0.283619,0.231506 0.651946,0.06369 0.174576,-0.07954 0.313109,-0.304423 0.471066,-0.764685 0.123069,-0.358604 0.223762,-0.743823 0.223762,-0.856043 0,-0.828106 0.723716,-1.297609 1.471398,-0.954553 0.20024,0.09188 0.286909,0.313612 0.546649,1.398573 0.169774,0.709163 0.337681,1.289387 0.373127,1.289387 0.110436,0 0.716767,0.61763 0.716767,0.730123 0,0.0587 -0.102028,0.01168 -0.22673,-0.104499 -0.124702,-0.116178 -0.311179,-0.211232 -0.414393,-0.211232 -0.161903,0 -0.187661,0.09243 -0.187661,0.673387 0,0.583042 -0.02539,0.673387 -0.189254,0.673387 -0.150014,0 -0.180088,0.06245 -0.145046,0.301205 0.03356,0.228671 -0.0019,0.313093 -0.14744,0.350575 -0.160611,0.04138 -0.154851,0.05132 0.03557,0.06139 0.124972,0.0066 0.298149,0.113283 0.38484,0.237051 0.152692,0.217998 0.235892,0.226533 2.66155,0.27303 2.241523,0.04297 2.51387,0.03024 2.598752,-0.121435 0.07919,-0.141501 0.290907,-0.169432 1.284299,-0.169432 0.855971,0 1.20344,-0.03631 1.239262,-0.129498 0.03772,-0.09812 0.749318,-0.138001 2.936975,-0.164595 l 2.887195,-0.0351 0.167715,0.239446 c 0.123338,0.17609 0.167714,0.477806 0.167714,1.140303 0,0.495472 -0.02379,0.962945 -0.05287,1.038829 -0.04263,0.111255 -0.619335,0.132911 -2.97844,0.111842 -1.609065,-0.01437 -3.018811,-0.07005 -3.132769,-0.123734 -0.113958,-0.05368 -0.693474,-0.113841 -1.287813,-0.133683 -0.724172,-0.02418 -1.094371,-0.07734 -1.122312,-0.161161 -0.03111,-0.09334 -0.709966,-0.125083 -2.674811,-0.125083 -2.55561,0 -2.633117,0.006 -2.633117,0.205222 0,0.297101 -0.363338,0.364567 -1.963367,0.364567 h -1.393578 l -0.06147,-0.258995 c -0.0434,-0.182855 -0.128619,-0.25682 -0.28989,-0.251595 -0.125634,0.0041 -0.461521,0.01572 -0.746415,0.0259 l -0.517991,0.0185 v 1.2370625 c 0,1.205702 -0.11912,1.678938 -0.260539,1.03506 l -0.07021,-0.319636 -1.725291,0.07115 c -2.429655,0.100197 -14.512061,0.103844 -14.856343,0.0045 -0.226788,-0.06545 -0.284895,-0.04824 -0.284895,0.08441 0,0.09165 -0.04662,0.166628 -0.103598,0.166628 -0.05698,0 -0.103598,0.134149 -0.103598,0.298109 0,0.4269 -0.200914,0.541381 -1.133175,0.645681 -0.454125,0.05081 -1.11919,0.16329 -1.477922,0.24996 -0.358733,0.08667 -1.021758,0.202072 -1.473392,0.256448 -0.451632,0.05438 -0.865617,0.143332 -0.919964,0.197679 -0.174314,0.174314 0.269848,2.103908 0.777245,3.376627 0.11358,0.284895 0.242507,0.657848 0.286504,0.828785 0.044,0.170936 0.152004,0.450651 0.240016,0.621588 0.08801,0.170937 0.290343,0.590509 0.449628,0.932382 0.159284,0.341874 0.320314,0.644898 0.357844,0.673387 0.03753,0.02849 0.179391,0.256252 0.315249,0.506139 0.135856,0.249887 0.294583,0.529601 0.352726,0.621588 0.555405,0.878691 0.720841,1.111096 0.841743,1.182477 0.07718,0.04557 0.140322,0.146574 0.140322,0.224463 0,0.07789 0.03496,0.157155 0.0777,0.176149 0.04274,0.01899 0.211755,0.197699 0.3756,0.397125 0.761716,0.927128 1.630787,1.828646 2.316573,2.403067 0.66394,0.556122 0.742279,0.659031 0.684748,0.899515 -0.09896,0.413653 -0.307104,0.781882 -0.597985,1.057884 -0.144707,0.137306 -0.263909,0.306281 -0.264893,0.3755 -9.85e-4,0.06922 -0.09503,0.175752 -0.208986,0.23674 -0.113958,0.06099 -0.207197,0.179176 -0.207197,0.262639 0,0.08346 -0.03763,0.151753 -0.08362,0.151753 -0.04599,0 -0.306113,0.303024 -0.578053,0.673387 -0.271938,0.370363 -0.537336,0.673387 -0.589769,0.673387 -0.05243,0 -0.09533,0.06761 -0.09533,0.15025 0,0.08264 -0.06241,0.18753 -0.138685,0.233095 -0.07628,0.04557 -0.181169,0.158038 -0.233095,0.249938 -0.05193,0.0919 -0.27657,0.38327 -0.499207,0.647487 -0.378105,0.448721 -0.437638,0.480397 -0.902877,0.480397 -0.410258,0 -0.56722,-0.05867 -0.89018,-0.33271 z M 10.846624,17.981889 11.416413,17.638022 v -0.830601 c 0,-1.008238 0.103546,-1.174359 0.731996,-1.174359 0.332487,0 0.485547,0.05413 0.595025,0.210434 0.101925,0.145517 0.310954,0.229804 0.67759,0.273227 0.466097,0.0552 0.613679,0.02037 1.220724,-0.288132 0.880855,-0.44765 1.07308,-0.744273 1.073596,-1.656673 3.1e-4,-0.585886 -0.03669,-0.724169 -0.257762,-0.962706 l -0.258147,-0.278547 -3.03109,0.03032 -3.031089,0.03032 -0.6047972,0.362593 c -0.3326383,0.199426 -0.7289008,0.442758 -0.8805832,0.540739 -0.1516824,0.09798 -0.4156435,0.254601 -0.5865803,0.348046 -0.1709367,0.09344 -0.4623062,0.336427 -0.6474877,0.53996 L 6.081114,15.152702 v 1.229502 c 0,1.297535 0.1257712,1.777547 0.4906827,1.872716 0.1004875,0.02621 0.9752295,0.05286 1.9438711,0.05924 l 1.7611662,0.01159 z M 36.114012,17.23394 c 0.535508,-0.07689 1.021037,-0.187189 1.078953,-0.245106 0.05792,-0.05792 0.126704,-0.363349 0.152858,-0.678739 0.03273,-0.394685 0.092,-0.573435 0.190122,-0.573435 0.08937,0 0.142569,0.116061 0.142569,0.311013 v 0.311014 l 0.733967,-0.388712 0.733968,-0.388712 -0.875988,-0.02974 -0.875986,-0.02974 -0.05098,-0.794313 c -0.02943,-0.458557 -0.100769,-0.810911 -0.168774,-0.833579 -0.06479,-0.0216 -0.117799,-0.08852 -0.117799,-0.148725 0,-0.07074 0.201551,-0.08866 0.56979,-0.05065 0.452057,0.04666 0.569789,0.02825 0.569789,-0.0891 0,-0.122466 -0.309138,-0.147912 -1.796909,-0.147912 -1.991824,0 -1.863016,-0.04198 -2.346966,0.764982 -0.144516,0.240975 -0.267812,0.656546 -0.307366,1.03598 l -0.06605,0.633591 -0.123532,-0.414392 c -0.06794,-0.227915 -0.123794,-0.6797 -0.124111,-1.003966 -3.1e-4,-0.324266 -0.04516,-0.617128 -0.09965,-0.650806 -0.05449,-0.03368 -0.07281,-0.129666 -0.04071,-0.21331 0.04793,-0.124916 -0.07315,-0.152079 -0.677911,-0.152079 -0.732079,0 -0.972038,0.125561 -0.477275,0.249737 0.313148,0.0786 0.324903,0.203583 0.0518,0.550778 -0.113958,0.144874 -0.207504,0.338704 -0.207879,0.430733 -4.14e-4,0.09203 -0.0924,0.306467 -0.204493,0.476529 -0.402097,0.610025 -0.359859,1.625619 0.07412,1.782269 0.100569,0.0363 0.30001,0.146966 0.443204,0.245919 0.143193,0.09895 0.376289,0.202223 0.51799,0.229484 0.383556,0.07379 2.19471,-0.02984 3.303249,-0.189013 z M 12.52573,16.850339 c 0.308278,-0.242333 0.324193,-0.57017 0.0414,-0.852959 -0.143396,-0.143396 -0.340751,-0.26072 -0.438568,-0.26072 -0.47317,0 -0.740692,0.733646 -0.393959,1.08038 0.195684,0.195684 0.564785,0.21122 0.791123,0.0333 z m 4.742385,-2.904389 c -0.0034,-0.723359 -0.493435,-0.823527 -0.656457,-0.1342 -0.0801,0.338706 -0.06572,0.426562 0.08829,0.539173 0.283286,0.207145 0.570109,0.0027 0.568167,-0.404973 z m 1.348361,-1.006436 c 0,-0.238116 -0.04682,-0.310795 -0.200215,-0.310795 -0.207557,0 -0.379714,0.333958 -0.266549,0.517063 0.03553,0.05749 0.155087,0.104526 0.265682,0.104526 0.154359,0 0.201082,-0.07221 0.201082,-0.310794 z m 6.558047,-2.640331 c 0.01124,-0.0562 -0.06116,-0.117891 -0.160869,-0.137094 -0.113398,-0.02184 -0.181296,0.02897 -0.181296,0.135675 0,0.180238 0.306163,0.181508 0.342165,0.0014 z m 0.124026,-1.1927965 c -0.05012,-0.0811 -0.109718,-0.08712 -0.178783,-0.01805 -0.05698,0.05698 -0.06976,0.158341 -0.02841,0.225249 0.05012,0.0811 0.109717,0.08712 0.178783,0.01805 0.05698,-0.05698 0.06976,-0.158341 0.02841,-0.225249 z M 88.69207,8.9399055 c 0.128816,-0.04943 0.163871,-0.225412 0.163871,-0.82267 0,-0.417883 -0.03706,-0.782694 -0.08236,-0.810691 -0.0453,-0.028 -0.278395,-0.02461 -0.51799,0.0075 l -0.435627,0.05843 v 0.746078 c 0,0.410344 0.03108,0.777158 0.06907,0.815144 0.0863,0.0863 0.584275,0.09013 0.803044,0.0062 z m -1.66726,-0.73047 c 0.09369,-0.09369 -0.138492,-0.357675 -0.252569,-0.287172 -0.142834,0.08828 -0.108058,0.355339 0.04627,0.355339 0.07597,0 0.168806,-0.03067 0.206298,-0.06817 z M 72.280256,6.6663135 v -0.551575 l -0.440292,-0.055531 c -0.375638,-0.04738 -0.625501,-0.04023 -1.03598,0.02961 -0.04273,0.0073 -0.0777,0.262034 -0.0777,0.566137 v 0.552916 l 0.776986,0.005 0.776985,0.005 z m 3.211539,-2.791628 c 0,-0.09669 -0.09784,-0.155397 -0.258995,-0.155397 -0.161153,0 -0.258995,0.05871 -0.258995,0.155397 0,0.09669 0.09784,0.155397 0.258995,0.155397 0.161153,0 0.258995,-0.05871 0.258995,-0.155397 z m -1.191378,-1.191377 c 0.07206,-0.426551 0.258996,-0.576095 0.258996,-0.207196 0,0.113958 0.04662,0.207196 0.103598,0.207196 0.05698,0 0.103598,0.09324 0.103598,0.207196 0,0.215841 0.250204,0.285445 0.364032,0.10127 0.03601,-0.05826 -0.0124,-0.340343 -0.107559,-0.626853 l -0.173024,-0.520927 -0.47111,0.03116 c -0.460806,0.03048 -0.474147,0.04136 -0.609941,0.497356 -0.196526,0.659929 -0.182154,0.725186 0.159711,0.725186 0.271236,0 0.308755,-0.04183 0.371699,-0.414392 z"
   id="path54" /></svg>
