<?xml version="1.0" encoding="UTF-8" standalone="no"?>
<svg
   xmlns:dc="http://purl.org/dc/elements/1.1/"
   xmlns:cc="http://creativecommons.org/ns#"
   xmlns:rdf="http://www.w3.org/1999/02/22-rdf-syntax-ns#"
   xmlns:svg="http://www.w3.org/2000/svg"
   xmlns="http://www.w3.org/2000/svg"
   xmlns:sodipodi="http://sodipodi.sourceforge.net/DTD/sodipodi-0.dtd"
   xmlns:inkscape="http://www.inkscape.org/namespaces/inkscape"
   version="1.1"
   x="0px"
   y="0px"
   width="97.875px"
   height="32px"
   viewBox="0 0 97.875 32"
   enable-background="new 0 0 97.875 32"
   xml:space="preserve"
   id="svg107"
   sodipodi:docname="model680.svg"
   inkscape:version="1.0.2-2 (e86c870879, 2021-01-15)"><metadata
   id="metadata113"><rdf:RDF><cc:Work
       rdf:about=""><dc:format>image/svg+xml</dc:format><dc:type
         rdf:resource="http://purl.org/dc/dcmitype/StillImage" /></cc:Work></rdf:RDF></metadata><defs
   id="defs111" /><sodipodi:namedview
   pagecolor="#ffffff"
   bordercolor="#666666"
   borderopacity="1"
   objecttolerance="10"
   gridtolerance="10"
   guidetolerance="10"
   inkscape:pageopacity="0"
   inkscape:pageshadow="2"
   inkscape:window-width="1842"
   inkscape:window-height="1051"
   id="namedview109"
   showgrid="false"
   inkscape:zoom="4.3889386"
   inkscape:cx="104.52286"
   inkscape:cy="-31.780501"
   inkscape:window-x="-9"
   inkscape:window-y="-9"
   inkscape:window-maximized="1"
   inkscape:current-layer="svg107" />
<g
   id="Selected_Items">
	<g
   id="g103">
		<g
   id="Selected_Items_53_">
			
		</g>
	</g>
</g>
<g
   id="guides">
</g>
<path
   style="fill:#ffffff;stroke-width:0.113923"
   d="M 32.671777,27.521899 C 31.16628,27.16484 30.7144,27.05448 30.108515,26.895884 c -0.375945,-0.09841 -0.900712,-0.225817 -1.166148,-0.283135 -0.572015,-0.12352 -1.159985,-0.41062 -1.233552,-0.60233 -0.02891,-0.07534 0.209908,-0.649389 0.530703,-1.275676 1.234813,-2.410717 1.812035,-3.585977 1.812035,-3.689413 0,-0.05912 0.03912,-0.124576 0.08692,-0.145462 0.04781,-0.02089 0.397049,-0.653157 0.776091,-1.405047 0.799082,-1.585104 0.887664,-2.10354 0.509071,-2.979414 -0.448893,-1.038513 -1.361124,-1.324351 -2.489432,-0.780038 -0.324707,0.156644 -0.614741,0.284807 -0.644521,0.284807 -0.02978,0 -0.334337,0.128163 -0.676795,0.284807 -0.342458,0.156644 -0.677898,0.284807 -0.74542,0.284807 -0.06752,0 -0.211787,0.04947 -0.320587,0.109927 -0.305161,0.169576 -1.178747,0.53928 -1.919806,0.812469 -0.368715,0.135925 -0.721657,0.282755 -0.784314,0.32629 -0.06266,0.04353 -0.370249,0.171376 -0.683537,0.284091 -0.567175,0.204062 -0.960288,0.363551 -1.697577,0.688717 -0.213107,0.09399 -0.418726,0.170884 -0.456933,0.170884 -0.03821,0 -0.286785,0.100695 -0.552397,0.223767 -0.265611,0.123071 -1.175011,0.486773 -2.020887,0.808226 -0.845877,0.321453 -1.753022,0.682145 -2.015879,0.801538 -0.262857,0.119393 -0.554606,0.217079 -0.648332,0.217079 -0.09373,0 -0.198585,0.04559 -0.233019,0.101302 -0.03444,0.05572 -0.200617,0.135941 -0.369293,0.178276 -0.168677,0.04233 -0.512015,0.176177 -0.762973,0.297427 -0.250958,0.12125 -0.502993,0.220454 -0.560076,0.220454 -0.05708,0 -0.278148,0.0769 -0.491254,0.170884 -0.56544,0.249376 -1.074292,0.458446 -1.526694,0.627266 -0.219301,0.08184 -0.669392,0.268953 -1.0002,0.415818 -0.330809,0.146866 -0.62463,0.267028 -0.652935,0.267028 -0.06566,0 -2.6210028,0.994155 -3.0746599,1.196195 -1.0566649,0.470594 -2.8071007,1.068972 -2.9578461,1.011126 -0.1080048,-0.04144 -0.1750297,-0.0037 -0.1750297,0.0986 0,0.09936 -0.2380912,0.242662 -0.5943608,0.357724 -0.5708388,0.18436 -0.6057797,0.183313 -0.8829014,-0.02646 -0.1586974,-0.120128 -0.2750475,-0.294413 -0.2585559,-0.387299 0.016492,-0.09289 -0.04759,-0.233266 -0.1424035,-0.311954 -0.094813,-0.07869 -0.1723881,-0.258678 -0.1723881,-0.399978 0,-0.141299 -0.076898,-0.320728 -0.1708842,-0.398729 -0.093986,-0.078 -0.1708841,-0.28934 -0.1708841,-0.46964 0,-0.180301 -0.052242,-0.32782 -0.1160932,-0.32782 -0.066919,0 -0.085842,-0.12053 -0.044675,-0.284551 0.03928,-0.156504 0.035601,-0.374381 -0.00818,-0.484172 -0.043776,-0.109791 -0.1019239,-0.50359 -0.1292174,-0.875109 -0.027294,-0.371518 -0.109056,-0.747099 -0.1816942,-0.834622 -0.10155852,-0.122372 -0.0955,-0.181736 0.026224,-0.256966 0.1331569,-0.0823 0.1341125,-0.143014 0.00602,-0.382361 -0.083752,-0.156492 -0.1186683,-0.37211 -0.077593,-0.479152 0.041076,-0.107043 -0.00456,-0.315562 -0.10141145,-0.463376 -0.0968521,-0.147816 -0.12364773,-0.268756 -0.0595458,-0.268756 0.14897885,0 0.15339605,-0.424166 0.004943,-0.474678 -0.10946422,-0.03725 -0.25708771,-1.272916 -0.23931202,-2.003142 0.004957,-0.203637 -0.036323,-0.370249 -0.0917336,-0.370249 -0.13833568,0 -0.0748944,-1.923075 0.0755864,-2.291226 0.10628036,-0.260014 0.20921216,-0.307486 0.81542187,-0.376071 0.3815832,-0.04317 0.7315802,-0.05626 0.7777712,-0.02908 0.046191,0.02718 0.3915751,0.0039 0.7675202,-0.0518 0.3759451,-0.05567 1.8626371,-0.17776 3.30376,-0.271309 4.1031767,-0.266354 7.4951337,-0.495861 9.1707827,-0.620515 0.845877,-0.06293 2.588895,-0.192237 3.873374,-0.287357 6.112812,-0.452676 9.175471,-0.877027 11.96189,-1.657399 0.219301,-0.06142 0.783219,-0.217403 1.25315,-0.346631 0.469931,-0.129228 1.085114,-0.301829 1.367073,-0.383558 0.281959,-0.08173 0.794611,-0.2271925 1.139228,-0.3232535 0.344616,-0.09606 1.011064,-0.304782 1.480996,-0.463827 1.498494,-0.507154 3.099487,-0.8789614 4.266085,-0.9907373 1.462997,-0.140175 1.543975,-0.1690351 1.543975,-0.550256 0,-0.4508602 0.197818,-0.5847214 0.864093,-0.5847214 h 0.590677 l 0.19456,-0.5948136 c 0.300451,-0.9185734 0.924167,-1.3741261 1.543192,-1.1271219 l 0.282128,0.1125756 -0.299338,0.00722 c -0.406816,0.00981 -0.65235,0.3029611 -0.431374,0.5150265 0.188698,0.1810874 1.150002,0.5174994 1.478767,0.5174994 0.292532,0 0.404117,-0.290756 0.204554,-0.533 C 46.642507,5.97562 46.66012,5.9653533 46.962333,6.0406614 c 0.42541,0.1060073 0.716097,0.4408512 0.866001,0.9975532 0.103035,0.3826428 0.160349,0.4377536 0.455251,0.4377536 0.185558,0 0.337378,-0.051265 0.337378,-0.1139228 0,-0.1724895 0.33562,-0.136346 0.528927,0.056961 0.220727,0.2207263 0.610301,0.2207263 0.610301,0 0,-0.094936 0.101264,-0.1708842 0.227845,-0.1708842 0.126581,0 0.227846,0.075949 0.227846,0.1708842 0,0.1139227 0.113922,0.1708841 0.341768,0.1708841 0.227845,0 0.341768,-0.056961 0.341768,-0.1708841 0,-0.094936 0.101265,-0.1708842 0.227846,-0.1708842 0.12658,0 0.227845,0.075949 0.227845,0.1708842 0,0.1063278 0.107593,0.1708841 0.284807,0.1708841 0.177214,0 0.284807,-0.064556 0.284807,-0.1708841 0,-0.1063279 0.107593,-0.1708842 0.284807,-0.1708842 0.177214,0 0.284807,0.064556 0.284807,0.1708842 0,0.2260549 0.524066,0.2260549 0.610812,0 0.08475,-0.2208546 0.402468,-0.2208546 0.487218,0 0.03607,0.093986 0.182768,0.1708841 0.326004,0.1708841 0.143237,0 0.289938,-0.076898 0.326005,-0.1708841 0.03607,-0.093986 0.14569,-0.1708842 0.243609,-0.1708842 0.09792,0 0.207543,0.076898 0.243609,0.1708842 0.07236,0.1885535 0.610812,0.2387674 0.610812,0.056961 0,-0.068354 0.455691,-0.1139228 1.139227,-0.1139228 h 1.139228 v 0.455691 c 0,0.4303749 0.01899,0.4556911 0.341768,0.4556911 0.227846,0 0.341769,0.056961 0.341769,0.1708841 0,0.1087466 0.113919,0.1734701 0.313287,0.1779958 0.172308,0.00391 1.723082,0.051588 3.446164,0.1059472 1.723081,0.05436 5.106587,0.1516437 7.518902,0.2161877 2.412314,0.06454 6.103412,0.169932 8.202438,0.234195 8.326578,0.254924 12.348045,0.351635 14.546653,0.349829 l 2.299955,-0.0019 0.07688,-0.512652 c 0.04228,-0.2819587 0.122321,-0.5126523 0.177864,-0.5126523 0.05554,0 0.102291,-0.064082 0.103883,-0.1424035 0.0016,-0.078322 0.196689,-0.5268927 0.433547,-0.9968241 0.403071,-0.7997023 0.456421,-0.8566145 0.833051,-0.888677 0.342644,-0.029169 0.460125,0.030042 0.791124,0.3987296 l 0.388722,0.432986 v 2.2784653 2.2784555 l -7.091691,-0.03478 -7.091692,-0.03477 v 0.339009 0.33901 l 1.490421,0.03753 c 1.260395,0.03174 1.512882,0.0683 1.635958,0.236899 0.178362,0.244329 0.405226,0.260273 0.405226,0.02848 0,-0.191913 0.350003,-0.231004 0.522635,-0.05837 0.06896,0.06896 1.764401,0.124081 4.38033,0.142403 l 4.267817,0.02989 0.0327,1.118225 0.0327,1.118226 -4.874414,0.002 c -2.680927,0.0011 -5.57931,0.02735 -6.440851,0.05831 l -1.566438,0.0563 v 0.617748 c 0,0.416331 -0.04643,0.618923 -0.142403,0.621349 -0.07832,0.002 -0.280262,0.125 -0.448756,0.273376 -0.23514,0.207067 -0.327857,0.424702 -0.398864,0.936263 -0.08544,0.615514 -0.116461,0.669243 -0.405665,0.702533 -0.310848,0.03578 -0.313153,0.03101 -0.313153,-0.648543 0,-0.826726 -0.291854,-1.398223 -0.83004,-1.625355 -0.465492,-0.196452 -4.044533,-0.193914 -5.036982,0.0036 -1.066324,0.212186 -4.078305,0.289116 -5.069563,0.129483 -0.469932,-0.07568 -1.021033,-0.164135 -1.22467,-0.196572 -0.35788,-0.05701 -0.370249,-0.07718 -0.370249,-0.603775 v -0.544798 l -2.07909,-0.08173 c -2.401097,-0.09439 -8.966979,0.0039 -10.224568,0.153067 -0.469931,0.05574 -1.213277,0.06077 -1.65188,0.01118 -0.438602,-0.04959 -2.271335,-0.118548 -4.072738,-0.153239 -2.72731,-0.05252 -3.27528,-0.03697 -3.27528,0.09293 0,0.08693 -0.163944,0.184355 -0.370249,0.220027 -1.076836,0.186193 -1.131886,0.211521 -1.291853,0.594377 -0.206434,0.494064 -0.341206,0.562957 -0.674316,0.344694 -0.151684,-0.09939 -0.328088,-0.180703 -0.392008,-0.180703 -0.110076,0 -1.251542,0.65833 -1.372793,0.791745 -0.162836,0.17917 -1.150891,0.794067 -1.629845,1.014302 -1.249233,0.574426 -3.449212,0.539127 -4.29511,-0.06892 -0.546208,-0.392621 -1.011451,-1.155651 -1.100422,-1.804765 -0.07934,-0.57885 -0.160624,-0.614512 -0.478771,-0.210054 -0.516777,0.656975 -0.550149,1.077036 -0.190725,2.400719 l 0.1898,0.698996 -0.405644,0.634124 c -0.223105,0.348768 -0.405645,0.660818 -0.405645,0.693444 0,0.03262 -0.121933,0.329863 -0.270964,0.660528 -0.14903,0.330665 -0.621389,1.523983 -1.049686,2.651818 -0.62533,1.646679 -0.779157,2.177701 -0.780924,2.695804 -0.0016,0.466469 0.05527,0.708691 0.205253,0.874425 0.235617,0.260353 0.212066,0.633427 -0.04167,0.66017 -0.09327,0.0098 -0.349005,-0.02468 -0.568306,-0.07669 z m 7.95886,-9.912205 c 1.763397,-0.286135 2.563572,-1.270316 1.753055,-2.15618 -0.305863,-0.334297 -0.345897,-0.344167 -1.6894,-0.416521 l -1.376113,-0.07411 -0.294778,0.317905 c -0.329863,0.355742 -0.478335,0.932773 -0.368582,1.432476 0.04013,0.18272 0.04702,0.332217 0.0153,0.332217 -0.142639,0 -0.416126,-0.760232 -0.416126,-1.15673 0,-0.241004 -0.02929,-0.438188 -0.0651,-0.438188 -0.124981,0 -0.344359,0.287511 -0.488546,0.640282 -0.119985,0.293552 -0.11726,0.422546 0.01564,0.740498 0.205727,0.492172 0.445859,0.687396 0.971181,0.789555 0.629096,0.122338 1.138563,0.119402 1.943465,-0.0112 z"
   id="path311" /></svg>
