<?xml version="1.0" encoding="UTF-8" standalone="no"?>
<svg
   xmlns:dc="http://purl.org/dc/elements/1.1/"
   xmlns:cc="http://creativecommons.org/ns#"
   xmlns:rdf="http://www.w3.org/1999/02/22-rdf-syntax-ns#"
   xmlns:svg="http://www.w3.org/2000/svg"
   xmlns="http://www.w3.org/2000/svg"
   xmlns:sodipodi="http://sodipodi.sourceforge.net/DTD/sodipodi-0.dtd"
   xmlns:inkscape="http://www.inkscape.org/namespaces/inkscape"
   version="1.1"
   x="0px"
   y="0px"
   width="99.75px"
   height="32px"
   viewBox="0 0 99.75 32"
   enable-background="new 0 0 99.75 32"
   xml:space="preserve"
   id="svg152"
   sodipodi:docname="spr208.svg"
   inkscape:version="1.0.2-2 (e86c870879, 2021-01-15)"><metadata
   id="metadata158"><rdf:RDF><cc:Work
       rdf:about=""><dc:format>image/svg+xml</dc:format><dc:type
         rdf:resource="http://purl.org/dc/dcmitype/StillImage" /></cc:Work></rdf:RDF></metadata><defs
   id="defs156" /><sodipodi:namedview
   pagecolor="#ffffff"
   bordercolor="#666666"
   borderopacity="1"
   objecttolerance="10"
   gridtolerance="10"
   guidetolerance="10"
   inkscape:pageopacity="0"
   inkscape:pageshadow="2"
   inkscape:window-width="1842"
   inkscape:window-height="1051"
   id="namedview154"
   showgrid="false"
   inkscape:zoom="12.180451"
   inkscape:cx="56.480379"
   inkscape:cy="11.740753"
   inkscape:window-x="-9"
   inkscape:window-y="-9"
   inkscape:window-maximized="1"
   inkscape:current-layer="svg152" />

<g
   id="guides">
</g>
<path
   style="fill:#ffffff;stroke-width:0.0806037"
   d="M 1.4697768,24.775651 C 1.3591008,24.69363 1.2957777,24.308948 1.1346902,22.74003 1.0254481,21.676062 0.9132995,20.152652 0.88547129,19.354677 0.85764307,18.5567 0.78034526,17.577366 0.71369839,17.178378 c -0.3019744,-1.8078 -0.47322862,-4.112014 -0.31980055,-4.302893 0.0731698,-0.09103 0.33406152,-0.101209 1.42094736,-0.05543 0.7322269,0.03084 1.4097833,0.07509 1.505681,0.09833 0.1580447,0.03831 0.1796907,0.113378 0.2313372,0.802245 0.031338,0.417987 0.080183,0.774319 0.1085438,0.791846 0.069954,0.04324 1.2162432,-0.08556 1.2738037,-0.143118 0.025219,-0.02522 0.013044,-0.351928 -0.027058,-0.726019 -0.0654,-0.610091 -0.058254,-0.68932 0.069353,-0.769012 0.1855553,-0.11588 0.628073,-0.114733 0.628073,0.0017 0,0.06562 0.029112,0.06631 0.1059892,0.0026 0.1303025,-0.108141 0.588709,-0.131361 5.6974739,-0.288596 9.285395,-0.285781 10.402479,-0.303615 10.875258,-0.173624 0.494004,0.135826 0.659759,0.273685 1.46156,1.215575 0.188692,0.221661 0.483872,0.506905 0.655956,0.633876 0.282809,0.208671 0.361002,0.227546 0.813626,0.196394 0.521836,-0.03591 1.312086,-0.351948 1.600007,-0.63987 0.08256,-0.08255 0.202271,-0.150097 0.26604,-0.150097 0.117214,0 1.018665,-0.464826 1.093114,-0.563656 0.02217,-0.02942 0.149116,-0.10972 0.282112,-0.178433 0.506538,-0.261703 1.219454,-0.668337 1.474981,-0.841303 0.146261,-0.099 0.398643,-0.223804 0.56085,-0.277338 0.162209,-0.05354 0.35085,-0.160697 0.419204,-0.238142 0.06835,-0.07744 0.292566,-0.202488 0.498246,-0.277875 l 0.373962,-0.137067 0.0561,-0.67343 c 0.03086,-0.370386 0.09834,-0.7063738 0.149962,-0.7466389 0.05162,-0.040263 1.009722,-0.1206442 2.129107,-0.1786188 l 2.035241,-0.1054108 -4.83e-4,-0.4502101 c -5.65e-4,-0.4884586 0.287591,-1.2927656 0.463957,-1.2951729 0.05541,-7.57e-4 0.100754,-0.047715 0.100754,-0.1043465 0,-0.05663 0.05414,-0.1802604 0.120301,-0.2747251 0.139674,-0.1994131 0.408623,-0.1690219 0.466612,0.052732 0.04241,0.1622063 0.320777,0.2263534 1.287122,0.2966171 0.458725,0.033351 0.624676,0.075274 0.624676,0.1577912 0,0.074685 0.09461,0.1123706 0.282112,0.1123706 0.197032,0 0.282114,-0.036464 0.282114,-0.1209063 0,-0.080605 0.0806,-0.1209053 0.24181,-0.1209053 0.161208,0 0.241812,0.040302 0.241812,0.1209053 0,0.080605 0.08061,0.1209063 0.241811,0.1209063 0.161206,0 0.24181,-0.040302 0.24181,-0.1209063 0,-0.075234 0.07613,-0.1209053 0.201509,-0.1209053 0.125385,0 0.20151,0.045673 0.20151,0.1209053 0,0.084444 0.08508,0.1209063 0.282113,0.1209063 0.19703,0 0.282112,-0.036464 0.282112,-0.1209063 0,-0.075234 0.07613,-0.1209053 0.201509,-0.1209053 0.125384,0 0.201509,0.045673 0.201509,0.1209053 0,0.080605 0.0806,0.1209063 0.241811,0.1209063 0.161208,0 0.241812,-0.040302 0.241812,-0.1209063 0,-0.075234 0.07613,-0.1209053 0.201509,-0.1209053 0.125383,0 0.20151,0.045673 0.20151,0.1209053 0,0.080605 0.0806,0.1209063 0.24181,0.1209063 0.161207,0 0.241811,-0.040302 0.241811,-0.1209063 0,-0.075234 0.07613,-0.1209053 0.201509,-0.1209053 0.125384,0 0.20151,0.045673 0.20151,0.1209053 0,0.084444 0.08508,0.1209063 0.282113,0.1209063 0.19703,0 0.282112,-0.036464 0.282112,-0.1209063 0,-0.080605 0.0806,-0.1209053 0.241812,-0.1209053 0.161207,0 0.241811,0.040302 0.241811,0.1209053 0,0.080605 0.0806,0.1209063 0.24181,0.1209063 0.161208,0 0.241811,-0.040302 0.241811,-0.1209063 0,-0.075234 0.07613,-0.1209053 0.201509,-0.1209053 0.125383,0 0.201509,0.045673 0.201509,0.1209053 0,0.080605 0.0806,0.1209063 0.241812,0.1209063 0.161207,0 0.241811,-0.040302 0.241811,-0.1209063 0,-0.080605 0.08061,-0.1209053 0.24181,-0.1209053 0.161208,0 0.241812,0.040302 0.241812,0.1209053 0,0.080605 0.0806,0.1209063 0.241811,0.1209063 0.161206,0 0.24181,-0.040302 0.24181,-0.1209063 0,-0.075234 0.07613,-0.1209053 0.20151,-0.1209053 0.125384,0 0.201509,0.045673 0.201509,0.1209053 0,0.080605 0.0806,0.1209063 0.24181,0.1209063 0.161208,0 0.241812,-0.040302 0.241812,-0.1209063 0,-0.080605 0.08061,-0.1209053 0.241811,-0.1209053 0.161207,0 0.24181,0.040302 0.24181,0.1209053 0,0.080605 0.08061,0.1209063 0.241811,0.1209063 0.161208,0 0.241812,-0.040302 0.241812,-0.1209063 0,-0.080605 0.0806,-0.1209053 0.24181,-0.1209053 0.161208,0 0.241811,0.040302 0.241811,0.1209053 0,0.080605 0.0806,0.1209063 0.241812,0.1209063 0.161207,0 0.24181,-0.040302 0.24181,-0.1209063 0,-0.075234 0.07613,-0.1209053 0.20151,-0.1209053 0.125383,0 0.201509,0.045673 0.201509,0.1209053 0,0.080605 0.0806,0.1209063 0.241811,0.1209063 0.161207,0 0.24181,-0.040302 0.24181,-0.1209063 0,-0.075234 0.07613,-0.1209053 0.201509,-0.1209053 0.125385,0 0.20151,0.045673 0.20151,0.1209053 0,0.084444 0.08508,0.1209063 0.282113,0.1209063 0.19703,0 0.282112,-0.036464 0.282112,-0.1209063 0,-0.1020972 0.188075,-0.1209053 1.209055,-0.1209053 h 1.209055 V 7.4253395 c 0,-0.2283769 0.03071,-0.2821131 0.161207,-0.2821131 0.148403,0 0.161208,0.053733 0.161208,0.6765075 0,0.526984 -0.02672,0.6867623 -0.120906,0.7229029 -0.07588,0.02912 -0.120906,0.1523786 -0.120906,0.3310386 v 0.2846422 l 8.886554,0.00265 c 4.887604,0.00147 11.534382,0.036523 14.77062,0.077944 3.236236,0.041422 9.16374,0.077178 13.172233,0.079466 5.192405,0.00295 7.31899,0.029738 7.395383,0.093132 0.07815,0.064828 0.107222,0.3465273 0.107222,1.0376234 0,0.916624 -0.0059,0.950165 -0.181366,0.9939 -0.09974,0.0249 -1.722903,0.04638 -3.607007,0.04774 -1.88411,0.0014 -6.01001,0.02697 -9.168665,0.05689 l -5.743011,0.05442 v 0.328259 c 0,0.180543 -0.135593,0.832379 -0.301316,1.448525 -0.234036,0.870128 -0.337522,1.136408 -0.463471,1.192563 -0.08919,0.03976 -0.723314,0.09852 -1.409173,0.130579 l -1.247019,0.05828 -0.0024,0.523923 -0.0024,0.523924 H 76.29395 75.931234 l 8.06e-4,-0.503772 8.06e-4,-0.503774 -0.444109,-0.01437 c -0.24426,-0.008 -0.516653,-0.0058 -0.605316,0.0046 -0.775566,0.09142 -2.428422,0.178693 -4.580617,0.241862 l -2.565524,0.0753 -0.273228,0.307116 c -0.150275,0.168914 -0.314752,0.407365 -0.365503,0.52989 l -0.09228,0.222774 -0.736438,-0.04911 c -0.405041,-0.02701 -0.770896,-0.08073 -0.813012,-0.119377 -0.104776,-0.09616 -0.506964,-0.08884 -0.568255,0.01033 -0.0648,0.104836 -0.362717,0.104836 -0.362717,0 0,-0.04433 -0.12695,-0.08061 -0.282112,-0.08061 -0.155163,0 -0.282113,0.03627 -0.282113,0.08061 0,0.04433 -0.07254,0.08061 -0.161208,0.08061 -0.08867,0 -0.161207,-0.03627 -0.161207,-0.08061 0,-0.04433 -0.126951,-0.08061 -0.282113,-0.08061 -0.155162,0 -0.282113,0.03627 -0.282113,0.08061 0,0.104836 -0.297924,0.104836 -0.362716,0 -0.06468,-0.104654 -0.499547,-0.104654 -0.564226,0 -0.06486,0.104948 -0.44332,0.104948 -0.44332,0 0,-0.04433 -0.108815,-0.08061 -0.241811,-0.08061 -0.132996,0 -0.241811,0.03627 -0.241811,0.08061 0,0.04433 -0.09068,0.08061 -0.201509,0.08061 -0.11083,0 -0.201509,-0.03627 -0.201509,-0.08061 0,-0.09784 -0.539726,-0.10892 -0.57766,-0.01185 -0.01478,0.03781 -0.378713,0.08921 -0.808744,0.114206 l -0.781876,0.04546 -0.167922,-0.284604 -0.16792,-0.284604 -2.193746,0.03987 c -1.206559,0.02193 -3.300408,0.08695 -4.652996,0.144482 l -2.459251,0.104607 0.01979,0.569991 c 0.01089,0.313495 0.03056,0.938719 0.04372,1.389388 l 0.02393,0.819397 -0.284689,0.02694 c -0.156614,0.01482 -2.243392,0.0088 -4.63732,-0.01336 l -4.352598,-0.0403 0.02962,-0.826188 c 0.02053,-0.572631 0.002,-0.826187 -0.06045,-0.826187 -0.04954,0 -0.09007,0.03627 -0.09007,0.0806 0,0.04433 -0.05052,0.08061 -0.112281,0.08061 -0.06175,0 -0.134698,0.04534 -0.162095,0.100753 -0.0274,0.05541 -0.122172,0.20957 -0.210612,0.342566 -0.08844,0.132996 -0.251645,0.43414 -0.362682,0.669209 -0.111037,0.23507 -0.237772,0.40522 -0.281634,0.378111 -0.09838,-0.0608 -0.103429,-0.316895 -0.0099,-0.504339 0.06764,-0.135621 0.221802,-0.557018 0.309233,-0.845245 0.03506,-0.115592 -0.0081,-0.141056 -0.238882,-0.141056 -0.554432,0 -1.083485,0.357148 -1.373109,0.926942 -0.344062,0.676894 -0.871577,0.916896 -2.227433,1.013409 -1.099653,0.07828 -1.155904,0.07205 -1.706919,-0.188826 -0.49388,-0.233827 -0.954128,-1.011042 -0.957353,-1.616669 -8.06e-4,-0.145377 -0.09012,-0.316763 -0.246808,-0.473454 -0.235215,-0.235215 -0.265867,-0.243301 -0.725283,-0.191323 -0.459519,0.05199 -1.124818,0.326592 -1.124818,0.464271 0,0.03611 -0.06724,0.06565 -0.149438,0.06565 -0.150597,0 -0.575995,0.339802 -0.575995,0.460097 0,0.03563 -0.108389,0.112754 -0.240865,0.171393 -0.132476,0.05864 -0.398117,0.313391 -0.590315,0.566115 -0.540738,0.711022 -0.834255,1.321851 -1.419217,2.953483 -0.352953,0.98449 -0.446063,1.051249 -1.223272,0.877063 -0.283917,-0.06363 -0.800713,-0.168902 -1.148438,-0.233933 -0.347724,-0.06503 -0.981036,-0.227274 -1.407359,-0.360535 -0.426324,-0.133261 -0.838783,-0.242293 -0.916578,-0.242293 -0.347585,0 -0.941682,-0.288855 -1.336781,-0.649952 -0.331039,-0.302552 -0.50672,-0.400667 -0.794755,-0.44386 -0.541427,-0.08119 -1.585219,0.02447 -2.368139,0.239725 -0.376823,0.103603 -0.86649,0.234565 -1.088149,0.291026 -0.221661,0.05646 -0.65692,0.173957 -0.967245,0.261101 -0.310324,0.08714 -0.781855,0.207353 -1.047846,0.267132 -0.265993,0.05978 -0.846339,0.220955 -1.28966,0.358167 -0.472648,0.14629 -1.081082,0.269322 -1.471016,0.297455 l -0.66498,0.04798 v 0.549417 c 0,0.475072 -0.02283,0.561636 -0.168715,0.639711 -0.249076,0.133301 -0.545246,0.02945 -0.605966,-0.21247 -0.02843,-0.113299 -0.02968,-0.366648 -0.0027,-0.562998 0.0562,-0.409969 -0.03792,-0.459369 -0.372995,-0.195794 -0.112718,0.08867 -0.238939,0.161207 -0.28049,0.161207 -0.04155,0 -0.14391,0.07554 -0.2274622,0.167861 -0.1772665,0.195878 -0.6212932,0.396365 -0.8778435,0.396365 -0.098475,0 -0.3932879,0.07391 -0.6551369,0.164249 -0.6466167,0.223079 -1.5961878,0.413587 -1.7559374,0.352286 -0.084516,-0.03244 -0.1307125,-0.0077 -0.1307125,0.06997 0,0.143308 -0.3863954,0.234098 -0.5724733,0.134512 C 5.7655159,23.580556 5.7055487,23.272054 5.632951,22.192273 l -0.053086,-0.789577 -0.209302,0.03897 c -0.115116,0.02143 -0.4178639,0.06197 -0.6727729,0.09009 -0.5426548,0.05986 -0.5153878,-0.0592 -0.353719,1.544481 0.07366,0.730668 0.075658,1.012816 0.00783,1.105576 -0.054082,0.07396 -0.3665244,0.172949 -0.7693056,0.243732 -0.5742408,0.100913 -1.3548571,0.276342 -1.8512185,0.416026 -0.068823,0.01937 -0.1865427,-0.0103 -0.2615981,-0.06592 z m 9.9234682,-2.135687 c -0.02757,-0.238885 -0.307618,-0.373305 -0.307618,-0.147655 0,0.06975 0.03627,0.126816 0.08061,0.126816 0.04434,0 0.0806,0.05441 0.0806,0.120905 0,0.0665 0.03868,0.120906 0.08596,0.120906 0.04727,0 0.07448,-0.09944 0.06045,-0.220972 z M 5.3027256,20.362222 c 0.2201353,0 0.2343963,-0.01725 0.1831336,-0.221495 -0.030576,-0.121822 -0.067512,-0.233414 -0.08208,-0.247983 -0.014569,-0.01457 -0.3199296,-8.95e-4 -0.6785793,0.0304 l -0.6520904,0.05689 v 0.242886 0.242886 l 0.4954458,-0.05179 c 0.2724951,-0.02848 0.602872,-0.05178 0.7341709,-0.05178 z M 36.16022,18.757986 c 0.158933,-0.036 0.425245,-0.197808 0.591802,-0.359558 0.582002,-0.5652 0.630819,-1.503549 0.106457,-2.046237 l -0.253116,-0.261962 h 0.21732 c 0.119526,0 0.217321,-0.04114 0.217321,-0.09142 0,-0.06678 -0.33124,-0.0752 -1.229205,-0.03128 -1.097091,0.05366 -2.164216,0.166486 -1.827496,0.193204 0.11242,0.0089 0.108434,0.06715 -0.03442,0.502861 -0.141482,0.431524 -0.149245,0.53883 -0.06245,0.863335 0.120373,0.450062 0.192621,0.542715 0.558637,0.7164 0.164138,0.07788 0.239087,0.150209 0.177085,0.170876 -0.193481,0.06449 -0.602188,-0.225782 -0.869547,-0.617576 -0.207019,-0.303371 -0.272801,-0.49788 -0.31263,-0.924407 -0.02774,-0.297106 -0.0734,-0.540192 -0.101458,-0.540192 -0.2485,0 -0.731712,0.696995 -0.731712,1.055435 0,0.251329 0.174439,0.798449 0.25457,0.798449 0.03732,0 0.06784,0.04809 0.06784,0.106855 0,0.146213 0.311551,0.417787 0.604528,0.526956 0.26211,0.09767 2.115111,0.05411 2.626475,-0.06175 z M 4.6877117,16.090229 c 0.4257153,0 0.4332447,-0.0041 0.4332447,-0.237054 0,-0.13038 -0.028159,-0.254457 -0.062573,-0.275727 -0.034416,-0.02126 -0.3608603,-0.01823 -0.7254328,0.0068 -0.5640991,0.03866 -0.6628593,0.06675 -0.6628593,0.188529 0,0.315596 0.094084,0.415547 0.3440898,0.365546 0.1321577,-0.02643 0.4352468,-0.04806 0.6735313,-0.04806 z M 76.374587,15.364796 c 0,-0.08867 -0.03627,-0.161208 -0.0806,-0.161208 -0.04434,0 -0.0806,0.07254 -0.0806,0.161208 0,0.08867 0.03627,0.161207 0.0806,0.161207 0.04433,0 0.0806,-0.07255 0.0806,-0.161207 z M 47.838212,9.460578 C 47.836712,9.36083 47.767442,9.1976078 47.684236,9.097861 l -0.151295,-0.181358 -3.694848,0.00118 c -3.860369,0.00128 -4.060574,0.018143 -4.124121,0.34811 -0.07479,0.3883505 -0.207759,0.3761351 4.09421,0.3761351 h 4.032712 l -0.0027,-0.181359 z"
   id="path190" /></svg>
