<?xml version="1.0" encoding="UTF-8" standalone="no"?>
<svg
   xmlns:dc="http://purl.org/dc/elements/1.1/"
   xmlns:cc="http://creativecommons.org/ns#"
   xmlns:rdf="http://www.w3.org/1999/02/22-rdf-syntax-ns#"
   xmlns:svg="http://www.w3.org/2000/svg"
   xmlns="http://www.w3.org/2000/svg"
   xmlns:sodipodi="http://sodipodi.sourceforge.net/DTD/sodipodi-0.dtd"
   xmlns:inkscape="http://www.inkscape.org/namespaces/inkscape"
   version="1.1"
   x="0px"
   y="0px"
   width="99.75px"
   height="32px"
   viewBox="0 0 99.75 32"
   enable-background="new 0 0 99.75 32"
   xml:space="preserve"
   id="svg32"
   sodipodi:docname="kar98k.svg"
   inkscape:version="1.0.2-2 (e86c870879, 2021-01-15)"><metadata
   id="metadata38"><rdf:RDF><cc:Work
       rdf:about=""><dc:format>image/svg+xml</dc:format><dc:type
         rdf:resource="http://purl.org/dc/dcmitype/StillImage" /></cc:Work></rdf:RDF></metadata><defs
   id="defs36" /><sodipodi:namedview
   pagecolor="#ffffff"
   bordercolor="#666666"
   borderopacity="1"
   objecttolerance="10"
   gridtolerance="10"
   guidetolerance="10"
   inkscape:pageopacity="0"
   inkscape:pageshadow="2"
   inkscape:window-width="1842"
   inkscape:window-height="1051"
   id="namedview34"
   showgrid="false"
   inkscape:zoom="8.6128796"
   inkscape:cx="67.243173"
   inkscape:cy="28.458645"
   inkscape:window-x="-9"
   inkscape:window-y="-9"
   inkscape:window-maximized="1"
   inkscape:current-layer="svg32" />

<g
   id="guides">
</g>
<path
   style="fill:#ffffff;stroke-width:0.127361"
   d="M 1.8109453,24.062603 C 1.7540057,23.969635 1.6062029,22.804513 1.3383671,20.337297 1.1999629,19.062365 1.128395,18.55328 0.78332555,16.389111 0.54961565,14.923354 0.57010435,14.688567 0.97684615,14.171478 1.3720383,13.669073 1.680211,13.588826 4.0195489,13.379171 c 1.1557998,-0.103585 2.7032344,-0.243336 3.4387434,-0.310558 0.7355091,-0.06722 2.426225,-0.203882 3.7571457,-0.303688 1.330921,-0.09981 3.451479,-0.274963 4.712352,-0.389236 2.487543,-0.225445 3.346193,-0.187285 4.440538,0.197346 1.251251,0.439779 1.697811,0.363477 5.14944,-0.879876 0.791385,-0.285075 1.505843,-0.559701 1.587685,-0.610282 0.08184,-0.05058 0.350725,-0.124786 0.59752,-0.164902 0.458314,-0.0745 0.743502,-0.514824 0.333437,-0.514824 -0.147866,0 -0.20038,-0.129618 -0.20038,-0.4945896 0,-0.555506 0.154294,-0.646794 1.098488,-0.649919 0.477321,-0.0016 0.525363,-0.03134 0.525363,-0.325448 0,-0.17804 0.03428,-0.357988 0.07617,-0.399884 0.0419,-0.0419 0.5792,-0.07333 1.194008,-0.06986 0.861635,0.0049 1.126346,0.04792 1.15497,0.187848 0.02935,0.143476 0.162837,0.160823 0.636804,0.08275 0.329818,-0.05432 0.972199,-0.103068 1.427514,-0.108316 0.455315,-0.0052 0.90082,-0.05585 0.990009,-0.11246 0.08919,-0.05661 0.332768,-0.07788 0.541284,-0.04728 0.299135,0.0439 0.37912,0.119768 0.37912,0.35959 v 0.303946 h 3.428326 c 1.885581,0 3.518984,-0.03479 3.629785,-0.07731 0.110803,-0.04252 0.201458,-0.179668 0.201458,-0.304776 0,-0.335241 0.242177,-0.382083 1.975413,-0.382083 1.327936,0 1.607108,0.03466 1.795031,0.222882 0.190058,0.190354 0.525953,0.228779 2.301598,0.263293 1.82001,0.03538 2.079054,0.01554 2.079054,-0.159201 0,-0.109787 0.07984,-0.199613 0.177414,-0.199613 0.09758,0 0.210405,-0.08597 0.250728,-0.191041 0.05293,-0.137954 0.269075,-0.191041 0.777788,-0.191041 0.387468,0 0.704485,-0.05731 0.704485,-0.127361 0,-0.160981 0.6723,-0.167639 0.834215,-0.0083 0.147879,0.145564 4.355357,0.204872 4.692563,0.06615 0.164859,-0.06782 0.29024,-0.03233 0.395804,0.112033 0.137212,0.187646 0.665302,0.219207 4.716562,0.281882 2.509128,0.03882 4.599826,0.09392 4.645996,0.122459 0.04618,0.02853 1.705474,0.114927 3.687344,0.191983 2.720004,0.105754 3.645896,0.182597 3.776739,0.313442 0.143233,0.143233 1.915648,0.173815 10.204204,0.176068 11.590923,0.0031 10.603992,0.118963 10.603992,-1.244326 v -0.77559 h 0.636803 0.636803 v 1.018886 1.018887 h 0.629289 c 0.346108,0 0.657448,0.04556 0.691865,0.101256 0.03439,0.05569 0.03028,0.342252 -0.0093,0.636804 l -0.07183,0.5355486 h -4.12242 -4.122457 v 0.445763 0.445763 h 2.292497 c 1.86045,0 2.292492,0.03301 2.292492,0.175155 0,0.144669 -0.723944,0.178468 -4.159331,0.194192 -3.646779,0.01669 -4.177645,0.04408 -4.30794,0.22227 -0.127602,0.174512 -0.242644,0.183066 -0.814009,0.06053 -0.806489,-0.172961 -1.884379,-0.186491 -1.984245,-0.02491 -0.04004,0.06479 -0.630874,0.117657 -1.312965,0.117488 -1.518164,-3.69e-4 -6.158078,0.268103 -6.315571,0.365436 -0.06281,0.03882 -1.267683,0.118701 -2.677503,0.177522 -1.409825,0.05882 -3.594943,0.165154 -4.855814,0.236296 -1.260871,0.07114 -4.327087,0.214499 -6.813809,0.318571 -4.085666,0.170989 -6.239921,0.255045 -13.372887,0.52179 -1.463416,0.05473 -2.342766,0.142024 -2.560625,0.25421 -0.25372,0.130651 -0.436189,0.138825 -0.775352,0.03474 -0.316197,-0.09704 -0.787724,-0.09594 -1.642286,0.0038 -0.65931,0.07699 -2.599787,0.226205 -4.312177,0.331586 -1.712389,0.105382 -3.427957,0.249747 -3.812377,0.32081 -0.384419,0.07106 -0.969317,0.129207 -1.299775,0.129207 -0.547479,0 -0.623365,0.03819 -0.854562,0.430038 -0.139539,0.23652 -0.291267,0.600996 -0.337159,0.809946 -0.112586,0.512596 -0.64035,0.975283 -1.399203,1.22667 -0.782789,0.259316 -1.287105,0.262495 -1.995447,0.01258 -0.767831,-0.270906 -1.089553,-0.616613 -1.268667,-1.363245 l -0.153667,-0.640557 -1.144395,0.08639 c -1.445972,0.109156 -2.209356,0.480657 -3.534391,1.720014 -1.54208,1.442366 -1.963124,1.579366 -3.566105,1.160341 -0.315218,-0.0824 -0.799614,-0.114353 -1.076436,-0.07101 -0.645118,0.101011 -2.551108,0.737025 -4.973205,1.65952 -1.050727,0.400187 -2.368912,0.887434 -2.929299,1.082771 -0.560388,0.195337 -1.6779797,0.594856 -2.4835372,0.887816 -2.1786028,0.792303 -3.5324043,1.263951 -4.4576303,1.552984 -0.4553151,0.142236 -1.1308855,0.367618 -1.501268,0.500848 -0.7247447,0.260698 -0.9971417,0.297382 -1.0894182,0.146716 z M 31.88104,17.074482 c 1.18963,-0.345836 1.645469,-1.127164 1.07129,-1.836243 -0.226497,-0.279712 -0.260334,-0.283479 -1.238942,-0.13793 -0.553346,0.0823 -1.056835,0.200387 -1.118863,0.262415 -0.06203,0.06203 -0.09044,0.346996 -0.06314,0.633262 0.0273,0.286267 0.0052,0.520486 -0.04925,0.520486 -0.09444,0 -0.150507,-0.468557 -0.108443,-0.906271 0.02545,-0.264814 -0.949721,-0.447999 -1.214606,-0.228164 -0.264317,0.219364 -0.215436,0.92353 0.08845,1.274148 0.507232,0.585241 1.51087,0.744655 2.633504,0.418297 z M 12.01208,16.675673 c 0.03434,-0.104275 -0.08305,-0.159201 -0.340266,-0.159201 -0.378377,0 -0.491646,0.113318 -0.302417,0.302548 0.136804,0.136803 0.583213,0.03724 0.642683,-0.143347 z m 21.555189,-1.560171 c 0,-0.07005 -0.08597,-0.127361 -0.191041,-0.127361 -0.105072,0 -0.191041,0.05731 -0.191041,0.127361 0,0.07005 0.08597,0.127361 0.191041,0.127361 0.105073,0 0.191041,-0.05731 0.191041,-0.127361 z m 61.483462,-3.529966 c -0.192635,-0.02918 -0.507852,-0.02918 -0.700487,0 -0.192634,0.02918 -0.03505,0.05306 0.350244,0.05306 0.385268,0 0.542877,-0.02388 0.350243,-0.05306 z"
   id="path60" /></svg>
