<?xml version="1.0" encoding="UTF-8" standalone="no"?>
<svg
   xmlns:dc="http://purl.org/dc/elements/1.1/"
   xmlns:cc="http://creativecommons.org/ns#"
   xmlns:rdf="http://www.w3.org/1999/02/22-rdf-syntax-ns#"
   xmlns:svg="http://www.w3.org/2000/svg"
   xmlns="http://www.w3.org/2000/svg"
   xmlns:sodipodi="http://sodipodi.sourceforge.net/DTD/sodipodi-0.dtd"
   xmlns:inkscape="http://www.inkscape.org/namespaces/inkscape"
   version="1.1"
   x="0px"
   y="0px"
   width="100.25px"
   height="32px"
   viewBox="0 0 100.25 32"
   enable-background="new 0 0 100.25 32"
   xml:space="preserve"
   id="svg47"
   sodipodi:docname="725.svg"
   inkscape:version="1.0.2-2 (e86c870879, 2021-01-15)"><metadata
   id="metadata53"><rdf:RDF><cc:Work
       rdf:about=""><dc:format>image/svg+xml</dc:format><dc:type
         rdf:resource="http://purl.org/dc/dcmitype/StillImage" /></cc:Work></rdf:RDF></metadata><defs
   id="defs51" /><sodipodi:namedview
   pagecolor="#ffffff"
   bordercolor="#666666"
   borderopacity="1"
   objecttolerance="10"
   gridtolerance="10"
   guidetolerance="10"
   inkscape:pageopacity="0"
   inkscape:pageshadow="2"
   inkscape:window-width="1842"
   inkscape:window-height="1051"
   id="namedview49"
   showgrid="false"
   inkscape:zoom="8.689831"
   inkscape:cx="33.716162"
   inkscape:cy="31.697967"
   inkscape:window-x="-9"
   inkscape:window-y="-9"
   inkscape:window-maximized="1"
   inkscape:current-layer="svg47" />

<g
   id="guides">
</g>
<path
   style="fill:#ffffff;stroke-width:0.0808234"
   d="m 0.95548238,24.401647 c -0.0296349,-0.02964 -0.0551071,-0.475174 -0.056604,-0.990087 -0.0015,-0.514912 -0.0375175,-1.318095 -0.0800459,-1.784849 -0.0425284,-0.466755 -0.13289373,-1.539686 -0.20081203,-2.38429 -0.0679182,-0.844605 -0.17802158,-2.117573 -0.24467407,-2.82882 -0.14243224,-1.519888 -0.16946205,-2.277683 -0.0897799,-2.517038 0.0855714,-0.257045 0.3880364,-0.34394 1.50709139,-0.432974 1.0226479,-0.08137 2.1881673,-0.177121 3.8795228,-0.318735 1.6638762,-0.139315 7.3296423,-0.716322 11.6385693,-1.185285 1.044642,-0.113693 2.449815,-0.212793 3.122604,-0.22022 l 1.223255,-0.01351 0.39725,0.334675 c 0.610016,0.51393 0.96594,0.675618 1.48724,0.675618 0.537334,0 0.952534,-0.127007 2.498577,-0.764297 0.244491,-0.100781 0.590011,-0.229766 0.767823,-0.286634 0.177811,-0.05686 0.556568,-0.209689 0.84168,-0.339604 0.285114,-0.129915 0.794301,-0.325222 1.131527,-0.434014 0.337228,-0.108794 0.722253,-0.248517 0.855611,-0.310497 0.133359,-0.06198 0.515249,-0.186379 0.848646,-0.276444 1.441093,-0.3893053 1.616468,-0.4480503 1.616468,-0.5414653 0,-0.0542 -0.05456,-0.143819 -0.121235,-0.199158 -0.221395,-0.183742 -0.113477,-0.7084517 0.195054,-0.948364 0.284298,-0.2210681 0.711663,-0.2742801 1.197441,-0.1490964 0.256543,0.066111 0.707093,0.1445711 1.00122,0.174359 0.656134,0.066449 2.660782,-0.098243 3.102275,-0.2548698 0.226883,-0.080484 1.374292,-0.1629733 3.847594,-0.2765934 3.124324,-0.1435282 4.745429,-0.1619025 14.283995,-0.1619025 H 66.36547 l 0.05072,-0.2020591 c 0.02789,-0.111132 0.101327,-0.2020581 0.163187,-0.2020581 0.06609,0 0.112473,0.083325 0.112473,0.2020581 v 0.2020591 h 14.841192 14.841197 l -0.04849,-0.2424709 -0.04849,-0.24247 h 1.776094 1.776087 v 0.24247 c 0,0.1333592 0.03695,0.2424709 0.08214,0.2424709 0.05413,0 0.07479,0.7238558 0.06059,2.1216134 l -0.02146,2.121615 -16.686381,0.04042 -16.68639,0.04041 -0.0562,0.202059 c -0.03091,0.111132 -0.05983,0.336419 -0.06426,0.500639 -0.01382,0.512165 -0.250864,0.686468 -1.139584,0.837957 -0.596575,0.10169 -4.402637,0.31191 -4.808992,0.265614 -0.04445,-0.0051 -3.608765,-0.0391 -7.920693,-0.07565 -4.311928,-0.03654 -9.599219,-0.08908 -11.749536,-0.116728 -2.994762,-0.03852 -3.930983,-0.02755 -4.000758,0.04686 -0.0678,0.07232 -0.06543,0.106567 0.0093,0.13398 0.0748,0.02744 0.07827,0.07816 0.01359,0.199003 -0.05234,0.0978 -0.06473,0.322564 -0.03122,0.566236 0.05541,0.402913 -0.06162,1.046259 -0.229747,1.262929 -0.296853,0.382565 -1.513535,0.589472 -3.328413,0.566024 -0.622339,-0.008 -0.913304,-0.02557 -0.646587,-0.03894 2.717756,-0.136268 3.477488,-0.263966 3.818905,-0.641893 0.151049,-0.167199 0.181853,-0.294456 0.181853,-0.751249 0,-0.515452 -0.0174,-0.568406 -0.277454,-0.844138 -0.312667,-0.331523 -0.353992,-0.34579 -0.484527,-0.167274 -0.06967,0.09527 -0.326026,0.142922 -1.028258,0.191117 -1.022299,0.07016 -1.594321,0.234684 -1.949647,0.560753 -0.296761,0.272328 -0.431614,0.721851 -0.316023,1.053438 0.107738,0.309057 -0.01461,0.335264 -0.129525,0.02774 -0.169437,-0.453444 -0.172952,-0.5174 -0.04855,-0.883806 0.115948,-0.341518 0.1158,-0.380608 -0.0017,-0.446363 -0.07083,-0.03964 -0.128779,-0.161187 -0.128779,-0.27011 0,-0.27044 -0.08045,-0.250255 -0.466588,0.11707 -0.437304,0.415997 -0.508658,0.763185 -0.294981,1.435288 0.04595,0.144514 0.04373,0.144527 -0.07438,4.04e-4 -0.06695,-0.0817 -0.164258,-0.40069 -0.216241,-0.708876 -0.08258,-0.489578 -0.12894,-0.586596 -0.367139,-0.768279 -0.306887,-0.234075 -0.517372,-0.227241 -1.490319,0.04838 -0.288944,0.08186 -0.670834,0.187242 -0.848646,0.234194 -0.354433,0.0936 -1.247187,0.636311 -2.06326,1.254291 -0.549699,0.41627 -1.533381,1.336699 -1.533381,1.434786 0,0.03159 -0.246279,0.414537 -0.547285,0.85098 l -0.547286,0.793532 -0.438618,0.02499 c -0.577923,0.03292 -1.351589,-0.163823 -2.411258,-0.613184 -1.202566,-0.509959 -1.61032,-0.532623 -2.523823,-0.140276 -0.376531,0.161719 -0.884638,0.379694 -1.129129,0.484389 -0.244491,0.104696 -0.608196,0.23124 -0.808234,0.281211 -0.200038,0.04997 -0.436446,0.123866 -0.525352,0.164209 -0.261372,0.118608 -3.431355,1.335136 -3.960347,1.519843 -0.266718,0.09313 -1.115769,0.425911 -1.88678,0.739513 -0.771012,0.313603 -1.4439604,0.570188 -1.495441,0.570188 -0.051481,0 -0.4753974,0.147147 -0.942038,0.326994 -1.7711993,0.682635 -2.5705906,0.961381 -3.3359369,1.163237 -0.4346145,0.114627 -0.8528755,0.243255 -0.9294692,0.28584 -0.4899481,0.272408 -2.3110064,0.591764 -2.4696687,0.433101 z M 85.913528,11.41606 c 0.01513,-0.07796 -0.02545,-0.134743 -0.09626,-0.134743 -0.150145,0 -0.240764,0.131754 -0.169704,0.246736 0.07311,0.11829 0.234485,0.05034 0.265964,-0.111993 z m 0.984162,0.02691 c 0,-0.107764 -0.05388,-0.161646 -0.161646,-0.161646 -0.107762,0 -0.161648,0.05388 -0.161648,0.161646 0,0.107765 0.05389,0.161648 0.161648,0.161648 0.107761,0 0.161646,-0.05389 0.161646,-0.161648 z m 0.92947,0 c 0,-0.175283 -0.315325,-0.151137 -0.349586,0.02677 -0.0221,0.114774 0.01394,0.141994 0.160539,0.121235 0.10398,-0.01472 0.189047,-0.08133 0.189047,-0.148004 z m 0.929469,0 c 0,-0.0898 -0.05389,-0.161646 -0.121236,-0.161646 -0.06735,0 -0.121234,0.07184 -0.121234,0.161646 0,0.0898 0.05388,0.161648 0.121234,0.161648 0.06735,0 0.121236,-0.07184 0.121236,-0.161648 z m -2.364044,-0.464734 c 0.01973,-0.05926 -0.03599,-0.101029 -0.134749,-0.101029 -0.09928,0 -0.16838,0.05219 -0.16838,0.127161 0,0.148543 0.252201,0.126801 0.303129,-0.02613 z m 0.909222,0.0202 c 0,-0.06668 -0.05456,-0.121235 -0.121234,-0.121235 -0.06668,0 -0.121236,0.05456 -0.121236,0.121235 0,0.06668 0.05456,0.121235 0.121236,0.121235 0.06668,0 0.121234,-0.05456 0.121234,-0.121235 z m 1.030539,-0.0202 c 0.01973,-0.05926 -0.03599,-0.101029 -0.134749,-0.101029 -0.09928,0 -0.168379,0.05219 -0.168379,0.127161 0,0.148543 0.252201,0.126801 0.303128,-0.02613 z m 0.909222,0.0202 c 0,-0.06735 -0.07184,-0.121235 -0.161646,-0.121235 -0.0898,0 -0.161647,0.05388 -0.161647,0.121235 0,0.06735 0.07184,0.121235 0.161647,0.121235 0.0898,0 0.161646,-0.05388 0.161646,-0.121235 z m 1.03054,-0.0202 c 0.01973,-0.05926 -0.03599,-0.101029 -0.134749,-0.101029 -0.09928,0 -0.16838,0.05219 -0.16838,0.127161 0,0.148543 0.252202,0.126801 0.303129,-0.02613 z m 0.909222,0.0202 c 0,-0.06735 -0.07184,-0.121235 -0.161646,-0.121235 -0.0898,0 -0.161648,0.05388 -0.161648,0.121235 0,0.06735 0.07184,0.121235 0.161648,0.121235 0.0898,0 0.161646,-0.05388 0.161646,-0.121235 z m 5.091874,-0.569033 c 0,-0.103878 -0.109387,-0.120615 -0.660287,-0.101029 -0.43879,0.01561 -0.671505,0.05736 -0.693731,0.124504 -0.02502,0.07558 0.141344,0.101029 0.660287,0.101029 0.570863,0 0.693731,-0.02205 0.693731,-0.124504 z m -26.186779,-0.03715 c 0,-0.04755 -0.282882,-0.08082 -0.686999,-0.08082 -0.404117,0 -0.686999,0.03328 -0.686999,0.08082 0,0.04755 0.282882,0.08082 0.686999,0.08082 0.404117,0 0.686999,-0.03328 0.686999,-0.08082 z m 6.587106,0 c -0.02747,-0.04445 -0.338769,-0.08082 -0.691769,-0.08082 -0.373996,0 -0.641817,0.03372 -0.641817,0.08082 0,0.04759 0.284471,0.08082 0.691769,0.08082 0.440598,0 0.673633,-0.02934 0.641817,-0.08082 z m 6.506283,0 c 0,-0.04755 -0.282881,-0.08082 -0.686998,-0.08082 -0.404118,0 -0.686999,0.03328 -0.686999,0.08082 0,0.04755 0.282881,0.08082 0.686999,0.08082 0.404117,0 0.686998,-0.03328 0.686998,-0.08082 z m 6.627519,0 c 0,-0.04755 -0.282883,-0.08082 -0.686999,-0.08082 -0.404117,0 -0.686999,0.03328 -0.686999,0.08082 0,0.04755 0.282882,0.08082 0.686999,0.08082 0.404116,0 0.686999,-0.03328 0.686999,-0.08082 z M 85.913528,9.3954707 c 0.01513,-0.07796 -0.02545,-0.134743 -0.09626,-0.134743 -0.150145,0 -0.240764,0.131754 -0.169704,0.246736 0.07311,0.118291 0.234485,0.05034 0.265964,-0.111993 z m 0.984162,0.02691 c 0,-0.107763 -0.05388,-0.161646 -0.161646,-0.161646 -0.107762,0 -0.161648,0.05388 -0.161648,0.161646 0,0.107765 0.05389,0.161648 0.161648,0.161648 0.107761,0 0.161646,-0.05388 0.161646,-0.161648 z m 0.95467,-0.02114 c 0.01847,-0.09592 -0.0246,-0.140513 -0.135743,-0.140513 -0.185352,0 -0.287997,0.120714 -0.209987,0.246946 0.07867,0.127279 0.314718,0.05461 0.34573,-0.106433 z M 86.392585,8.9576412 c 0.01973,-0.059258 -0.03599,-0.1010296 -0.134749,-0.1010296 -0.09928,0 -0.16838,0.052186 -0.16838,0.1271613 0,0.1485431 0.252201,0.1268007 0.303129,-0.026132 z m 1.939761,0 c 0.01973,-0.059258 -0.03599,-0.1010296 -0.134749,-0.1010296 -0.09928,0 -0.168379,0.052186 -0.168379,0.1271613 0,0.1485431 0.252201,0.1268007 0.303128,-0.026132 z m 0.891628,-0.00775 c 0.02316,-0.069558 -0.01569,-0.098681 -0.107844,-0.080822 -0.07922,0.015356 -0.160345,0.076859 -0.18026,0.1366727 -0.02316,0.069558 0.01569,0.098681 0.107843,0.080822 0.07922,-0.015356 0.160346,-0.076859 0.180261,-0.1366727 z m -1.922167,-0.093307 c 0,-0.044448 -0.03637,-0.080822 -0.08082,-0.080822 -0.04445,0 -0.08082,0.036373 -0.08082,0.080822 0,0.044458 0.03637,0.080822 0.08082,0.080822 0.04445,0 0.08082,-0.036373 0.08082,-0.080822 z M 50.44634,8.4120856 c 0,-0.098253 -0.130215,-0.1212345 -0.686999,-0.1212345 -0.556783,0 -0.686999,0.022974 -0.686999,0.1212345 0,0.098253 0.130216,0.1212354 0.686999,0.1212354 0.556784,0 0.686999,-0.022974 0.686999,-0.1212354 z m 6.546695,-0.00328 c 0,-0.1038782 -0.109384,-0.1206147 -0.660288,-0.1010285 -0.438792,0.015604 -0.671507,0.057361 -0.693733,0.1245032 -0.02502,0.075577 0.141344,0.1010296 0.660287,0.1010296 0.570865,0 0.693734,-0.02205 0.693734,-0.1245043 z m 6.546695,0.00328 c 0,-0.098253 -0.130216,-0.1212345 -0.686999,-0.1212345 -0.556783,0 -0.686999,0.022974 -0.686999,0.1212345 0,0.098253 0.130216,0.1212354 0.686999,0.1212354 0.556783,0 0.686999,-0.022974 0.686999,-0.1212354 z m 6.546695,0 c 0,-0.098253 -0.130216,-0.1212345 -0.686999,-0.1212345 -0.556784,0 -0.686999,0.022974 -0.686999,0.1212345 0,0.098253 0.130215,0.1212354 0.686999,0.1212354 0.556783,0 0.686999,-0.022974 0.686999,-0.1212354 z m 6.627518,0 c 0,-0.098253 -0.130215,-0.1212345 -0.686999,-0.1212345 -0.556783,0 -0.686999,0.022974 -0.686999,0.1212345 0,0.098253 0.130216,0.1212354 0.686999,0.1212354 0.556784,0 0.686999,-0.022974 0.686999,-0.1212354 z m 6.465871,0 c 0,-0.098253 -0.130214,-0.1212345 -0.686998,-0.1212345 -0.556785,0 -0.686999,0.022974 -0.686999,0.1212345 0,0.098253 0.130214,0.1212354 0.686999,0.1212354 0.556784,0 0.686998,-0.022974 0.686998,-0.1212354 z m 6.627519,0 c 0,-0.098253 -0.130215,-0.1212345 -0.686999,-0.1212345 -0.556784,0 -0.686999,0.022974 -0.686999,0.1212345 0,0.098253 0.130215,0.1212354 0.686999,0.1212354 0.556784,0 0.686999,-0.022974 0.686999,-0.1212354 z m 6.465871,0 c 0,-0.098253 -0.130214,-0.1212345 -0.686999,-0.1212345 -0.556784,0 -0.686999,0.022974 -0.686999,0.1212345 0,0.098253 0.130215,0.1212354 0.686999,0.1212354 0.556785,0 0.686999,-0.022974 0.686999,-0.1212354 z m 1.212351,-0.686999 c 0,-0.044448 -0.200038,-0.080822 -0.444529,-0.080822 -0.244491,0 -0.444528,0.036373 -0.444528,0.080822 0,0.044448 0.200037,0.080822 0.444528,0.080822 0.244491,0 0.444529,-0.036373 0.444529,-0.080822 z m 0.404117,0 c 0,-0.044448 -0.01603,-0.080822 -0.03565,-0.080822 -0.0196,0 -0.05812,0.036373 -0.08559,0.080822 -0.02747,0.044448 -0.01143,0.080822 0.03565,0.080822 0.04707,0 0.08559,-0.036373 0.08559,-0.080822 z"
   id="path227" /><path
   style="fill:#ffffff;stroke-width:0.0142877"
   d="m 32.219747,16.673975 c 0,-0.03377 -0.0043,-0.03572 -0.07859,-0.03572 -0.07336,0 -0.07859,-0.0023 -0.07859,-0.03419 0,-0.03965 -0.02333,-0.05154 -0.101182,-0.05154 -0.05019,0 -0.05598,-0.0037 -0.05598,-0.03572 0,-0.03327 -0.0049,-0.03572 -0.07044,-0.03572 -0.06218,0 -0.07098,-0.0038 -0.07501,-0.03215 -0.0033,-0.02281 -0.01573,-0.03343 -0.04299,-0.03658 -0.0297,-0.0035 -0.03943,-0.01317 -0.04286,-0.04286 -0.0032,-0.02727 -0.01378,-0.03975 -0.03658,-0.04299 -0.02326,-0.0033 -0.03214,-0.01415 -0.03214,-0.03929 0,-0.02751 -0.0074,-0.03473 -0.03572,-0.03473 -0.03377,0 -0.03572,-0.0043 -0.03572,-0.07858 0,-0.0743 0.002,-0.07858 0.03572,-0.07858 0.02814,0 0.03572,0.0072 0.03572,0.03417 0,0.02411 0.01005,0.03669 0.03414,0.04274 0.02069,0.0052 0.03768,0.02269 0.04314,0.04441 0.0066,0.02621 0.01851,0.03585 0.04444,0.03585 0.02829,0 0.03545,0.0073 0.03545,0.03572 0,0.02832 0.0072,0.03572 0.03477,0.03572 0.02731,0 0.03574,0.0084 0.03929,0.03929 0.0036,0.03086 0.01295,0.04027 0.04381,0.04381 0.03086,0.0036 0.03929,0.01198 0.03929,0.03929 0,0.0322 0.0053,0.03477 0.07144,0.03477 0.06668,0 0.07143,0.0024 0.07143,0.03572 0,0.03372 0.0044,0.03572 0.07763,0.03572 0.07407,0 0.07784,0.0018 0.08215,0.03929 l 0.0046,0.03929 0.142376,0.0042 c 0.08061,0.0024 0.146449,0.01072 0.151766,0.01932 0.02174,0.03518 1.683796,0.03865 2.052612,0.0043 0.09902,-0.0092 0.103585,-0.0083 0.103585,0.0206 v 0.03026 h -1.228741 -1.228742 z"
   id="path229" /></svg>
