<?xml version="1.0" encoding="UTF-8" standalone="no"?>
<!-- Created with Inkscape (http://www.inkscape.org/) -->

<svg
   width="110.00201"
   height="32.049294"
   viewBox="0 0 29.104702 8.479709"
   version="1.1"
   id="svg5"
   xmlns="http://www.w3.org/2000/svg"
   xmlns:svg="http://www.w3.org/2000/svg">
  <defs
     id="defs2" />
  <g
     id="layer1"
     transform="translate(28.986304,37.578716)">
    <path
       style="fill:#ffffff;stroke-width:0.0210597;fill-opacity:1"
       d="m -8.2990816,-30.198324 c -0.082643,-0.05039 -0.1119074,-0.102435 -0.1119074,-0.199016 0,-0.04091 0.0616,-0.364427 0.1368881,-0.718931 0.075288,-0.354503 0.136888,-0.691631 0.136888,-0.749173 0,-0.137592 -0.062189,-0.256231 -0.1726207,-0.329311 -0.086763,-0.05742 -0.090717,-0.05794 -0.4401409,-0.05794 -0.3441775,0 -0.3538881,0.0012 -0.4069372,0.05105 -0.02989,0.02808 -0.054346,0.06655 -0.054346,0.08548 0,0.01893 -0.013914,0.05282 -0.03092,0.0753 -0.024508,0.0324 -0.031059,0.120802 -0.031589,0.426318 l -6.686e-4,0.385438 -0.1504033,0.162114 c -0.082722,0.08916 -0.1690635,0.178698 -0.1918703,0.198968 -0.038891,0.03457 -0.1692709,0.03685 -2.0987731,0.03685 -1.572047,0 -2.063267,-0.006 -2.082577,-0.02527 -0.01515,-0.01515 -0.02527,-0.08832 -0.02527,-0.182614 0,-0.100734 -0.01013,-0.169304 -0.02816,-0.19059 -0.01549,-0.01829 -0.0741,-0.237001 -0.130253,-0.486032 -0.11508,-0.510388 -0.111412,-0.413881 -0.05163,-1.35835 0.02273,-0.359068 0.04138,-0.735838 0.04145,-0.837267 l 1.27e-4,-0.184416 -2.985212,0.0096 c -1.641867,0.0053 -3.126389,0.01533 -3.298939,0.02232 -0.208152,0.0084 -0.321188,0.0052 -0.335902,-0.0095 -0.01534,-0.01534 -1.04328,-0.02218 -3.334867,-0.02218 h -3.312691 l -0.0024,0.07897 c -0.0013,0.04344 -7.16e-4,0.09556 0.0013,0.115829 0.0032,0.03097 -0.01422,0.03685 -0.108723,0.03685 -0.08641,0 -0.120828,0.0098 -0.148536,0.04212 -0.0325,0.03796 -0.06212,0.04212 -0.299721,0.04212 -0.237598,0 -0.267224,-0.0042 -0.299723,-0.04212 -0.01984,-0.02316 -0.06119,-0.04212 -0.0919,-0.04212 -0.05494,0 -0.05588,-0.0024 -0.05894,-0.151375 -0.0017,-0.08326 -0.0081,-0.156407 -0.0143,-0.162559 -0.0062,-0.0062 -0.152452,-0.01236 -0.325111,-0.0138 -0.220632,-0.0018 -0.323574,-0.01063 -0.346384,-0.02956 -0.02822,-0.02342 -0.03246,-0.133934 -0.03246,-0.846208 V -35.8866 l 0.04792,-0.01822 c 0.08306,-0.03158 0.450413,-0.05139 0.466621,-0.02516 0.0095,0.01545 0.126336,0.02362 0.344887,0.02411 0.246734,5.57e-4 0.343785,0.0084 0.383097,0.03084 0.08053,0.04603 7.048042,0.04669 7.108888,6.68e-4 0.05906,-0.04467 0.633434,-0.04467 0.692491,0 0.03554,0.02688 0.472052,0.03092 3.341984,0.03092 2.17802,0 3.305533,-0.0072 3.314121,-0.02106 0.01696,-0.02744 0.256817,-0.02744 0.273776,0 0.008,0.013 0.189756,0.02106 0.475086,0.02106 h 0.462071 v -0.33847 -0.338471 l 0.121093,0.01369 c 0.0666,0.0075 0.19217,0.02603 0.279041,0.0411 0.159764,0.02772 0.306651,0.02235 0.327863,-0.01197 0.01434,-0.0232 0.129177,-0.02486 0.143264,-0.0021 0.0057,0.0092 0.411361,0.01928 0.901545,0.02249 0.513969,0.0034 0.8997151,0.01413 0.9112526,0.02545 0.011004,0.0108 0.036426,0.01963 0.056495,0.01963 0.020069,0 0.042294,0.01829 0.04939,0.04065 0.011888,0.03746 0.0389,0.04123 0.3436393,0.04804 0.3128573,0.007 0.3411015,0.0042 0.5224526,-0.05118 0.1558409,-0.04761 0.2317008,-0.05857 0.4053992,-0.05857 h 0.2136838 v 0.250037 0.250037 l 0.4836233,0.01541 c 0.3735444,0.0119 0.4891727,0.0221 0.5080105,0.0448 0.029399,0.03542 0.3041822,0.04136 0.3253998,0.007 0.0076,-0.0123 0.036591,-0.03102 0.064422,-0.0416 0.058908,-0.0224 0.068259,-0.08346 0.012781,-0.08346 -0.032695,0 -0.036263,-0.01356 -0.026325,-0.100034 l 0.011499,-0.100033 h 0.3264254 0.3264254 l 0.011499,0.100033 c 0.00994,0.08647 0.00637,0.100034 -0.026325,0.100034 -0.097157,0 -0.00606,0.08776 0.093183,0.08977 0.070369,0.0014 0.4100887,-0.05156 0.5893175,-0.09192 0.054483,-0.01227 0.13216,-0.01946 0.1726113,-0.01597 0.040454,0.0035 0.080379,-4.85e-4 0.088721,-0.0088 0.00834,-0.0083 -0.00536,-0.01517 -0.030459,-0.01517 -0.051388,0 -0.058779,-0.05487 -0.026261,-0.194914 0.010698,-0.04607 0.01049,-0.08395 -4.776e-4,-0.09075 -0.02158,-0.01334 -0.025023,-0.09499 -0.00608,-0.14434 0.011263,-0.02934 0.087324,-0.03331 0.6381133,-0.03331 0.6570936,0 0.6758687,0.0026 0.6758687,0.09477 0,0.05476 -0.037934,0.09477 -0.089849,0.09477 -0.030457,0 -0.037806,0.01304 -0.032642,0.05791 0.00638,0.0555 0.012143,0.05818 0.1382865,0.06418 l 0.1316226,0.0063 v 0.0711 0.0711 l 0.1685264,0.0069 0.168528,0.0069 v -0.110564 -0.110563 h 0.523915 c 0.4400083,0 0.528112,0.0051 0.5501298,0.03159 0.019023,0.02292 0.069391,0.03159 0.183558,0.03159 0.1396284,0 0.1585802,0.0047 0.1683561,0.04212 0.010757,0.04114 0.028725,0.04212 0.77498211,0.04212 0.65965747,0 0.76562563,-0.0043 0.77609247,-0.03159 0.007952,-0.02072 0.04081589,-0.03159 0.09551804,-0.03159 0.15724054,0 0.14958264,-0.05605 0.14958264,1.095104 0,1.151157 0.007657,1.095104 -0.14958264,1.095104 -0.05470215,0 -0.08756643,-0.01087 -0.09551804,-0.03159 -0.0104668,-0.02728 -0.11670643,-0.03159 -0.778548,-0.03159 -0.75238568,0 -0.76642558,7.72e-4 -0.76642558,0.04212 0,0.03846 -0.014041,0.04212 -0.1615554,0.04212 -0.1243325,0 -0.1709207,0.0085 -0.2022113,0.03686 -0.033699,0.03055 -0.095247,0.03866 -0.3596724,0.04738 -0.2417966,0.008 -0.2989655,0.01476 -0.2361844,0.028 0.1619678,0.03417 0.370975,0.159328 0.519425,0.311055 0.1101087,0.112536 0.1557346,0.145316 0.2022638,0.145316 0.033047,0 0.078777,0.01268 0.1016255,0.02819 0.022848,0.0155 0.3509645,0.07909 0.7291461,0.141313 0.49116525,0.08081 0.70049402,0.12356 0.73271517,0.149651 0.0611343,0.0495 0.11421109,0.301997 0.0991412,0.471624 -0.020437,0.230015 -0.17049562,0.558695 -0.27283502,0.597605 -0.0315478,0.01199 -0.24753551,-0.01606 -0.65733645,-0.08537 -0.3356917,-0.05678 -0.7041315,-0.113065 -0.8187533,-0.125076 l -0.2084023,-0.02184 -0.1706723,0.08639 c -0.1478093,0.07482 -0.1999254,0.08945 -0.3890695,0.109219 -0.207381,0.02168 -0.2243779,0.02039 -0.3369549,-0.02549 -0.247986,-0.10107 -0.4279862,-0.26109 -0.5374414,-0.477782 -0.036764,-0.07278 -0.095756,-0.09689 -0.3024112,-0.123555 -0.075189,-0.0097 -0.1105633,-0.0239 -0.1105633,-0.04439 0,-0.01656 -0.00948,-0.02426 -0.021059,-0.0171 -0.011583,0.0072 -0.02106,0.03085 -0.02106,0.05265 0,0.0218 -0.00723,0.0441 -0.016064,0.04956 -0.00884,0.0055 -0.096498,-0.0048 -0.1948026,-0.02289 -0.1512104,-0.02777 -0.2025727,-0.04888 -0.3335116,-0.137098 -0.1639011,-0.110424 -0.1891728,-0.115282 -0.5039484,-0.09689 -0.075842,0.0044 -0.1692714,-0.05267 -0.2066057,-0.126282 -0.012617,-0.02488 -0.028959,-0.03921 -0.03632,-0.03185 -0.011865,0.01187 -0.2890423,-0.02271 -0.3731989,-0.04655 -0.019556,-0.0055 -0.047062,0.01579 -0.069634,0.054 -0.041115,0.0696 -0.1037569,0.08102 -0.2207162,0.04025 -0.050647,-0.01766 -0.068707,-0.03886 -0.07877,-0.09249 -0.012979,-0.06918 -0.014041,-0.06973 -0.1848789,-0.09566 -0.094505,-0.01434 -0.185458,-0.03333 -0.2021204,-0.04219 -0.046986,-0.02499 -0.095956,0.05497 -0.1464219,0.239102 -0.040365,0.147273 -0.042831,0.18381 -0.023111,0.342498 0.012141,0.0977 0.031267,0.201821 0.042507,0.231379 0.033384,0.08781 0.02381,0.173982 -0.024724,0.222515 -0.042724,0.04272 -0.058175,0.04441 -0.2869343,0.03135 l -0.241778,-0.01381 0.00964,0.116233 c 0.011623,0.140152 0.068476,0.211408 0.1943136,0.243544 0.1320885,0.03373 0.1383412,0.03719 0.125916,0.06957 -0.0064,0.01667 -0.044219,0.03643 -0.084043,0.0439 -0.041016,0.0077 -0.085879,0.03414 -0.1034747,0.061 -0.017086,0.02607 -0.092875,0.330626 -0.1684208,0.676778 -0.075545,0.346153 -0.1522616,0.652118 -0.1704803,0.679924 -0.059776,0.09123 -0.1474369,0.110224 -0.5082822,0.110138 -0.2919502,-6.3e-5 -0.3405257,-0.0051 -0.3994663,-0.04099 z m 1.4765963,-2.097993 c 0.038807,-0.03881 0.040911,-0.06037 0.011292,-0.115708 -0.04312,-0.08057 -0.1677363,-0.03808 -0.1677363,0.0572 0,0.08026 0.098029,0.116925 0.1564441,0.05851 z m 2.9109073,-1.252607 c 0.015452,-0.01545 0.076424,-0.01427 0.202287,0.0039 l 0.1801681,0.02605 0.077239,-0.06782 c 0.1690756,-0.14845 0.4007254,-0.253068 0.5751212,-0.259735 0.074342,-0.0028 0.059613,-0.0068 -0.058704,-0.01579 l -0.1579474,-0.012 -0.01053,-0.136888 c -0.00622,-0.08078 -0.017513,-0.126098 -0.027567,-0.110563 -0.012529,0.01936 -0.1128699,0.02641 -0.3790746,0.02665 -0.1991222,1.67e-4 -0.3732896,0.0075 -0.3870437,0.01622 -0.048408,0.03078 -0.069762,0.135727 -0.069762,0.34284 0,0.202701 0.00924,0.233681 0.055814,0.187107 z m -9.039972,-0.46551 c 0.03673,-0.05244 0.01659,-0.10828 -0.05235,-0.145176 -0.05409,-0.02895 -0.145523,0.02398 -0.145523,0.08423 0,0.09959 0.140496,0.142858 0.197872,0.06094 z m 3.1295611,-0.10836 c 0,-0.0958 -0.019022,-0.09898 -0.5923791,-0.09898 -0.453553,0 -0.546983,-0.0051 -0.573426,-0.03159 -0.01737,-0.01738 -0.04047,-0.03159 -0.05131,-0.03159 -0.02835,0 -0.130703,0.08366 -0.130703,0.106827 0,0.01074 0.08292,0.02029 0.184273,0.02123 0.101349,9.31e-4 0.378548,0.01856 0.615996,0.03917 0.5936307,0.05153 0.5475521,0.05196 0.5475521,-0.0051 z"
       id="path3384" />
  </g>
</svg>
