<?xml version="1.0" encoding="UTF-8" standalone="no"?>
<svg
   version="1.1"
   x="0px"
   y="0px"
   width="96.583px"
   height="32px"
   viewBox="0 0 96.583 32"
   enable-background="new 0 0 96.583 32"
   xml:space="preserve"
   id="svg137"
   sodipodi:docname="x16_akimbo.svg"
   inkscape:version="1.2.1 (9c6d41e410, 2022-07-14)"
   xmlns:inkscape="http://www.inkscape.org/namespaces/inkscape"
   xmlns:sodipodi="http://sodipodi.sourceforge.net/DTD/sodipodi-0.dtd"
   xmlns="http://www.w3.org/2000/svg"
   xmlns:svg="http://www.w3.org/2000/svg"
   xmlns:rdf="http://www.w3.org/1999/02/22-rdf-syntax-ns#"
   xmlns:cc="http://creativecommons.org/ns#"
   xmlns:dc="http://purl.org/dc/elements/1.1/"><metadata
   id="metadata143"><rdf:RDF><cc:Work
       rdf:about=""><dc:format>image/svg+xml</dc:format><dc:type
         rdf:resource="http://purl.org/dc/dcmitype/StillImage" /></cc:Work></rdf:RDF></metadata><defs
   id="defs141" /><sodipodi:namedview
   pagecolor="#ffffff"
   bordercolor="#666666"
   borderopacity="1"
   objecttolerance="10"
   gridtolerance="10"
   guidetolerance="10"
   inkscape:pageopacity="0"
   inkscape:pageshadow="2"
   inkscape:window-width="1920"
   inkscape:window-height="1017"
   id="namedview139"
   showgrid="false"
   inkscape:zoom="8.8953001"
   inkscape:cx="67.001674"
   inkscape:cy="18.549121"
   inkscape:window-x="-8"
   inkscape:window-y="-8"
   inkscape:window-maximized="1"
   inkscape:current-layer="svg137"
   inkscape:showpageshadow="2"
   inkscape:pagecheckerboard="0"
   inkscape:deskcolor="#d1d1d1" />

<g
   id="guides">
</g>
<path
   style="fill:#ffffff;stroke-width:0.0431378"
   d="m 47.782284,31.329821 c -1.33236,0.01039 -2.433984,0.0073 -2.44806,-0.0067 -0.01407,-0.01407 -0.02557,-0.195137 -0.02557,-0.402363 v -0.376802 l 0.280395,-0.227497 c 0.154218,-0.125124 0.280396,-0.230627 0.280396,-0.234454 0,-0.0038 -0.121328,-0.01109 -0.269611,-0.0162 -0.148287,-0.005 -0.386081,-0.03897 -0.528438,-0.07533 -0.142353,-0.03637 -0.355882,-0.122292 -0.474511,-0.190974 -0.118629,-0.06868 -0.275626,-0.198114 -0.348884,-0.287636 -0.07326,-0.08952 -0.158595,-0.210462 -0.189638,-0.268765 -0.04263,-0.08006 -0.04991,-0.24955 -0.02978,-0.692535 0.01467,-0.322595 0.05044,-0.689466 0.07948,-0.815276 0.02903,-0.125809 0.07635,-0.237779 0.10513,-0.248824 0.03637,-0.01395 0.04133,-0.05842 0.01627,-0.145796 -0.02129,-0.07423 -0.0194,-0.136006 0.0046,-0.150845 0.02237,-0.01381 0.03086,-0.041 0.01888,-0.0604 -0.01199,-0.0194 0.0073,-0.05943 0.04291,-0.08898 0.05712,-0.0474 0.05598,-0.06009 -0.0096,-0.108065 -0.05926,-0.04333 -0.06381,-0.06705 -0.02241,-0.116916 0.02856,-0.0344 0.03962,-0.07486 0.02456,-0.0899 -0.01503,-0.01504 -0.0068,-0.05208 0.01828,-0.08231 0.02509,-0.03023 0.0468,-0.07438 0.04826,-0.0981 0.0015,-0.02371 0.01504,-0.125877 0.03023,-0.227002 0.01515,-0.101125 0.04475,-0.194481 0.06574,-0.207451 0.021,-0.01295 0.03816,-0.06216 0.03816,-0.109306 0,-0.04715 0.0654,-0.225566 0.145323,-0.396478 0.07993,-0.170913 0.158826,-0.372501 0.175324,-0.44797 0.01649,-0.07547 0.05787,-0.160348 0.09193,-0.188617 0.03406,-0.02826 0.06194,-0.107261 0.06194,-0.17553 0,-0.06827 0.0194,-0.12413 0.04314,-0.12413 0.02372,0 0.04314,-0.02911 0.04314,-0.06471 0,-0.03559 0.0194,-0.06471 0.04314,-0.06471 0.02372,0 0.04314,-0.04714 0.04314,-0.104762 0,-0.05762 0.03067,-0.135425 0.06814,-0.172901 0.03747,-0.03748 0.09086,-0.160188 0.118629,-0.272693 0.03495,-0.14159 0.08036,-0.217658 0.147549,-0.247134 0.05338,-0.02342 0.09706,-0.07589 0.09706,-0.1166 0,-0.04072 0.02253,-0.123461 0.05007,-0.18389 0.02755,-0.06043 0.08241,-0.109873 0.121942,-0.109873 0.05426,0 0.06751,-0.02974 0.05407,-0.121317 -0.01307,-0.08898 0.01173,-0.149347 0.093,-0.226473 0.06094,-0.05783 0.111142,-0.130384 0.111552,-0.161219 3.72e-4,-0.03082 0.03001,-0.112669 0.0658,-0.18185 0.04257,-0.08232 0.08746,-0.117185 0.129901,-0.100898 0.04515,0.01731 0.05721,0.005 0.03968,-0.04073 -0.01385,-0.03607 0.0058,-0.125605 0.04375,-0.198922 0.03792,-0.07332 0.09271,-0.133728 0.121752,-0.134241 0.02903,-3.73e-4 0.08193,-0.0636 0.11752,-0.140198 0.04065,-0.08748 0.101736,-0.144512 0.164283,-0.153376 0.0782,-0.01109 0.08919,-0.02662 0.05121,-0.0724 -0.03629,-0.04372 -0.03123,-0.09138 0.02018,-0.190788 0.05467,-0.10571 0.09665,-0.13279 0.207614,-0.133884 0.124876,-0.0012 0.131375,-0.0072 0.0636,-0.05867 -0.04151,-0.03153 -0.07549,-0.07852 -0.07549,-0.104441 0,-0.02595 0.02253,-0.09658 0.05007,-0.157013 0.02888,-0.06339 0.08587,-0.109874 0.134692,-0.109874 0.06979,0 0.07535,-0.01116 0.03171,-0.06378 -0.04255,-0.05126 -0.03667,-0.09145 0.03004,-0.2049 0.0618,-0.105131 0.109713,-0.138657 0.187848,-0.131442 0.05768,0.0054 0.08326,-2.58e-4 0.05684,-0.01243 -0.03156,-0.01452 0.0074,-0.158465 0.1137,-0.419492 0.08896,-0.218566 0.214645,-0.513859 0.279308,-0.656216 0.06466,-0.142353 0.142893,-0.336473 0.173846,-0.431373 0.03097,-0.0949 0.147807,-0.386081 0.259668,-0.647066 0.111861,-0.260982 0.200787,-0.524615 0.197619,-0.585852 -0.003,-0.06124 0.02379,-0.206828 0.05993,-0.323534 0.03615,-0.116703 0.0935,-0.404812 0.127481,-0.640239 0.03399,-0.235429 0.04866,-0.448958 0.03265,-0.474514 -0.01605,-0.02554 -0.03053,-0.06588 -0.03224,-0.0896 -0.0019,-0.02372 -0.01884,-0.159607 -0.03806,-0.30196 -0.0193,-0.142346 -0.05914,-0.297639 -0.08862,-0.345091 -0.02949,-0.04746 -0.07904,-0.16384 -0.110119,-0.258644 -0.03109,-0.0948 -0.130883,-0.250097 -0.221765,-0.345102 -0.09088,-0.095 -0.165451,-0.185233 -0.165704,-0.200519 -2.61e-4,-0.0153 -0.194559,-0.138645 -0.43178,-0.274137 -0.237224,-0.135493 -0.504136,-0.263793 -0.593144,-0.285109 -0.089,-0.02133 -0.268595,-0.05025 -0.399083,-0.06428 -0.130493,-0.01403 -0.296845,-0.05334 -0.369671,-0.08735 -0.07283,-0.03402 -0.215737,-0.14673 -0.317569,-0.250491 -0.147871,-0.150669 -0.189542,-0.227567 -0.206937,-0.381899 -0.01199,-0.106286 0.0012,-0.262293 0.02885,-0.346689 0.03873,-0.117348 0.09572,-0.175268 0.242291,-0.246221 0.105406,-0.05103 0.191648,-0.101896 0.191648,-0.113041 0,-0.01113 -0.01623,-0.01023 -0.03611,0.0022 -0.01988,0.01228 -0.0781,-0.0072 -0.129414,-0.04304 -0.07335,-0.05138 -0.0933,-0.109115 -0.0933,-0.269965 0,-0.112539 -0.01824,-0.22306 -0.04055,-0.245597 -0.02234,-0.02256 -0.05279,-0.645528 -0.0678,-1.386013 -0.015,-0.739767 -0.01333,-1.4380936 0.0038,-1.5518348 0.0211,-0.1408825 0.06918,-0.2449709 0.15076,-0.3265481 0.117816,-0.1178178 0.128322,-0.1197647 0.651499,-0.1207698 l 0.531754,-0.00114 0.189198,-0.4519224 0.189199,-0.4519224 h 0.309536 c 0.251877,0 0.327118,0.016379 0.403941,0.087955 0.05193,0.048377 0.09441,0.1260256 0.09441,0.172551 0,0.060191 0.02945,0.084596 0.102027,0.084596 0.05612,0 0.150445,0.038085 0.209623,0.084634 0.06075,0.047789 0.131938,0.1715758 0.163502,0.2843225 l 0.05592,0.1996852 4.980015,-0.03183 c 4.240859,-0.027104 4.985673,-0.022893 5.01816,0.028441 0.021,0.033131 0.03845,0.1136296 0.03881,0.1788756 l 7.2e-4,0.1186287 h 2.54159 c 1.397875,0 2.572406,-0.011839 2.610068,-0.026282 0.03847,-0.014778 0.08023,-0.099829 0.09531,-0.19412 l 0.02684,-0.1678416 5.311192,-7.197e-4 c 2.92116,-3.46e-4 5.336501,-0.016715 5.367432,-0.036334 0.03094,-0.019619 0.07334,-0.1567152 0.09426,-0.3046595 0.03038,-0.214989 0.0624,-0.2899586 0.15945,-0.3734274 0.06679,-0.057434 0.141248,-0.1044567 0.165464,-0.1044867 0.02423,-2.58e-5 0.217937,0.1746545 0.43048,0.3881878 l 0.386438,0.3882357 h 0.4766 c 0.354997,0 0.500298,0.016602 0.569489,0.065068 0.05109,0.035777 0.121083,0.1215657 0.155532,0.1906203 0.05077,0.1017877 0.06564,0.4542345 0.07846,1.8617356 0.01035,1.133256 7.19e-4,1.74117 -0.02729,1.750555 -0.02372,0.0079 -0.04139,0.135306 -0.03923,0.283105 0.0022,0.147803 -0.03421,0.424427 -0.08083,0.614728 -0.04661,0.190296 -0.09712,0.510997 -0.112256,0.712662 -0.01515,0.20167 -0.05111,0.408253 -0.07996,0.459078 -0.02885,0.05082 -0.112051,0.142561 -0.184902,0.203865 -0.07286,0.0613 -0.194615,0.139397 -0.270582,0.173545 -0.07597,0.03414 -0.293418,0.08222 -0.483226,0.106821 -0.189806,0.02461 -0.957601,0.05781 -1.706219,0.07378 -1.246148,0.02658 -1.367305,0.02286 -1.434327,-0.04416 -0.04026,-0.04026 -0.07321,-0.11064 -0.07321,-0.156399 0,-0.04576 -0.02911,-0.08319 -0.06471,-0.08319 -0.03559,0 -0.05985,0.02282 -0.05392,0.05068 0.0059,0.02788 -0.07461,0.09887 -0.17898,0.15776 -0.182956,0.103229 -0.230169,0.108378 -1.315697,0.143445 -0.619266,0.01999 -1.650056,0.05814 -2.290648,0.08473 -0.640592,0.02658 -1.417068,0.06344 -1.725501,0.08187 -0.308434,0.01842 -0.648144,0.06001 -0.75491,0.09239 -0.106765,0.03239 -0.274532,0.101632 -0.372821,0.153887 -0.09828,0.05226 -0.245317,0.17284 -0.326745,0.267969 -0.08142,0.09513 -0.168843,0.24072 -0.194261,0.323536 -0.0413,0.134558 -0.03704,0.153491 0.0401,0.177971 0.07045,0.02237 0.08139,0.05196 0.05956,0.161104 -0.0147,0.07354 -0.05071,0.148935 -0.08002,0.167549 -0.04207,0.02673 -0.04193,0.03399 7.2e-4,0.03451 0.03272,3.73e-4 0.05393,0.05996 0.05393,0.151641 0,0.127425 -0.01515,0.151187 -0.09706,0.152292 -0.08668,0.0012 -0.08899,0.006 -0.02156,0.04528 0.0438,0.0255 0.07549,0.0953 0.07549,0.166208 0,0.0885 -0.02681,0.131088 -0.09706,0.154314 l -0.09706,0.03209 0.09706,0.01909 c 0.07808,0.01537 0.09706,0.04803 0.09706,0.167075 0,0.102782 -0.01977,0.147982 -0.06471,0.147982 -0.03559,0 -0.06471,0.01943 -0.06471,0.04314 0,0.02371 0.03882,0.04314 0.08628,0.04314 0.04746,0 0.08654,0.02428 0.08687,0.05393 3.72e-4,0.02967 0.01228,0.0976 0.02658,0.150982 0.021,0.07828 0.0083,0.09706 -0.0653,0.09706 -0.05021,0 -0.09131,0.0194 -0.09131,0.04314 0,0.02371 0.04627,0.04314 0.102815,0.04314 0.07015,0 0.111076,0.03082 0.128821,0.09706 0.01429,0.05338 0.02628,0.121324 0.02662,0.150978 3.73e-4,0.02967 -0.02967,0.05393 -0.06667,0.05393 -0.03701,0 -0.05686,0.01682 -0.04417,0.03735 0.01269,0.02055 0.0693,0.02852 0.125799,0.01772 0.08699,-0.01664 0.106925,0.0015 0.130251,0.118059 0.01515,0.07573 0.01597,0.156436 0.0019,0.179341 -0.01415,0.02289 -0.05289,0.03124 -0.08609,0.0185 -0.03481,-0.01336 -0.06034,0.0038 -0.06034,0.0402 0,0.03881 0.04177,0.06335 0.107845,0.06335 0.05932,0 0.108108,0.02428 0.108436,0.05393 3.72e-4,0.02967 0.01266,0.09905 0.02743,0.15422 0.01909,0.07134 0.0096,0.09789 -0.03295,0.09195 -0.03288,-0.0046 -0.08217,-0.0061 -0.109505,-0.0034 -0.02733,0.003 -0.0695,0.06191 -0.0937,0.13133 -0.0242,0.06942 -0.08919,0.155405 -0.14442,0.191075 -0.07841,0.05065 -0.374573,0.07551 -1.351404,0.113481 -0.688044,0.02673 -1.981372,0.0732 -2.87406,0.103232 -1.29143,0.04345 -1.714514,0.04374 -2.070605,0.0015 -0.280562,-0.03335 -0.613383,-0.110212 -0.892055,-0.205972 -0.244487,-0.08401 -0.508838,-0.192497 -0.587452,-0.241081 -0.07861,-0.04858 -0.201193,-0.08833 -0.272414,-0.08833 -0.08669,0 -0.187047,0.05046 -0.303639,0.152658 -0.09579,0.08396 -0.205083,0.229941 -0.242879,0.324404 -0.03779,0.09446 -0.06872,0.238742 -0.06872,0.320621 0,0.130899 -0.01694,0.153763 -0.140198,0.189355 -0.110238,0.03183 -0.119165,0.04132 -0.04178,0.04437 0.05413,0.0022 0.110089,0.03433 0.124363,0.0715 0.01426,0.03719 0.0012,0.113812 -0.029,0.170274 -0.03544,0.06625 -0.102513,0.108424 -0.189068,0.11893 l -0.134126,0.01627 0.142562,0.03499 c 0.108209,0.02658 0.135615,0.05178 0.113734,0.104628 -0.01586,0.03829 -0.0386,0.103597 -0.05054,0.145115 -0.01519,0.05282 -0.06878,0.07686 -0.17844,0.08008 l -0.156733,0.0046 0.118628,0.04687 c 0.06524,0.0258 0.118629,0.07293 0.118629,0.104774 0,0.03183 -0.03168,0.10624 -0.07039,0.165326 -0.04879,0.07445 -0.09512,0.09958 -0.150982,0.08185 -0.04433,-0.01407 -0.08059,-0.01281 -0.08059,0.0026 0,0.0156 0.03875,0.06058 0.08612,0.09997 0.06922,0.05756 0.09096,0.1436 0.110771,0.438291 l 0.02464,0.366666 -0.305444,0.308211 c -0.167991,0.169518 -0.355015,0.320655 -0.415605,0.335863 l -0.110159,0.02766 0.0945,0.07653 c 0.09142,0.07403 0.09214,0.08108 0.02219,0.21634 -0.05892,0.113941 -0.08985,0.134356 -0.167119,0.110308 -0.09389,-0.02922 -0.09384,-0.0287 0.005,0.05226 0.08701,0.07122 0.09389,0.09754 0.0534,0.204038 -0.02557,0.06725 -0.08553,0.13248 -0.133248,0.144962 -0.08208,0.02148 -0.08264,0.02576 -0.01027,0.07966 0.06991,0.05207 0.07087,0.06725 0.01113,0.176248 -0.03596,0.0656 -0.113596,0.130976 -0.172552,0.145279 l -0.107196,0.02602 0.09827,0.05344 c 0.05404,0.02941 0.08993,0.06703 0.07973,0.08363 -0.0102,0.0166 -0.0019,0.1938 0.0182,0.393772 l 0.03674,0.363581 -0.418441,0.401104 c -0.230144,0.220611 -0.442709,0.40156 -0.472368,0.402111 -0.02967,3.71e-4 -0.05392,0.01835 -0.05392,0.03953 0,0.02118 0.02911,0.0497 0.06471,0.06336 0.0356,0.01367 0.06409,0.05941 0.06334,0.101673 -7.19e-4,0.04226 -0.02717,0.110815 -0.05867,0.152337 -0.03153,0.04152 -0.09399,0.07608 -0.138827,0.0768 -0.07722,0.0012 -0.07697,0.0039 0.0047,0.0495 0.04746,0.0265 0.09325,0.05391 0.101773,0.06092 0.0085,0.007 -0.01027,0.07092 -0.04174,0.142045 -0.03149,0.07112 -0.09669,0.140178 -0.14491,0.153457 -0.07261,0.01999 -0.07682,0.03112 -0.02453,0.06473 0.05497,0.03533 0.05387,0.06001 -0.0085,0.190822 -0.04494,0.09423 -0.107789,0.155483 -0.168612,0.164317 -0.08267,0.01202 -0.104532,0.05546 -0.148172,0.294478 -0.02814,0.154217 -0.06486,0.435688 -0.08157,0.625494 -0.02874,0.32677 -0.03991,0.355584 -0.209986,0.542459 -0.09871,0.108565 -0.334835,0.314352 -0.52464,0.457323 -0.189805,0.142967 -0.440033,0.299351 -0.556055,0.347517 l -0.210954,0.08757 0.0084,0.383389 0.0084,0.383386 -0.238698,0.263769 c -0.147248,0.162716 -0.284505,0.272798 -0.358261,0.287331 -0.06575,0.01295 -0.245742,0.05429 -0.399959,0.09187 -0.154217,0.03757 -0.532748,0.07755 -0.841182,0.08885 -0.308434,0.01132 -1.650901,0.02903 -2.983256,0.03941 z M 61.140132,19.248117 c 0.723633,-0.01321 1.548637,-0.03768 1.833347,-0.0544 0.359035,-0.02107 0.567379,-0.05429 0.679943,-0.108388 0.08926,-0.0429 0.26651,-0.178932 0.393895,-0.302306 0.127381,-0.123372 0.262936,-0.284907 0.301231,-0.358965 0.03829,-0.07406 0.08814,-0.266826 0.110744,-0.42837 0.02337,-0.167123 0.02717,-0.528363 0.0088,-0.838145 -0.02375,-0.400628 -0.05193,-0.574389 -0.106604,-0.65785 -0.04087,-0.06238 -0.06444,-0.113418 -0.05238,-0.113418 0.01206,0 -0.01176,-0.05516 -0.05293,-0.122585 -0.04117,-0.06742 -0.168563,-0.203586 -0.283098,-0.302582 -0.11453,-0.099 -0.260118,-0.205813 -0.323533,-0.237366 -0.0634,-0.03156 -0.20732,-0.08228 -0.319806,-0.112725 -0.165686,-0.04485 -0.354062,-0.04512 -0.992164,-0.0015 -0.433206,0.02963 -1.086611,0.08624 -1.452009,0.125791 l -0.664362,0.07191 -0.05178,0.175358 c -0.02848,0.09644 -0.110171,0.260698 -0.181542,0.365003 -0.07137,0.104303 -0.162104,0.252736 -0.201642,0.329843 -0.03954,0.07711 -0.06141,0.140197 -0.04863,0.140197 0.01281,0 -0.0058,0.0697 -0.04146,0.154884 -0.05064,0.121197 -0.05389,0.175145 -0.01496,0.248042 0.02736,0.05124 0.162979,0.259719 0.301393,0.463295 0.149207,0.219455 0.251653,0.41633 0.251653,0.483617 0,0.06241 -0.04368,0.154924 -0.09706,0.205578 -0.05338,0.05065 -0.142427,0.109809 -0.197883,0.131457 l -0.100816,0.03936 0.08915,0.139836 c 0.04903,0.07691 0.111805,0.182937 0.139509,0.235616 0.03907,0.0743 0.03809,0.110584 -0.0044,0.161766 -0.03012,0.0363 -0.09607,0.06568 -0.146541,0.06533 -0.05048,-3.47e-4 -0.115056,-0.01545 -0.143504,-0.03354 -0.02844,-0.01809 -0.159477,-0.128863 -0.291179,-0.246177 -0.131699,-0.117311 -0.239454,-0.230513 -0.239454,-0.251556 0,-0.02103 -0.04368,-0.08664 -0.09706,-0.145775 -0.05338,-0.05913 -0.131028,-0.144366 -0.172546,-0.189414 -0.04152,-0.04505 -0.07549,-0.09519 -0.07549,-0.111429 0,-0.01623 -0.0728,-0.145477 -0.161767,-0.287193 -0.08899,-0.141709 -0.235061,-0.335006 -0.324616,-0.429546 -0.08955,-0.09454 -0.174765,-0.159943 -0.189365,-0.145346 -0.0146,0.0146 0.01705,0.206624 0.07034,0.426725 0.05327,0.220103 0.117797,0.439007 0.143373,0.48646 0.02557,0.04746 0.07208,0.136874 0.103346,0.198714 0.03127,0.06184 0.158726,0.208161 0.283244,0.325156 0.124518,0.116994 0.300468,0.258034 0.390998,0.313418 0.09053,0.05538 0.265233,0.126469 0.388236,0.157956 0.172845,0.04425 0.522496,0.0518 1.539341,0.03324 z m -2.954928,-1.999085 c 0.01188,0 0.02156,-0.0097 0.02156,-0.02155 0,-0.01187 -0.0097,-0.02156 -0.02156,-0.02156 -0.01187,0 -0.02155,0.0097 -0.02155,0.02156 0,0.01187 0.0097,0.02155 0.02155,0.02155 z m 7.333393,-0.345102 c 0.01188,0 0.02156,-0.0097 0.02156,-0.02155 0,-0.01187 -0.0097,-0.02156 -0.02156,-0.02156 -0.01188,0 -0.02155,0.0097 -0.02155,0.02156 0,0.01187 0.0097,0.02155 0.02155,0.02155 z m -38.717198,6.717191 c -1.649597,0.0094 -3.013287,0.003 -3.030414,-0.01411 -0.01713,-0.01713 -0.03116,-0.190986 -0.03116,-0.386345 v -0.355202 l 0.280887,-0.227899 c 0.195847,-0.158898 0.264414,-0.238357 0.226473,-0.262442 -0.02993,-0.01899 -0.148674,-0.03484 -0.263879,-0.03522 -0.115203,-3.43e-4 -0.328732,-0.03138 -0.47451,-0.06891 -0.145778,-0.03753 -0.362115,-0.12444 -0.48074,-0.193119 -0.118629,-0.06869 -0.275626,-0.198117 -0.348888,-0.287639 -0.07326,-0.08952 -0.158576,-0.210429 -0.189596,-0.268688 -0.04264,-0.08007 -0.04967,-0.246244 -0.02881,-0.680859 0.01515,-0.316215 0.04929,-0.666492 0.07584,-0.778393 0.02654,-0.111906 0.08704,-0.237433 0.134449,-0.278955 0.04865,-0.04261 0.06285,-0.07549 0.03261,-0.07549 -0.03747,0 -0.04594,-0.04696 -0.02818,-0.156331 0.01396,-0.08598 0.05833,-0.192745 0.0986,-0.237258 0.06901,-0.07625 0.06882,-0.08092 -0.0034,-0.08092 -0.05808,0 -0.07028,-0.0233 -0.05081,-0.09706 0.01407,-0.05338 0.05989,-0.232944 0.101769,-0.399025 0.04188,-0.166077 0.09571,-0.316226 0.119612,-0.333655 0.0239,-0.01742 0.03045,-0.03198 0.0146,-0.03235 -0.01589,-3.46e-4 -0.0088,-0.07346 0.0156,-0.162425 0.02446,-0.08897 0.05705,-0.171472 0.07242,-0.183335 0.01537,-0.01188 0.07054,-0.128334 0.122597,-0.258827 0.05205,-0.130489 0.107156,-0.289844 0.122456,-0.354114 0.0153,-0.06428 0.05503,-0.139447 0.08829,-0.16705 0.03328,-0.02762 0.06091,-0.09149 0.06144,-0.141965 3.73e-4,-0.05048 0.03892,-0.140309 0.08531,-0.199622 0.0464,-0.05932 0.08479,-0.137496 0.08531,-0.173735 3.73e-4,-0.03626 0.03492,-0.11389 0.07645,-0.172551 0.04152,-0.05867 0.0949,-0.183865 0.118629,-0.278225 0.0287,-0.114199 0.0792,-0.189448 0.150982,-0.225043 0.05931,-0.02941 0.108529,-0.08809 0.109371,-0.130396 7.2e-4,-0.04231 0.0258,-0.120599 0.05544,-0.173981 0.02967,-0.05338 0.08234,-0.09706 0.117098,-0.09706 0.04283,0 0.06319,-0.04623 0.06319,-0.143462 0,-0.09725 0.03474,-0.176096 0.107844,-0.244777 0.05932,-0.05572 0.107844,-0.126134 0.107844,-0.15647 0,-0.03034 0.02267,-0.104881 0.05034,-0.16565 0.03596,-0.07889 0.07288,-0.103342 0.129141,-0.08549 0.0572,0.01816 0.0721,0.0075 0.05438,-0.03862 -0.01344,-0.03499 0.0066,-0.123624 0.04451,-0.196941 0.03792,-0.07332 0.0927,-0.133728 0.121748,-0.134242 0.02903,-3.72e-4 0.08193,-0.0636 0.117523,-0.140194 0.04064,-0.08747 0.101736,-0.144516 0.164284,-0.15338 0.0782,-0.01109 0.08919,-0.02662 0.05122,-0.07239 -0.0363,-0.04372 -0.03123,-0.09138 0.02014,-0.190788 0.05467,-0.105711 0.09665,-0.13279 0.207614,-0.133884 0.124875,-0.0012 0.131375,-0.0072 0.0636,-0.05867 -0.04151,-0.03153 -0.07549,-0.07852 -0.07549,-0.104441 0,-0.02591 0.02253,-0.09658 0.05007,-0.157013 0.02888,-0.06339 0.08587,-0.109874 0.134696,-0.109874 0.06979,0 0.07534,-0.01116 0.03171,-0.06378 -0.04256,-0.05127 -0.03667,-0.09145 0.03004,-0.2049 0.0618,-0.105131 0.109713,-0.138657 0.187844,-0.131442 0.05769,0.0054 0.08327,-2.58e-4 0.05684,-0.01243 -0.03156,-0.01452 0.0074,-0.158465 0.113699,-0.419492 0.08896,-0.218561 0.214647,-0.513859 0.279309,-0.656211 0.06465,-0.142357 0.142892,-0.336478 0.173846,-0.431378 0.03097,-0.09491 0.147844,-0.38608 0.259749,-0.647062 0.11191,-0.260986 0.200832,-0.521581 0.197612,-0.57911 -0.0034,-0.05752 0.03153,-0.2419366 0.07726,-0.4098048 0.04573,-0.1678702 0.102199,-0.4605127 0.125511,-0.650318 0.03015,-0.2456151 0.02748,-0.4526451 -0.0093,-0.7181497 -0.02844,-0.2051798 -0.07262,-0.3992956 -0.09817,-0.4313773 -0.02554,-0.032087 -0.07147,-0.1358907 -0.102059,-0.2306946 -0.03053,-0.0948 -0.129925,-0.2500971 -0.220809,-0.3450984 C 26.662064,7.3403833 26.587497,7.2501508 26.587239,7.2348656 26.586983,7.219559 26.394509,7.0972525 26.159515,6.9630335 25.863805,6.7941345 25.628052,6.6946697 25.39382,6.6399844 25.207686,6.596525 24.983096,6.5482032 24.894736,6.532605 24.787927,6.5137663 24.66004,6.4361523 24.513178,6.3010881 24.322431,6.125663 24.289207,6.0706617 24.269779,5.8981442 c -0.01236,-0.1098845 3.01e-4,-0.2688364 0.02814,-0.3532325 0.03903,-0.1182448 0.09571,-0.1752644 0.247111,-0.2485552 l 0.196473,-0.095109 -0.134239,-0.056445 c -0.127309,-0.05353 -0.134233,-0.068786 -0.134233,-0.2957811 0,-0.1316353 -0.01943,-0.2393385 -0.04321,-0.2393385 -0.02803,0 -0.04233,-0.4969364 -0.04071,-1.4141753 0.0015,-0.777797 0.01981,-1.4911852 0.04095,-1.5853079 0.02141,-0.095277 0.08832,-0.2141517 0.150956,-0.2681892 0.103222,-0.089049 0.155915,-0.097145 0.638537,-0.09808 l 0.52603,-0.00114 0.189198,-0.4519224 0.189198,-0.4519224 h 0.309533 c 0.251879,0 0.327121,0.0163794 0.403945,0.0879548 0.05193,0.0483775 0.09441,0.12602559 0.09441,0.17255105 0,0.0601901 0.02944,0.0845965 0.102025,0.0845965 0.05612,0 0.150446,0.0380854 0.209625,0.084634 0.05917,0.0465486 0.131468,0.16991144 0.16065,0.27413357 l 0.05305,0.1895006 4.983138,0.021928 c 4.183586,0.018425 4.989217,0.03153 5.021016,0.081753 0.02085,0.032909 0.03817,0.1131858 0.03854,0.1784324 l 7.21e-4,0.1186287 h 2.609314 2.609312 l 0.02833,-0.1772341 0.02833,-0.1772377 5.36132,0.032088 5.361318,0.032088 0.02643,-0.1675921 c 0.01452,-0.092176 0.03536,-0.22360656 0.04628,-0.29206552 0.01091,-0.0684593 0.07319,-0.17034746 0.138393,-0.22642123 0.06519,-0.0560729 0.138355,-0.10197003 0.16257,-0.10200006 0.02423,-2.932e-5 0.217937,0.17465443 0.43048,0.38818418 L 54.689148,1.331111 h 0.476597 c 0.354996,0 0.500301,0.016602 0.569493,0.065064 0.05109,0.035776 0.123353,0.1261228 0.160584,0.2007462 0.05809,0.1164474 0.06768,0.379559 0.06768,1.8559131 0,1.3364174 -0.01202,1.7248355 -0.05392,1.7408691 -0.03588,0.013734 -0.05162,0.1059753 -0.04704,0.2756115 0.0038,0.1402348 -0.03261,0.4166655 -0.08083,0.6142887 -0.04824,0.1976226 -0.100093,0.5243123 -0.115226,0.7259816 -0.01515,0.2016693 -0.05182,0.4095594 -0.08151,0.4619776 -0.0297,0.05242 -0.116826,0.1415225 -0.193614,0.1980095 -0.07679,0.05648 -0.197856,0.1238035 -0.269033,0.1495978 -0.07118,0.025796 -0.28471,0.066791 -0.474516,0.091107 -0.189804,0.024309 -0.957599,0.057284 -1.706218,0.073261 -1.246147,0.026582 -1.367303,0.022857 -1.434325,-0.044155 -0.04026,-0.040263 -0.07321,-0.1106439 -0.07321,-0.1563986 0,-0.045757 -0.02911,-0.083193 -0.06471,-0.083193 -0.03559,0 -0.05985,0.024086 -0.05392,0.053499 0.0059,0.029407 -0.07297,0.095954 -0.175332,0.1478434 -0.102361,0.051892 -0.306186,0.1054211 -0.452943,0.1189567 -0.146761,0.013548 -1.383017,0.054004 -2.747242,0.089927 -1.961617,0.051652 -2.54357,0.080022 -2.782376,0.1356297 -0.166081,0.038674 -0.391992,0.1153119 -0.502029,0.1703103 -0.110038,0.054999 -0.266778,0.1779375 -0.348319,0.2731955 -0.08154,0.095258 -0.169044,0.2409579 -0.194462,0.3237749 -0.04076,0.1328048 -0.03656,0.1536402 0.03559,0.1765347 0.04498,0.014256 0.08152,0.048917 0.08119,0.076973 -3.47e-4,0.02807 -0.01202,0.093602 -0.02595,0.1456512 -0.01395,0.052048 -0.06708,0.1027894 -0.11804,0.1127545 -0.0907,0.017717 -0.0906,0.018239 0.0044,0.024009 0.08105,0.00492 0.09706,0.030786 0.09706,0.1568563 0,0.1274253 -0.01515,0.1511863 -0.09706,0.152293 -0.08668,0.00116 -0.08899,0.00608 -0.02155,0.045284 0.04379,0.025502 0.07549,0.095299 0.07549,0.1662074 0,0.088503 -0.02681,0.1310884 -0.09706,0.1543144 l -0.09706,0.03209 0.09706,0.01909 c 0.07808,0.01538 0.09706,0.04803 0.09706,0.167074 0,0.102782 -0.01976,0.147982 -0.06471,0.147982 -0.0356,0 -0.06471,0.01943 -0.06471,0.04314 0,0.02371 0.03882,0.04314 0.08628,0.04314 0.04746,0 0.08654,0.02427 0.08687,0.05393 3.47e-4,0.02967 0.01228,0.0976 0.02662,0.150983 0.021,0.07828 0.0083,0.09706 -0.0653,0.09706 -0.05023,0 -0.09131,0.0194 -0.09131,0.04314 0,0.02371 0.04627,0.04314 0.102811,0.04314 0.07016,0 0.111076,0.03082 0.128826,0.09706 0.01429,0.05338 0.02628,0.121328 0.02662,0.150982 3.43e-4,0.02967 -0.02967,0.05392 -0.06667,0.05392 -0.037,0 -0.05687,0.01679 -0.04417,0.03736 0.01269,0.02055 0.0693,0.02851 0.125795,0.01772 0.087,-0.01664 0.106925,0.0015 0.130251,0.118059 0.01515,0.07573 0.01597,0.156436 0.0019,0.17934 -0.01415,0.02289 -0.05289,0.03123 -0.08608,0.0185 -0.03481,-0.01336 -0.06035,0.0038 -0.06035,0.04019 0,0.03882 0.04176,0.06336 0.107845,0.06336 0.05931,0 0.108108,0.02427 0.108432,0.05392 3.46e-4,0.02967 0.01269,0.09906 0.02743,0.154221 0.01909,0.07134 0.0096,0.09789 -0.03295,0.09195 -0.03287,-0.0046 -0.08216,-0.0061 -0.109504,-0.0034 -0.02733,0.003 -0.0695,0.06191 -0.0937,0.13133 -0.0242,0.06942 -0.09037,0.156599 -0.147047,0.193737 -0.08564,0.05612 -0.324836,0.07143 -1.416111,0.09063 -0.722189,0.01274 -2.014746,0.04822 -2.872352,0.07889 -1.243099,0.04447 -1.649847,0.04502 -2.005898,0.0026 -0.27961,-0.03324 -0.612832,-0.110237 -0.891132,-0.205868 -0.244487,-0.08401 -0.508842,-0.192496 -0.587452,-0.241081 -0.07861,-0.04858 -0.200854,-0.08833 -0.271654,-0.08833 -0.07079,0 -0.194686,0.04383 -0.275304,0.09741 -0.08062,0.05358 -0.190251,0.183864 -0.243634,0.289535 -0.05338,0.10567 -0.09706,0.266149 -0.09706,0.356615 0,0.148254 -0.01277,0.167042 -0.129413,0.190372 -0.07118,0.01422 -0.129413,0.04286 -0.129413,0.06363 0,0.02077 0.03769,0.03775 0.08373,0.03775 0.04605,0 0.09687,0.02126 0.112934,0.04725 0.01605,0.02598 0.0042,0.09393 -0.02632,0.150982 -0.03984,0.07444 -0.09304,0.104118 -0.188424,0.105104 -0.123181,0.0012 -0.127075,0.0058 -0.05322,0.06174 0.04383,0.03321 0.110283,0.04863 0.147684,0.03428 0.05328,-0.02044 0.06066,-0.0081 0.03406,0.05689 -0.01869,0.04563 -0.04344,0.1159 -0.05504,0.156131 -0.0137,0.0475 -0.07626,0.07832 -0.17844,0.0879 l -0.157348,0.01474 0.118629,0.05123 c 0.06524,0.02817 0.118629,0.07181 0.118629,0.09695 0,0.02513 -0.03168,0.09406 -0.07039,0.153152 -0.04879,0.07446 -0.09512,0.09958 -0.150978,0.08185 -0.04432,-0.01407 -0.08059,-0.01095 -0.08059,0.0069 0,0.01787 0.03842,0.07338 0.08537,0.123363 0.06449,0.06865 0.0914,0.174875 0.109982,0.434155 l 0.02461,0.343274 -0.304656,0.308211 c -0.167558,0.169513 -0.355112,0.320875 -0.416785,0.336353 -0.10774,0.02702 -0.109184,0.03138 -0.03689,0.111277 0.06541,0.07228 0.068,0.100616 0.01981,0.216958 -0.04165,0.100552 -0.07622,0.128383 -0.139073,0.111943 -0.07914,-0.02069 -0.07971,-0.01753 -0.01054,0.05891 0.05674,0.0627 0.06407,0.107885 0.03276,0.201904 -0.02859,0.08589 -0.07694,0.127879 -0.166193,0.144349 -0.117038,0.0216 -0.119053,0.02509 -0.02881,0.04989 0.05338,0.01466 0.09706,0.05887 0.09706,0.09824 0,0.03937 -0.0201,0.109128 -0.04465,0.15502 -0.02691,0.05033 -0.09114,0.08398 -0.161767,0.08481 -0.113078,0.0015 -0.114184,0.0038 -0.03209,0.06564 0.05389,0.04074 0.08821,0.123149 0.09376,0.2251 0.0048,0.08846 0.02002,0.277804 0.03384,0.420768 0.02263,0.234581 0.01582,0.266142 -0.06977,0.323533 -0.05217,0.03499 -0.222117,0.180715 -0.377662,0.323861 -0.155551,0.143142 -0.330502,0.293368 -0.388784,0.33383 -0.103188,0.07164 -0.103783,0.07517 -0.02274,0.134423 0.07628,0.05578 0.07792,0.07079 0.01969,0.179833 -0.03495,0.06543 -0.0983,0.128095 -0.140782,0.139241 -0.07231,0.01899 -0.07183,0.02405 0.0074,0.07957 0.07849,0.05498 0.07997,0.06876 0.02018,0.188628 -0.03548,0.07113 -0.0922,0.129318 -0.126054,0.129318 -0.03384,0 -0.06155,0.01552 -0.06155,0.03451 0,0.01899 0.01895,0.05345 0.04208,0.0766 0.02736,0.02736 0.01247,0.09077 -0.0425,0.18118 -0.05029,0.08268 -0.119836,0.139093 -0.171498,0.139093 -0.06742,0 -0.08691,0.02844 -0.08691,0.126866 0,0.06978 -0.01974,0.139062 -0.04384,0.153964 -0.02413,0.01489 -0.03209,0.0461 -0.01776,0.06932 0.01437,0.02323 0.01217,0.07526 -0.0048,0.115647 -0.01701,0.04039 -0.0271,0.153949 -0.02241,0.252368 0.0047,0.09842 -0.01352,0.192582 -0.04049,0.209259 -0.02699,0.01668 -0.04358,0.0939 -0.03689,0.171617 0.0099,0.115428 -0.02308,0.18042 -0.180406,0.354955 -0.10592,0.117513 -0.347875,0.330908 -0.537681,0.474214 -0.189805,0.143306 -0.437233,0.297058 -0.549842,0.341674 l -0.204741,0.08112 -1.71e-4,0.391672 -1.75e-4,0.391672 -0.236773,0.261644 c -0.155561,0.1719 -0.270229,0.261865 -0.334314,0.262288 -0.05365,3.43e-4 -0.223722,0.03462 -0.377939,0.07615 -0.25119,0.06764 -0.592758,0.07728 -3.279665,0.09255 z M 24.537886,15.2647 c 0.01187,0 0.02155,-0.0097 0.02155,-0.02156 0,-0.01187 -0.0097,-0.02155 -0.02155,-0.02155 -0.01188,0 -0.02156,0.0097 -0.02156,0.02155 0,0.01187 0.0097,0.02156 0.02156,0.02156 z m 14.176576,-3.585189 c 0.204904,0.0026 1.008086,-0.01582 1.784856,-0.041 1.219954,-0.03955 1.442832,-0.0572 1.636427,-0.129633 0.130477,-0.04882 0.31506,-0.170132 0.441767,-0.290343 0.119701,-0.113569 0.24943,-0.267965 0.288283,-0.343102 0.03886,-0.07514 0.08953,-0.278151 0.112599,-0.451141 0.02464,-0.18484 0.02803,-0.5368698 0.0082,-0.85375 -0.029,-0.4630109 -0.05058,-0.5724966 -0.152717,-0.7746758 -0.06539,-0.1295045 -0.19848,-0.3042147 -0.29572,-0.3882419 -0.09724,-0.084031 -0.227038,-0.1866372 -0.288443,-0.2280142 -0.06141,-0.041379 -0.218413,-0.1066644 -0.348907,-0.1450744 -0.20892,-0.061498 -0.324839,-0.063932 -0.970594,-0.020398 -0.403335,0.027211 -1.005104,0.077851 -1.337267,0.1125722 -0.332158,0.034732 -0.66014,0.068045 -0.728848,0.074058 -0.10573,0.00927 -0.13292,0.038139 -0.176922,0.1879591 -0.02859,0.097365 -0.110386,0.2623667 -0.181756,0.3666704 -0.07137,0.1043043 -0.162105,0.2527362 -0.20164,0.3298433 -0.03954,0.07711 -0.06142,0.1401976 -0.04863,0.1401976 0.0128,0 -0.0059,0.069698 -0.04147,0.154883 -0.05064,0.1211974 -0.05389,0.1751456 -0.01496,0.2480422 0.02736,0.051228 0.16298,0.2597202 0.301391,0.4632905 0.14921,0.219457 0.251657,0.416335 0.251657,0.483618 0,0.06242 -0.04368,0.154929 -0.09706,0.205582 -0.05338,0.05065 -0.142428,0.109811 -0.197876,0.131453 l -0.100819,0.03936 0.08914,0.139838 c 0.04903,0.07691 0.11181,0.182932 0.139513,0.235615 0.03907,0.0743 0.03809,0.110585 -0.0044,0.161766 -0.03012,0.0363 -0.09606,0.06568 -0.146537,0.06532 -0.05048,-3.43e-4 -0.115055,-0.01545 -0.143503,-0.03354 -0.02847,-0.01809 -0.159506,-0.128863 -0.291205,-0.246177 -0.1317,-0.117311 -0.239455,-0.230512 -0.239455,-0.251555 0,-0.02103 -0.04367,-0.08664 -0.09706,-0.145775 -0.05336,-0.05913 -0.126157,-0.141322 -0.161746,-0.182655 -0.03559,-0.04133 -0.101884,-0.141278 -0.147322,-0.222099 -0.04544,-0.08082 -0.138653,-0.24803 -0.207138,-0.371573 -0.06849,-0.1235391 -0.19858,-0.2832695 -0.289088,-0.3549557 l -0.164565,-0.1303406 0.0813,0.33339 c 0.04471,0.1833623 0.0935,0.4013293 0.108413,0.4843693 0.01493,0.08304 0.0631,0.202507 0.107074,0.265483 0.04398,0.06298 0.07996,0.13282 0.07996,0.1552 0,0.02237 0.111619,0.146392 0.248038,0.275578 0.136422,0.129182 0.322111,0.280098 0.412641,0.335363 0.09053,0.05527 0.265234,0.125092 0.388236,0.155159 0.123003,0.03008 0.391289,0.05682 0.596189,0.05943 z"
   id="path596" /></svg>
