<?xml version="1.0" encoding="UTF-8" standalone="no"?>
<svg
   version="1.1"
   x="0px"
   y="0px"
   width="96.583px"
   height="32px"
   viewBox="0 0 96.583 32"
   enable-background="new 0 0 96.583 32"
   xml:space="preserve"
   id="svg137"
   sodipodi:docname="m1911_akimbo.svg"
   inkscape:version="1.2.1 (9c6d41e410, 2022-07-14)"
   xmlns:inkscape="http://www.inkscape.org/namespaces/inkscape"
   xmlns:sodipodi="http://sodipodi.sourceforge.net/DTD/sodipodi-0.dtd"
   xmlns="http://www.w3.org/2000/svg"
   xmlns:svg="http://www.w3.org/2000/svg"
   xmlns:rdf="http://www.w3.org/1999/02/22-rdf-syntax-ns#"
   xmlns:cc="http://creativecommons.org/ns#"
   xmlns:dc="http://purl.org/dc/elements/1.1/"><metadata
   id="metadata143"><rdf:RDF><cc:Work
       rdf:about=""><dc:format>image/svg+xml</dc:format><dc:type
         rdf:resource="http://purl.org/dc/dcmitype/StillImage" /></cc:Work></rdf:RDF></metadata><defs
   id="defs141" /><sodipodi:namedview
   pagecolor="#ffffff"
   bordercolor="#666666"
   borderopacity="1"
   objecttolerance="10"
   gridtolerance="10"
   guidetolerance="10"
   inkscape:pageopacity="0"
   inkscape:pageshadow="2"
   inkscape:window-width="1920"
   inkscape:window-height="1017"
   id="namedview139"
   showgrid="false"
   inkscape:zoom="8.8953001"
   inkscape:cx="32.713905"
   inkscape:cy="2.3607973"
   inkscape:window-x="-8"
   inkscape:window-y="-8"
   inkscape:window-maximized="1"
   inkscape:current-layer="svg137"
   inkscape:showpageshadow="2"
   inkscape:pagecheckerboard="0"
   inkscape:deskcolor="#d1d1d1" />

<g
   id="guides">
</g>
<path
   style="fill:#ffffff;stroke-width:0.0424339"
   d="m 49.345792,31.561907 c -0.29757,-0.0067 -0.731986,-0.03704 -0.965374,-0.06732 -0.233385,-0.03027 -1.130866,-0.149396 -1.994393,-0.264729 -0.863531,-0.115338 -1.808747,-0.241045 -2.100481,-0.279352 -0.291733,-0.03831 -0.568092,-0.09581 -0.614127,-0.127784 -0.04604,-0.03198 -0.160608,-0.05803 -0.254603,-0.05789 -0.09399,1.25e-4 -0.375246,-0.03102 -0.624999,-0.06922 -0.256728,-0.03928 -0.510947,-0.104035 -0.584892,-0.149006 -0.07194,-0.04375 -0.142784,-0.11078 -0.157435,-0.148962 -0.01465,-0.03818 0.04616,-0.281537 0.135143,-0.540792 0.08898,-0.25925 0.177991,-0.489508 0.197798,-0.511679 0.01981,-0.02217 0.03602,-0.07657 0.03602,-0.120887 0,-0.04432 0.02785,-0.140749 0.06189,-0.214294 0.03406,-0.07354 0.199341,-0.515619 0.36733,-0.982393 0.16799,-0.466772 0.397993,-1.116015 0.511121,-1.442754 0.113129,-0.326743 0.223348,-0.632267 0.244928,-0.678942 0.02157,-0.04668 0.07952,-0.208988 0.128742,-0.360688 0.04922,-0.151704 0.100923,-0.304464 0.114887,-0.339474 0.01398,-0.035 0.106681,-0.292793 0.20603,-0.572857 0.09935,-0.280064 0.287704,-0.812362 0.418567,-1.182882 0.130862,-0.370525 0.237933,-0.680822 0.237933,-0.689554 0,-0.0088 -0.181814,-0.01589 -0.404034,-0.01589 -0.391876,0 -0.405513,-0.0034 -0.45332,-0.108182 -0.03831,-0.08407 -0.03669,-0.14318 0.0073,-0.265209 0.03108,-0.08638 0.218177,-0.4912 0.415717,-0.899629 0.197544,-0.408424 0.430097,-0.895356 0.516783,-1.082064 0.08669,-0.18671 0.197612,-0.444495 0.246496,-0.572858 0.04888,-0.128361 0.112071,-0.3414 0.140419,-0.473414 0.03376,-0.157226 0.04091,-0.362159 0.02072,-0.594074 -0.02005,-0.230272 -0.07029,-0.447767 -0.14374,-0.622131 -0.06469,-0.153565 -0.221696,-0.395031 -0.367538,-0.565245 -0.223147,-0.260451 -0.299997,-0.317565 -0.622053,-0.462314 -0.204366,-0.09185 -0.552788,-0.202934 -0.785031,-0.250274 -0.229664,-0.04682 -0.560789,-0.120996 -0.735828,-0.164846 -0.175039,-0.04385 -0.404184,-0.122982 -0.509208,-0.175848 -0.105024,-0.05286 -0.288634,-0.169032 -0.408026,-0.258145 -0.134336,-0.100273 -0.267765,-0.25185 -0.350078,-0.397703 -0.08882,-0.15739 -0.133012,-0.293199 -0.133012,-0.408847 0,-0.09524 0.02168,-0.214876 0.04819,-0.265854 0.02649,-0.05098 0.05392,-0.09942 0.06094,-0.107657 0.007,-0.0082 0.192662,0.0823 0.412539,0.201186 0.219878,0.118883 0.531399,0.265997 0.692263,0.326912 0.257492,0.09751 0.330558,0.107455 0.610738,0.08313 0.175039,-0.01521 0.499658,-0.06512 0.721376,-0.110918 0.221719,-0.0458 0.498729,-0.129909 0.61558,-0.186901 0.11685,-0.057 0.296141,-0.185646 0.398427,-0.285897 0.102288,-0.100252 0.233594,-0.287298 0.291792,-0.415662 0.0661,-0.145795 0.117939,-0.360791 0.138118,-0.572858 0.01776,-0.186709 0.04576,-0.446788 0.0622,-0.577951 l 0.0299,-0.238481 -0.566452,-0.337296 c -0.464942,-0.276849 -0.591161,-0.373748 -0.704358,-0.540732 -0.107803,-0.159028 -0.137909,-0.247556 -0.137909,-0.405512 0,-0.111138 0.01132,-0.258607 0.02512,-0.327708 0.0138,-0.0691 0.08557,-0.190832 0.159439,-0.270514 0.07387,-0.07968 0.189576,-0.173524 0.257116,-0.208532 0.06984,-0.03619 0.234432,-0.06366 0.381595,-0.06366 0.195511,0 0.316051,0.02813 0.492989,0.115024 0.128808,0.06326 0.277702,0.155549 0.330871,0.205088 0.07752,0.07222 0.108891,0.07993 0.158319,0.0389 0.03389,-0.02813 0.06164,-0.07497 0.06164,-0.104063 0,-0.02908 0.09753,-0.241581 0.21674,-0.472184 0.121654,-0.235342 0.271534,-0.614753 0.341631,-0.864841 0.06868,-0.2450544 0.13462,-0.4928504 0.146518,-0.5506534 0.0119,-0.0578 0.05197,-0.1690291 0.08906,-0.2471648 l 0.06741,-0.1420688 0.555907,0.013774 0.55591,0.013774 0.662338,0.3267096 c 0.36428,0.179689 0.813019,0.367081 0.997195,0.416429 0.184176,0.04934 0.525818,0.100501 0.759203,0.1136694 0.270454,0.01526 0.448905,0.0453 0.492072,0.08284 0.05746,0.04997 0.442026,0.05166 2.536197,0.01122 1.807179,-0.0349 2.483656,-0.03505 2.525159,-6.7e-4 0.04134,0.0343 0.670427,0.0357 2.322493,0.0052 1.246186,-0.02304 2.380364,-0.0517 2.520398,-0.06366 0.14003,-0.01197 0.626961,-0.03191 1.082066,-0.04431 0.455102,-0.01241 3.052061,-0.06108 5.771015,-0.108165 2.718956,-0.04708 5.057414,-0.08121 5.196575,-0.07582 l 0.253023,0.0098 0.128885,-0.427055 c 0.07089,-0.2348827 0.1547,-0.4574978 0.186252,-0.4947061 0.04918,-0.057991 0.186723,-0.067683 0.963366,-0.067895 0.546895,-1.263e-4 0.916186,0.01626 0.931719,0.04139 0.01414,0.02291 0.05922,0.041635 0.100157,0.041635 0.04093,0 0.125735,0.05356 0.188448,0.1190157 0.102996,0.1075065 0.114024,0.1497466 0.114024,0.4367824 v 0.317766 l 0.137,0.0406 c 0.08446,0.02502 0.172806,0.09755 0.230378,0.18912 0.05136,0.08168 0.144026,0.210206 0.205927,0.285604 0.06191,0.07539 0.158521,0.204816 0.214698,0.287599 0.05618,0.08277 0.131021,0.206356 0.166313,0.274605 0.0353,0.06824 0.07857,0.263447 0.09617,0.433775 0.0176,0.170327 0.01932,0.443355 0.0039,0.606725 -0.01548,0.163373 -0.0405,0.363873 -0.05556,0.445557 -0.01508,0.08168 -0.05528,0.191217 -0.08934,0.243402 -0.03406,0.05218 -0.07205,0.204945 -0.08441,0.33947 -0.01238,0.134527 -0.02641,0.4183 -0.03123,0.630612 -0.0059,0.2643 -0.0282,0.409428 -0.07038,0.460255 -0.04242,0.05109 -0.06314,0.188721 -0.06647,0.441439 -0.0027,0.201965 -0.03086,0.449663 -0.06264,0.550436 -0.03181,0.100777 -0.09956,0.216073 -0.150592,0.256216 -0.05104,0.04014 -0.107622,0.119725 -0.125756,0.176846 -0.01814,0.05711 -0.08888,0.173445 -0.15723,0.258495 l -0.124266,0.154634 -2.16113,0.03146 -2.161138,0.03146 v 0.141374 c 0,0.07775 -0.02053,0.186439 -0.04563,0.241526 -0.02509,0.05509 -0.106255,0.132718 -0.180343,0.17252 -0.07409,0.0398 -0.297022,0.09096 -0.495401,0.113691 -0.198379,0.02273 -0.39337,0.04146 -0.433315,0.04165 -0.04893,2.1e-4 -0.08753,-0.05505 -0.118327,-0.169415 -0.02686,-0.09975 -0.07127,-0.169735 -0.107718,-0.169735 -0.03701,0 -0.06202,0.04068 -0.06202,0.10089 0,0.05549 -0.02796,0.124092 -0.06213,0.152453 -0.03877,0.03219 -0.28498,0.06038 -0.654648,0.07502 l -0.592512,0.02346 -0.02901,-0.154692 c -0.02544,-0.135568 -0.04418,-0.154695 -0.151607,-0.154695 -0.09162,0 -0.12258,0.02011 -0.12258,0.07967 0,0.04382 -0.02387,0.09871 -0.05304,0.121972 -0.02917,0.02325 -0.119879,0.0564 -0.201564,0.07363 -0.08168,0.01722 -0.334017,0.03998 -0.56074,0.05055 l -0.412222,0.01923 -0.02629,-0.11948 c -0.01445,-0.06572 -0.03362,-0.143348 -0.04261,-0.172519 -0.009,-0.02918 -0.08226,-0.05304 -0.162825,-0.05304 -0.128247,0 -0.149957,0.01586 -0.174435,0.127303 -0.02083,0.09483 -0.05199,0.127301 -0.12219,0.127301 -0.05182,0 -0.113816,0.0196 -0.137763,0.04354 -0.02775,0.02775 -0.749717,0.05242 -1.992272,0.06806 -1.479952,0.01862 -2.007733,0.03912 -2.193992,0.08525 -0.181238,0.04489 -0.320913,0.12144 -0.535085,0.293271 -0.161886,0.129882 -0.350866,0.330596 -0.428095,0.454677 -0.07605,0.12218 -0.164733,0.31762 -0.19708,0.434314 -0.03236,0.116695 -0.08824,0.364934 -0.124212,0.551642 -0.03597,0.186711 -0.08416,0.436023 -0.107106,0.55403 -0.02295,0.118006 -0.09928,0.337601 -0.169637,0.487988 -0.07036,0.150391 -0.205019,0.388006 -0.299251,0.52804 -0.112466,0.167128 -0.261279,0.315718 -0.433127,0.432487 -0.143987,0.09784 -0.376364,0.230051 -0.516398,0.293802 l -0.254603,0.115921 -2.503601,0.02911 c -1.728648,0.02011 -2.56515,0.04498 -2.702433,0.08035 -0.118944,0.03064 -0.273995,0.117389 -0.385903,0.215896 -0.109777,0.09662 -0.215442,0.240104 -0.255726,0.347225 -0.03775,0.100404 -0.08656,0.258936 -0.10846,0.352291 -0.02189,0.09336 -0.0974,0.389333 -0.167764,0.657727 -0.07037,0.268394 -0.188878,0.717133 -0.263346,0.997197 -0.07446,0.280064 -0.191113,0.719257 -0.259216,0.97598 -0.0681,0.256725 -0.151912,0.581347 -0.186249,0.721377 -0.03433,0.140035 -0.130014,0.502843 -0.212619,0.806247 -0.08261,0.303403 -0.1758,0.656662 -0.20709,0.785027 -0.0313,0.128363 -0.117045,0.462532 -0.190561,0.742596 -0.07352,0.280063 -0.15166,0.566492 -0.173642,0.636507 -0.02199,0.07002 -0.117141,0.432828 -0.211468,0.806247 -0.09433,0.373418 -0.193807,0.764871 -0.221056,0.869896 -0.02724,0.105023 -0.09162,0.343141 -0.143055,0.529151 l -0.0935,0.338198 0.143845,0.04945 c 0.07912,0.0272 0.172313,0.07308 0.2071,0.101943 0.0348,0.02888 0.06324,0.116243 0.06324,0.194162 0,0.09025 -0.03306,0.172472 -0.09108,0.226521 -0.05009,0.04667 -0.174147,0.09731 -0.27568,0.112535 -0.101527,0.01525 -0.318332,0.02011 -0.481777,0.01088 -0.163452,-0.0093 -0.297182,-9.64e-4 -0.297182,0.0181 0,0.01919 -0.243466,0.02935 -0.541032,0.02261 z M 57.641628,20.49523 c 0.227551,-2.12e-4 0.585478,-0.02001 0.795391,-0.04406 0.225847,-0.02589 0.469527,-0.08395 0.596875,-0.142249 0.118369,-0.05419 0.293796,-0.15545 0.389837,-0.225023 0.09604,-0.06957 0.225233,-0.186644 0.287094,-0.260164 0.06186,-0.07352 0.16818,-0.248658 0.236259,-0.3892 0.06808,-0.140544 0.145386,-0.345982 0.171783,-0.456528 0.02639,-0.110548 0.04477,-0.325114 0.04082,-0.476813 -0.0039,-0.151704 -0.02922,-0.352203 -0.05615,-0.445559 -0.02694,-0.09336 -0.120797,-0.285001 -0.208581,-0.425879 -0.08778,-0.140879 -0.26072,-0.338545 -0.384307,-0.439254 -0.123584,-0.100708 -0.291533,-0.217225 -0.373218,-0.25892 -0.08168,-0.04169 -0.291733,-0.09813 -0.466774,-0.125408 -0.175038,-0.02728 -0.583418,-0.0611 -0.907512,-0.07517 -0.496123,-0.02154 -0.586045,-0.01612 -0.56892,0.03423 0.01119,0.0329 -0.02205,0.12735 -0.0739,0.209899 -0.05183,0.08255 -0.154874,0.270204 -0.228981,0.417015 -0.07411,0.146808 -0.174023,0.422982 -0.222025,0.613721 -0.06888,0.273682 -0.08208,0.422841 -0.06262,0.707488 0.01357,0.198378 0.06869,0.494354 0.122486,0.657723 0.05381,0.163373 0.153429,0.392518 0.221388,0.509208 0.06796,0.116695 0.158164,0.257709 0.200452,0.313369 0.04229,0.05566 0.07688,0.146365 0.07688,0.201562 0,0.09869 0.0069,0.100357 0.413729,0.100013 z m -1.572161,-0.381555 c 0.141229,0 0.211507,-0.0252 0.290464,-0.104156 0.08314,-0.08314 0.104156,-0.147482 0.104156,-0.318878 0,-0.196715 -0.01156,-0.221777 -0.137911,-0.298811 -0.07585,-0.04625 -0.206193,-0.08415 -0.289643,-0.08424 -0.103466,-1.28e-4 -0.179355,0.03021 -0.238583,0.09532 -0.04776,0.05252 -0.09692,0.151796 -0.109212,0.220632 -0.01231,0.06884 -0.0039,0.173822 0.01876,0.233307 0.02261,0.05948 0.07139,0.141608 0.108396,0.182491 0.04464,0.04932 0.129959,0.07434 0.253575,0.07434 z m -0.09337,-1.093334 c 0.04668,-0.01026 0.131017,-0.06329 0.187419,-0.117823 0.07934,-0.07672 0.102546,-0.143525 0.102546,-0.295248 0,-0.151646 -0.02325,-0.218641 -0.102546,-0.295539 -0.0564,-0.05469 -0.162695,-0.111917 -0.236208,-0.127167 -0.111195,-0.02308 -0.15933,-0.0052 -0.286429,0.106409 -0.130522,0.114601 -0.15277,0.160468 -0.15277,0.314967 0,0.117239 0.03018,0.219199 0.0858,0.289914 0.04719,0.05999 0.137893,0.116748 0.201563,0.12612 0.06366,0.0094 0.153951,0.0086 0.200626,-0.0018 z m 0.127304,-1.098444 c 0.04668,-0.01299 0.128684,-0.05128 0.182235,-0.08508 0.05356,-0.03379 0.115618,-0.109435 0.13791,-0.168081 0.0223,-0.05865 0.04054,-0.152822 0.04054,-0.209281 0,-0.05646 -0.05252,-0.159558 -0.116694,-0.22911 -0.06418,-0.06955 -0.164911,-0.137678 -0.223839,-0.15139 -0.073,-0.01698 -0.153095,0.0061 -0.251331,0.07274 -0.07931,0.05373 -0.162326,0.152453 -0.184496,0.2194 -0.02724,0.08225 -0.02399,0.176143 0.01,0.289593 0.0374,0.124862 0.08495,0.182856 0.185557,0.226351 0.07439,0.03215 0.173447,0.04785 0.220127,0.03486 z M 45.294537,12.834656 c 0.0064,-0.0043 0.02111,-0.08044 0.03246,-0.169135 0.01135,-0.08871 0.04901,-0.270741 0.08368,-0.404525 0.03467,-0.133782 0.06303,-0.253892 0.06303,-0.266907 0,-0.01302 -0.115596,-0.09142 -0.256878,-0.174218 -0.141281,-0.08281 -0.304541,-0.150551 -0.362795,-0.150551 -0.05826,0 -0.158539,0.0272 -0.222855,0.06046 -0.06431,0.03328 -0.139742,0.110536 -0.167627,0.171733 -0.02788,0.06119 -0.05041,0.153328 -0.05007,0.204743 3.38e-4,0.05141 0.02421,0.138752 0.05304,0.194087 0.02884,0.05533 0.224275,0.199954 0.434323,0.321384 0.210046,0.121426 0.387213,0.217241 0.3937,0.212923 z M 30.780938,23.206247 c -0.02918,-0.0027 -0.329923,-0.04934 -0.668332,-0.103398 -0.338413,-0.05406 -0.739412,-0.109266 -0.891116,-0.122674 -0.151699,-0.0134 -0.380843,-0.04306 -0.509207,-0.06589 -0.128361,-0.02284 -0.45298,-0.07154 -0.721377,-0.108229 -0.268394,-0.03669 -0.822204,-0.113276 -1.230693,-0.170179 -0.408487,-0.05691 -0.810014,-0.103466 -0.892278,-0.103466 -0.08227,0 -0.187279,-0.02641 -0.233355,-0.05868 -0.04607,-0.03228 -0.255603,-0.07912 -0.465606,-0.104086 -0.210009,-0.02499 -0.4964,-0.05727 -0.636433,-0.07176 -0.162859,-0.01684 -0.311945,-0.06366 -0.41373,-0.1299 -0.10739,-0.06988 -0.158542,-0.134398 -0.157328,-0.198424 9.64e-4,-0.05218 0.04592,-0.218994 0.09983,-0.370694 0.05391,-0.151704 0.188339,-0.524058 0.298723,-0.827462 0.110387,-0.303403 0.264818,-0.733047 0.343186,-0.954765 0.07837,-0.221719 0.171037,-0.479503 0.205936,-0.572858 0.0349,-0.09336 0.14242,-0.389333 0.238943,-0.657727 0.09652,-0.268394 0.305523,-0.860347 0.464458,-1.31545 0.158934,-0.455107 0.378177,-1.0757 0.487204,-1.379104 0.109031,-0.303404 0.225878,-0.611815 0.259663,-0.685358 0.03379,-0.07354 0.06143,-0.157162 0.06143,-0.185817 0,-0.02866 0.04733,-0.18331 0.10517,-0.343669 l 0.105175,-0.291564 h -0.403262 c -0.40085,0 -0.403526,-6.81e-4 -0.447729,-0.116691 -0.02448,-0.06418 -0.03496,-0.164514 -0.02332,-0.222961 0.01162,-0.05845 0.215838,-0.507187 0.45378,-0.997197 0.237943,-0.490014 0.515024,-1.078868 0.615739,-1.308571 0.100715,-0.229702 0.216622,-0.559749 0.257567,-0.733436 0.06385,-0.270868 0.06763,-0.365396 0.0265,-0.664425 -0.02639,-0.191748 -0.05496,-0.3772744 -0.06353,-0.4122804 -0.0086,-0.035 -0.07745,-0.186732 -0.153065,-0.337165 C 26.818258,9.4419306 26.66685,9.222332 26.557419,9.1043696 26.428028,8.9648984 26.258277,8.842692 26.07202,8.7549212 25.914488,8.6806892 25.599131,8.5723238 25.371229,8.5141114 25.143328,8.4558991 24.883413,8.3971002 24.793646,8.3834496 24.703874,8.3698154 24.541565,8.3365063 24.432957,8.3094595 24.324346,8.2824256 24.120915,8.208717 23.980881,8.1456841 23.840851,8.0826545 23.637757,7.9525078 23.529566,7.8564664 23.42137,7.7604257 23.271061,7.5855561 23.195544,7.4678704 23.073088,7.2770426 23.060331,7.2286045 23.077615,7.0201611 c 0.01068,-0.1285547 0.04246,-0.256806 0.07065,-0.2850033 0.04007,-0.04007 0.08099,-0.033958 0.187337,0.02799 0.07484,0.043579 0.298382,0.1633048 0.496757,0.2660488 0.198379,0.1027434 0.437072,0.207822 0.530427,0.2335076 0.09336,0.02567 0.312948,0.042965 0.487988,0.0384 0.175039,-0.00458 0.455597,-0.034499 0.623462,-0.066522 0.167859,-0.032013 0.393177,-0.088094 0.500701,-0.1245963 0.107523,-0.036505 0.266157,-0.102853 0.35252,-0.1474355 0.08637,-0.044585 0.227633,-0.1542871 0.313935,-0.2437863 0.08631,-0.089495 0.207876,-0.2743328 0.270167,-0.4107458 C 26.998239,6.1182032 27.038494,5.9292508 27.0831,5.5028768 27.12947,5.0595897 27.13063,4.9352898 27.0888,4.8945426 27.059811,4.8663835 26.797437,4.7017884 26.505703,4.5287912 26.065775,4.2679177 25.954662,4.1810782 25.854421,4.0197911 25.764301,3.8747836 25.733863,3.7732604 25.734768,3.6206262 c 6.7e-4,-0.1125821 0.01486,-0.2619813 0.03157,-0.3319994 0.01671,-0.070018 0.05623,-0.1425701 0.08783,-0.1612363 0.0316,-0.01865 0.05746,-0.06163 0.05746,-0.095474 0,-0.033847 0.02659,-0.061544 0.0591,-0.061544 0.03253,0 0.07057,-0.029869 0.08457,-0.066337 0.01402,-0.036486 0.04252,-0.055794 0.06339,-0.042901 0.02087,0.012883 0.06058,-0.00385 0.08827,-0.037222 0.02768,-0.033374 0.07567,-0.050947 0.106603,-0.039071 0.03096,0.011867 0.0677,0.00307 0.08167,-0.019536 0.01398,-0.022603 0.113075,-0.032937 0.220212,-0.02291 0.107137,0.010026 0.29336,0.067538 0.413825,0.1278416 0.120465,0.060307 0.27837,0.1541477 0.3509,0.2085391 0.09887,0.074137 0.144002,0.086758 0.180345,0.050412 0.02667,-0.026661 0.04884,-0.078072 0.04929,-0.1142464 3.42e-4,-0.036179 0.09399,-0.2412844 0.207866,-0.4557955 0.118464,-0.223151 0.255652,-0.5681094 0.320638,-0.8062465 0.06247,-0.2289223 0.14229,-0.5116961 0.177381,-0.6283903 0.03509,-0.1166943 0.09287,-0.25741603 0.128412,-0.31272073 0.06325,-0.098442 0.07499,-0.1001253 0.558903,-0.080159 0.435457,0.017967 0.529653,0.036065 0.791335,0.1520031 0.163369,0.072384 0.430703,0.20120163 0.594073,0.28626553 0.16337,0.085066 0.451568,0.2093805 0.640438,0.2762558 0.26728,0.09464 0.450699,0.1274849 0.827462,0.1481748 0.376722,0.020692 0.509562,0.04447 0.599061,0.1072613 0.11174,0.078397 0.185475,0.079334 2.604015,0.033102 1.811578,-0.034628 2.496877,-0.034856 2.517896,-6.704e-4 0.02097,0.033961 0.678008,0.034821 2.403189,0.00307 1.305873,-0.023935 2.460241,-0.063182 2.565266,-0.087205 0.113717,-0.026013 1.486776,-0.057932 3.394715,-0.078923 1.762069,-0.019404 4.444956,-0.058248 5.961969,-0.086355 1.517014,-0.02809 2.772836,-0.064593 2.790725,-0.081087 0.0179,-0.016503 0.07864,-0.1976293 0.135016,-0.4025338 0.05638,-0.20490733 0.135407,-0.40891523 0.175622,-0.45335473 0.06739,-0.074471 0.141517,-0.080781 0.947047,-0.080562 0.480658,1.297e-4 0.944666,0.019877 1.031124,0.0439 0.08646,0.023997 0.196259,0.093314 0.243995,0.1540049 0.0687,0.087345 0.08699,0.1732899 0.08771,0.41226843 9.64e-4,0.2982217 0.0027,0.3027012 0.137512,0.3655747 0.07513,0.035004 0.179494,0.1304841 0.231938,0.2121693 0.05244,0.081683 0.148101,0.2136995 0.212573,0.2933663 0.06447,0.079668 0.149088,0.1969299 0.188038,0.2605834 0.03895,0.063655 0.09022,0.1277163 0.113917,0.1423659 0.02369,0.014654 0.07385,0.1324517 0.111453,0.2617903 0.04085,0.1405349 0.06836,0.3921621 0.06836,0.625343 0,0.2146031 -0.02832,0.5046566 -0.063,0.6445641 -0.03465,0.1399039 -0.09072,0.3307557 -0.124599,0.4241098 -0.03389,0.093355 -0.07533,0.4275192 -0.09213,0.742593 -0.0168,0.3150729 -0.05194,0.599228 -0.0781,0.6314622 -0.02615,0.032221 -0.04847,0.2040894 -0.04959,0.3819042 -9.63e-4,0.1778181 -0.02952,0.4258658 -0.06318,0.5512226 -0.03815,0.1421985 -0.09673,0.2512322 -0.155753,0.2899033 -0.05202,0.034092 -0.115089,0.1240731 -0.140133,0.1999518 -0.02503,0.075879 -0.102437,0.1961663 -0.171985,0.2673034 l -0.126455,0.1293386 -2.142809,0.031499 -2.142807,0.031499 v 0.1686786 c 0,0.1316438 -0.02718,0.1940665 -0.123809,0.2843289 -0.101745,0.095046 -0.203401,0.1292979 -0.570474,0.1922152 -0.245669,0.04211 -0.476384,0.06516 -0.512699,0.051224 -0.03632,-0.013941 -0.06604,-0.065385 -0.06604,-0.1143281 0,-0.048944 -0.02005,-0.1264616 -0.04456,-0.1722571 -0.02451,-0.045798 -0.06023,-0.073582 -0.07939,-0.061744 -0.01915,0.01183 -0.04617,0.078214 -0.06002,0.147503 -0.02087,0.1043734 -0.05276,0.1318174 -0.185827,0.1600115 -0.08834,0.018718 -0.378249,0.034024 -0.644223,0.034024 -0.483413,0 -0.483604,-3.73e-5 -0.499092,-0.1060849 -0.0085,-0.058345 -0.02424,-0.1299522 -0.0349,-0.1591252 -0.01068,-0.029185 -0.05878,-0.053046 -0.10692,-0.053046 -0.04814,0 -0.09786,0.03341 -0.110476,0.07426 -0.01261,0.040841 -0.03791,0.1029036 -0.05622,0.1379093 -0.01831,0.035007 -0.117161,0.079943 -0.219717,0.099853 -0.10255,0.019909 -0.362401,0.045071 -0.577437,0.055918 l -0.391012,0.019703 -0.02669,-0.1195711 c -0.0147,-0.065761 -0.03574,-0.1529854 -0.04682,-0.1938278 -0.01405,-0.051777 -0.0628,-0.074259 -0.161073,-0.074259 -0.127473,0 -0.143595,0.014181 -0.168796,0.1485193 -0.02425,0.1291276 -0.04391,0.148519 -0.150738,0.148519 -0.06758,0 -0.132882,0.016194 -0.145115,0.035985 -0.01223,0.019809 -0.485973,0.048507 -1.052745,0.063806 -0.566776,0.015306 -1.48881,0.029593 -2.048961,0.031739 -1.014153,0.00391 -1.019401,0.00442 -1.241474,0.1165409 -0.122658,0.061932 -0.309796,0.1859831 -0.415863,0.275666 -0.106068,0.089683 -0.258743,0.2622983 -0.339278,0.3835917 -0.08053,0.1212966 -0.174975,0.3247998 -0.209866,0.4522328 -0.03489,0.127436 -0.09235,0.374916 -0.127691,0.5499554 -0.03535,0.175039 -0.08501,0.423278 -0.110364,0.551642 -0.02537,0.128364 -0.108939,0.367053 -0.18573,0.530423 -0.0768,0.163371 -0.2143,0.395589 -0.30557,0.516041 -0.09127,0.120447 -0.250027,0.289251 -0.352803,0.375111 -0.10277,0.08587 -0.264146,0.190327 -0.358615,0.232142 -0.09447,0.04182 -0.229044,0.0975 -0.299061,0.123744 -0.07002,0.02625 -0.270517,0.06611 -0.445556,0.08858 -0.17504,0.02247 -1.253925,0.04148 -2.397519,0.04222 -1.57988,9.64e-4 -2.152527,0.01533 -2.384309,0.05953 -0.167773,0.03198 -0.368208,0.09506 -0.445411,0.140154 -0.07721,0.04509 -0.179076,0.139416 -0.226385,0.209622 -0.04731,0.0702 -0.118371,0.231479 -0.157912,0.358394 -0.03955,0.126912 -0.12086,0.421703 -0.180709,0.655092 -0.05985,0.233384 -0.155937,0.60097 -0.213529,0.816852 -0.05759,0.215882 -0.151162,0.569145 -0.207928,0.785027 -0.05676,0.215885 -0.145029,0.545277 -0.196137,0.731987 -0.05111,0.186709 -0.11728,0.444497 -0.147049,0.572858 -0.02977,0.128364 -0.124487,0.491173 -0.210485,0.806245 -0.08599,0.315073 -0.181824,0.677883 -0.212946,0.806247 -0.03112,0.128359 -0.126548,0.491172 -0.212051,0.806243 -0.0855,0.315073 -0.182335,0.68743 -0.21519,0.827464 -0.03287,0.140031 -0.119039,0.474198 -0.191519,0.742592 -0.07249,0.268395 -0.157182,0.593014 -0.188227,0.721378 -0.03106,0.128363 -0.09341,0.361796 -0.138581,0.51874 -0.04518,0.156942 -0.0721,0.295385 -0.05984,0.307647 0.01227,0.01227 0.04957,0.0223 0.08293,0.0223 0.03334,0 0.116095,0.03949 0.18388,0.08776 0.09458,0.06735 0.123243,0.121245 0.123243,0.231731 0,0.09132 -0.03238,0.174146 -0.08854,0.226465 -0.0487,0.04536 -0.157212,0.09538 -0.241151,0.111119 -0.08394,0.01575 -0.300962,0.02302 -0.482278,0.01612 -0.181316,-0.0068 -0.343315,0.0011 -0.359996,0.01784 -0.01667,0.01667 -0.146491,0.02918 -0.288468,0.02779 -0.141977,-0.0013 -0.348842,-0.01746 -0.459702,-0.03571 -0.110858,-0.01824 -0.201561,-0.01712 -0.201561,0.0023 0,0.01963 -0.02387,0.0334 -0.05304,0.03062 z m 9.017216,-11.113629 c 0.355911,-6.71e-4 0.730912,-0.02035 0.833324,-0.04397 0.102417,-0.02363 0.287494,-0.09084 0.411283,-0.149401 0.123785,-0.05857 0.318925,-0.190862 0.433641,-0.294001 0.124635,-0.112055 0.268697,-0.30341 0.357958,-0.47546 0.08216,-0.158365 0.174409,-0.39296 0.205,-0.521321 0.03058,-0.128364 0.05075,-0.353433 0.0448,-0.500156 C 42.07826,9.9615876 42.03756,9.7375406 41.99383,9.6104276 41.950083,9.4833216 41.857638,9.2978434 41.788384,9.1982565 41.719128,9.0986731 41.589095,8.9480437 41.499421,8.8635227 41.409749,8.7790048 41.243819,8.6567569 41.130687,8.5918586 41.017555,8.5269614 40.8457,8.4585381 40.748783,8.4398076 c -0.09692,-0.018718 -0.505607,-0.046859 -0.908198,-0.062511 -0.679121,-0.026386 -0.731987,-0.023117 -0.731987,0.045653 0,0.040758 -0.09483,0.2388736 -0.210741,0.4402595 -0.143924,0.2500626 -0.238008,0.4805158 -0.296739,0.7268456 -0.0473,0.198379 -0.085,0.4657133 -0.08377,0.5940763 0.0013,0.128361 0.01831,0.319315 0.03793,0.424339 0.01963,0.105024 0.06985,0.305525 0.111592,0.445558 0.04174,0.14003 0.167756,0.396751 0.280029,0.570485 0.112272,0.173737 0.204133,0.350369 0.204133,0.392513 0,0.07057 0.0511,0.07654 0.647118,0.0756 z m -1.77394,-0.341123 c 0.08042,0.0018 0.167414,-0.03797 0.243995,-0.111334 0.09241,-0.08854 0.119015,-0.152816 0.119015,-0.287595 0,-0.09546 -0.0287,-0.21455 -0.06379,-0.264634 -0.03508,-0.05008 -0.130256,-0.113002 -0.211504,-0.139816 -0.08124,-0.02679 -0.183192,-0.03749 -0.226542,-0.02372 -0.04335,0.01378 -0.121625,0.07057 -0.17394,0.126264 -0.07034,0.07487 -0.09511,0.152569 -0.09511,0.298307 0,0.108385 0.02478,0.22694 0.05512,0.263461 0.0303,0.03652 0.09395,0.08215 0.141445,0.101397 0.0475,0.01926 0.142584,0.0362 0.211324,0.03769 z m -0.09728,-1.110239 c 0.06191,-0.02104 0.145503,-0.0746 0.185752,-0.119077 0.04025,-0.04448 0.0751,-0.154496 0.07747,-0.244536 0.0023,-0.09215 -0.02874,-0.214076 -0.07127,-0.2790084 -0.04156,-0.06344 -0.126336,-0.134633 -0.188388,-0.158225 -0.06205,-0.02359 -0.1613,-0.03089 -0.22056,-0.01616 -0.05926,0.0147 -0.150704,0.06682 -0.203216,0.115835 -0.06726,0.06278 -0.09547,0.1377234 -0.09547,0.2535644 0,0.09045 0.02888,0.220301 0.06419,0.288566 0.04085,0.07898 0.11414,0.13742 0.201559,0.160698 0.0788,0.02096 0.185387,0.02028 0.249951,-0.0018 z m 0.04028,-1.0538914 c 0.01405,0.0014 0.09043,-0.04099 0.169736,-0.09437 0.0793,-0.05338 0.170923,-0.1526753 0.203604,-0.2206483 0.05094,-0.1059447 0.05094,-0.1480592 0,-0.2950168 -0.03968,-0.1144648 -0.100074,-0.1908721 -0.181766,-0.229935 -0.09629,-0.046043 -0.156207,-0.048351 -0.281393,-0.010841 -0.08748,0.026219 -0.183819,0.077495 -0.214089,0.1139704 -0.03027,0.036472 -0.0564,0.1584709 -0.05807,0.2711082 -0.0021,0.1481166 0.02045,0.2309165 0.08182,0.2991855 0.04668,0.05192 0.123058,0.110022 0.169734,0.129128 0.04668,0.01909 0.09637,0.03595 0.110421,0.03743 z M 27.19527,4.4513868 c 0.0175,0.00237 0.03184,-0.030553 0.03184,-0.072971 0,-0.04242 0.03774,-0.2190528 0.08387,-0.3925136 0.04612,-0.1734608 0.08433,-0.3283211 0.08486,-0.3441363 6.7e-4,-0.01582 -0.111298,-0.096968 -0.24855,-0.1803444 -0.147936,-0.089868 -0.304573,-0.1515911 -0.384693,-0.1515911 -0.07434,0 -0.17189,0.019667 -0.216789,0.04369 -0.0449,0.024032 -0.11217,0.1027291 -0.149484,0.1748893 -0.04334,0.083813 -0.0586,0.1805214 -0.04222,0.2677772 0.01408,0.075119 0.06829,0.1752373 0.120448,0.2224883 0.05215,0.047248 0.189914,0.1410092 0.306134,0.2083481 0.116217,0.067336 0.249885,0.1444316 0.297035,0.1713171 0.04715,0.026897 0.100053,0.050755 0.117556,0.053042 z m 22.606687,4.9689318 c -0.03112,0 -0.04385,-0.01272 -0.0283,-0.0283 0.01555,-0.01555 0.04101,-0.01555 0.05658,0 0.01555,0.01555 0.0027,0.0283 -0.0283,0.0283 z m 0.0054,-0.1584192 c -0.04191,0.041595 -0.04679,0.036724 -0.02377,-0.023766 0.01592,-0.041847 0.03966,-0.065399 0.05273,-0.052336 0.01306,0.013059 2.7e-5,0.047301 -0.02898,0.076092 z m 0.277626,-0.067895 c -0.01555,0.015546 -0.0283,0.00273 -0.0283,-0.028297 0,-0.031123 0.01272,-0.043848 0.0283,-0.028297 0.01555,0.015546 0.01555,0.041021 0,0.056579 z"
   id="path536" /></svg>
