<?xml version="1.0" encoding="UTF-8" standalone="no"?>
<svg
   xmlns:dc="http://purl.org/dc/elements/1.1/"
   xmlns:cc="http://creativecommons.org/ns#"
   xmlns:rdf="http://www.w3.org/1999/02/22-rdf-syntax-ns#"
   xmlns:svg="http://www.w3.org/2000/svg"
   xmlns="http://www.w3.org/2000/svg"
   xmlns:sodipodi="http://sodipodi.sourceforge.net/DTD/sodipodi-0.dtd"
   xmlns:inkscape="http://www.inkscape.org/namespaces/inkscape"
   version="1.1"
   x="0px"
   y="0px"
   width="47.875px"
   height="32px"
   viewBox="0 0 47.875 32"
   enable-background="new 0 0 47.875 32"
   xml:space="preserve"
   id="svg93"
   sodipodi:docname="1911.svg"
   inkscape:version="1.0.2-2 (e86c870879, 2021-01-15)"><metadata
   id="metadata99"><rdf:RDF><cc:Work
       rdf:about=""><dc:format>image/svg+xml</dc:format><dc:type
         rdf:resource="http://purl.org/dc/dcmitype/StillImage" /></cc:Work></rdf:RDF></metadata><defs
   id="defs97" /><sodipodi:namedview
   pagecolor="#ffffff"
   bordercolor="#666666"
   borderopacity="1"
   objecttolerance="10"
   gridtolerance="10"
   guidetolerance="10"
   inkscape:pageopacity="0"
   inkscape:pageshadow="2"
   inkscape:window-width="1842"
   inkscape:window-height="1051"
   id="namedview95"
   showgrid="false"
   inkscape:zoom="8.9726866"
   inkscape:cx="45.522571"
   inkscape:cy="8.4018853"
   inkscape:window-x="-9"
   inkscape:window-y="-9"
   inkscape:window-maximized="1"
   inkscape:current-layer="svg93" />

<g
   id="guides">
</g>
<path
   style="fill:#ffffff;stroke-width:0.0788066"
   d="m 13.057954,30.965416 c -0.02123,-0.02123 -0.361038,-0.07196 -0.755124,-0.112735 -0.394085,-0.04077 -0.825376,-0.130423 -0.958424,-0.199225 -0.196394,-0.101559 -0.271092,-0.106866 -0.397043,-0.02821 -0.123124,0.07689 -0.273799,0.07569 -0.730149,-0.0058 C 9.6724868,30.522107 9.4092689,30.484816 7.908459,30.292333 7.56171,30.247861 7.0297655,30.178356 6.7263602,30.137878 6.4229548,30.097398 5.9087419,30.029678 5.5836647,29.987387 5.2585876,29.945096 4.7621061,29.851684 4.4803725,29.779805 3.417869,29.508726 2.006606,29.270276 1.4647312,29.270276 H 1.2549038 l 0.1548125,-0.361163 c 0.085147,-0.19864 0.1548126,-0.395399 0.1548126,-0.437243 0,-0.04184 0.070926,-0.22288 0.1576132,-0.402302 0.086687,-0.179421 0.1576132,-0.373236 0.1576132,-0.430699 0,-0.05746 0.031325,-0.166055 0.069612,-0.241319 0.084188,-0.165496 0.1647401,-0.361814 0.4441716,-1.082521 0.117636,-0.303405 0.2432447,-0.622572 0.2791305,-0.709259 0.035886,-0.08669 0.1910748,-0.501154 0.3448642,-0.921037 0.1537895,-0.419883 0.3197484,-0.86317 0.3687976,-0.985082 0.049049,-0.121913 0.1154829,-0.292585 0.1476306,-0.379272 0.032148,-0.08669 0.095201,-0.246271 0.140118,-0.35463 0.044917,-0.108359 0.1593338,-0.409794 0.2542587,-0.669856 0.094925,-0.260061 0.2720518,-0.72108 0.3936151,-1.024485 0.3803843,-0.949387 0.7888715,-2.067024 0.7888715,-2.158384 0,-0.05648 -0.2099855,-0.0876 -0.5910494,-0.0876 -0.5645191,0 -0.5910494,-0.0082 -0.5910494,-0.181584 0,-0.09987 0.3893901,-0.963106 0.8653113,-1.918302 0.4759212,-0.955195 0.9235142,-1.963907 0.9946511,-2.241582 0.18748,-0.731806 0.08444,-1.544216 -0.2787096,-2.197463 C 5.3133071,12.132708 4.7627416,11.606572 4.4311191,11.455501 4.2517222,11.373776 4.0858418,11.257134 4.062496,11.196296 4.0391503,11.135458 3.9197099,11.067247 3.797073,11.044717 3.6744361,11.022187 3.361319,10.949442 3.1012573,10.883062 2.8411956,10.816683 2.2967668,10.683963 1.8914156,10.588131 1.2741554,10.442199 1.1062243,10.367631 0.85781365,10.129172 0.39864641,9.688398 0.21805426,9.2528645 0.35090452,8.9066615 0.40220242,8.7729815 0.5674335,8.8282215 0.85641895,9.0756555 0.93688075,9.1445455 1.2089134,9.2858835 1.4609358,9.389732 1.845042,9.548006 2.0603241,9.579552 2.7919086,9.584765 3.9468187,9.592965 4.6697748,9.433257 5.2826332,9.0344425 5.7175214,8.7514405 6.1503243,7.8080945 6.1484883,7.1472065 6.1477386,6.8773425 6.1247808,6.5861445 6.097471,6.5000985 6.0695982,6.4122795 5.7126712,6.1442505 5.2837964,5.8890815 4.4569599,5.3971365 4.278612,5.2337135 4.2017956,4.8976275 4.0753624,4.3444575 4.4292388,3.638434 4.8329341,3.638434 c 0.1094965,0 0.1990845,-0.026597 0.1990845,-0.059105 0,-0.032508 0.088657,-0.059105 0.1970165,-0.059105 0.108359,0 0.1970164,0.034824 0.1970164,0.077387 0,0.042563 0.052059,0.05741 0.1156861,0.032994 0.063627,-0.024416 0.1370037,-0.0099 0.1630586,0.032257 0.026055,0.042158 0.080385,0.056247 0.1207336,0.031311 0.040349,-0.024937 0.073361,-0.00778 0.073361,0.038118 0,0.045902 0.035463,0.083458 0.078806,0.083458 0.043344,0 0.1497325,0.070926 0.2364198,0.1576132 0.086687,0.086687 0.2258182,0.1576131 0.3091799,0.1576131 0.2406169,0 0.598379,-0.3549678 0.7155312,-0.7099427 C 7.2979849,3.2417867 7.4128142,3.0486028 7.4940046,2.9917348 7.627981,2.8978941 7.6905133,2.7087718 8.0259859,1.3828111 8.0629664,1.236645 8.128126,1.0821521 8.170784,1.0394935 8.3050373,0.90524006 9.5281801,1.0070631 9.8531745,1.1795476 10.541042,1.5446197 11.00516,1.7526717 11.336545,1.8445043 c 0.195047,0.054051 0.457445,0.1295997 0.583108,0.1678868 0.125663,0.038287 0.471427,0.069613 0.768364,0.069613 0.307386,0 0.539886,0.033938 0.539886,0.078807 0,0.051357 1.221502,0.078807 3.506893,0.078807 3.064701,0 3.506893,0.014905 3.506893,0.1182099 0,0.177846 6.735448,0.1782051 6.98934,3.704e-4 0.146179,-0.1023881 1.224759,-0.1204692 8.226761,-0.1379116 l 8.058526,-0.020072 0.152599,-0.5122428 c 0.08393,-0.2817335 0.165095,-0.5555928 0.180367,-0.6085762 0.03377,-0.11717764 2.233028,-0.056611 2.57078,0.070798 0.240215,0.090616 0.379446,0.4062177 0.379446,0.8601129 0,0.1643486 0.03546,0.3207329 0.07881,0.3475208 0.04334,0.026788 0.07881,0.1352696 0.07881,0.2410707 0,0.15316 0.04056,0.1923655 0.198987,0.1923655 0.154883,0 0.208766,0.048897 0.243109,0.2206128 0.02438,0.1219064 0.120464,0.2541297 0.214748,0.2955247 0.166093,0.072922 0.170626,0.1135449 0.170626,1.5292803 v 1.454369 l -0.197017,0.04722 -0.197016,0.04722 -0.0069,1.099026 c -0.01303,2.0617455 -0.0068,2.0053015 -0.221046,2.0053015 -0.207243,0 -0.284254,0.129607 -0.284254,0.478391 v 0.22908 l -3.171965,0.0206 -3.171965,0.02059 -0.0234,0.35463 c -0.02538,0.384619 -0.16602,0.551646 -0.464503,0.551646 -0.149633,0 -0.181954,-0.042 -0.181954,-0.23642 v -0.23642 h -0.59105 -0.591049 v 0.23642 0.23642 H 38.20964 37.7368 v -0.23642 -0.23642 h -0.591049 -0.59105 v 0.23642 0.23642 h -0.472839 -0.47284 v -0.23642 -0.23642 h -0.591049 -0.59105 v 0.23642 0.23642 h -2.801547 c -3.046129,0 -2.937543,-0.01409 -3.581786,0.464817 -0.664785,0.49418 -0.90655,0.919002 -1.103357,1.938783 -0.269536,1.396627 -0.453985,1.808581 -1.107802,2.474196 -0.380857,0.38773 -0.560461,0.490405 -0.927717,0.530351 -1.700252,0.184935 -6.990122,0.25887 -7.043597,0.09845 -0.03517,-0.105513 -0.535222,-0.01682 -0.535222,0.09493 0,0.0399 -0.03567,0.07255 -0.07926,0.07255 -0.197458,0 -0.752067,0.694715 -0.853575,1.069206 -0.05795,0.213793 -0.133628,0.477373 -0.168175,0.585732 -0.03455,0.108359 -0.10166,0.338868 -0.149141,0.512243 -0.04748,0.173374 -0.161399,0.563467 -0.253151,0.866872 -0.09175,0.303406 -0.234331,0.808753 -0.316843,1.122994 -0.358054,1.363622 -0.536146,2.004201 -0.936632,3.368982 -0.03816,0.13003 -0.145201,0.520123 -0.237876,0.866872 -0.09267,0.346749 -0.198338,0.736841 -0.234807,0.866872 -0.03647,0.130031 -0.142795,0.518506 -0.23628,0.863278 -0.09348,0.344772 -0.18895,0.657564 -0.212144,0.695093 -0.02319,0.03753 -0.111915,0.340583 -0.197156,0.673452 -0.08524,0.332868 -0.190356,0.729335 -0.233588,0.881037 -0.04323,0.151703 -0.10841,0.399944 -0.144841,0.551647 -0.03643,0.151702 -0.104999,0.399709 -0.152373,0.551125 -0.04738,0.151417 -0.08614,0.27987 -0.08614,0.285453 0,0.0056 0.145276,0.03338 0.322834,0.06177 0.248637,0.03976 0.312029,0.07978 0.275823,0.17413 -0.02586,0.06738 -0.04701,0.137339 -0.04701,0.155466 0,0.04617 -0.280583,0.04133 -0.327562,-0.0056 z M 24.531252,16.197113 c 0.02382,-0.03854 0.132845,-0.09255 0.242278,-0.120014 0.399754,-0.100332 1.080066,-0.76081 1.309235,-1.271065 0.137249,-0.305591 0.176839,-0.545443 0.181573,-1.100058 0.0054,-0.627094 -0.0192,-0.758246 -0.211989,-1.13211 -0.300703,-0.583147 -0.77478,-1.099337 -1.213757,-1.321576 -0.336457,-0.170336 -0.498595,-0.190801 -1.832852,-0.231338 -0.874772,-0.02658 -1.558871,-0.01334 -1.700162,0.03289 -0.201587,0.06597 -0.152242,0.07836 0.334928,0.08414 0.329684,0.0039 0.571348,0.04062 0.571348,0.08679 0,0.04401 -0.122283,0.265655 -0.27174,0.492541 -0.428403,0.650348 -0.549843,1.089568 -0.549843,1.988655 0,0.891127 0.101636,1.259385 0.567492,2.056195 l 0.293494,0.502 1.118343,0.0015 c 0.615088,8.27e-4 1.137832,-0.03002 1.161652,-0.06857 z m -3.634228,-0.415134 c 0.233425,-0.123643 0.448021,-0.378491 0.447663,-0.531632 -1.58e-4,-0.06922 -0.07057,-0.241107 -0.156455,-0.381974 -0.136146,-0.223296 -0.198438,-0.256122 -0.486041,-0.256122 -0.446734,0 -0.618115,0.167585 -0.618115,0.604422 0,0.303051 0.03021,0.361992 0.256122,0.499734 0.299454,0.182581 0.329292,0.186095 0.556826,0.06557 z m -0.09928,-1.55148 c 0.139286,-0.112787 0.179478,-0.225818 0.179478,-0.504737 0,-0.447819 -0.148854,-0.611689 -0.552584,-0.60833 -0.343659,0.0029 -0.52904,0.116343 -0.610785,0.373899 -0.194854,0.613929 0.496827,1.133569 0.983891,0.739168 z m 0.351146,-1.58943 c 0.231582,-0.255894 0.184843,-0.617212 -0.114431,-0.884613 -0.279037,-0.24932 -0.537542,-0.250049 -0.812466,-0.0023 -0.179529,0.161788 -0.184052,0.706317 -0.0075,0.901418 0.185197,0.20464 0.743907,0.195962 0.934385,-0.01451 z M 6.5025867,5.5093335 C 6.5547284,5.2930315 6.6207613,5.0397725 6.6493265,4.9465365 6.6929672,4.8040935 6.6239292,4.7244995 6.2171183,4.4482393 5.4891523,3.953887 5.2387117,3.8651277 4.9675211,4.0053657 4.4371656,4.2796232 4.4444677,4.9832015 4.9805783,5.2634645 c 0.1366512,0.07144 0.3725772,0.20597 0.5242798,0.29896 0.792172,0.485585 0.8688591,0.481504 0.9977286,-0.05309 z"
   id="path152" /></svg>
