<?xml version="1.0" encoding="UTF-8" standalone="no"?>
<!-- Generator: Adobe Illustrator 16.0.0, SVG Export Plug-In . SVG Version: 6.00 Build 0)  -->

<svg
   version="1.1"
   x="0px"
   y="0px"
   width="76.833px"
   height="32px"
   viewBox="0 0 76.833 32"
   enable-background="new 0 0 76.833 32"
   xml:space="preserve"
   id="svg392"
   sodipodi:docname="knife2.svg"
   inkscape:version="1.2.1 (9c6d41e410, 2022-07-14)"
   xmlns:inkscape="http://www.inkscape.org/namespaces/inkscape"
   xmlns:sodipodi="http://sodipodi.sourceforge.net/DTD/sodipodi-0.dtd"
   xmlns="http://www.w3.org/2000/svg"
   xmlns:svg="http://www.w3.org/2000/svg"><defs
   id="defs396" /><sodipodi:namedview
   id="namedview394"
   pagecolor="#ffffff"
   bordercolor="#000000"
   borderopacity="0.25"
   inkscape:showpageshadow="2"
   inkscape:pageopacity="0.0"
   inkscape:pagecheckerboard="0"
   inkscape:deskcolor="#d1d1d1"
   showgrid="false"
   inkscape:zoom="12.405866"
   inkscape:cx="47.799966"
   inkscape:cy="11.607412"
   inkscape:window-width="1920"
   inkscape:window-height="1017"
   inkscape:window-x="-8"
   inkscape:window-y="-8"
   inkscape:window-maximized="1"
   inkscape:current-layer="svg392" />

<g
   id="guides">
</g>
<path
   style="fill:#ffffff;stroke-width:0.106292"
   d="m 2.3021619,18.438061 c 0.2351925,0.595809 0.852183,1.453652 1.2044561,1.674632 0.2127987,0.133491 2.8434673,1.025418 3.7658805,1.276823 0.4228802,0.11526 1.0888614,0.03033 1.7694735,-0.22581 0.977484,-0.367776 2.045527,-0.667578 2.980516,-0.836638 1.212928,-0.219317 3.827524,-0.276053 5.210595,-0.113072 1.37225,0.16171 1.734653,0.10372 2.467308,-0.394863 2.007414,-1.366046 3.87278,-1.925073 6.081082,-1.822435 1.571717,0.07305 3.824135,0.767458 4.784574,1.475056 0.184812,0.136162 0.368391,0.246521 0.407952,0.24524 0.104484,-0.0034 0.532299,0.368379 1.265985,1.100078 0.354364,0.3534 0.715786,0.640236 0.803168,0.637412 0.286355,-0.0092 2.364837,-1.183927 3.436901,-1.942394 0.577402,-0.408504 1.253438,-0.803867 1.502296,-0.878587 0.939285,-0.282015 1.931301,0.0058 2.821546,0.818882 l 0.484421,0.442376 0.420524,-0.216129 c 0.439849,-0.226058 0.702078,-0.280488 0.701522,-0.145608 -3.7e-4,0.126419 0.520297,0.317898 0.584362,0.214837 0.06984,-0.11238 1.114522,-0.114022 1.300206,-0.002 0.07249,0.04372 0.188547,0.04305 0.257855,-0.0014 0.207933,-0.133727 0.763783,-0.142211 1.045727,-0.01597 0.145343,0.06509 0.414595,0.09082 0.598333,0.0572 0.18374,-0.03363 0.36576,-0.0097 0.404489,0.05291 0.03875,0.06274 0.177759,0.110602 0.30895,0.106363 0.131199,-0.0042 0.290122,0.04281 0.353158,0.104557 0.08288,0.08119 0.175239,0.07821 0.333626,-0.0108 0.290781,-0.163381 0.653726,-0.161965 0.969796,0.0038 0.191562,0.100466 0.306131,0.103928 0.445414,0.01344 0.136599,-0.08872 0.253824,-0.09032 0.431774,-0.0058 0.243772,0.115637 0.741979,0.08901 1.49518,-0.07991 0.293364,-0.06579 0.46923,-0.04477 0.66792,0.07988 0.298992,0.187557 2.819983,0.283524 8.398419,0.319696 5.045754,0.03272 8.010873,-0.473533 11.537978,-1.969951 1.438001,-0.610093 4.070092,-2.117642 3.931014,-2.251519 -0.04707,-0.04536 -1.229354,-0.449675 -2.627226,-0.898517 -1.397871,-0.448842 -3.127411,-1.016877 -3.843425,-1.262304 -1.175393,-0.402881 -1.390497,-0.443361 -2.214573,-0.41672 -1.811946,0.05859 -5.65545,-0.0431 -7.299263,-0.193104 -2.571269,-0.234585 -4.685292,-0.630338 -7.554548,-1.414197 l -1.58959,-0.43432 -1.331553,0.11208 c -2.088248,0.175772 -2.927074,0.28474 -2.966911,0.385422 -0.0512,0.129397 -4.272546,0.253345 -5.936284,0.174313 -0.754068,-0.03582 -2.063537,-0.182657 -2.909943,-0.326296 l -1.538908,-0.261162 -0.748175,0.234556 c -2.075457,0.650665 -3.609963,0.76189 -6.656938,0.482517 -1.139398,-0.104473 -2.454383,-0.208075 -2.922195,-0.230238 -0.467809,-0.02223 -1.312895,-0.07225 -1.87798,-0.111285 -1.118385,-0.07727 -5.588303,0.210063 -7.076767,0.454916 -0.462283,0.07604 -1.709456,0.354513 -2.77151,0.618816 -1.61163,0.401077 -2.0482,0.473419 -2.639613,0.437395 -0.613533,-0.03738 -0.708956,-0.01976 -0.711158,0.131476 -0.0029,0.197786 -0.2832552,0.249021 -0.3434302,0.06276 -0.0566,-0.175209 -0.615084,0.0038 -0.6179095,0.197971 -0.00123,0.0865 -0.050192,0.158813 -0.1087352,0.160704 -0.058564,0.0019 -0.1053996,-0.06823 -0.1041269,-0.155843 0.00123,-0.0876 -0.087606,-0.156378 -0.1975397,-0.152824 -0.2138966,0.007 -0.4813908,0.259681 -0.3799483,0.359038 0.033584,0.03295 -0.018718,0.05075 -0.1164033,0.03959 -0.097656,-0.01116 -0.2158687,-0.08236 -0.2627011,-0.15822 -0.055345,-0.08962 -0.1545713,-0.105768 -0.2833964,-0.04613 -0.1090458,0.05049 -0.2340814,0.08537 -0.2778535,0.07752 -0.043766,-0.008 -0.080633,0.05741 -0.081905,0.145007 -0.00129,0.0876 -0.05023,0.160832 -0.1087595,0.162725 -0.058572,0.0019 -0.1053994,-0.06825 -0.1041257,-0.155843 0.00258,-0.175666 -0.044218,-0.185007 -0.3978248,-0.07946 -0.1322334,0.03948 -0.241394,0.137877 -0.2425696,0.218673 -0.00248,0.170247 -0.1726256,0.201706 -0.2667019,0.04931 -0.1030129,-0.166874 -0.4944198,-0.10648 -0.6526752,0.100702 -0.1114668,0.145911 -0.1656789,0.159958 -0.2319594,0.06008 -0.110991,-0.167273 -0.6588389,-0.108021 -0.6614507,0.07153 -0.00108,0.07488 -0.049895,0.137673 -0.1084304,0.139565 -0.058571,0.0019 -0.1057464,-0.04434 -0.1048972,-0.102745 8.553e-4,-0.0584 -0.1645988,-0.100824 -0.3676673,-0.09425 -0.2844587,0.0092 -0.3556795,0.04804 -0.3102629,0.169239 0.037298,0.09962 -0.00385,0.159335 -0.1121008,0.162835 -0.094077,0.0031 -0.1703607,-0.04226 -0.1695111,-0.10065 0.00291,-0.199354 -0.5218472,-0.08983 -0.7521592,0.15699 -0.4954908,0.53099 -0.6865711,1.066641 -0.737375,2.067031 -0.03822,0.752828 -0.00699,1.062248 0.1465844,1.451253 z"
   id="path410" /></svg>
