<?xml version="1.0" encoding="UTF-8" standalone="no"?>
<svg
   xmlns:dc="http://purl.org/dc/elements/1.1/"
   xmlns:cc="http://creativecommons.org/ns#"
   xmlns:rdf="http://www.w3.org/1999/02/22-rdf-syntax-ns#"
   xmlns:svg="http://www.w3.org/2000/svg"
   xmlns="http://www.w3.org/2000/svg"
   xmlns:sodipodi="http://sodipodi.sourceforge.net/DTD/sodipodi-0.dtd"
   xmlns:inkscape="http://www.inkscape.org/namespaces/inkscape"
   version="1.1"
   x="0px"
   y="0px"
   width="88.5px"
   height="32px"
   viewBox="0 0 88.5 32"
   enable-background="new 0 0 88.5 32"
   xml:space="preserve"
   id="svg32"
   sodipodi:docname="ak47.svg"
   inkscape:version="1.0.2-2 (e86c870879, 2021-01-15)"><metadata
   id="metadata38"><rdf:RDF><cc:Work
       rdf:about=""><dc:format>image/svg+xml</dc:format><dc:type
         rdf:resource="http://purl.org/dc/dcmitype/StillImage" /></cc:Work></rdf:RDF></metadata><defs
   id="defs36" /><sodipodi:namedview
   pagecolor="#ffffff"
   bordercolor="#666666"
   borderopacity="1"
   objecttolerance="10"
   gridtolerance="10"
   guidetolerance="10"
   inkscape:pageopacity="0"
   inkscape:pageshadow="2"
   inkscape:window-width="1842"
   inkscape:window-height="1051"
   id="namedview34"
   showgrid="false"
   inkscape:zoom="13.920904"
   inkscape:cx="33.812915"
   inkscape:cy="19.815708"
   inkscape:window-x="-9"
   inkscape:window-y="-9"
   inkscape:window-maximized="1"
   inkscape:current-layer="svg32" />

<g
   id="guides">
</g>
<path
   style="fill:#ffffff;stroke-width:0.0770489"
   d="m 49.722875,28.941873 c -0.210703,-0.03023 -0.431813,-0.139503 -0.639171,-0.315886 -0.174367,-0.148319 -0.410989,-0.321679 -0.525829,-0.385244 -0.11484,-0.06356 -0.278113,-0.184918 -0.362828,-0.269672 -0.08471,-0.08476 -0.490121,-0.424251 -0.900903,-0.75444 -0.876203,-0.704296 -2.366164,-2.239492 -3.144454,-3.23992 -1.003597,-1.290039 -1.462103,-1.937072 -1.462473,-2.063805 -2.31e-4,-0.06897 -0.05042,-0.166944 -0.1116,-0.217717 -0.133449,-0.110751 -0.814498,-1.190651 -0.810645,-1.285387 0.0015,-0.03661 -0.202792,-0.482634 -0.453957,-0.991156 -0.251165,-0.508523 -0.498845,-1.045938 -0.550398,-1.194257 -0.05155,-0.14832 -0.262927,-0.720408 -0.469721,-1.271307 -0.206795,-0.550899 -0.376625,-1.07098 -0.377402,-1.155733 -7.78e-4,-0.08476 -0.102411,-0.518154 -0.22584,-0.963112 -0.123436,-0.444956 -0.248498,-0.973704 -0.277915,-1.174994 -0.04003,-0.273918 -0.0868,-0.365983 -0.185922,-0.365983 -0.09549,0 -0.154573,-0.1021 -0.21179,-0.365982 l -0.07935,-0.365982 -0.0104,0.462293 c -0.012,0.534093 -0.475275,3.043431 -0.561883,3.043431 -0.03194,0 -0.03737,-0.174935 -0.01205,-0.388744 0.03024,-0.255276 0.0113,-0.453676 -0.05517,-0.577867 -0.09503,-0.177564 -0.140446,-0.189122 -0.743111,-0.189122 -0.365285,0 -0.641895,0.03235 -0.641895,0.07507 0,0.04128 -0.112685,0.134129 -0.250409,0.206312 -0.19779,0.103666 -0.637108,0.15044 -2.090679,0.222607 -1.107608,0.05499 -1.960173,0.06442 -2.141439,0.02369 -0.418875,-0.09412 -0.910895,-0.418829 -0.910895,-0.601156 0,-0.08172 -0.03536,-0.170438 -0.07858,-0.197149 -0.117246,-0.07246 -0.760714,0.626476 -1.053279,1.144077 -0.302358,0.534926 -0.717312,1.500505 -0.717312,1.669154 0,0.104878 -0.284589,0.846146 -0.57683,1.502453 -0.05661,0.12713 -0.213626,0.56053 -0.348926,0.963111 -0.135302,0.40258 -0.30029,0.835979 -0.36664,0.96311 -0.06914,0.132468 -0.130271,0.476575 -0.143206,0.806046 -0.01625,0.413954 -0.06275,0.628706 -0.166064,0.767093 -0.135958,0.182101 -0.187699,0.193151 -0.985251,0.210393 -0.648073,0.01401 -0.979155,-0.01818 -1.438887,-0.139881 -0.328421,-0.08694 -0.597128,-0.18213 -0.597128,-0.211525 0,-0.0294 -0.173118,-0.138283 -0.384706,-0.241969 -0.317194,-0.155438 -0.407534,-0.247599 -0.514795,-0.52517 -0.175053,-0.453003 -0.08687,-0.849139 0.46791,-2.101798 0.237375,-0.535986 0.431591,-1.016154 0.431591,-1.067041 0,-0.05088 0.05,-0.201776 0.111133,-0.335312 1.046572,-2.286412 1.172527,-2.963179 0.723944,-3.889826 -0.162552,-0.335786 -0.204733,-0.585945 -0.21448,-1.271962 l -0.0042,-0.296064 -0.404507,0.03337 c -0.222479,0.01835 -0.696552,0.09338 -1.053497,0.166726 -0.356944,0.07334 -0.711953,0.11689 -0.788908,0.09677 -0.199499,-0.05217 -1.165108,0.180841 -1.257993,0.303567 -0.05083,0.06715 -0.3055,0.112683 -0.733325,0.131102 -0.363832,0.01566 -0.775198,0.08142 -0.924587,0.147792 -0.592457,0.263222 -1.894112,0.753703 -2.002729,0.754656 -0.06356,5.39e-4 -0.496966,0.194966 -0.963111,0.432017 -0.466145,0.237053 -0.96889,0.458538 -1.117209,0.492192 -0.148319,0.03366 -0.61639,0.189269 -1.040159,0.345814 -0.42377,0.156544 -0.995857,0.354556 -1.271307,0.440024 -0.275449,0.08548 -1.05557,0.345531 -1.7336,0.577915 -0.678029,0.232384 -1.357037,0.448001 -1.508904,0.479146 -0.151868,0.03115 -0.810635,0.249669 -1.4639284,0.485605 -0.9019892,0.325752 -1.3228832,0.437617 -1.7491618,0.464891 -0.3087452,0.01976 -0.5848562,0.05942 -0.6135798,0.08815 -0.055672,0.05567 -0.059534,0.127602 -0.081917,1.525779 -0.012282,0.767187 -0.031827,0.89624 -0.1300279,0.858556 -0.091599,-0.03515 -0.1155733,-0.197417 -0.1155733,-0.782269 0,-0.584482 -0.032577,-0.805213 -0.1566685,-1.061553 l -0.1566685,-0.323633 -0.2993984,0.0884 c -0.1646692,0.04862 -0.3977783,0.174641 -0.5180202,0.280045 -0.2371076,0.207849 -2.3101799,0.939149 -3.0298838,1.068827 -0.3437118,0.06193 -0.4399293,0.05543 -0.5093119,-0.03443 -0.1252206,-0.162175 -0.1841281,-0.135993 -0.1841281,0.08184 0,0.138519 -0.041512,0.192622 -0.1477961,0.192622 -0.081287,0 -0.1975067,0.01907 -0.2582641,0.04239 -0.091119,0.03498 -0.11982,-0.143698 -0.1639799,-1.0209 C 1.2514484,18.356148 1.157452,17.270909 1.0720073,16.529314 0.98656267,15.787717 0.88635551,14.834237 0.84932477,14.410469 0.78779243,13.70631 0.70286829,13.152136 0.45992246,11.86941 0.41192727,11.616004 0.3233959,11.313407 0.26318499,11.196971 0.15894854,10.9954 0.16304584,10.982929 0.3488356,10.936298 c 0.10731885,-0.02693 0.2832529,-0.03212 0.39096464,-0.01153 0.10771164,0.02059 0.45272606,-0.04182 0.76669886,-0.138694 0.3139727,-0.09688 0.8926403,-0.215598 1.2859279,-0.263836 0.3932877,-0.04825 2.0152683,-0.294976 3.6044015,-0.5483011 1.5891335,-0.253326 2.9785409,-0.459575 3.0875729,-0.458329 0.1090309,0.0013 1.4612386,-0.208221 3.0049056,-0.46548 1.772542,-0.295401 2.921753,-0.452846 3.119015,-0.427313 0.171791,0.02223 0.588601,0.158669 0.926245,0.303187 0.930381,0.39822 1.706037,0.483016 2.729425,0.298383 1.896044,-0.342069 3.63235,-0.628186 4.314737,-0.711002 0.40258,-0.04886 0.764902,-0.120213 0.80516,-0.1585646 0.04025,-0.038356 0.135606,-0.069729 0.211885,-0.069729 0.07628,0 0.138688,-0.055324 0.138688,-0.1229414 0,-0.067616 0.07107,-0.2227491 0.157931,-0.3447358 0.08686,-0.1219857 0.147538,-0.2728605 0.134835,-0.3352745 -0.0127,-0.062414 0.0631,-0.2540043 0.168454,-0.4257539 0.154641,-0.2521039 0.236293,-0.3126988 0.423768,-0.3144868 0.191053,-0.00182 0.326575,-0.1076795 0.764465,-0.5971291 0.292735,-0.3272022 0.604782,-0.6346086 0.69344,-0.683124 0.117352,-0.064216 2.990342,-0.1033655 10.562794,-0.1439384 6.764392,-0.036243 10.435277,-0.082783 10.49791,-0.1331095 0.05297,-0.04256 0.09631,-0.1476699 0.09631,-0.2335801 0,-0.1489784 0.03207,-0.1539252 0.69344,-0.1069801 0.40726,0.028906 0.693439,0.019918 0.693439,-0.021795 0,-0.039064 -0.06927,-0.093004 -0.153919,-0.1198684 -0.08466,-0.026868 -0.175094,-0.133221 -0.200974,-0.2363388 -0.04877,-0.1942986 -0.183555,-0.2605031 -0.185628,-0.091181 -8.17e-4,0.066876 -0.02258,0.0625 -0.07118,-0.014308 -0.05593,-0.088381 -0.09291,-0.09161 -0.18395,-0.016046 -0.09045,0.075071 -0.120857,0.074052 -0.147439,-0.00493 -0.0257,-0.076368 -0.05881,-0.078707 -0.142329,-0.010082 -0.150652,0.123853 -0.532347,0.039654 -0.533662,-0.1177254 -5.78e-4,-0.069214 -0.02196,-0.203865 -0.04752,-0.2992129 -0.03951,-0.1474489 -0.01632,-0.1733606 0.15515,-0.1733606 0.163683,0 0.201608,0.036232 0.201608,0.1926233 0,0.182012 0.02324,0.1926221 0.421907,0.1926221 0.279319,0 0.503617,-0.049693 0.663684,-0.1470339 0.193525,-0.1176899 0.286155,-0.1315628 0.464155,-0.069515 0.122308,0.042635 0.222379,0.1141021 0.222379,0.1588109 0,0.055957 0.413504,0.064506 1.326964,0.027426 1.048223,-0.04255 1.355322,-0.079533 1.461955,-0.1760302 0.123291,-0.1115773 0.151617,-0.1112684 0.326874,0.00354 0.113901,0.074631 0.351114,0.1257279 0.583668,0.1257279 0.431122,0 0.798639,0.1519957 0.921188,0.3809765 0.04363,0.081528 0.07933,0.2892025 0.07933,0.4614958 0,0.2804995 0.01961,0.3132617 0.187505,0.3132617 0.147135,0 0.192753,-0.045499 0.211884,-0.2113152 0.05049,-0.4376168 0.130235,-0.4460784 3.953873,-0.4195039 1.906959,0.013257 4.307763,0.053318 5.335119,0.089025 1.855254,0.064495 1.86953,0.066286 2.105493,0.2648365 0.263842,0.2220079 0.255797,0.2214104 2.691315,0.1998986 0.656842,-0.00579 2.272595,0.014147 3.590564,0.04433 l 2.396305,0.054885 0.09938,0.2778544 c 0.05466,0.1528194 0.120963,0.2951897 0.147344,0.3163787 0.02639,0.021184 0.186185,0.2236597 0.355123,0.4499376 0.438595,0.5874597 1.20481,1.142847 1.732564,1.2558411 0.233072,0.049897 0.456707,0.1199156 0.496965,0.1555867 0.04025,0.035674 1.324825,0.06486 2.854592,0.06486 h 2.781394 l 0.103409,-0.2889333 c 0.05687,-0.1589128 0.231987,-0.5663095 0.389151,-0.9053241 0.157157,-0.3390157 0.310615,-0.7183693 0.34101,-0.8430086 0.03039,-0.1246392 0.151163,-0.4199158 0.268385,-0.6561687 0.127794,-0.2575697 0.233835,-0.6277248 0.264856,-0.9245244 0.07103,-0.679504 0.236586,-0.8517191 0.815685,-0.8484552 0.376361,0.00215 0.448409,0.028177 0.581349,0.2102706 0.138025,0.1890643 0.156248,0.3855661 0.201614,2.1742097 0.02744,1.0814979 0.0545,1.9750289 0.06014,1.9856229 0.0056,0.010619 0.146902,0.019264 0.313913,0.019264 0.167003,0 0.325077,0.034677 0.351265,0.077044 0.06398,0.1035264 0.500818,0.09885 0.500818,-0.00536 0,-0.045328 0.07801,-0.071327 0.17336,-0.057791 0.159669,0.022675 0.175225,0.070255 0.196976,0.6024878 0.03171,0.775849 -0.02871,1.078685 -0.215182,1.078685 -0.08033,0 -0.167489,-0.03468 -0.193678,-0.07704 -0.06193,-0.100212 -0.34672,-0.100212 -0.34672,0 0,0.04238 -0.17336,0.07704 -0.385244,0.07704 -0.335911,0 -0.385244,0.02005 -0.385244,0.156572 0,0.214214 -0.206037,0.6909661 -0.298612,0.6909661 -0.04143,0 -0.09119,-0.06068 -0.110572,-0.134836 -0.02968,-0.1135681 -0.03665,-0.1105311 -0.0442,0.01926 -0.0089,0.152538 -0.06332,0.154098 -5.376686,0.154098 -4.2257,0 -5.374557,0.02049 -5.399821,0.09631 -0.03891,0.116779 -0.72327,0.131961 -0.83667,0.01857 -0.05082,-0.05083 -1.46366,-0.07083 -4.079738,-0.05779 -3.938437,0.01965 -4.00234,0.02242 -4.024128,0.174387 -0.01908,0.133072 -0.06969,0.150643 -0.365982,0.127077 -0.267524,-0.02128 -0.343842,-0.0015 -0.343842,0.08913 0,0.06407 -0.09652,0.197701 -0.214494,0.296967 l -0.214494,0.180485 -4.889994,0.02427 c -5.184294,0.02574 -6.207386,0.0857 -6.623594,0.38823 -0.644789,0.46867 -1.826941,0.628597 -2.484827,0.336157 -0.20129,-0.08948 -0.365982,-0.19335 -0.365982,-0.230832 0,-0.03749 -0.177641,-0.109153 -0.394756,-0.159269 -0.313888,-0.07245 -0.890065,-0.06413 -2.812614,0.04061 -2.375681,0.129435 -2.416957,0.13449 -2.366186,0.289772 0.02842,0.08692 0.04887,0.383408 0.04544,0.658858 -0.01511,1.214929 1.212876,4.406825 2.349851,6.10791 0.222478,0.332863 0.404506,0.629929 0.404506,0.660151 0,0.03023 0.104298,0.169134 0.231766,0.308697 0.127471,0.139564 0.354277,0.415999 0.504011,0.614301 0.3413,0.452 2.198147,2.325186 2.305318,2.325602 0.04366,1.55e-4 0.27008,0.175487 0.503153,0.389593 0.233073,0.214106 0.527785,0.44339 0.654916,0.509522 0.306478,0.159425 0.577866,0.412754 0.577866,0.539412 0,0.05618 0.05377,0.102143 0.119495,0.102143 0.0926,0 0.07526,0.05799 -0.07704,0.257682 -0.108098,0.141724 -0.196543,0.335273 -0.196543,0.430107 0,0.177037 -0.57677,1.038228 -0.930039,1.388666 -0.310127,0.307643 -0.726681,1.006973 -0.847553,1.422914 -0.07941,0.273262 -0.233613,0.507698 -0.553137,0.840939 -0.243666,0.254128 -0.443031,0.491024 -0.443031,0.526436 0,0.03541 -0.026,0.05917 -0.05779,0.05281 -0.03178,-0.0063 -0.202751,-0.03237 -0.37993,-0.05779 z M 35.165001,15.216268 c 0.715135,-0.04332 1.365235,-0.113554 1.444666,-0.156064 0.131636,-0.07045 0.14442,-0.182764 0.14442,-1.268836 0,-0.743 0.029,-1.191548 0.07704,-1.191548 0.119382,0 0.0909,-0.200779 -0.0444,-0.313074 -0.09814,-0.08145 -0.380438,-0.08531 -1.471011,-0.02013 -1.349489,0.08066 -1.349572,0.08068 -1.578922,0.310027 -0.437715,0.437714 -0.460267,1.330551 -0.04473,1.770884 0.127291,0.134888 0.330904,0.28645 0.452472,0.336805 0.467187,0.193515 0.126716,0.30683 -0.374934,0.124784 -0.330119,-0.1198 -0.820431,-0.724171 -0.943182,-1.162593 -0.06556,-0.234153 -0.177696,-0.40962 -0.335976,-0.52572 -0.130666,-0.09585 -0.363652,-0.304281 -0.517745,-0.463194 -0.154095,-0.158913 -0.342192,-0.288934 -0.417993,-0.288934 -0.127808,0 -0.134752,0.07772 -0.09556,1.069601 0.0483,1.222553 0.130168,1.46366 0.577091,1.699631 0.343236,0.181225 1.112746,0.200498 3.12876,0.07836 z M 74.35394,9.7104879 c 0,-0.154098 0.03853,-0.192623 0.192622,-0.192623 0.10594,0 0.192622,-0.02712 0.192622,-0.06029 0,-0.03316 -0.667436,-0.0507 -1.483191,-0.03899 -0.815755,0.01171 -2.570527,0.0316 -3.899495,0.04419 -2.270374,0.02152 -2.422769,0.03174 -2.523351,0.169289 -0.05888,0.08052 -0.107045,0.17444 -0.107045,0.208718 0,0.03428 1.716263,0.06232 3.813919,0.06232 h 3.81392 z m 9.001104,0.115686 c 1.520428,-1.07e-4 1.64101,-0.01008 1.617087,-0.134355 -0.02891,-0.150107 -0.301593,-0.228088 -0.845827,-0.241887 -0.197755,-0.005 -0.372378,-0.04758 -0.388049,-0.09459 -0.02064,-0.06191 -0.797695,-0.06972 -2.81871,-0.02831 l -2.79021,0.05717 v 0.182407 0.182407 h -1.04016 c -0.738862,0 -1.04016,0.02594 -1.04016,0.08955 0,0.06733 0.702535,0.07691 2.831547,0.03863 1.55735,-0.02801 3.570869,-0.05096 4.474482,-0.05102 z M 59.262183,7.6953792 c 0.113615,-0.1368978 0.101188,-0.3906962 -0.02677,-0.5467677 -0.10914,-0.1331149 -2.377506,-0.1365965 -2.510251,-0.00386 -0.138586,0.1385862 -0.112509,0.5045968 0.04238,0.5948102 0.07433,0.043301 0.640536,0.079586 1.261873,0.080873 0.956237,0.00193 1.143061,-0.016968 1.232778,-0.1250672 z m 4.90047,0.00225 c 0.201039,-0.053887 0.218995,-0.3676935 0.03361,-0.5875016 -0.0991,-0.1175065 -0.264134,-0.1348352 -1.28409,-0.1348352 -1.019822,0 -1.185047,0.017344 -1.284441,0.1348352 -0.141727,0.1675311 -0.165215,0.4954476 -0.04113,0.574313 0.108943,0.069246 2.324602,0.080584 2.576048,0.013193 z M 74.321735,7.4212188 c -0.02854,-0.1785112 -0.05995,-0.3326134 -0.06978,-0.3424501 -0.0099,-0.00987 -0.456494,-0.026118 -0.992575,-0.036179 -0.75349,-0.014147 -1.004832,0.00676 -1.107509,0.092039 -0.106047,0.088092 -0.600296,0.1190028 -2.451835,0.1533256 -1.275457,0.02364 -2.43918,0.016936 -2.58605,-0.014898 -0.258306,-0.056 -0.464929,0.021323 -0.464929,0.1739655 0,0.037187 0.225368,0.067616 0.500818,0.067616 0.393805,0 0.500818,0.024691 0.500818,0.1155737 0,0.1009629 0.424863,0.1155726 3.361474,0.1155726 H 74.37364 Z M 86.409193,6.705623 c -0.0049,-0.6571952 -0.0018,-0.6549149 -0.878974,-0.6549149 -0.716116,0 -0.77888,0.012367 -0.87983,0.1733595 -0.129719,0.2068812 -0.230198,0.7220035 -0.162272,0.8319107 0.02953,0.047784 0.412035,0.069686 0.986111,0.056472 L 86.41209,7.0908589 Z M 50.963319,4.6312274 c 0.404947,-0.089583 0.536651,-0.2297895 0.279107,-0.2971385 -0.08648,-0.022621 -0.157248,-0.00547 -0.157248,0.038152 0,0.043708 -0.05747,0.031834 -0.128102,-0.026472 -0.103023,-0.085046 -0.13466,-0.086258 -0.161591,-0.00622 -0.02658,0.079007 -0.05699,0.080026 -0.14744,0.00493 -0.09104,-0.075564 -0.128024,-0.072335 -0.18395,0.016046 -0.0486,0.076808 -0.07036,0.081184 -0.07118,0.014308 -0.0018,-0.1464826 -0.208995,-0.1149474 -0.253123,0.038527 -0.02132,0.074159 -0.0631,0.1938288 -0.09284,0.2659315 -0.05897,0.1429784 0.08737,0.1352997 0.916367,-0.048084 z m 2.12513,-0.1215395 c 0,-0.042378 -0.03468,-0.077044 -0.07704,-0.077044 -0.04238,0 -0.07706,0.034677 -0.07706,0.077044 0,0.042378 0.03468,0.077044 0.07706,0.077044 0.04238,0 0.07704,-0.034677 0.07704,-0.077044 z m 0,-0.4622938 c 0,-0.042378 -0.01528,-0.077044 -0.03398,-0.077044 -0.01868,0 -0.05541,0.034666 -0.08159,0.077044 -0.02619,0.042378 -0.0109,0.077044 0.03398,0.077044 0.04488,0 0.08159,-0.034677 0.08159,-0.077044 z"
   id="path54" /></svg>
