<?xml version="1.0" encoding="UTF-8" standalone="no"?>
<svg
   xmlns:dc="http://purl.org/dc/elements/1.1/"
   xmlns:cc="http://creativecommons.org/ns#"
   xmlns:rdf="http://www.w3.org/1999/02/22-rdf-syntax-ns#"
   xmlns:svg="http://www.w3.org/2000/svg"
   xmlns="http://www.w3.org/2000/svg"
   xmlns:sodipodi="http://sodipodi.sourceforge.net/DTD/sodipodi-0.dtd"
   xmlns:inkscape="http://www.inkscape.org/namespaces/inkscape"
   version="1.1"
   x="0px"
   y="0px"
   width="52.5px"
   height="32px"
   viewBox="0 0 52.5 32"
   enable-background="new 0 0 52.5 32"
   xml:space="preserve"
   id="svg270"
   sodipodi:docname="revolver357.svg"
   inkscape:version="1.0.2-2 (e86c870879, 2021-01-15)"><metadata
   id="metadata276"><rdf:RDF><cc:Work
       rdf:about=""><dc:format>image/svg+xml</dc:format><dc:type
         rdf:resource="http://purl.org/dc/dcmitype/StillImage" /></cc:Work></rdf:RDF></metadata><defs
   id="defs274" /><sodipodi:namedview
   pagecolor="#ffffff"
   bordercolor="#666666"
   borderopacity="1"
   objecttolerance="10"
   gridtolerance="10"
   guidetolerance="10"
   inkscape:pageopacity="0"
   inkscape:pageshadow="2"
   inkscape:window-width="1842"
   inkscape:window-height="1051"
   id="namedview272"
   showgrid="false"
   inkscape:zoom="16.364471"
   inkscape:cx="29.645696"
   inkscape:cy="21.60276"
   inkscape:window-x="-9"
   inkscape:window-y="-9"
   inkscape:window-maximized="1"
   inkscape:current-layer="svg270" />

<g
   id="guides">
</g>
<path
   style="fill:#ffffff;stroke-width:0.0609799"
   d="M 8.0275986,30.644943 C 7.9102123,30.617218 7.1967477,30.564423 6.4421216,30.527621 4.0756046,30.412209 3.2045259,30.340986 2.650623,30.217606 2.3553928,30.151844 2.0160013,30.098039 1.8964197,30.098039 1.6625978,30.098039 1.1865312,29.807955 0.75238798,29.40094 0.45842762,29.125347 0.2004173,28.573232 0.21093174,28.242278 0.23111633,27.606946 0.61315822,26.004087 0.98951482,24.975729 1.0692992,24.757726 1.1741068,24.455876 1.2224206,24.304951 c 0.1932753,-0.603764 0.8323034,-2.29384 1.1643713,-3.079485 0.2734148,-0.646876 1.3747364,-2.7725 1.5556294,-3.002468 0.066817,-0.08494 0.1214847,-0.179295 0.1214847,-0.209669 0,-0.03038 0.05222,-0.129577 0.1160441,-0.220451 0.063824,-0.09088 0.3010687,-0.453355 0.52721,-0.805513 0.2261411,-0.35216 0.5640872,-0.873537 0.7509912,-1.158618 0.3716379,-0.566853 0.4089027,-0.631385 0.8233651,-1.425838 0.1554109,-0.297896 0.2825649,-0.578588 0.2825649,-0.62376 0,-0.04518 0.065802,-0.281656 0.1462268,-0.52552 0.080424,-0.243862 0.1654877,-0.662915 0.1890303,-0.931226 0.04811,-0.54832 0.095953,-0.640289 0.3330837,-0.640289 0.1480439,0 0.177313,-0.03711 0.2765267,-0.350634 0.061027,-0.192849 0.1854746,-0.570162 0.2765511,-0.838474 0.091077,-0.268311 0.199775,-0.5976026 0.2415517,-0.7317588 0.041776,-0.1341551 0.1281108,-0.3674031 0.1918543,-0.518328 L 8.3348024,8.9685096 9.2032749,8.8276216 c 0.4776607,-0.077487 0.9166901,-0.1223839 0.9756211,-0.09977 0.165388,0.063467 0.424991,-0.074783 0.58794,-0.3131072 C 11.148422,7.8566584 11.898179,7.335178 12.723229,7.0540117 13.382475,6.8293496 13.541054,6.6951635 13.481265,6.4125782 13.40262,6.0408871 12.826766,5.4259938 12.138198,4.978464 11.876683,4.8084941 11.635895,4.6694273 11.603113,4.6694273 c -0.03278,0 -0.239671,-0.072039 -0.459755,-0.1600867 C 10.872382,4.4009333 10.581511,4.3391671 10.242323,4.3180055 L 9.7414425,4.2867612 9.7764989,4.0969719 C 9.8389177,3.758979 9.854485,3.755607 10.924147,3.8483512 c 0.536623,0.046532 1.224018,0.08566 1.527547,0.086957 0.303527,0.0013 0.577937,0.026075 0.609798,0.055054 0.202265,0.1839625 1.138407,0.2456639 1.545902,0.1018899 0.180513,-0.063686 0.297662,-0.072438 0.408007,-0.030486 0.228547,0.086898 0.268808,0.074015 0.268808,-0.085979 0,-0.079653 0.01644,-0.227081 0.03655,-0.3276138 0.03348,-0.1674033 0.0624,-0.1858475 0.343659,-0.2191586 0.168905,-0.020008 0.323962,-0.053348 0.344567,-0.074104 0.02061,-0.020746 0.03746,-0.3989159 0.03746,-0.8403665 V 1.7119029 l 0.533574,-0.00275 0.533574,-0.00275 0.0022,0.3381471 c 0.0017,0.2565701 0.03477,0.3779032 0.137205,0.5029435 0.134725,0.1644445 0.13729,0.1648806 1.20216,0.2046431 0.586931,0.021914 4.517847,0.042371 8.735369,0.045465 5.875953,0.00429 7.66822,0.022543 7.66822,0.078036 0,0.039836 -0.03901,0.1476029 -0.08668,0.2394909 -0.122229,0.235594 -0.01752,0.4566696 0.216277,0.4566696 0.268482,0 0.393257,-0.3221472 0.199732,-0.5156727 -0.07799,-0.077986 -0.0826,-0.1155123 -0.02302,-0.1872955 0.06435,-0.077537 0.669902,-0.089592 4.442341,-0.088494 3.972117,0.0012 4.461762,-0.00968 5.404499,-0.1197095 1.802841,-0.210398 2.241209,-0.2486327 2.843697,-0.2480299 0.536418,5.369e-4 0.590212,-0.010009 0.619335,-0.121371 0.02143,-0.081938 0.08318,-0.1219598 0.188159,-0.1219598 0.08595,0 0.410947,-0.080232 0.722223,-0.1782929 1.28606,-0.4051458 1.654633,-0.4571275 1.994622,-0.2813119 0.187136,0.096772 0.248282,0.2041156 0.248282,0.4358676 0,0.082078 0.08233,0.3990357 0.182939,0.7043563 0.100617,0.3053206 0.18294,0.674979 0.18294,0.8214633 0,0.219891 0.01997,0.2663344 0.114494,0.2663344 0.23888,0 0.254183,0.1086648 0.237222,1.6844982 -0.01609,1.4943427 -0.01826,1.5172206 -0.14592,1.5354343 -0.117852,0.016815 -0.133313,0.069294 -0.170658,0.579308 -0.03925,0.5359401 -0.12774,1.17144 -0.19486,1.3992943 -0.02945,0.099951 -0.243098,0.1067148 -3.371117,0.1067148 -1.836824,0 -6.472496,0.018252 -10.301492,0.040565 l -6.96181,0.040565 v 0.3012671 c 0,0.1656969 -0.04402,0.4698748 -0.09782,0.6759498 -0.0538,0.206074 -0.148144,0.649089 -0.20966,0.984479 -0.112831,0.615159 -0.22357,1.147228 -0.552088,2.652625 -0.09881,0.452777 -0.179076,0.884971 -0.178374,0.960433 7.02e-4,0.07546 -0.02616,0.137205 -0.0597,0.137205 -0.03354,0 -0.06098,-0.02744 -0.06098,-0.06098 0,-0.07827 -2.087607,-0.07976 -2.826571,-0.002 -0.347936,0.0366 -0.564698,0.08881 -0.609799,0.146882 -0.03849,0.04955 -0.192697,0.152941 -0.342692,0.229758 -0.387014,0.1982 -0.685225,0.513071 -0.886901,0.936451 -0.145294,0.305017 -0.181125,0.47746 -0.215397,1.036658 -0.04609,0.752111 -0.262539,1.516171 -0.557964,1.969658 -0.09395,0.144223 -0.171328,0.281427 -0.171943,0.304899 -0.0016,0.06216 -0.729469,0.816292 -0.94407,0.978175 -0.401577,0.302929 -0.913314,0.540244 -1.250088,0.57972 -0.150925,0.01769 -0.466159,0.06448 -0.70052,0.103974 -0.516807,0.0871 -2.568144,0.04362 -2.927784,-0.06205 -0.584478,-0.171727 -0.686956,-0.207692 -0.975677,-0.342424 -0.167695,-0.07826 -0.47827,-0.282068 -0.690167,-0.452918 -0.541051,-0.43624 -1.168493,-0.670332 -1.796719,-0.670332 -0.482154,0 -0.551754,0.02015 -1.324357,0.383427 -0.282578,0.132867 -1.158618,0.963837 -1.158618,1.09901 0,0.04174 -0.04802,0.143751 -0.106715,0.226676 -0.206028,0.291089 -0.257317,0.566959 -0.258247,1.389054 l -9.18e-4,0.81142 -0.196529,0.179503 c -0.108092,0.09872 -0.22925,0.179502 -0.269241,0.179502 -0.03999,0 -0.15041,0.08233 -0.245377,0.18294 -0.09497,0.100616 -0.20635,0.182939 -0.247522,0.182939 -0.04117,0 -0.117427,0.08233 -0.169459,0.18294 -0.05203,0.100617 -0.117404,0.18294 -0.145273,0.18294 -0.02787,0 -0.156191,0.226387 -0.285157,0.503084 l -0.234486,0.503084 -0.0029,1.265902 -0.0029,1.265901 -0.274409,0.18211 c -0.150926,0.10016 -0.3055182,0.182227 -0.3435393,0.18237 -0.062698,2.44e-4 -0.2486935,0.189987 -0.6110804,0.623409 -0.1425332,0.170472 -0.2559186,0.396495 -0.4368702,0.870859 -0.07556,0.198081 -0.1864833,0.352968 -0.316615,0.442104 -0.1101692,0.07546 -0.2168304,0.134397 -0.2370245,0.130963 -0.020191,-0.0034 -0.1327568,-0.02893 -0.2501431,-0.05665 z M 21.870032,20.629106 c 0.664372,-0.232604 0.815035,-0.30115 1.114954,-0.50726 0.826482,-0.567972 1.352947,-1.407387 1.445537,-2.304813 0.05777,-0.559904 0.0037,-1.120726 -0.138739,-1.439467 -0.153685,-0.343874 -1.059724,-1.341558 -1.218325,-1.341558 -0.03127,0 -0.133758,-0.08233 -0.227748,-0.18294 -0.166923,-0.178691 -0.184484,-0.182939 -0.756225,-0.182939 -0.425046,0 -0.586651,0.02088 -0.590147,0.07623 -0.0039,0.06098 -0.01097,0.06098 -0.03557,0 -0.0222,-0.05504 -0.237024,-0.07652 -0.77268,-0.07728 -0.408057,-6.1e-4 -1.000703,-0.02831 -1.316989,-0.06162 -0.61826,-0.06511 -1.162899,-0.02494 -1.162797,0.08578 4.3e-5,0.04651 0.222656,0.06837 0.69625,0.06837 0.626357,0 0.71479,0.01376 0.881676,0.137205 0.102019,0.07546 0.212666,0.137205 0.245882,0.137205 0.03321,0 0.182371,0.08233 0.331457,0.18294 0.149086,0.100616 0.299767,0.182939 0.334847,0.182939 0.144125,0 0.117466,0.12055 -0.08378,0.378862 -0.15341,0.19691 -0.340394,0.335434 -0.669511,0.495995 -0.251158,0.12253 -0.477794,0.222781 -0.503636,0.222781 -0.08987,0 -0.688327,0.580482 -0.785849,0.762249 -0.05399,0.100617 -0.141502,0.265262 -0.194486,0.365879 -0.07086,0.134563 -0.09635,0.360321 -0.09637,0.853719 -3e-5,0.623691 0.01245,0.694322 0.177767,1.006167 0.09778,0.184465 0.303125,0.458997 0.456302,0.610072 0.249865,0.246436 0.269455,0.285327 0.190489,0.378187 -0.08278,0.09735 -0.09869,0.09734 -0.267388,-2.44e-4 -0.436414,-0.252494 -0.795177,-0.725604 -0.994397,-1.311339 -0.29931,-0.880003 -0.256048,-1.543016 0.16392,-2.512211 0.02907,-0.06708 0.13468,-0.259164 0.234699,-0.426859 0.204534,-0.342929 0.249216,-0.756633 0.0955,-0.884209 -0.0503,-0.04175 -0.09147,-0.103708 -0.09147,-0.137678 0,-0.03397 -0.07316,-0.129565 -0.162571,-0.212431 -0.157435,-0.145907 -0.169057,-0.147572 -0.367948,-0.05273 -0.112958,0.05387 -0.239128,0.09793 -0.28038,0.09793 -0.10591,0 -0.874446,0.70484 -0.98429,0.902714 -0.381181,0.686656 -0.475692,1.239087 -0.349781,2.044535 0.06733,0.430684 0.416977,1.21055 0.619761,1.382323 0.05938,0.05031 0.118149,0.120587 0.130573,0.156173 0.03183,0.09119 0.512838,0.514606 0.584592,0.514606 0.03266,0 0.107975,0.0537 0.167364,0.119317 0.114837,0.126894 0.937011,0.465061 1.343948,0.552779 0.417888,0.09008 2.519632,0.03126 2.835565,-0.07935 z m -2.392367,-8.703072 c 0.07236,-0.115864 0.0609,-0.12196 -0.229251,-0.12196 -0.174305,0 -0.305416,0.02772 -0.305416,0.06457 0,0.03552 -0.02744,0.04762 -0.06098,0.02689 -0.03354,-0.02073 -0.06098,-0.09181 -0.06098,-0.157963 0,-0.06615 -0.04116,-0.13607 -0.09147,-0.155374 -0.121642,-0.04668 -0.136248,-1.179581 -0.01525,-1.182525 0.0423,-9.98e-4 0.02873,-0.02952 -0.03049,-0.064 -0.08905,-0.05187 -0.106715,-0.152477 -0.106715,-0.6079443 0,-0.4444922 -0.01697,-0.5457894 -0.09147,-0.5457894 -0.07871,0 -0.09147,0.1998791 -0.09147,1.4330277 v 1.433027 h 0.50366 c 0.437619,0 0.513648,-0.01599 0.579826,-0.121959 z m 8.113409,-1.143444 c 0.01069,-0.695893 9.7e-4,-1.4779295 -0.02159,-1.7378555 -0.03876,-0.4465608 -0.04907,-0.4725942 -0.187118,-0.4725942 -0.129799,0 -0.146102,0.027213 -0.146102,0.2439196 0,0.1543368 -0.02799,0.2440194 -0.07623,0.24419 -0.05802,1.836e-4 -0.08104,0.3170639 -0.09637,1.3263131 -0.01459,0.960153 -0.04134,1.347987 -0.09696,1.405579 -0.08407,0.08706 -2.516424,0.0963 -5.379502,0.02044 l -1.471934,-0.039 0.130377,0.130772 c 0.130214,0.13061 0.134844,0.13078 3.72819,0.137134 l 3.597812,0.0064 z m -0.04991,-3.5448952 c 0,-0.2465032 -0.02101,-0.3032799 -0.121959,-0.3296804 -0.117097,-0.030626 -0.121959,-0.083175 -0.121959,-1.3181798 0,-1.2456331 0.0039,-1.2862867 0.121959,-1.2862867 0.135839,0 0.160998,-0.1195089 0.04879,-0.2317232 -0.05567,-0.055673 -1.102372,-0.07145 -4.375307,-0.065961 -2.366172,0.00399 -4.384453,0.024808 -4.485071,0.046303 l -0.18294,0.039088 -0.01635,1.4477046 c -0.01424,1.2610458 -0.0044,1.4477047 0.07622,1.4477047 0.07953,0 0.09258,-0.1631942 0.09258,-1.1581011 0,-1.0920598 0.007,-1.1624439 0.12196,-1.234266 0.06708,-0.041892 0.12196,-0.1215107 0.12196,-0.1769323 0,-0.055424 0.03807,-0.1153776 0.08461,-0.1332351 0.04653,-0.017853 1.813284,-0.05238 3.926107,-0.076709 l 3.841499,-0.044237 0.190034,0.1353167 0.190035,0.1353167 v 1.2699012 c 0,1.0725478 0.01421,1.2753557 0.09147,1.3050014 0.06037,0.023171 0.09147,0.1186687 0.09147,0.2809338 0,0.2215686 0.01505,0.2458336 0.152449,0.2458336 0.141801,0 0.152449,-0.020796 0.152449,-0.2977874 z M 33.454072,3.453822 c 0.08427,-0.1574622 -0.01377,-0.4083291 -0.180236,-0.4611612 -0.23368,-0.074164 -0.432232,0.2203052 -0.3067,0.4548655 0.08836,0.1651051 0.399789,0.1691316 0.486936,0.00629 z m 8.527124,0.044796 c 0.04025,-0.040245 0.07318,-0.1445224 0.07318,-0.2317232 0,-0.1917511 -0.101833,-0.3048994 -0.27441,-0.3048994 -0.172576,0 -0.274409,0.1131483 -0.274409,0.3048994 0,0.1917512 0.101833,0.3048995 0.274409,0.3048995 0.07043,0 0.160987,-0.032931 0.201233,-0.073176 z m 6.768768,0 c 0.173809,-0.1738088 0.0622,-0.5366226 -0.165072,-0.5366226 -0.281105,0 -0.392343,0.2211055 -0.247446,0.4918477 0.07056,0.131846 0.300491,0.1568026 0.412518,0.044775 z"
   id="path292" /></svg>
