<?xml version="1.0" encoding="UTF-8" standalone="no"?>
<svg
   xmlns:dc="http://purl.org/dc/elements/1.1/"
   xmlns:cc="http://creativecommons.org/ns#"
   xmlns:rdf="http://www.w3.org/1999/02/22-rdf-syntax-ns#"
   xmlns:svg="http://www.w3.org/2000/svg"
   xmlns="http://www.w3.org/2000/svg"
   xmlns:sodipodi="http://sodipodi.sourceforge.net/DTD/sodipodi-0.dtd"
   xmlns:inkscape="http://www.inkscape.org/namespaces/inkscape"
   version="1.1"
   x="0px"
   y="0px"
   width="109.5px"
   height="32px"
   viewBox="0 0 109.5 32"
   enable-background="new 0 0 109.5 32"
   xml:space="preserve"
   id="svg62"
   sodipodi:docname="dragunov.svg"
   inkscape:version="1.0.2-2 (e86c870879, 2021-01-15)"><metadata
   id="metadata68"><rdf:RDF><cc:Work
       rdf:about=""><dc:format>image/svg+xml</dc:format><dc:type
         rdf:resource="http://purl.org/dc/dcmitype/StillImage" /></cc:Work></rdf:RDF></metadata><defs
   id="defs66" /><sodipodi:namedview
   pagecolor="#ffffff"
   bordercolor="#666666"
   borderopacity="1"
   objecttolerance="10"
   gridtolerance="10"
   guidetolerance="10"
   inkscape:pageopacity="0"
   inkscape:pageshadow="2"
   inkscape:window-width="1842"
   inkscape:window-height="1051"
   id="namedview64"
   showgrid="false"
   inkscape:zoom="11.09589"
   inkscape:cx="57.020724"
   inkscape:cy="10.977835"
   inkscape:window-x="-9"
   inkscape:window-y="-9"
   inkscape:window-maximized="1"
   inkscape:current-layer="svg62" />

<g
   id="guides">
</g>
<path
   style="fill:#ffffff;stroke-width:0.0922709"
   d="m 37.213234,26.940624 c -0.239183,-0.03554 -0.239906,-0.03834 -0.322948,-1.253436 -0.04578,-0.669797 -0.07826,-2.287002 -0.07219,-3.593789 0.006,-1.306786 -0.02219,-2.375975 -0.06278,-2.375975 -0.04061,0 -0.0871,0.09342 -0.103309,0.20761 -0.02145,0.151032 -0.101503,0.215842 -0.293737,0.23782 -0.169275,0.01935 -0.281278,0.09532 -0.311626,0.211371 -0.04662,0.178242 -0.0495,0.178128 -0.179267,-0.0072 -0.08844,-0.12626 -0.234421,-0.188305 -0.44306,-0.188305 h -0.311172 l -0.02962,-0.853506 c -0.01676,-0.483066 0.0093,-0.881364 0.05999,-0.917692 0.04953,-0.03549 0.0542,-0.09738 0.01043,-0.138406 -0.04353,-0.04082 -0.09769,-0.02232 -0.120355,0.04112 -0.03044,0.08524 -0.398535,0.115339 -1.410487,0.115339 -1.331424,0 -1.376991,0.0065 -1.647602,0.234179 -0.174948,0.147209 -0.292031,0.344251 -0.315261,0.530558 -0.03672,0.294437 -0.03705,0.294165 -0.05172,-0.04143 -0.01189,-0.271921 0.03923,-0.383246 0.262046,-0.570737 0.152247,-0.128106 0.276813,-0.256363 0.276813,-0.285014 0,-0.02865 -0.65397,-0.05201 -1.453267,-0.05192 l -1.453266,1.84e-4 -0.293978,0.438108 c -0.420899,0.627256 -0.474628,1.148082 -0.176077,1.706833 0.283361,0.53032 0.108007,0.616658 -0.263416,0.129697 -0.304083,-0.398674 -0.327778,-1.153463 -0.05049,-1.608261 0.101308,-0.166167 0.184196,-0.384156 0.184196,-0.484429 0,-0.155549 -0.06327,-0.182311 -0.431022,-0.182311 -0.271583,0 -0.493438,0.05648 -0.59976,0.152707 -0.100959,0.09137 -0.16874,0.109899 -0.16874,0.04613 0,-0.05861 -0.124565,-0.106572 -0.276812,-0.106572 -0.215299,0 -0.276812,0.04101 -0.276812,0.184542 0,0.110203 0.06151,0.184542 0.152706,0.184542 0.142095,0 0.142095,0.01172 0,0.168739 -0.09998,0.110474 -0.152706,0.330849 -0.152706,0.638208 0,0.282598 -0.04398,0.484128 -0.110503,0.506301 -0.08431,0.0281 -0.08137,0.107162 0.01242,0.333596 0.0676,0.163219 0.102157,0.317522 0.07679,0.342897 -0.02537,0.02537 -0.09682,-0.07623 -0.158773,-0.225796 -0.108608,-0.262203 -0.129684,-0.270148 -0.589113,-0.22206 -0.74047,0.0775 -1.382827,0.449637 -1.718491,0.995564 -0.193226,0.314264 -0.834079,2.981828 -0.834079,3.471869 0,0.177156 -0.0519,0.391441 -0.115338,0.47619 -0.106907,0.142824 -0.210876,0.134918 -1.42226,-0.108144 -0.846384,-0.169795 -1.561699,-0.376618 -2.029954,-0.586902 -0.397671,-0.178586 -0.836079,-0.369705 -0.974237,-0.424708 -0.138161,-0.055 -0.278054,-0.194842 -0.310876,-0.310754 -0.03282,-0.115912 -0.22694,-0.356074 -0.431375,-0.533696 -0.348918,-0.303154 -0.417521,-0.324879 -1.119324,-0.354454 -0.49197,-0.02073 -1.473335,0.06834 -2.869854,0.260466 -1.167227,0.160584 -2.537449,0.3247 -3.044939,0.364703 -0.50749,0.04 -1.939996,0.202331 -3.1833461,0.360735 -1.2433502,0.158403 -3.3194451,0.416999 -4.6135442,0.574658 -1.2940992,0.157658 -2.4322275,0.308628 -2.5291742,0.335487 -0.16901223,0.04683 -0.17368846,0.0018 -0.11362326,-1.092394 0.0344539,-0.627678 0.10207766,-1.701777 0.15027537,-2.386889 0.0847054,-1.20406 0.045074,-2.291321 -0.18498415,-5.074898 -0.0482346,-0.583614 -0.0883563,-1.133779 -0.08916,-1.22259 -0.001362,-0.150637 0.2084509,-0.161474 3.12656884,-0.161474 h 3.1280293 l 0.032248,-0.838649 c 0.049919,-1.298189 -0.3849939,-1.19131 4.8476554,-1.19131 h 4.379742 l 0.269714,0.269715 c 0.253582,0.253582 0.269716,0.314294 0.269716,1.01498 v 0.745264 h 2.487757 2.487757 l 0.09938,-0.369083 c 0.05466,-0.202997 0.138514,-0.369084 0.18634,-0.369084 0.04782,0 0.11531,-0.114186 0.149965,-0.253745 0.06033,-0.242983 0.674204,-1.151908 0.852321,-1.26199 0.047,-0.02906 1.584239,-0.05393 3.41607,-0.0553 2.096517,-0.0015 3.3306,-0.03575 3.3306,-0.0923 0,-0.0494 -0.04293,-0.08982 -0.09539,-0.08982 -0.06139,0 -0.08605,-0.353624 -0.0692,-0.991913 l 0.02619,-0.991912 0.276812,-0.03107 c 0.152247,-0.01709 0.306201,-0.08293 0.34212,-0.146321 0.04479,-0.07904 0.225977,-0.101922 0.576694,-0.07284 0.550001,0.04561 0.629167,-0.02979 0.322585,-0.3072447 -0.169191,-0.153117 -0.241744,-0.159757 -0.698557,-0.06394 -0.280365,0.05881 -0.637765,0.170781 -0.79422,0.248832 -0.156455,0.07805 -0.352825,0.1419087 -0.436376,0.1419087 -0.08356,0 -0.202646,0.05073 -0.264654,0.112743 -0.07826,0.07826 -0.556588,0.116037 -1.563992,0.123508 -0.798187,0.0059 -1.555052,0.05369 -1.681925,0.106155 -0.129501,0.05356 -0.316651,0.06303 -0.426694,0.02159 -0.107813,-0.0406 -0.747212,-0.103766 -1.420893,-0.140388 -0.969428,-0.0527 -1.257702,-0.09941 -1.3823,-0.224014 -0.195116,-0.1951157 -0.614811,-0.3084327 -0.690253,-0.1863657 -0.0356,0.05759 -0.120358,0.05057 -0.232134,-0.01924 -0.09683,-0.06048 -0.190994,-0.09076 -0.209238,-0.06732 -0.01824,0.02346 -0.196599,0.2467607 -0.396347,0.4962377 l -0.363178,0.453596 -0.05865,-1.0994917 C 20.476467,9.0935521 20.419552,8.1835605 20.382234,7.6760706 l -0.06785,-0.9227083 0.461755,0.4472899 c 0.375925,0.3641478 0.493772,0.4309311 0.633988,0.3592795 0.09473,-0.048407 0.346819,-0.077637 0.560204,-0.064952 0.315612,0.018757 0.413439,-0.015808 0.524517,-0.1853405 0.127509,-0.194604 0.216551,-0.2112832 1.34562,-0.252053 0.738768,-0.026681 1.250778,-0.085367 1.316287,-0.1508713 0.1374,-0.1374007 0.689948,-0.1398333 0.735479,-0.00328 0.04777,0.1433195 0.953753,0.223089 1.035292,0.091151 0.07932,-0.1283409 1.219814,-0.1376414 1.298336,-0.010586 0.03137,0.050751 0.220664,0.092267 0.420664,0.092267 0.200002,0 0.363638,0.036479 0.363638,0.081077 0,0.079408 0.174495,0.1560048 0.83699,0.3674057 0.466654,0.1489086 1.269632,0.1339341 1.430238,-0.026671 0.0725,-0.072497 0.131816,-0.2377952 0.131816,-0.3673258 0,-0.3680558 0.400104,-0.4087847 1.789121,-0.1821205 0.277793,0.045335 0.377898,0.024664 0.442872,-0.091438 0.04617,-0.0825 0.164929,-0.1500081 0.263906,-0.1500081 0.156616,0 0.179956,-0.065822 0.179956,-0.5074899 0,-0.2791199 -0.04152,-0.5074898 -0.09227,-0.5074898 -0.05075,0 -0.09227,-0.062279 -0.09227,-0.1384072 0,-0.114639 0.174291,-0.1384061 1.01498,-0.1384061 0.84069,0 1.01498,0.023763 1.01498,0.1384061 0,0.076122 -0.04153,0.1384072 -0.09227,0.1384072 -0.05075,0 -0.09227,0.2283699 -0.09227,0.5074898 0,0.4485891 0.02176,0.5074899 0.187437,0.5074899 0.103091,0 0.211338,0.062279 0.240549,0.1384061 0.02921,0.076122 0.112256,0.1384062 0.184541,0.1384062 0.07229,0 0.155331,0.062279 0.184542,0.1384061 0.02921,0.076122 0.127455,0.1384061 0.21832,0.1384061 0.127664,0 0.162115,-0.068146 0.151601,-0.2998801 l -0.01362,-0.2998832 h 0.784302 0.784303 l -0.02313,0.3778436 -0.02313,0.3778436 1.252775,0.060078 c 0.689027,0.033049 2.932455,0.032711 4.985395,-7.382e-4 l 3.732618,-0.060826 -0.02577,1.2837744 -0.02577,1.2837755 -2.392838,0.02466 c -1.532497,0.0158 -2.426583,-0.0091 -2.486698,-0.0692 -0.120283,-0.120283 -3.470976,-0.128015 -3.470976,-0.008 0,0.04722 -0.09342,0.09912 -0.20761,0.1153377 -0.151192,0.02147 -0.215838,0.101492 -0.237892,0.294471 -0.01666,0.145742 0.01449,0.309753 0.0692,0.36447 0.05687,0.05687 0.09949,0.467071 0.09949,0.957603 v 0.85812 l 3.967649,0.01384 c 2.182206,0.0076 4.01955,0.01799 4.082986,0.02307 0.06344,0.0051 0.128607,-0.0842 0.144824,-0.198383 0.01895,-0.13342 0.09314,-0.207609 0.20761,-0.207609 0.09797,0 0.178124,-0.04153 0.178124,-0.09227 0,-0.05075 -0.182787,-0.09227 -0.406192,-0.09227 -0.368368,0 -0.41518,-0.02578 -0.502691,-0.276812 -0.103182,-0.29599 -0.01763,-0.36535 0.170716,-0.138406 0.12436,0.149844 0.738167,0.193377 0.738167,0.05235 0,-0.173638 0.380305,-0.209206 0.554202,-0.05184 0.150643,0.13633 0.397929,0.153229 2.00028,0.136692 2.223611,-0.02294 2.151333,-0.02714 2.151333,0.124891 0,0.100438 0.759146,0.137221 4.036851,0.195608 3.868922,0.06892 15.001114,0.231011 15.742389,0.22922 0.527674,-0.0013 0.704896,0.08006 0.704896,0.323503 0,0.143614 0.06808,0.231944 0.20761,0.269336 0.359946,0.09646 2.26006,0.06277 2.531442,-0.04489 0.164772,-0.06536 0.799585,-0.09282 1.736086,-0.07508 0.811983,0.01538 1.700839,0.01902 1.975234,0.0081 0.631542,-0.02516 1.185043,0.290599 1.185043,0.676037 0,0.45527 0.649369,0.878053 1.348634,0.878053 0.133672,0 0.24304,0.04153 0.24304,0.09227 0,0.0608 2.688531,0.09227 7.88105,0.09227 h 7.881049 l 0.06492,-0.384282 c 0.03571,-0.211354 0.184689,-0.651205 0.331059,-0.977445 0.224763,-0.500957 0.266137,-0.712998 0.266137,-1.364065 v -0.770895 l 0.274054,0.09553 c 0.195743,0.06824 0.368226,0.06446 0.603575,-0.01321 0.59547,-0.196522 0.5987,-0.187745 0.5987,1.620465 v 1.625909 l 0.94577,-0.02416 c 0.52018,-0.01329 1.48557,0.02598 2.14531,0.08728 0.74716,0.06942 1.72598,0.08834 2.59559,0.05017 0.9934,-0.04361 1.53532,-0.02787 1.87887,0.05455 0.39473,0.09469 0.49648,0.09373 0.55766,-0.0053 0.0616,-0.09977 0.10044,-0.09984 0.22029,-3.98e-4 0.21026,0.174508 0.20838,1.371536 -0.002,1.452377 -0.0813,0.03117 -0.18038,0.0039 -0.2203,-0.06072 -0.0564,-0.09135 -0.17218,-0.09554 -0.52124,-0.01891 -0.64635,0.141902 -2.60991,0.211662 -5.96186,0.21181 l -2.929599,9.2e-5 v 0.456236 0.456235 h -0.415219 -0.415219 v -0.53432 -0.534321 l -7.882487,-0.0037 c -7.302828,-0.0034 -7.885464,0.0077 -7.922979,0.151172 -0.03593,0.137398 -0.193907,0.152383 -1.402041,0.132999 -1.030271,-0.01654 -1.38046,-0.0524 -1.439275,-0.147409 -0.06274,-0.101359 -0.568375,-0.123795 -2.623063,-0.116393 -2.495048,0.009 -2.548079,0.01309 -2.684327,0.207609 -0.192044,0.274255 -0.774397,0.284706 -0.774397,0.01394 0,-0.102523 -0.06151,-0.184542 -0.138406,-0.184542 -0.09996,0 -0.138407,0.102523 -0.138407,0.369084 v 0.369083 l -2.145298,-5.54e-4 c -1.179914,-2.76e-4 -3.785413,-0.04372 -5.789998,-0.0965 -4.958794,-0.130578 -8.122989,0.009 -11.764538,0.51893 -0.862733,0.120811 -1.963063,0.261066 -2.445178,0.311676 -1.129798,0.118603 -3.506294,0.119491 -3.506294,0.0013 0,-0.05339 -0.587076,-0.08897 -1.468645,-0.08897 -1.091433,0 -1.479225,-0.02962 -1.509837,-0.115339 -0.07405,-0.207341 -0.152835,-0.0229 -0.308015,0.721071 -0.229353,1.099586 -0.283042,4.825091 -0.08938,6.202418 0.189778,1.349742 0.188216,1.403959 -0.04045,1.403959 -0.102769,0 -0.789729,0.145326 -1.526576,0.322948 -0.736848,0.177622 -1.421338,0.322948 -1.521087,0.322948 -0.09975,0 -0.855676,0.161954 -1.679836,0.359898 -1.582925,0.380182 -2.086072,0.462335 -2.476361,0.40434 z M 5.4810931,19.163798 V 16.857027 H 4.8557277 c -1.1168721,0 -1.3123232,0.313916 -1.3123232,2.107732 0,1.485659 0.037537,1.670482 0.433125,2.132639 0.3117012,0.364152 0.3337457,0.373173 0.9119929,0.373173 h 0.5925707 z m 1.9812185,1.901397 c 0.2797025,-0.333158 0.6930726,-1.384155 0.69598,-1.769537 7.381e-4,-0.0979 0.065536,-0.362355 0.1439946,-0.587684 0.2258883,-0.648741 0.2042733,-1.039832 -0.081322,-1.471395 L 7.9697886,16.857027 H 6.9099827 5.8501766 v 2.317185 2.317184 l 0.6583921,-0.03721 C 7.1399448,21.418506 7.17908,21.402546 7.4623116,21.065187 Z M 19.884183,21.31227 c 0.147389,-0.08707 0.26798,-0.209567 0.26798,-0.272228 0,-0.06266 0.05278,-0.147131 0.117283,-0.187714 0.281179,-0.176905 0.618561,-1.274792 0.619887,-2.017193 9.22e-4,-0.503921 -0.02414,-0.577861 -0.252748,-0.746264 -0.269532,-0.198555 -1.372492,-0.585948 -1.668269,-0.585948 -0.09703,0 -0.648894,-0.145199 -1.226365,-0.322666 l -1.049945,-0.322665 -2.471949,-2.78e-4 -2.471949,-2.76e-4 -0.36586,0.392151 c -0.556941,0.596966 -0.611467,0.927213 -0.321453,1.946961 0.398535,1.401328 0.486132,1.582769 0.822939,1.70456 0.365076,0.132013 1.084085,0.13635 1.946377,0.01174 0.354419,-0.05121 1.247141,-0.09807 1.983823,-0.104119 l 1.339426,-0.011 0.692032,0.332829 c 0.807134,0.388185 1.573986,0.456686 2.038791,0.182119 z M 106.8868,14.965473 c 0,-0.118171 -0.25632,-0.138406 -1.75316,-0.138406 -1.49683,0 -1.75314,0.02023 -1.75314,0.138406 0,0.118172 0.25631,0.138407 1.75314,0.138407 1.49684,0 1.75316,-0.02023 1.75316,-0.138407 z M 79.844142,14.204239 c -0.004,-0.13956 -0.02823,-0.201842 -0.05382,-0.138407 -0.05922,0.146747 -3.122621,0.163247 -3.502378,0.01887 -0.436454,-0.165939 -1.701858,-0.227811 -1.788603,-0.08746 -0.101257,0.163836 0.09331,0.344067 0.424588,0.393293 0.147302,0.02189 1.31625,0.04602 2.597663,0.05362 l 2.329839,0.01382 -0.0073,-0.253745 z m -6.029868,0.02966 c 0.186321,-0.186322 0.165094,-0.237267 -0.09886,-0.237267 -0.169163,0 -0.230677,0.04922 -0.230677,0.184541 0,0.216192 0.143167,0.239099 0.329539,0.05273 z m 26.452086,-0.0889 c 0.25178,-0.191126 0.20849,-0.596412 -0.0752,-0.704276 -0.611775,-0.232597 -1.239651,-0.03464 -1.239651,0.390853 0,0.278782 0.266174,0.435999 0.738167,0.435999 0.228371,0 0.487884,-0.05516 0.576694,-0.122576 z m -38.130944,-0.0561 c 0.09352,-0.06044 -0.229965,-0.0899 -0.997358,-0.09085 -0.73402,-9.14e-4 -1.115592,0.03123 -1.078737,0.09085 0.07342,0.118791 1.89228,0.118791 2.076095,0 z m 4.751951,0 c 0.03677,-0.0595 -0.323805,-0.09227 -1.01498,-0.09227 -0.691174,0 -1.051748,0.03278 -1.01498,0.09227 0.0321,0.05193 0.475876,0.09227 1.01498,0.09227 0.539103,0 0.982887,-0.04035 1.01498,-0.09227 z m 4.798086,0 c 0.03682,-0.05958 -0.339183,-0.09227 -1.061116,-0.09227 -0.721931,0 -1.097934,0.03269 -1.061115,0.09227 0.03236,0.05237 0.491255,0.09227 1.061115,0.09227 0.569861,0 1.028751,-0.03991 1.061116,-0.09227 z M 36.207298,12.435571 c 0,-0.290236 -0.129259,-0.376629 -0.563497,-0.376629 H 35.192318 V 11.36691 10.674878 h -0.776755 c -0.427217,0 -0.842435,0.02521 -0.92271,0.056 -0.118755,0.04557 -0.145952,0.21751 -0.145952,0.922709 v 0.866702 h 1.430198 c 0.807025,0 1.430199,-0.03692 1.430199,-0.08472 z m 14.140513,-0.255508 c 0.494803,-0.03121 0.899641,-0.09198 0.899641,-0.13506 0,-0.04308 -0.519024,-0.07833 -1.153386,-0.07833 -0.707411,0 -1.153386,0.03568 -1.153386,0.09227 0,0.05075 -0.08304,0.09227 -0.184542,0.09227 -0.101502,0 -0.184542,0.04717 -0.184542,0.104812 0,0.07223 0.136246,0.08553 0.438286,0.04279 0.241059,-0.03411 0.843127,-0.08755 1.337929,-0.118752 z M 36.924319,11.799429 c 0.02009,-0.06026 -0.02922,-0.109571 -0.109572,-0.109571 -0.08035,0 -0.146095,0.06574 -0.146095,0.146095 0,0.162944 0.198637,0.134567 0.255667,-0.03652 z m 0.728697,-0.333077 c -0.04164,-0.108507 -0.178299,-0.131865 -0.61991,-0.105953 -0.311574,0.01829 -0.60332,0.07006 -0.648326,0.115067 -0.04759,0.04759 0.187725,0.0666 0.562378,0.04543 0.48074,-0.02716 0.644203,-0.0064 0.644203,0.08166 0,0.06493 0.02589,0.09217 0.05754,0.06053 0.03165,-0.03165 0.0335,-0.120172 0.0041,-0.196729 z m -0.842164,-0.428529 c 0.03345,-0.05413 0.04447,-0.114762 0.02448,-0.134747 -0.06338,-0.06337 -0.443496,0.0666 -0.443496,0.151647 0,0.115467 0.345826,0.101513 0.419012,-0.0169 z m 0.817072,-0.04833 c 0.06152,-0.160328 -0.0011,-0.314621 -0.127689,-0.314621 -0.106675,0 -0.370229,0.267429 -0.370229,0.375674 0,0.147237 0.438627,0.09346 0.497918,-0.06105 z"
   id="path160" /><path
   style="fill:#ffffff;stroke-width:0.00407783"
   d="m 27.739141,21.399316 c -0.001,-0.02715 -0.0031,-0.03787 -0.0076,-0.04072 -0.0034,-0.0022 -0.0396,-0.0039 -0.08053,-0.0039 l -0.07442,-6.3e-5 v -0.03437 c 0,-0.04897 0.0034,-0.04719 -0.08797,-0.04719 h -0.07515 v -0.03656 c 0,-0.03196 -9.9e-4,-0.03708 -0.0079,-0.04078 -0.0046,-0.0025 -0.03776,-0.0042 -0.07894,-0.0042 h -0.07105 l -0.0021,-0.03505 c -0.0012,-0.01928 -0.0043,-0.03716 -0.0069,-0.03975 -0.0026,-0.0026 -0.02004,-0.0053 -0.03876,-0.0061 l -0.03406,-0.0014 -0.0014,-0.03406 c -7.81e-4,-0.01874 -0.0036,-0.03617 -0.0061,-0.03876 -0.0026,-0.0026 -0.02049,-0.0057 -0.03975,-0.0069 l -0.03505,-0.0022 v -0.02771 c 0,-0.04597 -0.0013,-0.04747 -0.04463,-0.05086 l -0.03692,-0.0029 v -0.03033 c 0,-0.04377 -0.0011,-0.04494 -0.04483,-0.04836 l -0.03673,-0.0029 v -0.03033 c 0,-0.0449 -0.0011,-0.0461 -0.045,-0.0461 h -0.03656 v -0.0329 c 0,-0.04771 -8.79e-4,-0.04866 -0.045,-0.04866 h -0.03656 v -0.05505 c 0,-0.03027 7.08e-4,-0.05505 0.0015,-0.05505 8.65e-4,0 0.0095,0.0133 0.01912,0.02957 0.02211,0.03726 0.0564,0.07239 0.07064,0.07239 0.01445,0 0.01876,-0.01072 0.01876,-0.04663 v -0.03085 h 0.02855 0.02854 v 0.07515 c 0,0.09129 -0.0017,0.08797 0.04719,0.08797 h 0.03437 v 0.03656 c 0,0.04383 0.0012,0.045 0.0461,0.045 h 0.03033 l 0.0029,0.03693 c 0.0034,0.04331 0.0049,0.04463 0.05086,0.04463 h 0.0277 l 0.0022,0.03505 c 0.0012,0.01928 0.0043,0.03717 0.0069,0.03976 0.0031,0.0031 0.03015,0.0052 0.07954,0.0061 l 0.07484,0.0014 0.0014,0.03407 c 8.2e-4,0.01966 0.0036,0.03619 0.0065,0.03908 0.0029,0.0029 0.02013,0.0058 0.03975,0.0069 l 0.03475,0.0018 v 0.03133 c 0,0.05018 -0.0086,0.04691 0.128122,0.0486 l 0.116548,0.0014 v 0.03343 c 0,0.02056 0.0018,0.03531 0.0049,0.03832 0.0036,0.0036 0.03586,0.0049 0.119784,0.0049 h 0.114891 l 0.0018,0.03436 c 0.001,0.01971 0.0041,0.0371 0.0072,0.04078 0.0048,0.0058 0.100786,0.0064 1.005642,0.0064 0.903943,0 1.000935,-6.17e-4 1.006726,-0.0064 0.0048,-0.0048 0.0065,-0.01497 0.0065,-0.04078 v -0.03437 h 0.156497 c 0.12372,0 0.157423,-0.0011 0.160913,-0.0053 0.0025,-0.003 0.0056,-0.02019 0.0072,-0.03836 l 0.0028,-0.03305 0.113002,-0.0014 c 0.08818,-0.0011 0.114483,-0.0027 0.119742,-0.007 0.0052,-0.0044 0.0068,-0.01293 0.0068,-0.03924 v -0.03365 l 0.03436,-0.0018 c 0.0197,-0.001 0.0371,-0.0041 0.04078,-0.0072 0.0049,-0.0041 0.0064,-0.01336 0.0064,-0.03916 v -0.03384 l 0.07577,-0.0013 c 0.09016,-0.0016 0.08734,-3.1e-5 0.08734,-0.0486 v -0.03142 l 0.03446,-0.0014 c 0.02105,-8.78e-4 0.03652,-0.0035 0.03976,-0.0068 0.0033,-0.0033 0.0058,-0.01871 0.0068,-0.03976 l 0.0014,-0.03446 H 30.855 c 0.04358,0 0.04616,-0.0025 0.04847,-0.04634 l 0.0018,-0.03522 h 0.03034 c 0.04378,0 0.04495,-0.0011 0.04838,-0.04483 l 0.0029,-0.03673 h 0.03033 c 0.04377,0 0.04493,-0.0011 0.04835,-0.04483 l 0.0029,-0.03673 h 0.03363 c 0.02263,0 0.03508,-0.0017 0.03804,-0.0053 0.0025,-0.0029 0.0049,-0.0208 0.0056,-0.03976 l 0.0012,-0.03446 0.03446,-0.0012 c 0.01895,-6.59e-4 0.03685,-0.0032 0.03976,-0.0056 0.0036,-0.003 0.0053,-0.01542 0.0053,-0.03804 v -0.03363 l 0.03673,-0.0029 c 0.02978,-0.0024 0.03749,-0.0043 0.04078,-0.01045 0.0023,-0.0042 0.0041,-0.03934 0.0041,-0.0787 v -0.07111 l 0.03522,-0.0018 c 0.02828,-0.0014 0.03631,-0.0034 0.04078,-0.0094 0.0044,-0.0059 0.0055,-0.03166 0.0055,-0.120592 v -0.113103 l 0.03637,-0.0014 c 0.02001,-7.84e-4 0.03789,-0.003 0.03976,-0.0048 0.0018,-0.0018 0.0039,-0.05645 0.0046,-0.121316 l 0.0012,-0.117923 h 0.03662 c 0.03556,0 0.03674,-3.04e-4 0.0406,-0.01046 0.0025,-0.0065 0.004,-0.11593 0.004,-0.28341 V 19.24229 h 0.02825 0.02825 l 0.002,0.02141 c 0.0011,0.01177 0.0038,0.04764 0.0057,0.0797 0.0039,0.06183 0.0094,0.07876 0.0167,0.0513 0.0023,-0.0087 0.0098,-0.05893 0.01668,-0.111639 0.0069,-0.05271 0.01536,-0.111427 0.01885,-0.130491 0.0062,-0.03413 0.03455,-0.126709 0.04239,-0.138647 0.0027,-0.0041 0.004,0.06061 0.0041,0.192092 l 6.1e-5,0.198208 -0.03252,0.0027 c -0.04187,0.0035 -0.04351,0.0043 -0.04646,0.02216 -0.0013,0.0083 -0.0025,0.116429 -0.0026,0.240344 l -4.3e-5,0.2253 h -0.03417 c -0.02678,0 -0.03537,0.0014 -0.03975,0.0068 -0.0044,0.0052 -0.0058,0.03139 -0.0069,0.119729 l -0.0012,0.112994 -0.03341,0.0028 c -0.02036,0.0017 -0.03571,0.0051 -0.03932,0.0087 -0.0046,0.0046 -0.0062,0.02231 -0.0077,0.0788 l -0.0017,0.07292 -0.03469,0.0022 c -0.02272,0.0014 -0.0359,0.0041 -0.03819,0.0077 -0.0019,0.0031 -0.0035,0.03901 -0.0036,0.07994 l -6.3e-5,0.07442 h -0.03437 c -0.04897,0 -0.04719,-0.0034 -0.04719,0.08797 v 0.07515 h -0.03437 c -0.04512,0 -0.04719,0.002 -0.04719,0.04719 v 0.03437 h -0.03437 c -0.04512,0 -0.04719,0.002 -0.04719,0.04719 v 0.03437 h -0.03437 c -0.04466,0 -0.04719,0.0024 -0.04719,0.04462 v 0.03181 l -0.03692,0.0029 c -0.04332,0.0034 -0.04463,0.0049 -0.04463,0.05091 v 0.02776 l -0.03664,0.0029 c -0.02016,0.0015 -0.0378,0.0047 -0.03921,0.0071 -0.0014,0.0023 -0.0035,0.01934 -0.0047,0.03789 l -0.0022,0.03374 -0.03451,0.0022 c -0.01898,0.0012 -0.03637,0.004 -0.03863,0.0062 -0.0023,0.0023 -0.0051,0.01989 -0.0063,0.03916 l -0.0022,0.03505 h -0.06848 c -0.03767,0 -0.07319,0.0017 -0.07894,0.004 -0.01014,0.0039 -0.01046,0.005 -0.01046,0.04078 v 0.03681 h -0.07515 c -0.09124,0 -0.08797,-0.0017 -0.08797,0.04694 v 0.03412 l -0.07714,0.0012 c -0.04243,6.97e-4 -0.07867,0.0028 -0.08053,0.0047 -0.0018,0.0018 -0.004,0.01976 -0.0048,0.03975 l -0.0014,0.03637 H 30.18376 c -0.09353,0 -0.155722,0.0015 -0.160362,0.0041 -0.0061,0.0033 -0.0081,0.011 -0.01045,0.04078 l -0.0029,0.03673 h -1.134745 -1.134746 z"
   id="path168" /></svg>
