<?xml version="1.0" encoding="UTF-8" standalone="no"?>
<!-- Created with Inkscape (http://www.inkscape.org/) -->

<svg
   width="106.02448"
   height="32.681519"
   viewBox="0 0 28.052314 8.6469852"
   version="1.1"
   id="svg5"
   xmlns="http://www.w3.org/2000/svg"
   xmlns:svg="http://www.w3.org/2000/svg">
  <defs
     id="defs2" />
  <g
     id="layer1"
     transform="translate(77.594558,73.352569)">
    <path
       style="fill:#ffffff;stroke-width:0.0203335;fill-opacity:1"
       d="m -52.701245,-65.535903 c -0.04218,-0.02955 -0.04595,-0.04517 -0.03803,-0.157586 0.0048,-0.06863 0.02347,-0.161388 0.04141,-0.206122 0.0284,-0.07082 0.03272,-0.215372 0.03343,-1.118346 4.61e-4,-0.570356 -0.0051,-1.167401 -0.01244,-1.326765 -0.01311,-0.286618 -0.01377,-0.289753 -0.06093,-0.289753 -0.02882,0 -0.04767,-0.01206 -0.04767,-0.0305 0,-0.0213 -0.02147,-0.0305 -0.07117,-0.0305 -0.0497,0 -0.07117,0.0092 -0.07117,0.0305 0,0.02203 -0.02259,0.0305 -0.08133,0.0305 h -0.08133 v -0.203336 -0.203336 h -0.3128 c -0.295697,0 -0.313378,0.0022 -0.323431,0.04067 -0.01014,0.03878 -0.02774,0.04067 -0.378544,0.04067 -0.354351,0 -0.367908,-0.0015 -0.367908,-0.04067 0,-0.03898 -0.01356,-0.04067 -0.3266,-0.04067 h -0.326601 l 0.06735,0.09383 0.06735,0.09383 v 0.50093 c 0,0.561005 -0.004,0.579782 -0.145814,0.687964 l -0.07469,0.05697 h -0.428589 -0.428587 l -0.127375,-0.09063 -0.127374,-0.09063 -0.228464,-0.01257 c -0.125653,-0.0069 -0.246863,-0.02248 -0.269356,-0.03458 -0.06522,-0.03509 -0.115151,-0.100157 -0.132258,-0.172355 -0.01156,-0.0488 -0.01642,-0.01598 -0.01793,0.121168 l -0.0021,0.188086 h -0.077 c -0.0732,0 -0.08056,0.0063 -0.149174,0.127084 -0.105186,0.185229 -0.105163,0.184992 -0.02702,0.283286 0.05077,0.06387 0.06985,0.108192 0.07,0.162601 3.08e-4,0.118411 -0.04062,0.143782 -0.218672,0.135536 l -0.151133,-0.007 -0.231616,0.406672 c -0.127389,0.223668 -0.231715,0.420972 -0.231837,0.43845 -1.23e-4,0.01748 0.02761,0.05844 0.06163,0.09104 0.05731,0.05491 0.06142,0.06823 0.05592,0.181537 -0.0098,0.202911 0.0087,0.202178 -0.810705,0.032 -0.38095,-0.07912 -0.743351,-0.161671 -0.805336,-0.183457 -0.100255,-0.03524 -0.166548,-0.08501 -0.168433,-0.12645 -3.54e-4,-0.0078 0.334109,-0.541943 0.743255,-1.186938 0.409146,-0.644995 0.75574,-1.212052 0.770209,-1.260127 0.02554,-0.08486 0.02489,-0.08776 -0.02206,-0.09955 -0.04588,-0.01152 -0.04837,-0.02049 -0.04837,-0.17442 v -0.162281 h -0.762708 c -0.737545,0 -0.763856,0.0013 -0.797528,0.04067 -0.01915,0.02237 -0.05043,0.04067 -0.06952,0.04067 -0.07883,0 -0.0986,0.05426 -0.0987,0.270872 -8.5e-5,0.184713 -0.005,0.212812 -0.04575,0.261335 -0.03411,0.04063 -0.07165,0.05768 -0.148511,0.06746 -0.09679,0.01232 -0.104286,0.01 -0.127009,-0.03991 -0.0205,-0.04499 -0.01648,-0.07122 0.02661,-0.173597 0.06207,-0.147472 0.0639,-0.236226 0.0076,-0.367139 l -0.04317,-0.100353 h -0.228569 -0.228568 l -0.01296,0.09453 c -0.01773,0.129351 -0.03973,0.149515 -0.162812,0.14922 -0.123169,-3.07e-4 -0.770866,-0.05543 -0.85152,-0.07249 -0.04239,-0.009 -0.05592,-0.0041 -0.05592,0.02029 0,0.02498 -0.02258,0.03212 -0.101668,0.03212 -0.0689,0 -0.101668,-0.0084 -0.101668,-0.02595 0,-0.018 -0.02648,-0.02396 -0.08642,-0.01944 -0.172733,0.01302 -0.177919,0.01643 -0.177919,0.116951 0,0.08768 -0.0023,0.09111 -0.061,0.09111 -0.04067,0 -0.061,-0.01017 -0.061,-0.0305 0,-0.02033 -0.02033,-0.0305 -0.061,-0.0305 -0.04067,0 -0.061,0.01017 -0.061,0.0305 0,0.02033 -0.02033,0.0305 -0.061,0.0305 -0.04067,0 -0.061,-0.01017 -0.061,-0.0305 0,-0.0213 -0.02146,-0.0305 -0.07117,-0.0305 -0.0497,0 -0.07117,0.0092 -0.07117,0.0305 0,0.02033 -0.02033,0.0305 -0.061,0.0305 -0.04067,0 -0.061,-0.01017 -0.061,-0.0305 0,-0.02033 -0.02033,-0.0305 -0.061,-0.0305 -0.04067,0 -0.061,0.01017 -0.061,0.0305 0,0.02033 -0.02033,0.0305 -0.061,0.0305 -0.04067,0 -0.061,-0.01017 -0.061,-0.0305 0,-0.0213 -0.02146,-0.0305 -0.07117,-0.0305 -0.04971,0 -0.07117,0.0092 -0.07117,0.0305 0,0.02033 -0.02033,0.0305 -0.061,0.0305 -0.04067,0 -0.061,-0.01017 -0.061,-0.0305 0,-0.0213 -0.02146,-0.0305 -0.07117,-0.0305 -0.0497,0 -0.07117,0.0092 -0.07117,0.0305 0,0.02033 -0.02033,0.0305 -0.061,0.0305 -0.04067,0 -0.061,-0.01017 -0.061,-0.0305 0,-0.02033 -0.02033,-0.0305 -0.061,-0.0305 -0.04067,0 -0.061,0.01017 -0.061,0.0305 0,0.02033 -0.02033,0.0305 -0.061,0.0305 -0.04067,0 -0.061,-0.01017 -0.061,-0.0305 0,-0.02085 -0.0209,-0.0305 -0.06608,-0.0305 l -0.06608,-4e-6 0.0054,1.252505 0.0054,1.252506 -0.150514,0.150514 -0.150514,0.150514 h -0.130475 c -0.120934,0 -0.135235,-0.0049 -0.195562,-0.06715 -0.06047,-0.06239 -0.06646,-0.08151 -0.08445,-0.26942 -0.07111,-0.742871 -0.262812,-1.499264 -0.539058,-2.126954 -0.05063,-0.11505 -0.09206,-0.225454 -0.09206,-0.245343 0,-0.02261 -0.01525,-0.03616 -0.04067,-0.03616 -0.02259,0 -0.04067,-0.01356 -0.04067,-0.0305 0,-0.0213 -0.02146,-0.0305 -0.07117,-0.0305 -0.0497,0 -0.07117,0.0092 -0.07117,0.0305 0,0.01898 -0.0192,0.0305 -0.05083,0.0305 -0.04744,0 -0.05083,-0.0068 -0.05083,-0.101667 v -0.101668 h -0.07117 c -0.03914,0 -0.07117,0.0092 -0.07117,0.02033 0,0.02832 -0.177844,0.02564 -0.187333,-0.0028 -0.0058,-0.01732 -0.0794,-0.01732 -0.292129,0 -0.156426,0.01274 -0.331164,0.02316 -0.388305,0.02316 -0.116367,0 -0.128578,-0.01368 -0.128578,-0.143999 v -0.07967 h -1.233954 -1.233954 l -0.0487,0.04575 c -0.0407,0.03824 -0.07153,0.04575 -0.187757,0.04575 -0.116223,0 -0.147055,-0.0075 -0.187758,-0.04575 -0.04817,-0.04525 -0.05508,-0.04575 -0.631978,-0.04575 h -0.58328 v 0.04834 c 0,0.08875 -0.0456,0.103572 -0.297271,0.09662 -0.200786,-0.0055 -0.231402,-0.0021 -0.231402,0.02599 0,0.02722 -0.02916,0.03238 -0.183002,0.03238 -0.108445,0 -0.183002,-0.0083 -0.183002,-0.02033 0,-0.01284 -0.144237,-0.02045 -0.391421,-0.02065 -0.215282,-1.54e-4 -0.401091,-0.007 -0.412909,-0.01525 -0.01182,-0.0082 -0.03301,-0.04345 -0.04709,-0.0783 -0.05414,-0.133994 0.06064,-0.144753 -2.038174,0.191043 -1.593042,0.254877 -1.924853,0.313473 -1.971849,0.348218 -0.03768,0.02786 -0.126848,0.05273 -0.267681,0.07467 -0.202179,0.03149 -0.212125,0.0354 -0.233457,0.09192 -0.02182,0.05781 -0.02538,0.05903 -0.172482,0.05903 -0.08971,0 -0.160027,-0.0098 -0.174601,-0.0244 -0.0354,-0.0354 -0.0354,-4.267179 0,-4.302583 0.01455,-0.01455 0.08473,-0.0244 0.173893,-0.0244 0.147363,0 0.149791,8.53e-4 0.170468,0.06017 0.02419,0.0694 0.03077,0.07201 0.261579,0.103851 0.113044,0.01559 0.187073,0.03681 0.213993,0.06131 0.02264,0.02061 0.08669,0.04691 0.142334,0.05845 0.228363,0.04736 3.675651,0.590564 3.74785,0.590564 0.08309,0 0.119586,-0.02872 0.161504,-0.127085 l 0.02383,-0.05592 h 0.408915 0.408915 l -0.05264,-0.06256 c -0.06885,-0.08182 -0.07672,-0.218183 -0.01904,-0.329759 0.09034,-0.174756 0.393952,-0.180946 0.502137,-0.01024 0.07083,0.111765 0.05782,0.274606 -0.02817,0.352418 -0.02798,0.02532 -0.0399,0.0625 -0.0399,0.124459 v 0.08835 h 0.176318 c 0.132846,0 0.185151,-0.008 0.212148,-0.03243 0.02828,-0.02559 0.116493,-0.0365 0.418439,-0.05177 0.646082,-0.03266 0.625138,-0.0292 0.66354,-0.109725 0.05793,-0.12149 0.194566,-0.119351 0.253372,0.004 l 0.03381,0.07091 0.285281,-0.01355 c 0.156905,-0.0075 0.976025,-0.01498 1.820267,-0.01673 l 1.534986,-0.0032 0.01304,-0.061 c 0.0072,-0.03355 0.01412,-0.09531 0.01545,-0.137252 l 0.0024,-0.07625 h 0.101668 c 0.100374,0 0.101667,8.07e-4 0.101667,0.06373 0,0.03505 0.01038,0.09836 0.02306,0.140688 l 0.02306,0.07696 0.480198,-0.0024 c 0.264108,-0.0013 0.55111,0.0048 0.637782,0.01355 l 0.157585,0.01593 v -0.102273 -0.102273 h 0.315171 c 0.298612,0 0.31517,0.0021 0.31517,0.03954 0,0.03857 0.02219,0.03954 0.90618,0.03954 0.585769,0 0.920087,-0.0074 0.945511,-0.02105 0.02727,-0.01459 0.03933,-0.04266 0.03933,-0.0915 v -0.07045 h 0.09997 c 0.05498,0 0.103105,0.0094 0.106932,0.02088 0.0085,0.02544 0.301434,-0.03652 0.301434,-0.06375 0,-0.01 0.08693,-0.01813 0.193168,-0.01813 h 0.19317 v -0.121287 c 0,-0.164437 0.01663,-0.172095 0.343102,-0.157995 0.250027,0.0108 0.254615,0.0102 0.292435,-0.03788 0.03688,-0.04689 0.04854,-0.04885 0.291116,-0.04885 0.225582,0 0.257057,0.0044 0.293361,0.04067 0.03929,0.03929 0.06778,0.04067 0.840691,0.04067 0.93106,0 0.867328,-0.01543 0.867328,0.210019 v 0.135651 h 0.162669 c 0.08947,0 0.162668,0.0081 0.162668,0.01802 0,0.0099 0.04346,0.02424 0.09658,0.03184 0.05312,0.0076 0.187397,0.04066 0.298389,0.07348 0.159194,0.04706 0.241343,0.05966 0.38905,0.05966 0.168167,0 0.188295,-0.004 0.197553,-0.03942 0.0096,-0.0368 0.03073,-0.03943 0.317541,-0.03959 l 0.307234,-1.53e-4 v 0.05993 0.05992 h 0.650674 c 0.623564,0 0.652368,-0.0017 0.691342,-0.04067 0.05139,-0.05139 0.122509,-0.05199 0.176704,-0.0015 0.03688,0.03436 0.07956,0.03997 0.347928,0.04575 0.289436,0.0062 0.308651,0.0092 0.357218,0.05486 0.02823,0.02655 0.0541,0.06773 0.05749,0.0915 l 0.0062,0.04322 1.1674,0.0052 c 1.131761,0.0051 1.166368,0.0041 1.133597,-0.0321 -0.02571,-0.02841 -0.03381,-0.07713 -0.03381,-0.203503 v -0.166151 h 0.50834 0.508339 v 0.203336 0.203335 h 0.386773 0.386775 l 0.02351,-0.0516 c 0.0227,-0.04983 0.02913,-0.0514 0.187649,-0.04575 l 0.16414,0.0058 v 1.413184 1.413182 l -0.169434,0.0059 c -0.156064,0.0055 -0.170289,0.0027 -0.180289,-0.03558 -0.01055,-0.04034 -0.02465,-0.04152 -0.496491,-0.04152 h -0.485634 v 0.203335 0.203337 h -0.08133 c -0.05874,0 -0.08134,-0.0085 -0.08134,-0.0305 0,-0.01694 -0.01807,-0.0305 -0.04067,-0.0305 -0.02259,0 -0.04067,0.01356 -0.04067,0.0305 0,0.02033 -0.02033,0.0305 -0.061,0.0305 -0.04067,0 -0.061,-0.01017 -0.061,-0.0305 0,-0.0213 -0.02146,-0.0305 -0.07117,-0.0305 -0.0497,0 -0.07117,0.0092 -0.07117,0.0305 0,0.02033 -0.02033,0.0305 -0.061,0.0305 -0.04067,0 -0.061,-0.01017 -0.061,-0.0305 0,-0.01843 -0.01885,-0.0305 -0.04765,-0.0305 -0.0474,0 -0.04772,0.0017 -0.06093,0.320253 -0.0073,0.17614 -0.01331,0.788858 -0.01335,1.361596 0,0.993484 0.0018,1.046085 0.0406,1.144516 0.05678,0.144061 0.05477,0.29282 -0.0045,0.334351 -0.06856,0.04802 -1.04217,0.04702 -1.110931,-0.0011 z m 0.716208,-0.700687 0.05358,-0.04214 v -0.334029 c 0,-0.306916 -0.0033,-0.337328 -0.04067,-0.374694 -0.05287,-0.05287 -0.271331,-0.05791 -0.342718,-0.0079 -0.04534,0.03176 -0.04656,0.04074 -0.04011,0.296019 l 0.0067,0.263265 0.12506,0.12082 c 0.06878,0.06645 0.138463,0.120819 0.154844,0.120819 0.01638,0 0.05389,-0.01897 0.08336,-0.04214 z m -12.343537,-0.05555 0.05464,-0.05703 -3.07e-4,-0.364891 c -1.62e-4,-0.20069 -0.007,-0.374959 -0.01525,-0.387264 -0.04369,-0.06543 -0.155975,-0.08519 -0.266075,-0.04681 -0.05119,0.01785 -0.06404,0.0337 -0.06404,0.07906 0,0.10854 0.105386,0.783291 0.126282,0.808543 0.03511,0.04243 0.107039,0.02863 0.164751,-0.03161 z m 12.351922,-1.031969 c 0.04366,-0.03058 0.04519,-0.04326 0.04519,-0.374695 v -0.343042 l -0.05358,-0.04214 c -0.03869,-0.03043 -0.08312,-0.04214 -0.159926,-0.04214 -0.0768,0 -0.121235,0.01171 -0.159925,0.04214 l -0.05358,0.04214 v 0.33751 c 0,0.410244 7.91e-4,0.41188 0.201963,0.41188 0.08897,0 0.149993,-0.01074 0.17985,-0.03165 z m -12.401557,-0.112821 c 0.03546,-0.01236 0.07342,-0.03921 0.08437,-0.05966 0.01095,-0.02046 0.0199,-0.203411 0.0199,-0.406567 v -0.369374 l -0.06913,-0.06913 -0.06913,-0.06913 -0.210453,3.07e-4 c -0.12652,1.54e-4 -0.22993,0.01032 -0.25929,0.02542 -0.100223,0.05154 -0.09923,0.0692 0.02624,0.465986 0.125979,0.39841 0.152426,0.456074 0.222039,0.484113 0.06293,0.02535 0.179717,0.02446 0.255462,-0.0019 z m 9.092864,-0.343517 c 0.03978,-0.01105 0.09925,-0.04817 0.132169,-0.0825 l 0.05985,-0.06241 0.0065,-0.322408 c 0.0072,-0.36179 -0.0069,-0.417606 -0.124365,-0.489204 -0.07679,-0.04682 -0.197266,-0.05386 -0.197266,-0.01152 0,0.04278 -0.04709,0.05301 -0.244002,0.05301 -0.196917,0 -0.244003,-0.01023 -0.244003,-0.05301 0,-0.01826 -0.02292,-0.02832 -0.06449,-0.02832 -0.04979,0 -0.08427,0.02065 -0.151298,0.0906 -0.124045,0.129461 -0.1581,0.270188 -0.09939,0.410707 0.03464,0.08289 0.04003,0.181742 0.01091,0.199741 -0.02979,0.01841 -0.100004,-0.06207 -0.147052,-0.168558 -0.03081,-0.06973 -0.04482,-0.15401 -0.05218,-0.313906 l -0.01007,-0.218585 h -0.180391 c -0.272972,0 -0.289485,0.02589 -0.278676,0.436974 0.0067,0.253826 0.0077,0.258774 0.06384,0.30701 0.05123,0.04403 0.07611,0.04907 0.244003,0.04947 0.201382,4.61e-4 0.294723,0.02919 0.42976,0.132191 0.03834,0.02925 0.09547,0.06091 0.126957,0.07035 0.08079,0.02425 0.632246,0.02453 0.719235,3.85e-4 z m -15.88167,-1.240362 c 0.02077,-0.01342 -0.02786,-0.01879 -0.152501,-0.01683 -0.15841,0.0025 -0.169341,0.0048 -0.08133,0.01683 0.156083,0.02141 0.200708,0.02141 0.233835,0 z m 2.03844,-2.699181 c -0.103447,-0.0037 -0.272723,-0.0037 -0.376171,0 -0.103447,0.0037 -0.01881,0.0067 0.188086,0.0067 0.206894,0 0.291532,-0.003 0.188085,-0.0067 z m 3.040669,-0.0082 c -0.03622,-0.01325 -0.457938,-0.01385 -1.230181,-0.0018 l -1.175064,0.0184 1.230181,0.0018 c 0.834439,0.0012 1.21245,-0.0047 1.175064,-0.0184 z m 0.528554,0.0084 c -0.05275,-0.0042 -0.144248,-0.0042 -0.203336,-7.7e-5 -0.05909,0.0041 -0.01593,0.0075 0.0959,0.0076 0.111834,5.3e-5 0.160179,-0.0033 0.107433,-0.0075 z m 0.884571,-4.6e-5 c -0.05831,-0.0041 -0.158957,-0.0041 -0.22367,-7.7e-5 -0.06471,0.0041 -0.01701,0.0074 0.106009,0.0074 0.123018,4.6e-5 0.175965,-0.0033 0.117661,-0.0074 z m 3.552548,-0.249371 c 0,-0.01212 -0.07738,-0.02033 -0.191475,-0.02033 -0.114506,0 -0.194308,-0.0085 -0.198524,-0.02115 -0.0048,-0.01447 -0.04231,-0.01372 -0.118613,0.0024 -0.213493,0.04499 -0.175715,0.05822 0.168025,0.05884 0.213914,3.84e-4 0.340587,-0.0069 0.340587,-0.01971 z m 3.370526,0.0064 c -0.01944,-0.0051 -0.05604,-0.0053 -0.08133,-3.84e-4 -0.02529,0.0049 -0.0094,0.009 0.03535,0.0093 0.04473,2.3e-4 0.06543,-0.0038 0.04599,-0.0088 z"
       id="path3635" />
  </g>
</svg>
