<?xml version="1.0" encoding="UTF-8" standalone="no"?>
<svg
   xmlns:dc="http://purl.org/dc/elements/1.1/"
   xmlns:cc="http://creativecommons.org/ns#"
   xmlns:rdf="http://www.w3.org/1999/02/22-rdf-syntax-ns#"
   xmlns:svg="http://www.w3.org/2000/svg"
   xmlns="http://www.w3.org/2000/svg"
   xmlns:sodipodi="http://sodipodi.sourceforge.net/DTD/sodipodi-0.dtd"
   xmlns:inkscape="http://www.inkscape.org/namespaces/inkscape"
   version="1.1"
   x="0px"
   y="0px"
   width="49.125px"
   height="32px"
   viewBox="0 0 49.125 32"
   enable-background="new 0 0 49.125 32"
   xml:space="preserve"
   id="svg152"
   sodipodi:docname="iso.svg"
   inkscape:version="1.0.2-2 (e86c870879, 2021-01-15)"><metadata
   id="metadata158"><rdf:RDF><cc:Work
       rdf:about=""><dc:format>image/svg+xml</dc:format><dc:type
         rdf:resource="http://purl.org/dc/dcmitype/StillImage" /></cc:Work></rdf:RDF></metadata><defs
   id="defs156" /><sodipodi:namedview
   pagecolor="#ffffff"
   bordercolor="#666666"
   borderopacity="1"
   objecttolerance="10"
   gridtolerance="10"
   guidetolerance="10"
   inkscape:pageopacity="0"
   inkscape:pageshadow="2"
   inkscape:window-width="1842"
   inkscape:window-height="1051"
   id="namedview154"
   showgrid="false"
   inkscape:zoom="12.366412"
   inkscape:cx="-1.6600179"
   inkscape:cy="13.664971"
   inkscape:window-x="-9"
   inkscape:window-y="-9"
   inkscape:window-maximized="1"
   inkscape:current-layer="svg152" />

<g
   id="guides">
</g>
<path
   style="fill:#ffffff;stroke-width:0.0768303"
   d="m 31.740673,26.953062 c 0,-0.135428 0.403116,-2.497651 0.849633,-4.978781 0.250956,-1.39447 0.456329,-2.557781 0.456383,-2.585136 1.27e-4,-0.06349 -0.886234,-0.21917 -1.247787,-0.21917 -0.151208,0 -0.494112,0.103694 -0.76201,0.230431 -0.267899,0.126736 -0.566651,0.230458 -0.663894,0.23049 -0.09724,3.3e-5 -0.891415,-0.12214 -1.764826,-0.271496 l -1.588022,-0.271558 -0.304586,0.214071 c -0.27,0.189764 -0.377324,0.375455 -0.945148,1.635296 -0.35231,0.781673 -0.83845,1.836107 -1.080314,2.343187 -0.379357,0.795341 -0.442027,0.990549 -0.45632,1.42136 -0.0091,0.274668 -0.0179,0.529075 -0.01953,0.565348 -0.0051,0.115125 -0.393788,-0.02381 -1.577974,-0.564131 -2.043016,-0.932183 -2.197872,-1.008835 -2.235335,-1.10646 -0.05873,-0.153035 1.983726,-4.178193 2.414036,-4.757461 0.49643,-0.668277 0.582304,-0.933845 0.529164,-1.636469 -0.03627,-0.479567 -0.02405,-0.56398 0.08591,-0.593081 0.107491,-0.02846 0.105036,-0.03537 -0.0152,-0.04284 -0.07887,-0.0049 -0.345615,-0.196137 -0.592777,-0.424964 -0.439701,-0.407086 -1.094992,-0.737445 -1.530325,-0.771501 -0.46963,-0.03674 -2.458569,-0.608632 -2.458569,-0.706928 0,-0.0802 -0.193651,-0.103107 -0.871485,-0.103107 -0.479318,0 -1.294404,-0.02274 -1.811304,-0.05054 -0.906742,-0.04875 -0.938163,-0.05619 -0.892794,-0.211283 0.02586,-0.08841 0.0677,-0.34045 0.09296,-0.560087 0.04508,-0.391965 0.05106,-0.399882 0.323711,-0.428859 0.193754,-0.02059 0.144147,-0.03343 -0.163993,-0.04244 -0.335728,-0.0098 -0.441775,-0.04058 -0.441775,-0.12816 0,-0.101521 -0.764034,-0.115247 -6.4153283,-0.115247 H 2.2378442 v 0.254766 c 0,0.140121 -0.156501,0.788377 -0.34778,1.440568 -0.3482789,1.187507 -0.5467057,2.43481 -0.4544818,2.856861 0.04572,0.209212 0.042271,0.211284 -0.3512813,0.211284 -0.33283385,0 -0.40398131,-0.02498 -0.43763154,-0.153661 -0.0220997,-0.08451 -0.10050411,-0.15366 -0.17422923,-0.15366 -0.10163475,0 -0.12514725,-0.04655 -0.0972433,-0.192518 0.0202374,-0.105885 -0.00361,-0.241158 -0.0529024,-0.300608 -0.0691304,-0.0833 -0.062147,-0.174061 0.0304512,-0.395675 0.1078276,-0.258067 0.10811073,-0.3009 0.002755,-0.417315 -0.1053611,-0.116422 -0.10501336,-0.159383 0.00342,-0.418823 0.10986274,-0.262939 0.10984754,-0.301186 -1.6532e-4,-0.42275 -0.10707796,-0.11832 -0.10829316,-0.16366 -0.0105938,-0.395137 0.0979369,-0.232035 0.0965649,-0.27681 -0.0121805,-0.397613 -0.11230359,-0.124754 -0.1115169,-0.159268 0.009406,-0.412876 0.12112921,-0.254012 0.12186555,-0.287907 0.008931,-0.412664 -0.11222378,-0.124006 -0.11241761,-0.161265 -0.002185,-0.425016 0.10983519,-0.262871 0.10983519,-0.3012 0,-0.422566 -0.10983425,-0.121366 -0.10983425,-0.159696 0,-0.422567 0.11011072,-0.263531 0.1099644,-0.301057 -0.001615,-0.424397 -0.0947835,-0.104732 -0.1037041,-0.170326 -0.0394963,-0.290305 0.10236824,-0.191276 0.10819815,-0.524584 0.0102327,-0.585128 -0.0436863,-0.02699 -0.0271638,-0.174067 0.041387,-0.368335 0.10183105,-0.288618 0.10138925,-0.33269 -0.004085,-0.409834 -0.1854919,-0.135636 -0.14660274,-0.338405 0.0649024,-0.338405 0.12041947,0 0.19731893,-0.054318 0.22460243,-0.1586492 0.0343372,-0.1313021 0.0920186,-0.1544792 0.33462101,-0.1344536 l 0.29313335,0.024199 0.2583951,0.8835488 c 0.1421173,0.485951 0.2703866,0.89618 0.2850421,0.91162 0.01466,0.01544 0.2012885,0.02808 0.4147385,0.02808 h 0.3880916 v 0.260042 c 0,0.251358 0.094346,0.341346 0.1920752,0.183211 0.030888,-0.04998 1.8291799,-0.07683 5.1439439,-0.07683 4.4593108,0 5.1019878,0.0144 5.1406828,0.115245 0.05605,0.146066 0.349315,0.14475 0.54392,-0.0025 0.103345,-0.07817 0.345153,-0.112801 0.787511,-0.112801 0.572883,0 0.638372,-0.01478 0.638372,-0.144004 0,-0.0792 0.11482,-0.269357 0.255154,-0.422567 0.212557,-0.232057 0.306935,-0.278563 0.565308,-0.278563 h 0.310153 l 0.172482,-0.672265 c 0.09487,-0.369745 0.185129,-0.7154817 0.200586,-0.7683024 0.01562,-0.053397 0.148572,-0.096038 0.299419,-0.096038 0.258856,0 0.271317,-0.012351 0.271317,-0.2689063 V 9.0283808 h 1.005986 c 0.941372,0 1.008567,0.00987 1.04617,0.1536611 0.02847,0.1088414 0.104798,0.1536602 0.261713,0.1536602 0.185078,0 0.22153,-0.031601 0.22153,-0.1920752 0,-0.1166504 0.04379,-0.1920762 0.111505,-0.1920762 0.09178,0 0.104961,-0.1189478 0.07452,-0.6722653 -0.02034,-0.3697458 -0.07338,-0.9734612 -0.117856,-1.3415899 -0.04448,-0.3681297 -0.05329,-0.7138651 -0.01959,-0.7683029 0.0337,-0.054442 0.07978,-0.2372722 0.102389,-0.4062986 0.03895,-0.2911817 0.05628,-0.3085755 0.32984,-0.3312034 0.189539,-0.015677 0.298127,0.010717 0.316079,0.076826 0.01504,0.055392 0.06905,0.2562935 0.120028,0.4464485 0.05114,0.1908021 0.0877,0.7448569 0.08158,1.2363723 l -0.01111,0.8906359 0.321225,0.069739 c 0.301278,0.065415 0.338607,0.1042171 0.601142,0.6249067 0.260412,0.5164806 0.297315,0.5552928 0.529615,0.5570192 0.199096,0.00152 0.249698,-0.029283 0.249698,-0.1518046 0,-0.209337 0.307146,-0.209337 0.36189,0 0.05737,0.2193673 0.483243,0.2193673 0.483243,0 0,-0.209337 0.307147,-0.209337 0.36189,0 0.05836,0.2231563 0.560074,0.2231563 0.560074,0 0,-0.089377 0.05122,-0.1536602 0.122438,-0.1536602 0.06734,0 0.14052,0.069149 0.162621,0.1536602 0.02984,0.1141012 0.104799,0.1536602 0.291167,0.1536602 0.18637,0 0.26133,-0.039563 0.291168,-0.1536602 0.0221,-0.084513 0.09852,-0.1536602 0.169814,-0.1536602 0.0713,0 0.147713,0.069149 0.169815,0.1536602 0.05602,0.2142167 0.449485,0.2142167 0.505505,0 0.05202,-0.1989294 0.287606,-0.1989294 0.339628,0 0.03019,0.1154656 0.104798,0.1536602 0.300128,0.1536602 0.208725,0 0.259946,-0.03028 0.259946,-0.1536602 0,-0.1024405 0.05122,-0.1536602 0.15366,-0.1536602 0.10244,0 0.15366,0.051221 0.15366,0.1536602 0,0.1243919 0.05122,0.1536602 0.268906,0.1536602 0.217686,0 0.268907,-0.029273 0.268907,-0.1536602 0,-0.1024405 0.05122,-0.1536602 0.15366,-0.1536602 0.10244,0 0.15366,0.051221 0.15366,0.1536602 0,0.2231563 0.501718,0.2231563 0.560074,0 0.05202,-0.1989294 0.287607,-0.1989294 0.339628,0 0.05836,0.2231563 0.560074,0.2231563 0.560074,0 0,-0.209337 0.307146,-0.209337 0.36189,0 0.05737,0.2193673 0.483243,0.2193673 0.483243,0 0,-0.209337 0.307147,-0.209337 0.36189,0 0.05836,0.2231563 0.560074,0.2231563 0.560074,0 0,-0.2014757 0.232372,-0.2014757 0.285059,0 0.05836,0.2231563 0.560074,0.2231563 0.560074,0 0,-0.089377 0.05122,-0.1536602 0.122438,-0.1536602 0.06734,0 0.14052,0.069149 0.162621,0.1536602 0.05724,0.2189065 0.52509,0.2189065 0.582336,0 0.05202,-0.1989294 0.287606,-0.1989294 0.339628,0 0.05836,0.2231563 0.560073,0.2231563 0.560073,0 0,-0.1024405 0.05122,-0.1536602 0.153661,-0.1536602 0.10244,0 0.15366,0.051221 0.15366,0.1536602 0,0.1243919 0.05122,0.1536602 0.268906,0.1536602 0.217686,0 0.268907,-0.029273 0.268907,-0.1536602 0,-0.1024405 0.05122,-0.1536602 0.15366,-0.1536602 0.10244,0 0.15366,0.051221 0.15366,0.1536602 0,0.1233829 0.05122,0.1536602 0.259946,0.1536602 0.19533,0 0.269933,-0.038195 0.300128,-0.1536602 0.0221,-0.084513 0.09852,-0.1536602 0.169814,-0.1536602 0.0713,0 0.147713,0.069149 0.169814,0.1536602 0.03019,0.1154656 0.104799,0.1536602 0.300129,0.1536602 0.208724,0 0.259945,-0.03028 0.259945,-0.1536602 0,-0.2014757 0.232372,-0.2014757 0.28506,0 0.05836,0.2231563 0.560073,0.2231563 0.560073,0 0,-0.1047302 0.05122,-0.1536602 0.160853,-0.1536602 0.09624,0 0.176995,0.061729 0.201037,0.1536602 0.05602,0.2142167 0.449485,0.2142167 0.505505,0 0.0221,-0.084513 0.09852,-0.1536602 0.169814,-0.1536602 0.0713,0 0.147713,0.069149 0.169814,0.1536602 0.05836,0.2231563 0.560074,0.2231563 0.560074,0 0,-0.2014757 0.232372,-0.2014757 0.285059,0 0.05724,0.2189065 0.52509,0.2189065 0.582335,0 0.05202,-0.1989294 0.287607,-0.1989294 0.339629,0 0.03019,0.1154656 0.104798,0.1536602 0.300128,0.1536602 0.208725,0 0.259945,-0.03028 0.259945,-0.1536602 0,-0.2014757 0.232372,-0.2014757 0.28506,0 0.05836,0.2231563 0.560074,0.2231563 0.560074,0 0,-0.1024405 0.05122,-0.1536602 0.15366,-0.1536602 0.10244,0 0.15366,0.051221 0.15366,0.1536602 0,0.1233829 0.05122,0.1536602 0.259946,0.1536602 0.19533,0 0.269933,-0.038195 0.300128,-0.1536602 0.05202,-0.1989294 0.287607,-0.1989294 0.339628,0 0.0555,0.2122082 0.483244,0.2205027 0.483244,0.00941 0,-0.079363 0.07574,-0.1945788 0.16831,-0.2560427 0.152543,-0.1012851 0.159278,-0.1335567 0.0719,-0.344506 -0.114394,-0.2761689 -0.138681,-2.5495917 -0.03103,-2.9046003 0.05837,-0.1924705 0.114967,-0.2343278 0.343146,-0.2537539 0.205769,-0.01752 0.286768,0.010945 0.327973,0.1152461 0.03009,0.07618 0.07412,0.6798748 0.09784,1.3415453 l 0.04312,1.2030375 0.340648,0.051078 c 0.319262,0.047876 0.352276,0.076057 0.525832,0.4488134 0.101849,0.2187516 0.18552,0.4344534 0.185933,0.4793378 3.84e-4,0.044883 0.07015,0.2252437 0.154968,0.4007993 0.379853,0.7862069 0.767746,1.7483569 0.767746,1.9043609 0,0.09383 0.05469,0.191593 0.121529,0.217242 0.06684,0.02565 0.631209,0.04663 1.254152,0.04663 h 1.132623 l -0.0043,0.729888 -0.0043,0.729887 H 47.51156 46.261723 v 0.806719 c 0,0.755497 -0.0098,0.806718 -0.153661,0.806718 -0.08537,0 -0.15366,-0.05122 -0.15366,-0.115246 0,-0.08068 -0.08137,-0.115245 -0.271317,-0.115245 -0.170297,0 -0.287784,0.04291 -0.315542,0.115245 -0.02432,0.06338 -0.08868,0.115246 -0.143029,0.115246 -0.05435,0 -0.118707,-0.05186 -0.143029,-0.115246 -0.02776,-0.07233 -0.145246,-0.115245 -0.315542,-0.115245 -0.189951,0 -0.271317,0.03457 -0.271317,0.115245 0,0.06403 -0.06829,0.115246 -0.15366,0.115246 -0.08537,0 -0.153661,-0.05122 -0.153661,-0.115246 0,-0.08049 -0.0811,-0.115245 -0.268906,-0.115245 -0.187807,0 -0.268906,0.03476 -0.268906,0.115245 0,0.150403 -0.298652,0.150403 -0.356367,0 -0.05956,-0.155211 -0.488766,-0.155211 -0.488766,0 0,0.150403 -0.298652,0.150403 -0.356367,0 -0.0608,-0.158425 -0.565597,-0.158425 -0.565597,0 0,0.06403 -0.06829,0.115246 -0.15366,0.115246 -0.08537,0 -0.15366,-0.05122 -0.15366,-0.115246 0,-0.08049 -0.0811,-0.115245 -0.268907,-0.115245 -0.187807,0 -0.268906,0.03476 -0.268906,0.115245 0,0.06403 -0.06829,0.115246 -0.15366,0.115246 -0.08537,0 -0.153661,-0.05122 -0.153661,-0.115246 0,-0.166759 -0.505328,-0.157054 -0.569795,0.01094 -0.04095,0.106703 -0.128229,0.118749 -0.565239,0.078 -0.349297,-0.03256 -0.546976,-0.08935 -0.60986,-0.175192 -0.084,-0.114667 -0.119733,-0.103579 -0.367617,0.114067 -0.151016,0.132593 -0.307945,0.241079 -0.348732,0.241079 -0.04079,0 -0.07416,0.08127 -0.07416,0.180611 0,0.09934 -0.03438,0.280848 -0.07641,0.403359 -0.04202,0.122512 -0.107586,0.43019 -0.145695,0.68373 -0.09674,0.643592 -0.378377,2.235786 -0.468868,2.650645 -0.156689,0.718337 -0.175615,0.995619 -0.07614,1.115479 0.162964,0.196359 0.02504,0.222582 -0.619881,0.117849 -0.339295,-0.0551 -0.628597,-0.08719 -0.642894,-0.07132 -0.03587,0.03982 -1.120159,6.078543 -1.120159,6.238466 0,0.07767 0.06106,0.128894 0.153661,0.128894 0.101252,0 0.153661,0.05122 0.153661,0.15018 0,0.17787 -0.03091,0.184235 -1.690267,0.348098 -0.654978,0.06467 -1.355094,0.137852 -1.555813,0.162606 -0.20072,0.02475 -0.364944,0.01439 -0.364944,-0.02301 z m -0.460981,-7.874349 c 0.891361,-0.533089 0.947649,-0.620567 0.907068,-1.409678 -0.02268,-0.440966 -0.03177,-0.458807 -0.254011,-0.498624 -0.194742,-0.03489 -0.22722,-0.07267 -0.209396,-0.243632 0.0233,-0.223461 0.02695,-0.221977 -0.904643,-0.366974 -0.661271,-0.102924 -2.406609,-0.104457 -2.343324,-0.0021 0.02612,0.04226 0.187771,0.07683 0.359232,0.07683 0.289105,0 0.307572,0.01255 0.254263,0.172868 -0.03161,0.09508 -0.07357,0.492799 -0.09322,0.883824 -0.03114,0.619667 -0.01538,0.74545 0.122762,0.979587 0.213042,0.361081 0.08254,0.343124 -0.17161,-0.02361 -0.182855,-0.263861 -0.202524,-0.360693 -0.202524,-0.997023 0,-0.646532 -0.01429,-0.714019 -0.172869,-0.816592 -0.532467,-0.344408 -0.852555,-0.138046 -1.023721,0.659995 -0.212736,0.991863 -0.10994,1.372387 0.411858,1.524588 0.548314,0.159935 2.361702,0.439691 2.590243,0.399602 0.12677,-0.02223 0.45522,-0.174831 0.729888,-0.339098 z m 11.89459,-5.344481 -0.02431,-0.211282 -0.781501,-0.02183 c -0.727238,-0.02031 -0.78493,-0.01102 -0.830885,0.133766 -0.02716,0.08558 -0.02783,0.190478 -0.0015,0.233112 0.02731,0.04418 0.395107,0.07752 0.855196,0.07752 h 0.807287 z m 2.399556,0.07006 c 0.311363,-0.252127 0.130856,-0.319764 -0.853381,-0.319764 -0.743885,0 -0.917429,0.02076 -0.917429,0.109758 0,0.2652 0.225073,0.351224 0.91894,0.351224 0.543102,0 0.712064,-0.02801 0.85187,-0.141218 z m 2.820164,-1.760331 c 0.02299,-0.06978 -0.09617,-0.09604 -0.435736,-0.09604 -0.435314,0 -0.546297,0.04914 -0.412712,0.182721 0.09132,0.09133 0.814121,0.01747 0.848448,-0.08668 z m -5.204766,-0.865929 c 0.0457,-0.08539 0.06216,-0.189107 0.03659,-0.230491 -0.02577,-0.04168 -0.421404,-0.07524 -0.887102,-0.07524 -0.829406,0 -0.840599,0.0024 -0.840599,0.17927 0,0.0986 0.02305,0.20232 0.05122,0.230491 0.02817,0.02817 0.389977,0.05122 0.804015,0.05122 0.676729,0 0.76119,-0.01569 0.83588,-0.155249 z m 2.421384,0.07505 c 0.02726,-0.0441 0.0078,-0.130541 -0.04329,-0.192075 -0.06979,-0.08408 -0.280713,-0.11188 -0.849044,-0.11188 -0.659823,0 -0.765984,0.0183 -0.833023,0.143559 -0.04225,0.07895 -0.055,0.165391 -0.02831,0.192076 0.0838,0.0838 1.700346,0.0546 1.753668,-0.03168 z"
   id="path360" /></svg>
