<?xml version="1.0" encoding="UTF-8" standalone="no"?>
<svg
   xmlns:dc="http://purl.org/dc/elements/1.1/"
   xmlns:cc="http://creativecommons.org/ns#"
   xmlns:rdf="http://www.w3.org/1999/02/22-rdf-syntax-ns#"
   xmlns:svg="http://www.w3.org/2000/svg"
   xmlns="http://www.w3.org/2000/svg"
   xmlns:sodipodi="http://sodipodi.sourceforge.net/DTD/sodipodi-0.dtd"
   xmlns:inkscape="http://www.inkscape.org/namespaces/inkscape"
   version="1.1"
   id="Selected_Items"
   x="0px"
   y="0px"
   width="32.167px"
   height="32px"
   viewBox="0 0 32.167 32"
   enable-background="new 0 0 32.167 32"
   xml:space="preserve"
   sodipodi:docname="sykov.svg"
   inkscape:version="1.0.2-2 (e86c870879, 2021-01-15)"><metadata
   id="metadata316"><rdf:RDF><cc:Work
       rdf:about=""><dc:format>image/svg+xml</dc:format><dc:type
         rdf:resource="http://purl.org/dc/dcmitype/StillImage" /></cc:Work></rdf:RDF></metadata><defs
   id="defs314" /><sodipodi:namedview
   pagecolor="#ffffff"
   bordercolor="#666666"
   borderopacity="1"
   objecttolerance="10"
   gridtolerance="10"
   guidetolerance="10"
   inkscape:pageopacity="0"
   inkscape:pageshadow="2"
   inkscape:window-width="1842"
   inkscape:window-height="1051"
   id="namedview312"
   showgrid="false"
   inkscape:zoom="13.75"
   inkscape:cx="18.260871"
   inkscape:cy="8.6984729"
   inkscape:window-x="-9"
   inkscape:window-y="-9"
   inkscape:window-maximized="1"
   inkscape:current-layer="Selected_Items" />

<path
   style="fill:#ffffff;stroke-width:0.0527183"
   d="m 9.7026561,29.350092 c 0,-0.03428 -0.7468424,-0.05272 -2.1350902,-0.05272 H 5.4324753 v -0.285558 c 0,-0.157056 0.021429,-0.293465 0.04762,-0.30313 0.039851,-0.01471 0.085216,-0.515335 0.064112,-0.707512 -0.00374,-0.03408 -0.2841894,-0.08484 -0.6916328,-0.125196 -0.3769358,-0.03733 -0.6853377,-0.08538 -0.6853377,-0.106779 0,-0.0214 -0.2965404,-0.06914 -0.6589786,-0.106092 -0.3624383,-0.03695 -0.6589786,-0.08469 -0.6589786,-0.106082 0,-0.02139 -0.076415,-0.05418 -0.1698114,-0.07286 -0.093396,-0.01868 -0.2340744,-0.10432 -0.312618,-0.190314 -0.1206522,-0.132092 -0.1485251,-0.2219 -0.1796651,-0.578883 -0.028022,-0.32124 -0.055557,-0.422534 -0.1148586,-0.422534 -0.090099,0 -0.6464411,0.539515 -0.6464411,0.626889 0,0.03215 -0.031068,0.05845 -0.069039,0.05845 -0.037972,0 -0.1506569,0.09436 -0.2504119,0.20968 -0.180468,0.208634 -0.42023445,0.284662 -0.49847725,0.158062 -0.0545397,-0.08825 0.0293836,-0.367742 0.11042029,-0.367742 0.0411889,0 0.0748887,-0.02631 0.0748887,-0.05845 0,-0.03215 0.2058797,-0.259747 0.45751036,-0.505776 l 0.4575103,-0.44732 0.050423,-0.930797 c 0.027732,-0.511939 0.068668,-0.942659 0.090967,-0.957156 0.022299,-0.0145 0.070272,-0.488963 0.106607,-1.054366 0.036334,-0.565404 0.081582,-1.039868 0.1005497,-1.054366 0.034072,-0.02604 0.1618409,-1.820009 0.1605122,-2.253707 -3.796e-4,-0.123229 0.019646,-0.224052 0.044496,-0.224052 0.02485,0 0.061359,-0.243164 0.08113,-0.540363 0.042363,-0.636789 0.1312125,-1.199341 0.1894235,-1.199341 0.022726,0 0.057287,-0.106471 0.076801,-0.236603 0.019514,-0.130131 0.066289,-0.267411 0.1039442,-0.305065 0.037655,-0.03766 0.1003177,-0.156555 0.1392505,-0.264222 0.038933,-0.107666 0.087859,-0.195757 0.108726,-0.195757 0.020866,0 0.054013,-0.07319 0.07366,-0.162636 0.019646,-0.08945 0.1045626,-0.293505 0.1887027,-0.453459 0.08414,-0.159952 0.1529821,-0.323999 0.1529821,-0.364547 0,-0.04055 0.023814,-0.07372 0.05292,-0.07372 0.029107,0 0.081473,-0.106754 0.1163705,-0.237232 0.034898,-0.130478 0.080413,-0.237233 0.1011459,-0.237233 0.020733,0 0.066697,-0.08896 0.102142,-0.197693 0.035445,-0.108732 0.083685,-0.210308 0.107198,-0.225727 0.08711,-0.05712 0.2055262,-0.665575 0.204462,-1.050588 -0.00125,-0.453967 -0.1149639,-1.06881 -0.2030973,-1.098187 -0.077124,-0.02571 -0.076103,-0.196562 0.00192,-0.321498 0.052485,-0.08404 0.027811,-0.133259 -0.1713344,-0.341743 -0.1279573,-0.133959 -0.2565374,-0.243656 -0.2857333,-0.243772 -0.029196,-1.05e-4 -0.1257118,-0.07935 -0.2144799,-0.176069 -0.088768,-0.09672 -0.236874,-0.209267 -0.3291242,-0.250101 -0.09225,-0.04083 -0.1677278,-0.08974 -0.1677278,-0.108681 0,-0.05597 -0.6394791,-0.150697 -1.0172905,-0.150697 -0.3948239,0 -0.4588215,-0.05466 -0.4588215,-0.391921 0,-0.10339 -0.023723,-0.18798 -0.052718,-0.18798 -0.066072,0 -0.070298,-0.5647209 -0.00441,-0.5886875 0.026572,-0.00966 0.064173,-0.1032108 0.083559,-0.2078801 L 1.2766914,9.4900708 1.0086186,9.4545084 c -0.14744022,-0.019557 -0.268073,-0.052677 -0.268073,-0.073595 0,-0.02092 -0.0652389,-0.068117 -0.14497529,-0.1048918 C 0.38720305,9.1799288 0.16584426,8.8392434 0.19901852,8.6657029 c 0.0159328,-0.083346 0.002979,-0.139335 -0.032228,-0.139335 -0.0323752,0 -0.0588643,-0.047451 -0.0588643,-0.1054369 0,-0.05799 0.0263638,-0.1054362 0.0585852,-0.1054362 0.037998,0 0.0468466,-0.062571 0.0251815,-0.178058 C 0.16330382,7.9861124 0.17489172,7.9550376 0.26887712,7.93046 0.34856332,7.90962 0.37467196,7.867309 0.36231172,7.7790282 0.34923642,7.6856412 0.37335742,7.6525112 0.46377442,7.63967 0.55596662,7.626579 0.58239059,7.588407 0.58239059,7.4683353 c 0,-0.1536731 0.001667,-0.1544879 0.3163097,-0.1544879 0.17397041,0 0.31630971,0.021087 0.31630971,0.046849 0,0.025769 0.088962,0.063506 0.1976936,0.083857 0.1087314,0.020355 0.2972157,0.082304 0.4188538,0.137665 C 2.179115,7.740401 2.3035088,7.7193933 2.3455265,7.4954196 2.3648684,7.3923197 2.4208856,7.2670523 2.4700097,7.2170474 2.5191339,7.1670455 2.5949111,7.056401 2.6384037,6.9711773 2.7328719,6.7860678 2.752629,6.7619062 3.2095753,6.2726603 3.4059113,6.0624461 3.5947482,5.8904525 3.6292129,5.8904525 c 0.034465,0 0.092294,-0.04745 0.1285093,-0.1054362 0.036216,-0.05799 0.091446,-0.1054369 0.1227355,-0.1054369 0.1251964,0 0.3922129,-0.3924342 0.3922129,-0.5764354 0,-0.059897 0.023723,-0.1089023 0.052718,-0.1089023 0.029739,0 0.052718,-0.1493685 0.052718,-0.3426689 V 4.3089061 l 0.3558489,-0.00901 c 0.1957166,-0.00496 0.4388797,-0.011097 0.5403624,-0.013648 0.2790194,-0.00702 0.3163097,-0.053921 0.3163097,-0.3978876 0,-0.4064754 0.031494,-0.4756651 0.2165135,-0.4756651 H 5.9596556 V 3.828296 c 0,0.3901216 0.00727,0.4167853 0.1186162,0.434926 0.065239,0.010629 1.5064249,0.00477 3.2026358,-0.013024 1.6962114,-0.017792 4.4065904,-0.035585 6.0230644,-0.039539 1.919425,-0.0047 2.939045,-0.025479 2.939045,-0.059907 0,-0.034204 0.691221,-0.052718 1.968228,-0.052718 1.082526,0 3.751389,-0.015763 5.930807,-0.03503 3.252781,-0.028755 3.96258,-0.047641 3.96258,-0.1054366 0,-0.038724 0.03289,-0.070407 0.07311,-0.070407 0.0482,0 0.09513,-0.1167379 0.137765,-0.3426689 0.06445,-0.3415665 0.06523,-0.3426689 0.243202,-0.3426689 0.0982,0 0.178544,0.023723 0.178544,0.052718 0,0.028995 0.07117,0.052718 0.158155,0.052718 0.168139,0 0.369028,0.1578415 0.369028,0.2899506 0,0.043493 0.02372,0.079077 0.05272,0.079077 0.029,0 0.05285,0.053377 0.05301,0.1186161 5.91e-4,0.2379348 0.112452,0.5257856 0.214719,0.552529 0.05571,0.014569 0.101297,0.047446 0.101297,0.073059 0,0.025614 0.03178,0.04657 0.07062,0.04657 0.09865,0 0.192975,0.2303721 0.192975,0.4713048 0,0.1315922 0.02776,0.2134026 0.07908,0.2330973 0.06683,0.025644 0.07908,0.202354 0.07908,1.1407382 0,0.9383837 -0.01225,1.1150934 -0.07908,1.1407381 -0.09595,0.036816 -0.104155,0.158313 -0.01318,0.1950229 0.05272,0.021275 0.05272,0.027422 0,0.030749 -0.03624,0.00232 -0.0659,0.06347 -0.0659,0.1359578 0,0.1319362 -0.08573,0.2369027 -0.332621,0.407237 -0.104363,0.072002 -0.145567,0.1680083 -0.197979,0.4612853 -0.0364,0.2036968 -0.08611,0.3703575 -0.110462,0.3703575 -0.02435,0 -0.04427,-0.035584 -0.04427,-0.079078 0,-0.067718 -0.155226,-0.079078 -1.080725,-0.079078 -0.685338,0 -1.080725,0.019289 -1.080725,0.05272 0,0.032931 -0.314064,0.05272 -0.836754,0.05272 h -0.836758 l -0.03874,0.2240528 c -0.0213,0.123229 -0.05004,0.1943981 -0.06385,0.1581543 -0.03141,-0.082411 -1.176132,-0.095238 -1.176132,-0.013178 0,0.028995 -0.0771,0.052684 -0.171334,0.052648 -0.331024,-1.587e-4 -1.806618,0.1672297 -1.897143,0.215176 -0.05035,0.026668 -0.12777,0.048487 -0.17205,0.048487 -0.101597,0 -0.303081,0.1111185 -0.358468,0.1976933 -0.02319,0.036244 -0.07129,0.065899 -0.1069,0.065899 -0.03561,0 -0.104165,0.041514 -0.152348,0.092256 -0.04818,0.05074 -0.17158,0.163427 -0.274214,0.250412 -0.102635,0.08698 -0.1871,0.186114 -0.187701,0.220287 -6.01e-4,0.03417 -0.03575,0.09679 -0.07811,0.139144 -0.04235,0.04236 -0.09293,0.232425 -0.112395,0.422374 -0.02958,0.288679 -0.01803,0.378666 0.07039,0.54829 0.05818,0.11161 0.122499,0.279085 0.142943,0.372166 0.02044,0.09308 0.05632,0.169238 0.07973,0.169238 0.08982,0 0.174141,0.705767 0.145794,1.220224 -0.02117,0.384201 -0.05768,0.576559 -0.139079,0.73272 -0.0607,0.116464 -0.110371,0.247351 -0.110371,0.290861 0,0.04351 -0.03558,0.09276 -0.07908,0.109453 -0.04349,0.01669 -0.07946,0.05746 -0.07992,0.0906 -0.0012,0.08162 -0.335319,0.482304 -0.538544,0.645724 -0.219378,0.176408 -0.516597,0.336533 -0.725852,0.391047 -0.130478,0.03399 -0.261566,0.08169 -0.291306,0.106008 -0.02974,0.02431 -0.355934,0.07415 -0.724876,0.110746 -0.368942,0.0366 -0.670804,0.08226 -0.670804,0.101463 0,0.01921 -0.332125,0.06608 -0.738056,0.104165 -0.405931,0.03808 -0.738055,0.08531 -0.738055,0.104943 0,0.01964 -0.450742,0.07957 -1.001649,0.133184 -0.550906,0.05362 -1.001647,0.116445 -1.001647,0.139621 0,0.02318 -0.201647,0.04214 -0.448105,0.04214 -0.246458,0 -0.448105,-0.01858 -0.448105,-0.04127 0,-0.0227 -0.171994,-0.0718 -0.382208,-0.109109 -0.526705,-0.09347 -0.556929,-0.104737 -0.593937,-0.221338 -0.02684,-0.08457 -0.08094,-0.102613 -0.305827,-0.10202 -0.353723,9.42e-4 -0.523455,0.04751 -0.490081,0.134476 0.01655,0.04312 -0.03131,0.08128 -0.128815,0.102697 -0.08533,0.01874 -0.155146,0.05592 -0.155146,0.08261 0,0.02669 -0.04151,0.04868 -0.09226,0.04886 -0.08223,3.17e-4 -0.150269,0.08232 -0.36426,0.439158 -0.03362,0.05606 -0.08398,0.116523 -0.111906,0.134353 -0.06277,0.04007 -0.169633,0.52709 -0.169633,0.773068 0,0.100055 -0.02007,0.181919 -0.04459,0.181919 -0.02453,0 -0.07563,0.391433 -0.113559,0.869852 -0.03793,0.478418 -0.08488,0.869851 -0.104345,0.869851 -0.01946,0 -0.079,0.533773 -0.132306,1.186161 -0.05331,0.652389 -0.113107,1.186162 -0.132887,1.186162 -0.01978,0 -0.067,0.391433 -0.104927,0.869852 -0.03792,0.478418 -0.08493,0.869852 -0.104438,0.869852 -0.01951,0 -0.06672,0.403295 -0.1049,0.896211 -0.03819,0.492916 -0.0855,0.89621 -0.105146,0.89621 -0.01964,0 -0.06512,0.361779 -0.101063,0.803954 -0.116732,1.436217 -0.09946,1.357496 -0.297767,1.357496 -0.197779,0 -0.235615,0.06361 -0.235615,0.396146 0,0.176415 0.02239,0.236476 0.097,0.260153 0.05335,0.01693 0.130448,0.09415 0.171334,0.171597 0.04088,0.07745 0.165515,0.22879 0.276953,0.336319 0.125416,0.121018 0.195461,0.232744 0.183841,0.293241 -0.01725,0.08982 -0.0902,0.0989 -0.901131,0.112188 -0.528643,0.0087 -0.8823593,0.03508 -0.8823593,0.0659 0,0.02829 -0.047443,0.05144 -0.1054362,0.05144 -0.05799,0 -0.1054369,-0.02373 -0.1054369,-0.05272 z M 3.1785862,26.957235 c 0.050641,-0.03845 0.1058725,-0.138889 0.1227364,-0.223209 0.058001,-0.290005 -0.3009193,-0.558489 -0.5364083,-0.401249 -0.1653382,0.1104 -0.2386919,0.511722 -0.1159646,0.634449 0.084017,0.08402 0.4140045,0.07779 0.5296365,-0.01 z M 17.605725,15.969999 c 0.01707,-0.02609 0.36909,-0.078 0.78227,-0.11536 0.413179,-0.03736 0.751235,-0.08396 0.751235,-0.103543 0,-0.01959 0.320263,-0.06634 0.711697,-0.103907 0.391433,-0.03756 0.711697,-0.08938 0.711697,-0.115151 0,-0.02577 0.06694,-0.04686 0.148763,-0.04686 0.201348,0 0.658405,-0.157909 0.710529,-0.24548 0.02319,-0.03895 0.07573,-0.07083 0.116761,-0.07083 0.04103,0 0.1,-0.04745 0.13103,-0.105437 0.03104,-0.05799 0.09034,-0.105437 0.131796,-0.105437 0.04146,0 0.101722,-0.04924 0.133932,-0.109426 0.03221,-0.06019 0.09828,-0.153378 0.146829,-0.207096 0.172193,-0.19053 0.2112,-0.2511 0.359777,-0.558651 0.142867,-0.295733 0.150237,-0.346641 0.150237,-1.037787 0,-0.44482 -0.02131,-0.741393 -0.05493,-0.764415 -0.03021,-0.02069 -0.08842,-0.141578 -0.129356,-0.268643 -0.04093,-0.127065 -0.105179,-0.261779 -0.142764,-0.299364 -0.03758,-0.03758 -0.06837,-0.08783 -0.0684,-0.111642 -5.3e-5,-0.04406 -0.198891,-0.304711 -0.325586,-0.426835 -0.169801,-0.163674 -0.37849,-0.328167 -0.416339,-0.328167 -0.02269,0 -0.0726,-0.03037 -0.110917,-0.06749 -0.131998,-0.127877 -0.65027,-0.349092 -0.959179,-0.409408 -0.488418,-0.09536 -1.807986,0.03013 -1.964706,0.18685 -0.0394,0.0394 -0.07165,0.157726 -0.07165,0.262938 0,0.21712 -0.08807,0.640783 -0.161652,0.77763 -0.06348,0.11807 -0.0645,1.09462 -0.0012,1.09462 0.02644,0 0.0642,0.09536 0.08389,0.211918 0.01969,0.116555 0.06805,0.244167 0.107468,0.283582 0.03942,0.03942 0.08743,0.134464 0.10669,0.211219 0.01927,0.07676 0.07974,0.163486 0.134398,0.192737 0.05466,0.02925 0.09937,0.08793 0.09937,0.130405 0,0.04247 0.0202,0.07722 0.0449,0.07722 0.0247,0 0.116583,0.06524 0.204197,0.144976 0.251514,0.2289 0.400612,0.331518 0.528498,0.363746 0.06524,0.01644 0.118616,0.0489 0.118616,0.07213 0,0.02323 0.164228,0.06994 0.364952,0.103797 0.368121,0.06209 0.484163,0.150232 0.347315,0.263806 -0.09858,0.08181 -0.672804,-0.03201 -0.824277,-0.163384 -0.06183,-0.05363 -0.190757,-0.112197 -0.286504,-0.130159 -0.09575,-0.01796 -0.186844,-0.06591 -0.20244,-0.106553 -0.01559,-0.04064 -0.05676,-0.0739 -0.09149,-0.0739 -0.06927,0 -0.09596,-0.02206 -0.52184,-0.431351 -0.160441,-0.15419 -0.324582,-0.345584 -0.364757,-0.425321 -0.04017,-0.07974 -0.08968,-0.144975 -0.110005,-0.144975 -0.02033,0 -0.06794,-0.112686 -0.105805,-0.250412 -0.03787,-0.137726 -0.08896,-0.264022 -0.113539,-0.280655 -0.05365,-0.0363 -0.146894,-0.576081 -0.147322,-0.852788 -1.67e-4,-0.108731 -0.02403,-0.197693 -0.05302,-0.197693 -0.029,0 -0.05272,-0.03286 -0.05272,-0.07302 0,-0.109011 -0.199924,-0.215789 -0.545232,-0.291206 -0.169401,-0.037 -0.347326,-0.100661 -0.395388,-0.141474 -0.04806,-0.04082 -0.140764,-0.121654 -0.206003,-0.179644 -0.1199,-0.106578 -0.329489,-0.144304 -0.329489,-0.05931 0,0.02537 -0.07676,0.06148 -0.170588,0.08025 -0.09382,0.01877 -0.258496,0.104762 -0.365937,0.191104 -0.107441,0.08634 -0.207523,0.156986 -0.222402,0.156986 -0.08854,0 -0.55903,0.609287 -0.55903,0.723945 0,0.03261 -0.0354,0.09469 -0.07866,0.137955 -0.131935,0.131936 -0.237639,0.661579 -0.237897,1.19201 -2.11e-4,0.48556 0.140493,1.372779 0.217748,1.372779 0.02074,0 0.05369,0.07277 0.07323,0.161717 0.01953,0.08894 0.06886,0.174513 0.109625,0.190154 0.04076,0.01564 0.07411,0.05495 0.07411,0.08736 0,0.07456 0.354509,0.392553 0.483144,0.43338 0.05322,0.01689 0.09676,0.05192 0.09676,0.07784 0,0.02592 0.09489,0.07269 0.210873,0.103916 0.115981,0.03123 0.210873,0.07802 0.210873,0.103967 0,0.02595 0.06524,0.05877 0.144976,0.07292 0.234994,0.04172 1.60893,-0.0094 1.642771,-0.0611 z"
   id="path332" /></svg>
