<?xml version="1.0" encoding="UTF-8" standalone="no"?>
<svg
   xmlns:dc="http://purl.org/dc/elements/1.1/"
   xmlns:cc="http://creativecommons.org/ns#"
   xmlns:rdf="http://www.w3.org/1999/02/22-rdf-syntax-ns#"
   xmlns:svg="http://www.w3.org/2000/svg"
   xmlns="http://www.w3.org/2000/svg"
   xmlns:sodipodi="http://sodipodi.sourceforge.net/DTD/sodipodi-0.dtd"
   xmlns:inkscape="http://www.inkscape.org/namespaces/inkscape"
   version="1.1"
   x="0px"
   y="0px"
   width="78.604px"
   height="32px"
   viewBox="0 0 78.604 32"
   enable-background="new 0 0 78.604 32"
   xml:space="preserve"
   id="svg187"
   sodipodi:docname="m13.svg"
   inkscape:version="1.0.2-2 (e86c870879, 2021-01-15)"><metadata
   id="metadata193"><rdf:RDF><cc:Work
       rdf:about=""><dc:format>image/svg+xml</dc:format><dc:type
         rdf:resource="http://purl.org/dc/dcmitype/StillImage" /></cc:Work></rdf:RDF></metadata><defs
   id="defs191" /><sodipodi:namedview
   pagecolor="#ffffff"
   bordercolor="#666666"
   borderopacity="1"
   objecttolerance="10"
   gridtolerance="10"
   guidetolerance="10"
   inkscape:pageopacity="0"
   inkscape:pageshadow="2"
   inkscape:window-width="1842"
   inkscape:window-height="1051"
   id="namedview189"
   showgrid="false"
   inkscape:zoom="10.929912"
   inkscape:cx="36.367174"
   inkscape:cy="34.649125"
   inkscape:window-x="-9"
   inkscape:window-y="-9"
   inkscape:window-maximized="1"
   inkscape:current-layer="svg187" />

<g
   id="guides">
</g>
<path
   style="fill:#ffffff;stroke-width:0.091492"
   d="m 39.029105,30.475817 c -0.02992,-0.07798 -0.05383,-0.292809 -0.05313,-0.477396 7.32e-4,-0.184586 -0.140492,-0.912012 -0.313763,-1.616501 -0.173269,-0.704489 -0.362019,-1.527917 -0.419444,-1.829841 -0.05743,-0.301924 -0.160262,-0.795981 -0.228528,-1.097904 -0.06827,-0.301924 -0.1718,-0.878324 -0.230075,-1.280889 -0.05828,-0.402565 -0.16101,-1.040722 -0.228298,-1.418127 -0.06729,-0.377404 -0.145993,-1.04166 -0.174899,-1.476122 -0.03274,-0.492033 -0.120913,-0.94058 -0.233815,-1.189397 -0.218663,-0.481901 -0.238162,-0.811179 -0.04804,-0.811179 0.07548,0 0.137238,-0.04117 0.137238,-0.09149 0,-0.05032 -0.123515,-0.09149 -0.274477,-0.09149 -0.150961,0 -0.274476,0.04117 -0.274476,0.09149 0,0.05032 -0.09422,0.09149 -0.209385,0.09149 -0.115162,0 -0.370895,0.08234 -0.568297,0.182984 -0.311033,0.158574 -0.539545,0.182985 -1.712945,0.182985 -1.214716,0 -1.398645,-0.02118 -1.787623,-0.205858 -0.454228,-0.215655 -0.578727,-0.223381 -2.329904,-0.144589 -1.183969,0.05327 -1.234664,0.102365 -2.06246,1.997303 -0.196429,0.449651 -0.35395,0.808972 -0.661798,1.509619 -0.110548,0.251603 -0.2424,0.560389 -0.293003,0.686191 -0.108125,0.268802 -0.281817,0.685168 -0.419835,1.006412 -0.279115,0.649649 -0.33371,0.920777 -0.221569,1.100343 0.259848,0.416084 -0.0014,0.479278 -0.690351,0.16699 -2.250612,-1.020166 -3.295467,-1.526724 -3.358082,-1.628038 -0.0689,-0.111478 0.350975,-1.337536 0.863436,-2.521294 0.498594,-1.151727 1.477875,-3.144319 1.821074,-3.705428 0.741361,-1.212082 0.945888,-1.97116 0.731717,-2.715672 -0.131333,-0.456545 -0.696009,-1.126994 -0.949195,-1.126994 -0.07548,0 -0.137238,-0.07776 -0.137238,-0.172802 0,-0.123738 -0.08743,-0.189205 -0.30794,-0.230572 -0.169367,-0.03177 -0.371393,-0.03342 -0.448947,-0.0037 -0.141049,0.05413 -0.758264,-0.286563 -1.105892,-0.610428 -0.101503,-0.09457 -0.218977,-0.171935 -0.261054,-0.171935 -0.04208,0 -0.11553,-0.102643 -0.163227,-0.228095 -0.06201,-0.163095 -0.146015,-0.221759 -0.294788,-0.205857 -0.150819,0.01612 -0.215726,-0.03084 -0.235901,-0.170656 -0.01531,-0.10609 -0.128663,-0.246854 -0.251899,-0.312809 -0.123236,-0.06595 -0.224066,-0.15413 -0.224066,-0.195948 0,-0.04182 -0.06141,-0.07603 -0.136462,-0.07603 -0.07506,0 -0.187887,-0.08234 -0.250739,-0.182984 -0.06285,-0.100641 -0.2073,-0.182984 -0.320997,-0.182984 -0.168696,0 -0.206722,-0.05049 -0.206722,-0.274476 v -0.274476 h -2.184373 -2.184372 l -0.05718,-0.285913 c -0.07237,-0.361869 -0.07208,-1.3417772 4.84e-4,-1.6125472 l 0.05517,-0.205857 h 2.220214 c 2.049874,0 2.223473,-0.01247 2.262703,-0.16248 0.03224,-0.123272 0.147768,-0.167062 0.478771,-0.181468 0.368111,-0.01602 0.483694,-0.06926 0.73972,-0.340726 l 0.303438,-0.321739 h 1.744493 c 1.102,0 1.744493,-0.0337 1.744493,-0.09149 0,-0.05032 -0.185272,-0.09149 -0.411715,-0.09149 -0.403718,0 -0.411693,-0.0058 -0.410664,-0.297349 9.06e-4,-0.255484 0.05176,-0.32164 0.361231,-0.469876 0.211136,-0.101133 0.371608,-0.247559 0.387792,-0.353848 0.01694,-0.111254 0.159294,-0.233623 0.368381,-0.316666 0.302791,-0.120258 0.356327,-0.119788 0.480333,0.0042 0.07676,0.07676 0.139562,0.183674 0.139562,0.237589 0,0.061 0.259227,0.09803 0.68619,0.09803 h 0.686191 l 0.0014,-1.120778 c 0.0015,-1.225495 0.119213,-1.787249 0.436352,-2.082708 l 0.204047,-0.190099 0.09933,0.255792 c 0.05463,0.140687 0.09843,0.739558 0.09733,1.330825 l -0.002,1.075031 h 0.300349 c 0.193563,0 0.388097,0.08132 0.547152,0.228731 0.135743,0.125801 0.285855,0.22873 0.333582,0.22873 0.04773,0 0.08678,0.102928 0.08678,0.22873 0,0.142321 0.05185,0.22873 0.137238,0.22873 0.07624,0 0.137238,0.08133 0.137238,0.182984 0,0.14813 0.06099,0.182984 0.320222,0.182984 0.259227,0 0.320222,-0.03485 0.320222,-0.182984 0,-0.121989 0.061,-0.182984 0.182984,-0.182984 0.121989,0 0.182984,0.061 0.182984,0.182984 0,0.14813 0.06099,0.182984 0.320223,0.182984 0.259227,0 0.320222,-0.03485 0.320222,-0.182984 0,-0.134188 0.06099,-0.182984 0.22873,-0.182984 0.167735,0 0.22873,0.0488 0.22873,0.182984 0,0.142321 0.06099,0.182984 0.274476,0.182984 0.213481,0 0.274476,-0.04066 0.274476,-0.182984 0,-0.134188 0.06099,-0.182984 0.22873,-0.182984 0.167735,0 0.22873,0.0488 0.22873,0.182984 0,0.14813 0.06099,0.182984 0.320223,0.182984 0.259227,0 0.320222,-0.03485 0.320222,-0.182984 0,-0.121989 0.06099,-0.182984 0.182984,-0.182984 0.121989,0 0.182984,0.061 0.182984,0.182984 0,0.14813 0.061,0.182984 0.320222,0.182984 0.259227,0 0.320222,-0.03485 0.320222,-0.182984 0,-0.121989 0.06099,-0.182984 0.182984,-0.182984 0.12199,0 0.182985,0.061 0.182985,0.182984 0,0.14813 0.06099,0.182984 0.320222,0.182984 0.259227,0 0.320222,-0.03485 0.320222,-0.182984 0,-0.134188 0.06099,-0.182984 0.22873,-0.182984 0.167735,0 0.22873,0.0488 0.22873,0.182984 0,0.142321 0.06099,0.182984 0.274476,0.182984 0.213481,0 0.274476,-0.04066 0.274476,-0.182984 0,-0.134188 0.06099,-0.182984 0.22873,-0.182984 0.167736,0 0.228731,0.0488 0.228731,0.182984 0,0.143552 0.06099,0.182984 0.283041,0.182984 0.206097,0 0.29605,-0.04974 0.330893,-0.182984 0.02648,-0.101274 0.124797,-0.182984 0.220165,-0.182984 0.111318,0 0.172313,0.06477 0.172313,0.182984 0,0.14813 0.06099,0.182984 0.320222,0.182984 0.259227,0 0.320222,-0.03485 0.320222,-0.182984 0,-0.121989 0.06099,-0.182984 0.182985,-0.182984 0.121989,0 0.182984,0.061 0.182984,0.182984 0,0.14813 0.06099,0.182984 0.320222,0.182984 0.259227,0 0.320222,-0.03485 0.320222,-0.182984 0,-0.134188 0.06099,-0.182984 0.22873,-0.182984 0.167735,0 0.22873,0.0488 0.22873,0.182984 0,0.142321 0.06099,0.182984 0.274476,0.182984 0.213481,0 0.274476,-0.04066 0.274476,-0.182984 0,-0.134188 0.06099,-0.182984 0.228731,-0.182984 0.167735,0 0.22873,0.0488 0.22873,0.182984 0,0.14813 0.06099,0.182984 0.320222,0.182984 0.259227,0 0.320222,-0.03485 0.320222,-0.182984 0,-0.118212 0.061,-0.182984 0.172313,-0.182984 0.09537,0 0.193681,0.08171 0.220165,0.182984 0.03484,0.13324 0.124796,0.182984 0.330893,0.182984 0.222045,0 0.28304,-0.03943 0.28304,-0.182984 0,-0.118212 0.061,-0.182984 0.172313,-0.182984 0.09537,0 0.193681,0.08171 0.220165,0.182984 0.03484,0.13324 0.124796,0.182984 0.330893,0.182984 0.222046,0 0.283041,-0.03943 0.283041,-0.182984 0,-0.134188 0.06099,-0.182984 0.22873,-0.182984 0.167736,0 0.228731,0.0488 0.228731,0.182984 0,0.14813 0.061,0.182984 0.320222,0.182984 0.259227,0 0.320222,-0.03485 0.320222,-0.182984 0,-0.249286 0.36576,-0.249286 0.43095,0 0.06831,0.26123 0.575462,0.26123 0.575462,0 0,-0.124717 0.061,-0.182984 0.19155,-0.182984 0.114605,0 0.210771,0.07351 0.239401,0.182984 0.03389,0.129612 0.124797,0.182984 0.311656,0.182984 0.202811,0 0.263806,-0.04231 0.263806,-0.182984 0,-0.134188 0.06099,-0.182984 0.22873,-0.182984 0.167735,0 0.22873,0.0488 0.22873,0.182984 0,0.14813 0.06099,0.182984 0.320222,0.182984 0.259227,0 0.320222,-0.03485 0.320222,-0.182984 0,-0.121989 0.06099,-0.182984 0.182985,-0.182984 0.121989,0 0.182984,0.061 0.182984,0.182984 0,0.14813 0.06099,0.182984 0.320222,0.182984 0.259227,0 0.320222,-0.03485 0.320222,-0.182984 0,-0.134188 0.06099,-0.182984 0.22873,-0.182984 0.167735,0 0.22873,0.0488 0.22873,0.182984 0,0.142321 0.06099,0.182984 0.274476,0.182984 0.213481,0 0.274476,-0.04066 0.274476,-0.182984 0,-0.134188 0.061,-0.182984 0.228731,-0.182984 0.167735,0 0.22873,0.0488 0.22873,0.182984 0,0.142321 0.06099,0.182984 0.274476,0.182984 0.213481,0 0.274476,-0.04066 0.274476,-0.182984 0,-0.134188 0.06099,-0.182984 0.22873,-0.182984 0.167735,0 0.22873,0.0488 0.22873,0.182984 0,0.14813 0.061,0.182984 0.320222,0.182984 0.259228,0 0.320223,-0.03485 0.320223,-0.182984 0,-0.121989 0.061,-0.182984 0.182984,-0.182984 0.121989,0 0.182984,0.061 0.182984,0.182984 0,0.14813 0.06099,0.182984 0.320222,0.182984 0.259227,0 0.320222,-0.03485 0.320222,-0.182984 0,-0.134188 0.06099,-0.182984 0.22873,-0.182984 0.167735,0 0.22873,0.0488 0.22873,0.182984 0,0.142321 0.06099,0.182984 0.274476,0.182984 0.213482,0 0.274477,-0.04066 0.274477,-0.182984 0,-0.134188 0.061,-0.182984 0.22873,-0.182984 0.167735,0 0.22873,0.0488 0.22873,0.182984 0,0.14813 0.06099,0.182984 0.320222,0.182984 0.259227,0 0.320222,-0.03485 0.320222,-0.182984 0,-0.121989 0.061,-0.182984 0.182984,-0.182984 0.121989,0 0.182984,0.061 0.182984,0.182984 0,0.14813 0.06099,0.182984 0.320223,0.182984 0.259227,0 0.320222,-0.03485 0.320222,-0.182984 0,-0.121989 0.06099,-0.182984 0.182984,-0.182984 0.121989,0 0.182984,0.061 0.182984,0.182984 0,0.14813 0.06099,0.182984 0.320222,0.182984 0.259227,0 0.320222,-0.03485 0.320222,-0.182984 0,-0.134188 0.06099,-0.182984 0.22873,-0.182984 0.167735,0 0.22873,0.0488 0.22873,0.182984 0,0.142321 0.06099,0.182984 0.274477,0.182984 0.213481,0 0.274476,-0.04066 0.274476,-0.182984 0,-0.134188 0.061,-0.182984 0.22873,-0.182984 0.167735,0 0.22873,0.0488 0.22873,0.182984 0,0.119389 0.06099,0.182984 0.175501,0.182984 0.09653,0 0.240626,0.02499 0.320222,0.05553 0.10916,0.04189 0.144721,-0.0031 0.144721,-0.182984 0,-0.177524 0.04679,-0.238519 0.182984,-0.238519 0.12199,0 0.182985,0.061 0.182985,0.182984 0,0.14813 0.061,0.182984 0.320222,0.182984 0.259227,0 0.320222,-0.03485 0.320222,-0.182984 0,-0.118212 0.06099,-0.182984 0.172313,-0.182984 0.09537,0 0.193681,0.08171 0.220165,0.182984 0.03686,0.140949 0.124796,0.182984 0.382804,0.182984 0.293318,0 0.327734,-0.02275 0.276876,-0.182984 -0.04778,-0.150549 -0.01644,-0.182984 0.176819,-0.182984 0.173901,0 0.234896,0.04752 0.234896,0.182984 0,0.14813 0.06099,0.182984 0.320222,0.182984 0.262814,0 0.320222,-0.03394 0.320222,-0.189347 0,-0.144028 0.04927,-0.18235 0.205857,-0.160111 0.113221,0.01608 0.205857,0.09099 0.205857,0.166474 0,0.08796 0.106776,0.147533 0.297349,0.165908 0.248661,0.02398 0.297349,-0.0022 0.297349,-0.160111 0,-0.254342 0.364672,-0.259247 0.430951,-0.0058 0.06957,0.266052 0.575462,0.260458 0.575462,-0.0064 0,-0.144028 0.04927,-0.18235 0.205857,-0.160111 0.113221,0.01608 0.205857,0.09099 0.205857,0.166474 0,0.09254 0.111737,0.146486 0.343095,0.165634 0.29464,0.02439 0.343096,0.0018 0.343096,-0.160111 0,-0.127512 0.05921,-0.188507 0.182984,-0.188507 0.121989,0 0.182984,0.061 0.182984,0.182985 0,0.14813 0.061,0.182984 0.320222,0.182984 0.259227,0 0.320222,-0.03485 0.320222,-0.182984 0,-0.134189 0.06099,-0.182985 0.22873,-0.182985 0.167735,0 0.22873,0.0488 0.22873,0.182985 0,0.142321 0.061,0.182984 0.274476,0.182984 0.213482,0 0.274477,-0.04066 0.274477,-0.182984 0,-0.134189 0.061,-0.182985 0.22873,-0.182985 0.167735,0 0.22873,0.0488 0.22873,0.182985 0,0.142321 0.061,0.182984 0.274476,0.182984 0.213481,0 0.274476,-0.04066 0.274476,-0.182984 0,-0.134189 0.061,-0.182985 0.22873,-0.182985 0.167735,0 0.22873,0.0488 0.22873,0.182985 0,0.14813 0.06099,0.182984 0.320223,0.182984 0.259227,0 0.320222,-0.03485 0.320222,-0.182984 0,-0.101658 0.06099,-0.182985 0.137238,-0.182985 0.07548,0 0.137238,-0.04246 0.137238,-0.09436 0,-0.0519 -0.06176,-0.118061 -0.137238,-0.147026 -0.115782,-0.04443 -0.137238,-0.344375 -0.137238,-1.918462 0,-2.116086 0.03895,-2.211775 0.563978,-1.385465 0.301366,0.474305 0.305196,0.493825 0.305196,1.555397 v 1.075064 l 0.283169,-3.2e-5 c 0.165787,-1.9e-5 0.350939,0.07485 0.446654,0.180616 0.08992,0.09936 0.240397,0.205059 0.334402,0.234895 0.094,0.02984 0.170918,0.136203 0.170918,0.236371 0,0.100168 0.185271,0.364772 0.411714,0.588009 l 0.411714,0.405886 v 1.034347 1.034311 l 0.325994,-0.03806 c 0.271329,-0.03168 0.334422,-0.0058 0.376259,0.154156 l 0.05026,0.192213 0.238245,-0.187403 c 0.212898,-0.167466 0.249378,-0.172178 0.342891,-0.04429 0.123235,0.168534 0.238314,0.181403 0.377503,0.04221 0.06645,-0.06645 0.720857,-0.102371 1.916758,-0.105214 l 1.815862,-0.0043 0.02646,0.7931182 c 0.01455,0.436215 -0.01142,0.860813 -0.05773,0.943552 -0.07283,0.130132 -0.304806,0.151963 -1.719064,0.161774 -0.899182,0.0062 -1.71481,0.03041 -1.812507,0.05371 -0.146188,0.03487 -0.201538,-0.03861 -0.312687,-0.415091 l -0.135056,-0.457461 -0.07799,0.358804 c -0.04289,0.197342 -0.12523,0.415726 -0.182971,0.485299 -0.08539,0.102889 -0.129389,0.07008 -0.235754,-0.175819 -0.129855,-0.300194 -0.131361,-0.300792 -0.214612,-0.08523 -0.07735,0.200281 -0.123214,0.213821 -0.592469,0.174907 -0.484089,-0.04014 -0.518465,-0.02855 -0.712499,0.240374 -0.112128,0.155404 -0.263538,0.406068 -0.336466,0.55703 -0.07293,0.150961 -0.184061,0.32888 -0.246961,0.395376 -0.0629,0.06649 -0.114365,0.179716 -0.114365,0.251603 0,0.07189 -0.03422,0.130703 -0.07603,0.130703 -0.04182,0 -0.131117,0.102929 -0.198445,0.22873 -0.07097,0.132615 -0.202418,0.228142 -0.312809,0.227329 -0.104718,-7.31e-4 -0.149225,-0.03177 -0.09891,-0.06888 0.05032,-0.03711 0.185471,-0.242535 0.300334,-0.456498 0.241454,-0.449774 0.161595,-0.754115 -0.197881,-0.754115 -0.23417,0 -0.384287,0.147724 -0.684286,0.673379 -0.156105,0.273526 -0.177753,0.381835 -0.09601,0.480333 0.08651,0.104234 0.05071,0.127176 -0.198431,0.127176 -0.236427,0 -0.279579,-0.0244 -0.194187,-0.10979 0.06038,-0.06039 0.109791,-0.166254 0.109791,-0.235266 0,-0.06901 0.06176,-0.187232 0.137238,-0.262713 0.286531,-0.286531 0.126642,-0.673119 -0.278395,-0.673119 -0.281711,0 -0.845708,0.869946 -0.740962,1.142909 0.0398,0.103714 -0.01391,0.137979 -0.216284,0.137979 h -0.269231 l 0.277097,-0.469955 c 0.152403,-0.258476 0.256026,-0.524863 0.230274,-0.591973 -0.06727,-0.17531 -0.489464,-0.260167 -0.6464,-0.129921 -0.234356,0.194497 -0.598876,0.899224 -0.541911,1.047673 0.04364,0.113736 -0.0095,0.143881 -0.251812,0.142776 -0.168926,-7.32e-4 -0.265966,-0.03165 -0.215646,-0.06862 0.05032,-0.03697 0.191818,-0.259591 0.314438,-0.494713 0.187182,-0.35892 0.20373,-0.450648 0.103162,-0.571826 -0.245778,-0.296144 -0.536925,-0.175884 -0.88266,0.364587 -0.26111,0.40818 -0.303943,0.534951 -0.216392,0.640444 0.0912,0.109888 0.05915,0.131528 -0.194818,0.131528 -0.236427,0 -0.279579,-0.0244 -0.194187,-0.10979 0.06038,-0.06039 0.109791,-0.166254 0.109791,-0.235266 0,-0.06901 0.06176,-0.187232 0.137238,-0.262713 0.286531,-0.286531 0.126642,-0.673119 -0.278395,-0.673119 -0.281711,0 -0.845707,0.869946 -0.740962,1.142909 0.0398,0.103714 -0.01391,0.137979 -0.216283,0.137979 h -0.269231 l 0.277096,-0.469955 c 0.152403,-0.258476 0.256026,-0.524863 0.230274,-0.591973 -0.06727,-0.17531 -0.489463,-0.260167 -0.6464,-0.129921 -0.234356,0.194497 -0.598876,0.899224 -0.541911,1.047673 0.04365,0.113736 -0.0095,0.143881 -0.251812,0.142776 -0.168926,-7.32e-4 -0.264959,-0.03165 -0.213407,-0.06862 0.05155,-0.03697 0.193561,-0.258974 0.315576,-0.493342 0.187228,-0.359632 0.202976,-0.448859 0.100924,-0.571825 -0.246899,-0.297495 -0.537562,-0.178041 -0.883799,0.363215 -0.26111,0.40818 -0.303943,0.534951 -0.216391,0.640444 0.09093,0.10957 0.06177,0.131528 -0.174708,0.131528 h -0.283866 l 0.226918,-0.406448 c 0.361497,-0.647503 0.263358,-0.973282 -0.253621,-0.841919 -0.249566,0.06342 -0.740106,0.84452 -0.678444,1.080315 0.03537,0.13526 -0.0092,0.168052 -0.228194,0.168052 h -0.272141 l 0.169638,-0.251603 c 0.357592,-0.530372 0.428275,-0.737826 0.302871,-0.888928 -0.157889,-0.190244 -0.490045,-0.176971 -0.674598,0.02696 -0.08328,0.09202 -0.151419,0.198751 -0.151419,0.237172 0,0.03842 -0.08306,0.175456 -0.184587,0.304521 -0.108387,0.137792 -0.162495,0.304268 -0.131072,0.403272 0.04239,0.13356 0.0053,0.168608 -0.17851,0.168608 -0.257734,0 -0.249289,-0.08433 0.06153,-0.614406 0.2301,-0.392416 0.143268,-0.666482 -0.211162,-0.666482 -0.222333,0 -0.318708,0.08318 -0.592767,0.511602 -0.258982,0.404853 -0.304957,0.538487 -0.22034,0.640444 0.088,0.106028 0.05728,0.128842 -0.173445,0.128842 h -0.280373 l 0.222323,-0.388841 c 0.122278,-0.213863 0.222819,-0.482769 0.223425,-0.597569 0.0022,-0.413285 -0.611659,-0.378926 -0.824471,0.04615 -0.06996,0.13974 -0.185597,0.324768 -0.25697,0.411175 -0.07137,0.08641 -0.107882,0.240799 -0.08113,0.343095 0.03895,0.148943 0.0048,0.185992 -0.171527,0.185992 -0.272299,0 -0.272151,-0.0089 0.0086,-0.511718 0.290425,-0.520201 0.287744,-0.659381 -0.01416,-0.735154 -0.271103,-0.06804 -0.48853,0.03426 -0.627393,0.295187 -0.05093,0.0957 -0.165087,0.281423 -0.253679,0.412715 -0.08859,0.131291 -0.135152,0.306269 -0.103467,0.388841 0.04422,0.115222 0.0028,0.150129 -0.17796,0.150129 -0.257122,0 -0.256171,-0.0087 0.07198,-0.655001 0.214251,-0.421994 0.143567,-0.625887 -0.216975,-0.625887 -0.202305,0 -0.315639,0.06667 -0.427702,0.251603 -0.08385,0.138381 -0.23193,0.367252 -0.329057,0.508599 -0.139906,0.203603 -0.153861,0.28439 -0.06717,0.388842 0.09132,0.11003 0.06196,0.131844 -0.177404,0.131844 h -0.286827 l 0.229878,-0.36415 c 0.257956,-0.408628 0.299345,-0.804332 0.09244,-0.883731 -0.243665,-0.0935 -0.557563,0.04682 -0.688131,0.307619 -0.06996,0.13974 -0.185596,0.324768 -0.256969,0.411175 -0.07137,0.08641 -0.107882,0.240799 -0.08113,0.343095 0.03895,0.148943 0.0048,0.185992 -0.171527,0.185992 -0.272067,0 -0.271081,-0.0453 0.01095,-0.503206 0.292782,-0.47536 0.288516,-0.6671 -0.01655,-0.743666 -0.281639,-0.07069 -0.491869,0.03656 -0.63856,0.325761 -0.05707,0.112519 -0.149709,0.250519 -0.205857,0.306667 -0.05615,0.05615 -0.102089,0.217369 -0.102089,0.358267 0,0.209701 -0.04,0.256177 -0.220469,0.256177 h -0.22047 l 0.225326,-0.467078 c 0.290866,-0.602936 0.259649,-0.768064 -0.145203,-0.768064 -0.277583,0 -0.342174,0.05039 -0.577133,0.450303 -0.145513,0.247668 -0.244885,0.525575 -0.220828,0.617572 0.03499,0.133816 -0.0097,0.167267 -0.223316,0.167267 h -0.267059 l 0.229878,-0.36415 c 0.257956,-0.408628 0.299345,-0.804332 0.09243,-0.883731 -0.211712,-0.08124 -0.594494,0.0459 -0.594494,0.197466 0,0.07452 -0.04117,0.135495 -0.09149,0.135495 -0.05032,0 -0.09149,0.05882 -0.09149,0.130703 0,0.07189 -0.06617,0.196876 -0.147051,0.277754 -0.08123,0.08123 -0.126018,0.227487 -0.100058,0.326757 0.03709,0.141847 6.41e-4,0.179706 -0.17317,0.179706 -0.272068,0 -0.271082,-0.0453 0.01095,-0.503206 0.343182,-0.557189 0.275581,-0.777682 -0.238432,-0.777682 -0.206918,0 -0.720252,0.7634 -0.722883,1.075031 -0.0013,0.155868 -0.05511,0.205857 -0.221517,0.205857 h -0.219778 l 0.226898,-0.455325 c 0.2968,-0.5956 0.26033,-0.779817 -0.154385,-0.779817 -0.280402,0 -0.340848,0.04407 -0.501953,0.365968 -0.100739,0.201282 -0.219944,0.392632 -0.264901,0.425222 -0.04496,0.03259 -0.0591,0.145812 -0.03144,0.251603 0.04263,0.163028 0.0096,0.192349 -0.216758,0.192349 h -0.267059 l 0.229879,-0.36415 c 0.257955,-0.408628 0.299344,-0.804332 0.09243,-0.883731 -0.211712,-0.08124 -0.594493,0.0459 -0.594493,0.197466 0,0.07452 -0.04117,0.135495 -0.09149,0.135495 -0.05032,0 -0.09149,0.05882 -0.09149,0.130703 0,0.07189 -0.06617,0.196876 -0.147052,0.277754 -0.08123,0.08123 -0.126017,0.227487 -0.100057,0.326757 0.03894,0.148902 2.74e-4,0.179706 -0.225452,0.179706 -0.24265,0 -0.257378,-0.01507 -0.134667,-0.137779 0.152079,-0.152079 0.28249,-0.491931 0.214759,-0.559663 -0.02376,-0.02376 -0.103965,0.01755 -0.178223,0.09181 -0.07426,0.07426 -0.274723,0.151649 -0.445479,0.171979 -0.24907,0.02966 -0.309028,0.07619 -0.3032,0.235311 0.0069,0.189258 -0.03032,0.198345 -0.813058,0.198345 -0.451179,0 -1.174948,0.04921 -1.608376,0.10936 -0.764141,0.106041 -0.799156,0.121681 -1.15402,0.515452 l -0.365968,0.406092 v 1.771897 1.771896 l -0.274476,0.0064 c -0.150962,0.0035 -0.354086,0.03756 -0.451387,0.07566 -0.264947,0.103754 -0.01543,0.218978 0.316381,0.1461 0.25281,-0.05553 0.272244,-0.04099 0.272244,0.203652 0,0.144897 0.03907,0.302561 0.08683,0.350365 0.04775,0.04781 0.13254,0.478046 0.188412,0.956092 0.05587,0.478046 0.1609,1.168838 0.233394,1.535092 0.0725,0.366255 0.13181,0.828842 0.13181,1.027973 0,0.199131 0.03949,0.537625 0.08776,0.752209 0.04827,0.214585 0.133968,0.637183 0.190441,0.939106 0.154022,0.823461 0.366074,1.794502 0.460949,2.110814 0.04635,0.154534 0.08428,0.371441 0.08428,0.482014 0,0.236305 0.336952,1.527875 0.457235,1.752625 0.04565,0.0853 0.103152,0.266203 0.127777,0.402001 0.03789,0.208935 -1.83e-4,0.266457 -0.247247,0.374033 -0.28589,0.124459 -2.037584,0.683535 -2.762305,0.881625 -0.201282,0.05502 -0.530654,0.152198 -0.731936,0.215956 -0.201283,0.06376 -0.55124,0.167205 -0.777683,0.22988 -0.226442,0.06268 -0.514642,0.146945 -0.640444,0.187264 -0.125801,0.04032 -0.420397,0.09598 -0.654656,0.12369 -0.332622,0.03935 -0.437844,0.01932 -0.480333,-0.0914 z M 35.360762,19.130705 c 1.155046,-0.610719 1.293931,-0.719069 1.545638,-1.205814 0.341143,-0.659698 0.03255,-1.535562 -0.683502,-1.939956 -0.363534,-0.205307 -0.506994,-0.228561 -1.411089,-0.22873 -0.96599,-1.83e-4 -1.020109,0.01029 -1.347435,0.260694 -0.476842,0.364783 -0.619273,0.701263 -0.621678,1.468651 l -0.002,0.649261 -0.170006,-0.22115 c -0.369336,-0.480443 -0.432071,-1.352805 -0.146944,-2.043278 0.06064,-0.146845 -0.01808,-0.160111 -0.950084,-0.160111 -0.616472,0 -1.016201,0.03599 -1.016201,0.09149 0,0.05161 0.259227,0.09149 0.594698,0.09149 0.335472,0 0.594699,0.03988 0.594699,0.09149 0,0.05032 -0.03341,0.09149 -0.07424,0.09149 -0.174277,0 -0.475527,0.395188 -0.570711,0.748676 -0.254647,0.945685 0.134832,1.568321 1.381724,2.208873 0.674594,0.346552 0.690431,0.34973 1.596275,0.320222 0.714621,-0.02328 0.99504,-0.07217 1.280889,-0.223306 z M 24.79343,13.331478 c 0,-0.05032 -0.04117,-0.09149 -0.09149,-0.09149 -0.05032,0 -0.09149,0.04117 -0.09149,0.09149 0,0.05032 0.04117,0.09149 0.09149,0.09149 0.05032,0 0.09149,-0.04117 0.09149,-0.09149 z m 21.775107,-0.263039 c 0,-0.04403 -0.102177,-0.08006 -0.227061,-0.08006 -0.124884,0 -0.204797,0.03602 -0.177585,0.08006 0.02721,0.04403 0.129391,0.08005 0.227062,0.08005 0.09767,0 0.177584,-0.03602 0.177584,-0.08005 z m -21.79798,-0.541368 c 0.152581,-0.194102 0.144138,-0.342146 -0.02941,-0.515692 -0.170637,-0.170637 -0.507399,-0.187941 -0.661357,-0.03398 -0.164645,0.164645 -0.133648,0.599269 0.05032,0.705562 0.194318,0.112272 0.485329,0.04144 0.640444,-0.155887 z M 48.48987,12.27932 c 0,-0.07548 -0.04117,-0.137238 -0.09149,-0.137238 -0.05032,0 -0.09149,0.06176 -0.09149,0.137238 0,0.07548 0.04117,0.137238 0.09149,0.137238 0.05032,0 0.09149,-0.06176 0.09149,-0.137238 z M 31.532116,11.951547 c 0.294213,-0.05078 0.668739,-0.116417 0.832281,-0.145854 0.477128,-0.08588 0.355028,-0.241148 -0.137238,-0.174515 -0.661285,0.08951 -1.578238,0.344661 -1.578238,0.439157 0,0.04624 0.07836,0.05921 0.174132,0.02881 0.09577,-0.0304 0.414851,-0.09682 0.709063,-0.147598 z m -1.456926,-0.04773 c -0.0304,-0.0304 -0.109315,-0.03365 -0.17536,-0.0072 -0.07299,0.02921 -0.05131,0.05089 0.05528,0.05528 0.09645,0.004 0.150485,-0.01765 0.120083,-0.04805 z m 0.390747,-0.03622 c 0,-0.05032 -0.06176,-0.09149 -0.137238,-0.09149 -0.07548,0 -0.137238,0.04117 -0.137238,0.09149 0,0.05032 0.06176,0.09149 0.137238,0.09149 0.07548,0 0.137238,-0.04117 0.137238,-0.09149 z m 47.324262,-1.156629 c 0.468508,-0.07744 0.481783,-0.364427 0.02086,-0.450897 -0.388372,-0.07286 -2.112942,-0.01344 -2.202258,0.07587 -0.104273,0.104273 0.141542,0.328709 0.404,0.368862 0.410229,0.06276 1.413922,0.06624 1.7774,0.0062 z m 0.137407,-0.8333232 c 0.0289,-0.08709 -0.214757,-0.114366 -1.021831,-0.114366 -0.891098,0 -1.059782,0.02232 -1.059782,0.140235 0,0.1191582 0.153575,0.1363462 1.02183,0.1143652 0.71701,-0.01815 1.033152,-0.05999 1.059783,-0.1402342 z m -36.831812,-0.36587 c -1.022344,-0.01473 -2.669201,-0.01471 -3.659682,4.5e-5 -0.990481,0.01476 -0.154017,0.02681 1.858808,0.02679 2.012825,-2.4e-5 2.823218,-0.0121 1.800874,-0.02684 z m 11.864315,-0.144691 c 0.05556,-0.06695 0.112069,-0.221343 0.125567,-0.343095 0.02344,-0.211453 -0.002,-0.22261 -0.567333,-0.249126 -0.873803,-0.04098 -1.009235,0.01209 -1.009235,0.39547 v 0.318479 h 0.674988 c 0.450149,0 0.708639,-0.04055 0.776013,-0.121728 z m 2.022478,-0.05524 c 0.05209,-0.09733 0.09471,-0.262019 0.09471,-0.365968 0,-0.17485 -0.05342,-0.188999 -0.713638,-0.188999 -0.754647,0 -0.933219,0.07936 -0.933219,0.414764 0,0.291795 0.06319,0.317172 0.789712,0.317172 0.566519,0 0.682078,-0.02682 0.762434,-0.176969 z m 1.91168,0.05524 c 0.05556,-0.06695 0.112069,-0.221343 0.125567,-0.343095 0.02344,-0.211453 -0.002,-0.22261 -0.567333,-0.249126 -0.325531,-0.01527 -0.685154,-0.0043 -0.799162,0.02427 -0.211737,0.05314 -0.369488,0.414271 -0.259033,0.592991 0.08975,0.145223 1.376483,0.123746 1.499961,-0.02504 z m 11.007586,-0.02969 c 0.09202,-0.08328 0.167316,-0.268551 0.167316,-0.411714 v -0.260296 h -0.713638 c -0.80247,0 -0.933219,0.07307 -0.933219,0.521505 v 0.301923 h 0.656113 c 0.482127,0 0.700481,-0.04015 0.823428,-0.151418 z m 4.860088,-0.04028 c 0.05047,-0.08027 0.06433,-0.255251 0.0308,-0.388841 -0.05989,-0.238628 -0.07438,-0.242891 -0.825801,-0.242891 -0.762538,0 -0.76518,8.23e-4 -0.87785,0.272833 -0.203536,0.491378 -0.100204,0.560986 0.788711,0.531306 0.605497,-0.02022 0.814025,-0.06088 0.884143,-0.172407 z m -6.848371,-0.01843 c 0.06525,-0.06525 0.147424,-0.209348 0.182615,-0.320222 0.03519,-0.110875 0.09579,-0.20159 0.134664,-0.20159 0.102642,0 0.308119,-0.670828 0.268585,-0.876863 -0.03082,-0.160629 -0.134966,-0.177432 -1.244776,-0.200824 -1.14055,-0.02404 -1.211139,-0.01533 -1.211139,0.14944 0,0.213413 0.233893,0.284882 0.937793,0.286553 0.48281,0.0011 0.689748,0.107631 0.411714,0.211856 -0.08075,0.03027 -0.06475,0.08108 0.05443,0.172862 0.104305,0.08032 0.156741,0.215426 0.137238,0.353594 -0.03027,0.214459 -0.06056,0.223897 -0.740625,0.23077 -0.571423,0.0058 -0.709063,-0.01939 -0.709063,-0.129614 0,-0.190093 -0.05447,-0.107572 -0.126111,0.191067 l -0.06036,0.251603 h 0.923198 c 0.63428,0 0.960326,-0.03713 1.041831,-0.118632 z m 4.677111,-0.361701 c 0.139365,-0.264183 0.30693,-0.581605 0.372368,-0.705383 0.101497,-0.19198 0.09679,-0.249573 -0.03206,-0.391949 -0.129501,-0.143096 -0.274315,-0.163194 -1.015358,-0.140919 l -0.864314,0.02598 -0.239471,0.45746 c -0.131708,0.251604 -0.290933,0.511866 -0.353834,0.578361 -0.0629,0.06649 -0.114365,0.192068 -0.114365,0.279051 0,0.310725 0.196301,0.377731 1.106614,0.377731 h 0.887033 z m 0.61209,-1.964645 c -0.24402,-0.03028 -0.297349,-0.07688 -0.297349,-0.259834 0,-0.161939 -0.05006,-0.222933 -0.182984,-0.222933 -0.132506,0 -0.182984,0.061 -0.182984,0.221106 0,0.26192 0.104932,0.31591 0.594698,0.305981 0.32749,-0.0066 0.334705,-0.0113 0.06862,-0.04432 z M 28.727588,6.6525588 c 0,-0.134189 -0.06099,-0.182984 -0.22873,-0.182984 -0.167735,0 -0.22873,0.0488 -0.22873,0.182984 0,0.134188 0.061,0.182984 0.22873,0.182984 0.167735,0 0.22873,-0.0488 0.22873,-0.182984 z"
   id="path209" /><path
   style="fill:#ffffff;stroke-width:0.091492"
   d="m 0.8601116,20.363182 c -0.0223204,-0.03612 6.3038e-4,-0.09113 0.0510018,-0.122266 0.0503714,-0.03113 0.0895101,-0.147198 0.086975,-0.257926 -0.002535,-0.110727 -0.002081,-0.695379 0.00101,-1.299227 C 1.0021884,18.079916 0.9892674,17.441759 0.970385,17.265636 0.9515018,17.089514 0.90784622,16.595457 0.8733722,16.167732 0.79493001,15.194486 0.75360557,14.757165 0.69613942,14.292145 0.64981912,13.917318 0.53134022,12.297302 0.53220458,12.05059 0.53246904,11.97511 0.51128708,11.851594 0.48513368,11.776114 0.40366028,11.540975 0.39130588,8.5738918 0.47180018,8.5738918 c 0.0419307,0 0.0762376,-0.05877 0.0762376,-0.130598 0,-0.07183 0.10848087,-0.215928 0.24106861,-0.320222 0.19453174,-0.153019 0.37170601,-0.189625 0.91779181,-0.189625 0.5171314,0 0.6891431,0.03236 0.7293867,0.137239 0.071274,0.185738 0.8210845,0.185738 1.0068227,0 0.1192265,-0.119227 0.9324928,-0.137239 6.1966258,-0.137239 4.5908676,0 6.0859956,0.02661 6.1691776,0.109791 0.07598,0.07598 0.109791,0.548128 0.109791,1.533357 0,1.7258122 0.04429,1.6673382 -1.244574,1.6433132 -0.476757,-0.0089 -0.892683,0.0097 -0.924281,0.04129 -0.0316,0.0316 0.392003,0.05876 0.941336,0.06036 0.912522,0.0027 0.982984,0.0149 0.815804,0.141697 -0.138222,0.104837 -0.398746,0.134861 -1.065017,0.12274 -0.485119,-0.0088 -0.938004,0.02005 -1.006413,0.06416 -0.06841,0.04411 -0.618436,0.108762 -1.222283,0.143661 -0.603848,0.0349 -1.400126,0.09735 -1.769508,0.138773 -0.6363287,0.07136 -0.6901745,0.09584 -1.0252019,0.465951 -0.3147003,0.347659 -0.3737205,0.378066 -0.5365058,0.276405 -0.1005986,-0.06283 -0.2144651,-0.08267 -0.2530368,-0.0441 -0.038572,0.03857 -0.013041,0.105413 0.056734,0.148537 0.1000659,0.06184 0.065685,0.139586 -0.1627607,0.368031 -0.1592936,0.159294 -0.2896249,0.322828 -0.2896249,0.363408 0,0.04058 -0.086485,0.0964 -0.1921897,0.124043 -0.1058273,0.02767 -0.1650702,0.09414 -0.1318384,0.147908 0.033193,0.05371 -0.00384,0.09765 -0.082286,0.09765 -0.078451,0 -0.1426377,0.04392 -0.1426377,0.0976 0,0.05368 -0.1417406,0.247837 -0.314979,0.431461 l -0.314979,0.333861 -0.099166,-0.260826 C 6.8235525,14.136021 6.9163651,14.003072 8.1277333,12.803067 8.7333111,12.20317 9.0558674,11.821786 8.9793131,11.796177 8.911536,11.773505 8.7103337,11.626985 8.5321967,11.470579 l -0.3238853,-0.284375 -2.152122,0.02955 c -2.3845354,0.03274 -2.5451405,0.06788 -3.0975832,0.67772 -0.6385008,0.704839 -0.650049,1.141388 -0.1590541,6.012606 0.078617,0.779969 0.1291236,1.622338 0.1122366,1.871929 -0.0296,0.437485 -0.042219,0.456079 -0.3509259,0.517127 -0.4843287,0.09578 -1.6546734,0.1426 -1.7007512,0.06804 z M 2.6491358,10.318256 C 2.957162,9.7427028 2.2942256,9.2049598 1.8132576,9.6402308 1.6184623,9.8165178 1.5992428,10.056962 1.7594426,10.313482 c 0.1566945,0.250908 0.7562446,0.254125 0.8896933,0.0048 z M 4.2458306,9.9136218 c -0.053141,-0.138485 -0.2210951,-0.215 -0.2210951,-0.100726 0,0.06521 0.2214377,0.3047302 0.2537568,0.2744822 0.013765,-0.01288 -9.332e-4,-0.09107 -0.032662,-0.1737562 z"
   id="path211" /><path
   style="fill:#ffffff;stroke-width:0.091492"
   d="m 55.250723,14.033796 c -0.08074,-0.05958 -0.176149,-0.200799 -0.212023,-0.313828 l -0.06522,-0.205506 h 8.148958 c 5.050809,0 8.148957,0.03285 8.148957,0.08639 0,0.04751 -0.100328,0.201907 -0.222952,0.343095 -0.195177,0.224724 -0.246314,0.242457 -0.410473,0.14234 -0.223876,-0.136538 -0.738955,-0.152482 -0.738955,-0.02287 0,0.05032 -0.08234,0.09149 -0.182985,0.09149 -0.100641,0 -0.182984,-0.04117 -0.182984,-0.09149 0,-0.130307 -0.581758,-0.113582 -0.715921,0.02058 -0.08844,0.08844 -0.149923,0.08844 -0.291533,0 -0.230022,-0.143651 -0.571229,-0.143651 -0.71488,0 -0.08844,0.08844 -0.149922,0.08844 -0.291533,0 -0.230022,-0.143651 -0.571229,-0.143651 -0.714879,0 -0.08844,0.08844 -0.149923,0.08844 -0.291533,0 -0.215699,-0.134706 -0.730895,-0.149214 -0.730895,-0.02058 0,0.05032 -0.08234,0.09149 -0.182984,0.09149 -0.100641,0 -0.182984,-0.04117 -0.182984,-0.09149 0,-0.134297 -0.708932,-0.112908 -0.758104,0.02287 -0.03313,0.09149 -0.08016,0.09149 -0.235113,0 -0.24985,-0.14752 -0.717876,-0.14752 -0.7713,0 -0.03313,0.09149 -0.08016,0.09149 -0.235113,0 -0.246637,-0.145624 -0.584722,-0.146686 -0.729116,-0.0023 -0.08844,0.08844 -0.149923,0.08844 -0.291534,0 -0.215698,-0.134706 -0.730894,-0.149214 -0.730894,-0.02058 0,0.05032 -0.08234,0.09149 -0.182984,0.09149 -0.100641,0 -0.182984,-0.04117 -0.182984,-0.09149 0,-0.130307 -0.581758,-0.113582 -0.715921,0.02058 -0.08844,0.08844 -0.149923,0.08844 -0.291534,0 -0.228623,-0.142778 -0.501229,-0.142778 -0.729852,0 -0.14161,0.08844 -0.203095,0.08844 -0.291533,0 -0.144437,-0.144438 -0.555469,-0.144438 -0.699906,0 -0.08844,0.08844 -0.149923,0.08844 -0.291534,0 -0.215698,-0.134706 -0.730894,-0.149214 -0.730894,-0.02058 0,0.05032 -0.08234,0.09149 -0.182984,0.09149 -0.100641,0 -0.182984,-0.04117 -0.182984,-0.09149 0,-0.134297 -0.708932,-0.112908 -0.758104,0.02287 -0.03313,0.09149 -0.08016,0.09149 -0.235113,0 -0.226421,-0.133687 -0.716203,-0.152539 -0.760381,-0.02927 -0.01705,0.04757 -0.09523,0.03733 -0.177294,-0.02323 z"
   id="path213" /><path
   style="fill:#ffffff;stroke-width:0.091492"
   d="m 2.8847495,16.356645 c -0.029084,-0.04706 -0.0942,-0.633752 -0.1447012,-1.303761 -0.050501,-0.67001 -0.1150109,-1.29264 -0.1433544,-1.383622 -0.028344,-0.09098 -0.00283,-0.368429 0.056689,-0.616547 0.1517169,-0.632427 0.8624564,-1.359252 1.5419699,-1.576869 0.7568229,-0.242375 3.6720484,-0.20919 3.6720484,0.0418 0,0.08363 -4.8027917,4.924562 -4.885767,4.924562 -0.024202,0 -0.067801,-0.0385 -0.096885,-0.08556 z"
   id="path215" /></svg>
