<?xml version="1.0" encoding="UTF-8" standalone="no"?>
<!-- Created with Inkscape (http://www.inkscape.org/) -->

<svg
   width="110.00014"
   height="32.040314"
   viewBox="0 0 29.104206 8.4773329"
   version="1.1"
   id="svg5"
   xmlns="http://www.w3.org/2000/svg"
   xmlns:svg="http://www.w3.org/2000/svg">
  <defs
     id="defs2" />
  <g
     id="layer1"
     transform="translate(-66.295045,-123.79759)">
    <path
       style="fill:#ffffff;stroke-width:0.0208352;fill-opacity:1"
       d="m 82.210969,130.92699 c -0.0439,-0.0152 -0.0875,-0.0517 -0.111951,-0.0937 -0.04,-0.0687 -0.03993,-0.0699 0.03964,-0.75747 l 0.07969,-0.68864 -0.04066,-0.0743 c -0.05948,-0.10862 -0.135686,-0.15592 -0.268987,-0.16698 -0.09563,-0.008 -0.115459,-0.0163 -0.115459,-0.0487 0,-0.0301 0.01535,-0.0391 0.0666,-0.0391 0.03802,0 0.100604,-0.0236 0.145847,-0.0549 0.09954,-0.069 0.109145,-0.15991 0.02518,-0.23835 -0.02974,-0.0277 -0.07813,-0.0914 -0.10754,-0.14142 l -0.05347,-0.0909 -0.142483,0.014 c -0.116546,0.0115 -0.142485,0.009 -0.142485,-0.0159 0,-0.0632 0.124405,-0.10869 0.364618,-0.13318 0.116717,-0.0119 0.134652,-0.0286 0.135111,-0.12587 3.14e-4,-0.0597 -0.0063,-0.0677 -0.0555,-0.0677 -0.0307,0 -0.08733,-0.0114 -0.125849,-0.0254 -0.05496,-0.0199 -0.07876,-0.0199 -0.110583,0 -0.07449,0.0465 -0.103601,0.0317 -0.103849,-0.0528 -1.58e-4,-0.043 -0.0061,-0.11329 -0.01314,-0.15627 -0.01174,-0.071 -0.01891,-0.0781 -0.07844,-0.0781 -0.0416,0 -0.121398,0.0348 -0.21854,0.0952 l -0.153011,0.0952 -0.731949,-0.014 c -0.648059,-0.0125 -0.736725,-0.0103 -0.77362,0.0187 -0.03914,0.0308 -0.03392,0.0328 0.08612,0.0334 0.114638,6.3e-4 0.129084,0.006 0.140354,0.0475 0.0284,0.106 0.01203,0.15755 -0.09105,0.28649 -0.0573,0.0717 -0.106038,0.13147 -0.108314,0.13287 -0.0023,0.001 -0.0093,0.37134 -0.01563,0.82208 l -0.01149,0.81952 -0.06804,0.0608 -0.06804,0.0607 h -0.307563 c -0.327681,0 -0.370878,-0.0112 -0.424711,-0.11046 -0.01715,-0.0316 -0.02927,-0.28163 -0.03909,-0.80629 -0.01488,-0.79487 -0.02013,-0.83848 -0.112674,-0.93759 -0.12376,-0.13254 -0.202218,-0.31253 -0.136227,-0.31253 0.01146,0 0.02084,-0.014 0.02084,-0.0313 0,-0.0244 0.02807,-0.0313 0.127563,-0.0313 0.111028,0 0.124201,-0.004 0.101626,-0.0313 -0.02001,-0.0241 -0.07538,-0.0313 -0.242157,-0.0313 h -0.21622 v 0.0521 c 0,0.0463 -0.0087,0.0521 -0.07813,0.0522 -0.04297,6e-5 -0.903209,0.001 -1.911637,0.003 l -1.833505,0.003 -0.552135,-0.10113 -0.552135,-0.10113 -1.802252,-0.005 c -0.991239,-0.003 -1.842099,-0.006 -1.890802,-0.006 -0.07442,-6.3e-4 -0.08855,-0.007 -0.08855,-0.0424 0,-0.055 -0.02868,-0.0528 -0.06981,0.006 l -0.03323,0.0469 -0.04055,-0.0471 -0.04055,-0.0471 -1.309103,0.18063 c -0.720005,0.0993 -1.383256,0.18459 -1.473889,0.18943 -0.09937,0.006 -0.184147,0.0215 -0.213561,0.0408 -0.04478,0.0293 -0.04877,0.0464 -0.04877,0.20805 v 0.17608 l -0.0573,-0.007 -0.0573,-0.007 -0.0054,-1.27348 c -0.0047,-1.10909 -0.0014,-1.27681 0.02578,-1.29932 0.01713,-0.0142 0.04533,-0.0204 0.06266,-0.0138 0.02466,0.009 0.03152,0.05 0.03152,0.18633 0,0.20909 5.51e-4,0.20957 0.281276,0.24036 0.103135,0.0113 0.742929,0.0964 1.421765,0.18909 1.253442,0.17115 1.380581,0.18475 1.380581,0.14769 0,-0.0331 0.07761,-0.0242 0.09087,0.0104 0.01788,0.0466 0.05497,0.0377 0.05497,-0.0132 0,-0.0403 0.0087,-0.0434 0.09376,-0.0338 0.05157,0.006 0.09376,0.002 0.09376,-0.008 0,-0.0101 0.04688,-0.0183 0.104177,-0.0183 0.06377,0 0.104176,0.009 0.104176,0.0236 0,0.0176 0.297211,0.0194 1.151149,0.007 0.633133,-0.009 1.389544,-0.015 1.680914,-0.0133 l 0.529765,0.003 0.584923,-0.10338 0.584923,-0.10337 1.808533,-0.003 c 0.994693,-0.002 1.814301,0.003 1.821351,0.01 0.007,0.007 0.04329,0.0128 0.08053,0.0128 0.03724,0 0.07113,0.0103 0.07531,0.0228 0.0054,0.0162 0.150136,0.0184 0.501783,0.008 l 0.494187,-0.0153 v -0.27837 c 0,-0.17169 -0.008,-0.27837 -0.02084,-0.27837 -0.01146,0 -0.02084,-0.0194 -0.02084,-0.0432 0,-0.0238 -0.01487,-0.0581 -0.03305,-0.0762 -0.02258,-0.0226 -0.02851,-0.0501 -0.01871,-0.0871 0.01393,-0.0524 0.0458,-0.46377 0.04978,-0.6426 0.0019,-0.0869 0.0033,-0.0885 0.0749,-0.0885 h 0.07292 v 0.12196 c 0,0.0671 0.0059,0.17817 0.01306,0.2469 0.01243,0.11889 0.01065,0.1256 -0.03646,0.13848 -0.03091,0.008 -0.04082,0.0194 -0.02636,0.0291 0.05026,0.0339 0.07326,0.34424 0.02881,0.38869 -0.0114,0.0114 -0.02072,0.0561 -0.02072,0.0994 0,0.0758 0.0019,0.0779 0.05345,0.0583 0.03048,-0.0116 0.326531,-0.0203 0.689167,-0.0203 h 0.635722 l 0.05912,0.0591 c 0.06399,0.064 0.09513,0.19307 0.07929,0.32871 l -0.0089,0.076 0.142504,-0.0119 c 0.141811,-0.0119 0.143307,-0.0114 0.307579,0.0883 l 0.165076,0.10026 0.610513,0.0133 c 0.335782,0.007 1.107434,0.0139 1.714784,0.0145 0.607348,6.8e-4 1.146461,0.003 1.198028,0.005 l 0.09376,0.004 0.0061,-0.19681 c 0.0033,-0.10824 0.01619,-0.20903 0.0286,-0.22398 0.01743,-0.021 0.140162,-0.0271 0.540882,-0.0271 h 0.51833 v -0.15336 c 0,-0.24343 0.01946,-0.34669 0.06534,-0.34669 0.05115,0 0.04959,-0.0344 -0.0028,-0.0625 -0.02915,-0.0156 -0.04167,-0.0436 -0.04167,-0.0933 0,-0.0391 -0.0094,-0.0768 -0.02083,-0.0838 -0.01146,-0.007 -0.02084,-0.0603 -0.02084,-0.11825 0,-0.10496 2.36e-4,-0.10531 0.0573,-0.0893 0.03151,0.009 0.116625,0.0147 0.189136,0.013 l 0.131838,-0.003 -0.01297,0.059 c -0.0071,0.0324 -0.01483,0.33749 -0.0171,0.67782 -0.0046,0.69056 -0.01062,0.66274 0.14143,0.65561 0.158441,-0.007 0.218771,0.002 0.218771,0.0337 0,0.0661 0.05918,0.003 0.08422,-0.0892 0.01451,-0.0537 0.02957,-0.10369 0.03347,-0.11108 0.0039,-0.007 0.121996,0.024 0.262438,0.0699 0.389572,0.1272 0.848309,0.15739 1.167886,0.0768 0.08936,-0.0225 0.253434,-0.0546 0.364618,-0.0713 0.111184,-0.0167 0.511554,-0.0868 0.889715,-0.15579 0.740694,-0.13512 1.002542,-0.1662 1.402606,-0.16648 0.204263,-1.6e-4 0.297864,0.0103 0.45846,0.051 0.360342,0.0913 1.733045,0.40748 2.135779,0.49188 0.409854,0.0859 0.568387,0.0976 1.350533,0.0996 0.228821,6.3e-4 0.244641,0.003 0.27607,0.0482 0.0405,0.0579 0.04628,0.34134 0.0086,0.42396 l -0.02473,0.0542 -0.246185,-0.006 c -0.135404,-0.003 -0.246171,6.3e-4 -0.24615,0.009 2e-5,0.009 -0.147823,0.0156 -0.328533,0.0156 -0.307203,0 -0.357682,0.006 -0.776115,0.0921 -0.52169,0.1074 -1.918292,0.43107 -2.145617,0.49725 -0.131463,0.0383 -0.20587,0.0453 -0.468795,0.0439 -0.171891,-6.9e-4 -0.410976,-0.0111 -0.531299,-0.0227 -0.249145,-0.024 -1.750679,-0.28787 -2.227949,-0.3916 -0.284097,-0.0618 -0.65525,-0.0289 -1.029577,0.091 -0.147214,0.0472 -0.274847,0.0813 -0.283627,0.0759 -0.0088,-0.006 -0.02792,-0.0526 -0.04252,-0.1047 -0.02793,-0.0998 -0.05767,-0.1353 -0.08126,-0.0971 -0.0099,0.016 -0.419006,0.0254 -1.369684,0.0315 -1.020017,0.007 -1.367461,0.0151 -1.403559,0.0344 l -0.04797,0.0257 0.01403,0.4222 c 0.0095,0.2857 0.0067,0.44153 -0.0086,0.48198 -0.03583,0.0948 -0.122217,0.17049 -0.236866,0.20746 -0.05831,0.0188 -0.199779,0.0744 -0.314374,0.12358 -0.114593,0.0492 -0.276341,0.10996 -0.359438,0.1351 -0.0831,0.0251 -0.15646,0.0544 -0.163027,0.065 -0.0065,0.0106 -0.01108,0.33083 -0.01003,0.71157 0.0017,0.62282 -0.0018,0.69956 -0.03491,0.76517 -0.05126,0.10152 -0.129419,0.12266 -0.453526,0.12266 -0.15581,0 -0.301397,-0.0105 -0.342754,-0.0249 z m 1.374099,-1.84265 c 0.07449,-0.0337 0.184122,-0.0773 0.243636,-0.097 0.228688,-0.0757 0.268731,-0.15474 0.246181,-0.48558 -0.01902,-0.27897 -0.03416,-0.29777 -0.239983,-0.29777 -0.133838,0 -0.151501,0.006 -0.211443,0.0625 -0.04438,0.0424 -0.08653,0.0625 -0.131124,0.0625 -0.05953,0 -0.06906,0.009 -0.101189,0.099 -0.06491,0.1811 -0.02799,0.39073 0.0868,0.49286 0.02453,0.0218 0.04461,0.0476 0.04461,0.0573 0,0.0349 -0.04799,0.0164 -0.119125,-0.0461 -0.04988,-0.0438 -0.08979,-0.0617 -0.127763,-0.0573 -0.05175,0.006 -0.055,0.0127 -0.05177,0.10633 0.0037,0.10593 0.03087,0.15517 0.1,0.18102 0.04616,0.0172 0.0603,0.013 0.261165,-0.0777 z m 0.17862,-1.18295 c -0.04282,-0.0324 -0.06674,-0.0273 -0.04405,0.01 0.0075,0.0123 0.02959,0.0219 0.04896,0.0216 0.03093,-5.6e-4 0.03033,-0.004 -0.0049,-0.0311 z m 2.285152,-1.04633 c -0.07162,-0.004 -0.13022,-0.0163 -0.13022,-0.0272 0,-0.011 -0.01875,-0.0198 -0.04167,-0.0198 -0.02291,0 -0.04167,0.009 -0.04167,0.02 0,0.011 -0.07735,0.0231 -0.171891,0.027 -0.09454,0.004 -0.01719,0.007 0.171891,0.007 0.18908,1.6e-4 0.285183,-0.003 0.213562,-0.007 z m -0.34274,-0.19709 c 0.05844,-0.0585 0.01441,-0.16251 -0.06876,-0.16251 -0.05585,0 -0.09376,0.0379 -0.09376,0.0938 0,0.0559 0.03791,0.0938 0.09376,0.0938 0.02406,0 0.055,-0.0112 0.06876,-0.025 z m 0.440756,-0.005 c 0.06205,-0.0748 -0.027,-0.19172 -0.118851,-0.1561 -0.05239,0.0203 -0.06558,0.1175 -0.02187,0.16121 0.03422,0.0342 0.110389,0.0315 0.140728,-0.005 z m -6.200428,-0.0428 c -0.01304,-0.034 -0.07004,-0.0435 -0.07004,-0.0117 0,0.0108 -0.03516,0.0233 -0.07813,0.0278 -0.05833,0.006 -0.04794,0.009 0.04102,0.0117 0.09822,0.003 0.117043,-0.002 0.107157,-0.0278 z"
       id="path2429" />
  </g>
</svg>
