<?xml version="1.0" encoding="UTF-8" standalone="no"?>
<svg
   xmlns:dc="http://purl.org/dc/elements/1.1/"
   xmlns:cc="http://creativecommons.org/ns#"
   xmlns:rdf="http://www.w3.org/1999/02/22-rdf-syntax-ns#"
   xmlns:svg="http://www.w3.org/2000/svg"
   xmlns="http://www.w3.org/2000/svg"
   xmlns:sodipodi="http://sodipodi.sourceforge.net/DTD/sodipodi-0.dtd"
   xmlns:inkscape="http://www.inkscape.org/namespaces/inkscape"
   version="1.1"
   x="0px"
   y="0px"
   width="77.833px"
   height="32px"
   viewBox="0 0 77.833 32"
   enable-background="new 0 0 77.833 32"
   xml:space="preserve"
   id="svg124"
   sodipodi:docname="famas.svg"
   inkscape:version="1.0.2-2 (e86c870879, 2021-01-15)"><metadata
   id="metadata130"><rdf:RDF><cc:Work
       rdf:about=""><dc:format>image/svg+xml</dc:format><dc:type
         rdf:resource="http://purl.org/dc/dcmitype/StillImage" /></cc:Work></rdf:RDF></metadata><defs
   id="defs128" /><sodipodi:namedview
   pagecolor="#ffffff"
   bordercolor="#666666"
   borderopacity="1"
   objecttolerance="10"
   gridtolerance="10"
   guidetolerance="10"
   inkscape:pageopacity="0"
   inkscape:pageshadow="2"
   inkscape:window-width="1842"
   inkscape:window-height="1051"
   id="namedview126"
   showgrid="false"
   inkscape:zoom="7.8051726"
   inkscape:cx="75.830415"
   inkscape:cy="25.591181"
   inkscape:window-x="-9"
   inkscape:window-y="-9"
   inkscape:window-maximized="1"
   inkscape:current-layer="svg124" />

<g
   id="guides">
</g>
<path
   style="fill:#ffffff;stroke-width:0.12812"
   d="m 18.934271,31.339129 c -0.0378,-0.06117 -0.295559,-0.07494 -0.572789,-0.03061 -0.938976,0.150147 -0.889802,0.52008 -0.889802,-6.693923 v -6.454381 h -0.504919 c -0.277706,0 -0.540552,0.05765 -0.584103,0.12812 -0.04355,0.07047 -0.191088,0.12812 -0.327862,0.12812 -0.136773,0 -0.248678,0.05534 -0.248678,0.122978 0,0.06764 -0.24503,0.193039 -0.544511,0.278671 -0.299481,0.08563 -0.605026,0.200726 -0.678987,0.255764 -0.07396,0.05504 -0.39106,0.140768 -0.704661,0.190511 -0.313602,0.04974 -0.759495,0.169162 -0.990874,0.265375 -0.3402,0.141464 -0.413738,0.237768 -0.38436,0.503357 0.0318,0.287456 -0.04358,0.358732 -0.604272,0.571387 -0.352331,0.133629 -0.81098,0.390295 -1.01922,0.570368 -0.497036,0.429804 -0.860163,0.371019 -1.0129308,-0.163978 -0.0654,-0.229014 -0.154018,-0.41639 -0.19694,-0.41639 -0.04292,0 -0.7984981,0.233701 -1.6790582,0.519336 -1.5903594,0.515879 -1.6177413,0.519843 -4.1127867,0.59533 l -2.5117682,0.07599 -0.085106,-0.33909 c -0.046808,-0.1865 -0.1704888,-0.339089 -0.2748454,-0.339089 -0.21353592,0 -0.25843982,-0.326779 -0.061619,-0.448421 0.20412062,-0.126153 0.14846292,-0.597476 -0.0912543,-0.772761 -0.1899144,-0.138869 -0.195322,-0.189392 -0.0402684,-0.37622 0.1164043,-0.140259 0.1332032,-0.24603 0.0479858,-0.302135 -0.2121399,-0.139667 -0.3023176,-0.698871 -0.1435501,-0.890174 0.098092,-0.118193 0.1031942,-0.205125 0.01543,-0.262908 -0.2073005,-0.13648 -0.3038554,-0.697017 -0.1516541,-0.880408 0.099566,-0.119969 0.097392,-0.216285 -0.00774,-0.342961 -0.080402,-0.09688 -0.1386266,-0.428389 -0.1293878,-0.736691 0.00924,-0.308301 -0.01667,-0.920886 -0.057574,-1.361299 -0.044764,-0.481962 -0.025002,-0.800751 0.04964,-0.800751 0.068207,0 0.1242356,-0.158548 0.1245082,-0.35233 4.22e-4,-0.299958 0.4063172,-2.486741 0.74314882,-4.0037552 l 0.099565,-0.448421 4.1586909,-0.03106 c 2.2872801,-0.01708 4.2163455,0.01174 4.2868115,0.06406 0.07047,0.05232 0.4406358,0.469872 0.8225988,0.9279022 0.381964,0.458029 0.782148,0.904848 0.889299,0.992931 0.127931,0.105164 0.648291,0.16015 1.515594,0.16015 1.138639,0 1.320774,-0.02897 1.320774,-0.210086 0,-0.532716 0.19165,-0.550299 6.044526,-0.55456 4.807232,-0.0035 5.623198,0.02302 5.788286,0.188105 0.259959,0.25996 0.338603,0.241955 0.338603,-0.07752 0,-0.23617 0.06204,-0.263781 0.499058,-0.222104 l 0.499056,0.04759 0.06862,-1.2833082 c 0.03774,-0.705819 0.164214,-1.802193 0.281048,-2.436388 0.116834,-0.634195 0.242185,-1.369285 0.278559,-1.633532 0.05333,-0.387456 0.120007,-0.480451 0.344469,-0.480451 0.153084,0 0.420886,-0.100895 0.595113,-0.22421 0.252344,-0.178605 0.557834,-0.220378 1.50189,-0.205366 l 1.185111,0.01884 v -0.619854 c 0,-0.34092 0.05765,-0.655486 0.12812,-0.699037 0.07047,-0.04355 0.12812,-0.565839 0.12812,-1.160643 0,-1.06814395 0.0039,-1.08145995 0.320301,-1.08145995 0.301801,0 0.321653,0.04255 0.343732,0.73669095 0.01289,0.40518 0.01282,0.894124 -1.28e-4,1.086543 -0.01919,0.284613 0.04214,0.365468 0.328899,0.433598 0.488454,0.116058 0.800879,0.41793 0.800879,0.773849 0,0.181648 0.07599,0.300444 0.19218,0.300444 0.105699,0 0.19218,-0.05765 0.19218,-0.128121 0,-0.07047 0.08648,-0.12812 0.192181,-0.12812 0.105699,0 0.19218,0.05765 0.19218,0.12812 0,0.07047 0.115308,0.128121 0.25624,0.128121 0.140932,0 0.25624,-0.05765 0.25624,-0.128121 0,-0.07047 0.115309,-0.12812 0.256241,-0.12812 0.140932,0 0.25624,0.05765 0.25624,0.12812 0,0.07047 0.115308,0.128121 0.25624,0.128121 0.140933,0 0.256241,-0.05765 0.256241,-0.128121 0,-0.07047 0.08648,-0.12812 0.19218,-0.12812 0.105699,0 0.19218,0.05765 0.19218,0.12812 0,0.07047 0.115308,0.128121 0.256241,0.128121 0.140932,0 0.25624,-0.05765 0.25624,-0.128121 0,-0.07047 0.08648,-0.12812 0.19218,-0.12812 0.105699,0 0.19218,0.05765 0.19218,0.12812 0,0.07047 0.144136,0.128121 0.320301,0.128121 0.176165,0 0.3203,-0.05765 0.3203,-0.128121 0,-0.07047 0.08648,-0.12812 0.19218,-0.12812 0.1057,0 0.192181,0.05765 0.192181,0.12812 0,0.07047 0.144135,0.128121 0.3203,0.128121 0.176165,0 0.320301,-0.05765 0.320301,-0.128121 0,-0.07047 0.08648,-0.12812 0.19218,-0.12812 0.105699,0 0.19218,0.05765 0.19218,0.12812 0,0.185662 0.480438,0.157639 0.549124,-0.03203 0.0464,-0.12812 0.112246,-0.12812 0.32924,0 0.326145,0.192568 0.659078,0.208748 0.659078,0.03203 0,-0.07047 0.08648,-0.12812 0.19218,-0.12812 0.105699,0 0.192181,0.05765 0.192181,0.12812 0,0.07047 0.115308,0.128121 0.25624,0.128121 0.140932,0 0.25624,-0.05765 0.25624,-0.128121 0,-0.07047 0.08648,-0.12812 0.19218,-0.12812 0.1057,0 0.192181,0.05765 0.192181,0.12812 0,0.07047 0.144135,0.128121 0.3203,0.128121 0.176165,0 0.3203,-0.05765 0.3203,-0.128121 0,-0.07047 0.08648,-0.12812 0.192181,-0.12812 0.105699,0 0.19218,0.05765 0.19218,0.12812 0,0.07047 0.144135,0.128121 0.3203,0.128121 0.176166,0 0.320301,-0.05765 0.320301,-0.128121 0,-0.07047 0.08648,-0.12812 0.19218,-0.12812 0.105699,0 0.19218,0.05765 0.19218,0.12812 0,0.07047 0.115308,0.128121 0.256241,0.128121 0.140932,0 0.25624,-0.05765 0.25624,-0.128121 0,-0.07047 0.08648,-0.12812 0.19218,-0.12812 0.106767,0 0.19218,0.113885 0.19218,0.256241 0,0.239157 0.08541,0.25624 1.281202,0.25624 0.704661,0 1.281202,0.04455 1.281202,0.09899 0,0.130384 1.231491,0.413493 1.798644,0.413493 0.307126,0 0.495679,-0.07974 0.605906,-0.25624 0.13689,-0.219197 0.298779,-0.256241 1.119839,-0.256241 0.874403,0 0.959817,-0.0228 0.959817,-0.25624 0,-0.142356 0.08541,-0.25624 0.19218,-0.25624 0.105699,0 0.19218,0.05765 0.19218,0.12812 0,0.185661 0.480438,0.157638 0.549124,-0.03203 0.0464,-0.12812 0.112246,-0.12812 0.32924,0 0.326145,0.192567 0.659078,0.208747 0.659078,0.03203 0,-0.07047 0.08648,-0.12812 0.19218,-0.12812 0.105699,0 0.19218,0.05765 0.19218,0.12812 0,0.07047 0.115309,0.12812 0.256241,0.12812 0.140932,0 0.25624,-0.05765 0.25624,-0.12812 0,-0.07047 0.08648,-0.12812 0.19218,-0.12812 0.1057,0 0.192181,0.05765 0.192181,0.12812 0,0.07047 0.05765,0.12812 0.12812,0.12812 0.07047,0 0.12812,-0.1352 0.12812,-0.300443 0,-0.355884 0.312417,-0.65779 0.800751,-0.773812 0.331324,-0.07872 0.35233,-0.125577 0.35233,-0.785928 0,-0.538782 0.04473,-0.70222 0.192181,-0.70222 0.105699,0 0.19218,0.07942 0.19218,0.176492 0,0.09707 0.08064,0.243415 0.179191,0.325208 0.187737,0.155809 0.334609,0.851789 0.374033,1.772433 l 0.02332,0.54451 h 0.582946 c 0.649011,0 0.890436,0.163266 0.890436,0.602165 0,0.211886 0.07397,0.294677 0.263269,0.294677 0.694434,0 1.914773,0.890392 1.914773,1.397069 0,0.0772 0.08944,0.140373 0.198763,0.140373 0.172828,0 0.191726,0.238222 0.144833,1.825712 -0.02966,1.004142 -0.09765,2.0186972 -0.151075,2.2545682 l -0.09714,0.428855 0.961723,-0.09012 c 1.196593,-0.11213 1.761543,-0.0058 1.761543,0.33161 0,0.135333 0.05765,0.24606 0.12812,0.24606 0.07047,0 0.12812,0.11328 0.12812,0.251733 0,0.312881 0.378206,0.528113 0.754902,0.429605 0.216726,-0.05668 0.274644,-0.153585 0.244924,-0.409813 -0.03463,-0.298577 -0.09191,-0.333973 -0.519375,-0.320971 -0.327516,0.01 -0.480451,-0.04102 -0.480451,-0.16015 0,-0.121714 0.17501,-0.174764 0.576541,-0.174764 h 0.576541 v 0.614977 c 0,0.338237 -0.06919,0.684161 -0.153744,0.768721 -0.186177,0.186176 -0.614977,0.204043 -0.614977,0.02562 0,-0.07047 -0.147965,-0.12812 -0.32881,-0.12812 -0.283118,0 -0.323177,0.04896 -0.288271,0.35233 l 0.04054,0.35233 3.875635,0.03391 c 2.190864,0.01917 3.875635,-0.01543 3.875635,-0.07958 0,-0.178077 1.278779,-0.308011 1.469944,-0.149358 0.09092,0.07546 1.010725,0.173714 2.044001,0.218342 l 1.878684,0.08114 -0.03782,0.716496 -0.03782,0.716496 -1.852456,0.03571 c -1.018852,0.01964 -1.884239,0.08714 -1.923086,0.149993 -0.114036,0.184515 -0.772724,0.311087 -0.772724,0.148486 0,-0.07811 -0.132604,-0.142009 -0.294676,-0.142009 -0.162072,0 -0.355582,-0.06091 -0.430022,-0.135345 -0.208031,-0.208031 -7.757009,-0.108391 -7.827433,0.103315 -0.03804,0.114351 -0.431893,0.16015 -1.377242,0.16015 h -1.323968 l -0.138758,0.647003 c -0.145082,0.676496 -0.463618,1.397979 -0.622457,1.409862 -0.05104,0.0038 -3.148465,0.0065 -6.883168,0.0059 -6.647669,-0.001 -9.034464,0.05843 -9.012882,0.22466 0.07493,0.577184 -0.01348,0.65938 -0.709308,0.65938 -0.581968,0 -0.700186,-0.04003 -0.756727,-0.256241 -0.04844,-0.185225 -0.174757,-0.25624 -0.455801,-0.25624 -0.497178,0 -0.577271,0.140233 -0.339966,0.595236 0.104891,0.201116 0.191066,0.581868 0.1915,0.846116 6.41e-4,0.384641 -0.04711,0.480451 -0.239436,0.480451 -0.169088,0 -0.264076,-0.123305 -0.320768,-0.416391 -0.103344,-0.534273 -0.442814,-1.174322 -0.711997,-1.34243 -0.115635,-0.07221 -0.444376,-0.170857 -0.730535,-0.219204 l -0.520289,-0.0879 -0.147414,0.734032 c -0.08108,0.403717 -0.149249,0.940617 -0.151489,1.193112 -0.0038,0.431437 -0.0154,0.444107 -0.192181,0.210385 -0.116668,-0.154249 -0.188851,-0.543504 -0.190067,-1.024961 -0.001,-0.426945 -0.05415,-0.858735 -0.11794,-0.959532 -0.07244,-0.114471 -0.412576,-0.204723 -0.906087,-0.24042 -0.775722,-0.05611 -0.787058,-0.05226 -0.622413,0.211375 0.14717,0.235658 0.130828,0.302876 -0.133509,0.549145 -0.246765,0.229896 -0.344207,0.253763 -0.539112,0.132042 -0.345753,-0.215922 -0.497621,-0.183063 -0.497621,0.107671 0,0.140932 0.07873,0.25624 0.174964,0.25624 0.125271,0 0.195089,0.263827 0.245813,0.928871 0.06729,0.882218 0.05462,0.941156 -0.252306,1.173442 -0.397442,0.300796 -0.816121,1.238241 -0.718959,1.609792 0.04854,0.185599 -0.03231,0.38607 -0.24976,0.619352 -0.477277,0.51202 -0.609074,0.83848 -0.609074,1.508676 0,0.521674 -0.06099,0.663285 -0.447239,1.038404 -0.460271,0.447008 -0.507009,0.564547 -0.644246,1.620145 l -0.08051,0.619293 -0.663173,-0.08711 c -0.89247,-0.117228 -2.696039,-0.659314 -3.143837,-0.944919 -0.449191,-0.286494 -0.356629,-2.680111 0.166407,-4.303276 0.296683,-0.920707 1.142749,-2.281928 1.80293,-2.900699 0.788543,-0.739082 0.909969,-1.483501 0.347373,-2.129628 -0.121224,-0.139222 -0.346476,-0.29293 -0.500559,-0.341575 -0.154583,-0.0488 -0.298149,-0.214939 -0.320301,-0.370658 -0.03824,-0.268806 -0.09797,-0.281892 -1.257289,-0.275473 -1.235222,0.0068 -1.415971,0.05838 -2.690524,0.76722 -0.699386,0.388963 -1.556993,1.264073 -2.046853,2.088631 -0.619967,1.043559 -0.705669,1.921903 -0.244704,2.507925 0.31181,0.396402 0.297715,0.428518 -0.234812,0.535023 -0.441373,0.08827 -0.646621,-0.07813 -1.353737,-1.09751 -0.209383,-0.301849 -0.219739,-0.101078 -0.219739,4.259995 0,4.464042 -0.0062,4.576774 -0.251733,4.576774 -0.138453,0 -0.313443,0.115308 -0.388868,0.25624 -0.142617,0.266483 -0.459644,0.346193 -0.533834,0.134222 -0.02479,-0.07084 -0.499478,-0.01347 -1.131728,0.136791 -0.598962,0.142344 -1.233156,0.292771 -1.409322,0.334281 -0.176165,0.04151 -0.390707,0.174704 -0.476759,0.295989 -0.175033,0.246693 -0.773143,0.406094 -0.879293,0.234339 z M 76.086655,14.060367 v -0.448421 h -0.704661 -0.704661 l -0.04016,0.487087 -0.04016,0.487086 0.744822,-0.03866 0.74482,-0.03867 z m 1.089021,0 c 0,-0.500279 -0.01067,-0.512481 -0.44842,-0.512481 -0.437744,0 -0.448421,0.0122 -0.448421,0.512481 0,0.500278 0.01067,0.51248 0.448421,0.51248 0.437744,0 0.44842,-0.0122 0.44842,-0.51248 z m -32.725313,-3.61952 c 0.0169,-1.2105742 0.169093,-1.8175432 0.564199,-2.2501292 0.518391,-0.567565 0.701776,-0.512156 0.381664,0.115317 l -0.2671,0.523557 0.296525,0.597495 0.296525,0.5974942 1.391113,0.07886 c 0.973601,0.05519 1.423815,0.131777 1.500076,0.25517 0.06214,0.100547 0.0562,0.229069 -0.01382,0.299093 -0.286178,0.286177 -0.117256,0.455897 0.453755,0.455897 h 0.576541 l -0.002,-0.48045 c -0.0024,-0.586351 -0.14365,-0.8351472 -0.415095,-0.7309832 -0.260639,0.1000162 -0.540109,-0.318449 -0.757111,-1.133665 -0.13782,-0.517753 -0.135279,-0.633122 0.016,-0.72662 0.244732,-0.151254 -0.03264,-1.098876 -0.375332,-1.282277 -0.156889,-0.08396 -2.917263,-0.130211 -7.771899,-0.130211 h -7.528596 l -0.482831,0.334603 c -0.265557,0.184031 -0.603665,0.58421 -0.75135,0.889287 -0.249537,0.515475 -0.25807,0.629939 -0.120713,1.61923 0.08129,0.5855002 0.198863,1.1942672 0.261267,1.3528152 l 0.113459,0.288271 6.312665,-1.26e-4 6.312665,-1.25e-4 0.0094,-0.672505 z m 7.589418,0.05763 c 0.03317,-0.460288 0.107046,-0.5930502 0.448421,-0.8059032 0.292179,-0.18218 0.518287,-0.230445 0.793064,-0.169288 0.211398,0.04705 1.36448,0.121437 2.562403,0.165303 2.133529,0.07813 2.178879,0.08565 2.218984,0.3680252 l 0.04094,0.28827 H 55.91664 53.729686 v 0.320301 c 0,0.176165 0.05765,0.320301 0.12812,0.320301 0.07047,0 0.128121,-0.05765 0.128121,-0.128121 0,-0.07047 0.201789,-0.12812 0.44842,-0.12812 0.327746,0 0.448421,0.05579 0.448421,0.20733 0,0.183044 0.194892,0.201257 1.663817,0.15549 0.994775,-0.03099 1.721888,-0.109912 1.808234,-0.196258 0.09567,-0.09567 0.128325,-0.614567 0.09674,-1.5373042 -0.0522,-1.525154 -0.163619,-1.787027 -1.033315,-2.428668 -0.385226,-0.284212 -0.512656,-0.300435 -2.359847,-0.300435 -1.073946,0 -2.090549,0.05244 -2.259117,0.116526 -0.24259,0.09223 -0.354973,0.299242 -0.539055,0.992932 -0.127913,0.482022 -0.275813,0.934059 -0.328668,1.004525 -0.05285,0.07047 -0.116717,0.238324 -0.141916,0.373018 -0.02727,0.14577 -0.227325,0.305751 -0.494238,0.395235 -0.435346,0.145953 -0.449547,0.171712 -0.487061,0.8834432 l -0.03864,0.733106 0.615181,-0.03932 0.615182,-0.03932 z"
   id="path146" /></svg>
