<?xml version="1.0" encoding="UTF-8" standalone="no"?>
<svg
   xmlns:dc="http://purl.org/dc/elements/1.1/"
   xmlns:cc="http://creativecommons.org/ns#"
   xmlns:rdf="http://www.w3.org/1999/02/22-rdf-syntax-ns#"
   xmlns:svg="http://www.w3.org/2000/svg"
   xmlns="http://www.w3.org/2000/svg"
   xmlns:sodipodi="http://sodipodi.sourceforge.net/DTD/sodipodi-0.dtd"
   xmlns:inkscape="http://www.inkscape.org/namespaces/inkscape"
   version="1.1"
   x="0px"
   y="0px"
   width="109.5px"
   height="32px"
   viewBox="0 0 109.5 32"
   enable-background="new 0 0 109.5 32"
   xml:space="preserve"
   id="svg122"
   sodipodi:docname="rytec.svg"
   inkscape:version="1.0.2-2 (e86c870879, 2021-01-15)"><metadata
   id="metadata128"><rdf:RDF><cc:Work
       rdf:about=""><dc:format>image/svg+xml</dc:format><dc:type
         rdf:resource="http://purl.org/dc/dcmitype/StillImage" /></cc:Work></rdf:RDF></metadata><defs
   id="defs126" /><sodipodi:namedview
   pagecolor="#ffffff"
   bordercolor="#666666"
   borderopacity="1"
   objecttolerance="10"
   gridtolerance="10"
   guidetolerance="10"
   inkscape:pageopacity="0"
   inkscape:pageshadow="2"
   inkscape:window-width="1842"
   inkscape:window-height="1051"
   id="namedview124"
   showgrid="false"
   inkscape:zoom="7.8459794"
   inkscape:cx="82.834731"
   inkscape:cy="40.044205"
   inkscape:window-x="-9"
   inkscape:window-y="-9"
   inkscape:window-maximized="1"
   inkscape:current-layer="svg122" />

<g
   id="guides">
</g>
<path
   style="fill:#ffffff;stroke-width:0.0840155"
   d="m 39.087936,29.818328 c -0.101838,-0.106934 -0.252668,-1.034819 -0.610334,-3.754695 -0.261287,-1.986964 -0.474933,-3.763888 -0.47477,-3.948722 1.68e-4,-0.184834 -0.02314,-0.477837 -0.05178,-0.651119 -0.04527,-0.27389 -0.08187,-0.315058 -0.280106,-0.315058 -0.125419,0 -0.289305,0.06771 -0.364195,0.150458 -0.182204,0.201333 -0.338702,0.964607 -0.288714,1.408108 0.04683,0.415462 -0.05423,0.661561 -0.187989,0.457802 -0.109433,-0.166703 -0.108663,-1.355873 0.001,-1.644481 0.106151,-0.2792 0.08957,-0.297922 -0.196187,-0.221499 -0.142828,0.0382 -0.281864,0.169959 -0.373846,0.354286 -0.126291,0.253079 -0.256303,0.338593 -0.944594,0.621298 l -0.798133,0.327828 -0.630116,-0.136189 c -0.346563,-0.0749 -0.932068,-0.20584 -1.301121,-0.290969 l -0.671005,-0.154781 -0.266229,0.318655 c -0.146427,0.17526 -0.36947,0.593454 -0.495654,0.929319 -0.126182,0.335865 -0.358199,0.944762 -0.515591,1.353104 -0.157392,0.408342 -0.308546,0.862026 -0.335895,1.008184 -0.02735,0.14616 -0.11846,0.341874 -0.202467,0.434923 -0.31264,0.346284 -0.419575,0.769916 -0.398886,1.580218 0.02091,0.818876 -0.0204,0.981104 -0.2498,0.981104 -0.229406,0 -2.200568,-0.679205 -2.200568,-0.758253 0,-0.06744 -0.872474,-0.361916 -1.345094,-0.453981 -0.316133,-0.06158 -0.535009,-0.487745 -0.467461,-0.910172 0.0381,-0.238276 0.02185,-0.362589 -0.05354,-0.409536 -0.08444,-0.05257 -0.08652,-0.102497 -0.0095,-0.226882 0.05434,-0.08771 0.141995,-0.325158 0.194805,-0.527659 0.125229,-0.480197 1.048373,-2.30163 1.356637,-2.676746 0.132064,-0.160707 0.240117,-0.323403 0.240117,-0.361549 0,-0.03815 0.211718,-0.331394 0.470485,-0.651665 0.690663,-0.85482 0.981304,-1.906892 0.683845,-2.475411 -0.149614,-0.28595 -0.590098,-0.721882 -0.902284,-0.892959 -0.173749,-0.09521 -1.247908,-0.110058 -6.217137,-0.08591 -3.303904,0.01605 -6.01212,0.03496 -6.018258,0.04201 -0.0061,0.007 -0.03205,0.901282 -0.05759,1.987181 -0.02554,1.085898 -0.04887,1.983813 -0.05185,1.995365 -0.003,0.01155 -0.117871,0.021 -0.25531,0.021 -0.191534,0 -0.279711,-0.05766 -0.37759,-0.246946 -0.191725,-0.370802 -0.446208,-0.509188 -0.936338,-0.509188 -0.23884,0 -2.111322,0.223455 -4.1610718,0.496568 -3.9031448,0.520063 -4.973974,0.64647 -5.2180887,0.615978 -0.1318475,-0.01647 -0.1470269,0.07261 -0.1470269,0.862805 v 0.881171 H 2.56078 c -1.0340647,0 -1.440465,-0.02844 -1.5010446,-0.105019 -0.050834,-0.06426 -0.10243294,-1.800375 -0.13296574,-4.473819 -0.027442,-2.402839 -0.092467,-4.856742 -0.1444994,-5.453118 -0.1613965,-1.849864 0.036366,-2.141257 1.50375434,-2.215713 0.5607713,-0.02845 0.8312731,-0.07649 0.8777543,-0.155874 0.04463,-0.07623 0.2319636,-0.114746 0.5579957,-0.114746 0.4536996,0 0.4948027,-0.01591 0.5436217,-0.210421 l 0.052812,-0.21042 8.9249377,0.02138 8.924936,0.02138 0.02685,0.189034 0.02685,0.189035 h 3.421662 3.421664 l 0.622352,-0.840153 0.622355,-0.840155 h 1.91523 c 1.646415,0 1.91523,0.01768 1.91523,0.126024 0,0.08402 0.08402,0.126023 0.252046,0.126023 0.168031,0 0.252045,-0.04201 0.252045,-0.126023 0,-0.100019 0.121355,-0.126024 0.588108,-0.126024 h 0.588107 V 9.0873748 8.0320338 l -0.399071,0.05355 c -0.219491,0.02945 -0.695054,0.127318 -1.056808,0.217478 -0.583115,0.145327 -0.950076,0.163398 -3.234591,0.15928 -1.417272,-0.0026 -2.907668,-0.02792 -3.311992,-0.05636 l -0.735132,-0.0517 v -1.836283 -1.836284 l 0.65112,-0.0092 c 0.358115,-0.0051 1.596292,-0.01456 2.751503,-0.021 l 2.100384,-0.01171 0.02527,-0.585785 c 0.01456,-0.337582 0.06796,-0.612921 0.126024,-0.649832 0.145922,-0.09276 2.093876,-0.07882 2.243146,0.01605 0.09637,0.06125 0.126024,0.253678 0.126024,0.817863 v 0.737766 l 0.346422,0.02531 c 0.400828,0.02929 0.523245,-0.128533 0.332594,-0.428788 -0.18078,-0.284708 -0.128911,-0.599326 0.104253,-0.63236 0.14029,-0.01987 0.208005,0.02147 0.240841,0.147027 0.06264,0.239553 0.446159,0.245267 0.446159,0.0066 0,-0.114524 0.05601,-0.168031 0.175896,-0.168031 0.10524,0 0.193547,0.0675 0.219837,0.168031 0.03113,0.119021 0.114599,0.168031 0.286188,0.168031 0.186237,0 0.242248,-0.03885 0.242248,-0.168031 0,-0.228914 0.335871,-0.228914 0.395734,0 0.06115,0.23385 0.444419,0.23385 0.444419,0 0,-0.123222 0.05601,-0.168031 0.210039,-0.168031 0.154028,0 0.210038,0.0448 0.210038,0.168031 0,0.236691 0.417853,0.236691 0.479749,0 0.02432,-0.09299 0.114599,-0.168031 0.202173,-0.168031 0.128059,0 0.158232,0.06281 0.158232,0.329387 0,0.299155 -0.02313,0.333854 -0.252046,0.378069 l -0.504092,0.09737 c -0.138918,0.02683 -0.252046,0.102251 -0.252046,0.168031 0,0.09369 0.152436,0.119347 0.709171,0.119347 0.390046,0 0.732539,-0.0378 0.761098,-0.08402 0.02856,-0.04621 0.145511,-0.08402 0.259897,-0.08402 0.198034,0 0.205954,-0.01907 0.165693,-0.399072 -0.1481,-1.397858 -0.147439,-1.434844 0.02735,-1.528389 0.09211,-0.04929 0.646884,-0.08891 1.245154,-0.08891 1.31999,0 1.484334,0.07148 1.41795,0.616686 -0.02341,0.19222 -0.06489,0.585784 -0.0922,0.874587 -0.04886,0.516855 -0.04636,0.525096 0.159607,0.525096 0.115088,0 0.232617,0.0378 0.261176,0.08402 0.02861,0.0463 0.40395,0.08402 0.836123,0.08402 0.619563,0 0.794352,-0.02645 0.83256,-0.126023 0.07192,-0.187416 2.639823,-0.187416 2.711742,0 0.08416,0.219305 0.873782,0.146524 4.06312,-0.374503 0.828136,-0.135289 1.436568,-0.171568 2.877527,-0.171581 l 1.827334,-1.7e-5 -0.0011,1.995366 c -6.59e-4,1.09745 -0.02394,2.080431 -0.05181,2.1844 -0.05047,0.188333 -0.05709,0.18903 -1.784179,0.188017 -1.566075,-9.23e-4 -1.916123,-0.02958 -3.623871,-0.29677 -1.039689,-0.162664 -2.202252,-0.31905 -2.583471,-0.347524 l -0.693127,-0.05177 v 1.062671 1.0626712 h 1.724951 c 1.455787,0 1.732499,0.01966 1.773312,0.126023 0.0266,0.06931 0.138832,0.126023 0.24941,0.126023 0.1227,0 0.201049,-0.04911 0.201049,-0.126023 0,-0.190026 4.746338,-0.190026 4.819259,0 0.06423,0.16739 0.473709,0.16739 0.473709,0 0,-0.105797 0.182034,-0.126023 1.134208,-0.126023 0.952174,0 1.134207,0.02022 1.134207,0.126023 0,0.07841 0.07934,0.126023 0.210039,0.126023 0.130691,0 0.210037,-0.0476 0.210037,-0.126023 0,-0.105558 0.177366,-0.126023 1.092201,-0.126023 0.914834,0 1.092199,0.02047 1.092199,0.126023 0,0.08402 0.08402,0.126023 0.252047,0.126023 0.16803,0 0.252046,-0.04201 0.252046,-0.126023 0,-0.105558 0.177365,-0.126023 1.092199,-0.126023 0.914835,0 1.092201,0.02047 1.092201,0.126023 0,0.08402 0.08402,0.126023 0.252045,0.126023 0.168032,0 0.252047,-0.04201 0.252047,-0.126023 0,-0.105558 0.177365,-0.126023 1.0922,-0.126023 0.914834,0 1.092199,0.02047 1.092199,0.126023 0,0.07841 0.07935,0.126023 0.210038,0.126023 0.130691,0 0.210039,-0.0476 0.210039,-0.126023 0,-0.109123 0.326726,-0.126023 2.436447,-0.126023 2.109724,0 2.436448,0.0169 2.436448,0.126023 0,0.08402 0.08402,0.126023 0.252046,0.126023 0.168032,0 0.252044,-0.04201 0.252044,-0.126023 0,-0.109123 0.326731,-0.126023 2.436446,-0.126023 2.109721,0 2.436445,0.0169 2.436445,0.126023 0,0.07841 0.07936,0.126023 0.210042,0.126023 0.13069,0 0.210036,-0.0476 0.210036,-0.126023 0,-0.105558 0.177366,-0.126023 1.0922,-0.126023 0.914833,0 1.092199,0.02047 1.092199,0.126023 0,0.08402 0.08402,0.126023 0.252046,0.126023 0.168032,0 0.252045,-0.04201 0.252045,-0.126023 0,-0.103022 0.143168,-0.126023 0.784374,-0.126023 h 0.784369 l 0.145475,0.525096 c 0.08001,0.288803 0.254306,0.751938 0.387329,1.029188 0.13303,0.277251 0.298676,0.645868 0.368108,0.81915 l 0.126253,0.315058 h 5.918381 c 5.18328,0 5.924386,-0.01566 5.966738,-0.126023 0.04001,-0.104287 0.266185,-0.126024 1.311228,-0.126024 h 1.262868 v -0.420076 c 0,-0.389472 0.01497,-0.420077 0.205276,-0.420077 0.112899,0 0.259844,0.07791 0.32654,0.173134 0.110235,0.157384 0.234867,0.177623 1.370005,0.222481 1.03762,0.04101 1.28262,0.07566 1.44911,0.204935 0.18796,0.145954 0.42537,0.155588 3.83404,0.155588 h 3.63368 l 0.13568,0.207083 c 0.19919,0.303998 0.19919,2.810482 0,3.114479 l -0.13568,0.207083 -3.624,0.003 c -2.98343,0.0024 -3.66113,0.0242 -3.83405,0.123046 -0.14515,0.08298 -0.48902,0.120988 -1.11319,0.123045 -0.544119,0.0018 -0.903166,0.03637 -0.903166,0.087 0,0.04621 -0.167583,0.08402 -0.372405,0.08402 -0.298622,0 -0.382978,0.03329 -0.425739,0.168031 -0.06461,0.203594 -0.42077,0.228868 -0.495106,0.03513 -0.02808,-0.0731 -0.05102,-0.283312 -0.05102,-0.467156 0,-0.333989 0,-0.334241 -0.310001,-0.308187 -0.265973,0.02237 -0.334634,0.0738 -0.483543,0.362137 l -0.173543,0.336062 -0.679743,0.02419 c -0.788574,0.02807 -0.87076,-0.02565 -0.936897,-0.612346 l -0.04259,-0.378019 h -5.366065 c -3.383823,0 -5.366052,0.02988 -5.366052,0.08091 0,0.0445 0.07562,0.272738 0.168033,0.507202 0.09241,0.234464 0.168032,0.443801 0.168032,0.465195 0,0.0214 -2.816616,0.0389 -6.259146,0.0389 h -6.25917 l -0.0013,0.231043 c -0.002,0.386548 -0.09389,0.609111 -0.251709,0.609111 -0.08208,0 -0.171005,-0.05671 -0.197604,-0.126024 -0.0642,-0.167389 -0.473715,-0.167389 -0.473715,0 0,0.07066 -0.07496,0.126024 -0.170661,0.126024 -0.09387,0 -0.192436,-0.05671 -0.219027,-0.126024 -0.06513,-0.169726 -0.534482,-0.169726 -0.534482,0 0,0.164469 -0.326579,0.164469 -0.389696,0 -0.02663,-0.06931 -0.134783,-0.126023 -0.240416,-0.126023 -0.105636,0 -0.213825,0.05671 -0.240424,0.126023 -0.0266,0.06931 -0.125158,0.126024 -0.219027,0.126024 -0.09569,0 -0.170668,-0.05537 -0.170668,-0.126024 0,-0.169726 -0.469343,-0.169726 -0.534474,0 -0.0266,0.06931 -0.106255,0.126024 -0.177019,0.126024 -0.07077,0 -0.128664,-0.05671 -0.128664,-0.126024 0,-0.169726 -0.469344,-0.169726 -0.534474,0 -0.0266,0.06931 -0.12516,0.126024 -0.219028,0.126024 -0.09569,0 -0.170666,-0.05537 -0.170666,-0.126024 0,-0.167389 -0.409478,-0.167389 -0.473711,0 -0.06384,0.166375 -0.334769,0.161715 -0.399462,-0.0069 -0.02805,-0.07309 -0.051,-0.262126 -0.051,-0.420075 v -0.287182 h -5.049818 -5.049818 l 0.0519,0.693127 c 0.07637,1.019949 0.06845,1.15639 -0.08031,1.383427 -0.18125,0.276622 -0.241409,0.195262 -0.08185,-0.110697 0.135612,-0.26004 0.16868,-0.58898 0.06503,-0.646918 -0.03466,-0.01937 -0.422178,0.0068 -0.861158,0.05822 l -0.798145,0.09344 0.02153,0.293889 c 0.01598,0.218126 6.5e-5,0.261401 -0.06173,0.167865 -0.04578,-0.06931 -0.08383,-0.196316 -0.08454,-0.282232 -0.0012,-0.141443 -0.05887,-0.152488 -0.610397,-0.116834 -0.335012,0.02165 -1.128957,0.107789 -1.764322,0.191404 l -1.155212,0.15203 v 0.365957 c 0,0.315526 -0.0297,0.37725 -0.215508,0.447894 -0.118529,0.04506 -0.307564,0.08193 -0.420077,0.08193 -0.136068,0 -0.204569,0.04756 -0.204569,0.142016 0,0.07811 0.192919,1.609705 0.428709,3.40355 0.23579,1.793845 0.408124,3.315182 0.382964,3.380749 -0.02601,0.06777 -0.220072,0.142776 -0.449714,0.173816 -0.44591,0.06027 -1.161943,0.257292 -1.392147,0.383056 -0.279431,0.152658 -0.881955,0.329931 -1.555932,0.457782 -0.371108,0.0704 -1.027997,0.236242 -1.459753,0.368544 -2.413894,0.739676 -2.803128,0.866927 -2.842345,0.929237 -0.02368,0.03762 -0.421119,0.163741 -0.883203,0.280274 -2.100436,0.529709 -2.552443,0.65066 -3.024554,0.809339 -0.597321,0.200761 -0.553921,0.199469 -0.723373,0.02154 z M 35.04623,22.12693 c 0.217954,-0.108912 0.50274,-0.223677 0.632859,-0.255036 0.350985,-0.08459 0.477552,-0.470982 0.477552,-1.457906 0,-1.149571 -0.04022,-1.197608 -1.002755,-1.197608 h -0.741182 l -0.109383,0.264072 c -0.140412,0.338987 -0.110284,1.598888 0.04725,1.975926 0.08886,0.212672 0.0924,0.280464 0.01468,0.280464 -0.152307,0 -0.705705,-1.238393 -0.769647,-1.722316 -0.108856,-0.823856 -0.08842,-0.798146 -0.634661,-0.798146 -0.733248,0 -0.753031,0.03754 -0.753031,1.429305 0,0.796448 0.03098,1.184407 0.09791,1.225767 0.187671,0.115986 1.627049,0.44006 1.984264,0.446754 0.221518,0.0041 0.5122,-0.06938 0.756138,-0.191276 z M 7.0033072,21.230651 c 0.6238142,-0.04714 1.2003696,-0.106305 1.2812344,-0.131481 0.1183599,-0.03685 0.1470269,-0.142958 0.1470269,-0.544205 0,-0.274137 -0.032714,-0.498431 -0.072699,-0.498431 -0.1974846,0 -2.5163946,0.335433 -2.6358765,0.381282 -0.1604203,0.06156 -0.2684605,0.463566 -0.1905532,0.709031 0.062754,0.197721 0.00605,0.194491 1.4708681,0.0838 z m 4.1428498,-0.507009 c 1.071546,-0.141384 2.03333,-0.291801 2.137299,-0.33426 0.143818,-0.05873 0.189036,-0.145507 0.189036,-0.362767 0,-0.471959 -0.109293,-0.505483 -1.27959,-0.392486 -0.566958,0.05474 -1.522324,0.162726 -2.123033,0.239964 -1.0396288,0.133673 -1.0935625,0.150063 -1.1204902,0.340473 -0.040278,0.284815 0.062259,0.766137 0.1632133,0.766137 0.046916,0 0.9620199,-0.115677 2.0335649,-0.257061 z M 9.7668566,18.88539 c 2.9672364,-0.398741 4.3399424,-0.615109 4.3885164,-0.691726 0.03888,-0.06132 0.07126,-0.423399 0.07197,-0.804617 l 0.0013,-0.693128 H 9.7758146 5.3229999 v 1.386254 c 0,0.76244 0.028356,1.385623 0.063011,1.384853 0.034657,-7.26e-4 2.0060367,-0.262507 4.3808457,-0.581636 z m 9.2857854,-1.148267 c 0.15899,-0.06101 0.181271,-0.539145 0.03208,-0.688339 -0.142826,-0.142826 -3.688274,-0.142826 -3.8311,0 -0.132829,0.132829 -0.129777,0.629632 0.0042,0.683694 0.151497,0.06113 3.636509,0.0654 3.794824,0.0046 z m 83.735848,-2.28043 c 0.004,-0.03466 0.0136,-0.570711 0.021,-1.191232 0.01,-0.837705 -0.0152,-1.156805 -0.0977,-1.239227 -0.16174,-0.161714 -1.1861,-0.147253 -1.42505,0.02012 -0.32252,0.225903 -0.4383,0.565723 -0.4383,1.28652 0,0.598065 0.0234,0.697551 0.21751,0.928341 0.21292,0.253036 0.23331,0.258492 0.96618,0.258492 0.41177,0 0.75211,-0.02836 0.75633,-0.06301 z m 2.72951,-1.155211 c 0.004,-0.646919 -0.0293,-1.223474 -0.0733,-1.281235 -0.0503,-0.06612 -0.29444,-0.10502 -0.65901,-0.10502 -0.54099,0 -0.59948,0.01871 -0.8896,0.284592 -0.29271,0.268241 -0.31248,0.318851 -0.34424,0.880949 -0.0396,0.700482 0.003,0.91173 0.24384,1.218287 0.17347,0.220544 0.19931,0.226075 0.94699,0.202686 l 0.76866,-0.02405 0.007,-1.176215 z m 2.68538,1.128459 c 0.0306,-0.04937 0.0549,-0.602784 0.0542,-1.229809 -9.3e-4,-0.858492 -0.029,-1.157615 -0.11352,-1.211188 -0.0617,-0.03913 -0.36234,-0.07172 -0.66801,-0.07243 -0.63747,-0.0015 -0.93728,0.167681 -1.13472,0.640237 -0.23486,0.562075 -0.08,1.585839 0.28102,1.857934 0.17385,0.13102 1.50159,0.14383 1.58105,0.01525 z M 81.188878,11.360944 v -0.210039 h -1.6383 -1.638293 v 0.210039 0.210038 h 1.638293 1.6383 z M 45.0074,9.3132838 c 0.104531,-0.08678 0.138886,-0.258236 0.138886,-0.693127 v -0.57782 h -0.717087 c -0.517329,0 -0.774525,0.03764 -0.923274,0.135098 -0.1756,0.115058 -0.442507,0.130634 -1.799197,0.104997 -1.127309,-0.02131 -1.623704,-0.06079 -1.698005,-0.1351 -0.06603,-0.06603 -0.348158,-0.104995 -0.760317,-0.104995 h -0.65532 l 0.0013,0.525096 c 0.0015,0.593251 0.04344,0.693678 0.337147,0.806611 0.119053,0.04577 1.430043,0.07445 3.07233,0.06719 2.290284,-0.01012 2.892512,-0.03578 3.003549,-0.127958 z"
   id="path204" /><path
   style="fill:#ffffff;stroke-width:0.0105019"
   d="m 55.897675,19.261072 c 0,-0.05849 -3.71e-4,-0.05862 -0.169154,-0.05862 h -0.156406 v -0.03628 c 0,-0.03304 -0.0033,-0.03689 -0.03617,-0.04306 -0.03113,-0.0059 -0.03662,-0.01139 -0.03938,-0.03986 l -0.0033,-0.03307 -0.07439,-0.003 -0.0744,-0.003 -0.0096,-0.03896 c -0.0083,-0.03368 -0.01417,-0.0394 -0.04314,-0.0422 -0.02918,-0.0028 -0.03393,-0.0076 -0.03676,-0.03676 -0.003,-0.03045 -0.0068,-0.03381 -0.04263,-0.03677 l -0.03938,-0.0033 v -0.07813 -0.07813 h -0.03676 c -0.03177,0 -0.03676,-0.0035 -0.03676,-0.02514 0,-0.01382 0.0071,-0.02785 0.01576,-0.03117 0.0123,-0.0048 0.01575,-0.02569 0.01575,-0.09564 0,-0.08857 3.02e-4,-0.08959 0.02626,-0.08959 h 0.02626 v 0.115521 0.11552 h 0.03612 c 0.03416,0 0.0363,0.0021 0.03938,0.03938 0.0031,0.03724 0.0054,0.03956 0.04264,0.04264 0.03713,0.0031 0.03938,0.0052 0.03938,0.03891 0,0.03231 0.0034,0.03628 0.03617,0.04243 0.03114,0.0059 0.03662,0.01139 0.03938,0.03986 0.0029,0.02985 0.007,0.03339 0.042,0.03629 0.03644,0.003 0.03898,0.0055 0.04201,0.04201 l 0.0033,0.03879 0.07614,0.0031 0.07614,0.0031 v 0.03629 0.03629 h 0.313933 c 0.337758,0 0.326683,0.0018 0.326683,-0.05337 0,-0.01759 0.0078,-0.02014 0.06216,-0.02014 0.08422,0 0.09538,-0.0057 0.09538,-0.04839 0,-0.03372 0.002,-0.03564 0.03676,-0.03564 0.03501,0 0.03676,-0.0018 0.03676,-0.03676 0,-0.02233 0.0051,-0.03681 0.01312,-0.0369 0.0072,-7.8e-5 0.02343,-0.0029 0.03601,-0.0063 0.0197,-0.0052 0.02335,-0.0014 0.02626,0.02821 0.0044,0.04472 0.01951,0.04837 0.05981,0.01447 l 0.03283,-0.02762 v 0.03244 c 0,0.02732 -0.004,0.03244 -0.0254,0.03244 -0.0456,0 -0.05862,0.01074 -0.05862,0.04839 0,0.03372 -0.002,0.03564 -0.03676,0.03564 -0.03501,0 -0.03676,0.0018 -0.03676,0.03676 v 0.03676 h -0.05708 c -0.08262,0 -0.110954,0.01327 -0.110954,0.05197 v 0.03148 l -0.154903,0.0029 -0.154903,0.0029 -0.0033,0.03938 -0.0033,0.03938 h -0.07813 c -0.07564,0 -0.07813,-7.92e-4 -0.07813,-0.0254 z"
   id="path206" /></svg>
