<?xml version="1.0" encoding="UTF-8" standalone="no"?>
<svg
   version="1.1"
   x="0px"
   y="0px"
   width="96.583px"
   height="32px"
   viewBox="0 0 96.583 32"
   enable-background="new 0 0 96.583 32"
   xml:space="preserve"
   id="svg137"
   sodipodi:docname="revolver_akimbo.svg"
   inkscape:version="1.2.1 (9c6d41e410, 2022-07-14)"
   xmlns:inkscape="http://www.inkscape.org/namespaces/inkscape"
   xmlns:sodipodi="http://sodipodi.sourceforge.net/DTD/sodipodi-0.dtd"
   xmlns="http://www.w3.org/2000/svg"
   xmlns:svg="http://www.w3.org/2000/svg"
   xmlns:rdf="http://www.w3.org/1999/02/22-rdf-syntax-ns#"
   xmlns:cc="http://creativecommons.org/ns#"
   xmlns:dc="http://purl.org/dc/elements/1.1/"><metadata
   id="metadata143"><rdf:RDF><cc:Work
       rdf:about=""><dc:format>image/svg+xml</dc:format><dc:type
         rdf:resource="http://purl.org/dc/dcmitype/StillImage" /></cc:Work></rdf:RDF></metadata><defs
   id="defs141" /><sodipodi:namedview
   pagecolor="#ffffff"
   bordercolor="#666666"
   borderopacity="1"
   objecttolerance="10"
   gridtolerance="10"
   guidetolerance="10"
   inkscape:pageopacity="0"
   inkscape:pageshadow="2"
   inkscape:window-width="1920"
   inkscape:window-height="1017"
   id="namedview139"
   showgrid="false"
   inkscape:zoom="6.289927"
   inkscape:cx="18.760154"
   inkscape:cy="-8.903124"
   inkscape:window-x="-8"
   inkscape:window-y="-8"
   inkscape:window-maximized="1"
   inkscape:current-layer="svg137"
   inkscape:showpageshadow="2"
   inkscape:pagecheckerboard="0"
   inkscape:deskcolor="#d1d1d1" />

<g
   id="guides">
</g>
<path
   style="fill:#ffffff;stroke-width:0.039227"
   d="m 41.132021,29.453398 c -0.157653,-0.0031 -0.772076,-0.028 -1.365389,-0.05545 -0.593311,-0.02745 -1.334704,-0.08568 -1.64754,-0.129383 -0.312838,-0.04371 -0.692361,-0.106037 -0.843385,-0.138502 -0.151024,-0.03247 -0.349807,-0.08577 -0.441737,-0.11846 -0.09193,-0.03268 -0.250801,-0.116113 -0.353044,-0.185389 -0.102243,-0.06927 -0.256508,-0.188108 -0.342807,-0.264064 -0.0863,-0.07596 -0.211593,-0.218579 -0.278428,-0.316936 -0.06684,-0.09835 -0.144395,-0.248562 -0.172353,-0.33379 -0.02796,-0.08523 -0.0477,-0.259448 -0.04386,-0.387156 0.0038,-0.127707 0.06036,-0.490455 0.125619,-0.806105 0.06578,-0.318185 0.251082,-0.975926 0.41586,-1.476134 0.163466,-0.496224 0.424974,-1.237618 0.58113,-1.647542 0.156155,-0.409924 0.331604,-0.860056 0.389885,-1.000293 0.05829,-0.140237 0.187558,-0.431499 0.287275,-0.647249 0.09972,-0.215749 0.312146,-0.639403 0.472064,-0.941452 0.159917,-0.302048 0.39815,-0.725702 0.529405,-0.941452 0.131255,-0.215749 0.479328,-0.762968 0.773496,-1.216042 0.294169,-0.453074 0.61076,-0.954264 0.703539,-1.113755 0.09277,-0.159492 0.218584,-0.400024 0.279565,-0.534516 0.06098,-0.134492 0.164036,-0.423473 0.229009,-0.642178 0.06497,-0.218706 0.135409,-0.566526 0.156525,-0.772931 0.02112,-0.206405 0.0592,-0.400347 0.08462,-0.430981 0.02542,-0.03063 0.101698,-0.0557 0.169497,-0.0557 h 0.123274 l 0.324944,-0.977459 c 0.178718,-0.537603 0.34615,-0.994724 0.37207,-1.015827 0.02592,-0.0211 0.303084,-0.07804 0.61592,-0.126514 0.312838,-0.04849 0.662689,-0.0853 0.777448,-0.08182 0.195493,0.006 0.216527,-0.0029 0.333431,-0.139366 0.06863,-0.08013 0.204212,-0.232965 0.301298,-0.339627 0.09709,-0.106667 0.265732,-0.26007 0.374764,-0.340908 0.109031,-0.08084 0.30623,-0.201491 0.43822,-0.268118 0.13199,-0.06663 0.367331,-0.156434 0.522979,-0.199566 0.155649,-0.04313 0.322564,-0.104348 0.370926,-0.136035 0.04836,-0.03169 0.09895,-0.101527 0.112422,-0.15521 0.01348,-0.05368 0.0084,-0.138541 -0.01126,-0.188582 -0.01968,-0.05004 -0.134513,-0.209751 -0.255196,-0.354912 -0.120688,-0.145158 -0.329686,-0.351842 -0.464442,-0.459295 -0.134758,-0.107452 -0.368579,-0.255958 -0.519605,-0.330009 -0.151024,-0.07405 -0.362851,-0.164545 -0.470724,-0.2010928 -0.107876,-0.03655 -0.325669,-0.09143 -0.483986,-0.121957 -0.158316,-0.03053 -0.358869,-0.05551 -0.44567,-0.05551 h -0.157823 l 0.02749,-0.147102 c 0.01511,-0.0809 0.04727,-0.171024 0.07143,-0.200262 0.03455,-0.0418 0.132294,-0.0475 0.457409,-0.02669 0.227405,0.01457 0.722379,0.05086 1.09994,0.08067 0.395405,0.03121 0.761322,0.081 0.862998,0.117435 0.09709,0.03479 0.326566,0.07298 0.509955,0.08488 0.235593,0.01527 0.400424,0.004 0.561748,-0.03872 0.169903,-0.0449 0.257843,-0.05005 0.343727,-0.0201 0.06348,0.02213 0.140805,0.03049 0.171839,0.01857 0.03892,-0.01494 0.06006,-0.09833 0.06815,-0.26879 l 0.01173,-0.247141 0.254977,-0.019611 0.254976,-0.019611 -0.01004,-0.5491792 c -0.0056,-0.3020503 -9.58e-4,-0.5881578 0.01015,-0.6357963 0.01931,-0.082792 0.03749,-0.086308 0.41214,-0.079821 l 0.391938,0.00684 v 0.2221275 c 0,0.1221718 0.02672,0.286068 0.05937,0.3642136 0.03265,0.078143 0.06354,0.1454289 0.06864,0.1495145 0.0051,0.00406 0.379977,0.023928 0.833052,0.044105 0.456876,0.020337 4.912008,0.036411 10.002929,0.03609 l 9.179156,-6.436e-4 1.225755,-0.1415805 c 0.674166,-0.077866 1.365546,-0.1415805 1.5364,-0.1415805 0.186663,0 0.316249,-0.016832 0.324695,-0.042171 0.0077,-0.023191 0.373681,-0.1467563 0.813221,-0.274589 0.494816,-0.1439093 0.872638,-0.2324234 0.992088,-0.2324234 0.106101,0 0.231475,0.02053 0.2786,0.045633 0.04713,0.025104 0.106699,0.073644 0.132376,0.1078759 0.02568,0.034231 0.05856,0.1328481 0.07309,0.219149 0.0145,0.086298 0.03995,0.1745596 0.05651,0.1961346 0.01658,0.021577 0.07564,0.1758965 0.131257,0.3429367 0.05563,0.1670403 0.123857,0.4141711 0.151633,0.5491817 0.03485,0.16943 0.08008,0.271041 0.146005,0.328016 0.07183,0.06208 0.102648,0.139894 0.124314,0.313817 0.01585,0.1271988 0.02972,0.4872288 0.03083,0.8000648 0.0011,0.312837 -0.01356,0.689857 -0.03264,0.837819 -0.02582,0.200355 -0.05931,0.295475 -0.131243,0.372657 -0.08104,0.08696 -0.100725,0.15753 -0.122342,0.438668 -0.01417,0.18427 -0.05947,0.499563 -0.100671,0.700656 -0.0412,0.201091 -0.08618,0.376892 -0.09996,0.390668 -0.01378,0.01378 -3.448107,0.02959 -7.631852,0.03515 l -7.606803,0.01015 -1.6e-4,0.166422 c -1.47e-4,0.09153 -0.182515,1.049033 -0.405278,2.127778 l -0.405023,1.961359 -1.173625,0.02341 c -0.645494,0.01288 -1.240627,0.0421 -1.322519,0.06492 -0.0819,0.02283 -0.242694,0.0874 -0.35734,0.143489 -0.114646,0.05608 -0.296435,0.195019 -0.403976,0.308729 -0.124902,0.132065 -0.227836,0.291405 -0.284959,0.441117 -0.05908,0.154827 -0.107045,0.414105 -0.14134,0.763939 -0.02855,0.291262 -0.08989,0.653133 -0.136309,0.804158 -0.04642,0.151024 -0.144378,0.389329 -0.217687,0.529566 -0.07331,0.140237 -0.212651,0.35598 -0.309652,0.479428 -0.09701,0.123448 -0.293396,0.320985 -0.436434,0.438968 -0.143037,0.117985 -0.379267,0.277154 -0.524955,0.353711 -0.145685,0.07656 -0.377419,0.177346 -0.51496,0.223977 -0.224634,0.07616 -0.354932,0.08652 -1.280662,0.101879 -0.849485,0.0141 -1.086325,0.0058 -1.347784,-0.04717 -0.174458,-0.03535 -0.443262,-0.119869 -0.597342,-0.187819 -0.154079,-0.06795 -0.403711,-0.21446 -0.554735,-0.325576 -0.151025,-0.111115 -0.308217,-0.239942 -0.349317,-0.286283 -0.0411,-0.04634 -0.10453,-0.08426 -0.140961,-0.08426 -0.03643,0 -0.170497,-0.03686 -0.29793,-0.0819 -0.127435,-0.04505 -0.337612,-0.09605 -0.467062,-0.113344 -0.158362,-0.02115 -0.341289,-0.01353 -0.559144,0.02329 -0.17808,0.03011 -0.442863,0.102222 -0.588408,0.160267 -0.214647,0.0856 -0.324392,0.165204 -0.581072,0.421464 -0.218298,0.21794 -0.355262,0.395011 -0.441596,0.570905 -0.06883,0.140237 -0.153232,0.387368 -0.187558,0.54918 -0.0449,0.211652 -0.05568,0.394921 -0.03842,0.653142 0.01343,0.201045 0.0074,0.402737 -0.01387,0.458507 -0.02082,0.05476 -0.131378,0.159527 -0.245687,0.232813 -0.114307,0.07328 -0.309964,0.226765 -0.434792,0.341066 -0.169786,0.155466 -0.265484,0.288031 -0.379874,0.526222 -0.0841,0.175122 -0.180554,0.454463 -0.214342,0.62076 -0.03379,0.166296 -0.06143,0.412614 -0.06143,0.547373 0,0.134759 0.02111,0.434801 0.04689,0.666759 0.04435,0.39889 0.04276,0.426324 -0.02942,0.506243 -0.04198,0.04648 -0.173404,0.13502 -0.292066,0.196768 -0.118661,0.06175 -0.262693,0.15468 -0.320069,0.20652 -0.05738,0.05184 -0.181451,0.19903 -0.275724,0.327091 -0.09661,0.131237 -0.213703,0.358567 -0.268338,0.520973 -0.05408,0.160745 -0.143659,0.335174 -0.202618,0.394528 -0.05813,0.05851 -0.185095,0.126389 -0.282153,0.150828 -0.09706,0.02444 -0.30546,0.04195 -0.463112,0.03889 z m 9.351508,-7.450716 c 0.468194,0.0017 0.944803,-0.01588 1.059133,-0.03908 0.11433,-0.0232 0.326173,-0.0862 0.470759,-0.14 0.144588,-0.0538 0.365241,-0.164202 0.490339,-0.245337 0.1251,-0.08114 0.319931,-0.243866 0.432957,-0.361626 0.113026,-0.117761 0.255526,-0.284054 0.316665,-0.36954 0.06114,-0.08549 0.156136,-0.261641 0.211103,-0.391457 0.05496,-0.129814 0.12214,-0.367638 0.149272,-0.528495 0.02845,-0.168631 0.03932,-0.409189 0.02567,-0.56813 -0.01301,-0.151614 -0.06382,-0.376775 -0.112893,-0.500358 -0.04907,-0.123583 -0.193419,-0.349122 -0.320766,-0.501197 -0.127348,-0.152077 -0.315358,-0.33803 -0.417803,-0.41323 -0.102445,-0.07521 -0.271859,-0.176228 -0.376479,-0.224505 -0.179566,-0.08286 -0.247353,-0.08829 -1.210127,-0.0969 -0.560949,-0.005 -1.055212,-0.01384 -1.098362,-0.01961 -0.04825,-0.0064 -0.07845,0.01216 -0.07845,0.04835 0,0.04883 0.08939,0.06071 0.525226,0.06983 l 0.525224,0.01099 -0.02458,0.235171 c -0.01352,0.129343 -0.05092,0.286105 -0.08311,0.348359 -0.03219,0.06225 -0.154026,0.246289 -0.27074,0.408966 -0.116714,0.162676 -0.241232,0.380494 -0.276707,0.48404 -0.03547,0.103546 -0.07432,0.285354 -0.08631,0.404016 -0.012,0.118662 -0.0035,0.32602 0.01872,0.460795 0.02229,0.134776 0.06737,0.293646 0.100159,0.353045 0.0328,0.0594 0.0865,0.160955 0.119357,0.22568 0.03285,0.06472 0.09969,0.163917 0.148515,0.220428 0.04883,0.05651 0.194698,0.173727 0.324149,0.260479 0.12945,0.08676 0.341276,0.188409 0.470725,0.225903 0.12945,0.03749 0.257428,0.07418 0.284398,0.08153 0.02697,0.0074 0.04903,0.05804 0.04903,0.112657 0,0.08878 -0.01575,0.0993 -0.148667,0.0993 -0.08177,0 -0.24891,-0.02611 -0.371429,-0.05802 -0.122522,-0.03191 -0.315582,-0.106935 -0.429026,-0.166716 -0.113443,-0.05978 -0.321408,-0.22378 -0.462147,-0.364443 -0.169852,-0.169761 -0.310507,-0.361001 -0.418341,-0.568793 -0.08935,-0.172175 -0.190852,-0.428912 -0.225556,-0.570528 -0.03808,-0.155367 -0.06311,-0.424501 -0.06311,-0.678616 0,-0.291016 -0.01756,-0.455093 -0.05683,-0.531042 -0.03126,-0.06045 -0.09803,-0.136899 -0.148373,-0.169886 -0.05035,-0.03299 -0.224625,-0.115381 -0.387289,-0.1831 -0.187081,-0.07788 -0.377924,-0.19636 -0.519379,-0.322436 -0.213145,-0.189972 -0.227718,-0.196478 -0.310997,-0.138826 -0.04806,0.03327 -0.151112,0.118884 -0.229016,0.190259 -0.07791,0.07138 -0.197337,0.203277 -0.265411,0.293118 -0.06808,0.08984 -0.171378,0.266362 -0.229565,0.392271 -0.08801,0.19043 -0.108483,0.297696 -0.121758,0.63788 -0.0092,0.234993 0.0041,0.501976 0.03102,0.627635 0.02584,0.120274 0.116114,0.359898 0.200613,0.532498 0.0845,0.172599 0.251497,0.423318 0.371107,0.557151 0.119611,0.133835 0.348495,0.330967 0.508629,0.438071 0.175089,0.117106 0.405145,0.229016 0.577104,0.280728 0.157271,0.04729 0.330078,0.100308 0.384015,0.117819 0.05394,0.01751 0.481135,0.03323 0.949328,0.03493 z m 2.05155,-6.43016 h 3.393151 v -1.274884 -1.274883 h -0.11416 -0.114161 l -0.0225,0.323625 c -0.01237,0.177992 -0.04281,0.694321 -0.06765,1.147394 -0.04382,0.799414 -0.04811,0.82696 -0.145272,0.931645 l -0.100116,0.107875 h -2.878438 c -1.909164,0 -2.903987,-0.01368 -2.954312,-0.04061 -0.04351,-0.02329 -0.07588,-0.08185 -0.07588,-0.137295 0,-0.06844 -0.02152,-0.09669 -0.07366,-0.09669 -0.06903,0 -0.07547,-0.05553 -0.102435,-0.882612 -0.02325,-0.71313 -0.03924,-0.882611 -0.08325,-0.882611 -0.04511,0 -0.05447,0.17869 -0.05447,1.039519 v 1.039522 z m 3.278991,-3.33431 c 0.102756,0 0.114108,-0.01274 0.113623,-0.127489 -3.19e-4,-0.07012 -0.01117,-0.167206 -0.02418,-0.21575 -0.01392,-0.05192 -0.05408,-0.08826 -0.09753,-0.08826 -0.07043,0 -0.07388,-0.0468 -0.07388,-1.000293 0,-0.9741418 0.002,-1.0002928 0.07845,-1.0002928 0.04315,0 0.07845,-0.01413 0.07845,-0.03138 0,-0.01726 -0.02118,-0.05257 -0.04708,-0.07845 -0.03585,-0.03585 -0.8248,-0.04708 -3.311488,-0.04708 -1.795427,0 -3.292338,0.01071 -3.326463,0.02381 -0.05417,0.02079 -0.06205,0.142166 -0.06205,0.9561618 0,0.512793 0.01103,0.987515 0.02452,1.054937 0.01349,0.06742 0.03996,0.122585 0.05884,0.122585 0.01887,0 0.03433,-0.270947 0.03433,-0.602104 0,-0.331156 0.01152,-0.738508 0.02563,-0.905228 0.02275,-0.269165 0.03374,-0.3010028 0.09806,-0.284181 0.05482,0.01433 0.07245,-0.0029 0.07245,-0.07065 0,-0.04928 0.02207,-0.107846 0.04903,-0.130156 0.03252,-0.0269 1.02986,-0.04435 2.960641,-0.05182 l 2.911606,-0.01125 0.09908,0.09308 c 0.08076,0.07587 0.09906,0.129899 0.09896,0.292186 -8.7e-5,0.109508 0.01819,0.48154 0.04056,0.826739 0.02237,0.3452 0.05049,0.773267 0.06248,0.951259 l 0.0218,0.323625 z m 4.323852,-2.9432308 c 0.0176,6.38e-4 0.06614,-0.01708 0.107874,-0.03941 0.04556,-0.02439 0.07588,-0.081927 0.07588,-0.144013 0,-0.056876 -0.02922,-0.1356888 -0.06492,-0.1751442 -0.03571,-0.039457 -0.112308,-0.071731 -0.170226,-0.071731 -0.07488,0 -0.118505,0.028973 -0.151008,0.1003084 -0.03179,0.069776 -0.03356,0.1230011 -0.0058,0.1748417 0.02194,0.040995 0.07057,0.09241 0.108056,0.1142471 0.03749,0.02184 0.08257,0.04025 0.100159,0.04091 z m 1.3268,-0.0013 c 0.01379,0.0014 0.06484,-0.02972 0.113446,-0.06907 0.07468,-0.060478 0.08259,-0.088895 0.05104,-0.1835282 -0.02053,-0.061579 -0.06443,-0.1290692 -0.09756,-0.1499688 -0.03313,-0.020904 -0.10593,-0.026536 -0.161768,-0.012514 -0.05584,0.014011 -0.112717,0.060745 -0.126395,0.1038458 -0.01368,0.043101 -0.01332,0.1148096 7.98e-4,0.1593584 0.01414,0.044543 0.06386,0.096386 0.110515,0.1151958 0.04665,0.01881 0.0961,0.03532 0.109887,0.03669 z m 5.085356,-0.0269 c 0.02757,-0.01047 0.06782,-0.05214 0.08945,-0.09256 0.02842,-0.053082 0.02239,-0.1062503 -0.02171,-0.1915199 -0.04726,-0.091385 -0.08758,-0.1180349 -0.178554,-0.1180349 -0.08561,0 -0.129034,0.025275 -0.159936,0.093105 -0.03098,0.068001 -0.03006,0.1161956 0.0034,0.1787339 0.0252,0.047098 0.08439,0.099966 0.131524,0.1174889 0.04713,0.01753 0.108253,0.02328 0.135822,0.01278 z m 4.926107,-0.0098 c 0.0484,0 0.109181,-0.02118 0.13507,-0.04708 0.0259,-0.025895 0.04708,-0.081874 0.04708,-0.1244005 0,-0.042534 -0.02922,-0.1096082 -0.06492,-0.1490636 -0.03571,-0.039457 -0.102777,-0.071731 -0.149062,-0.071731 -0.04628,0 -0.105332,0.021182 -0.131217,0.047076 -0.02589,0.025895 -0.04708,0.074916 -0.04708,0.1089531 0,0.034038 0.02748,0.1011099 0.06107,0.1490625 0.03359,0.047954 0.100661,0.087186 0.149064,0.087186 z M 25.441149,23.608571 c -0.157652,-0.0031 -0.772076,-0.028 -1.365387,-0.05546 -0.593312,-0.02745 -1.334705,-0.08568 -1.647542,-0.129385 -0.312836,-0.04371 -0.692358,-0.106036 -0.843384,-0.138501 -0.151025,-0.03247 -0.349806,-0.08577 -0.441737,-0.118461 -0.09193,-0.03269 -0.2508,-0.116112 -0.353045,-0.185388 -0.102243,-0.06928 -0.256508,-0.188108 -0.342806,-0.264065 -0.0863,-0.07596 -0.211593,-0.218578 -0.278429,-0.316935 -0.06684,-0.09835 -0.144393,-0.248561 -0.172351,-0.33379 -0.02796,-0.08523 -0.0477,-0.259449 -0.04386,-0.387156 0.0038,-0.127707 0.06036,-0.490455 0.125618,-0.806105 0.06578,-0.318186 0.251083,-0.975927 0.415862,-1.476135 0.163465,-0.496224 0.424974,-1.237617 0.581128,-1.647541 0.156156,-0.409924 0.331604,-0.860056 0.389888,-1.000293 0.05829,-0.140238 0.187556,-0.431499 0.287274,-0.647248 0.09972,-0.215749 0.312147,-0.639404 0.472064,-0.941452 0.159915,-0.30205 0.398149,-0.725704 0.529405,-0.941452 0.131256,-0.21575 0.479329,-0.76297 0.773496,-1.216044 0.294167,-0.453072 0.610759,-0.954265 0.70354,-1.113756 0.09277,-0.159491 0.218582,-0.400022 0.279564,-0.534514 0.06098,-0.134493 0.164035,-0.423473 0.229007,-0.642179 0.06498,-0.218705 0.13541,-0.566525 0.156526,-0.7729318 0.02112,-0.206405 0.05919,-0.400346 0.08462,-0.430981 0.02542,-0.03063 0.101698,-0.0557 0.169499,-0.0557 h 0.123272 l 0.324944,-0.9774597 c 0.17872,-0.5376019 0.346152,-0.9947241 0.372071,-1.0158267 0.02592,-0.021107 0.303083,-0.078037 0.615921,-0.126514 0.312836,-0.048487 0.662687,-0.085304 0.777448,-0.08182 0.195491,0.00598 0.216526,-0.00289 0.333432,-0.1393651 0.06862,-0.080131 0.20421,-0.2329642 0.301298,-0.339627 0.09709,-0.1066671 0.265729,-0.2600697 0.374762,-0.3409084 0.109031,-0.080837 0.306232,-0.2014909 0.438222,-0.2681191 0.13199,-0.066623 0.367329,-0.1564312 0.522977,-0.199564 0.15565,-0.043133 0.322566,-0.1043481 0.370926,-0.1360362 0.04836,-0.031687 0.09895,-0.1015266 0.112422,-0.1552107 0.01348,-0.053681 0.0084,-0.1385401 -0.01126,-0.1885799 C 29.786855,5.434036 29.672017,5.2743206 29.551332,5.129161 29.430647,4.9840014 29.221648,4.7773166 29.08689,4.669864 28.952133,4.5624113 28.718311,4.4139077 28.567288,4.3398553 28.416262,4.2658049 28.204434,4.1753105 28.096561,4.1387651 27.988685,4.1022155 27.770893,4.0473377 27.612578,4.016806 27.454261,3.9862731 27.253709,3.9612976 27.166906,3.9612976 h -0.157824 l 0.02749,-0.1471015 c 0.01511,-0.080901 0.04727,-0.1710233 0.07143,-0.2002608 0.03455,-0.041797 0.132297,-0.047504 0.45741,-0.026685 0.227404,0.014577 0.72238,0.050859 1.099942,0.080666 0.395404,0.031206 0.761321,0.081008 0.862997,0.1174343 0.09709,0.034786 0.326566,0.072982 0.509953,0.084866 0.235593,0.015272 0.400425,0.00395 0.561748,-0.038719 0.169904,-0.044907 0.257844,-0.050047 0.343729,-0.020102 0.06347,0.022133 0.140804,0.03049 0.171838,0.018585 0.03892,-0.01494 0.06007,-0.098331 0.06816,-0.2687913 l 0.01174,-0.2471394 0.254977,-0.019611 0.254977,-0.019611 -0.01004,-0.5491812 c -0.0056,-0.3020483 -9.58e-4,-0.5881579 0.01015,-0.6357942 0.01931,-0.082792 0.03749,-0.086319 0.41214,-0.079821 l 0.391939,0.00684 V 2.238999 c 0,0.1221708 0.02672,0.2860669 0.05937,0.3642136 0.03265,0.078143 0.06355,0.1454289 0.06865,0.1495146 0.0051,0.00406 0.379976,0.023928 0.833051,0.044105 0.456878,0.020337 4.91201,0.036411 10.002931,0.03609 l 9.179159,-6.38e-4 1.225754,-0.1415806 c 0.674166,-0.077866 1.365545,-0.1415805 1.536399,-0.1415805 0.186664,0 0.316253,-0.016832 0.324699,-0.042171 0.0077,-0.023191 0.37368,-0.1467573 0.81322,-0.2745901 0.494815,-0.1439071 0.872636,-0.2324234 0.992086,-0.2324234 0.106111,0 0.231476,0.02054 0.278601,0.045634 0.04713,0.025093 0.106699,0.073644 0.132374,0.1078737 0.02568,0.034231 0.05857,0.1328481 0.07309,0.219149 0.01451,0.086298 0.03995,0.1745607 0.05652,0.1961356 0.01658,0.021577 0.07563,0.1758955 0.131262,0.3429358 0.05563,0.1670412 0.123855,0.4141711 0.151628,0.5491812 0.03485,0.1694309 0.08009,0.271041 0.146005,0.3280156 0.07183,0.062081 0.102649,0.1398952 0.124315,0.3138178 0.01585,0.1272012 0.02972,0.4872297 0.03083,0.8000655 0.0011,0.3128378 -0.01356,0.6898555 -0.03264,0.8378183 -0.02582,0.2003549 -0.05931,0.2954768 -0.131245,0.3726585 -0.08104,0.08696 -0.100725,0.1575288 -0.122338,0.4386689 -0.01417,0.1842677 -0.05947,0.4995615 -0.100672,0.7006537 -0.0412,0.2010912 -0.08618,0.3768927 -0.09996,0.3906693 -0.01378,0.013776 -3.448109,0.029592 -7.631853,0.03515 l -7.606806,0.010153 -1.59e-4,0.1664193 c -1.46e-4,0.091534 -0.182515,1.0490312 -0.405278,2.1277804 l -0.405021,1.9613568 -1.173626,0.02342 c -0.645496,0.01288 -1.240629,0.0421 -1.32252,0.06492 -0.08189,0.02283 -0.242694,0.0874 -0.35734,0.14349 -0.114644,0.05609 -0.296436,0.195018 -0.403977,0.308727 -0.1249,0.132065 -0.227833,0.291406 -0.284958,0.441119 -0.05908,0.154828 -0.107046,0.414104 -0.141338,0.76394 -0.02856,0.29126 -0.08989,0.653131 -0.136309,0.804156 -0.04641,0.151024 -0.144379,0.389328 -0.217687,0.529567 -0.07331,0.140237 -0.212654,0.35598 -0.309653,0.479428 -0.097,0.123448 -0.293398,0.320984 -0.436435,0.438967 -0.143038,0.117985 -0.379268,0.277156 -0.524954,0.353711 -0.145686,0.07656 -0.377419,0.177347 -0.514961,0.223978 -0.224634,0.07615 -0.35493,0.08652 -1.280661,0.101879 -0.849486,0.0141 -1.086324,0.0058 -1.347782,-0.04717 -0.174459,-0.03535 -0.443265,-0.119868 -0.597344,-0.187819 -0.15408,-0.06795 -0.40371,-0.214459 -0.554736,-0.325574 -0.151025,-0.111116 -0.308218,-0.239944 -0.349317,-0.286283 -0.0411,-0.04634 -0.10453,-0.08426 -0.140961,-0.08426 -0.03643,0 -0.170497,-0.03686 -0.297931,-0.08191 -0.127433,-0.04505 -0.337609,-0.09605 -0.46706,-0.113342 -0.158363,-0.02115 -0.341289,-0.01353 -0.559145,0.02329 -0.17808,0.0301 -0.442864,0.102221 -0.588407,0.160267 -0.214646,0.0856 -0.324393,0.165203 -0.581072,0.421463 -0.218299,0.217941 -0.355262,0.39501 -0.441596,0.570904 -0.06883,0.140238 -0.153233,0.387368 -0.18756,0.549181 -0.0449,0.211652 -0.05568,0.39492 -0.03842,0.653142 0.01343,0.201044 0.0074,0.402737 -0.01387,0.458506 -0.02082,0.05476 -0.131381,0.159529 -0.245688,0.232814 -0.114307,0.07328 -0.309963,0.226764 -0.434794,0.341065 -0.169786,0.155466 -0.265482,0.288031 -0.379871,0.526223 -0.0841,0.175121 -0.180554,0.454463 -0.214343,0.620759 -0.03379,0.166297 -0.06143,0.412614 -0.06143,0.547373 0,0.134759 0.02111,0.434802 0.04689,0.66676 0.04435,0.398891 0.04276,0.426323 -0.02942,0.506243 -0.04197,0.04648 -0.173402,0.13502 -0.292066,0.196767 -0.118661,0.06175 -0.262691,0.154681 -0.320067,0.20652 -0.05738,0.05184 -0.181452,0.19903 -0.275725,0.327091 -0.09661,0.131237 -0.213702,0.358567 -0.268339,0.520973 -0.05408,0.160746 -0.143659,0.335175 -0.202618,0.394529 -0.05813,0.05851 -0.185094,0.126389 -0.282153,0.150829 -0.09706,0.02444 -0.305459,0.04194 -0.463111,0.03889 z m 9.351508,-7.450731 c 0.468193,0.0017 0.944803,-0.01588 1.059135,-0.03908 0.11433,-0.0232 0.326171,-0.0862 0.470758,-0.140001 0.144587,-0.0538 0.36524,-0.164202 0.49034,-0.245336 0.125098,-0.08114 0.319929,-0.243865 0.432955,-0.361627 0.113026,-0.11776 0.255525,-0.284053 0.316665,-0.36954 0.06114,-0.08548 0.156138,-0.261641 0.211105,-0.391457 0.05496,-0.129814 0.12214,-0.367637 0.149272,-0.528494 0.02844,-0.168631 0.03931,-0.409189 0.02567,-0.56813 -0.01301,-0.151614 -0.06382,-0.376775 -0.112892,-0.500359 -0.04908,-0.123583 -0.19342,-0.349122 -0.320767,-0.501198 -0.127348,-0.152076 -0.315358,-0.33803 -0.4178,-0.413229 -0.102446,-0.07521 -0.27186,-0.176228 -0.376482,-0.224505 -0.179564,-0.08286 -0.247353,-0.08828 -1.210127,-0.0969 -0.560949,-0.005 -1.055211,-0.01384 -1.09836,-0.01961 -0.04825,-0.0064 -0.07845,0.01216 -0.07845,0.04835 0,0.04883 0.08939,0.06071 0.525226,0.06983 l 0.525224,0.01098 -0.02458,0.235171 c -0.01352,0.129344 -0.05092,0.286106 -0.08311,0.348361 -0.03219,0.06225 -0.154027,0.246287 -0.270743,0.408964 -0.116714,0.162677 -0.241232,0.380495 -0.276706,0.484041 -0.03547,0.103546 -0.07432,0.285353 -0.08631,0.404016 -0.012,0.118661 -0.0035,0.32602 0.01872,0.460795 0.02229,0.134775 0.06737,0.293646 0.100159,0.353046 0.0328,0.0594 0.0865,0.160954 0.119356,0.225678 0.03285,0.06473 0.09968,0.163918 0.148515,0.220429 0.04883,0.05651 0.1947,0.173726 0.324149,0.260479 0.12945,0.08676 0.341276,0.188409 0.470727,0.225901 0.129448,0.03749 0.257428,0.07418 0.284396,0.08153 0.02696,0.0074 0.04903,0.05804 0.04903,0.112655 0,0.08878 -0.01575,0.0993 -0.148667,0.0993 -0.08177,0 -0.248912,-0.02611 -0.371431,-0.05802 -0.122521,-0.03191 -0.315582,-0.106933 -0.429024,-0.166714 -0.113444,-0.05978 -0.32141,-0.223781 -0.462148,-0.364444 -0.169853,-0.169761 -0.310506,-0.361001 -0.418342,-0.568792 -0.08935,-0.172176 -0.19085,-0.428913 -0.225556,-0.570529 -0.03808,-0.155367 -0.0631,-0.4245 -0.0631,-0.678615 0,-0.291017 -0.01756,-0.455094 -0.05683,-0.531042 -0.03126,-0.06045 -0.09803,-0.1369 -0.148373,-0.169886 -0.05035,-0.03299 -0.224626,-0.115382 -0.387291,-0.1831 -0.187078,-0.07788 -0.377924,-0.19636 -0.519378,-0.322434 -0.213144,-0.189975 -0.227718,-0.19648 -0.310998,-0.138828 -0.04805,0.03327 -0.151111,0.118883 -0.229014,0.190258 -0.07791,0.07138 -0.197339,0.203277 -0.265411,0.293119 -0.06808,0.08983 -0.171377,0.266362 -0.229567,0.392271 -0.08801,0.190429 -0.10848,0.297696 -0.121758,0.637879 -0.0092,0.234993 0.0041,0.501977 0.03102,0.627635 0.02584,0.120274 0.116114,0.359899 0.200612,0.532498 0.0845,0.172599 0.251498,0.423318 0.371109,0.557152 0.119611,0.133835 0.348493,0.330967 0.508629,0.438071 0.175088,0.117106 0.405144,0.229014 0.577101,0.280726 0.157271,0.04729 0.330078,0.100319 0.384017,0.117821 0.05394,0.0175 0.481134,0.03323 0.949328,0.03492 z m 2.051551,-6.4301598 h 3.39315 V 8.4527968 7.1779147 h -0.11416 -0.114161 l -0.0225,0.3236232 c -0.01236,0.1779944 -0.04281,0.6943205 -0.06765,1.1473956 -0.04382,0.7994127 -0.04811,0.8269597 -0.145271,0.9316447 L 39.6735,9.6884522 h -2.878437 c -1.909165,0 -2.903987,-0.01368 -2.954313,-0.04061 -0.04351,-0.02329 -0.07588,-0.08185 -0.07588,-0.137295 0,-0.06844 -0.02152,-0.09668 -0.07366,-0.09668 -0.06903,0 -0.07547,-0.05553 -0.102435,-0.882611 -0.02325,-0.7131319 -0.03924,-0.882612 -0.08325,-0.882612 -0.04511,0 -0.05447,0.1786902 -0.05447,1.0395209 V 9.7276852 Z M 40.123198,6.39337 c 0.102756,0 0.114107,-0.012739 0.113625,-0.1274876 -3.19e-4,-0.070117 -0.01119,-0.1672069 -0.02419,-0.2157495 -0.01391,-0.051918 -0.05408,-0.088264 -0.09753,-0.088264 -0.07043,0 -0.07388,-0.046798 -0.07388,-1.000292 0,-0.974142 0.002,-1.0002942 0.07845,-1.0002942 0.04315,0 0.07845,-0.014128 0.07845,-0.031377 0,-0.01726 -0.02118,-0.052569 -0.04708,-0.078453 -0.03585,-0.035855 -0.8248,-0.047076 -3.311487,-0.047076 -1.795429,0 -3.292337,0.010708 -3.326465,0.023811 -0.05417,0.020786 -0.06205,0.1421662 -0.06205,0.9561621 0,0.5127931 0.01103,0.9875168 0.02452,1.054938 0.01349,0.067424 0.03996,0.1225844 0.05884,0.1225844 0.01887,0 0.03433,-0.2709459 0.03433,-0.6021023 0,-0.3311565 0.01152,-0.7385104 0.02563,-0.90523 0.02275,-0.2691632 0.03374,-0.301003 0.09806,-0.2841806 0.05482,0.014331 0.07245,-0.00289 0.07245,-0.070641 0,-0.049278 0.02207,-0.1078459 0.04903,-0.130155 0.03252,-0.026899 1.02986,-0.044351 2.960641,-0.051821 l 2.911606,-0.011253 0.09908,0.093084 c 0.08076,0.075867 0.09906,0.1298996 0.09896,0.2921852 -8.8e-5,0.1095067 0.01819,0.4815399 0.04056,0.8267402 0.02237,0.3451992 0.05049,0.7732645 0.06248,0.9512589 l 0.0218,0.3236232 z m 4.323855,-2.9432314 c 0.0176,6.38e-4 0.06614,-0.017078 0.107874,-0.039414 0.04556,-0.024377 0.07588,-0.081927 0.07588,-0.1440129 0,-0.056876 -0.02922,-0.1356888 -0.06492,-0.1751421 -0.03571,-0.039457 -0.112307,-0.071731 -0.170226,-0.071731 -0.07488,0 -0.118506,0.028973 -0.151009,0.1003084 -0.03179,0.069775 -0.03356,0.1230012 -0.0058,0.1748439 0.02194,0.040995 0.07057,0.0924 0.108056,0.1142463 0.03749,0.021844 0.08257,0.040247 0.10017,0.04091 z m 1.326799,-0.00128 c 0.01379,0.00139 0.06484,-0.02971 0.113444,-0.06907 0.07468,-0.060478 0.08259,-0.088895 0.05104,-0.1835261 -0.02053,-0.061589 -0.06443,-0.1290714 -0.09756,-0.1499698 -0.03313,-0.020904 -0.105929,-0.026536 -0.161765,-0.012514 -0.05584,0.014011 -0.112718,0.060745 -0.126397,0.1038457 -0.01368,0.043101 -0.01329,0.1148128 7.98e-4,0.1593595 0.01414,0.044543 0.06387,0.096386 0.110518,0.1151943 0.04665,0.018809 0.0961,0.035321 0.109887,0.036689 z m 5.085354,-0.026899 c 0.02757,-0.010473 0.06782,-0.052142 0.08945,-0.09256 0.02841,-0.053083 0.02238,-0.1062504 -0.02171,-0.1915221 -0.04726,-0.091374 -0.08758,-0.1180349 -0.178553,-0.1180349 -0.08561,0 -0.129032,0.025275 -0.159939,0.093105 -0.03098,0.068002 -0.03006,0.1161978 0.0034,0.1787361 0.0252,0.047098 0.08438,0.099966 0.131524,0.1174888 0.04713,0.017527 0.108252,0.023276 0.135821,0.012782 z m 4.926108,-0.00983 c 0.0484,0 0.10918,-0.021182 0.135072,-0.047076 0.02589,-0.025895 0.04708,-0.081873 0.04708,-0.1244012 0,-0.042524 -0.02922,-0.1096071 -0.06492,-0.1490625 -0.03571,-0.039457 -0.102787,-0.071731 -0.149064,-0.071731 -0.04628,0 -0.105321,0.021182 -0.131214,0.047076 -0.02589,0.025895 -0.04708,0.074916 -0.04708,0.1089531 0,0.034038 0.02748,0.1011099 0.06107,0.1490647 0.03359,0.047953 0.100661,0.087185 0.149062,0.087185 z"
   id="path269" /></svg>
