<?xml version="1.0" encoding="UTF-8" standalone="no"?>
<svg
   xmlns:dc="http://purl.org/dc/elements/1.1/"
   xmlns:cc="http://creativecommons.org/ns#"
   xmlns:rdf="http://www.w3.org/1999/02/22-rdf-syntax-ns#"
   xmlns:svg="http://www.w3.org/2000/svg"
   xmlns="http://www.w3.org/2000/svg"
   xmlns:sodipodi="http://sodipodi.sourceforge.net/DTD/sodipodi-0.dtd"
   xmlns:inkscape="http://www.inkscape.org/namespaces/inkscape"
   version="1.1"
   x="0px"
   y="0px"
   width="88.5px"
   height="32px"
   viewBox="0 0 88.5 32"
   enable-background="new 0 0 88.5 32"
   xml:space="preserve"
   id="svg290"
   sodipodi:docname="uzi.svg"
   inkscape:version="1.0.2-2 (e86c870879, 2021-01-15)"><metadata
   id="metadata296"><rdf:RDF><cc:Work
       rdf:about=""><dc:format>image/svg+xml</dc:format><dc:type
         rdf:resource="http://purl.org/dc/dcmitype/StillImage" /></cc:Work></rdf:RDF></metadata><defs
   id="defs294" /><sodipodi:namedview
   pagecolor="#ffffff"
   bordercolor="#666666"
   borderopacity="1"
   objecttolerance="10"
   gridtolerance="10"
   guidetolerance="10"
   inkscape:pageopacity="0"
   inkscape:pageshadow="2"
   inkscape:window-width="1842"
   inkscape:window-height="1051"
   id="namedview292"
   showgrid="false"
   inkscape:zoom="9.7077372"
   inkscape:cx="34.660545"
   inkscape:cy="10.378808"
   inkscape:window-x="-9"
   inkscape:window-y="-9"
   inkscape:window-maximized="1"
   inkscape:current-layer="svg290" />

<g
   id="guides">
</g>
<path
   style="fill:#ffffff;stroke-width:0.10362"
   d="m 50.146039,30.568284 c -1.225296,-0.03408 -2.239468,-0.07127 -2.253716,-0.08264 -0.01424,-0.01138 -0.0259,-1.273957 -0.0259,-2.805723 0,-2.297511 -0.02611,-2.806704 -0.149201,-2.908855 -0.08206,-0.0681 -0.501719,-0.150487 -0.932572,-0.183072 l -0.783371,-0.05925 -0.0097,-0.425426 c -0.0053,-0.233983 -0.01077,-0.775139 -0.01208,-1.202568 -0.0014,-0.462689 -0.0499,-0.807946 -0.119827,-0.853272 -0.08408,-0.0545 -0.08065,-0.07658 0.01208,-0.07772 0.07124,-8.72e-4 0.129527,-0.09485 0.129527,-0.208824 0,-0.113982 -0.05828,-0.207953 -0.129524,-0.208825 -0.09341,-0.0011 -0.09657,-0.02281 -0.01133,-0.07772 0.0703,-0.04528 0.123021,-0.408016 0.130108,-0.895168 0.0065,-0.450471 0.06112,-0.878328 0.121257,-0.950789 0.06014,-0.07247 0.09653,-0.193496 0.08086,-0.268961 -0.02337,-0.112574 0.473804,-1.806248 0.846325,-2.883118 0.168809,-0.48799 0.221304,-1.318878 0.109546,-1.733915 -0.149549,-0.555383 -0.424895,-0.884122 -1.15687,-1.381196 -0.515778,-0.350259 -0.61209,-0.463966 -0.61209,-0.722658 0,-0.289083 -0.02418,-0.306996 -0.414476,-0.306996 h -0.414477 v -0.518096 c 0,-0.483557 -0.01727,-0.518095 -0.259047,-0.518095 -0.161186,0 -0.259048,-0.05872 -0.259048,-0.155429 0,-0.08548 0.04662,-0.155429 0.103619,-0.155429 0.057,0 0.10362,-0.186514 0.10362,-0.414477 v -0.414467 h -5.900333 -5.900332 l -0.03186,0.440381 -0.03187,0.440381 -1.347049,0.0089 c -0.740877,0.0049 -1.440306,-0.03234 -1.554287,-0.08274 -0.274969,-0.121578 -0.625723,-0.670825 -0.787366,-1.2329405 -0.07192,-0.25011 -0.136888,-0.465387 -0.144368,-0.478394 -0.0074,-0.01301 -0.290499,0.02429 -0.628933,0.0829 -0.338434,0.05859 -0.895106,0.154832 -1.237049,0.213851 -0.341943,0.05902 -0.831544,0.145957 -1.088002,0.193193 -0.256457,0.04724 -0.746057,0.1341713 -1.088,0.1931913 -0.341943,0.05902 -0.889829,0.1562682 -1.217525,0.2161062 l -1.19162,0.217595 c -0.327695,0.05984 -0.852267,0.150766 -1.165714,0.202061 -0.313449,0.05129 -0.849677,0.14455 -1.191621,0.207236 -0.341943,0.06269 -1.018058,0.179257 -1.502477,0.259049 -0.484419,0.07979 -1.160534,0.197308 -1.502477,0.261145 -1.158462,0.216274 -1.49456,0.237088 -1.656617,0.102592 -0.123502,-0.102498 -0.730681,-0.105822 -2.928077,-0.01603 -1.524745,0.06231 -3.9358951,0.140867 -5.3581103,0.174585 -1.4222153,0.03372 -2.7096279,0.08607 -2.8609169,0.116319 -0.2688324,0.05377 -0.2766195,0.0777 -0.3433517,1.055252 -0.064897,0.950667 -0.1185877,1.544504 -0.366804,4.057 -0.1360761,1.377391 -0.2946287,3.047411 -0.4276828,4.504744 -0.0571,0.625418 -0.1377025,1.171007 -0.1791159,1.212421 -0.041413,0.04141 -0.4366345,-0.157558 -0.8782691,-0.442158 l -0.80302457,-0.517411 -0.007695,-1.00582 c -0.004235,-0.553203 -0.0254122,-1.09908 -0.0470604,-1.21306 C 0.82939179,19.100505 0.64088427,14.913076 0.54419868,12.039817 0.44808928,9.1836835 0.55928829,9.015788 2.54703,9.015788 h 1.2812651 v 0.3944585 0.3944583 l 0.6994291,-0.0792 C 4.9124102,9.6819435 5.7866966,9.5959605 6.4705827,9.5344335 8.962809,9.3102195 9.2543873,9.2576345 9.4237277,9.0018501 9.5092097,8.8727258 9.6861901,8.6598366 9.8170093,8.5287639 10.051901,8.2934178 10.088676,8.2901788 12.770153,8.2686987 c 4.232176,-0.033899 4.299899,-0.037259 5.616628,-0.2780268 1.260938,-0.23057 1.873991,-0.3423846 2.901336,-0.5291746 0.313448,-0.056995 0.838019,-0.152578 1.165715,-0.2124164 0.327695,-0.059841 0.852268,-0.1507654 1.165716,-0.2020606 0.313447,-0.051291 0.849676,-0.1445519 1.191619,-0.207238 C 25.15311,6.7770943 25.712653,6.6777578 26.054596,6.6190309 26.67976,6.5116634 27.41819,6.3789742 28.282407,6.2187151 30.249408,5.853959 30.409922,5.8382427 30.898791,5.9625387 l 0.284952,0.072445 V 5.2975706 c 0,-0.7174955 0.007,-0.7374135 0.259048,-0.7374135 0.250151,0 0.259048,-0.023488 0.259048,-0.6838861 0,-0.639594 0.02281,-0.7067031 0.352305,-1.0361911 0.346039,-0.3460401 0.368152,-0.3523049 1.243429,-0.3523049 h 0.891125 V 2.1189923 c 0,-0.2194688 0.04196,-0.3428534 0.103619,-0.3047416 0.05699,0.035217 0.103619,0.2011744 0.103619,0.3687827 V 2.487775 h 0.935737 0.935738 l 0.333597,0.3794966 c 0.740409,0.8422844 0.897668,1.112807 0.900619,1.5492772 0.0029,0.4245019 0.0047,0.4264956 0.443264,0.473399 0.480244,0.051362 0.938323,0.035378 3.144021,-0.1097535 1.341421,-0.088258 1.968498,-0.1611433 3.729234,-0.4334354 0.816748,-0.1263077 10.862599,-0.1259828 12.684855,4.145e-4 0.769371,0.053363 2.436345,0.127379 3.704383,0.1644779 2.498715,0.073099 2.519199,0.068512 2.098287,-0.4695897 -0.251241,-0.3211932 -0.276568,-1.0556775 -0.04441,-1.2878369 0.2223,-0.2223004 1.213564,-0.2223004 1.435864,0 0.172096,0.1720957 0.236918,1.1842184 0.07584,1.1842184 -0.07532,0 -0.32749,0.4425801 -0.32749,0.5747804 0,0.025812 0.396344,0.046936 0.880762,0.046936 0.48442,0 0.880763,0.038375 0.880763,0.085271 0,0.046895 0.361372,0.1371253 0.803049,0.2005004 0.441675,0.063372 0.907962,0.1470114 1.036191,0.1858595 0.196,0.059379 0.233143,0.031565 0.233146,-0.1745953 2e-6,-0.1553352 0.130913,-0.3496815 0.35713,-0.5301805 0.426274,-0.3401244 0.47182,-0.3476265 0.47182,-0.077716 0,0.1909846 0.06907,0.207238 0.880762,0.207238 0.811683,0 0.880762,-0.016255 0.880762,-0.207238 0,-0.1139814 0.03026,-0.207238 0.06724,-0.207238 0.135471,0 0.761706,0.7198946 0.761706,0.8756261 0,0.088309 0.03949,0.160565 0.08777,0.160565 0.04827,0 0.116604,-0.5380749 0.151849,-1.195722 0.03525,-0.657647 0.09176,-1.2405049 0.125585,-1.2952393 0.03383,-0.054731 0.587173,-0.099514 1.229657,-0.099514 h 1.168154 l 0.561351,0.5964688 c 0.308744,0.3280575 0.619639,0.7626829 0.690877,0.9658339 0.155667,0.4439209 0.169135,0.9245565 0.0259,0.9245565 -0.189996,0 -0.106667,0.2258432 0.10362,0.2808342 0.167477,0.043797 0.207238,0.141338 0.207238,0.5083945 v 0.4542013 h 0.4049 c 0.399098,0 0.406804,-0.00744 0.537686,-0.5180965 0.07451,-0.2907182 0.1924,-0.5180955 0.268623,-0.5180955 0.16806,0 0.169244,0.1092988 0.0087,0.8000141 l -0.127184,0.5470345 -0.520439,0.00332 c -0.455638,0.00292 -0.497804,0.02048 -0.338651,0.1412807 0.139223,0.1056756 0.517252,0.1259195 1.61449,0.086458 1.24571,-0.044803 1.468796,-0.027874 1.70926,0.1296846 0.209208,0.137079 0.27656,0.2663441 0.27656,0.5307841 v 0.3495739 l 4.17067,0.027079 4.17067,0.027079 v 0.88076 0.880763 l -4.17067,0.02708 -4.17067,0.02708 -0.0016,0.3355863 c -0.003,0.6324142 -0.04114,0.6464452 -1.757792,0.6464452 -1.35469,0 -1.566043,0.02229 -1.612945,0.170146 -0.02968,0.09358 -0.145685,0.194129 -0.257779,0.223442 -0.112093,0.02931 -0.203807,0.130936 -0.203807,0.225827 0,0.417592 -0.615552,0.675824 -1.610971,0.675824 -0.629328,0 -0.809926,0.03766 -0.975728,0.20346 -0.113579,0.113579 -0.230716,0.159353 -0.265162,0.103618 -0.112775,-0.182475 -0.345276,-0.103173 -0.390823,0.133303 l -0.0449,0.233143 -0.01411,-0.233143 c -0.01821,-0.300855 -0.263053,-0.300855 -0.397444,0 l -0.104144,0.233143 -0.07411,-0.233143 c -0.04076,-0.128228 -0.137658,-0.233142 -0.21534,-0.233142 -0.07768,0 -0.161446,0.104914 -0.186144,0.233142 l -0.0449,0.233143 -0.01411,-0.233143 c -0.01823,-0.301104 -0.289051,-0.302303 -0.384459,-0.0017 l -0.07346,0.231441 -0.08561,-0.231441 c -0.09667,-0.261312 -0.299532,-0.312794 -0.299532,-0.07602 0,0.08548 -0.04663,0.155428 -0.103618,0.155428 -0.05699,0 -0.10362,-0.06994 -0.10362,-0.155428 0,-0.237517 -0.264955,-0.184941 -0.39163,0.07772 l -0.11244,0.233143 -0.007,-0.233143 c -0.0038,-0.128228 -0.07152,-0.233142 -0.150357,-0.233142 -0.07884,0 -0.17467,0.104914 -0.212957,0.233142 l -0.06962,0.233143 -0.113736,-0.233143 c -0.143371,-0.293896 -0.228334,-0.293896 -0.370075,0 l -0.11244,0.233143 -0.007,-0.233143 c -0.0091,-0.302226 -0.273198,-0.302226 -0.362885,0 l -0.06919,0.233143 -0.09499,-0.233143 c -0.121703,-0.298708 -0.281595,-0.298708 -0.340354,0 l -0.04586,0.233143 -0.07705,-0.233143 c -0.09863,-0.298453 -0.30057,-0.298453 -0.444509,0 l -0.11244,0.233143 -0.007,-0.233143 c -0.0092,-0.303602 -0.289597,-0.303602 -0.349319,0 l -0.04586,0.233143 -0.07705,-0.233143 c -0.09863,-0.298453 -0.300569,-0.298453 -0.444508,0 l -0.11244,0.233143 -0.007,-0.233143 c -0.0077,-0.257156 -0.317862,-0.33298 -0.317862,-0.07772 0,0.08548 -0.04662,0.155428 -0.103619,0.155428 -0.057,0 -0.103619,-0.06994 -0.103619,-0.155428 0,-0.246522 -0.291545,-0.180332 -0.342306,0.07772 l -0.04586,0.233143 -0.07705,-0.233143 c -0.09935,-0.300626 -0.336048,-0.300626 -0.395184,0 l -0.04586,0.233143 -0.07705,-0.233143 c -0.0998,-0.301978 -0.361666,-0.301978 -0.370749,0 l -0.007,0.233143 -0.112441,-0.233143 c -0.126673,-0.262655 -0.391628,-0.315231 -0.391628,-0.07772 0,0.08548 -0.04663,0.155428 -0.103619,0.155428 -0.05699,0 -0.103619,-0.06994 -0.103619,-0.155428 0,-0.236779 -0.202867,-0.185297 -0.299532,0.07602 l -0.08561,0.23144 -0.07346,-0.23144 c -0.09569,-0.301507 -0.368409,-0.300275 -0.376916,0.0017 l -0.0065,0.233143 -0.09371,-0.233143 c -0.122466,-0.30468 -0.409095,-0.30468 -0.41826,0 l -0.007,0.233143 -0.11244,-0.233143 c -0.14508,-0.300819 -0.389593,-0.300819 -0.398642,0 l -0.007,0.233143 -0.112441,-0.233143 c -0.144437,-0.299488 -0.364165,-0.299488 -0.423077,0 l -0.04586,0.233143 -0.07705,-0.233143 c -0.04238,-0.128228 -0.141554,-0.233142 -0.220393,-0.233142 -0.07884,0 -0.147026,0.104914 -0.151524,0.233142 -0.0045,0.128229 -0.0317,0.174858 -0.06045,0.103619 -0.02875,-0.07124 -0.182984,-0.129523 -0.342753,-0.129523 -0.317771,0 -0.282613,-0.11336 -0.642726,2.072382 -0.365793,2.220214 -0.457411,2.429074 -1.13216,2.580949 -0.193822,0.04363 -1.40361,0.07527 -2.688416,0.07033 -2.04054,-0.0078 -2.371014,-0.03193 -2.612737,-0.190324 -0.152199,-0.09974 -0.303755,-0.181333 -0.336792,-0.181333 -0.03303,0 -0.04633,1.793512 -0.02955,3.985582 0.03001,3.918321 0.02702,3.986085 -0.176722,4.015242 -0.200291,0.02867 -0.208975,0.128613 -0.259048,2.981456 -0.04437,2.527924 -0.07413,2.9527 -0.207239,2.958078 -0.08548,0.0034 -1.157944,-0.0216 -2.383239,-0.05568 z m 8.90553,-14.188746 c 0.234206,-0.270264 0.237241,-0.280785 0.420459,-1.457464 0.06655,-0.427429 0.160521,-0.986972 0.208815,-1.243429 0.190226,-1.010177 0.195842,-1.224922 0.03367,-1.287156 -0.08584,-0.03294 -1.586092,-0.05174 -3.33389,-0.04178 -1.747796,0.01 -2.979641,0.03595 -2.737432,0.05777 0.525957,0.04737 0.63736,0.338606 0.129524,0.338606 h -0.310858 v 1.664718 c 0,1.737294 0.05592,2.008806 0.447155,2.171249 0.124504,0.05169 1.28333,0.08403 2.575169,0.07187 2.347105,-0.0221 2.348955,-0.0223 2.567395,-0.274372 z M 46.478646,10.820645 c -0.03459,-0.09015 -0.0629,-0.206719 -0.0629,-0.259049 0,-0.05233 -0.06994,-0.09515 -0.155428,-0.09515 -0.08548,0 -0.155429,0.04281 -0.155429,0.09515 0,0.05233 -0.02831,0.168901 -0.0629,0.259049 -0.04783,0.124647 0.0044,0.163903 0.218325,0.163903 0.213864,0 0.266156,-0.03926 0.218324,-0.163903 z m 13.718448,-0.561431 c 0,-0.05699 -0.09601,-0.103619 -0.213354,-0.103619 -0.117345,0 -0.184535,0.04662 -0.149314,0.103619 0.03523,0.05699 0.131232,0.103619 0.213354,0.103619 0.08212,0 0.149314,-0.04663 0.149314,-0.103619 z"
   id="path376" /></svg>
