<?xml version="1.0" encoding="UTF-8" standalone="no"?>
<svg
   xmlns:dc="http://purl.org/dc/elements/1.1/"
   xmlns:cc="http://creativecommons.org/ns#"
   xmlns:rdf="http://www.w3.org/1999/02/22-rdf-syntax-ns#"
   xmlns:svg="http://www.w3.org/2000/svg"
   xmlns="http://www.w3.org/2000/svg"
   xmlns:sodipodi="http://sodipodi.sourceforge.net/DTD/sodipodi-0.dtd"
   xmlns:inkscape="http://www.inkscape.org/namespaces/inkscape"
   version="1.1"
   x="0px"
   y="0px"
   width="96.583px"
   height="32px"
   viewBox="0 0 96.583 32"
   enable-background="new 0 0 96.583 32"
   xml:space="preserve"
   id="svg167"
   sodipodi:docname="mg34.svg"
   inkscape:version="1.0.2-2 (e86c870879, 2021-01-15)"><metadata
   id="metadata173"><rdf:RDF><cc:Work
       rdf:about=""><dc:format>image/svg+xml</dc:format><dc:type
         rdf:resource="http://purl.org/dc/dcmitype/StillImage" /></cc:Work></rdf:RDF></metadata><defs
   id="defs171" /><sodipodi:namedview
   pagecolor="#ffffff"
   bordercolor="#666666"
   borderopacity="1"
   objecttolerance="10"
   gridtolerance="10"
   guidetolerance="10"
   inkscape:pageopacity="0"
   inkscape:pageshadow="2"
   inkscape:window-width="1842"
   inkscape:window-height="1051"
   id="namedview169"
   showgrid="false"
   inkscape:zoom="12.579854"
   inkscape:cx="43.450179"
   inkscape:cy="14.285527"
   inkscape:window-x="-9"
   inkscape:window-y="-9"
   inkscape:window-maximized="1"
   inkscape:current-layer="svg167" />

<g
   id="guides">
</g>
<path
   style="fill:#ffffff;stroke-width:0.0794922"
   d="m 24.745669,25.080565 c -0.05246,-0.05246 -0.09539,-0.233095 -0.09539,-0.401401 0,-0.343976 -0.308069,-0.726362 -0.779276,-0.967265 -0.673529,-0.344339 -0.789638,-0.741442 -0.417764,-1.428799 0.295923,-0.546973 0.482618,-0.844647 0.619691,-0.988066 0.05522,-0.05777 0.100396,-0.144584 0.100396,-0.192912 0,-0.04833 0.126757,-0.271915 0.281682,-0.49686 0.446398,-0.648151 0.627937,-1.588535 0.435915,-2.258076 -0.09031,-0.314903 -0.403992,-0.80054 -0.518866,-0.803309 -0.04372,-0.0011 -0.163733,-0.09073 -0.266694,-0.199275 -0.180103,-0.189873 -0.225315,-0.197356 -1.192382,-0.197354 l -1.005182,2e-6 -0.216602,0.271465 c -0.27516,0.344855 -0.611686,0.427337 -1.010248,0.247611 -0.335542,-0.151309 -0.482232,-0.449964 -0.482232,-0.981804 0,-0.326314 -0.0049,-0.332198 -0.276708,-0.332198 -0.22886,0 -0.285333,0.03436 -0.326587,0.19873 -0.05465,0.21774 -0.145592,0.234686 -0.787373,0.14672 -0.267467,-0.03666 -0.39028,-0.09339 -0.416126,-0.192225 -0.05656,-0.216293 -0.98549,-0.259969 -4.385425,-0.206193 -3.863941,0.06111 -4.1373392,0.0933 -4.7817919,0.562891 -0.4758441,0.346733 -0.6046588,0.73033 -0.4643575,1.382812 0.05349,0.248756 0.1331136,0.498949 0.1769432,0.555984 0.056897,0.07404 0.031749,0.151639 -0.087926,0.271314 L 8.6817497,19.239972 8.194279,19.021209 C 7.7432037,18.818778 7.6464075,18.804844 6.8978308,18.834575 c -0.7920096,0.03146 -0.8264831,0.04096 -1.6436448,0.452921 -0.9367661,0.47226 -1.4298331,0.732832 -2.170812,1.147211 -0.6247619,0.349386 -1.0875483,0.442492 -1.2466355,0.250804 -0.095343,-0.114882 -0.080773,-0.39116 0.104162,-1.975027 0.2851816,-2.442428 0.4015246,-4.299017 0.2977392,-4.75129 C 2.0914155,13.317624 1.6842113,12.276459 1.5007152,12.072423 1.2761336,11.822703 0.8171696,11.368622 0.52750387,11.109568 0.27031609,10.879559 0.16668636,10.638833 0.16668636,10.27141 c 0,-0.3439981 0.31900587,-0.5852141 0.85842924,-0.6491011 0.5265467,-0.06236 1.6085202,0.175768 2.1930204,0.4826581 0.2573746,0.135133 0.5614322,0.292271 0.6756836,0.349194 0.1142514,0.05692 0.261387,0.138255 0.326968,0.180737 0.1324391,0.08579 0.9766878,0.494501 1.7078291,0.826775 0.5635296,0.256102 2.4014604,0.727147 3.276872,0.839833 0.8504133,0.109468 8.5289693,0.17685 8.5289693,0.07484 0,-0.04297 0.125686,-0.07813 0.279302,-0.07813 0.153615,0 0.350358,-0.04438 0.437207,-0.09861 0.125682,-0.07849 0.190128,-0.07849 0.315811,0 0.267954,0.16734 0.68673,0.121166 0.908012,-0.100117 0.313146,-0.313146 0.761211,-0.245034 1.132299,0.172124 l 0.171166,0.192416 3.207251,-0.02328 3.207252,-0.02329 1.452982,-0.27369 c 1.472899,-0.277442 1.523773,-0.297749 1.853449,-0.739835 0.145242,-0.194766 0.213471,-0.218604 0.625697,-0.218604 0.339976,0 0.474935,-0.03194 0.508893,-0.120431 0.116011,-0.30232 0.687896,-0.293898 0.869032,0.0128 0.07547,0.127782 0.263776,0.141592 0.336053,0.02465 0.07494,-0.121252 -0.178065,-0.468714 -0.403779,-0.55453 -0.425276,-0.16169 -0.184214,-0.236896 0.759333,-0.236896 0.794922,0 0.953906,0.01987 0.953906,0.119238 0,0.07419 0.07508,0.119239 0.198731,0.119239 0.123655,0 0.19873,-0.04505 0.19873,-0.119239 0,-0.06558 0.06772,-0.119238 0.15048,-0.119238 0.08276,0 0.171069,0.05366 0.196236,0.119238 0.02517,0.06558 0.119544,0.119239 0.209729,0.119239 0.09019,0 0.184565,-0.05366 0.20973,-0.119239 0.02517,-0.06558 0.109645,-0.119238 0.187731,-0.119238 0.07809,0 0.162565,0.05366 0.187731,0.119238 0.05929,0.154509 0.36017,0.154509 0.41946,0 0.06053,-0.157735 0.426208,-0.157735 0.426208,0 0,0.06624 0.07066,0.119239 0.158984,0.119239 0.08832,0 0.158984,-0.053 0.158984,-0.119239 0,-0.07949 0.07949,-0.119238 0.238477,-0.119238 0.158984,0 0.238477,0.03975 0.238477,0.119238 0,0.07419 0.07508,0.119239 0.19873,0.119239 0.123655,0 0.19873,-0.04505 0.19873,-0.119239 0,-0.155122 0.28719,-0.155122 0.346716,0 0.06197,0.161503 0.342967,0.151129 0.436563,-0.01612 0.12375,-0.221129 0.329612,0.0155 0.329612,0.378875 0,0.331232 0.106187,0.455703 0.27163,0.318399 0.112468,-0.09334 0.364307,-0.03629 0.364307,0.08253 0,0.100193 0.297707,0.08859 0.361158,-0.01408 0.09122,-0.147597 0.385159,-0.213868 0.606444,-0.136728 0.235147,0.08197 0.383766,0.400824 0.383766,0.823343 0,0.524896 -0.03816,0.511339 1.439364,0.511339 h 1.342862 v -0.357715 c 0,-0.344466 -0.0088,-0.357715 -0.238477,-0.357715 h -0.238476 v -0.626293 c 0,-0.620936 0.002,-0.627139 0.238476,-0.725074 l 0.238477,-0.09878 V 8.5986929 c 0,-0.8873943 0.02171,-1.670027 0.04825,-1.7391839 0.0349,-0.090952 0.15586,-0.1257397 0.437207,-0.1257397 h 0.388956 v 0.5469035 c 0,0.300797 0.143086,1.3917111 0.317969,2.4242531 0.174882,1.0325421 0.317968,1.9711151 0.317968,2.0857171 0,0.118168 0.103234,0.325946 0.238477,0.479978 0.131162,0.149386 0.238476,0.303493 0.238476,0.34246 0,0.05998 2.025202,0.0858 9.300586,0.118587 0.583426,0.0026 0.894487,0.03878 1.033398,0.120114 0.132879,0.0778 0.369945,0.108978 0.71543,0.0941 0.468034,-0.02016 5.04204,-0.03775 6.39912,-0.02462 0.306045,0.003 1.03936,0.0044 1.62959,0.0031 0.590229,-0.0012 1.305659,-2.7e-4 1.589843,0.0022 0.284185,0.0024 1.0175,0.0024 1.62959,-8.7e-5 0.61209,-0.0025 1.345405,0.0038 1.62959,0.01405 0.58188,0.02092 0.963043,-0.0572 1.057221,-0.216679 0.03496,-0.0592 0.169106,-0.107641 0.298096,-0.107641 h 0.234527 v -0.675697 -0.675684 h 0.437207 0.437207 v 0.675684 0.675683 h 0.274272 c 0.15085,0 0.302879,0.04687 0.337842,0.104155 0.03496,0.05729 0.26743,0.151989 0.516593,0.210454 0.365559,0.08577 0.542054,0.08757 0.91416,0.0093 0.303673,-0.06388 0.800437,-0.08089 1.454789,-0.04981 0.546508,0.02596 1.226166,0.04216 1.510351,0.03599 0.57795,-0.01254 2.408844,-0.0103 3.139941,0.0038 0.947523,0.01833 2.662988,-0.08848 2.662988,-0.165816 0,-0.04925 0.572026,-0.06898 1.550193,-0.05346 l 1.550185,0.0246 V 11.05137 c -5.6e-5,-0.926218 0.03479,-1.7757921 0.07743,-1.8879391 0.06177,-0.162448 0.131266,-0.203906 0.341817,-0.203906 0.145367,0 0.307221,0.04293 0.359686,0.09539 0.06737,0.06737 0.09539,0.530839 0.09539,1.5779561 v 1.482565 l 1.05002,0.05543 c 1.588667,0.08387 1.732119,0.111772 1.732119,0.336863 v 0.187925 h 1.351367 c 0.847919,0 1.351367,0.02962 1.351367,0.07949 0,0.04372 0.09837,0.08006 0.218603,0.08076 0.12815,7.47e-4 0.329956,0.09942 0.487725,0.238476 0.310178,0.273398 0.275949,0.270315 1.320722,0.118944 0.437207,-0.06334 1.018494,-0.116306 1.291748,-0.117693 l 0.496826,-0.0025 v 1.271875 c 0,0.699531 -0.02683,1.272538 -0.05962,1.273349 -0.03279,8.11e-4 -0.660357,-0.07762 -1.394587,-0.174295 l -1.334975,-0.175769 -0.198469,0.214042 c -0.142442,0.153614 -0.276815,0.21404 -0.475975,0.21404 -0.173333,0 -0.294669,0.04476 -0.323255,0.119239 -0.03854,0.100427 -0.293755,0.119238 -1.617825,0.119238 -1.505208,0 -1.573834,-0.0068 -1.613635,-0.158984 -0.03579,-0.136828 -0.108436,-0.158985 -0.521286,-0.158985 -0.263835,0 -0.501811,0.03577 -0.52883,0.07949 -0.02702,0.04372 -0.154334,0.07949 -0.282913,0.07949 -0.146838,0 -0.233786,0.04118 -0.233786,0.110733 0,0.173677 -0.186807,0.207235 -1.153607,0.207235 -0.875026,0 -0.902896,0.0054 -0.92753,0.178858 -0.02041,0.143668 -0.08406,0.183711 -0.323502,0.203529 -0.29327,0.02427 -0.298095,0.02009 -0.298095,-0.25835 v -0.283021 h -0.71543 c -0.652265,0 -0.71543,0.01346 -0.71543,0.152483 0,0.289335 -0.09264,0.403962 -0.326474,0.403962 -0.222968,0 -0.229971,-0.0121 -0.229971,-0.397461 v -0.39746 l -1.132763,-0.0057 c -1.201978,-0.0061 -8.133202,-0.0045 -8.704394,0.0019 -0.245616,0.0028 -0.337842,0.03636 -0.337842,0.123048 0,0.06558 -0.0662,0.119238 -0.147123,0.119238 -0.08092,0 -0.259774,0.03927 -0.39746,0.08727 -0.239127,0.08336 -0.250339,0.106501 -0.250339,0.516699 0,0.42415 -0.0029,0.429431 -0.238476,0.429431 -0.234042,0 -0.238477,-0.0076 -0.238477,-0.408571 0,-0.461466 -0.127862,-0.618117 -0.507936,-0.6223 -0.126342,-0.0014 -0.273548,-0.06248 -0.327125,-0.135747 -0.08858,-0.121135 -0.387093,-0.1322 -3.29095,-0.121993 -1.756445,0.0062 -3.227899,0.03246 -3.269895,0.05842 -0.042,0.02595 -0.07636,0.225059 -0.07636,0.442455 0,0.278015 -0.03537,0.408837 -0.119238,0.44102 -0.06558,0.02517 -0.119238,0.09559 -0.119238,0.15649 0,0.0609 -0.03577,0.110733 -0.07949,0.110733 -0.04372,0 -0.07949,0.07154 -0.07949,0.158984 0,0.08744 0.03577,0.158985 0.07949,0.158985 0.13617,0 0.08691,0.188591 -0.114211,0.437207 -0.180608,0.223265 -0.20155,0.230004 -0.328315,0.105658 -0.09107,-0.08934 -0.140552,-0.280301 -0.151132,-0.583296 -0.01535,-0.439657 -0.102245,-0.591372 -0.340375,-0.59429 -0.06592,-8.1e-4 -0.09936,-0.133415 -0.09936,-0.393986 0,-0.216023 -0.02792,-0.410024 -0.06204,-0.431112 -0.03412,-0.02109 -1.505167,-0.04794 -3.268989,-0.05966 -2.824242,-0.01877 -3.217727,-0.0066 -3.297254,0.102183 -0.0615,0.08411 -0.172466,0.111439 -0.347905,0.08569 -0.253457,-0.0372 -0.257601,-0.03275 -0.257601,0.276863 0,0.203893 -0.05118,0.360985 -0.14537,0.446229 -0.180233,0.163109 -0.25209,0.166621 -0.25209,0.01232 0,-0.07949 -0.07949,-0.119238 -0.238477,-0.119238 -0.158984,0 -0.238477,0.03975 -0.238477,0.119238 0,0.06624 -0.07066,0.119239 -0.158984,0.119239 -0.08832,0 -0.158984,-0.053 -0.158984,-0.119239 0,-0.07949 -0.07949,-0.119238 -0.238477,-0.119238 -0.158984,0 -0.238476,0.03975 -0.238476,0.119238 0,0.154944 -0.229765,0.154944 -0.289222,0 -0.06162,-0.160588 -0.5057,-0.160588 -0.5057,0 0,0.154944 -0.229765,0.154944 -0.289222,0 -0.06053,-0.157734 -0.426208,-0.157734 -0.426208,0 0,0.07419 -0.07508,0.119239 -0.19873,0.119239 -0.123655,0 -0.198731,-0.04505 -0.198731,-0.119239 0,-0.07419 -0.07508,-0.119238 -0.19873,-0.119238 -0.123655,0 -0.198731,0.04505 -0.198731,0.119238 0,0.07419 -0.07508,0.119239 -0.19873,0.119239 -0.123655,0 -0.19873,-0.04505 -0.19873,-0.119239 0,-0.07277 -0.07413,-0.119238 -0.190226,-0.119238 -0.104624,0 -0.210816,0.05366 -0.235982,0.119238 -0.03701,0.09645 -0.220938,0.119239 -0.962411,0.119239 -0.630951,0 -0.916655,-0.02813 -0.916655,-0.09025 0,-0.106115 0.371553,-0.466196 0.481049,-0.466196 0.04147,0 0.0754,-0.0737 0.0754,-0.163783 0,-0.140651 -0.0421,-0.160298 -0.298096,-0.139111 -0.265777,0.022 -0.300914,0.05053 -0.324086,0.263148 -0.03424,0.314168 -0.106695,0.37732 -0.359973,0.313752 -0.177452,-0.04454 -0.210228,-0.09635 -0.210228,-0.332306 0,-0.270691 -0.0079,-0.277968 -0.248413,-0.229859 -0.136627,0.02733 -0.458571,0.04968 -0.71543,0.04968 -0.434327,0 -0.467016,0.0128 -0.467016,0.182832 0,0.340078 -0.351834,0.500917 -0.556446,0.254375 -0.08423,-0.101496 -0.481909,-0.119238 -2.672721,-0.119238 h -2.573763 v 0.317968 c 0,0.261624 -0.02731,0.317969 -0.154114,0.317969 -0.165703,0 -0.186441,0.0901 -0.283613,1.232129 -0.09941,1.168309 -0.271954,1.529301 -0.660388,1.381619 -0.14391,-0.05471 -0.572623,-0.04042 -1.40276,0.04676 -4.275925,0.449064 -4.58564,0.489003 -4.654363,0.600197 -0.05723,0.0926 -0.130622,0.09691 -0.404593,0.02379 -0.289836,-0.07736 -0.375528,-0.06804 -0.639516,0.06956 -0.271095,0.141304 -0.425887,0.155729 -1.398593,0.130345 -1.021062,-0.02665 -1.114892,-0.04237 -1.411727,-0.236605 -0.174883,-0.114434 -0.40469,-0.30177 -0.510682,-0.416303 -0.312949,-0.338164 -0.646819,-0.288055 -1.014931,0.152326 -0.165769,0.198312 -0.355349,0.463658 -0.42129,0.589656 -0.270792,0.517422 -0.825689,1.463311 -1.081029,1.842744 -0.360087,0.535089 -0.394883,0.712222 -0.237928,1.211223 0.07249,0.230469 0.115581,0.470125 0.09575,0.532569 -0.01983,0.06244 -0.0561,0.205907 -0.0806,0.318809 -0.04396,0.202536 -0.240327,0.30081 -0.848352,0.424567 -0.11217,0.02283 -0.287557,0.114028 -0.389751,0.20266 -0.206746,0.179309 -0.555782,0.212003 -0.702027,0.06576 z m 0.500801,-0.30207 c 0,-0.145688 -0.04783,-0.205523 -0.179213,-0.224179 -0.107496,-0.01526 -0.19838,0.0245 -0.227109,0.09937 -0.07915,0.206256 0.03179,0.376729 0.227109,0.348993 0.131379,-0.01866 0.179213,-0.07849 0.179213,-0.224179 z m 7.315485,-4.626015 c 0.185464,-0.0845 0.202702,-0.126084 0.156539,-0.377588 -0.02853,-0.155445 -0.08246,-0.314205 -0.11984,-0.352801 -0.11394,-0.117648 -0.317052,0.01429 -0.318343,0.206791 -6.36e-4,0.09974 -0.03439,0.233797 -0.07493,0.297897 -0.138391,0.218812 -0.25628,-0.3177 -0.27888,-1.269182 -0.01194,-0.502788 -0.04914,-1.032439 -0.08265,-1.177002 l -0.06094,-0.262841 -0.223779,0.214395 c -0.283308,0.271425 -0.351583,0.576972 -0.206511,0.924177 0.06962,0.166638 0.09928,0.423332 0.07671,0.664046 -0.03049,0.325213 -0.0027,0.442335 0.162447,0.684031 0.109578,0.160397 0.178438,0.312425 0.153021,0.337842 -0.02542,0.02542 -0.165449,0.04621 -0.311185,0.04621 -0.145736,0 -0.264974,0.03577 -0.264974,0.07949 0,0.1127 1.139789,0.100046 1.393318,-0.01547 z m 21.645614,-4.1024 c 0.02485,-0.175285 0.0064,-0.181992 -0.437207,-0.158984 -0.41446,0.0215 -0.46588,0.04326 -0.489098,0.207026 -0.02485,0.175285 -0.0064,0.181993 0.437207,0.158984 0.41446,-0.02149 0.46588,-0.04326 0.489098,-0.207026 z m -2.496705,0.01552 c 0.311691,-0.119606 0.06327,-0.190225 -0.669182,-0.190225 -0.653602,0 -0.794921,0.0212 -0.794921,0.119238 0,0.09655 0.127348,0.119238 0.669181,0.119238 0.368051,0 0.725766,-0.02171 0.794922,-0.04825 z m 37.566558,-3.29042 c 0,-0.148386 -0.053,-0.158985 -0.794922,-0.158985 -0.63802,0 -0.794922,0.02254 -0.794922,0.114202 0,0.128296 0.239589,0.171754 1.053271,0.191045 0.48782,0.01157 0.536573,-0.0017 0.536573,-0.146262 z"
   id="path301" /></svg>
