<?xml version="1.0" encoding="UTF-8" standalone="no"?>
<svg
   xmlns:dc="http://purl.org/dc/elements/1.1/"
   xmlns:cc="http://creativecommons.org/ns#"
   xmlns:rdf="http://www.w3.org/1999/02/22-rdf-syntax-ns#"
   xmlns:svg="http://www.w3.org/2000/svg"
   xmlns="http://www.w3.org/2000/svg"
   xmlns:sodipodi="http://sodipodi.sourceforge.net/DTD/sodipodi-0.dtd"
   xmlns:inkscape="http://www.inkscape.org/namespaces/inkscape"
   version="1.1"
   x="0px"
   y="0px"
   width="96.583px"
   height="32px"
   viewBox="0 0 96.583 32"
   enable-background="new 0 0 96.583 32"
   xml:space="preserve"
   id="svg197"
   sodipodi:docname="pkm.svg"
   inkscape:version="1.0.2-2 (e86c870879, 2021-01-15)"><metadata
   id="metadata203"><rdf:RDF><cc:Work
       rdf:about=""><dc:format>image/svg+xml</dc:format><dc:type
         rdf:resource="http://purl.org/dc/dcmitype/StillImage" /></cc:Work></rdf:RDF></metadata><defs
   id="defs201" /><sodipodi:namedview
   pagecolor="#ffffff"
   bordercolor="#666666"
   borderopacity="1"
   objecttolerance="10"
   gridtolerance="10"
   guidetolerance="10"
   inkscape:pageopacity="0"
   inkscape:pageshadow="2"
   inkscape:window-width="1842"
   inkscape:window-height="1051"
   id="namedview199"
   showgrid="false"
   inkscape:zoom="8.8952998"
   inkscape:cx="87.688651"
   inkscape:cy="7.7919395"
   inkscape:window-x="-9"
   inkscape:window-y="-9"
   inkscape:window-maximized="1"
   inkscape:current-layer="svg197" />

<g
   id="guides">
</g>
<path
   style="fill:#ffffff;stroke-width:0.0654923"
   d="m 46.934509,27.397495 c -0.27083,-0.01562 -0.367886,-0.05299 -0.467872,-0.180104 L 46.340481,27.05701 h -1.769403 c -1.609191,0 -1.806993,0.01223 -2.184563,0.135035 -0.265048,0.0862 -0.6777,0.148541 -1.141251,0.172393 l -0.726087,0.03736 -0.04344,-1.492821 c -0.0239,-0.821052 -0.04343,-3.108992 -0.04343,-5.08431 0,-2.350664 -0.02263,-3.591489 -0.06549,-3.591489 -0.03821,0 -0.06549,-0.218603 -0.06549,-0.524826 0,-0.288654 -0.03173,-0.576001 -0.07051,-0.638549 -0.04972,-0.08019 -0.0502,-0.166828 -0.0016,-0.293826 0.05938,-0.155232 0.105294,-0.180103 0.332483,-0.180103 h 0.26359 v -0.51592 c 0,-0.608083 -0.06435,-0.70053 -0.441171,-0.633888 -0.135573,0.02397 -0.327544,0.04165 -0.426601,0.03929 -0.215583,-0.0051 -0.570896,-0.0055 -0.818653,-9.35e-4 -0.344445,0.0063 -0.746749,-0.08263 -0.781414,-0.172973 -0.0265,-0.06905 -0.190548,-0.09089 -0.682792,-0.09089 -0.388282,0 -0.647914,0.02624 -0.647914,0.06549 0,0.03602 -0.08842,0.06549 -0.196477,0.06549 -0.108062,0 -0.196477,0.02749 -0.196477,0.06108 0,0.119662 -0.268121,0.146431 -0.426603,0.04259 -0.217572,-0.142559 -0.489691,-0.136512 -0.492371,0.01094 -0.0012,0.06303 -0.04536,0.17182 -0.09824,0.24174 -0.05289,0.06992 -0.09615,0.206303 -0.09615,0.303069 0,0.20329 -0.09612,0.301062 -0.32746,0.333061 -0.154364,0.02135 -0.164851,0.0485 -0.183322,0.474601 -0.01077,0.248575 0.0062,0.477763 0.03776,0.509306 0.03154,0.03155 0.210591,0.0755 0.397882,0.09768 0.317906,0.03765 0.333711,0.04787 0.237861,0.153778 -0.05667,0.06263 -0.238964,0.128811 -0.40691,0.147742 -0.261372,0.02946 -0.346793,0.08034 -0.606222,0.361027 -0.338036,0.365745 -0.269107,0.343648 -1.976076,0.633494 -0.892026,0.151468 -0.98303,0.15615 -1.286016,0.06617 -0.521651,-0.154914 -0.864377,-0.567799 -1.001307,-1.206277 -0.0757,-0.353009 -0.08775,-0.368054 -0.210198,-0.26263 -0.0435,0.03746 -0.209997,0.133239 -0.369982,0.21285 -0.159984,0.07962 -0.344308,0.218424 -0.409609,0.308476 -0.188864,0.260451 -1.251869,4.30621 -1.204544,4.584455 0.02145,0.126073 0.05701,0.325416 0.07906,0.442986 0.02204,0.117569 0.0046,0.299238 -0.03861,0.403708 -0.112925,0.272623 -0.374268,0.358893 -0.938551,0.309818 -0.501222,-0.0436 -1.646655,-0.307338 -2.029548,-0.467321 -0.303452,-0.12679 -0.528971,-0.492882 -0.515493,-0.83682 0.0057,-0.144208 0.324589,-1.385686 0.708752,-2.758838 0.736486,-2.632489 0.795697,-2.973346 0.58573,-3.371781 -0.06383,-0.12112 -0.132439,-0.378997 -0.152467,-0.573058 l -0.03642,-0.352837 h -0.743998 c -0.452336,0 -0.743998,-0.02567 -0.743998,-0.06549 0,-0.0946 -0.548022,-0.0807 -0.645121,0.01638 -0.06219,0.06217 -0.620587,0.0826 -2.321699,0.08494 -2.565172,0.0035 -2.853453,0.04715 -3.767722,0.570256 -0.765649,0.43807 -1.151922,0.90865 -2.253959,2.745904 -0.531137,0.885481 -1.038484,1.657653 -1.127436,1.715937 -0.204404,0.133931 -0.706674,0.137066 -1.088995,0.0068 -0.173635,-0.0592 -0.58126,-0.337804 -1.010415,-0.690651 -0.395646,-0.325297 -0.881452,-0.671165 -1.079566,-0.768597 L 10.7316,17.658911 8.0069081,17.63986 c -3.3374402,-0.02334 -3.1047215,-0.07525 -4.1814707,0.932881 -0.6278702,0.58786 -0.7687119,0.688466 -1.0624608,0.758934 -0.3875928,0.09298 -1.6688373,0.04612 -1.78006216,-0.0651 -0.037727,-0.03773 -0.133972,-0.0686 -0.2138735,-0.0686 -0.35207045,0 -0.35246546,-0.0013 -0.35246546,-1.127383 0,-0.912365 -0.0129216,-1.042917 -0.0999179,-1.009532 -0.0851293,0.03266 -0.0947486,-0.02204 -0.0649894,-0.369573 0.0192135,-0.224357 0.0644664,-0.894198 0.10056869,-1.48854 C 0.41688529,14.138169 0.40917818,13.886359 0.21694583,10.78222 0.09582655,8.8264248 0.10035717,8.563191 0.25883805,8.3483021 0.44139144,8.1007742 0.79245164,7.8678166 0.98291624,7.8678166 c 0.12022676,0 0.15404506,0.035578 0.15404506,0.1620485 0,0.1130709 0.058181,0.1921357 0.1925013,0.2615953 0.1058751,0.05475 0.2376438,0.163997 0.2928192,0.2427701 0.095335,0.1361107 0.1064972,0.1376326 0.2247159,0.030649 0.1033648,-0.093548 0.2337947,-0.1093914 0.7714292,-0.093729 l 0.6470316,0.01885 0.019453,0.3702533 c 0.017494,0.3329669 0.035933,0.3743889 0.1831155,0.4113299 0.090014,0.02259 0.1918603,0.02365 0.2263248,0.0023 0.034465,-0.02129 2.5975303,-0.03613 5.6957022,-0.03295 l 5.63304,0.0057 0.58395,0.38344 c 1.009862,0.6631123 0.71487,0.6225973 4.702765,0.6458833 2.167302,0.01265 3.487461,0.04414 3.487461,0.08316 0,0.03453 0.221036,0.0628 0.491192,0.0628 0.470209,0 0.687166,-0.09973 0.311087,-0.143008 -0.176984,-0.02037 -0.180432,-0.02937 -0.199084,-0.5201643 -0.01723,-0.453429 -0.0037,-0.517588 0.1468,-0.69646 0.175835,-0.2089673 0.22051,-0.4898796 0.135295,-0.8507299 -0.04466,-0.1891311 -0.03475,-0.21285 0.08891,-0.21285 0.08005,0 0.139171,0.041734 0.139171,0.098235 0,0.156497 0.424077,0.1218321 0.705343,-0.057657 0.134362,-0.085742 0.317974,-0.2359009 0.408025,-0.3336843 0.09006,-0.097782 0.244778,-0.2199535 0.343834,-0.2714872 0.09906,-0.051532 0.180104,-0.1308871 0.180104,-0.1763422 0,-0.045456 0.141002,-0.2215277 0.313338,-0.3912723 0.273596,-0.2694815 0.348355,-0.3086256 0.58943,-0.3086256 0.201754,0 0.276093,0.026455 0.276093,0.098235 0,0.074224 0.08005,0.098235 0.327461,0.098235 0.247414,0 0.32746,-0.024011 0.32746,-0.098235 0,-0.068612 0.06913,-0.098235 0.229223,-0.098235 0.160092,0 0.229223,0.029623 0.229223,0.098235 0,0.068612 0.06912,0.098235 0.229223,0.098235 0.207779,0 0.229223,-0.017281 0.229223,-0.1846881 0,-0.1181778 0.08694,-0.2862547 0.241407,-0.466718 l 0.241407,-0.2820299 0.440619,0.04095 c 0.668421,0.062124 2.211525,-0.1244153 2.38613,-0.2884485 0.163183,-0.1533016 0.376004,-0.1668064 0.488705,-0.031011 0.139361,0.16792 1.037697,0.021566 1.19199,-0.1941993 0.02521,-0.035257 0.06394,-0.00603 0.08665,0.065388 0.02257,0.071032 0.06837,0.1803241 0.10176,0.2428723 0.08905,0.1668024 0.07445,0.2464838 -0.04516,0.2464838 -0.07784,0 -0.09542,0.039028 -0.06639,0.1473576 0.02172,0.081044 0.03989,0.2284039 0.04038,0.3274618 l 8.5e-4,0.1801032 h 0.583972 c 0.379925,0 0.592693,0.026163 0.608933,0.074888 0.01873,0.056179 0.05991,0.056179 0.164884,0 0.08961,-0.047961 0.549917,-0.074888 1.280189,-0.074888 1.057094,0 1.148916,-0.00956 1.258809,-0.1309847 C 38.4189,6.2996456 38.50547,6.2958947 41.326548,6.2958947 h 2.904254 V 5.9709702 c 0,-0.3816903 0.215224,-1.001681 0.41106,-1.1841301 0.09063,-0.084436 0.230086,-0.1281713 0.408692,-0.1281713 0.291028,0 6.133214,0.762252 6.351644,0.8287237 0.243079,0.073973 0.505476,0.3028226 0.596218,0.5199969 0.04957,0.118735 0.130757,0.2396075 0.180329,0.2686063 0.04957,0.029 0.425086,0.4505906 0.834483,0.93687 0.409391,0.4862795 0.759617,0.8916584 0.778271,0.9008412 0.06941,0.03417 1.348091,0.9388018 1.459118,1.0322848 0.06345,0.05342 0.154702,0.09713 0.202788,0.09713 0.04806,0 0.173001,0.04086 0.277596,0.09079 0.287887,0.137453 16.135149,0.298786 16.661457,0.169622 0.416232,-0.102149 1.796393,-0.12849 2.013886,-0.03845 0.08104,0.03356 0.147356,0.09994 0.147356,0.147493 0,0.04756 0.06632,0.100015 0.147355,0.116557 0.08104,0.01655 2.921668,0.04417 6.312481,0.0614 l 6.165133,0.03132 0.043,-0.268731 c 0.02549,-0.15935 0.09705,-0.306612 0.175829,-0.361793 0.108819,-0.07622 0.125347,-0.13754 0.09134,-0.3388432 -0.02532,-0.1495676 8.5e-4,-0.4096459 0.06704,-0.664369 0.05974,-0.2302226 0.222957,-0.9490725 0.362824,-1.5974458 0.200958,-0.9316113 0.283612,-1.2028977 0.394096,-1.2934713 0.180699,-0.1481156 0.464718,-0.1462177 0.65066,0.00437 0.132416,0.1072193 0.168445,0.2801257 0.365068,1.7519179 0.119984,0.8981253 0.219234,1.8689467 0.220552,2.1573804 l 0.0025,0.524424 0.311084,0.0025 c 0.171096,0.0014 0.723695,0.04065 1.227977,0.08718 0.527437,0.04867 1.598457,0.07835 2.521452,0.06988 0.882513,-0.008 1.810861,-0.0033 2.063006,0.01057 l 0.458448,0.0253 0.01878,0.6069103 c 0.0158,0.508116 0.0017,0.613476 -0.08625,0.647245 -0.05778,0.02219 -0.1385,0.0069 -0.179297,-0.03386 -0.09425,-0.09424 -0.422451,-0.09695 -0.453517,-0.0037 -0.01589,0.04776 -0.96154,0.08813 -2.935357,0.125302 -2.849106,0.05366 -2.913815,0.05779 -3.002596,0.191514 -0.05804,0.08743 -0.160704,0.136666 -0.284921,0.136666 -0.155614,0 -0.208901,-0.03902 -0.268332,-0.196476 -0.06891,-0.182669 -0.09733,-0.196407 -0.403638,-0.195475 -0.375529,0.0012 -0.467922,0.04309 -0.5026,0.22822 -0.01962,0.104907 -0.08489,0.134899 -0.327696,0.150646 -0.263753,0.01711 -0.321332,-0.0034 -0.443015,-0.158145 l -0.139869,-0.177807 -6.213351,0.04295 c -3.417338,0.02362 -6.26065,0.06111 -6.318458,0.08329 -0.05779,0.02219 -0.105114,0.07784 -0.105114,0.123678 0,0.04584 -0.131848,0.191379 -0.292993,0.323426 -0.21448,0.175754 -0.311822,0.313868 -0.363275,0.515453 -0.118606,0.464748 -0.193787,0.607792 -0.471127,0.896422 -0.377339,0.392691 -0.698377,0.521878 -1.301275,0.523624 -0.273163,8.16e-4 -0.518951,-0.02066 -0.546215,-0.04769 -0.02727,-0.02702 -0.496352,-0.05535 -1.042421,-0.06298 -0.546069,-0.0076 -1.631466,-0.02243 -2.412003,-0.03289 -0.780526,-0.01047 -1.441181,-0.04107 -1.468114,-0.06801 -0.08277,-0.08278 -4.665575,-0.05933 -4.828748,0.02471 -0.07868,0.04053 -0.207665,0.132479 -0.286638,0.204349 -0.138238,0.12581 -0.228538,0.130243 -2.427616,0.119195 -1.76891,-0.0089 -2.342126,-0.03217 -2.5416,-0.103234 -0.361696,-0.128858 -2.124507,-0.127001 -2.484298,0.0026 -0.151853,0.05471 -0.503698,0.09479 -0.837076,0.09537 -0.450154,7.57e-4 -0.583307,0.02233 -0.612814,0.09922 -0.02325,0.06061 -0.122801,0.09824 -0.259914,0.09824 -0.122219,0 -0.222211,0.02947 -0.222211,0.06549 0,0.04124 -0.436616,0.06549 -1.178861,0.06549 -1.004216,0 -1.178862,0.01456 -1.178862,0.09823 0,0.0707 -0.07233,0.09824 -0.258104,0.09824 -0.353821,0 -0.397029,0.112878 -0.128465,0.335608 0.276442,0.229263 0.326269,0.230613 0.581594,0.01577 l 0.205076,-0.172561 0.192148,0.184092 c 0.296209,0.283785 0.306474,0.405609 0.0527,0.625454 l -0.219251,0.189936 0.26197,0.228528 c 0.313684,0.273642 0.39739,0.282106 0.625809,0.06327 l 0.174528,-0.167209 0.197859,0.166493 c 0.266055,0.223865 0.308327,0.461043 0.105824,0.593729 -0.157673,0.10331 -0.206709,0.320032 -0.08889,0.392848 0.0866,0.05352 0.08431,0.229222 -0.0029,0.229222 -0.0889,0 -0.389975,0.301076 -0.389975,0.389978 0,0.03766 -0.03769,0.06847 -0.08378,0.06847 -0.04608,0 -0.126265,0.05893 -0.17819,0.130984 -0.05192,0.07204 -0.129654,0.130984 -0.172731,0.130984 -0.04307,0 -0.08815,0.0221 -0.100157,0.04912 -0.046,0.103501 -0.448384,0.343834 -0.575673,0.343834 -0.160257,0 -0.628797,-0.408936 -0.760625,-0.663863 -0.08683,-0.167914 -0.08387,-0.188142 0.03699,-0.252823 0.14254,-0.07629 0.163538,-0.175396 0.06887,-0.325062 -0.05186,-0.08199 -0.07937,-0.07854 -0.192835,0.02413 -0.190009,0.171956 -0.440983,0.08734 -0.775052,-0.261315 -0.152513,-0.15915 -0.292511,-0.289363 -0.311128,-0.289363 -0.01861,0 -0.03385,0.176829 -0.03385,0.392953 0,0.30563 -0.02183,0.392952 -0.09823,0.392952 -0.08647,0 -0.09824,0.603093 -0.09824,5.034883 0,3.948122 -0.01766,5.049501 -0.08187,5.102611 -0.04502,0.03725 -0.155544,0.06297 -0.245596,0.05713 -0.09005,-0.0058 -0.317502,-0.01946 -0.505445,-0.03031 z m -5.061394,-9.509396 c 0,-0.03929 -0.261969,-0.06549 -0.654921,-0.06549 -0.392954,0 -0.654923,0.02619 -0.654923,0.06549 0,0.03929 0.261969,0.06549 0.654923,0.06549 0.392952,0 0.654921,-0.02619 0.654921,-0.06549 z m 5.763317,-0.03275 c 0,-0.08108 -0.12007,-0.09823 -0.687669,-0.09823 -0.629696,0 -0.764771,0.03205 -0.644007,0.152815 0.02401,0.02401 0.333464,0.04365 0.687668,0.04365 0.528789,0 0.644008,-0.01757 0.644008,-0.09823 z M 33.11421,17.489831 c 0.620984,-0.110985 1.196688,-0.245147 1.279342,-0.29814 0.215568,-0.13821 0.275418,-0.351363 0.275418,-0.980887 0,-0.502357 -0.01535,-0.570748 -0.160753,-0.716151 C 34.347489,15.333924 34.347243,15.3339 32.936404,15.3339 h -1.41106 l 0.0019,0.409326 c 0.0023,0.515236 0.196959,0.921996 0.571925,1.195233 0.349182,0.254449 0.354235,0.346151 0.0083,0.151761 -0.479436,-0.269459 -0.796979,-0.780177 -0.881572,-1.417867 -0.049,-0.36938 -0.10627,-0.402956 -0.415004,-0.243303 -0.291888,0.15094 -0.37164,0.426953 -0.279173,0.966183 0.116072,0.676882 0.325454,1.006461 0.764392,1.203196 0.29155,0.130676 0.573529,0.113833 1.81809,-0.108598 z m 16.748957,-1.042564 c 0,-0.03602 -0.02947,-0.06549 -0.06549,-0.06549 -0.03602,0 -0.06549,0.02947 -0.06549,0.06549 0,0.03602 0.02947,0.06549 0.06549,0.06549 0.03602,0 0.06549,-0.02947 0.06549,-0.06549 z m -1.654514,-0.393702 c 0.01821,-0.104129 -0.08845,-0.310904 -0.133748,-0.259319 -0.01491,0.01696 -0.04714,0.114279 -0.07164,0.216251 -0.0372,0.154856 -0.02536,0.181707 0.0719,0.162978 0.06403,-0.01233 0.124107,-0.0663 0.13348,-0.11991 z m 0.541145,-0.719662 c 0,-0.03602 -0.02947,-0.06549 -0.06549,-0.06549 -0.03602,0 -0.06549,0.02947 -0.06549,0.06549 0,0.03602 0.02947,0.06549 0.06549,0.06549 0.03602,0 0.06549,-0.02947 0.06549,-0.06549 z m -7.138652,-0.651589 c 0,-0.03419 -0.09578,-0.134857 -0.212849,-0.223708 -0.237004,-0.179882 -0.704042,-0.299199 -0.704042,-0.179867 0,0.04003 0.02872,0.07278 0.0638,0.07278 0.0351,0 0.109532,0.08842 0.165413,0.196477 0.08993,0.173895 0.135283,0.196478 0.394635,0.196478 0.161168,0 0.293033,-0.02796 0.293033,-0.06216 z M 12.725812,14.410977 c 0.282368,-0.1587 0.592805,-0.599951 0.59245,-0.8421 -3.93e-4,-0.256802 -0.178046,-0.488868 -1.089585,-1.423173 l -0.842191,-0.863225 -0.372045,-0.04427 c -0.204623,-0.02435 -1.2803338,-0.03009 -2.3904651,-0.01273 -2.1122311,0.033 -2.2716818,0.05311 -2.8775822,0.362923 -0.281946,0.144164 -0.9696071,0.835458 -1.1850524,1.191312 -0.2719218,0.449137 -0.2526398,0.945502 0.053707,1.382519 0.2723417,0.388509 0.2081713,0.382648 4.2083241,0.384279 3.5924186,0.0014 3.6630616,-10e-4 3.9024406,-0.135529 z m 47.293081,-1.377585 c 0.114271,-0.213518 -0.01818,-0.450162 -0.251899,-0.450162 -0.219472,0 -0.341964,0.105565 -0.341964,0.294715 0,0.188204 0.122247,0.294715 0.338253,0.294715 0.11764,0 0.207192,-0.0488 0.25561,-0.139268 z m -3.511979,-0.464735 c 0.140447,-0.200519 0.128521,-0.292272 -0.06288,-0.483664 -0.331181,-0.331181 -0.780884,0.07727 -0.553291,0.502542 0.09863,0.184288 0.482083,0.172541 0.616162,-0.01887 z m 10.122259,-0.431715 c 0,-0.02933 0.663108,-0.04027 1.473578,-0.0243 1.171239,0.02308 1.473572,0.01178 1.473572,-0.05507 0,-0.06659 0.197043,-0.07516 0.945743,-0.04114 0.607355,0.0276 0.960225,0.01951 0.986249,-0.02258 0.02226,-0.03604 0.259804,-0.06555 0.527834,-0.06555 h 0.487328 v -0.191265 c 0,-0.186354 -0.01054,-0.192393 -0.410836,-0.23526 -0.225951,-0.0242 -2.620512,-0.01467 -5.321245,0.02116 -2.921462,0.03878 -4.93561,0.04122 -4.972627,0.006 -0.0868,-0.08249 -1.542338,-0.07649 -1.542338,0.0063 0,0.03602 0.02948,0.06549 0.06549,0.06549 0.036,0 0.06549,0.04421 0.06549,0.09824 0,0.06457 0.0646,0.09824 0.188457,0.09824 0.103651,0 0.225146,0.04421 0.269987,0.09823 0.04486,0.05404 0.188439,0.09957 0.319105,0.101192 0.13067,0.0016 0.325989,0.04343 0.434057,0.09292 0.154533,0.07075 0.71022,0.0911 2.603314,0.09529 1.323757,0.0029 2.406836,-0.01869 2.406836,-0.04801 z m 27.071156,-1.626328 c 0.356723,-0.03015 0.50107,-0.06789 0.50107,-0.130983 0,-0.0721 -0.299273,-0.08863 -1.60456,-0.08863 -1.362034,0 -1.604559,0.01442 -1.604559,0.09548 0,0.07351 0.116771,0.10062 0.50757,0.117804 1.036674,0.04559 1.712979,0.04754 2.200479,0.0063 z M 51.42794,9.0096347 C 51.44209,8.9957147 51.42274,8.9467667 51.38489,8.9008742 51.30543,8.8044702 51.17303,8.1372567 51.17303,7.8332935 V 7.6263763 l -0.769556,-0.079938 c -0.423244,-0.043967 -0.875358,-0.095811 -1.0047,-0.1152184 l -0.235167,-0.035287 0.02973,0.3584653 c 0.01853,0.2234671 0.0023,0.3754337 -0.04317,0.4035211 -0.10702,0.066147 -0.08885,0.2338026 0.02534,0.2338026 0.07486,0 0.09822,0.081839 0.09817,0.3438336 l -5.9e-5,0.3438352 1.064309,-0.02222 c 0.585366,-0.01222 1.075874,-0.03362 1.090012,-0.04754 z M 32.638712,6.1075195 c 0,-0.1530318 -0.190341,-0.17971 -0.79714,-0.111729 -0.348377,0.039028 -0.655371,0.093065 -0.682211,0.1200829 -0.02684,0.027018 0.295034,0.049117 0.715275,0.049117 0.420242,0 0.764076,-0.025861 0.764076,-0.057476 z"
   id="path283" /></svg>
