<?xml version="1.0" encoding="UTF-8" standalone="no"?>
<svg
   xmlns:dc="http://purl.org/dc/elements/1.1/"
   xmlns:cc="http://creativecommons.org/ns#"
   xmlns:rdf="http://www.w3.org/1999/02/22-rdf-syntax-ns#"
   xmlns:svg="http://www.w3.org/2000/svg"
   xmlns="http://www.w3.org/2000/svg"
   xmlns:sodipodi="http://sodipodi.sourceforge.net/DTD/sodipodi-0.dtd"
   xmlns:inkscape="http://www.inkscape.org/namespaces/inkscape"
   version="1.1"
   x="0px"
   y="0px"
   width="77.833px"
   height="32px"
   viewBox="0 0 77.833 32"
   enable-background="new 0 0 77.833 32"
   xml:space="preserve"
   id="svg289"
   sodipodi:docname="ram7.svg"
   inkscape:version="1.0.2-2 (e86c870879, 2021-01-15)"><metadata
   id="metadata295"><rdf:RDF><cc:Work
       rdf:about=""><dc:format>image/svg+xml</dc:format><dc:type
         rdf:resource="http://purl.org/dc/dcmitype/StillImage" /></cc:Work></rdf:RDF></metadata><defs
   id="defs293" /><sodipodi:namedview
   pagecolor="#ffffff"
   bordercolor="#666666"
   borderopacity="1"
   objecttolerance="10"
   gridtolerance="10"
   guidetolerance="10"
   inkscape:pageopacity="0"
   inkscape:pageshadow="2"
   inkscape:window-width="1842"
   inkscape:window-height="1051"
   id="namedview291"
   showgrid="false"
   inkscape:zoom="11.038181"
   inkscape:cx="43.044574"
   inkscape:cy="16.66224"
   inkscape:window-x="-9"
   inkscape:window-y="-9"
   inkscape:window-maximized="1"
   inkscape:current-layer="svg289" />

<g
   id="guides">
</g>
<path
   style="fill:#ffffff;stroke-width:0.0905946"
   d="m 23.016065,31.548459 c -0.173646,-0.03433 -0.491176,-0.568331 -0.491176,-0.826028 0,-0.112794 -0.172587,-0.657126 -0.494024,-1.55813 -0.115543,-0.323876 -0.280581,-0.833471 -0.366749,-1.132433 -0.08617,-0.298963 -0.248393,-0.828941 -0.360498,-1.177731 -0.112105,-0.348789 -0.248662,-0.797232 -0.303459,-0.996541 -0.0548,-0.199308 -0.12963,-0.464297 -0.166295,-0.588865 -0.03666,-0.124567 -0.07266,-0.24687 -0.07998,-0.271784 -0.0073,-0.02491 -0.04511,-0.218559 -0.08398,-0.430324 -0.03886,-0.211765 -0.09748,-0.385027 -0.130263,-0.385027 -0.03278,0 -0.06323,-0.07134 -0.06765,-0.158541 -0.0044,-0.0872 -0.03797,-0.321611 -0.07454,-0.520919 -0.0789,-0.430047 -0.09628,-0.534769 -0.223434,-1.34672 -0.05357,-0.34208 -0.114414,-0.649488 -0.135205,-0.68313 -0.02079,-0.03364 -0.06203,-0.385656 -0.09164,-0.782254 -0.152676,-2.045056 -0.195684,-2.306493 -0.379433,-2.306493 -0.140287,0 -0.649799,-0.151351 -1.690824,-0.502262 -0.551319,-0.185841 -0.79953,-0.208969 -2.347219,-0.218713 -0.951887,-0.006 -1.757536,-0.02748 -1.79033,-0.04775 -0.169031,-0.104467 -1.395007,0.46107 -1.696354,0.78252 -0.109662,0.116979 -0.239988,0.253456 -0.289612,0.303283 -0.112821,0.113282 -0.48882,0.546657 -0.960516,1.107084 -0.9590092,1.13941 -1.6964369,1.766946 -2.1750126,1.850888 -0.099246,0.01741 -0.2061143,0.06688 -0.2374846,0.109941 -0.058707,0.08058 -1.4208267,0.108843 -3.673041,0.07621 C 3.4863422,21.827048 3.4102257,21.815115 3.1564861,21.601607 2.8435989,21.33833 2.8159831,21.15119 2.6783878,18.361735 2.3674846,12.058833 2.3065301,10.770906 2.2635194,9.5958589 L 2.2154363,8.2822359 2.8189039,7.5574789 C 3.5511676,6.6780398 3.9168376,6.2364428 4.3567738,5.7002893 4.540757,5.4760675 4.7571847,5.2416539 4.8377242,5.1793701 4.9527968,5.0903808 7.0766049,5.0661268 14.753908,5.0661268 c 9.221464,0 9.773088,-0.0089 9.829238,-0.1585406 0.110242,-0.2938034 0.333622,-0.3792258 0.999312,-0.382146 0.597375,-0.00262 0.656811,0.013515 0.656811,0.1783081 0,0.1207928 0.0604,0.1811892 0.181189,0.1811892 0.163426,0 0.181189,-0.060396 0.181189,-0.6160435 0,-0.3535317 -0.04568,-0.6617257 -0.107203,-0.7232472 -0.124767,-0.1247669 -0.139671,-0.1073181 0.354626,-0.4151709 0.251153,-0.1564197 0.402133,-0.3246117 0.437892,-0.4878114 0.09717,-0.4434694 0.121039,-0.4755661 0.353681,-0.4755661 0.223349,0 0.229329,-0.016396 0.229329,-0.6288158 0,-1.01546602 0.391826,-0.98763582 0.414542,0.029444 0.01427,0.6387843 0.0673,0.7802315 0.292914,0.7812591 0.246916,0.00112 0.560869,0.6510123 0.560869,1.161008 0,0.6238152 0.0913,1.0125656 0.237811,1.0125656 0.06851,0 0.124568,0.081535 0.124568,0.1811893 0,0.146677 0.0604,0.1811892 0.317081,0.1811892 0.256685,0 0.317081,-0.034512 0.317081,-0.1811892 0,-0.2468408 0.362173,-0.2468408 0.426724,0 0.06881,0.2631355 0.660412,0.2631355 0.660412,0 0,-0.1197113 0.0604,-0.1811893 0.178002,-0.1811893 0.0979,0 0.221638,0.081535 0.274971,0.1811893 0.0635,0.1186426 0.189689,0.1811892 0.365566,0.1811892 0.2082,0 0.268597,-0.040742 0.268597,-0.1811892 0,-0.1328722 0.0604,-0.1811893 0.226486,-0.1811893 0.16609,0 0.226487,0.048317 0.226487,0.1811893 0,0.146677 0.0604,0.1811892 0.317081,0.1811892 0.256685,0 0.317081,-0.034512 0.317081,-0.1811892 0,-0.1328722 0.0604,-0.1811893 0.226487,-0.1811893 0.16609,0 0.226486,0.048317 0.226486,0.1811893 0,0.146677 0.0604,0.1811892 0.317082,0.1811892 0.256684,0 0.317081,-0.034512 0.317081,-0.1811892 0,-0.1234936 0.0604,-0.1811893 0.189671,-0.1811893 0.11348,0 0.208703,0.072783 0.237052,0.1811893 0.03561,0.136151 0.123573,0.1811892 0.353897,0.1811892 0.246119,0 0.306516,-0.035702 0.306516,-0.1811892 0,-0.1234936 0.0604,-0.1811893 0.18967,-0.1811893 0.113481,0 0.208704,0.072783 0.237053,0.1811893 0.06417,0.2453937 0.647045,0.266425 0.627698,0.022649 -0.0087,-0.1095875 0.06434,-0.167392 0.236552,-0.1872067 0.200656,-0.023088 0.249135,0.00776 0.249135,0.1585406 0,0.1535542 0.057,0.1872067 0.317082,0.1872067 0.256684,0 0.317081,-0.034512 0.317081,-0.1811892 0,-0.1328722 0.0604,-0.1811893 0.226486,-0.1811893 0.16609,0 0.226487,0.048317 0.226487,0.1811893 0,0.146677 0.0604,0.1811892 0.317081,0.1811892 0.256685,0 0.317082,-0.034512 0.317082,-0.1811892 0,-0.2412268 0.323872,-0.2412268 0.452973,0 0.136288,0.2546558 0.634162,0.2546558 0.634162,0 0,-0.2468408 0.362173,-0.2468408 0.426724,0 0.06606,0.2525947 0.530012,0.2525947 0.596067,0 0.03202,-0.1224371 0.123572,-0.1811893 0.28235,-0.1811893 0.174571,0 0.234968,0.046573 0.234968,0.1811893 0,0.146677 0.0604,0.1811892 0.317081,0.1811892 0.256685,0 0.317081,-0.034512 0.317081,-0.1811892 0,-0.1207929 0.0604,-0.1811893 0.18119,-0.1811893 0.120792,0 0.181189,0.060396 0.181189,0.1811893 0,0.150991 0.0604,0.1811892 0.362379,0.1811892 0.301981,0 0.362378,-0.030198 0.362378,-0.1811892 0,-0.2468408 0.362173,-0.2468408 0.426724,0 0.06881,0.2631355 0.660412,0.2631355 0.660412,0 0,-0.2468408 0.362173,-0.2468408 0.426723,0 0.06605,0.2525947 0.530012,0.2525947 0.596068,0 0.06674,-0.2552265 0.517318,-0.2552265 0.517318,0 0,0.146677 0.0604,0.1811892 0.317081,0.1811892 0.256684,0 0.317081,-0.034512 0.317081,-0.1811892 0,-0.2468408 0.362173,-0.2468408 0.426723,0 0.06881,0.2631355 0.660413,0.2631355 0.660413,0 0,-0.1234936 0.0604,-0.1811893 0.18967,-0.1811893 0.113481,0 0.208704,0.072783 0.237053,0.1811893 0.06417,0.2453937 0.647045,0.266425 0.627698,0.022649 -0.0087,-0.1095875 0.06434,-0.167392 0.236552,-0.1872067 0.200657,-0.023088 0.249136,0.00776 0.249136,0.1585406 0,0.152385 0.05711,0.1872067 0.307015,0.1872067 0.236792,0 0.304137,-0.036263 0.294432,-0.1585406 -0.0087,-0.1095875 0.06434,-0.167392 0.236553,-0.1872067 0.200656,-0.023088 0.249135,0.00776 0.249135,0.1585406 0,0.1476111 0.05748,0.1872067 0.271784,0.1872067 0.211387,0 0.271784,-0.040264 0.271784,-0.1811892 0,-0.1671332 0.0604,-0.1811893 0.778536,-0.1811893 0.702346,0 0.783172,0.017732 0.825918,0.1811893 0.06417,0.2453937 0.647045,0.266425 0.627697,0.022649 -0.0087,-0.1095875 0.06434,-0.167392 0.236553,-0.1872067 0.200656,-0.023088 0.249135,0.00776 0.249135,0.1585406 0,0.1535542 0.057,0.1872067 0.317081,0.1872067 0.256685,0 0.317082,-0.034512 0.317082,-0.1811892 0,-0.1207929 0.0604,-0.1811893 0.181189,-0.1811893 0.120792,0 0.181189,0.060396 0.181189,0.1811893 0,0.264621 0.629308,0.264621 0.698507,0 0.02723,-0.104112 0.123573,-0.1811893 0.226487,-0.1811893 0.102915,0 0.199261,0.077077 0.226487,0.1811893 0.06764,0.2586673 0.569817,0.2586673 0.569817,0 0,-0.2552265 0.450575,-0.2552265 0.517318,0 0.06417,0.2453937 0.647045,0.266425 0.627698,0.022649 -0.0087,-0.1095875 0.06434,-0.167392 0.236552,-0.1872067 0.200657,-0.023088 0.249136,0.00776 0.249136,0.1585406 0,0.1535542 0.057,0.1872067 0.317081,0.1872067 0.256684,0 0.317081,-0.034512 0.317081,-0.1811892 0,-0.1207929 0.0604,-0.1811893 0.181189,-0.1811893 0.120793,0 0.18119,0.060396 0.18119,0.1811893 0,0.264621 0.629307,0.264621 0.698507,0 0.04167,-0.1593489 0.123573,-0.1811893 0.67946,-0.1811893 0.555888,0 0.637789,0.02184 0.67946,0.1811893 0.03712,0.1419499 0.123573,0.1811892 0.399194,0.1811892 h 0.351813 v -0.511113 c 0,-0.4536362 0.03163,-0.5413427 0.281318,-0.7799539 0.169333,-0.1618241 0.41276,-0.286427 0.611513,-0.3130162 l 0.330196,-0.044173 V 2.0450795 0.85347608 l 0.475622,-0.027383 0.475622,-0.027383 V 2.2348398 c 0,0.9957018 0.03332,1.469449 0.108646,1.5447759 0.05976,0.059755 0.151483,0.2411711 0.203838,0.4031462 0.09012,0.2788203 0.124132,0.2975224 0.638759,0.3512687 0.868304,0.090683 0.825392,0.026725 0.891822,1.329213 0.03228,0.6328675 0.05885,1.7112225 0.05905,2.3963445 2.72e-4,1.004174 0.02483,1.245676 0.126567,1.245676 0.06941,0 0.149665,0.06115 0.178347,0.135892 0.04379,0.114123 0.324903,0.135892 1.754805,0.135892 1.678827,0 1.703911,-0.0029 1.792087,-0.203838 0.100587,-0.229272 -0.323305,-0.213343 3.894404,-0.146343 l 2.083676,0.0331 v 1.1777299 1.177731 l -1.879838,0.02449 c -1.169929,0.01524 -1.879839,-0.0087 -1.879839,-0.06332 0,-0.0483 -0.145225,-0.02713 -0.322723,0.04703 -0.219445,0.09169 -0.559798,0.126451 -1.063549,0.108621 -0.707805,-0.02505 -0.746137,-0.03733 -0.859951,-0.275357 l -0.11912,-0.24914 h -1.535166 -1.535165 v 1.766595 1.766596 H 65.24026 64.198422 v 0.616043 c 0,0.358353 -0.04547,0.661519 -0.108714,0.724757 -0.06188,0.06188 -0.358223,0.108714 -0.687941,0.108714 -0.503037,0 -0.58546,-0.02383 -0.626609,-0.18119 -0.03518,-0.134543 -0.123573,-0.181189 -0.343331,-0.181189 -0.219759,0 -0.308147,0.04665 -0.343331,0.181189 -0.02606,0.09965 -0.116167,0.18119 -0.200237,0.18119 -0.08407,0 -0.174177,-0.08154 -0.200237,-0.18119 -0.0675,-0.258124 -0.619161,-0.258124 -0.686662,0 -0.02723,0.104113 -0.123572,0.18119 -0.226487,0.18119 -0.102913,0 -0.19926,-0.07708 -0.226486,-0.18119 -0.034,-0.130003 -0.123572,-0.181189 -0.317082,-0.181189 -0.193508,0 -0.283084,0.05119 -0.317081,0.181189 -0.06455,0.246841 -0.426723,0.246841 -0.426723,0 0,-0.146677 -0.0604,-0.181189 -0.317081,-0.181189 -0.256685,0 -0.317082,0.03451 -0.317082,0.181189 0,0.132873 -0.0604,0.18119 -0.226486,0.18119 -0.16609,0 -0.226487,-0.04832 -0.226487,-0.18119 0,-0.263135 -0.591601,-0.263135 -0.660412,0 -0.06122,0.234101 -0.307126,0.234101 -0.381426,0 -0.0818,-0.257718 -0.638315,-0.257718 -0.70571,0 -0.06219,0.237822 -0.390781,0.237822 -0.452973,0 -0.06736,-0.257578 -0.567525,-0.254821 -0.635077,0.0035 -0.0449,0.171685 -0.107835,0.182849 -0.893864,0.158541 -0.786054,-0.02431 -0.847517,-0.03983 -0.873277,-0.220525 -0.01524,-0.106908 -0.108148,-0.267173 -0.20646,-0.356144 -0.172095,-0.155744 -0.183591,-0.154856 -0.30877,0.02386 -0.07151,0.102097 -0.259086,0.211443 -0.416834,0.242993 -0.292459,0.05849 -1.169282,0.522986 -1.373454,0.727584 -0.06205,0.06218 -0.214746,0.246061 -0.339314,0.408614 -0.124567,0.162553 -0.267254,0.342989 -0.317081,0.40097 -0.04983,0.05798 -0.269193,0.370408 -0.48748,0.694283 -0.718719,1.066374 -1.142404,1.675318 -1.197626,1.721299 -0.02992,0.02491 -0.160751,0.208367 -0.29073,0.407675 -0.12998,0.199309 -0.422379,0.627368 -0.649775,0.951244 -0.227396,0.323876 -0.564704,0.813087 -0.749572,1.087136 -0.184868,0.274049 -0.408159,0.5773 -0.496201,0.673893 -0.08804,0.09659 -0.160077,0.202467 -0.160077,0.235274 0,0.03281 -0.08338,0.155788 -0.185289,0.27329 -0.101909,0.117502 -0.273877,0.358153 -0.382151,0.534781 -0.108274,0.176627 -0.231314,0.361909 -0.273424,0.411736 -0.04211,0.04983 -0.359166,0.49827 -0.704573,0.996541 -0.853639,1.231426 -0.919292,1.319869 -1.127105,1.518336 -0.54346,0.519018 -1.317744,0.596301 -2.145818,0.214179 -0.283313,-0.130737 -0.538554,-0.237704 -0.567203,-0.237704 -0.02865,0 -0.224908,-0.07889 -0.43613,-0.175319 -0.211222,-0.09643 -0.852867,-0.36329 -1.425878,-0.593031 -1.410949,-0.565701 -1.237519,-0.493828 -2.287515,-0.948001 -0.236678,-0.102375 -0.623971,-0.269101 -0.860649,-0.370503 -0.236679,-0.101402 -0.501114,-0.223705 -0.587636,-0.271783 -0.08652,-0.04808 -0.216915,-0.08742 -0.289765,-0.08742 -0.07285,0 -0.241406,-0.100974 -0.374571,-0.224387 -0.193542,-0.179369 -0.230016,-0.27479 -0.181801,-0.475622 0.06001,-0.249952 0.10662,-0.433062 0.35223,-1.383668 0.179544,-0.694904 0.658401,-2.100129 0.889085,-2.609054 0.106168,-0.234227 0.330495,-0.724408 0.498503,-1.089293 0.168008,-0.364886 0.305469,-0.701218 0.305469,-0.747406 0,-0.04619 0.03082,-0.08398 0.06848,-0.08398 0.03766,0 0.126168,-0.132494 0.196675,-0.294432 0.07051,-0.161938 0.223146,-0.420584 0.339196,-0.574768 0.116051,-0.154185 0.211002,-0.313686 0.211002,-0.354447 0,-0.08051 0.546101,-0.967304 0.641197,-1.041219 0.185214,-0.14396 0.355344,-0.686501 0.355344,-1.133186 0,-0.48139 -0.02116,-0.528879 -0.403527,-0.905837 -0.248197,-0.244684 -0.545707,-0.436098 -0.772893,-0.497273 -0.245197,-0.06603 -1.457177,-0.09042 -3.605286,-0.07256 -3.194727,0.02656 -3.241072,0.02961 -3.640614,0.23954 -0.495863,0.260536 -0.710876,0.503809 -1.081263,1.223373 -0.21907,0.425595 -0.28256,0.658638 -0.269004,0.987399 0.0098,0.236678 0.04636,0.430324 0.08134,0.430324 0.11774,0 0.359998,0.77282 0.359998,1.148418 0,0.393633 -0.09264,0.482286 -0.503955,0.482286 -0.243717,0 -0.294962,-0.132436 -0.333021,-0.860649 -0.01302,-0.249136 -0.06357,-0.448 -0.112332,-0.441921 -0.08209,0.01023 -0.429187,0.535708 -0.561193,0.849597 -0.131251,0.312094 -0.338426,0.452973 -0.66614,0.452973 -0.333368,0 -0.337215,0.0042 -0.392757,0.430324 -0.03085,0.236679 -0.0204,0.65323 0.02321,0.92567 0.04362,0.27244 0.05999,0.54567 0.03639,0.607176 -0.0236,0.06151 -0.01237,0.161255 0.02497,0.221664 0.03734,0.06041 0.07757,0.21524 0.08942,0.344068 0.01184,0.128829 0.05071,0.438072 0.08636,0.687207 0.03565,0.249136 0.06271,0.524317 0.06013,0.611514 -0.0026,0.0872 0.03595,0.158541 0.08562,0.158541 0.04967,0 0.07055,0.03197 0.04641,0.07103 -0.02415,0.03907 0.03628,0.355019 0.134282,0.702108 0.098,0.347091 0.182706,0.743184 0.188234,0.880209 0.0055,0.137024 0.04008,0.249135 0.07678,0.249135 0.0734,0 0.219101,0.612234 0.18865,0.792703 -0.01051,0.06228 0.01456,0.113244 0.0557,0.113244 0.04114,0 0.08279,0.09641 0.09254,0.214244 0.0098,0.117835 0.09713,0.399466 0.194164,0.625848 0.09704,0.226381 0.152308,0.435727 0.122821,0.465214 -0.02949,0.02949 -0.01494,0.05361 0.03232,0.05361 0.04726,0 0.09391,0.09641 0.103665,0.214245 0.0098,0.117834 0.09873,0.403207 0.19773,0.634162 0.099,0.230955 0.159627,0.419918 0.134732,0.419918 -0.0249,0 0.0043,0.09173 0.06488,0.203838 0.177976,0.329357 0.704004,1.909396 0.659599,1.981245 -0.02238,0.03621 -0.162528,0.0926 -0.311439,0.125309 -0.148909,0.0327 -0.270744,0.09425 -0.270744,0.136757 0,0.0811 -0.245929,0.178101 -0.575235,0.2269 -0.107151,0.01588 -0.459809,0.128321 -0.783685,0.249873 -0.323876,0.121553 -0.650016,0.243803 -0.724757,0.271669 -0.07474,0.02786 -0.33973,0.118839 -0.588865,0.202164 -0.249135,0.08332 -0.523763,0.188653 -0.610285,0.234063 -0.08652,0.04541 -0.219016,0.08256 -0.294432,0.08256 -0.07542,0 -0.137121,0.03761 -0.137121,0.08357 0,0.08201 -0.619529,0.332 -0.741686,0.299287 -0.03422,-0.0092 -0.330719,0.0844 -0.658879,0.207916 -0.32816,0.123519 -0.626298,0.219028 -0.662532,0.212243 -0.03623,-0.0068 -0.150605,-0.02909 -0.254161,-0.04956 z m 19.93202,-5.423548 c 0.117821,-0.0772 0.326113,-0.309445 0.462873,-0.516103 0.136761,-0.206659 0.282919,-0.418678 0.324797,-0.471154 0.04188,-0.05248 0.178675,-0.223597 0.303995,-0.380272 0.125319,-0.156673 0.227852,-0.320875 0.227852,-0.364893 0,-0.04402 0.08154,-0.149843 0.181189,-0.23517 0.09965,-0.08533 0.181189,-0.21669 0.181189,-0.291918 0,-0.07523 0.03198,-0.136779 0.07106,-0.136779 0.03908,0 0.148125,-0.132494 0.242312,-0.294432 0.09419,-0.161938 0.198749,-0.314817 0.232358,-0.33973 0.03361,-0.02491 0.341135,-0.452973 0.683391,-0.951244 0.342257,-0.49827 0.654161,-0.919535 0.693122,-0.936144 0.03896,-0.01661 0.07084,-0.06537 0.07084,-0.108349 0,-0.08789 1.098536,-1.68522 1.311801,-1.907432 0.07574,-0.07892 0.137714,-0.174955 0.137714,-0.213409 0,-0.03845 0.09173,-0.185103 0.203837,-0.325885 0.112111,-0.140782 0.305757,-0.404275 0.430325,-0.585539 0.124568,-0.181265 0.327127,-0.455351 0.450133,-0.609081 0.179663,-0.224539 0.224205,-0.384314 0.226487,-0.812411 0.0016,-0.293095 -0.03976,-0.561989 -0.09182,-0.597543 -0.117075,-0.07995 -0.856585,-1.254287 -0.856585,-1.360252 0,-0.04236 -0.103263,-0.174034 -0.229474,-0.292603 -0.195855,-0.183996 -0.351809,-0.223369 -1.064487,-0.268747 -0.811039,-0.05164 -0.84094,-0.04655 -1.041438,0.17714 -0.52517,0.585927 -0.696502,1.44165 -0.428926,2.142289 0.133797,0.350341 0.13955,0.431571 0.03524,0.497639 -0.121239,0.0768 -1.726879,0.1363 -2.682912,0.09943 -0.378285,-0.01459 -0.522989,0.02312 -0.713123,0.185837 -0.289489,0.247744 -0.578747,0.884977 -0.579276,1.276138 -1.81e-4,0.166844 -0.113806,0.457536 -0.271396,0.694598 -0.149054,0.224221 -0.271182,0.470865 -0.271396,0.548097 -1.81e-4,0.07723 -0.03293,0.179151 -0.0727,0.226487 -0.03977,0.04734 -0.145154,0.310286 -0.234178,0.584335 -0.161539,0.497273 -0.220739,0.659569 -0.396558,1.087136 -0.05122,0.124567 -0.161763,0.430324 -0.245644,0.67946 -0.08388,0.249135 -0.187198,0.534508 -0.229594,0.634162 -0.279142,0.656143 -0.443841,1.333857 -0.38984,1.604136 0.07695,0.385132 0.423971,0.727235 0.984956,0.970999 0.246005,0.106896 0.518073,0.233695 0.604594,0.281773 0.08652,0.04808 0.195978,0.08742 0.243238,0.08742 0.04726,0 0.200692,0.04754 0.340959,0.105652 0.140269,0.05811 0.282212,0.109068 0.31543,0.113243 0.03322,0.0042 0.09097,0.03817 0.128342,0.07554 0.113815,0.113815 0.48472,0.07606 0.711313,-0.07241 z M 63.33105,15.514658 c 0.03188,-0.08307 0.02291,-0.186091 -0.01993,-0.22893 -0.04284,-0.04284 -0.706649,-0.0666 -1.475133,-0.0528 -1.37133,0.02463 -1.39778,0.02887 -1.426192,0.228931 l -0.02895,0.203838 h 1.446122 c 1.266333,0 1.453328,-0.01878 1.504082,-0.151042 z M 53.327066,8.2369389 c 0,-0.05911 1.479712,-0.09059 4.257947,-0.09059 h 4.257948 v -0.407675 -0.407676 h -4.257948 c -4.197551,0 -4.257947,-0.0026 -4.257947,-0.1811894 0,-0.1170528 -0.0604,-0.1811893 -0.170624,-0.1811893 -0.09443,0 -0.19178,0.080909 -0.218005,0.1811893 -0.04465,0.1707464 -0.124885,0.1813624 -1.392134,0.1842034 -1.179873,0.0026 -1.369745,0.02386 -1.54859,0.173062 -0.243582,0.203204 -0.24973,0.257217 -0.05391,0.473601 0.132843,0.146791 0.308383,0.165675 1.540109,0.165675 0.866387,0 1.390175,0.03413 1.390175,0.0906 0,0.04983 0.101919,0.0906 0.226487,0.0906 0.124568,0 0.226487,-0.04077 0.226487,-0.0906 z M 43.159705,5.5021135 c -0.05599,-0.1679827 -0.251023,-0.1958439 -0.251023,-0.03586 0,0.078893 0.06455,0.1434415 0.143441,0.1434415 0.07889,0 0.127305,-0.048411 0.107582,-0.1075815 z m 12.139681,-0.056622 c 0.01972,-0.05917 -0.02869,-0.1075811 -0.107581,-0.1075811 -0.07889,0 -0.143441,0.064549 -0.143441,0.1434415 0,0.1599835 0.195028,0.1321223 0.251022,-0.03586 z"
   id="path311" /></svg>
