<?xml version="1.0" encoding="UTF-8" standalone="no"?>
<!-- Generator: Adobe Illustrator 16.0.0, SVG Export Plug-In . SVG Version: 6.00 Build 0)  -->

<svg
   version="1.1"
   x="0px"
   y="0px"
   width="25.458px"
   height="32px"
   viewBox="0 0 25.458 32"
   enable-background="new 0 0 25.458 32"
   xml:space="preserve"
   id="svg657"
   sodipodi:docname="breachcharge.svg"
   inkscape:version="1.2.1 (9c6d41e410, 2022-07-14)"
   xmlns:inkscape="http://www.inkscape.org/namespaces/inkscape"
   xmlns:sodipodi="http://sodipodi.sourceforge.net/DTD/sodipodi-0.dtd"
   xmlns="http://www.w3.org/2000/svg"
   xmlns:svg="http://www.w3.org/2000/svg"><defs
   id="defs661" /><sodipodi:namedview
   id="namedview659"
   pagecolor="#ffffff"
   bordercolor="#000000"
   borderopacity="0.25"
   inkscape:showpageshadow="2"
   inkscape:pageopacity="0.0"
   inkscape:pagecheckerboard="0"
   inkscape:deskcolor="#d1d1d1"
   showgrid="false"
   inkscape:zoom="13.078125"
   inkscape:cx="0.53524492"
   inkscape:cy="15.598566"
   inkscape:window-width="1920"
   inkscape:window-height="1017"
   inkscape:window-x="-8"
   inkscape:window-y="-8"
   inkscape:window-maximized="1"
   inkscape:current-layer="svg657" />

<g
   id="guides">
</g>
<path
   style="fill:#ffffff;stroke-width:0.0449256"
   d="m 6.7946215,30.356803 c -0.3335684,-0.01967 -0.9772943,-0.07715 -1.4304953,-0.127765 -0.807312,-0.09016 -0.826558,-0.09476 -0.950229,-0.227163 l -0.126231,-0.135124 -0.55478,3.13e-4 c -0.388167,2.23e-4 -0.662707,0.02595 -0.914179,0.08571 -0.467933,0.111178 -0.979199,0.156311 -1.321173,0.116619 -0.248919,-0.02888 -0.273682,-0.04136 -0.273682,-0.13809 0,-0.05888 -0.03851,-0.126922 -0.08625,-0.152481 -0.17247998,-0.0923 -0.22774798,-0.545062 -0.09782,-0.80132 0.02135,-0.04213 0.0842,-0.410231 0.139596,-0.817929 0.113822,-0.837551 0.108144,-0.791596 0.201513,-1.632614 0.03795,-0.341981 0.08773,-0.705879 0.110591,-0.808659 0.02288,-0.102779 0.135147,-0.752937 0.249519,-1.444788 0.205119,-1.240786 0.207358,-1.26557 0.164625,-1.819491 -0.09046,-1.172599 0.02965,-3.559371 0.201185,-3.998377 0.05141,-0.131546 0.06529,-0.346835 0.07527,-1.168064 0.0056,-0.457121 0.03655,-1.124265 0.06885,-1.482547 0.03299,-0.365901 0.04722,-0.858179 0.03244,-1.123142 -0.01444,-0.259445 -0.04297,-0.997349 -0.06341,-1.639785 -0.02037,-0.642436 -0.06076,-1.329795 -0.08967,-1.527471 -0.02888,-0.197676 -0.07097,-0.551459 -0.09347,-0.786196 -0.02246,-0.234737 -0.104265,-0.7906887 -0.181709,-1.2354561 -0.158333,-0.9093445 -0.271017,-1.7504123 -0.271554,-2.0268917 -1.82e-4,-0.101719 -0.04458,-0.2912956 -0.09858,-0.4212798 -0.09296,-0.223695 -0.094,-0.2394181 -0.01946,-0.2939118 0.04332,-0.03167 0.10702,-0.1647647 0.141578,-0.2957742 0.05462,-0.2070302 0.05392,-0.2815091 -0.0056,-0.5691497 -0.0376,-0.1820155 -0.106734,-0.455733 -0.153631,-0.6082485 -0.18754,-0.6098456 -0.347331,-1.8537911 -0.250551,-1.9505712 0.01388,-0.013882 0.303433,-0.072979 0.643524,-0.1314141 0.34009,-0.058456 0.830624,-0.1524387 1.090069,-0.2089136 0.450495,-0.098057 0.471142,-0.1076271 0.45897,-0.2126106 -0.01486,-0.1279193 0.17301,-0.3547324 0.384267,-0.4639849 l 0.138027,-0.071375 0.197223,0.2193631 0.197215,0.219356 0.221895,-0.04018 c 0.307903,-0.055735 0.494452,-0.07459 0.794691,-0.080429 0.22126,-0.00419 0.258322,-0.01716 0.258322,-0.08963 0,-0.089533 0.114059,-0.1383549 0.325707,-0.1394013 0.0796,-4.045e-4 0.123545,-0.024624 0.123545,-0.068012 0,-0.037041 0.03969,-0.067385 0.08828,-0.067385 0.1155588,0 0.1812763,-0.12974 0.1812763,-0.3578645 0,-0.1332905 0.021694,-0.1927998 0.078622,-0.2157148 0.1548663,-0.062362 1.2062073,-0.00349 1.3534143,0.076021 0.09865,0.053154 0.1045369,0.076132 0.077806,0.3035869 -0.028461,0.2419782 -0.026717,0.2469238 0.1046347,0.2964928 0.1197857,0.045202 0.1320837,0.067733 0.1192835,0.2187213 -0.012067,0.1423659 3.627e-4,0.1705195 0.08066,0.182699 0.052177,0.00788 0.1960016,-0.044087 0.3195472,-0.1155026 0.5304352,-0.3067543 1.7822978,-0.6199188 2.5607578,-0.6406015 0.678543,-0.017997 1.198773,0.1212088 2.054453,0.5498689 l 0.392199,0.196469 h 0.534467 0.534474 l 0.09854,-0.4264559 c 0.09638,-0.4170667 0.185224,-0.561902 0.344687,-0.561902 0.09141,0 0.884204,0.5673012 1.093432,0.78243 0.110159,0.1132635 0.221351,0.2052583 0.247091,0.2044352 0.09977,-0.00349 0.248968,-0.1748654 0.248968,-0.2864897 0,-0.072226 0.02497,-0.1163468 0.06578,-0.1163468 0.09378,0 0.158821,-0.1447166 0.158821,-0.3534209 0,-0.2022797 0.0056,-0.2056838 0.426791,-0.2707945 0.14826,-0.02288 0.411075,-0.095942 0.584036,-0.1623023 0.69806,-0.2678297 1.306935,0.00488 1.448625,0.6485116 0.02483,0.1129636 0.03572,0.2786002 0.02406,0.3680699 -0.02058,0.1584726 -0.01667,0.1634672 0.151595,0.1930508 0.156498,0.027484 0.520467,0.123434 1.238972,0.326523 0.141675,0.04004 0.289398,0.107948 0.328259,0.1508971 0.03997,0.044156 0.107879,0.068362 0.156276,0.055666 0.04709,-0.012277 0.1758,0.00838 0.286029,0.0459 0.188503,0.064246 0.205048,0.063129 0.278377,-0.017857 0.0429,-0.047364 0.158186,-0.1077457 0.256243,-0.1341486 0.167032,-0.044993 0.187142,-0.039622 0.318577,0.085396 0.07716,0.07337 0.205859,0.147179 0.286002,0.1640112 0.124843,0.026228 0.139325,0.042551 0.101084,0.11401 -0.02455,0.04583 -0.04465,0.092776 -0.04465,0.104251 0,0.01144 0.146573,0.035436 0.325714,0.053224 0.262033,0.026019 0.664507,0.162644 0.786433,0.266916 0.02211,0.018904 -0.128198,0.8171267 -0.279569,1.4843889 -0.152111,0.6705549 -0.210901,1.0542292 -0.227176,1.4825477 -0.0048,0.1235456 -0.04178,0.3560295 -0.0825,0.5166436 -0.04067,0.1606074 -0.128282,0.5346132 -0.194676,0.83112 -0.0664,0.2965068 -0.178981,0.6705136 -0.250209,0.8311281 -0.09593,0.2162934 -0.146956,0.4376374 -0.196783,0.8535818 -0.03697,0.3088667 -0.09524,0.6323267 -0.129412,0.7188107 -0.03927,0.09948 -0.07305,0.447634 -0.09185,0.947808 l -0.02972,0.790564 0.151184,0.09388 c 0.40271,0.250084 0.634343,0.627396 0.635222,1.034732 4.53e-4,0.192298 -0.02525,0.275461 -0.131658,0.426791 l -0.132182,0.187958 0.14312,0.561568 c 0.07871,0.30886 0.26603,0.988351 0.416243,1.509968 0.464927,1.614367 0.509564,1.898261 0.525531,3.341996 0.0136,1.227434 0.01472,1.240234 0.174921,1.971505 0.08869,0.404824 0.192236,0.80132 0.230093,0.8811 0.0662,0.139583 0.0618,0.163524 -0.117052,0.634184 -0.102235,0.269023 -0.205552,0.512926 -0.229596,0.542008 -0.02637,0.03188 -0.105089,0.0429 -0.198171,0.02784 l -0.154462,-0.02504 v 0.304277 c 0,0.277652 0.115454,0.801738 0.227518,1.032779 0.02399,0.04946 0.07861,0.261698 0.121431,0.471721 0.06271,0.307814 0.07538,0.571047 0.06509,1.357342 l -0.01276,0.975466 -0.159268,0.282451 c -0.167067,0.296263 -0.502589,0.765864 -0.565739,0.791806 -0.0203,0.0083 0.05734,0.119541 0.172557,0.247091 0.29788,0.329725 0.361344,0.447829 0.33981,0.632314 -0.01702,0.145937 -0.03823,0.165762 -0.272049,0.254541 -0.310555,0.11791 -1.078407,0.185532 -1.489035,0.131128 -0.160607,-0.02127 -0.928835,-0.04151 -1.70717,-0.04499 -1.117484,-0.0048 -1.495487,0.0086 -1.79703,0.06446 -0.210023,0.03892 -0.482945,0.08958 -0.606491,0.112573 -0.20546,0.03823 -0.232295,0.033 -0.314482,-0.06104 -0.04939,-0.05657 -0.110397,-0.138202 -0.13551,-0.181374 -0.06731,-0.115705 -0.684073,-0.15403 -3.076669,-0.191189 -4.4670625,-0.0694 -5.1322249,-0.06857 -5.6380916,0.0063 -0.2609798,0.03879 -0.5525755,0.0705 -0.6479884,0.0705 -0.143775,0 -0.1779277,0.01779 -0.1995243,0.103811 -0.042272,0.168316 -0.2911076,0.480873 -0.3770684,0.473563 -0.04311,-0.0035 -0.3512585,-0.02274 -0.6848338,-0.04241 z M 10.221992,2.8125349 c 0.180739,-0.09445 0.242369,-0.098942 1.387163,-0.1010841 0.658905,-0.00139 1.21351,-0.017718 1.232456,-0.036692 0.0579,-0.057898 -0.03195,-0.1108988 -0.476213,-0.2809091 -0.606086,-0.231933 -1.009139,-0.2951463 -1.553546,-0.2436381 -0.691404,0.065431 -2.0743465,0.431883 -2.1163399,0.5608208 -0.00838,0.02574 0.1012863,0.070663 0.2437011,0.099884 0.1424147,0.029228 0.2993667,0.061455 0.3487822,0.071584 0.049388,0.010114 0.2372276,0.020787 0.4173527,0.023648 0.2572128,0.00418 0.3680909,-0.015974 0.5166439,-0.093634 z"
   id="path768" /></svg>
