<?xml version="1.0" encoding="UTF-8" standalone="no"?>
<!-- Generator: Adobe Illustrator 16.0.0, SVG Export Plug-In . SVG Version: 6.00 Build 0)  -->

<svg
   version="1.1"
   x="0px"
   y="0px"
   width="25.458px"
   height="32px"
   viewBox="0 0 25.458 32"
   enable-background="new 0 0 25.458 32"
   xml:space="preserve"
   id="svg657"
   sodipodi:docname="stim.svg"
   inkscape:version="1.2.1 (9c6d41e410, 2022-07-14)"
   xmlns:inkscape="http://www.inkscape.org/namespaces/inkscape"
   xmlns:sodipodi="http://sodipodi.sourceforge.net/DTD/sodipodi-0.dtd"
   xmlns="http://www.w3.org/2000/svg"
   xmlns:svg="http://www.w3.org/2000/svg"><defs
   id="defs661" /><sodipodi:namedview
   id="namedview659"
   pagecolor="#ffffff"
   bordercolor="#000000"
   borderopacity="0.25"
   inkscape:showpageshadow="2"
   inkscape:pageopacity="0.0"
   inkscape:pagecheckerboard="0"
   inkscape:deskcolor="#d1d1d1"
   showgrid="false"
   inkscape:zoom="9.2476309"
   inkscape:cx="15.571556"
   inkscape:cy="-3.3522099"
   inkscape:window-width="1920"
   inkscape:window-height="1017"
   inkscape:window-x="-8"
   inkscape:window-y="-8"
   inkscape:window-maximized="1"
   inkscape:current-layer="svg657" />

<g
   id="guides">
</g>
<path
   style="fill:#ffffff;stroke-width:0.045739"
   d="m 11.535294,30.828806 c -0.11939,-0.0382 -0.246058,-0.115176 -0.28148,-0.17104 -0.03541,-0.05588 -0.138377,-0.375042 -0.228789,-0.70927 -0.204304,-0.755256 -0.273876,-0.892089 -0.662904,-1.303735 -0.171419,-0.181382 -0.335244,-0.374747 -0.3640556,-0.429695 -0.02881,-0.05497 -0.05239,-0.295211 -0.05239,-0.533917 0,-0.421245 -0.0041,-0.438046 -0.137217,-0.571226 -0.1372169,-0.137218 -0.1372169,-0.137218 -0.1372169,-1.333218 0,-1.00213 -0.011117,-1.207122 -0.068608,-1.26461 -0.052152,-0.05215 -0.068608,-0.182233 -0.068608,-0.542335 0,-0.360103 0.016455,-0.490181 0.068608,-0.542335 0.086513,-0.0865 0.08658,-0.167442 2.696e-4,-0.332912 -0.097384,-0.186729 -0.094364,-0.874722 0.00447,-1.015814 0.051803,-0.07396 0.063659,-0.147493 0.040364,-0.250304 -0.018146,-0.08008 -0.042082,-0.363318 -0.053191,-0.629432 -0.016685,-0.399603 -0.00778,-0.494152 0.051115,-0.543036 0.091079,-0.07558 0.092906,-0.304352 0.00271,-0.338964 -0.054906,-0.02106 -0.068608,-0.121415 -0.068608,-0.502425 0,-0.367391 0.015665,-0.489096 0.068608,-0.53303 0.037731,-0.03131 0.068608,-0.124267 0.068608,-0.206538 0,-0.09078 -0.026973,-0.159942 -0.068608,-0.175915 -0.054598,-0.02094 -0.068608,-0.118884 -0.068608,-0.479555 0,-0.347068 0.016068,-0.466565 0.068608,-0.510166 0.038788,-0.03221 0.068608,-0.131902 0.068608,-0.229402 0,-0.111102 -0.024409,-0.181829 -0.068608,-0.198792 -0.054258,-0.02083 -0.068608,-0.116343 -0.068608,-0.456685 0,-0.326732 0.016516,-0.444061 0.068608,-0.487291 0.04139,-0.03432 0.068608,-0.134448 0.068608,-0.252277 0,-0.131431 -0.022442,-0.203943 -0.068608,-0.221654 -0.054368,-0.0209 -0.068608,-0.117121 -0.068608,-0.463721 0,-0.346598 0.014241,-0.442855 0.068608,-0.463722 0.078777,-0.03023 0.1001872,-0.473931 0.022876,-0.473931 -0.027407,0 -0.04574,-0.181086 -0.04574,-0.451794 0,-0.345788 0.016099,-0.465143 0.068607,-0.508722 0.038734,-0.03216 0.068608,-0.131855 0.068608,-0.228963 0,-0.133554 -0.020456,-0.177375 -0.091478,-0.195943 -0.08414,-0.02203 -0.091477,-0.06239 -0.091477,-0.503571 0,-0.38416 0.013661,-0.484887 0.068608,-0.505979 0.044859,-0.01719 0.068607,-0.08847 0.068607,-0.205825 0,-0.117354 -0.023751,-0.18861 -0.068607,-0.205826 -0.095093,-0.03651 -0.1013981,-0.967348 -0.0068,-1.003648 0.076611,-0.02939 0.1247313,-2.4719669 0.1273915,-6.4663242 0.00139,-2.0906346 0.014348,-2.6782448 0.060445,-2.7412836 0.03797,-0.051959 0.153564,-0.092062 0.3275994,-0.1137483 0.409612,-0.05105 4.200255,-0.048508 4.335447,0.00297 0.06761,0.025707 0.128626,0.094254 0.14619,0.1642086 0.01657,0.066044 0.0071,2.1390416 -0.02121,4.6066459 -0.04536,3.9614406 -0.04337,4.4953676 0.01687,4.5619436 0.09894,0.109326 0.09861,0.9844 -3.69e-4,1.022386 -0.04484,0.01719 -0.06861,0.08847 -0.06861,0.205825 0,0.117355 0.02375,0.188612 0.06861,0.205829 0.05457,0.02094 0.06861,0.118715 0.06861,0.478064 0,0.393652 -0.0118,0.462382 -0.09147,0.534526 -0.107847,0.09761 -0.120221,0.307987 -0.02288,0.388783 0.05283,0.04387 0.06861,0.164854 0.06861,0.525995 0,0.361145 -0.01577,0.482162 -0.06861,0.526 -0.03774,0.03131 -0.06861,0.113644 -0.06861,0.182957 0,0.06931 0.03087,0.151639 0.06861,0.182956 0.05295,0.04393 0.06861,0.165639 0.06861,0.533038 0,0.380996 -0.01372,0.481352 -0.06861,0.502417 -0.07785,0.02986 -0.09594,0.314423 -0.02288,0.35959 0.02579,0.01593 0.04574,0.23727 0.04574,0.507264 0,0.383575 -0.01366,0.484238 -0.06861,0.50532 -0.04421,0.01695 -0.06861,0.08768 -0.06861,0.198791 0,0.0975 0.02983,0.19721 0.06861,0.229403 0.110259,0.09151 0.09454,0.775254 -0.02287,0.994313 -0.109249,0.203836 -0.11515,0.301275 -0.02288,0.377862 0.05295,0.04393 0.06861,0.165637 0.06861,0.533029 0,0.381006 -0.01372,0.481353 -0.06861,0.502424 -0.03813,0.0146 -0.06861,0.08261 -0.06861,0.153052 0,0.0697 0.03087,0.152345 0.06861,0.183663 0.05283,0.04387 0.06861,0.164854 0.06861,0.526 0,0.361139 -0.01577,0.482156 -0.06861,0.526001 -0.03773,0.03131 -0.06861,0.107342 -0.06861,0.168951 0,0.06161 0.03087,0.142889 0.06861,0.18062 0.05166,0.05166 0.06861,0.179434 0.06861,0.517138 0,0.342888 -0.01616,0.461928 -0.06861,0.505459 -0.08676,0.072 -0.08813,0.247499 -0.003,0.37896 0.08278,0.127846 0.03551,1.043366 -0.05547,1.073689 -0.04218,0.01406 -0.05589,0.321602 -0.05589,1.254289 0,1.235657 0,1.235657 -0.137218,1.363841 -0.132005,0.123307 -0.137218,0.143204 -0.137218,0.52375 0,0.474691 -0.03255,0.547658 -0.420726,0.943567 -0.442899,0.451708 -0.52714,0.633487 -0.893597,1.928293 -0.01233,0.04374 -0.0953,0.1245 -0.184239,0.17948 -0.210256,0.129946 -0.758727,0.160256 -1.074077,0.05938 z M 11.015517,18.835553 c 0.01624,-0.522002 0.02571,-2.189875 0.02108,-3.70639 -0.0062,-2.049687 0.0054,-2.770996 0.04494,-2.810664 0.07292,-0.07292 0.06732,-0.141688 -0.0092,-0.112347 -0.04918,0.01889 -0.06137,-0.03856 -0.05716,-0.269181 0.0048,-0.265962 0.01431,-0.293201 0.101864,-0.293533 0.08371,-3.68e-4 0.100103,-0.03499 0.123464,-0.261466 0.01482,-0.143608 0.0091,-0.282606 -0.01272,-0.308872 -0.02237,-0.02699 -0.02193,-0.205706 10e-4,-0.410411 0.02237,-0.19946 0.02404,-0.384643 0.0038,-0.411519 -0.03151,-0.0417 -0.0082,-0.6087766 0.05295,-1.2859998 0.01039,-0.1145648 -0.0065,-0.2067853 -0.0441,-0.2419336 -0.03344,-0.031249 -0.06227,-0.040545 -0.06403,-0.020701 -0.0018,0.019854 -0.02091,-0.00482 -0.04252,-0.055398 -0.02162,-0.050323 -0.04076,-0.2915125 -0.04252,-0.5359939 -0.0028,-0.4036622 -0.01071,-0.441745 -0.08325,-0.4143069 -0.09698,0.036627 -0.304524,0.2448428 -0.319657,0.3207233 -0.03239,0.1623735 -0.08057,4.9339159 -0.08057,7.9791359 0,3.507476 0,3.507476 0.134339,3.647692 0.0739,0.07712 0.158741,0.140217 0.188564,0.140217 0.03911,0 0.06245,-0.264429 0.08372,-0.949088 z m 2.318288,0.890451 c 0.03962,-0.03065 0.108185,-0.111245 0.152353,-0.179118 0.0741,-0.113866 0.08162,-0.359572 0.09726,-3.178867 0.0093,-1.680503 0.0297,-4.245763 0.04525,-5.700577 0.02831,-2.6451173 0.02831,-2.6451173 -0.130024,-2.7988808 -0.08709,-0.084565 -0.150276,-0.161807 -0.140441,-0.1716488 0.0098,-0.00985 -0.01298,-0.017861 -0.05073,-0.017861 -0.05641,0 -0.06873,0.082049 -0.06931,0.4612068 -7.24e-4,0.4760177 -0.02925,0.5840232 -0.1593,0.6031101 -0.183174,0.026912 -0.205914,0.059981 -0.205914,0.2996647 0,0.1828769 0.0235,0.2636271 0.10059,0.3456977 0.09675,0.1030006 0.100834,0.1446332 0.106823,1.0912043 0.0036,0.541267 -0.0091,0.993555 -0.02769,1.005087 -0.07742,0.04783 0.01704,0.203823 0.123464,0.203823 0.100437,0 0.107522,0.01424 0.08512,0.171521 -0.01343,0.09433 -0.03282,0.933078 -0.04309,1.86387 -0.01028,0.930786 -0.03363,2.675162 -0.0519,3.876383 -0.03523,2.316736 -0.0378,2.284192 0.167509,2.12541 z"
   id="path358" /></svg>
