<?xml version="1.0" encoding="UTF-8" standalone="no"?>
<svg
   xmlns:dc="http://purl.org/dc/elements/1.1/"
   xmlns:cc="http://creativecommons.org/ns#"
   xmlns:rdf="http://www.w3.org/1999/02/22-rdf-syntax-ns#"
   xmlns:svg="http://www.w3.org/2000/svg"
   xmlns="http://www.w3.org/2000/svg"
   xmlns:sodipodi="http://sodipodi.sourceforge.net/DTD/sodipodi-0.dtd"
   xmlns:inkscape="http://www.inkscape.org/namespaces/inkscape"
   version="1.1"
   x="0px"
   y="0px"
   width="75.833px"
   height="32px"
   viewBox="0 0 75.833 32"
   enable-background="new 0 0 75.833 32"
   xml:space="preserve"
   id="svg62"
   sodipodi:docname="aug.svg"
   inkscape:version="1.0.2-2 (e86c870879, 2021-01-15)"><metadata
   id="metadata68"><rdf:RDF><cc:Work
       rdf:about=""><dc:format>image/svg+xml</dc:format><dc:type
         rdf:resource="http://purl.org/dc/dcmitype/StillImage" /></cc:Work></rdf:RDF></metadata><defs
   id="defs66" /><sodipodi:namedview
   pagecolor="#ffffff"
   bordercolor="#666666"
   borderopacity="1"
   objecttolerance="10"
   gridtolerance="10"
   guidetolerance="10"
   inkscape:pageopacity="0"
   inkscape:pageshadow="2"
   inkscape:window-width="1842"
   inkscape:window-height="1051"
   id="namedview64"
   showgrid="false"
   inkscape:zoom="8.1231126"
   inkscape:cx="37.920511"
   inkscape:cy="5.09673"
   inkscape:window-x="-9"
   inkscape:window-y="-9"
   inkscape:window-maximized="1"
   inkscape:current-layer="svg62" />

<g
   id="guides">
</g>
<path
   style="fill:#ffffff;stroke-width:0.123106"
   d="m 25.885935,29.887927 c -0.137563,-2.188014 -0.359019,-5.060166 -0.409406,-5.30975 -0.05006,-0.24798 -0.128788,-0.276987 -0.751738,-0.276987 -0.474708,0 -0.767356,0.06474 -0.920946,0.203738 -0.214079,0.193739 -0.225128,0.182313 -0.225128,-0.232805 0,-0.478326 0.228114,-0.291051 -3.077638,-2.526641 -1.483529,-1.003268 -1.993999,-1.482451 -1.898796,-1.782414 0.06071,-0.191289 0.02305,-0.214153 -0.242851,-0.147418 -0.240648,0.0604 -0.429711,-0.0121 -0.803398,-0.308061 l -0.488689,-0.387049 -0.714467,0.383644 c -2.928241,1.57236 -2.825753,1.441679 -3.232932,4.12232 -0.223496,1.471384 -0.305743,1.765734 -0.566899,2.028846 l -0.305475,0.307764 -5.2189366,0.04198 -5.2189371,0.04198 -0.1469091,-0.274501 C 1.5553886,25.571897 1.5383747,24.915022 1.5995241,23.330037 1.687689,21.04482 1.5126585,15.200642 1.2967839,13.221693 1.2266172,12.578467 1.0927875,11.415119 0.99938448,10.636477 L 0.82956082,9.220765 1.3616234,8.473007 C 1.6542579,8.06174 2.0778814,7.588985 2.3030091,7.422441 3.2554772,6.717828 2.3730331,6.761486 16.40782,6.724621 L 29.364676,6.690591 V 6.39712 c 0,-0.228348 0.184013,-0.409687 0.829224,-0.817174 0.456073,-0.288037 0.905033,-0.599512 0.997688,-0.692167 0.380908,-0.380908 1.130501,-0.652785 1.799797,-0.652785 h 0.681984 l 0.0034,-0.646304 c 0.0031,-0.593359 0.03813,-0.671515 0.427484,-0.954067 0.23325,-0.16927 0.425616,-0.365882 0.42748,-0.436916 0.0059,-0.225719 0.792231,-0.424823 1.67773,-0.424823 h 0.856674 l 0.238859,0.615528 0.238859,0.615527 h 0.943386 c 1.061949,0 1.090155,0.02778 1.093527,1.077173 0.0016,0.498888 0.01884,0.523199 0.370997,0.523199 0.246211,0 0.369316,-0.06155 0.369316,-0.184658 0,-0.101562 0.0831,-0.184659 0.184659,-0.184659 0.101562,0 0.184658,0.0831 0.184658,0.184659 0,0.123105 0.123106,0.184658 0.369317,0.184658 0.246211,0 0.369316,-0.06155 0.369316,-0.184658 0,-0.101562 0.0831,-0.184659 0.184658,-0.184659 0.101563,0 0.184659,0.0831 0.184659,0.184659 0,0.123105 0.123105,0.184658 0.369316,0.184658 0.246211,0 0.369317,-0.06155 0.369317,-0.184658 0,-0.102588 0.109427,-0.184659 0.246211,-0.184659 0.136784,0 0.246211,0.08207 0.246211,0.184659 0,0.123105 0.123105,0.184658 0.369316,0.184658 0.246212,0 0.369317,-0.06155 0.369317,-0.184658 0,-0.101562 0.0831,-0.184659 0.184658,-0.184659 0.101562,0 0.184659,0.0831 0.184659,0.184659 0,0.123105 0.123105,0.184658 0.369316,0.184658 0.246211,0 0.369317,-0.06155 0.369317,-0.184658 0,-0.101562 0.0831,-0.184659 0.184658,-0.184659 0.101562,0 0.184658,0.0831 0.184658,0.184659 0,0.123105 0.123106,0.184658 0.369317,0.184658 0.246211,0 0.369316,-0.06155 0.369316,-0.184658 0,-0.102588 0.109428,-0.184659 0.246211,-0.184659 0.136784,0 0.246211,0.08207 0.246211,0.184659 0,0.123105 0.123106,0.184658 0.369317,0.184658 0.246211,0 0.369317,-0.06155 0.369317,-0.184658 0,-0.101562 0.0831,-0.184659 0.184658,-0.184659 0.101562,0 0.184658,0.0831 0.184658,0.184659 0,0.123105 0.123106,0.184658 0.369317,0.184658 0.246211,0 0.369316,-0.06155 0.369316,-0.184658 0,-0.101562 0.0831,-0.184659 0.184659,-0.184659 0.101562,0 0.184658,0.0831 0.184658,0.184659 0,0.123105 0.123105,0.184658 0.369316,0.184658 0.246211,0 0.369317,-0.06155 0.369317,-0.184658 0,-0.102588 0.109427,-0.184659 0.246211,-0.184659 0.136784,0 0.246211,0.08207 0.246211,0.184659 0,0.123105 0.123106,0.184658 0.369317,0.184658 0.246211,0 0.369316,-0.06155 0.369316,-0.184658 0,-0.101562 0.0831,-0.184659 0.184658,-0.184659 0.101562,0 0.184659,0.0831 0.184659,0.184659 0,0.123105 0.123105,0.184658 0.369316,0.184658 0.246211,0 0.369317,-0.06155 0.369317,-0.184658 0,-0.101562 0.0831,-0.184659 0.184658,-0.184659 0.101562,0 0.184658,0.0831 0.184658,0.184659 0,0.123105 0.123106,0.184658 0.369317,0.184658 0.246211,0 0.369317,-0.06155 0.369317,-0.184658 0,-0.102588 0.109427,-0.184659 0.246211,-0.184659 0.136783,0 0.246211,0.08207 0.246211,0.184659 0,0.123105 0.123105,0.184658 0.369316,0.184658 0.246211,0 0.369317,-0.06155 0.369317,-0.184658 0,-0.101562 0.0831,-0.184659 0.184658,-0.184659 0.101562,0 0.184658,0.0831 0.184658,0.184659 0,0.123105 0.123106,0.184658 0.369317,0.184658 0.246211,0 0.369316,-0.06155 0.369316,-0.184658 0,-0.101562 0.0831,-0.184659 0.184659,-0.184659 0.101562,0 0.184658,0.0831 0.184658,0.184659 0,0.123105 0.123105,0.184658 0.369316,0.184658 0.246212,0 0.369317,-0.06155 0.369317,-0.184658 0,-0.102588 0.109427,-0.184659 0.246211,-0.184659 0.136784,0 0.246211,0.08207 0.246211,0.184659 0,0.123105 0.123106,0.184658 0.369317,0.184658 0.246211,0 0.369316,-0.06155 0.369316,-0.184658 0,-0.101562 0.0831,-0.184659 0.184659,-0.184659 0.101562,0 0.184658,0.0831 0.184658,0.184659 0,0.123105 0.123105,0.184658 0.369316,0.184658 0.246211,0 0.369317,-0.06155 0.369317,-0.184658 0,-0.101562 0.0831,-0.184659 0.184658,-0.184659 0.101562,0 0.184658,0.0831 0.184658,0.184659 0,0.123105 0.123106,0.184658 0.369317,0.184658 0.246211,0 0.369317,-0.06155 0.369317,-0.184658 0,-0.102588 0.109427,-0.184659 0.246211,-0.184659 0.136783,0 0.246211,0.08207 0.246211,0.184659 0,0.123105 0.123105,0.184658 0.369316,0.184658 0.246211,0 0.369317,-0.06155 0.369317,-0.184658 0,-0.101562 0.0831,-0.184659 0.184658,-0.184659 0.101562,0 0.184658,0.0831 0.184658,0.184659 0,0.114898 0.116266,0.184658 0.307764,0.184658 0.191498,0 0.307764,-0.06976 0.307764,-0.184658 0,-0.102588 0.109427,-0.184659 0.246211,-0.184659 0.136784,0 0.246211,0.08207 0.246211,0.184659 0,0.123105 0.123106,0.184658 0.369317,0.184658 0.246211,0 0.369316,-0.06155 0.369316,-0.184658 0,-0.102588 0.109427,-0.184659 0.246211,-0.184659 0.136784,0 0.246211,0.08207 0.246211,0.184659 0,0.114898 0.116266,0.184658 0.307764,0.184658 0.191498,0 0.307764,-0.06976 0.307764,-0.184658 0,-0.102588 0.109427,-0.184659 0.246211,-0.184659 0.136784,0 0.246211,0.08207 0.246211,0.184659 0,0.101562 0.0554,0.184658 0.123105,0.184658 0.263866,0 0.178463,-2.209831 -0.09308,-2.408386 C 64.717029,2.099345 64.68487,1.956974 64.742906,1.725744 l 0.08324,-0.331659 1.070379,0.03552 1.070381,0.03552 0.585478,1.046397 c 0.463811,0.828946 0.586005,1.166404 0.58801,1.623883 0.0014,0.317617 -0.05287,0.611723 -0.120576,0.653569 -0.06771,0.04185 -0.123105,0.454135 -0.123105,0.916199 0,1.030034 0.100667,0.987969 -2.369781,0.990255 -1.127347,0.001 -1.815807,0.04836 -1.815807,0.124787 0,0.06771 0.0831,0.123105 0.184659,0.123105 0.123105,0 0.184658,0.123106 0.184658,0.369317 v 0.369317 h 1.427238 c 1.323707,0 1.43191,0.01786 1.491624,0.246211 0.05829,0.222902 0.167919,0.246211 1.157978,0.246211 0.601475,0 1.093592,-0.05166 1.093592,-0.11481 0,-0.20845 0.516373,-0.283293 0.822862,-0.119266 0.253399,0.135616 0.319334,0.132792 0.4162,-0.01783 0.09788,-0.152196 0.131655,-0.153266 0.22578,-0.0071 0.06965,0.108129 0.195146,0.138637 0.33854,0.0823 0.125322,-0.04924 1.044994,-0.09886 2.043714,-0.110268 l 1.815856,-0.02075 -4.9e-5,1.141699 -4.9e-5,1.141696 -2.831427,-0.01966 c -1.557285,-0.01081 -2.831427,-0.06755 -2.831427,-0.126078 0,-0.058529 -0.494725,-0.1064205 -1.099388,-0.1064205 -1.011577,0 -1.102529,0.02005 -1.138726,0.2510865 -0.02164,0.138098 -0.09199,0.244785 -0.156349,0.237081 -0.224988,-0.02693 -0.322891,0.50523 -0.12868,0.699442 0.126068,0.126067 0.184138,0.439139 0.184138,0.992735 0,0.603056 0.05066,0.845639 0.199289,0.954321 0.176149,0.128803 0.204933,0.695033 0.247874,4.87624 0.03777,3.677837 0.09216,4.947955 0.244389,5.707644 0.185528,0.925842 0.184206,0.985611 -0.02519,1.138726 -0.121548,0.08888 -0.348902,0.161597 -0.505231,0.161597 -0.221114,0 -0.284235,0.06835 -0.284235,0.307764 v 0.307764 h -1.292619 -1.292608 v -0.310891 c 0,-0.244792 -0.07615,-0.326072 -0.358412,-0.382523 -0.444957,-0.08899 -0.482072,-0.218043 -0.579492,-2.014957 -0.06227,-1.148549 -0.02448,-1.739711 0.200268,-3.132594 0.315802,-1.957241 0.296713,-4.153422 -0.04419,-5.083634 -0.272989,-0.744906 -0.03484,-1.291485 0.723181,-1.659758 0.616817,-0.299673 0.703278,-0.464877 0.2433,-0.464877 -0.16927,0 -0.307696,0.04155 -0.307613,0.09233 8.4e-5,0.05078 -0.614413,0.07344 -1.365548,0.05036 l -1.3657,-0.04197 -1.270659,0.626834 c -1.10634,0.545773 -1.387439,0.752555 -2.173734,1.599037 -0.914738,0.984757 -1.664869,2.029142 -3.059434,4.259557 -0.423344,0.67708 -0.870432,1.369549 -0.993526,1.538819 -0.123096,0.16927 -0.458411,0.695546 -0.745143,1.169502 -0.286732,0.473957 -0.595876,0.936766 -0.686985,1.028465 -0.09111,0.0917 -0.27123,0.368686 -0.400269,0.615527 -0.12904,0.246842 -0.459525,0.698091 -0.734413,1.002777 -0.274888,0.304686 -0.499872,0.59459 -0.499966,0.64423 -3.7e-4,0.168017 -1.165644,0.680366 -1.846753,0.811946 -0.395017,0.07631 -2.975901,0.146413 -6.195295,0.168275 -5.396371,0.03665 -5.522349,0.03204 -5.705388,-0.208737 -0.361545,-0.475585 0.0068,-4.094145 0.51611,-5.070674 0.09925,-0.190283 0.180795,-0.416432 0.181212,-0.502555 0.0015,-0.315187 0.758505,-1.816045 1.232764,-2.444197 0.859512,-1.138416 1.129735,-1.728483 1.147608,-2.505956 0.01372,-0.596991 -0.04006,-0.788298 -0.34554,-1.229108 -0.198986,-0.287138 -0.502617,-0.577488 -0.674735,-0.645222 -0.798824,-0.314363 -4.261146,0.197905 -6.829233,1.01042 -1.407079,0.445184 -1.541052,0.604201 -1.56624,1.859002 -0.0089,0.444639 -0.06432,0.581139 -0.273025,0.672804 -0.487083,0.213924 -0.581104,0.871733 -0.543196,3.800448 0.01933,1.493818 0.08263,2.812978 0.140655,2.931467 0.08684,0.177328 0.04819,0.215435 -0.218481,0.215435 -0.53886,0 -0.593371,0.375431 -0.42775,2.946003 l 0.14727,2.285726 0.49539,0.43962 c 0.887034,0.787174 0.826262,0.808938 -2.953395,1.057654 l -1.127989,0.07422 z m 23.637543,-5.189525 c 0.500176,-0.266956 1.416971,-1.292267 1.771379,-1.981047 0.09178,-0.178365 0.200635,-0.352 0.241906,-0.385854 0.04127,-0.03385 0.297458,-0.449335 0.569302,-0.923291 0.271845,-0.473956 0.787538,-1.360316 1.145985,-1.969688 1.723369,-2.92979 1.875946,-3.248519 1.80572,-3.772098 -0.05782,-0.431062 -0.337268,-0.946022 -0.859094,-1.583106 -0.242106,-0.295584 -1.145391,-0.844629 -1.717343,-1.043859 -1.003579,-0.349579 -4.89704,-0.185166 -4.89704,0.206793 0,0.07289 0.118338,0.09412 0.276988,0.04968 0.152343,-0.04267 0.526276,-0.111953 0.830962,-0.153967 l 0.553975,-0.07639 -0.487987,0.42946 c -0.478659,0.421251 -0.488071,0.445687 -0.492422,1.278335 -0.0024,0.466881 0.04312,1.001218 0.10124,1.187415 l 0.105675,0.33854 h -1.059743 c -0.859923,0 -1.059743,0.03482 -1.059743,0.184658 0,0.136139 -0.142207,0.184658 -0.541222,0.184658 -0.464565,0 -0.594884,0.06112 -0.9201,0.431518 -0.208383,0.237334 -0.607529,0.915954 -0.886992,1.508043 -0.279463,0.592088 -0.719823,1.519705 -0.978577,2.061369 -0.8763,1.834409 -1.104909,2.430025 -1.104447,2.877521 6.15e-4,0.612938 0.390103,1.20926 0.887365,1.358653 0.228057,0.06852 1.66784,0.110789 3.297762,0.09683 2.746548,-0.02353 2.919476,-0.03893 3.416451,-0.304173 z M 23.771387,22.177619 c -0.113522,-1.622365 -0.18798,-2.033875 -0.381441,-2.108114 -0.192407,-0.07383 -2.064629,0.240226 -2.488774,0.417483 -0.193217,0.08075 -0.276693,0.218943 -0.276014,0.456937 8.62e-4,0.287589 0.150681,0.442349 0.954068,0.985261 0.524202,0.354245 1.19687,0.811274 1.494817,1.015621 0.297949,0.204346 0.594666,0.371538 0.659373,0.371538 0.07206,0 0.08677,-0.441268 0.03797,-1.138726 z M 74.364806,9.151022 c 0.142561,-0.230668 -0.06407,-0.297792 -1.030473,-0.33474 -0.949331,-0.0363 -1.355883,0.07532 -1.198995,0.329167 0.11068,0.1790849 2.119128,0.1841049 2.229468,0.0056 z M 74.113533,8.543685 c 0.04832,-0.07818 -0.285968,-0.123106 -0.916026,-0.123106 -0.579336,0 -0.99211,0.05122 -0.99211,0.123106 0,0.07104 0.387412,0.123105 0.916026,0.123105 0.503814,0 0.950264,-0.0554 0.99211,-0.123105 z M 37.243429,2.946715 c 0,-0.238598 -0.385636,-0.435201 -0.853645,-0.435201 -0.3205,0 -0.37741,0.04641 -0.37741,0.307764 0,0.287246 0.04104,0.307764 0.615528,0.307764 0.458494,0 0.615527,-0.04601 0.615527,-0.180327 z"
   id="path312" /></svg>
