<?xml version="1.0" encoding="UTF-8" standalone="no"?>
<svg
   xmlns:dc="http://purl.org/dc/elements/1.1/"
   xmlns:cc="http://creativecommons.org/ns#"
   xmlns:rdf="http://www.w3.org/1999/02/22-rdf-syntax-ns#"
   xmlns:svg="http://www.w3.org/2000/svg"
   xmlns="http://www.w3.org/2000/svg"
   xmlns:sodipodi="http://sodipodi.sourceforge.net/DTD/sodipodi-0.dtd"
   xmlns:inkscape="http://www.inkscape.org/namespaces/inkscape"
   version="1.1"
   x="0px"
   y="0px"
   width="67.5px"
   height="32px"
   viewBox="0 0 67.5 32"
   enable-background="new 0 0 67.5 32"
   xml:space="preserve"
   id="svg122"
   sodipodi:docname="fennec.svg"
   inkscape:version="1.0.2-2 (e86c870879, 2021-01-15)"><metadata
   id="metadata128"><rdf:RDF><cc:Work
       rdf:about=""><dc:format>image/svg+xml</dc:format><dc:type
         rdf:resource="http://purl.org/dc/dcmitype/StillImage" /></cc:Work></rdf:RDF></metadata><defs
   id="defs126" /><sodipodi:namedview
   pagecolor="#ffffff"
   bordercolor="#666666"
   borderopacity="1"
   objecttolerance="10"
   gridtolerance="10"
   guidetolerance="10"
   inkscape:pageopacity="0"
   inkscape:pageshadow="2"
   inkscape:window-width="1842"
   inkscape:window-height="1051"
   id="namedview124"
   showgrid="false"
   inkscape:zoom="12.727922"
   inkscape:cx="52.99909"
   inkscape:cy="3.9259984"
   inkscape:window-x="-9"
   inkscape:window-y="-9"
   inkscape:window-maximized="1"
   inkscape:current-layer="svg122" />

<g
   id="guides">
</g>
<path
   style="fill:#ffffff;stroke-width:0.0831604"
   d="M 37.614294,31.365183 C 36.95109,31.11215 36.379232,30.877082 36.343498,30.84281 c -0.117064,-0.112279 0.224979,-1.16231 1.248453,-3.8326 0.113948,-0.2973 0.485812,-1.307699 0.826362,-2.245333 0.340551,-0.937634 0.893734,-2.434523 1.229297,-3.326418 l 0.610111,-1.62163 -1.217763,-0.04158 c -0.964678,-0.03294 -1.275493,-0.07308 -1.495539,-0.193128 -0.228037,-0.12441 -0.268885,-0.186978 -0.228118,-0.349407 0.02823,-0.112456 -0.01013,-0.323234 -0.08886,-0.488327 l -0.138515,-0.290467 0.758322,-1.97968 c 0.417075,-1.088825 0.837895,-2.204214 0.935156,-2.478644 0.09726,-0.274429 0.349564,-0.94121 0.560675,-1.481736 0.296447,-0.75902 0.363802,-1.014624 0.295837,-1.122666 -0.07532,-0.119744 -0.302371,-0.146174 -1.576063,-0.183462 l -1.488067,-0.04357 -0.98638,-0.351447 c -0.542507,-0.193294 -1.052918,-0.351445 -1.134242,-0.351445 -0.354584,0 -0.503927,0.306951 -1.638649,3.367998 -1.046824,2.823927 -1.139795,3.120261 -1.130649,3.603814 0.0094,0.50059 0.001,0.524603 -0.169612,0.481271 -0.27693,-0.07034 -4.017105,-1.628098 -3.913829,-1.630091 0.05154,-9.98e-4 0.155644,-0.408142 0.239652,-0.937315 0.295528,-1.86154 0.828874,-3.314081 1.918816,-5.225801 0.951363,-1.6686456 0.941958,-1.9618962 -0.08985,-2.8011882 -0.431938,-0.3513431 -0.444994,-0.3555959 -1.132039,-0.3687081 -0.569422,-0.01087 -0.758351,0.01956 -1.045182,0.1683321 -0.349275,0.1811596 -0.363106,0.1816022 -5.738072,0.1834237 -5.031723,0.0017 -5.409994,0.011834 -5.721309,0.1532661 -0.633656,0.287864 -0.780629,0.5550786 -1.536621,2.7937464 l -0.697947,2.066779 -0.983338,1.463103 c -0.631917,0.940227 -1.07061,1.510591 -1.227542,1.595982 -0.168256,0.09156 -0.587413,0.150996 -1.347761,0.191136 -0.7096234,0.03746 -1.1265805,0.09393 -1.1680561,0.158184 -0.03548,0.05496 -0.1455404,0.348485 -0.244589,0.652283 -0.1528406,0.468783 -0.2226989,0.572677 -0.4616981,0.686647 -0.3063437,0.146085 -0.6893612,0.102449 -0.6893612,-0.07855 0,-0.07914 -0.079945,-0.09752 -0.2816995,-0.06479 C 7.175113,16.956451 7.0721774,16.9256 6.9270277,16.780413 6.7615875,16.614976 6.7463565,16.537776 6.7898256,16.084981 6.8167189,15.804845 6.9943948,13.274179 7.1846606,10.461277 7.4406734,6.6763666 7.5613334,5.2975648 7.6488341,5.1570891 7.8486682,4.836271 8.6311219,4.9051482 10.056346,5.3690151 l 1.173992,0.3820987 0.421472,-0.1813131 c 0.421034,-0.1811237 0.428265,-0.1813142 6.934154,-0.183139 7.423259,-0.00212 6.837016,0.055093 7.688006,-0.749741 L 26.710317,4.224242 h 1.210804 1.210805 V 3.9849432 c 0,-0.1316141 0.05329,-0.2835286 0.118431,-0.3375883 0.10247,-0.085037 0.10247,-0.1364937 0,-0.3817336 -0.06514,-0.1558942 -0.118431,-0.4530463 -0.118431,-0.6603372 0,-0.2072919 -0.0327,-0.3768935 -0.07269,-0.3768935 -0.03998,0 -0.245708,0.096704 -0.45718,0.2148984 -0.211473,0.1181939 -0.429308,0.1999611 -0.484078,0.1817047 -0.05478,-0.018259 0.116484,-0.156815 0.380564,-0.307906 0.422045,-0.2414703 0.474035,-0.2990649 0.429638,-0.4759604 -0.02788,-0.1110757 0.0051,-0.3209162 0.07346,-0.4683255 0.06819,-0.1468926 0.13475,-0.45418855 0.147918,-0.68287987 0.02302,-0.3997256 0.03407,-0.4167865 0.286113,-0.44125734 0.247728,-0.0240525 0.26533,-0.006774 0.319465,0.31365356 0.04444,0.26304852 0.113011,0.36792194 0.305712,0.46757075 0.140246,0.072525 0.301877,0.2564105 0.371191,0.4223007 0.111445,0.2667232 0.108921,0.3218497 -0.02734,0.5973899 -0.09351,0.1890874 -0.140437,0.4375403 -0.12445,0.6588791 0.03002,0.4156169 0.182237,0.392569 0.182237,-0.027594 0,-0.1573845 0.03702,-0.2861535 0.08228,-0.2861535 0.15464,0 1.156421,0.4298575 1.241949,0.5329113 0.04694,0.056553 0.137123,0.3059457 0.200409,0.5541947 0.08744,0.3429781 0.155792,0.457477 0.28466,0.4768256 0.09327,0.014004 0.188615,0.098204 0.211865,0.1871114 0.05928,0.2266555 0.473166,0.2230249 0.53271,-0.00465 0.05869,-0.2244295 0.405304,-0.2244295 0.463994,0 0.02939,0.1123894 0.113432,0.1663211 0.259179,0.1663211 0.160247,-1e-6 0.215687,-0.042751 0.215687,-0.1663211 0,-0.2314703 0.379368,-0.2314703 0.439899,0 0.06037,0.2308766 0.473556,0.2308766 0.533932,0 0.06054,-0.2314703 0.439899,-0.2314703 0.439899,0 0,0.1293608 0.05544,0.1663201 0.249481,0.1663201 0.194041,0 0.24948,-0.036962 0.24948,-0.1663201 0,-0.1197986 0.05544,-0.1663211 0.198202,-0.1663211 0.128265,0 0.213549,0.058692 0.241697,0.1663211 0.06037,0.2308766 0.473555,0.2308766 0.533931,0 0.05869,-0.2244295 0.405304,-0.2244295 0.463994,0 0.06037,0.2308766 0.473556,0.2308766 0.533931,0 0.06054,-0.2314703 0.439898,-0.2314703 0.439898,0 0,0.1293608 0.05544,0.1663201 0.249481,0.1663201 0.194042,0 0.249482,-0.036962 0.249482,-0.1663201 0,-0.1219695 0.05544,-0.1663211 0.207902,-0.1663211 0.15246,0 0.207901,0.04435 0.207901,0.1663211 0,0.1293608 0.05544,0.1663201 0.249481,0.1663201 0.194042,0 0.249481,-0.036962 0.249481,-0.1663201 0,-0.2314703 0.379368,-0.2314703 0.439899,0 0.06037,0.2308766 0.473556,0.2308766 0.533932,0 0.05869,-0.2244295 0.405303,-0.2244295 0.463993,0 0.0294,0.1123894 0.113432,0.1663201 0.259181,0.1663201 0.160246,0 0.215686,-0.042751 0.215686,-0.1663201 0,-0.1197986 0.05544,-0.1663211 0.198202,-0.1663211 0.128265,0 0.21355,0.058692 0.241697,0.1663211 0.02988,0.1142682 0.113432,0.1663201 0.266965,0.1663201 0.153534,0 0.237085,-0.052056 0.266966,-0.1663201 0.02814,-0.1076327 0.113433,-0.1663211 0.241696,-0.1663211 0.142762,0 0.198202,0.04652 0.198202,0.1663211 0,0.239338 0.49544,0.239338 0.558028,0 0.05633,-0.2154093 0.324503,-0.2154093 0.380834,0 0.06037,0.2308766 0.473555,0.2308766 0.533931,0 0.05869,-0.2244295 0.405304,-0.2244295 0.463994,0 0.02988,0.1142682 0.113431,0.1663201 0.266966,0.1663201 0.153534,0 0.237084,-0.052056 0.266966,-0.1663201 0.02814,-0.1076327 0.113432,-0.1663211 0.241695,-0.1663211 0.142762,0 0.198202,0.04652 0.198202,0.1663211 0,0.1293608 0.05544,0.1663201 0.249482,0.1663201 0.194041,0 0.249481,-0.036962 0.249481,-0.1663201 0,-0.1219695 0.05544,-0.1663211 0.207902,-0.1663211 0.152461,0 0.207901,0.04435 0.207901,0.1663211 0,0.1293608 0.05544,0.1663201 0.249481,0.1663201 0.194041,0 0.249481,-0.036962 0.249481,-0.1663201 0,-0.1197986 0.05544,-0.1663211 0.198202,-0.1663211 0.128265,0 0.21355,0.058692 0.241697,0.1663211 0.03167,0.1211058 0.113432,0.1663201 0.30076,0.1663201 0.201827,0 0.257267,-0.035839 0.257267,-0.1663201 0,-0.1197986 0.05544,-0.1663211 0.198202,-0.1663211 0.128265,0 0.213549,0.058692 0.241696,0.1663211 0.02939,0.1123894 0.113432,0.1663201 0.259181,0.1663201 0.160246,0 0.215686,-0.042751 0.215686,-0.1663201 0,-0.2314703 0.379368,-0.2314703 0.439899,0 0.06259,0.239338 0.558027,0.239338 0.558027,0 0,-0.1219695 0.05544,-0.1663211 0.207901,-0.1663211 0.152461,0 0.207901,0.04435 0.207901,0.1663211 0,0.1304785 0.05544,0.1663201 0.257267,0.1663201 0.187329,0 0.269091,-0.045217 0.300761,-0.1663201 0.02393,-0.091472 0.109609,-0.1663211 0.190416,-0.1663211 0.0808,0 0.166495,0.074844 0.190417,0.1663211 0.06037,0.2308766 0.473556,0.2308766 0.533931,0 0.0587,-0.2244295 0.405304,-0.2244295 0.463995,0 0.0694,0.2654184 0.457531,0.2227434 0.565873,-0.062216 0.04779,-0.1256974 0.143082,-0.2906288 0.211758,-0.3665161 0.111111,-0.1227771 0.110474,-0.1803669 -0.0058,-0.5228104 -0.164626,-0.4848953 -0.188549,-2.69951998 -0.03086,-2.85720511 0.129382,-0.12938165 0.83528,-0.12938165 0.964662,0 0.06919,0.0691943 0.09979,0.50265883 0.09979,1.41372801 0,0.8205162 0.03123,1.3139354 0.08316,1.3139354 0.04573,0 0.08316,-0.1496885 0.08316,-0.3326422 0,-0.4058083 0.04754,-0.4112202 0.802585,-0.091345 0.541606,0.229455 0.576379,0.2610903 0.708426,0.644494 0.07638,0.221757 0.141864,0.4667269 0.145531,0.5443787 0.0052,0.1102227 0.100695,0.1466973 0.435428,0.1663211 l 0.428758,0.025139 0.148863,0.6237039 c 0.08187,0.3430362 0.170986,1.1101921 0.198025,1.7047894 0.02705,0.5945972 0.06966,1.3167844 0.09471,1.6048602 l 0.04555,0.5237735 0.907715,-0.057432 0.907716,-0.057443 v 0.8547901 0.8547894 l -0.885672,-0.05933 -0.885671,-0.059329 0.04701,0.621664 c 0.06298,0.832708 -0.02977,0.971181 -0.65046,0.971181 -0.34693,0 -0.452668,-0.02914 -0.452668,-0.124741 0,-0.167999 -0.464568,-0.167999 -0.529035,0 -0.06247,0.162795 -0.38573,0.162795 -0.38573,0 0,-0.08712 -0.08778,-0.124741 -0.291061,-0.124741 -0.203281,0 -0.291062,0.03762 -0.291062,0.124741 0,0.0693 -0.07393,0.124741 -0.166322,0.124741 -0.0924,0 -0.166321,-0.05544 -0.166321,-0.124741 0,-0.08712 -0.08778,-0.124741 -0.291061,-0.124741 -0.20328,0 -0.291062,0.03762 -0.291062,0.124741 0,0.07762 -0.07854,0.124741 -0.2079,0.124741 -0.129361,0 -0.207902,-0.04713 -0.207902,-0.124741 0,-0.08712 -0.08778,-0.124741 -0.291061,-0.124741 -0.203281,0 -0.291062,0.03762 -0.291062,0.124741 0,0.0693 -0.07393,0.124741 -0.166321,0.124741 -0.0924,0 -0.166321,-0.05544 -0.166321,-0.124741 0,-0.08712 -0.08778,-0.124741 -0.291061,-0.124741 -0.203281,0 -0.291062,0.03762 -0.291062,0.124741 0,0.07762 -0.07854,0.124741 -0.207901,0.124741 -0.129361,0 -0.207901,-0.04713 -0.207901,-0.124741 0,-0.08712 -0.08778,-0.124741 -0.291061,-0.124741 -0.203282,0 -0.291063,0.03762 -0.291063,0.124741 0,0.0693 -0.07392,0.124741 -0.166321,0.124741 -0.0924,0 -0.166321,-0.05544 -0.166321,-0.124741 0,-0.08712 -0.08778,-0.124741 -0.291061,-0.124741 -0.20328,0 -0.291062,0.03762 -0.291062,0.124741 0,0.15493 -0.14478,0.15493 -0.415802,0 -0.329457,-0.188335 -0.415802,-0.153798 -0.415802,0.166321 v 0.291061 l -0.478173,5e-4 c -0.631358,5.82e-4 -1.056976,0.126393 -1.352442,0.39968 -0.163698,0.151411 -0.712449,1.226821 -1.700356,3.332253 -0.802262,1.709746 -1.458657,3.161031 -1.458657,3.225044 0,0.06401 0.05613,0.137923 0.124741,0.16425 0.06861,0.02632 0.12474,0.118708 0.12474,0.205292 0,0.133547 -0.06331,0.157423 -0.417387,0.157423 -0.391256,0 -0.41446,0.01172 -0.370638,0.187112 0.0284,0.113671 -0.08734,0.54615 -0.294895,1.101876 -1.444386,3.867424 -3.89841,10.715428 -3.861398,10.775316 0.02505,0.04053 0.0051,0.149306 -0.04439,0.241726 -0.165246,0.308766 -0.796386,0.221146 -2.163093,-0.300294 z m 1.496888,-12.629441 c 0,-0.19404 -0.02772,-0.2079 -0.415802,-0.2079 -0.388082,0 -0.415803,0.01386 -0.415803,0.2079 0,0.194042 0.02772,0.207902 0.415803,0.207902 0.388083,0 0.415802,-0.01385 0.415802,-0.207902 z M 8.9239343,13.12732 c 0,-0.212274 -0.1431546,-0.29398 -0.2947048,-0.168206 -0.1902275,0.157875 -0.1449995,0.329618 0.086805,0.329618 0.1503532,0 0.2079005,-0.04468 0.2079016,-0.161412 z M 40.378088,9.8375723 C 40.817563,8.7336348 40.864905,8.2156499 40.557827,7.8709825 40.244019,7.5187599 39.955757,7.4674997 38.288856,7.4674997 h -1.576113 l -0.05847,0.266227 c -0.111604,0.5081295 -0.05105,1.4437711 0.123115,1.9021218 0.09222,0.2427095 0.154271,0.4546995 0.137883,0.4710865 -0.05724,0.05724 -0.45915,-0.07868 -0.54753,-0.1851746 -0.04902,-0.059073 -0.145449,-0.3828402 -0.214285,-0.7194936 -0.172388,-0.8431056 -0.43603,-1.1654723 -1.021764,-1.2493584 -0.177888,-0.025477 -0.221637,0.043566 -0.480883,0.7589528 -0.288907,0.7972321 -0.308832,1.1369528 -0.07793,1.3285868 0.0594,0.04929 0.590256,0.256268 1.17969,0.459939 l 1.071698,0.370312 1.578274,-0.0176 1.578273,-0.0176 z m 14.013951,0.6029137 c -0.02475,-0.07453 -0.344526,-0.110518 -1.129596,-0.127155 -0.937309,-0.01985 -1.095068,-0.0049 -1.095068,0.103952 0,0.107858 0.171422,0.127155 1.129597,0.127155 0.866652,0 1.121558,-0.02419 1.095067,-0.103952 z M 47.489668,7.3219689 c 0.02686,-0.08074 -0.319811,-0.1039513 -1.552397,-0.1039513 -1.365433,0 -1.586979,0.017666 -1.586979,0.1265758 0,0.1096152 0.208017,0.1235445 1.552397,0.1039514 1.151516,-0.016787 1.561328,-0.049473 1.586979,-0.1265759 z M 38.071677,6.053772 c 0,-0.1890896 -0.03582,-0.2101975 -0.39586,-0.2332825 -0.414728,-0.026588 -0.551973,0.085121 -0.44549,0.3626146 0.03736,0.097347 0.147546,0.1230534 0.44549,0.1039514 0.360042,-0.023085 0.39586,-0.044191 0.39586,-0.2332835 z M 51.418932,5.0231633 c 0,-0.1094521 -0.0592,-0.2217188 -0.131544,-0.2494811 -0.07235,-0.027764 -0.757173,-0.050478 -1.521835,-0.050478 -1.437142,0 -1.58988,0.033553 -1.58988,0.3492738 0,0.1390277 0.115501,0.1496885 1.62163,0.1496885 h 1.621629 z"
   id="path344" /></svg>
