<?xml version="1.0" encoding="UTF-8" standalone="no"?>
<!-- Generator: Adobe Illustrator 16.0.0, SVG Export Plug-In . SVG Version: 6.00 Build 0)  -->

<svg
   version="1.1"
   x="0px"
   y="0px"
   width="25.458px"
   height="32px"
   viewBox="0 0 25.458 32"
   enable-background="new 0 0 25.458 32"
   xml:space="preserve"
   id="svg657"
   sodipodi:docname="броня.svg"
   inkscape:version="1.2.1 (9c6d41e410, 2022-07-14)"
   xmlns:inkscape="http://www.inkscape.org/namespaces/inkscape"
   xmlns:sodipodi="http://sodipodi.sourceforge.net/DTD/sodipodi-0.dtd"
   xmlns="http://www.w3.org/2000/svg"
   xmlns:svg="http://www.w3.org/2000/svg"><defs
   id="defs661" /><sodipodi:namedview
   id="namedview659"
   pagecolor="#ffffff"
   bordercolor="#000000"
   borderopacity="0.25"
   inkscape:showpageshadow="2"
   inkscape:pageopacity="0.0"
   inkscape:pagecheckerboard="0"
   inkscape:deskcolor="#d1d1d1"
   showgrid="false"
   inkscape:zoom="13.078125"
   inkscape:cx="18.504182"
   inkscape:cy="10.246117"
   inkscape:window-width="1920"
   inkscape:window-height="1017"
   inkscape:window-x="-8"
   inkscape:window-y="-8"
   inkscape:window-maximized="1"
   inkscape:current-layer="svg657" />

<g
   id="guides">
</g>
<path
   style="fill:#ffffff;stroke-width:0.045135"
   d="m 13.989007,31.031156 c -0.0042,-0.004 -1.114689,-0.0022 -2.467528,0.0043 -1.352846,0.0066 -2.7950982,-0.0029 -3.2050119,-0.02114 -0.409922,-0.01821 -1.2735152,-0.03812 -1.9191072,-0.04413 -1.65909,-0.01567 -3.621454,-0.09331 -3.860781,-0.152834 -0.533939,-0.132805 -1.031285,-0.603843 -1.282261,-1.214436 -0.110651,-0.269195 -0.110651,-0.269195 -0.217904,-4.713888 -0.06737,-2.793032 -0.10992295,-5.719494 -0.11446495,-7.875225 -0.0039,-1.886789 -0.0272,-4.141187 -0.05179,-5.009765 -0.02459,-0.868578 -0.03065,-2.0161723 -0.01349,-2.5502064 0.02882,-0.8988409 0.03971,-0.990947 0.14640995,-1.2399172 0.06823,-0.1591191 0.551561,-0.8667414 1.183743,-1.7328924 1.124528,-1.5407242 3.529983,-4.7673221 3.771146,-5.0584808 0.395392,-0.47738643 0.773075,-0.60907791 1.9990908,-0.69706247 1.0400993,-0.0746565 8.9273023,-0.14933517 9.4554863,-0.0895985 0.415727,0.0470345 1.082638,0.26231221 1.240847,0.40050817 0.381402,0.3331566 2.557377,3.0723532 3.335717,4.1991254 0.220693,0.3194754 0.420829,0.6047172 0.444763,0.6338731 0.0239,0.029128 0.121987,0.1698931 0.217887,0.3127504 0.09591,0.1428491 0.400202,0.5787205 0.67621,0.9685977 0.555375,0.7844966 0.674515,1.0536792 0.780033,1.7623402 0.07426,0.4984872 0.20927,9.4735478 0.161064,10.6882308 -0.05032,1.261845 -0.119764,3.689854 -0.151754,5.306198 -0.07549,3.814664 -0.06677,3.662163 -0.242646,4.245512 -0.262672,0.87121 -0.425949,1.060276 -1.180755,1.367247 -0.63085,0.256565 -0.84436,0.289115 -2.008734,0.306262 -0.56013,0.0082 -1.688294,0.04545 -2.507027,0.08278 -1.308351,0.05955 -4.167627,0.142686 -4.188975,0.121891 z M 30.588909,20.094324 c -1.84e-4,-0.01243 0.0098,-0.02273 0.02224,-0.02291 0.01243,-1.84e-4 0.02273,0.0098 0.02291,0.02224 1.85e-4,0.01243 -0.0098,0.02273 -0.02224,0.02291 -0.01243,1.85e-4 -0.02273,-0.0098 -0.02291,-0.02224 z"
   id="path224" /></svg>
