<?xml version="1.0" encoding="UTF-8" standalone="no"?>
<svg
   xmlns:dc="http://purl.org/dc/elements/1.1/"
   xmlns:cc="http://creativecommons.org/ns#"
   xmlns:rdf="http://www.w3.org/1999/02/22-rdf-syntax-ns#"
   xmlns:svg="http://www.w3.org/2000/svg"
   xmlns="http://www.w3.org/2000/svg"
   xmlns:sodipodi="http://sodipodi.sourceforge.net/DTD/sodipodi-0.dtd"
   xmlns:inkscape="http://www.inkscape.org/namespaces/inkscape"
   version="1.1"
   x="0px"
   y="0px"
   width="109.5px"
   height="32px"
   viewBox="0 0 109.5 32"
   enable-background="new 0 0 109.5 32"
   xml:space="preserve"
   id="svg92"
   sodipodi:docname="hdr.svg"
   inkscape:version="1.0.2-2 (e86c870879, 2021-01-15)"><metadata
   id="metadata98"><rdf:RDF><cc:Work
       rdf:about=""><dc:format>image/svg+xml</dc:format><dc:type
         rdf:resource="http://purl.org/dc/dcmitype/StillImage" /></cc:Work></rdf:RDF></metadata><defs
   id="defs96" /><sodipodi:namedview
   pagecolor="#ffffff"
   bordercolor="#666666"
   borderopacity="1"
   objecttolerance="10"
   gridtolerance="10"
   guidetolerance="10"
   inkscape:pageopacity="0"
   inkscape:pageshadow="2"
   inkscape:window-width="1842"
   inkscape:window-height="1051"
   id="namedview94"
   showgrid="false"
   inkscape:zoom="5.5479452"
   inkscape:cx="-3.5499765"
   inkscape:cy="17.535815"
   inkscape:window-x="-9"
   inkscape:window-y="-9"
   inkscape:window-maximized="1"
   inkscape:current-layer="svg92" />

<g
   id="guides">
</g>
<path
   style="fill:#ffffff;stroke-width:0.127454"
   d="m 29.658938,27.185527 c -0.04255,-0.110883 -0.07736,-0.33552 -0.07736,-0.499194 0,-0.163675 -0.06335,-0.318707 -0.140786,-0.344517 -0.10054,-0.03351 -0.0936,-0.20961 0.02428,-0.616028 0.156238,-0.538673 0.339154,-0.913131 1.549547,-3.172134 0.364252,-0.679817 0.525902,-1.15517 0.574287,-1.688763 0.06299,-0.694721 0.04975,-0.742627 -0.205271,-0.742627 -0.238123,0 -0.27261,-0.07255 -0.27261,-0.573542 V 18.97518 H 30.034359 28.9577 l -0.730012,1.019631 -0.730011,1.01963 h -1.477138 -1.477136 l -0.737445,-1.01963 -0.737444,-1.019631 h -0.630811 c -0.610747,0 -0.630811,0.01173 -0.630811,0.368725 0,0.455574 -0.162603,0.523452 -1.25394,0.523452 -1.037098,0 -1.559236,0.140474 -2.239338,0.602465 -0.462607,0.314246 -1.440262,1.243307 -1.800799,1.711291 -0.2181,0.283097 -0.95116,1.862941 -0.95116,2.049879 0,0.09555 -0.06184,0.235559 -0.137418,0.311139 -0.07558,0.07558 -0.118596,0.302129 -0.09559,0.503442 0.03936,0.344411 0.08322,0.369788 0.742823,0.429752 0.594785,0.05407 0.700996,0.102349 0.700996,0.318634 0,0.251199 -0.09597,0.255388 -6.595735,0.287918 l -6.5957344,0.03301 v 0.362323 c 0,0.360669 -0.00455,0.362675 -0.9960592,0.439134 -0.5478325,0.04225 -1.1481121,0.134621 -1.3339546,0.205279 -0.26527655,0.100858 -0.38249765,0.08386 -0.54542995,-0.07907 -0.2255648,-0.225562 -0.2288076,-0.157965 0.1546719,-3.224128 0.22165735,-1.772291 0.17524585,-4.200386 -0.1242463,-6.500145 -0.105137,-0.807333 -0.1297892,-1.426753 -0.062138,-1.561309 0.09381,-0.186584 0.3093331,-0.226169 1.31846795,-0.242162 0.6634798,-0.01052 1.2780197,-0.02485 1.3656442,-0.03186 0.1044468,-0.0084 0.1725853,0.21771 0.1978414,0.656387 l 0.038524,0.669132 h 1.2629154 1.2629152 l 0.036826,-1.115221 0.036826,-1.115221 h 6.6275984 6.627598 l -0.01187,0.700996 c -0.0065,0.385548 -0.05623,0.830043 -0.110455,0.987767 -0.09798,0.284992 -0.09059,0.286772 1.190811,0.286772 h 1.289406 v 0.318634 c 0,0.175249 0.05735,0.318635 0.127454,0.318635 0.0701,0 0.127454,-0.223148 0.127454,-0.495885 v -0.495884 l 0.987767,-0.05075 c 0.543272,-0.02791 1.317553,-0.02729 1.720626,0.0014 0.613781,0.04367 0.73286,0.09107 0.73286,0.291726 0,0.225139 0.131402,0.239589 2.178647,0.239589 2.083346,0 2.181611,0.01134 2.246416,0.25915 0.06489,0.248147 0.130678,0.255544 1.549377,0.174214 0.814884,-0.04671 1.540453,-0.131016 1.612374,-0.187334 0.07192,-0.05632 0.287001,-0.08525 0.477952,-0.06429 0.334174,0.03668 0.347185,0.01563 0.347185,-0.561878 0,-0.784689 0.222567,-0.968811 1.306402,-1.080749 0.598101,-0.06177 0.860313,-0.141826 0.860313,-0.262661 0,-0.282815 0.530599,-0.570624 1.05199,-0.570624 0.313942,0 0.511375,-0.06755 0.558819,-0.191181 0.04035,-0.105149 0.170413,-0.191181 0.289031,-0.191181 0.130782,0 0.279157,-0.175576 0.376975,-0.446088 0.08872,-0.245349 0.241913,-0.446088 0.340433,-0.446088 0.09852,0 0.309885,-0.228976 0.469701,-0.508834 l 0.290577,-0.508834 1.499312,-9.81e-4 c 0.972233,-6.37e-4 1.59417,0.05503 1.769142,0.158336 0.215865,0.127453 0.28137,0.127453 0.327527,0 0.07402,-0.204406 12.272019,-0.236077 12.272019,-0.03186 0,0.0701 0.114709,0.127454 0.254908,0.127454 0.140199,0 0.254908,-0.05735 0.254908,-0.127454 0,-0.07553 0.467331,-0.127454 1.147084,-0.127454 h 1.147084 v -0.892177 -0.892176 h -0.573542 c -0.408507,0 -0.573542,0.0517 -0.573542,0.179664 0,0.129532 -0.161745,0.17722 -0.579663,0.170902 -0.472776,-0.0071 -0.66538,-0.08728 -1.044536,-0.434572 -0.46188,-0.4230659 -0.473043,-0.4258099 -1.732319,-0.4258099 -1.060008,0 -1.29413,0.03651 -1.430493,0.2230449 -0.134148,0.183508 -0.430329,0.234417 -1.67095,0.287209 -0.870124,0.03703 -1.628645,0.132967 -1.793375,0.226833 -0.239469,0.136455 -0.337555,0.128542 -0.608671,-0.0491 -0.303071,-0.198579 -0.338872,-0.197585 -0.574841,0.01597 -0.234511,0.212229 -0.26751,0.213373 -0.484722,0.0168 -0.293685,-0.265781 -0.400366,-0.264883 -0.59773,0.005 -0.148098,0.202535 -0.179361,0.201913 -0.502781,-0.01 -0.325579,-0.213327 -0.358334,-0.213773 -0.585728,-0.008 -0.224917,0.203548 -0.262224,0.203984 -0.56347,0.0066 -0.306062,-0.20054 -0.348331,-0.196573 -0.824292,0.07736 l -0.501689,0.288735 -0.35792,-0.266794 C 42.194831,9.9143851 41.996007,8.4513781 42.661519,7.1578861 c 0.201537,-0.391707 0.517188,-0.824125 0.701446,-0.96093 0.319756,-0.237406 0.355588,-0.238974 0.786645,-0.03442 0.351464,0.166781 0.510369,0.182875 0.716478,0.07257 0.185327,-0.09918 0.338881,-0.102123 0.511412,-0.0098 0.154807,0.08285 0.358882,0.08925 0.548386,0.0172 0.187971,-0.07147 0.388676,-0.06615 0.532073,0.0141 0.157326,0.08804 0.326759,0.08488 0.534971,-0.01 0.218818,-0.0997 0.390004,-0.09998 0.607235,-0.001 0.21959,0.100052 0.376803,0.09807 0.573542,-0.0072 0.190494,-0.10195 0.344283,-0.105846 0.517558,-0.01311 0.135591,0.07257 0.881195,0.131939 1.6569,0.131939 0.855277,0 1.41037,0.05016 1.41037,0.127453 0,0.0701 0.08783,0.127454 0.195181,0.127454 0.10735,0 0.228194,0.08603 0.268544,0.191181 0.0584,0.152187 0.331636,0.19118 1.339645,0.19118 1.268836,0 1.323779,-0.01584 1.911492,-0.551243 0.371309,-0.338259 1.056622,-0.41727 1.440065,-0.166028 0.17414,0.114101 0.4925,0.207456 0.707465,0.207456 0.214964,0 0.418235,0.07169 0.451711,0.159318 0.04178,0.109364 0.294185,0.146084 0.805005,0.117113 0.55129,-0.03127 0.796367,0.01002 0.945661,0.159317 0.151983,0.151982 0.466727,0.201521 1.280347,0.201521 1.168189,0 1.233551,-0.04025 1.233551,-0.75954 0,-0.519007 0.254636,-0.66132 1.104468,-0.617269 l 0.743612,0.03855 0.03845,0.526473 0.03845,0.526474 0.841524,-0.06755 c 0.708206,-0.05685 0.867703,-0.03175 1.006766,0.158432 0.137097,0.18749 0.291137,0.213911 0.90438,0.155119 1.215656,-0.116547 5.634416,-0.588044 6.729469,-0.718058 0.560796,-0.06658 2.212052,-0.124151 3.669457,-0.127931 2.522081,-0.0065 2.668055,-0.02035 3.027904,-0.286395 0.623922,-0.461286 0.689628,-0.259159 0.735039,2.261102 l 0.04008,2.2243969 -3.290151,-0.0041 c -1.862667,-0.0023 -4.036673,-0.0809 -5.010778,-0.181069 -0.946345,-0.09731 -2.609617,-0.2662839 -3.696161,-0.3754929 -1.086544,-0.109209 -2.219289,-0.22737 -2.517213,-0.262581 l -0.541678,-0.06402 v 1.2720999 1.2721 h 4.843244 c 4.220138,0 4.843245,0.0246 4.843245,0.191181 0,0.106211 0.113293,0.19118 0.254908,0.19118 0.141615,0 0.254908,-0.08497 0.254908,-0.19118 0,-0.286671 4.814602,-0.286671 4.924607,0 0.09528,0.248282 0.428453,0.248282 0.428453,0 0,-0.286671 4.814602,-0.286671 4.924608,0 0.09528,0.248282 0.428452,0.248282 0.428452,0 0,-0.163403 0.361119,-0.191181 2.48535,-0.191181 2.12423,0 2.485349,0.02778 2.485349,0.191181 0,0.106211 0.113292,0.19118 0.254908,0.19118 0.141615,0 0.254907,-0.08497 0.254907,-0.19118 0,-0.163055 0.347167,-0.191181 2.359769,-0.191181 h 2.359769 l 0.238382,0.391988 c 0.13111,0.215593 0.546085,0.792311 0.922167,1.281596 l 0.683785,0.889609 3.951069,-0.02698 c 2.17309,-0.01484 4.36923,0.01912 4.88031,0.07546 l 0.92925,0.102431 -0.0371,0.905254 -0.0371,0.905254 -0.84689,0.03738 c -0.71595,0.0316 -0.85697,0.07594 -0.91211,0.286771 -0.0548,0.209672 -0.17761,0.249391 -0.77092,0.249391 -0.56344,0 -0.74203,-0.05188 -0.88595,-0.257347 -0.17315,-0.247206 -0.29524,-0.255996 -3.09798,-0.223045 l -2.917732,0.0343 -0.03731,0.91718 c -0.03173,0.780144 -0.07458,0.929009 -0.286771,0.996355 -0.137205,0.04355 -0.249463,0.132665 -0.249463,0.198041 0,0.07028 -1.276262,0.118865 -3.122618,0.118865 -1.996777,0 -3.122619,-0.04595 -3.122619,-0.127454 0,-0.0701 -0.114708,-0.127454 -0.254907,-0.127454 -0.1402,0 -0.254908,0.05736 -0.254908,0.127454 0,0.08061 -0.913419,0.127454 -2.485349,0.127454 -1.57193,0 -2.48535,-0.04684 -2.48535,-0.127454 0,-0.0701 -0.08603,-0.127454 -0.191181,-0.127454 -0.105149,0 -0.19118,0.05736 -0.19118,0.127454 0,0.201749 -4.933921,0.170352 -5.007152,-0.03186 -0.04616,-0.127454 -0.111662,-0.127454 -0.327527,0 -0.162106,0.09571 -0.728471,0.159317 -1.418644,0.159317 h -1.148814 l -0.0069,0.350498 c -0.04823,2.466208 -0.05333,2.512479 -0.282323,2.556862 -0.160637,0.03114 -0.282008,-0.09653 -0.422188,-0.444064 -0.571546,-1.417005 -0.59979,-1.443664 -1.529498,-1.443664 -0.328038,0 -0.563118,-0.05913 -0.563118,-0.141639 0,-0.09438 -0.157835,-0.112028 -0.473074,-0.05289 -0.26019,0.04881 -2.109864,0.198577 -4.110385,0.332811 -2.000522,0.134233 -5.788095,0.392749 -8.41683,0.574479 -5.679042,0.392602 -7.020222,0.44353 -7.233004,0.274649 -0.256543,-0.203614 -0.224781,2.750661 0.03186,2.963658 0.105149,0.08727 0.19118,0.321014 0.19118,0.519442 0,0.633935 -0.402402,0.710713 -4.588337,0.87544 -2.067938,0.08138 -4.388992,0.207676 -5.157898,0.28066 -1.006589,0.09555 -1.411021,0.09367 -1.444477,-0.0067 -0.02556,-0.07666 -0.127718,-0.139392 -0.227025,-0.139392 -0.121384,0 -0.18056,-0.146198 -0.18056,-0.446089 0,-0.245348 0.05735,-0.446088 0.127454,-0.446088 0.07724,0 0.127454,-0.5523 0.127454,-1.401992 v -1.401992 l -0.605406,0.0022 c -0.477347,0.0017 -0.668894,0.06914 -0.905554,0.318634 -0.238977,0.251942 -0.425767,0.316433 -0.916518,0.316433 -0.339004,0 -0.651817,-0.05735 -0.695141,-0.127454 -0.04768,-0.07715 -0.963164,-0.127454 -2.319502,-0.127454 -1.928522,0 -2.262002,-0.02909 -2.393382,-0.208759 -0.120219,-0.164409 -0.273009,-0.190711 -0.719199,-0.1238 -0.876484,0.131437 -1.349078,0.481442 -1.516776,1.123332 -0.07867,0.301121 -0.254485,0.782407 -0.3907,1.069526 -0.175755,0.370464 -0.27128,0.934806 -0.329003,1.943671 l -0.08134,1.421634 h -2.006151 c -1.711772,0 -2.017503,-0.02958 -2.083514,-0.201605 z M 7.6595188,21.471164 v -3.734209 l -0.7834193,-0.08188 c -0.4308806,-0.04504 -1.1457904,-0.08188 -1.5886884,-0.08188 -0.6698966,0 -0.8277894,0.04208 -0.9392315,0.250311 -0.086881,0.162338 -0.1220524,1.494965 -0.1000747,3.79175 l 0.033888,3.541441 1.5931727,0.06373 c 0.876245,0.03505 1.6361883,0.046 1.688763,0.02434 0.052575,-0.02166 0.09559,-1.719779 0.09559,-3.773594 z m 5.8227972,3.217221 c 0.162242,-0.152419 0.294986,-0.326331 0.294986,-0.386473 0,-0.503595 2.340291,-3.279821 3.494751,-4.14573 0.363644,-0.272753 0.371779,-0.304285 0.356628,-1.382443 -0.0085,-0.606827 -0.03283,-1.120642 -0.05399,-1.14181 -0.02117,-0.02117 -1.17101,-0.0057 -2.555205,0.03447 l -2.516719,0.07295 v 3.528113 c 0,1.940461 0.03824,3.566348 0.08497,3.613081 0.171354,0.171355 0.607326,0.07771 0.894583,-0.192155 z M 41.562233,21.83227 c 0,-0.225074 -0.274377,-0.185877 -0.353153,0.05045 -0.02775,0.08324 0.04036,0.151352 0.151352,0.151352 0.11099,0 0.201801,-0.09081 0.201801,-0.201802 z m -0.500011,-0.29821 c 0.298512,-0.298512 0.372557,-0.483654 0.372557,-0.931543 0,-0.307442 -0.07169,-0.655207 -0.159317,-0.77281 -0.19225,-0.258024 -0.987767,-0.445827 -0.987767,-0.23319 0,0.07886 -0.157724,0.1436 -0.350498,0.143863 -0.192774,2.55e-4 -0.536899,0.114127 -0.764723,0.253034 -0.227823,0.138906 -0.414225,0.199432 -0.414225,0.134499 0,-0.06493 0.06348,-0.157289 0.141061,-0.205239 0.243975,-0.150784 -0.160632,-0.306177 -0.802671,-0.308274 -0.328836,-0.001 -0.637031,0.06139 -0.684877,0.138808 -0.04785,0.07742 -0.117149,0.51642 -0.154003,0.975563 -0.09111,1.135003 -0.02138,1.177847 1.917016,1.177847 1.504414,0 1.517466,-0.0026 1.887447,-0.372558 z M 25.375599,20.122264 c 0,-0.594785 -0.02124,-0.637269 -0.318635,-0.637269 -0.290856,0 -0.318634,0.04815 -0.318634,0.5523 0,0.61285 0.06113,0.722238 0.403604,0.722238 0.195429,0 0.233665,-0.10428 0.233665,-0.637269 z m 0.892176,0 c 0,-0.552299 -0.03399,-0.637269 -0.254907,-0.637269 -0.22092,0 -0.254908,0.08497 -0.254908,0.637269 0,0.5523 0.03399,0.637269 0.254908,0.637269 0.220919,0 0.254907,-0.08497 0.254907,-0.637269 z m 0.994751,-0.03186 c 0.03686,-0.574396 0.02217,-0.605406 -0.286771,-0.605406 -0.306367,0 -0.325618,0.0382 -0.325618,0.646134 0,0.597163 0.02173,0.643046 0.286771,0.605405 0.244722,-0.03476 0.292467,-0.1295 0.325618,-0.646133 z m 53.459892,-2.898172 c 0.334713,-9.81e-4 0.477952,-0.0575 0.477952,-0.188594 0,-0.155754 -0.176586,-0.174176 -1.051494,-0.109695 -0.578322,0.04262 -1.078511,0.1013 -1.11153,0.130394 -0.154125,0.135803 0.36223,0.296092 0.761032,0.236243 0.245348,-0.03682 0.661166,-0.06758 0.92404,-0.06835 z m 2.867711,-0.07156 c 0.08762,-0.02711 0.159317,-0.143094 0.159317,-0.257739 0,-0.183489 -0.125898,-0.197521 -1.051494,-0.117199 -0.578322,0.05019 -1.072918,0.111036 -1.099103,0.135222 -0.02618,0.02419 -0.01299,0.134195 0.02933,0.244462 0.06378,0.166213 0.224446,0.187158 0.939786,0.122517 0.474567,-0.04288 0.934543,-0.100152 1.022168,-0.127263 z m 2.627189,-0.06246 c 0.271206,-0.246795 -0.121911,-0.377196 -1.137129,-0.377196 -1.091619,0 -1.2989,0.108316 -0.924244,0.482971 0.164783,0.164785 1.859621,0.07782 2.061373,-0.105775 z m 2.343509,0.06246 c 0.08763,-0.02711 0.159318,-0.137124 0.159318,-0.244474 0,-0.159963 -0.195475,-0.195181 -1.083358,-0.195181 -0.965559,0 -1.083357,0.02541 -1.083357,0.233666 0,0.128516 0.0388,0.272462 0.08621,0.31988 0.08128,0.08128 1.576967,-0.0074 1.921182,-0.113891 z m 4.142249,-0.01756 c 0.05257,-0.03013 0.09559,-0.137427 0.09559,-0.23844 0,-0.145504 -0.225062,-0.183659 -1.083358,-0.183659 -0.965559,0 -1.083357,0.02541 -1.083357,0.233666 0,0.128516 0.04054,0.274205 0.09009,0.323754 0.08848,0.08848 1.793775,-0.02801 1.981035,-0.135321 z m 2.039261,0.08912 c 0.392515,-0.0012 0.477952,-0.04697 0.477952,-0.25631 0,-0.233748 -0.08497,-0.254908 -1.02363,-0.254908 -0.821,0 -1.039131,0.04039 -1.10193,0.204044 -0.111383,0.290258 0.203339,0.453594 0.723568,0.375522 0.245349,-0.03682 0.661167,-0.06758 0.92404,-0.06835 z m 2.48535,0 c 0.456241,-0.0012 0.541679,-0.04161 0.541679,-0.25631 0,-0.234915 -0.08497,-0.254908 -1.083358,-0.254908 -0.965559,0 -1.083357,0.02541 -1.083357,0.233666 0,0.352494 0.146296,0.433413 0.637269,0.352485 0.245348,-0.04044 0.689844,-0.07416 0.987767,-0.07493 z M 17.664643,16.681011 c 0.04855,-0.07855 -0.168615,-0.127453 -0.56602,-0.127453 -0.354635,0 -0.644791,0.05735 -0.644791,0.127453 0,0.0701 0.254709,0.127454 0.56602,0.127454 0.311311,0 0.601467,-0.05735 0.644791,-0.127454 z m 90.657607,-0.92404 c -0.0359,-0.754604 -0.0547,-0.796586 -0.35658,-0.796586 -0.29088,0 -0.32207,0.05409 -0.35812,0.621075 -0.051,0.802459 0.023,0.972098 0.42393,0.972098 0.3223,0 0.32798,-0.01554 0.29077,-0.796587 z M 83.749446,14.532999 c 0,-0.124468 -1.878537,-0.309216 -2.052282,-0.201836 -0.331419,0.204828 -0.0015,0.310587 0.968925,0.310587 0.595846,0 1.083357,-0.04894 1.083357,-0.108751 z m 2.421622,-0.0011 c 0,-0.130025 -1.86161,-0.318554 -2.042376,-0.206836 -0.341437,0.21102 -0.0214,0.316709 0.959019,0.316709 0.595847,0 1.083357,-0.04944 1.083357,-0.109873 z m 2.421623,7.26e-4 c 0,-0.127014 -1.745725,-0.312131 -1.921136,-0.203722 -0.330261,0.204113 -0.01689,0.312869 0.901505,0.312869 0.560797,0 1.019631,-0.04912 1.019631,-0.109151 z m 4.205976,3.96e-4 c 0,-0.124468 -1.878537,-0.309216 -2.052282,-0.201836 -0.331419,0.204828 -0.0015,0.310587 0.968924,0.310587 0.595847,0 1.083358,-0.04894 1.083358,-0.108751 z m 2.421622,-3.96e-4 c 0,-0.134485 -1.687043,-0.302551 -1.965275,-0.195783 -0.477414,0.183196 -0.125339,0.30493 0.881918,0.30493 0.595846,0 1.083357,-0.04912 1.083357,-0.109151 z m 2.549077,3.96e-4 c 0,-0.124468 -1.878537,-0.309216 -2.052282,-0.201836 -0.33142,0.204828 -0.0015,0.310587 0.968924,0.310587 0.595847,0 1.083358,-0.04894 1.083358,-0.108751 z M 76.994394,14.386843 c 0,-0.0701 -0.2753,-0.127454 -0.611779,-0.127454 -0.336478,0 -0.676747,-0.06497 -0.756155,-0.144378 -0.07941,-0.07941 -0.234264,-0.109884 -0.344125,-0.06773 -0.386472,0.148304 -0.193276,0.326102 0.405657,0.373329 1.199545,0.09458 1.306402,0.09182 1.306402,-0.03377 z m 3.327168,-0.02344 c -0.642579,-0.08045 -0.985322,-0.07522 -1.076985,0.01645 -0.0943,0.0943 0.187182,0.129539 0.942535,0.118004 l 1.076985,-0.01645 z M 60.144999,13.469175 c 0.246356,-0.246355 0.185452,-0.611778 -0.101963,-0.611778 -0.198262,0 -0.254907,0.08497 -0.254907,0.382361 0,0.407306 0.108946,0.477342 0.35687,0.229417 z m 4.231467,-2.778493 c 0,-0.669208 -0.03057,-0.7647229 -0.24478,-0.7647229 -0.167065,0 -0.27083,0.1186009 -0.326827,0.3735549 -0.04513,0.205455 -0.157123,0.435861 -0.248881,0.512014 -0.217334,0.180372 -0.580373,0.03773 -0.585557,-0.230072 -0.0052,-0.266574 -0.297046,-0.6554969 -0.49195,-0.6554969 -0.0821,0 -0.182279,-0.08603 -0.222629,-0.191181 -0.0576,-0.150106 -0.316877,-0.19118 -1.206811,-0.19118 h -1.133448 v 0.8709339 c 0,0.479014 0.03824,0.909171 0.08497,0.955904 0.04673,0.04673 1.050431,0.08497 2.230442,0.08497 h 2.145472 z"
   id="path184" /><path
   style="fill:#b3b3b3;stroke-width:0.0225309"
   d=""
   id="path186" /><path
   style="fill:#ffffff;stroke-width:0.0225309"
   d="m 38.676706,21.662069 c 0,-0.01859 -0.01521,-0.0338 -0.0338,-0.0338 -0.02253,0 -0.0338,-0.02253 -0.0338,-0.06759 0,-0.04506 -0.01127,-0.06759 -0.0338,-0.06759 -0.0236,0 -0.0338,-0.02378 -0.0338,-0.07886 0,-0.05508 -0.01019,-0.07886 -0.0338,-0.07886 -0.02253,0 -0.0338,-0.02253 -0.0338,-0.06759 0,-0.04506 -0.01126,-0.06759 -0.0338,-0.06759 -0.02808,0 -0.0338,-0.04381 -0.0338,-0.259105 0,-0.215295 0.0057,-0.259105 0.0338,-0.259105 0.02553,0 0.0338,-0.02754 0.0338,-0.112655 0,-0.08512 0.0083,-0.112654 0.0338,-0.112654 0.02253,0 0.0338,-0.02253 0.0338,-0.06759 0,-0.04506 0.01127,-0.06759 0.0338,-0.06759 0.02253,0 0.0338,-0.02253 0.0338,-0.06759 0,-0.04506 0.01126,-0.06759 0.0338,-0.06759 0.01878,0 0.0338,-0.02003 0.0338,-0.04506 0,-0.02503 0.01502,-0.04506 0.0338,-0.04506 0.01859,0 0.0338,0.01654 0.0338,0.03674 0,0.02896 0.01552,0.03414 0.07323,0.02445 0.04027,-0.0068 0.09097,-0.01931 0.112654,-0.02789 0.02766,-0.01094 0.03943,-0.0048 0.03943,0.02061 0,0.01991 -0.01521,0.03621 -0.0338,0.03621 -0.01859,0 -0.0338,0.01521 -0.0338,0.0338 0,0.01859 -0.01521,0.0338 -0.0338,0.0338 -0.01859,0 -0.0338,0.01521 -0.0338,0.0338 0,0.01859 -0.01521,0.0338 -0.0338,0.0338 -0.0236,0 -0.0338,0.02378 -0.0338,0.07886 0,0.05508 -0.01019,0.07886 -0.0338,0.07886 -0.0249,0 -0.0338,0.02599 -0.0338,0.09876 0,0.07981 -0.0086,0.101022 -0.04506,0.110545 -0.04089,0.01069 -0.04506,0.03073 -0.04506,0.216671 0,0.189867 0.0033,0.204887 0.04506,0.204887 0.03905,0 0.04506,0.01502 0.04506,0.112655 0,0.08512 0.0083,0.112654 0.0338,0.112654 0.02261,0 0.0338,0.02261 0.0338,0.0683 0,0.03993 0.01404,0.07369 0.0338,0.08127 0.01926,0.0074 0.0338,0.041 0.0338,0.07815 0,0.04292 -0.01154,0.06518 -0.0338,0.06518 -0.01859,0 -0.0338,0.01521 -0.0338,0.0338 0,0.01878 -0.02003,0.0338 -0.04506,0.0338 -0.02503,0 -0.04506,-0.01502 -0.04506,-0.0338 z"
   id="path188" /></svg>
