<?xml version="1.0" encoding="UTF-8" standalone="no"?>
<svg
   xmlns:dc="http://purl.org/dc/elements/1.1/"
   xmlns:cc="http://creativecommons.org/ns#"
   xmlns:rdf="http://www.w3.org/1999/02/22-rdf-syntax-ns#"
   xmlns:svg="http://www.w3.org/2000/svg"
   xmlns="http://www.w3.org/2000/svg"
   xmlns:sodipodi="http://sodipodi.sourceforge.net/DTD/sodipodi-0.dtd"
   xmlns:inkscape="http://www.inkscape.org/namespaces/inkscape"
   version="1.1"
   x="0px"
   y="0px"
   width="50.75px"
   height="32px"
   viewBox="0 0 50.75 32"
   enable-background="new 0 0 50.75 32"
   xml:space="preserve"
   id="svg32"
   sodipodi:docname="50gs.svg"
   inkscape:version="1.0.2-2 (e86c870879, 2021-01-15)"><metadata
   id="metadata38"><rdf:RDF><cc:Work
       rdf:about=""><dc:format>image/svg+xml</dc:format><dc:type
         rdf:resource="http://purl.org/dc/dcmitype/StillImage" /></cc:Work></rdf:RDF></metadata><defs
   id="defs36" /><sodipodi:namedview
   pagecolor="#ffffff"
   bordercolor="#666666"
   borderopacity="1"
   objecttolerance="10"
   gridtolerance="10"
   guidetolerance="10"
   inkscape:pageopacity="0"
   inkscape:pageshadow="2"
   inkscape:window-width="1842"
   inkscape:window-height="1051"
   id="namedview34"
   showgrid="false"
   inkscape:zoom="13.296875"
   inkscape:cx="47.249154"
   inkscape:cy="3.7679317"
   inkscape:window-x="-9"
   inkscape:window-y="-9"
   inkscape:window-maximized="1"
   inkscape:current-layer="svg32" />

<g
   id="guides">
</g>
<path
   style="fill:#ffffff;stroke-width:0.0728984"
   d="M 6.1777719,30.101705 6.2166997,29.811476 5.0997085,29.791302 3.9827173,29.771129 3.8571909,29.333738 C 3.589316,28.400339 3.567978,28.218002 3.6496448,27.560204 3.8935107,25.595943 4.42625,23.887711 5.5177699,21.570051 c 0.205158,-0.435618 0.230903,-0.496129 0.4652386,-1.093476 0.086507,-0.220518 0.2381814,-0.597768 0.337053,-0.838332 0.4753124,-1.156485 0.5752928,-1.496775 0.4605943,-1.567662 -0.073269,-0.04529 -0.041907,-0.221941 0.1442283,-0.812419 0.3752157,-1.190299 0.3573194,-1.155495 0.594158,-1.155495 0.1154179,0 0.2098513,-0.02657 0.2098513,-0.05905 0,-0.03247 -0.1112073,-0.28671 -0.247128,-0.564964 C 7.3458455,15.200402 7.2116499,14.857926 7.1835532,14.717596 7.1042493,14.321511 6.5942518,13.513268 6.2520058,13.241282 5.7648456,12.85413 5.5569888,12.74335 5.0407233,12.595712 4.6168413,12.474492 4.2993975,12.457744 2.4257621,12.457744 H 0.29325012 v -0.246219 c 0,-0.13542 0.05055,-0.288171 0.1123336,-0.339447 0.2088896,-0.173364 0.79609758,-0.40865 1.34563568,-0.53918 1.4840958,-0.352512 1.614416,-0.397186 1.942213,-0.665791 C 4.0497357,10.375143 4.3652575,9.925634 4.4566326,9.579811 4.4886406,9.458672 4.5862131,9.103013 4.6734605,8.7894579 4.8105596,8.296741 4.8190456,8.1928423 4.7359769,8.0240233 4.6095179,7.7670232 3.6691093,6.8445613 3.533568,6.8445613 c -0.058126,0 -0.1056839,-0.027257 -0.1056839,-0.060583 0,-0.033316 -0.090212,-0.1071284 -0.2004708,-0.1640209 C 2.7956462,6.3971689 2.6708615,6.2201233 2.6708615,5.8303164 c 0,-0.30892 0.032743,-0.3955492 0.2144896,-0.5674836 0.1792947,-0.1696139 0.2728966,-0.2011576 0.5704391,-0.192235 0.2080469,0.0062 0.3809556,0.051132 0.4161307,0.1080494 0.047929,0.077546 0.078609,0.078951 0.150695,0.00688 0.1218697,-0.121869 0.2071513,-0.1141154 0.2071513,0.018834 0,0.1256066 0.1145154,0.1460399 0.1844339,0.032908 0.03213,-0.051985 0.08113,-0.048311 0.1531887,0.011487 0.076222,0.063258 0.1281583,0.06572 0.1851113,0.00872 0.056953,-0.056948 0.1201176,-0.055067 0.2251303,0.00679 0.1144986,0.067377 0.153299,0.065594 0.17998,-0.00824 0.026495,-0.073349 0.057123,-0.074987 0.1385511,-0.00737 0.083117,0.068987 0.125734,0.058402 0.2079882,-0.051626 0.099483,-0.1330811 0.112205,-0.133496 0.3316723,-0.010818 0.1255215,0.070169 0.2784197,0.1275724 0.3397736,0.1275724 0.061354,0 0.4849729,-0.3772494 0.9413756,-0.8383315 C 7.8090234,3.776311 7.9831705,3.6371261 8.1658876,3.6371261 H 8.3849795 V 3.1424744 2.6479196 L 8.7699891,2.2676925 9.1549983,1.8874664 h 0.664887 0.6648867 l 0.07315,0.2098194 c 0.04023,0.1154006 0.13365,0.2811692 0.207603,0.3683742 0.146296,0.1725131 0.695485,0.4423849 0.900256,0.4423849 0.0702,0 0.245395,0.049203 0.389333,0.1093472 0.143939,0.060137 0.335473,0.1093483 0.425632,0.1093483 0.306285,0 0.788437,0.2289538 0.788437,0.3743956 0,0.1191723 0.06054,0.1358912 0.492065,0.1358786 l 0.492064,-1.45e-5 0.218696,-0.4556007 0.218695,-0.4556006 3.444452,-0.018941 3.444453,-0.018941 V 2.9049644 3.122012 L 26.664275,3.1426 c 4.647055,0.018815 5.107759,0.031464 5.35296,0.1470151 0.188582,0.088867 0.567594,0.1430118 1.275723,0.1822461 l 1.007431,0.055813 0.02242,0.3098185 0.02242,0.3098185 h 0.501898 0.501906 l 0.02242,-0.3098185 0.02242,-0.3098185 4.679508,-0.018756 4.679508,-0.018756 0.02244,0.3103526 0.02244,0.3103526 0.487939,0.021461 0.487937,0.021461 0.02235,-0.3495035 0.02235,-0.3495045 0.422705,-0.021965 c 0.232488,-0.012087 0.47852,-0.067397 0.546738,-0.1229216 0.06822,-0.055523 0.510384,-0.3982846 0.982588,-0.7616901 0.952237,-0.7328346 1.19637,-0.8130235 1.49794,-0.4920181 0.136088,0.1448613 0.158503,0.2531045 0.158503,0.7654346 v 0.5967135 h 0.508901 c 0.466979,0 0.512283,0.013512 0.549973,0.1640219 0.02259,0.090215 0.03142,1.1481509 0.01961,2.3509755 l -0.02146,2.1869537 -0.389673,0.801883 c -0.21432,0.4410352 -0.509559,1.0510822 -0.656086,1.3556582 -0.390972,0.812687 -0.518488,0.868208 -1.993449,0.867947 -0.629116,-1.45e-4 -1.161291,-0.02843 -1.18261,-0.06292 -0.02132,-0.0345 -0.179075,-0.08326 -0.35057,-0.108361 -0.171495,-0.0251 -0.382684,-0.06555 -0.469309,-0.08987 -0.147394,-0.0414 -0.159512,-0.01456 -0.188849,0.418179 -0.01725,0.254326 -0.09555,0.626433 -0.174003,0.826905 l -0.142651,0.364492 h -1.746105 -1.746104 l -0.02262,-0.273372 -0.02262,-0.273369 h -0.505889 -0.505888 v 0.291593 0.291594 h -4.155222 -4.155213 v -0.291594 -0.291593 h -0.47384 -0.473839 v 0.291593 0.291594 h -1.594175 -1.594174 l -0.335489,0.335488 c -0.862213,0.862214 -1.291066,1.925792 -1.284901,3.186629 0.0027,0.561361 0.134074,1.292644 0.281432,1.56711 0.148349,0.27631 0.121574,0.580579 -0.06536,0.742702 -0.162115,0.140602 -0.271213,0.145661 -3.091055,0.14336 -1.607655,-0.0014 -3.146547,-0.0312 -3.419761,-0.06642 -0.510718,-0.06583 -0.990423,0.02417 -1.654556,0.310383 -0.33706,0.145264 -0.896139,0.64253 -1.170128,1.040761 -0.235947,0.342936 -0.506186,1.095398 -0.505012,1.40617 3.65e-4,0.105035 -0.06327,0.519016 -0.141475,0.919958 -0.07821,0.400942 -0.193867,1.057028 -0.257019,1.457969 -0.18321,1.163178 -0.331679,2.057225 -0.478181,2.87949 -0.07501,0.420989 -0.189592,1.109879 -0.254634,1.530868 -0.24809,1.605776 -0.241829,1.58613 -0.551325,1.729953 -0.21473,0.09979 -0.291491,0.186676 -0.339327,0.384102 l -0.06182,0.255145 -4.236749,0.0188 -4.2367499,0.01882 z M 24.860032,17.679507 c 0.610258,-0.325942 0.755944,-0.809873 0.717564,-2.383561 -0.02371,-0.972309 -0.04078,-1.082629 -0.224815,-1.453132 -0.239907,-0.482989 -0.291323,-0.54658 -0.711444,-0.87991 -0.570374,-0.452542 -0.798327,-0.50516 -2.18843,-0.50516 -0.831614,0 -1.237798,0.02563 -1.237798,0.07811 0,0.04296 -0.041,0.12383 -0.09113,0.179716 -0.199478,0.222436 -0.27337,0.321288 -0.27337,0.36571 0,0.02557 -0.06099,0.133573 -0.135538,0.239997 -0.514952,0.735159 -0.561185,2.430993 -0.09188,3.370151 0.125081,0.25031 0.22742,0.466272 0.22742,0.479915 0,0.01364 -0.108774,0.0248 -0.241721,0.0248 -0.207945,0 -0.266516,-0.04329 -0.419166,-0.309819 -0.308281,-0.538256 -0.531994,-1.157507 -0.602727,-1.668375 -0.0662,-0.478084 -0.599157,-1.448034 -0.79566,-1.448034 -0.02081,0 -0.115467,0.188625 -0.210336,0.419166 -0.137756,0.334762 -0.171219,0.543938 -0.166185,1.038803 0.006,0.587733 0.177174,1.44723 0.324506,1.629206 0.03737,0.04615 0.147931,0.184074 0.245702,0.306498 0.191741,0.240087 0.68192,0.521966 1.074653,0.617984 0.134308,0.03284 1.211923,0.05396 2.394701,0.04695 1.946049,-0.01153 2.174762,-0.02571 2.405649,-0.149021 z"
   id="path69" /></svg>
