<?xml version="1.0" encoding="UTF-8" standalone="no"?>
<svg
   width="402"
   height="133"
   viewBox="0 0 402 133"
   version="1.1"
   id="svg11998"
   sodipodi:docname="cx9.svg"
   inkscape:version="1.2.1 (9c6d41e410, 2022-07-14)"
   xmlns:inkscape="http://www.inkscape.org/namespaces/inkscape"
   xmlns:sodipodi="http://sodipodi.sourceforge.net/DTD/sodipodi-0.dtd"
   xmlns="http://www.w3.org/2000/svg"
   xmlns:svg="http://www.w3.org/2000/svg">
  <defs
     id="defs12002" />
  <sodipodi:namedview
     id="namedview12000"
     pagecolor="#ffffff"
     bordercolor="#000000"
     borderopacity="0.25"
     inkscape:showpageshadow="2"
     inkscape:pageopacity="0.0"
     inkscape:pagecheckerboard="0"
     inkscape:deskcolor="#d1d1d1"
     showgrid="false"
     inkscape:zoom="3.3532338"
     inkscape:cx="139.26855"
     inkscape:cy="66.502967"
     inkscape:window-width="1920"
     inkscape:window-height="1017"
     inkscape:window-x="-8"
     inkscape:window-y="-8"
     inkscape:window-maximized="1"
     inkscape:current-layer="svg11998" />
  <path
     style="fill:#ffffff"
     d="m 204.38022,120.70096 -1.62868,8.2e-4 -1.14975,-2.77575 -1.14976,-2.77575 -1.49687,-8.97425 -1.49688,-8.974249 -1.08498,-6.25 -1.08498,-6.250001 h -3.26727 -3.26726 l -1.3141,1.583391 -1.31409,1.58339 -10.84649,-0.33339 -10.84649,-0.33339 -0.71186,-1.1003 -0.71186,-1.10029 -2.18426,-1.149707 -2.18426,-1.149704 h -1.05787 -1.05787 l -1.75787,3.456791 -1.75787,3.45679 -5.25,10.33647 -5.25,10.336479 v 1.58541 1.58542 l -2.92628,1.2121 -2.92628,1.21211 -2.32372,-0.73106 -2.32372,-0.73106 -5,-2.82909 -5,-2.82909 -2.75,-2.57111 -2.75,-2.5711 v -1.4396 -1.4396 l 6,-6.620759 6,-6.62077 v -0.94776 -0.94776 l 4.11948,-6.201408 4.11949,-6.201403 0.84154,-2.212584 0.84154,-2.212584 -1.03585,-2.971432 -1.03585,-2.971432 -2.67517,-1.815984 -2.67518,-1.815984 -26.5,-0.332736 -26.499998,-0.332737 -6.159409,0.652629 -6.159408,0.652629 -1.652402,7.180107 -1.652401,7.180108 -0.410959,2.065592 -0.410958,2.065593 -2.027232,2.337417 -2.027231,2.337417 -0.01365,2.096992 -0.01365,2.09699 -0.591889,2.2076 -0.591889,2.2076 -4.185699,1.59853 -4.185699,1.59853 -5.925483,-0.30613 -5.925482,-0.30613 -1.190672,-2.5 -1.190672,-2.5 -1.59724,-8.500001 -1.59724,-8.5 0.0046,-17.678571 0.0047,-17.678572 1.511947,-1.511947 1.511948,-1.511947 4.238052,-0.502953 4.238053,-0.502953 13.5,-1.14773 13.5,-1.147731 7.5,-0.92372 7.5,-0.923721 18.999998,-1.087959 19,-1.087958 1.78896,-1.897119 1.78895,-1.897119 h 1.33604 1.33605 l 0.63688,-3.184383 0.63687,-3.184383 1.64311,-1.815617 1.64312,-1.815617 h 6.1225 6.12251 l 2.2225,1.556704 2.22251,1.556704 v 3.443296 3.443296 h 2.42857 2.42857 l 1.5,1.5 1.5,1.5 h 28.10661 28.10662 l 2.21481,-1.399821 2.21482,-1.39982 14.36072,-0.422325 14.36071,-0.422326 0.93898,-1.677854 0.93897,-1.677854 h 1.48169 1.4817 l 0.5756,1.5 0.57561,1.5 h 1.89301 1.89301 v -2.845012 -2.845013 l 1.82874,-1.654987 1.82874,-1.654988 h 5.51404 5.51404 l 2.11958,4.25 2.11957,4.25 0.28765,2.842948 0.28764,2.842947 8.5,2.925609 8.5,2.925608 3.15113,1.481444 3.15113,1.481444 h 1.09887 1.09887 v 2.952996 2.952996 l 3.75,1.041427 3.75,1.041427 2.66821,0.0056 2.66822,0.0056 1.58178,0.606989 1.58179,0.606989 v 3.738023 3.738024 l -1.75,1.537451 -1.75,1.53745 -6.69823,0.691587 -6.69824,0.691587 -0.30176,4.67595 -0.30177,4.675904 -38.18636,0.261822 -38.18637,0.261822 -0.50411,1.738178 -0.50412,1.738178 -1.11816,4.5 -1.11816,4.5 -1.55733,3.395532 -1.55734,3.395529 0.59946,4.10447 0.59947,4.10447 0.57577,2.96894 0.57577,2.968939 0.85125,1.03106 0.85126,1.03106 0.70285,3.76104 0.70285,3.76105 0.88663,0.54797 0.88664,0.54797 v 1.786 1.78599 l -1.75832,1.59126 -1.75831,1.59125 -7.49169,1.56292 -7.49168,1.56291 z m -28.99615,-38.628782 6.37517,-0.330495 1.34303,-1.769951 1.34302,-1.769952 0.0318,-3.05 0.0318,-3.05 -1.2,-1.2 -1.2,-1.2 h -5.1 -5.1 l -1.2,1.2 -1.2,1.2 v 2.693011 2.693011 l 1.5,0.575604 1.5,0.575604 v 1.031385 1.031385 h -1.34501 -1.34501 l -1.57681,-1.75 -1.57681,-1.75 -0.32818,-3.422988 -0.32818,-3.422989 -1.23565,-0.405561 -1.23565,-0.405561 -1.17486,2.578549 -1.17487,2.57855 1.10128,2.417043 1.10128,2.417042 2.80923,1.433404 2.80924,1.433404 z"
     id="path12006" />
</svg>
