<?xml version="1.0" encoding="UTF-8" standalone="no"?>
<svg
   xmlns:dc="http://purl.org/dc/elements/1.1/"
   xmlns:cc="http://creativecommons.org/ns#"
   xmlns:rdf="http://www.w3.org/1999/02/22-rdf-syntax-ns#"
   xmlns:svg="http://www.w3.org/2000/svg"
   xmlns="http://www.w3.org/2000/svg"
   xmlns:sodipodi="http://sodipodi.sourceforge.net/DTD/sodipodi-0.dtd"
   xmlns:inkscape="http://www.inkscape.org/namespaces/inkscape"
   version="1.1"
   x="0px"
   y="0px"
   width="99.75px"
   height="32px"
   viewBox="0 0 99.75 32"
   enable-background="new 0 0 99.75 32"
   xml:space="preserve"
   id="svg92"
   sodipodi:docname="mk2.svg"
   inkscape:version="1.0.2-2 (e86c870879, 2021-01-15)"><metadata
   id="metadata98"><rdf:RDF><cc:Work
       rdf:about=""><dc:format>image/svg+xml</dc:format><dc:type
         rdf:resource="http://purl.org/dc/dcmitype/StillImage" /></cc:Work></rdf:RDF></metadata><defs
   id="defs96" /><sodipodi:namedview
   pagecolor="#ffffff"
   bordercolor="#666666"
   borderopacity="1"
   objecttolerance="10"
   gridtolerance="10"
   guidetolerance="10"
   inkscape:pageopacity="0"
   inkscape:pageshadow="2"
   inkscape:window-width="1842"
   inkscape:window-height="1051"
   id="namedview94"
   showgrid="false"
   inkscape:zoom="12.180451"
   inkscape:cx="67.113818"
   inkscape:cy="14.53924"
   inkscape:window-x="-9"
   inkscape:window-y="-9"
   inkscape:window-maximized="1"
   inkscape:current-layer="svg92" />

<g
   id="guides">
</g>
<path
   style="fill:#ffffff;stroke-width:0.0802383"
   d="M 1.4272551,25.158161 C 1.4837746,23.638491 1.340874,21.100781 1.1229014,19.753295 1.038127,19.229225 0.96926185,18.705669 0.96986868,18.58984 0.97047541,18.474011 0.88220347,17.964008 0.77370874,17.456501 0.31984294,15.333447 0.29844998,15.206143 0.38157779,15.123016 c 0.0920702,-0.09207 2.31001201,-0.344188 2.52751991,-0.287308 0.076825,0.02009 0.2834149,-0.01299 0.4590899,-0.07352 0.1756751,-0.06053 0.6915939,-0.167747 1.1464865,-0.23827 1.9248344,-0.298417 2.8685216,-0.438285 3.4348215,-0.509093 0.3309829,-0.04138 0.9989668,-0.130816 1.484408,-0.198737 0.4854417,-0.06793 1.5867114,-0.217043 2.4472674,-0.331384 0.860556,-0.11434 1.961826,-0.263796 2.447268,-0.332124 0.485442,-0.06833 1.171478,-0.158501 1.524527,-0.200386 0.353048,-0.04189 1.075193,-0.132159 1.604766,-0.200612 0.529572,-0.06845 1.287824,-0.155391 1.685003,-0.193194 0.39718,-0.0378 1.137378,-0.125907 1.644885,-0.195786 1.529295,-0.210569 1.660541,-0.197327 2.426083,0.244775 0.364699,0.210615 0.71857,0.429607 0.78638,0.486651 0.205737,0.17307 1.121119,0.348115 1.827012,0.349372 0.631818,0.0011 0.677731,-0.01085 0.882621,-0.230205 0.119414,-0.127842 0.395664,-0.285925 0.617324,-0.353259 0.537262,-0.163203 0.87474,-0.28503 1.414204,-0.510512 0.248239,-0.103758 0.508946,-0.188651 0.579348,-0.188651 0.07041,0 0.325352,-0.09027 0.566553,-0.200596 0.241201,-0.110328 0.490612,-0.200596 0.554247,-0.200596 0.06363,0 0.255512,-0.06123 0.426392,-0.136063 0.170881,-0.07483 0.455122,-0.178899 0.631646,-0.231254 0.176524,-0.05236 0.528115,-0.171821 0.781312,-0.265478 0.253198,-0.09366 0.537409,-0.182045 0.631582,-0.196416 0.120592,-0.0184 0.224754,-0.152767 0.352267,-0.454406 0.185314,-0.438379 0.996957,-1.3642455 1.195936,-1.3642455 0.05854,0 0.20148,-0.074766 0.317645,-0.1661378 0.165741,-0.130372 0.194574,-0.1972239 0.13393,-0.3105356 -0.08759,-0.163661 -0.785492,-0.4220654 -0.851496,-0.3152697 -0.131521,0.2128047 -0.595338,-0.045378 -0.595338,-0.3313881 0,-0.3496447 0.57597,-0.4946261 0.678734,-0.1708485 0.05288,0.1666225 0.607475,0.4115631 0.931857,0.4115631 0.374634,0 0.535856,0.1256662 0.592673,0.4619654 0.08128,0.481087 0.150726,0.5484833 0.383921,0.3725839 0.305187,-0.2302023 0.627414,-0.7233741 0.678559,-1.0385355 0.06186,-0.3812275 0.337638,-0.5181575 1.043548,-0.5181575 h 0.546062 l 0.184052,-0.4011945 c 0.101227,-0.2206556 0.234781,-0.4011915 0.296787,-0.4011915 0.0679,0 0.132627,-0.1196868 0.162738,-0.3008932 0.07673,-0.4617416 0.256332,-0.9724889 0.388426,-1.104583 0.141651,-0.1416506 0.688961,-0.1558308 1.232639,-0.031939 0.379011,0.086367 1.188961,0.3057652 2.348121,0.636045 0.330983,0.094303 0.692055,0.1926236 0.802383,0.218482 0.229294,0.053744 0.394915,0.2375715 0.39864,0.4424675 0.0024,0.1321675 0.290089,0.1404172 4.897086,0.1404172 4.841043,0 4.894535,0.00176 4.894535,0.160476 0,0.1299098 0.05349,0.160477 0.280834,0.160477 0.227341,0 0.280834,-0.030571 0.280834,-0.160477 0,-0.1248149 0.05349,-0.160476 0.240714,-0.160476 0.187223,0 0.240716,0.035663 0.240716,0.160476 0,0.1337302 0.05349,0.160477 0.320953,0.160477 0.267908,0 0.320953,-0.026632 0.320953,-0.1611504 0,-0.1596961 0.04037,-0.1609627 4.473284,-0.1404171 4.209228,0.019508 4.471892,0.029027 4.449707,0.1611504 -0.01877,0.1117498 0.03447,0.1404171 0.260774,0.1404171 0.230859,0 0.284352,-0.03019 0.284352,-0.160477 0,-0.1299098 0.05349,-0.160476 0.280834,-0.160476 0.227342,0 0.280833,0.030571 0.280833,0.160476 0,0.1299098 0.05349,0.160477 0.280835,0.160477 0.228609,0 0.280834,-0.030249 0.280834,-0.1626799 0,-0.1568452 0.04101,-0.1618815 1.143395,-0.1404172 l 1.143396,0.022264 0.02373,0.5416087 0.02373,0.5416077 H 80.608923 92.681117 V 7.6327192 c 0,-0.2291477 0.07224,-0.2586467 0.886152,-0.36184 0.330702,-0.041928 0.934199,-0.1503928 1.341118,-0.2410322 0.406913,-0.090638 0.757916,-0.1647988 0.779997,-0.1647988 0.02208,0 0.154579,-0.2346961 0.294442,-0.5215488 l 0.254292,-0.5215489 h 0.399655 c 0.562112,0 0.612259,0.092974 0.615367,1.1409987 l 0.0029,0.8601643 1.023037,0.022459 1.023038,0.022459 0.02258,0.9427993 0.02258,0.9428003 H 98.54134 c -0.66201,0 -0.804934,0.02137 -0.804934,0.120358 0,0.08273 0.08298,0.120357 0.265492,0.120357 0.49208,0 0.546019,0.1041669 0.519953,1.0041919 l -0.02316,0.801169 -7.101076,0.01205 c -3.905598,0.0066 -7.177811,0.01565 -7.271593,0.02006 -0.118906,0.0056 -0.18381,0.07479 -0.214461,0.228668 l -0.04395,0.220655 -0.949002,-0.04012 c -0.909027,-0.03843 -0.950077,-0.04772 -0.974639,-0.220655 -0.02944,-0.207306 0.03037,-0.202969 -2.782695,-0.201784 -1.545901,6.5e-4 -1.605661,0.0065 -1.629176,0.162051 -0.05042,0.333343 -0.744517,0.75444 -0.831464,0.504439 -0.01701,-0.04888 -0.333745,-0.04738 -0.869248,0.0041 -0.843036,0.08106 -1.149391,0.134798 -0.836339,0.146698 0.141305,0.0054 0.160968,0.04598 0.129332,0.26711 -0.04396,0.307253 -0.13,0.378243 -0.46046,0.379902 -0.278587,0.0014 -0.437299,-0.122547 -0.437299,-0.341503 0,-0.08258 -0.05643,-0.206589 -0.125397,-0.275557 -0.123936,-0.123937 -1.038001,-0.120336 -4.287709,0.01689 -0.330982,0.01398 -1.540574,0.05038 -2.687981,0.0809 -1.147408,0.03052 -2.190531,0.06786 -2.318051,0.08298 -0.12752,0.01511 -1.535702,0.04798 -3.129293,0.07304 -2.91179,0.04578 -4.389172,0.07948 -7.4309,0.169493 -1.769666,0.05236 -2.050212,0.06993 -2.495602,0.156175 -0.272401,0.05275 -0.299885,0.03815 -0.477194,-0.253496 -0.239144,-0.393355 -0.291385,-0.427107 -0.663394,-0.428599 -0.270019,-0.0011 -0.300268,0.01778 -0.255367,0.159248 0.04191,0.132032 0.01442,0.160477 -0.155069,0.160477 -0.134791,0 -0.206003,-0.0441 -0.206003,-0.127561 0,-0.131096 -0.313049,-0.129779 -2.166433,0.0091 -0.286853,0.0215 -0.792354,0.0577 -1.123336,0.08045 -0.85693,0.0589 -1.283813,0.126272 -1.283813,0.202592 0,0.03638 -0.162482,0.182827 -0.361072,0.325443 -0.19859,0.142617 -0.361072,0.291205 -0.361072,0.330196 0,0.039 -0.09027,0.203735 -0.200596,0.366097 -0.110328,0.162361 -0.200596,0.352525 -0.200596,0.422584 0,0.07006 -0.09634,0.211144 -0.214083,0.313523 -0.188334,0.163754 -0.330686,0.193004 -1.183515,0.243181 -0.533187,0.03137 -1.071193,0.09859 -1.195569,0.149377 -0.286678,0.117062 -0.77684,0.488357 -0.77684,0.588451 0,0.04184 -0.09027,0.194416 -0.200596,0.339063 -0.111693,0.146437 -0.200596,0.370454 -0.200596,0.505462 0,0.193464 -0.07564,0.301391 -0.37424,0.534034 l -0.37424,0.291567 h -0.895816 c -0.859945,0 -0.910284,0.0096 -1.257133,0.239326 -0.427898,0.283428 -0.561246,0.534079 -0.589534,1.108135 -0.01245,0.252756 -0.07343,0.482727 -0.150582,0.567986 -0.07131,0.07879 -0.129654,0.176871 -0.129654,0.217944 0,0.04108 -0.07222,0.119778 -0.160477,0.174899 -0.08826,0.05512 -0.160476,0.154074 -0.160476,0.219896 0,0.06582 -0.04765,0.119677 -0.105888,0.119677 -0.05824,0 -0.184374,0.09027 -0.280304,0.200596 -0.09593,0.110328 -0.225806,0.200596 -0.288616,0.200596 -0.06281,0 -0.126237,0.02859 -0.140948,0.06354 -0.01471,0.03494 -0.261443,0.224506 -0.548295,0.42125 -0.286852,0.196743 -0.539602,0.380199 -0.561668,0.407679 -0.02207,0.02748 -0.273549,0.200387 -0.55885,0.384237 -0.285303,0.18385 -0.538054,0.359956 -0.561669,0.391347 -0.02361,0.03139 -0.367901,0.273682 -0.76508,0.538425 -0.39718,0.264743 -0.786326,0.539157 -0.864769,0.609807 -0.29871,0.269039 -1.431533,0.423975 -1.804244,0.246767 -0.752726,-0.357889 -1.146389,-0.750912 -1.500838,-1.498402 -0.06278,-0.132393 -0.167207,-0.330982 -0.232063,-0.44131 -0.389846,-0.663179 -0.469611,-1.21646 -0.250853,-1.74002 0.06677,-0.159817 0.09977,-0.312113 0.07333,-0.338436 -0.06361,-0.06332 -0.355219,0.299901 -0.355219,0.44246 0,0.06131 -0.02865,0.111468 -0.06365,0.111468 -0.03501,0 -0.18436,0.252752 -0.331893,0.561669 -0.315756,0.661158 -0.34321,0.668638 -1.329578,0.362265 -0.353048,-0.109659 -0.736653,-0.199922 -0.852455,-0.200584 -0.349514,-0.002 -0.940015,-0.392209 -1.285008,-0.849148 -0.281716,-0.37313 -0.368511,-0.43484 -0.676575,-0.481037 -0.194372,-0.02914 -0.417034,-0.02658 -0.494805,0.0057 -0.461658,0.191619 -1.466656,0.545776 -1.706049,0.601205 -0.154459,0.03576 -0.641906,0.1983 -1.083217,0.361192 -0.44131,0.162893 -0.929187,0.327036 -1.084171,0.364759 -0.154983,0.03772 -0.425787,0.128823 -0.601786,0.202441 -0.176,0.07362 -0.482482,0.180416 -0.681072,0.237328 -0.405905,0.116324 -2.095699,0.70144 -3.129293,1.083563 -0.375113,0.138682 -0.844508,0.301155 -1.043098,0.361055 -0.393284,0.118622 -1.043291,0.346174 -2.28679,0.800549 -0.441311,0.161256 -0.874598,0.311622 -0.96286,0.334147 -0.088264,0.02253 -0.3771196,0.122904 -0.641906,0.223063 -0.7192684,0.272073 -0.9943855,0.36735 -1.524527,0.527971 -0.5719288,0.173281 -1.2844613,0.422235 -1.86554,0.651805 L 5.62291,25.418683 v 0.382047 c 0,0.423342 -0.1204334,0.582234 -0.4413106,0.582234 -0.2762372,0 -0.4413105,-0.158534 -0.4413105,-0.423827 0,-0.2084 -0.023238,-0.224167 -0.3410126,-0.231375 -0.187557,-0.0043 -0.3951736,-0.01089 -0.4613701,-0.01475 -0.066196,-0.0038 -0.5897514,0.158712 -1.1634551,0.36126 -1.5250007,0.538407 -1.4040304,0.620693 -1.3468715,-0.916162 z m 3.8660098,1.051182 c 0.1363714,-0.08635 0.059223,-0.327822 -0.1047362,-0.327822 -0.1542251,0 -0.2206469,0.114001 -0.159406,0.273593 0.055611,0.14492 0.1049257,0.155044 0.2641422,0.05423 z M 31.908184,22.627775 c 0.357206,-0.236926 0.695619,-0.486384 0.752027,-0.554352 0.05641,-0.06796 0.134618,-0.123578 0.173798,-0.123578 0.06718,0 0.86595,-0.532232 0.952213,-0.634475 0.02207,-0.02615 0.112333,-0.09312 0.200595,-0.148818 0.683261,-0.431168 0.92274,-0.604501 0.92274,-0.667878 0,-0.04035 0.03757,-0.07336 0.08348,-0.07336 0.298011,0 1.262849,-0.920044 1.365806,-1.302394 0.08222,-0.305374 -0.02052,-0.944278 -0.151856,-0.944278 -0.03324,0 -0.116793,-0.117348 -0.185683,-0.260775 -0.198114,-0.412464 -0.55557,-1.051853 -0.661654,-1.183515 -0.05333,-0.0662 -0.167402,-0.25988 -0.253478,-0.430408 -0.178014,-0.352666 -0.57659,-0.692927 -0.811685,-0.692927 -0.174388,0 -1.929011,0.851896 -2.09871,1.018956 -0.05832,0.05741 -0.154602,0.104379 -0.21397,0.104379 -0.05936,0 -0.119974,0.03071 -0.134685,0.06825 -0.01471,0.03754 -0.180201,0.164363 -0.367758,0.28184 -0.187558,0.117477 -0.341013,0.249249 -0.341013,0.292826 0,0.04358 -0.05333,0.07923 -0.118508,0.07923 -0.06518,0 -0.177653,0.09027 -0.249943,0.200596 -0.07229,0.110328 -0.179649,0.200596 -0.238577,0.200596 -0.05892,0 -0.136017,0.05014 -0.171308,0.111412 -0.03529,0.06128 -0.389131,0.38094 -0.786311,0.710362 -0.931436,0.772538 -0.984621,0.836783 -1.137436,1.373964 -0.110093,0.387005 -0.113841,0.519711 -0.02633,0.932096 0.05613,0.264465 0.187475,0.596641 0.291891,0.73817 0.104417,0.141529 0.189849,0.298875 0.189849,0.349658 0,0.05078 0.07222,0.157686 0.160476,0.237563 0.08826,0.07988 0.160477,0.194926 0.160477,0.255668 0,0.06074 0.06319,0.132849 0.140417,0.160237 0.07723,0.02739 0.203723,0.104172 0.281097,0.170631 0.198819,0.170774 0.667935,0.251103 1.183252,0.202617 0.36223,-0.03408 0.557692,-0.118717 1.090779,-0.472296 z m -3.438023,-3.506329 c 0.102248,-0.0993 0.263485,-0.261778 0.358304,-0.361073 0.09482,-0.0993 0.220049,-0.180536 0.278287,-0.180536 0.05824,0 0.105887,-0.03029 0.105887,-0.06731 0,-0.10916 2.076654,-1.789785 2.646109,-2.141482 0.287816,-0.177757 1.091992,-0.60642 1.787056,-0.952587 0.695064,-0.346167 1.263753,-0.66496 1.263753,-0.70843 0,-0.0438 -0.0626,-0.05326 -0.140417,-0.02123 -0.07723,0.03179 -0.212631,0.07529 -0.300894,0.09667 -0.08826,0.02137 -0.351026,0.1256 -0.583921,0.231611 -0.232894,0.106013 -0.458044,0.19275 -0.500333,0.19275 -0.191202,0 -2.495506,1.20634 -2.712736,1.420161 -0.05832,0.0574 -0.135844,0.104365 -0.172285,0.104365 -0.08584,0 -0.460443,0.313283 -1.151328,0.96286 -0.50668,0.476384 -1.178101,1.348474 -1.178101,1.530201 0,0.122125 0.103199,0.08574 0.300619,-0.105972 z m 10.996517,-2.772777 c 0.371306,-0.349696 0.464908,-0.673072 0.382189,-1.320385 -0.08681,-0.679328 -0.599494,-1.142565 -1.363963,-1.232414 -0.24533,-0.02883 -0.446054,-0.08643 -0.446054,-0.127991 0,-0.09613 -0.503123,0.0086 -0.57363,0.119434 -0.02865,0.04502 -0.109886,0.05967 -0.180536,0.03256 -0.07881,-0.03024 -0.128455,-0.0073 -0.128455,0.05937 0,0.05976 -0.05394,0.212088 -0.119864,0.338493 -0.146217,0.280361 -0.156203,0.770485 -0.02064,1.01324 0.05511,0.0987 0.224278,0.314186 0.375918,0.478868 0.296414,0.321904 0.295368,0.459431 -0.0022,0.287866 -0.263138,-0.151721 -0.575048,-0.527632 -0.71465,-0.861291 -0.192299,-0.45961 -0.407131,-0.728974 -0.581394,-0.728974 -0.142258,0 -0.155755,0.03626 -0.112013,0.300893 0.02736,0.165491 0.05013,0.50946 0.05062,0.764376 8.43e-4,0.441455 0.01794,0.480541 0.359845,0.822442 l 0.35896,0.358961 h 1.195769 1.195769 z m 35.387063,-3.325333 c -0.01683,-0.118497 -0.08079,-0.180536 -0.186117,-0.180536 -0.105331,0 -0.169287,0.06204 -0.186117,0.180536 -0.02103,0.148094 0.01241,0.180537 0.186117,0.180537 0.173705,0 0.207149,-0.03244 0.186117,-0.180537 z m 7.075447,-3.1493519 c 0,-0.104067 -0.298662,-0.120357 -2.206552,-0.120357 -1.907889,0 -2.206553,0.01629 -2.206553,0.120357 0,0.104067 0.298664,0.120357 2.206553,0.120357 1.90789,0 2.206552,-0.01629 2.206552,-0.120357 z m 14.792858,0 c -0.04046,-0.105586 -0.82802,-0.120357 -6.416543,-0.120357 -5.609049,0 -6.370358,0.01439 -6.370358,0.120357 0,0.105981 0.766445,0.120357 6.416543,0.120357 5.670632,0 6.411172,-0.014 6.370358,-0.120357 z M 39.643615,5.581236 c 0,-0.044127 -0.05416,-0.080239 -0.120357,-0.080239 -0.0662,0 -0.120358,0.036103 -0.120358,0.080239 0,0.044127 0.05416,0.08024 0.120358,0.08024 0.0662,0 0.120357,-0.036103 0.120357,-0.08024 z m 1.043098,0 c 0,-0.044127 -0.180536,-0.080239 -0.401191,-0.080239 -0.220656,0 -0.401191,0.036103 -0.401191,0.080239 0,0.044127 0.180535,0.08024 0.401191,0.08024 0.220655,0 0.401191,-0.036103 0.401191,-0.08024 z"
   id="path206" /></svg>
