<?xml version="1.0" encoding="UTF-8" standalone="no"?>
<svg
   version="1.1"
   x="0px"
   y="0px"
   width="96.583px"
   height="32px"
   viewBox="0 0 96.583 32"
   enable-background="new 0 0 96.583 32"
   xml:space="preserve"
   id="svg137"
   sodipodi:docname="50gs_akimbo.svg"
   inkscape:version="1.2.1 (9c6d41e410, 2022-07-14)"
   xmlns:inkscape="http://www.inkscape.org/namespaces/inkscape"
   xmlns:sodipodi="http://sodipodi.sourceforge.net/DTD/sodipodi-0.dtd"
   xmlns="http://www.w3.org/2000/svg"
   xmlns:svg="http://www.w3.org/2000/svg"
   xmlns:rdf="http://www.w3.org/1999/02/22-rdf-syntax-ns#"
   xmlns:cc="http://creativecommons.org/ns#"
   xmlns:dc="http://purl.org/dc/elements/1.1/"><metadata
   id="metadata143"><rdf:RDF><cc:Work
       rdf:about=""><dc:format>image/svg+xml</dc:format><dc:type
         rdf:resource="http://purl.org/dc/dcmitype/StillImage" /></cc:Work></rdf:RDF></metadata><defs
   id="defs141" /><sodipodi:namedview
   pagecolor="#ffffff"
   bordercolor="#666666"
   borderopacity="1"
   objecttolerance="10"
   gridtolerance="10"
   guidetolerance="10"
   inkscape:pageopacity="0"
   inkscape:pageshadow="2"
   inkscape:window-width="1920"
   inkscape:window-height="1017"
   id="namedview139"
   showgrid="false"
   inkscape:zoom="12.579854"
   inkscape:cx="48.013276"
   inkscape:cy="14.308592"
   inkscape:window-x="-8"
   inkscape:window-y="-8"
   inkscape:window-maximized="1"
   inkscape:current-layer="g287"
   inkscape:showpageshadow="2"
   inkscape:pagecheckerboard="0"
   inkscape:deskcolor="#d1d1d1" />

<g
   id="guides">
</g>
<g
   id="g287"
   transform="matrix(0.0420133,0,0,0.0420133,7.8175962,0.0079736)"><path
     style="fill:#ffffff"
     d="m 887.49432,731.14037 -11.32945,0.0755 0.62479,-2.84464 0.62479,-2.84464 -19.68191,-0.70031 c -14.28749,-0.50836 -20.46671,-1.10614 -22.54533,-2.18103 -1.57489,-0.81442 -2.86343,-1.63277 -2.86343,-1.81858 0,-0.18581 -0.46933,-2.76175 -1.04295,-5.72432 -0.57362,-2.96257 -1.45013,-9.88649 -1.9478,-15.38649 -0.69067,-7.63292 -0.54879,-12.36708 0.5994,-20 0.82734,-5.5 1.52813,-11.35 1.55731,-13 0.0292,-1.65 1.11598,-7.51023 2.41513,-13.02274 1.29915,-5.51251 2.5311,-10.91251 2.73765,-12 0.20656,-1.08749 0.89434,-3.24405 1.52841,-4.79236 0.63407,-1.5483 1.15285,-3.57389 1.15285,-4.50131 0,-0.92742 1.83378,-7.08562 4.07507,-13.6849 2.24128,-6.59928 6.29128,-17.01502 9,-23.1461 2.70871,-6.13107 4.92493,-11.46253 4.92493,-11.84767 0,-0.38515 1.77673,-4.36881 3.94828,-8.85259 2.17155,-4.48378 4.90666,-10.62733 6.07801,-13.65233 1.17135,-3.025 2.73035,-6.85 3.46444,-8.5 0.73409,-1.65 2.43533,-5.7 3.78055,-9 1.34521,-3.3 3.44113,-8.475 4.65759,-11.5 1.21646,-3.025 2.94536,-7.75 3.84201,-10.5 0.89665,-2.75 1.87751,-5.225 2.17969,-5.5 0.30219,-0.275 0.70755,-1.175 0.90081,-2 0.19325,-0.825 1.68173,-6.225 3.30772,-12 1.62599,-5.775 4.54323,-15.225 6.48276,-21 1.93953,-5.775 4.47563,-11.52169 5.63578,-12.77043 1.88479,-2.0287 1.97914,-2.63056 0.88616,-5.65313 -0.67276,-1.86048 -1.87668,-7.0995 -2.67537,-11.64225 -0.7987,-4.54275 -2.76218,-11.05896 -4.36329,-14.48047 -1.76155,-3.76435 -5.51704,-8.9712 -9.51024,-13.18564 -4.95907,-5.23381 -8.27864,-7.72792 -13.35701,-10.03556 -4.40526,-2.00178 -9.89108,-3.48563 -15.75789,-4.26233 -6.62749,-0.8774 -18.43941,-0.96461 -44.808,-0.33084 -28.33318,0.68099 -36.31251,0.5958 -38.22486,-0.40811 -1.32927,-0.69782 -2.83526,-2.05057 -3.34665,-3.00611 -0.51139,-0.95553 -0.70105,-3.76678 -0.42147,-6.24722 0.47462,-4.21075 0.84968,-4.7005 5.65466,-7.38351 2.83047,-1.58048 7.62132,-3.72777 10.64632,-4.77175 3.025,-1.04397 10.45,-3.00898 16.5,-4.36667 6.05,-1.3577 13.475,-3.21764 16.5,-4.1332 3.025,-0.91556 7.92922,-3.25077 10.89826,-5.18936 3.53779,-2.30995 6.70014,-5.53898 9.17575,-9.36922 2.07762,-3.21448 4.23642,-7.96394 4.79733,-10.55435 0.56092,-2.59042 2.62051,-9.63397 4.57687,-15.65233 l 3.55701,-10.94248 -2.75261,-3.97722 c -1.51393,-2.18747 -4.10261,-5.33145 -5.75261,-6.98662 -1.65,-1.65517 -6.23051,-5.0663 -10.17892,-7.5803 -3.94841,-2.51399 -9.01616,-5.67719 -11.26169,-7.02931 -2.54871,-1.5347 -4.82984,-4.00169 -6.07107,-6.56573 -1.09358,-2.25902 -1.98832,-5.39816 -1.98832,-6.97586 0,-1.5777 0.94743,-4.82568 2.1054,-7.21772 1.46085,-3.01771 3.31668,-4.96712 6.06203,-6.3677 3.05866,-1.56041 5.02059,-1.87631 8.6446,-1.3919 2.57838,0.34464 5.36297,0.89525 6.18797,1.22357 0.825,0.32832 2.625,0.73061 4,0.89397 1.375,0.16335 5.2,0.37041 8.5,0.46013 3.3,0.0897 6.5625,0.60894 7.25,1.15383 0.8414,0.66686 1.72464,0.59679 2.70201,-0.21435 0.79861,-0.66279 2.33574,-0.92458 3.41584,-0.58177 1.08011,0.34281 2.25326,0.15499 2.60701,-0.41738 0.35375,-0.57238 1.46783,-1.04068 2.47575,-1.04068 1.057,0 2.08508,-0.95223 2.42921,-2.25 0.32815,-1.2375 6.4874,-7.63577 13.68723,-14.21837 7.19982,-6.5826 14.85789,-13.02226 17.01793,-14.31035 3.26955,-1.94973 4.70412,-2.22549 8.56521,-1.64649 l 4.63788,0.6955 -0.50683,-7.08366 c -0.38739,-5.41427 -0.0989,-7.97955 1.22404,-10.88514 0.95199,-2.09082 2.80275,-4.76227 4.1128,-5.93656 1.31006,-1.17428 3.39442,-2.44211 4.63192,-2.81738 1.2375,-0.37528 2.25,-1.08161 2.25,-1.56962 0,-0.48802 1.4625,-1.10873 3.25,-1.37935 1.7875,-0.27063 7.35849,-0.73228 12.37997,-1.02589 l 9.12997,-0.53384 2.60563,3.93737 c 1.4331,2.16556 2.72461,4.49849 2.87003,5.18429 0.14542,0.6858 2.0644,2.22935 4.2644,3.43011 2.2,1.20077 7.19852,3.1341 11.10781,4.2963 3.9093,1.16219 8.1843,2.11585 9.5,2.11924 1.31571,0.003 3.59933,0.63598 5.07483,1.40575 1.4754,0.76978 4.1754,1.71255 6,2.09505 1.8246,0.3825 5.7598,1.99991 8.74498,3.59425 4.3269,2.31096 6.696,2.89879 11.6826,2.89879 5.3332,0 6.3467,-0.28872 6.8768,-1.95905 0.342,-1.07747 2.3439,-3.32299 4.4487,-4.99003 l 3.8269,-3.03099 62.2652,-0.58196 c 51.0144,-0.47681 62.4166,-0.34309 63.1034,0.74004 0.461,0.72709 0.8451,2.35423 0.8535,3.61585 l 0.015,2.29386 88.75,-0.60386 c 77.525,-0.52749 89.9516,-0.40707 98.25,0.95212 5.3167,0.8708 15.5686,1.55775 23.2814,1.56 10.1219,0.003 13.8977,0.33594 14.2193,1.25402 0.2409,0.6875 0.6398,2.6 0.8864,4.25 0.2466,1.65 0.4854,3.3375 0.5307,3.75 0.045,0.4125 2.1037,0.75 4.5745,0.75 4.2733,0 4.6511,-0.23989 7.7485,-4.92071 l 3.2561,-4.9207 10.3497,-0.70544 c 5.6924,-0.38799 12.6681,-0.45127 15.5016,-0.14063 2.8335,0.31064 34.6268,0.19177 70.6518,-0.26416 41.0809,-0.51991 65.9369,-0.47558 66.6718,0.11891 0.6445,0.52132 1.4716,2.72196 1.8379,4.8903 0.3664,2.16834 0.8307,3.94243 1.032,3.94243 0.2012,0 3.6492,-2.46632 7.6621,-5.48071 6.6831,-5.02016 7.7415,-5.48233 12.5959,-5.5 2.9148,-0.0106 6.5866,-0.68482 8.1596,-1.49825 1.573,-0.81343 3.0132,-1.87771 3.2004,-2.36508 0.1871,-0.48737 4.9041,-4.31445 10.482,-8.50462 5.578,-4.19018 11.2279,-8.03148 12.5555,-8.53622 1.3276,-0.50474 4.3191,-0.56929 6.6479,-0.14344 2.3288,0.42585 4.4956,1.03569 4.8151,1.35519 0.3195,0.31951 1.1947,3.18917 1.9447,6.37703 0.7501,3.18785 1.3709,7.37444 1.3795,9.30351 l 0.016,3.50742 8.0516,-0.36565 c 6.5187,-0.29603 8.4081,-0.0432 9.9233,1.32817 1.0295,0.9316 3.1122,3.48387 4.6284,5.67171 2.2518,3.24932 2.8971,5.56889 3.5236,12.66442 0.4219,4.77759 1.2211,12.06152 1.7761,16.18652 0.5551,4.125 1.0289,13.03823 1.0531,19.80718 0.024,6.76895 -0.4711,14.41895 -1.1004,17 -0.6294,2.58105 -1.5627,5.22905 -2.074,5.88445 -0.5114,0.65539 -1.7553,3.80539 -2.7644,7 -1.0091,3.1946 -3.2637,9.85837 -5.0102,14.80837 -1.7465,4.95 -4.5738,11.925 -6.283,15.5 -1.8925,3.95864 -5.2807,8.65201 -8.6658,12.00416 -3.0571,3.02729 -7.8481,6.72829 -10.6467,8.22444 l -5.0884,2.72029 -24.4565,0.25463 -24.4566,0.25462 -2.2575,7.52093 c -1.2416,4.13651 -2.8679,8.9127 -3.6139,10.61374 -0.8165,1.86158 -2.8172,3.78599 -5.0258,4.83405 -2.6269,1.24653 -7.9798,1.99215 -18.8412,2.62441 -8.3444,0.48575 -21.7934,0.89793 -29.8865,0.91596 -13.5432,0.0302 -14.7973,-0.12124 -15.75,-1.90149 -0.5694,-1.06384 -1.0352,-3.08884 -1.0352,-4.5 0,-1.78403 -0.5371,-2.56574 -1.7629,-2.56574 -0.9695,0 -2.2071,1.0125 -2.75,2.25 -0.5465,1.2457 -3.4421,3.43834 -6.4871,4.9123 l -5.5,2.6623 -63.9477,0.6022 c -35.1712,0.33121 -66.3245,0.88154 -69.2295,1.22297 -4.0326,0.47395 -5.3864,0.29314 -5.7244,-0.7645 -0.2434,-0.7619 -0.723,-3.07277 -1.0658,-5.13527 l -0.6232,-3.75 h -5.4547 c -5.034,0 -5.4547,0.17838 -5.4547,2.31291 0,1.2721 -1.2965,3.55508 -2.8812,5.07329 l -2.8812,2.76037 -27.243,0.19424 -27.243,0.19423 -5.4514,5.98248 c -3.5967,3.94705 -7.2774,9.69883 -10.8182,16.90544 -2.9517,6.00763 -5.3393,11.18263 -5.3059,11.5 0.033,0.31737 -0.044,1.02704 -0.173,1.57704 -0.1286,0.55 -0.3062,1.45 -0.3948,2 -0.089,0.55 -0.7942,5.00509 -1.568,9.90019 -1.151,7.28084 -1.1882,10.63237 -0.2046,18.42053 0.6614,5.23619 1.699,10.11861 2.3058,10.84981 0.6069,0.73121 0.8595,1.32947 0.5614,1.32947 -0.2981,0 1.0097,3.18846 2.9063,7.08547 l 3.4483,7.08548 -2.1419,3.46559 c -1.178,1.90608 -3.1034,4.08877 -4.2787,4.85044 -1.6649,1.07892 -11.5926,1.6199 -44.9416,2.44893 -23.5426,0.58525 -51.2176,1.07112 -61.5,1.07971 -12.5423,0.0105 -20.5054,0.47055 -24.1953,1.39789 -3.025,0.76025 -7.075,1.98207 -9,2.71516 -1.925,0.73309 -5.4251,2.60932 -7.778,4.1694 -2.3529,1.56008 -5.9529,4.52981 -8,6.5994 -2.0471,2.06959 -4.9387,5.52681 -6.4257,7.68271 -1.4871,2.1559 -3.3331,5.49482 -4.1024,7.41982 -0.7692,1.925 -1.7615,4.4 -2.205,5.5 -0.4435,1.1 -0.7192,2.38487 -0.6126,2.85526 0.1066,0.47039 -0.1923,1.37039 -0.6643,2 -0.472,0.62961 -0.91,2.26974 -0.9733,3.64474 -0.063,1.375 -1.0149,7.9 -2.1146,14.5 -1.0997,6.6 -2.9954,18.3 -4.2125,26 -1.2172,7.7 -2.1848,14.675 -2.1504,15.5 0.034,0.825 -1.2472,9.16532 -2.8482,18.53405 -1.6009,9.36872 -3.0873,18.81872 -3.3029,21 -0.2157,2.18127 -1.148,9.36595 -2.0717,15.96595 -0.9237,6.6 -2.5882,17.625 -3.6989,24.5 -1.1107,6.875 -2.1715,13.49773 -2.3573,14.71718 -0.1858,1.21946 -2.0141,3.69446 -4.0629,5.5 -2.0487,1.80555 -4.5562,3.87084 -5.5721,4.58952 -1.016,0.71869 -1.8472,2.30606 -1.8472,3.5275 0,1.22143 -0.6764,3.18648 -1.5031,4.36677 -0.8267,1.18028 -2.9642,2.61956 -4.75,3.19838 -1.7858,0.57883 -7.9719,1.5464 -13.7469,2.15016 -5.775,0.60376 -22.19998,1.5121 -36.50002,2.01853 -14.3,0.50644 -39.05,1.33933 -55,1.85088 -15.95,0.51156 -34.09825,0.96407 -40.32946,1.00559 z M 1169.3238,493.5327 c 18.975,-0.25688 36.8719,-0.91711 39.7709,-1.46718 3.2295,-0.61279 6.8793,-2.22971 9.4238,-4.1749 2.2841,-1.74612 5.149,-5.06207 6.3664,-7.36878 2.0578,-3.89922 2.2193,-5.5798 2.2973,-23.90962 0.067,-15.71096 -0.2301,-20.44488 -1.462,-23.30598 -0.8502,-1.97471 -2.5153,-5.50288 -3.7002,-7.84038 -1.185,-2.3375 -2.5013,-4.25 -2.9253,-4.25 -0.424,0 -0.7709,-0.45117 -0.7709,-1.0026 0,-0.55143 -1.864,-2.68893 -4.1422,-4.75 -2.2782,-2.06107 -6.2564,-4.90631 -8.8404,-6.32276 -2.584,-1.41644 -6.6825,-3.08714 -9.1078,-3.71266 -2.4253,-0.62552 -6.3416,-1.42196 -8.7029,-1.76986 -2.3613,-0.34789 -11.4188,-0.30962 -20.1279,0.0851 l -15.8346,0.71759 -3.4948,4.68119 c -1.9222,2.57465 -4.1685,6.00708 -4.9919,7.62762 -0.8234,1.62053 -2.4335,5.64643 -3.578,8.94643 -1.1445,3.3 -2.5875,8.96975 -3.2066,12.59945 -0.6192,3.62969 -0.9223,9.02969 -0.6736,12 0.2487,2.9703 0.6722,6.07555 0.9411,6.90055 0.269,0.825 1.4806,5.1 2.6924,9.5 1.2119,4.4 3.1346,9.8767 4.2728,12.17044 1.1382,2.29374 1.7967,4.88124 1.4633,5.75 -0.3907,1.01811 -1.8355,1.57956 -4.0647,1.57956 -2.7767,0 -4.0644,-0.73493 -6.5314,-3.72784 -1.69,-2.05037 -3.0728,-4.19591 -3.0728,-4.76792 0,-0.57201 -1.0996,-2.65818 -2.4435,-4.63593 -1.3439,-1.97774 -3.3512,-6.29044 -4.4606,-9.58377 -1.1095,-3.29332 -2.7259,-9.41893 -3.5921,-13.61246 -0.8662,-4.19353 -2.6984,-9.7728 -4.0717,-12.39837 -1.3732,-2.62557 -3.3205,-5.85098 -4.3272,-7.16758 -1.0068,-1.3166 -2.3001,-2.10358 -2.8741,-1.74883 -0.574,0.35474 -1.7739,2.78196 -2.6666,5.39382 -0.8927,2.61185 -1.8891,7.89883 -2.2144,11.74883 -0.3252,3.85 -0.098,10.15 0.5043,14 0.6026,3.85 1.7748,9.25 2.6051,12 0.8302,2.75 3.2098,7.23266 5.288,9.96146 2.0781,2.72881 5.5995,6.24136 7.8253,7.80567 2.2257,1.56431 6.2699,3.22053 8.9871,3.68048 2.7172,0.45995 20.4654,0.6261 39.4404,0.36923 z m 474.5,-149.31684 c 0.275,0 0.5,-0.225 0.5,-0.5 0,-0.275 -0.225,-0.5 -0.5,-0.5 -0.275,0 -0.5,0.225 -0.5,0.5 0,0.275 0.225,0.5 0.5,0.5 z m -656.99998,-110 c 0.275,0 0.5,-0.225 0.5,-0.5 0,-0.275 -0.225,-0.5 -0.5,-0.5 -0.275,0 -0.5,0.225 -0.5,0.5 0,0.275 0.225,0.5 0.5,0.5 z"
     id="path289" /><path
     style="fill:#ffffff"
     d="m 461.61905,532.0133 -41.74439,0.72018 0.61939,-3.09692 0.61938,-3.09692 -11.875,-0.046 c -6.53125,-0.0253 -15.62744,-0.19224 -20.21375,-0.37101 -6.29929,-0.24555 -8.9678,-0.7947 -10.91073,-2.2453 -1.41459,-1.05614 -2.68181,-2.57669 -2.81605,-3.37899 -0.13424,-0.8023 -0.50531,-2.58373 -0.8246,-3.95873 -0.31929,-1.375 -1.02882,-4.66576 -1.57673,-7.3128 -0.54791,-2.64704 -0.80766,-9.62437 -0.57723,-15.50519 0.23044,-5.88081 0.65071,-11.36505 0.93394,-12.1872 0.28323,-0.82215 0.75602,-4.64481 1.05065,-8.49481 0.29463,-3.85 1.48346,-11.275 2.64184,-16.5 1.15838,-5.225 2.71099,-11.75 3.45025,-14.5 0.73925,-2.75 2.72849,-9.5 4.42053,-15 1.69203,-5.5 3.06978,-10.32622 3.06165,-10.72494 -0.008,-0.39872 2.7146,-7.14872 6.05049,-15 3.3359,-7.85128 8.00447,-18.55006 10.37462,-23.77506 2.37015,-5.225 5.45285,-12.2 6.85044,-15.5 1.3976,-3.3 3.28446,-7.8 4.19302,-10 0.90855,-2.2 2.07111,-4.9 2.58345,-6 0.51235,-1.1 1.79908,-4.475 2.8594,-7.5 1.06033,-3.025 2.80481,-7.75 3.87663,-10.5 1.07182,-2.75 2.52381,-6.35 3.22663,-8 0.70282,-1.65 1.42568,-3.45 1.60634,-4 0.18067,-0.55 1.66799,-5.95 3.30516,-12 1.63717,-6.05 4.68271,-15.725 6.76786,-21.5 2.08516,-5.775 4.59423,-11.68223 5.57572,-13.12717 1.37543,-2.02491 1.55569,-3.17112 0.78629,-5 -0.54902,-1.30506 -1.71055,-6.42283 -2.58116,-11.37283 -0.87061,-4.95 -2.79945,-11.47271 -4.2863,-14.4949 -1.48685,-3.0222 -3.37836,-6.36854 -4.20336,-7.43632 -0.825,-1.06778 -3.71685,-4.34746 -6.42634,-7.28818 -3.18377,-3.45548 -7.07474,-6.34331 -11,-8.16408 -3.34051,-1.54949 -8.77366,-3.44711 -12.07366,-4.21689 -3.30311,-0.7705 -11.16904,-1.3996 -17.5,-1.3996 -6.325,0 -24.65144,0.225 -40.72541,0.5 l -29.22541,0.5 -2.50653,-2.50467 c -2.2384,-2.23673 -2.44107,-3.05742 -1.89456,-7.67179 l 0.61197,-5.16712 6.11997,-2.69868 c 3.36598,-1.48427 7.46997,-3.29918 9.11997,-4.03312 1.65,-0.73395 5.99154,-2.01261 9.64786,-2.84146 3.65633,-0.82885 7.70633,-1.7002 9,-1.93632 1.29368,-0.23612 4.37714,-0.9772 6.85214,-1.64684 2.475,-0.66964 5.61953,-1.42179 6.98784,-1.67145 1.36831,-0.24965 4.93299,-1.8529 7.92153,-3.56277 2.98853,-1.70986 7.044,-4.72474 9.01216,-6.69973 1.96816,-1.97499 4.55498,-5.6103 5.7485,-8.07847 1.19351,-2.46817 4.07421,-10.78758 6.40154,-18.48758 2.32734,-7.7 4.41201,-14.49876 4.63261,-15.10836 0.2206,-0.6096 -2.09019,-4.02671 -5.1351,-7.59358 -3.04491,-3.56686 -8.20262,-8.3556 -11.46158,-10.64163 -3.25897,-2.28604 -6.22761,-4.15643 -6.59698,-4.15643 -0.36937,0 -3.04097,-1.57271 -5.93688,-3.4949 -3.48338,-2.31214 -5.85512,-4.802915 -7.00816,-7.359885 -0.97549,-2.16325 -1.612,-5.57777 -1.44564,-7.7551 0.16346,-2.13956 1.21587,-5.34385 2.33869,-7.12065 1.12281,-1.77679 3.91392,-4.22977 6.20247,-5.45106 3.39507,-1.8118 4.60419,-2.0186 6.56875,-1.12349 1.32426,0.60337 3.61431,0.86639 5.089,0.58449 1.60036,-0.30593 2.68125,-0.067 2.68125,0.59282 0,0.60795 1.0125,1.10974 2.25,1.11507 1.2375,0.005 5.40852,0.14456 9.26893,0.30938 3.86042,0.16482 7.59263,0.65424 8.29381,1.08759 0.70197,0.43385 1.92353,0.24958 2.71833,-0.41005 0.7939,-0.65888 2.10111,-0.9456 2.90492,-0.63715 0.80379,0.30844 2.83453,-0.12417 4.51273,-0.96137 1.6782,-0.8372 3.05128,-1.97809 3.05128,-2.53531 0,-0.55723 2.5875,-3.50122 5.75,-6.5422 3.1625,-3.04098 9.125,-8.54224 13.25,-12.22502 4.125,-3.68278 9.075,-7.79334 11,-9.13457 2.55712,-1.78165 4.82797,-2.43859 8.42946,-2.43859 h 4.92945 l -0.24289,-6.071219 c -0.15587,-3.895912 0.36609,-7.59322 1.45677,-10.319091 1.20067,-3.000788 3.34775,-5.475302 7.31343,-8.428785 l 5.61378,-4.180909 h 11.94643 11.94643 l 2.71462,3.989418 c 1.49304,2.19418 2.50309,4.33168 2.24455,4.75 -0.25853,0.41832 0.23149,0.760582 1.08895,0.760582 0.85746,0 1.55902,0.412782 1.55902,0.917292 0,0.504511 1.9125,1.598966 4.25,2.432122 2.3375,0.833156 6.95,2.263712 10.25,3.179015 3.3,0.915302 9.6,2.767692 14,4.116422 4.4,1.34873 9.8,3.189824 12,4.091319 2.2,0.901496 4.76247,2.276741 5.69437,3.0561 1.27507,1.066354 3.16971,1.245784 7.6562,0.725074 4.48241,-0.52024 6.07603,-1.128667 6.42206,-2.451874 0.25313,-0.967962 2.05942,-2.979693 4.01399,-4.470515 2.7777,-2.118656 4.93604,-2.799508 9.88357,-3.117788 3.4814,-0.223962 31.86073,-0.640016 63.06518,-0.924563 l 56.73537,-0.51736 0.6021,2.732378 c 0.33116,1.502808 0.6893,3.112055 0.79587,3.576105 0.10658,0.464051 21.55472,0.700501 47.66253,0.525446 26.10782,-0.175055 66.81876,-0.312066 90.46876,-0.304469 31.8977,0.01025 45.06554,0.369009 51,1.389509 4.4,0.756633 13.95138,1.33446 21.22528,1.28406 l 13.22529,-0.09164 0.65354,4.926681 0.65355,4.92668 h 4.82313 c 4.6367,0 4.94721,-0.1836 8.03322,-4.75 1.76555,-2.6125 3.29827,-4.873592 3.40603,-5.024652 0.10776,-0.15106 34.12234,-0.576865 75.58793,-0.946235 41.4656,-0.369369 78.0916,-0.695775 81.391,-0.725346 l 5.999,-0.05376 1.4767,4.500003 c 0.8122,2.475 1.5635,4.65081 1.6695,4.83514 0.106,0.18434 3.5321,-2.17816 7.6133,-5.25 7.0948,-5.339962 7.6849,-5.585143 13.4408,-5.585143 5.5395,0 6.3708,-0.304382 10.411,-3.811922 2.4149,-2.096558 8.0794,-6.59863 12.5878,-10.004606 4.5083,-3.405975 9.2561,-6.59536 10.5506,-7.08752 1.2945,-0.492161 3.6808,-0.64559 5.303,-0.340954 1.6221,0.304636 3.9618,1.21114 5.1993,2.014453 1.2375,0.803313 2.25,2.282257 2.25,3.286542 0,1.004285 0.45,2.104088 1,2.444007 0.55,0.339919 1,3.583174 1,7.207234 v 6.589201 l 7.75,-0.584447 c 7.0048,-0.528245 7.9912,-0.374212 10.2583,1.601782 1.3796,1.202427 3.6088,3.734483 4.9538,5.626793 1.9035,2.67804 2.6164,5.33757 3.2165,12 0.4241,4.70769 1.2902,17.55944 1.9246,28.55944 1.1285,19.565415 1.106,20.130385 -1.0387,26.000005 -1.2058,3.3 -2.4153,7.11102 -2.6877,8.46894 -0.2724,1.35792 -0.9356,2.9995 -1.4738,3.64797 -0.5382,0.64847 -1.1433,2.01245 -1.3447,3.03106 -0.2014,1.01862 -1.5699,5.00203 -3.041,8.85203 -1.4711,3.85 -2.8552,7.87422 -3.0757,8.94271 -0.2205,1.06849 -1.8502,4.89349 -3.6214,8.5 -2.0536,4.18141 -5.5465,8.86143 -9.6403,12.9166 -3.5309,3.49762 -8.4096,7.23947 -10.8415,8.31523 -3.9509,1.74766 -7.0259,1.9756 -28.8788,2.14069 -19.0572,0.14398 -24.4573,0.46627 -24.4583,1.45975 -7e-4,0.70124 -0.9286,3.85124 -2.062,7 -1.1334,3.14876 -2.2269,6.48332 -2.4301,7.41012 -0.2031,0.92681 -0.887,2.65241 -1.5197,3.83466 -0.6328,1.18226 -2.7064,2.79966 -4.608,3.59423 -1.9017,0.79457 -7.828,1.86986 -13.1695,2.38954 -5.3416,0.51968 -18.997,0.95648 -30.3453,0.97067 -20.5622,0.0257 -20.6355,0.018 -21.2364,-2.2242 -0.3316,-1.2375 -0.6091,-3.2625 -0.6166,-4.5 -0.011,-1.75447 -0.5878,-2.25 -2.6206,-2.25 -1.8291,0 -2.446,0.41957 -2.0675,1.40604 0.2968,0.77333 -0.2176,2.04888 -1.143,2.83457 -0.9254,0.78569 -3.5662,2.3807 -5.8684,3.54447 -4.0764,2.06061 -5.6721,2.12969 -61.00003,2.64075 -31.24778,0.28863 -62.32005,0.82147 -69.0495,1.18407 -9.16844,0.49403 -12.61503,0.34419 -13.75,-0.59775 -0.88237,-0.73231 -1.51464,-2.89651 -1.51464,-5.1845 v -3.92746 l -5.75,0.29991 c -5.37349,0.28026 -5.76994,0.47191 -6.05455,2.92683 -0.1675,1.44481 -1.43392,3.68793 -2.81427,4.9847 -2.50637,2.35461 -2.546,2.35783 -29.60284,2.40524 l -27.0931,0.0475 -5.38194,5.96783 c -2.96007,3.2823 -7.18793,9.34282 -9.39525,13.46782 -2.20732,4.125 -5.1276,11.775 -6.48951,17 -1.36191,5.225 -2.72934,12.875 -3.03873,17 -0.30938,4.125 -0.0543,10.2 0.56692,13.5 0.62119,3.3 1.27482,6.675 1.45251,7.5 0.17769,0.825 0.67735,2.4 1.11036,3.5 0.433,1.1 1.84548,4.57394 3.13884,7.71987 1.29336,3.14592 2.35156,6.60138 2.35156,7.6788 0,1.07741 -1.46669,3.51407 -3.2593,5.41479 l -3.2593,3.45587 -13.4907,0.59571 c -7.41989,0.32764 -26.9907,0.8522 -43.4907,1.16569 -16.5,0.31349 -38.1,0.56933 -48,0.56853 -9.9,-8e-4 -20.475,0.47814 -23.5,1.06432 -3.025,0.58617 -8.66278,2.56234 -12.5284,4.39149 -5.09685,2.41175 -8.83906,5.20125 -13.61695,10.15029 -3.66961,3.80105 -7.97991,9.5808 -9.72906,13.04585 -1.72727,3.42171 -3.37556,8.09216 -3.66286,10.37878 -0.2873,2.28662 -0.802,4.60995 -1.14378,5.16295 -0.34177,0.553 -0.77978,2.85082 -0.97334,5.10626 -0.19357,2.25544 -1.01533,7.4758 -1.82614,11.6008 -0.8108,4.125 -1.95316,11.48681 -2.53857,16.35957 -0.58541,4.87276 -1.66413,12.29776 -2.39715,16.5 -0.73303,4.20224 -1.39273,8.99043 -1.46602,10.64043 -0.0733,1.65 -1.46248,10.425 -3.08711,19.5 -1.62463,9.075 -3.22057,19.425 -3.54654,23 -0.32597,3.575 -1.23276,9.65 -2.0151,13.5 -0.78234,3.85 -1.4938,8.575 -1.58102,10.5 -0.0872,1.925 -1.0392,8.66736 -2.11551,14.98302 -1.91956,11.26382 -2.03445,11.55015 -6.01883,15 -2.23406,1.93434 -4.66756,3.87684 -5.40777,4.31667 -0.74022,0.43983 -1.34585,1.70691 -1.34585,2.81574 0,1.10883 -0.46031,2.87616 -1.02292,3.92739 -0.5626,1.05124 -1.98516,2.42632 -3.16124,3.05574 -1.17608,0.62942 -6.45326,1.83096 -11.72708,2.6701 -5.67021,0.90222 -20.21393,1.77206 -35.58876,2.12853 -14.3,0.33154 -26.45,0.88484 -27,1.22955 -0.55,0.34471 -19.78497,0.95082 -42.74438,1.34692 z M 713.36343,294.85678 c 19.25,-0.28782 37.18094,-0.92351 39.84653,-1.41264 2.86462,-0.52566 6.41905,-2.13481 8.69196,-3.93499 2.115,-1.6751 4.80161,-4.59275 5.97026,-6.48367 1.93772,-3.1353 2.16781,-5.26358 2.61315,-24.171 l 0.48832,-20.73298 -3.80511,-7.44038 c -2.09281,-4.09222 -5.65869,-9.51064 -7.92417,-12.04094 -2.42401,-2.70736 -6.74489,-5.90056 -10.5,-7.75967 -3.50952,-1.73753 -7.77404,-3.67588 -9.47673,-4.30745 -1.70268,-0.63157 -6.42768,-1.23496 -10.5,-1.34086 -4.07231,-0.10591 -13.27066,-0.0801 -20.44076,0.0574 l -13.03654,0.25 -3.53297,4.75 c -1.94313,2.6125 -4.81412,7.45 -6.37997,10.75 -1.56585,3.3 -3.65433,9.825 -4.64107,14.5 -0.98674,4.675 -1.8118,11.06535 -1.83348,14.20078 -0.0217,3.13543 0.44728,8.08543 1.04213,11 0.59486,2.91457 1.97484,7.77422 3.06664,10.79922 1.0918,3.025 3.05881,7.34379 4.37113,9.59732 1.80139,3.09336 2.1036,4.37976 1.23336,5.25 -0.63397,0.63397 -2.52518,1.13771 -4.20268,1.11941 -1.6775,-0.0183 -3.95,-0.82777 -5.05,-1.79884 -1.1,-0.97106 -2.56753,-2.64359 -3.26118,-3.71673 -0.69365,-1.07314 -3.03326,-5.64098 -5.19913,-10.15075 -2.16587,-4.50978 -4.63755,-11.58659 -5.49262,-15.72626 -0.85507,-4.13966 -2.27239,-9.67485 -3.1496,-12.30041 -0.87721,-2.62556 -2.78687,-6.68083 -4.24369,-9.01172 -1.45681,-2.33089 -3.17401,-4.43954 -3.81599,-4.68589 -0.67546,-0.2592 -2.31959,2.26346 -3.90235,5.98754 -2.5933,6.10181 -2.70288,6.99283 -2.11358,17.1859 0.34185,5.91274 1.34761,13.431 2.23503,16.70726 0.88742,3.27625 2.51079,7.71568 3.60749,9.86538 1.0967,2.14971 3.87086,5.70433 6.16481,7.89916 2.29395,2.19483 5.29581,4.4631 6.67081,5.0406 1.375,0.5775 4.525,1.39391 7,1.81424 2.475,0.42034 20.25,0.52876 39.5,0.24093 z m -183,-259.317139 c 0.275,0 0.5,-0.225 0.5,-0.5 0,-0.275 -0.225,-0.5 -0.5,-0.5 -0.275,0 -0.5,0.225 -0.5,0.5 0,0.275 0.225,0.5 0.5,0.5 z"
     id="path291" /></g></svg>
