<?xml version="1.0" encoding="UTF-8" standalone="no"?>
<svg
   xmlns:dc="http://purl.org/dc/elements/1.1/"
   xmlns:cc="http://creativecommons.org/ns#"
   xmlns:rdf="http://www.w3.org/1999/02/22-rdf-syntax-ns#"
   xmlns:svg="http://www.w3.org/2000/svg"
   xmlns="http://www.w3.org/2000/svg"
   xmlns:sodipodi="http://sodipodi.sourceforge.net/DTD/sodipodi-0.dtd"
   xmlns:inkscape="http://www.inkscape.org/namespaces/inkscape"
   version="1.1"
   x="0px"
   y="0px"
   width="93.25px"
   height="32px"
   viewBox="0 0 93.25 32"
   enable-background="new 0 0 93.25 32"
   xml:space="preserve"
   id="svg78"
   sodipodi:docname="fal.svg"
   inkscape:version="1.0.2-2 (e86c870879, 2021-01-15)"><metadata
   id="metadata84"><rdf:RDF><cc:Work
       rdf:about=""><dc:format>image/svg+xml</dc:format><dc:type
         rdf:resource="http://purl.org/dc/dcmitype/StillImage" /></cc:Work></rdf:RDF></metadata><defs
   id="defs82" /><sodipodi:namedview
   pagecolor="#ffffff"
   bordercolor="#666666"
   borderopacity="1"
   objecttolerance="10"
   gridtolerance="10"
   guidetolerance="10"
   inkscape:pageopacity="0"
   inkscape:pageshadow="2"
   inkscape:window-width="1842"
   inkscape:window-height="1051"
   id="namedview80"
   showgrid="false"
   inkscape:zoom="9.2132412"
   inkscape:cx="38.66845"
   inkscape:cy="15.875418"
   inkscape:window-x="-9"
   inkscape:window-y="-9"
   inkscape:window-maximized="1"
   inkscape:current-layer="svg78" />

<g
   id="guides">
</g>
<path
   style="fill:#e6e6e6;stroke-width:0.0840995"
   d="m 37.53189,25.130304 c -0.02494,-0.02494 -0.04534,-1.893438 -0.04534,-4.152219 0,-3.987878 -0.0046,-4.106874 -0.160808,-4.106874 -0.120438,0 -0.174255,0.0796 -0.21438,0.317095 -0.02947,0.174402 -0.08848,0.373088 -0.131147,0.441524 -0.248678,0.398875 -0.746167,-0.757132 -0.751733,-1.746792 l -0.0034,-0.609724 h -0.248923 c -0.217547,0 -0.261629,0.04241 -0.349712,0.3364 -0.0974,0.325087 -0.113021,0.336399 -0.464575,0.336399 h -0.363787 l 0.187875,0.357424 c 0.202318,0.384903 0.259976,1.159961 0.09832,1.321619 -0.06334,0.06334 -0.07902,-0.05609 -0.05356,-0.408009 0.03097,-0.428159 0.0031,-0.556091 -0.199854,-0.917124 -0.215808,-0.383911 -0.26763,-0.423914 -0.609946,-0.470833 -0.545574,-0.07478 -0.855224,-0.06289 -0.855224,0.03282 0,0.04626 -0.06622,0.08457 -0.147174,0.08514 -0.08095,5.89e-4 -0.239902,0.142492 -0.353237,0.315375 -0.260996,0.398131 -0.29747,1.171537 -0.06726,1.426241 0.08095,0.08956 0.147175,0.212686 0.147175,0.273616 0,0.139499 -0.382458,-0.267504 -0.535704,-0.570081 -0.06316,-0.124709 -0.164844,-0.42543 -0.225965,-0.668268 -0.109924,-0.436744 -0.114626,-0.441524 -0.434267,-0.441524 -0.360695,0 -0.342541,-0.03033 -0.490816,0.819973 -0.0817,0.46854 -0.138562,0.609724 -0.245547,0.609724 -0.07657,0 -0.229415,0.16084 -0.339649,0.357424 -0.110233,0.196583 -0.353731,0.55494 -0.54111,0.796348 -0.35158,0.45296 -1.022325,1.388397 -1.313451,1.831771 -0.09111,0.138765 -0.3717,0.536136 -0.623523,0.883048 -0.251823,0.346912 -0.62516,0.876741 -0.829639,1.177398 -0.204478,0.300656 -0.452409,0.638191 -0.550956,0.750077 -0.103437,0.117437 -0.159466,0.265534 -0.132547,0.350347 0.08608,0.271228 -0.125743,0.257841 -0.69391,-0.04386 -0.31039,-0.164818 -0.595786,-0.299668 -0.634213,-0.299668 -0.03842,0 -0.276544,-0.132211 -0.529149,-0.293801 -0.252607,-0.16159 -0.752233,-0.448202 -1.110284,-0.636916 -1.676216,-0.883471 -2.011006,-1.116957 -1.793972,-1.251139 0.06519,-0.04031 0.168295,-0.05418 0.229127,-0.03084 0.124552,0.04779 0.440059,-0.174502 1.037236,-0.730804 0.22344,-0.208147 0.608767,-0.55567 0.856282,-0.772274 0.247514,-0.216605 0.56356,-0.495433 0.702324,-0.61962 0.138765,-0.124187 0.642499,-0.570643 1.119409,-0.992125 0.476909,-0.42148 0.945149,-0.8926 1.040531,-1.046932 0.339503,-0.549327 0.05847,-1.271544 -0.648163,-1.665677 -0.0914,-0.05098 -0.177954,-0.17154 -0.192345,-0.267915 -0.02149,-0.143949 -0.10406,-0.183912 -0.462549,-0.223887 -0.240011,-0.02676 -0.941428,-0.104888 -1.558705,-0.173609 -2.553839,-0.284319 -4.074599,-0.04718 -6.530761,1.018362 -0.138765,0.0602 -0.498292,0.190266 -0.798949,0.289037 -0.300656,0.09877 -0.84178,0.308884 -1.202496,0.466917 -0.360716,0.158032 -0.714664,0.287331 -0.786551,0.287331 -0.07189,0 -0.558155,0.189225 -1.080596,0.420499 -0.522441,0.231275 -1.00108,0.420847 -1.063645,0.421271 -0.06257,4.2e-4 -0.546933,0.189649 -1.076377,0.420498 -0.529443,0.230852 -1.014369,0.419728 -1.077614,0.419728 -0.06324,0 -0.5019053,0.165276 -0.9748023,0.36728 -0.4728962,0.202004 -1.0854721,0.43265 -1.3612805,0.512548 -0.2758069,0.0799 -0.5393133,0.172504 -0.5855676,0.205793 -0.1126366,0.08106 -1.0655799,0.451824 -1.6399469,0.638058 -0.2544019,0.08249 -0.6517735,0.233939 -0.8830481,0.336558 -0.2312744,0.102618 -0.5718787,0.234007 -0.7568983,0.291975 -0.1850195,0.05796 -0.5666219,0.1929 -0.8480052,0.299848 -0.6639163,0.252339 -1.0590944,0.323152 -1.4227107,0.254937 L 1.660047,21.404972 v -0.660077 c 0,-1.566436 -0.4861658,-4.982559 -1.09366845,-7.684843 -0.13327891,-0.592849 -0.22206743,-1.130698 -0.19730777,-1.195221 0.0963558,-0.251099 0.42971612,-0.265734 2.21607412,-0.09729 1.8076468,0.170455 5.1464525,0.313248 7.3166847,0.312919 2.7945414,-4.21e-4 7.2231694,-0.228859 8.4099804,-0.433798 0.679792,-0.117386 2.028369,-0.410103 2.270696,-0.492868 0.115637,-0.03949 0.310588,-0.09359 0.433224,-0.120214 0.215136,-0.0467 1.103351,-0.708042 1.305264,-0.97186 0.06048,-0.07903 0.0806,-0.2806528 0.05209,-0.5220808 l -0.04645,-0.393326 0.283726,-0.02717 c 0.212556,-0.02036 0.311393,-0.08519 0.394024,-0.258448 0.08686,-0.182134 0.168292,-0.231274 0.38324,-0.231274 0.371953,0 0.47478,-0.131143 0.47478,-0.605519 0,-0.239374 0.03794,-0.403679 0.09322,-0.403679 0.05865,0 0.07265,0.08197 0.03773,0.221044 -0.03051,0.121573 -0.03054,0.334595 -5.5e-5,0.473379 0.05493,0.250077 0.05948,0.251917 0.50891,0.205532 0.462689,-0.04775 0.534667,-0.0094 0.348362,0.185668 -0.08625,0.09031 -0.01076,0.103685 0.4205,0.07453 l 0.525624,-0.03553 v 0.362791 c 0,0.325928 0.02032,0.36279 0.199952,0.36279 0.268653,0 0.408514,-0.186305 0.3412,-0.454504 -0.05305,-0.211339 -0.04244,-0.218294 0.332778,-0.218294 0.213163,0 0.387567,0.03784 0.387567,0.0841 0,0.04626 0.07569,0.0841 0.1682,0.0841 0.09251,0 0.168199,-0.03784 0.168199,-0.0841 0,-0.04626 0.132457,-0.0841 0.294349,-0.0841 0.161893,0 0.29435,0.03784 0.29435,0.0841 0,0.04626 0.09461,0.0841 0.21025,0.0841 0.115637,0 0.210249,-0.03784 0.210249,-0.0841 0,-0.05319 0.602716,-0.0841 1.639947,-0.0841 1.03723,0 1.639946,0.03091 1.639946,0.0841 0,0.04626 0.113535,0.0841 0.252299,0.0841 0.138765,0 0.2523,-0.03784 0.2523,-0.0841 0,-0.04626 0.113535,-0.0841 0.2523,-0.0841 0.138764,0 0.252299,0.03784 0.252299,0.0841 0,0.04626 0.09461,0.0841 0.210249,0.0841 0.115637,0 0.21025,-0.03784 0.21025,-0.0841 0,-0.05319 0.602715,-0.0841 1.639946,-0.0841 1.037231,0 1.639947,0.03091 1.639947,0.0841 0,0.04626 0.113534,0.0841 0.252299,0.0841 0.138765,0 0.2523,-0.03784 0.2523,-0.0841 0,-0.04626 0.113534,-0.0841 0.252299,-0.0841 0.138765,0 0.252299,0.03784 0.252299,0.0841 0,0.04626 0.09461,0.0841 0.21025,0.0841 0.115638,0 0.210249,-0.03784 0.210249,-0.0841 0,-0.04626 0.175033,-0.0841 0.388962,-0.0841 0.381057,0 0.388006,0.0048 0.341915,0.235235 -0.09427,0.471354 -0.201401,0.458498 3.547838,0.425736 2.726829,-0.02383 3.458471,-0.008 3.458471,0.0749 -3e-6,0.156026 0.141608,0.127294 0.207256,-0.04205 0.05434,-0.140166 0.06222,-0.140166 0.165443,0 0.131254,0.17822 0.215998,0.189003 0.215998,0.02748 0,-0.09765 0.219129,-0.120594 1.190074,-0.124589 0.941207,-0.0039 1.219586,-0.03161 1.331196,-0.132607 0.124461,-0.112638 1.268658,-0.127711 9.693972,-0.127711 5.254069,0 9.612716,0.02297 9.685881,0.05105 0.07317,0.02807 0.133029,0.106919 0.133029,0.175207 0,0.190581 0.206667,0.07927 0.237123,-0.127718 0.03111,-0.211404 0.04014,-0.212504 0.741924,-0.09029 0.631222,0.109922 0.729394,0.04967 0.817566,-0.501727 0.09223,-0.576757 0.26399,-0.836634 0.593866,-0.898519 0.517785,-0.09714 0.802698,0.02277 0.979544,0.412241 0.08716,0.191957 0.159306,0.484106 0.160322,0.64922 0.0028,0.457473 0.292364,0.66694 0.921917,0.66694 0.403266,0 0.505917,0.02806 0.538277,0.147174 0.02199,0.08095 0.104689,0.4310118 0.183773,0.7779238 0.166863,0.731957 0.315607,1.009197 0.541451,1.009197 0.08871,0 0.184686,0.03784 0.213274,0.0841 0.03342,0.05407 1.414835,0.0841 3.868396,0.0841 h 3.816427 l 0.05633,-0.375739 c 0.09092,-0.606281 0.50946,-0.76186 0.661753,-0.245983 l 0.07702,0.260977 1.008436,0.05422 c 0.554633,0.02982 2.797663,0.05422 4.984494,0.05422 2.379904,0 4.06266,0.03292 4.191786,0.08202 0.204788,0.07786 0.215729,0.113631 0.215729,0.705304 v 0.623284 l -0.27333,0.06597 c -0.374585,0.09041 -5.576434,0.09067 -7.358733,3.69e-4 -1.084044,-0.05493 -1.450718,-0.04893 -1.450718,0.02373 0,0.06811 -0.299442,0.09723 -1.0002,0.09723 -0.811489,0 -1.009334,-0.0238 -1.048611,-0.126149 -0.04192,-0.109176 -0.492901,-0.126117 -3.351969,-0.125912 -1.816949,1.35e-4 -4.01143,0.02498 -4.876617,0.05521 l -1.573067,0.05498 -0.02483,0.454678 -0.02483,0.454678 -1.91327,-0.0019 c -1.90477,-0.0019 -1.913271,-0.0011 -1.913271,0.179726 0,0.141228 -0.02242,0.159152 -0.10092,0.08066 -0.07445,-0.07445 -0.835392,-0.100919 -2.901444,-0.100919 h -2.800523 v 0.283148 0.283149 l -6.118262,-0.0098 -6.118262,-0.0098 -0.02672,-0.278339 -0.02672,-0.27834 -0.688121,0.01678 c -0.378466,0.0092 -0.782733,-0.02121 -0.89837,-0.06765 -0.115638,-0.04644 -0.484626,-0.08012 -0.819974,-0.07485 -0.436829,0.0069 -0.609724,-0.02022 -0.609724,-0.09553 0,-0.188629 -1.129051,-0.132516 -1.692193,0.0841 -0.440075,0.169278 -0.492062,0.214536 -0.493167,0.429333 -0.0012,0.234686 -0.0093,0.238898 -0.358659,0.18655 -0.932098,-0.139666 -1.072272,-0.147075 -1.072272,-0.05668 0,0.05091 0.09678,0.09257 0.215058,0.09257 0.118282,0 0.383197,0.04234 0.588699,0.09408 l 0.37364,0.09408 v 4.732657 c 0,5.204694 0.03882,4.834754 -0.507299,4.834754 -0.132682,0 -0.271505,0.05112 -0.308495,0.113605 -0.03945,0.06664 -0.293216,0.135318 -0.613903,0.166131 -0.300657,0.02888 -1.240961,0.204102 -2.089564,0.389365 -1.174591,0.256431 -1.781113,0.344708 -2.540726,0.369796 -0.548796,0.01812 -1.018215,0.01255 -1.043154,-0.01239 z M 32.104159,15.93171 c 0,-0.189708 -0.280616,-0.406096 -0.526632,-0.406096 -0.19183,0 -0.236659,0.03023 -0.197215,0.133028 0.02808,0.07317 0.05105,0.1867 0.05105,0.252299 0,0.08308 0.102067,0.119272 0.3364,0.119272 0.200991,0 0.336399,-0.03965 0.336399,-0.0985 z m 40.268076,-4.512184 c 0.165049,-0.126986 0.190528,-0.212694 0.1682,-0.565803 -0.02427,-0.383839 -0.04427,-0.418214 -0.257589,-0.442759 l -0.231274,-0.02661 v 0.594285 c 0,0.326856 0.02838,0.593443 0.06307,0.592414 0.03469,-10e-4 0.150607,-0.06922 0.257589,-0.151525 z m -6.985573,-0.372227 c -0.02593,-0.0778 -0.359294,-0.105125 -1.282523,-0.105125 -0.923229,0 -1.256589,0.02732 -1.282522,0.105125 -0.02704,0.08112 0.265849,0.105124 1.282522,0.105124 1.016674,0 1.309561,-0.024 1.282523,-0.105124 z m 5.387974,-2.7752938 c 0.03055,-0.265522 -0.142542,-0.313579 -0.357003,-0.09912 -0.214461,0.214461 -0.166405,0.387554 0.09912,0.357003 0.181653,-0.0209 0.236984,-0.07624 0.257886,-0.257885 z m 0.520038,0.153182 c 0,-0.134686 -0.222453,-0.384457 -0.342407,-0.384457 -0.08911,0 -0.106964,0.363594 -0.02203,0.448532 0.103337,0.103337 0.364432,0.05743 0.364432,-0.06408 z"
   id="path100" /></svg>
