<?xml version="1.0" encoding="UTF-8" standalone="no"?>
<svg
   xmlns:dc="http://purl.org/dc/elements/1.1/"
   xmlns:cc="http://creativecommons.org/ns#"
   xmlns:rdf="http://www.w3.org/1999/02/22-rdf-syntax-ns#"
   xmlns:svg="http://www.w3.org/2000/svg"
   xmlns="http://www.w3.org/2000/svg"
   xmlns:sodipodi="http://sodipodi.sourceforge.net/DTD/sodipodi-0.dtd"
   xmlns:inkscape="http://www.inkscape.org/namespaces/inkscape"
   version="1.1"
   x="0px"
   y="0px"
   width="89.667px"
   height="32px"
   viewBox="0 0 89.667 32"
   enable-background="new 0 0 89.667 32"
   xml:space="preserve"
   id="svg47"
   sodipodi:docname="grau556.svg"
   inkscape:version="1.0.2-2 (e86c870879, 2021-01-15)"><metadata
   id="metadata53"><rdf:RDF><cc:Work
       rdf:about=""><dc:format>image/svg+xml</dc:format><dc:type
         rdf:resource="http://purl.org/dc/dcmitype/StillImage" /></cc:Work></rdf:RDF></metadata><defs
   id="defs51" /><sodipodi:namedview
   pagecolor="#ffffff"
   bordercolor="#666666"
   borderopacity="1"
   objecttolerance="10"
   gridtolerance="10"
   guidetolerance="10"
   inkscape:pageopacity="0"
   inkscape:pageshadow="2"
   inkscape:window-width="1842"
   inkscape:window-height="1051"
   id="namedview49"
   showgrid="false"
   inkscape:zoom="9.7154534"
   inkscape:cx="57.581024"
   inkscape:cy="-3.9984231"
   inkscape:window-x="-9"
   inkscape:window-y="-9"
   inkscape:window-maximized="1"
   inkscape:current-layer="svg47" />

<g
   id="guides">
</g>
<path
   style="fill:#ffffff;stroke-width:0.0988368"
   d="m 50.609887,30.416092 c -0.0436,-0.236863 -0.317083,-1.046577 -0.559141,-1.655513 -0.115473,-0.290489 -0.500441,-1.436188 -0.597787,-1.77906 -0.0463,-0.16308 -0.245945,-0.874704 -0.443655,-1.581386 -0.197709,-0.706682 -0.408969,-1.440543 -0.469463,-1.630804 -0.108436,-0.341034 -0.207673,-0.756507 -0.365917,-1.531967 -0.04437,-0.217441 -0.153326,-0.751159 -0.242119,-1.18604 -0.421497,-2.064379 -0.795098,-4.550598 -0.909686,-6.053743 -0.03419,-0.448472 -0.09131,-0.815402 -0.126935,-0.815402 -0.169451,0 -0.344248,0.505155 -0.388421,1.122521 -0.0399,0.557604 -0.0824,0.691253 -0.232296,0.730452 -0.235239,0.06151 -0.232067,0.09856 0.06267,0.731673 0.255262,0.548331 0.320431,0.973472 0.149221,0.973472 -0.05436,0 -0.09884,-0.124025 -0.09884,-0.275612 0,-0.151586 -0.08896,-0.450087 -0.197672,-0.663336 -0.108721,-0.213249 -0.197674,-0.467273 -0.197674,-0.564499 0,-0.09723 -0.04448,-0.176776 -0.09884,-0.176776 -0.05436,0 -0.100251,-0.07784 -0.101979,-0.172964 -0.0028,-0.15126 -0.01825,-0.154361 -0.123546,-0.02471 -0.320417,0.394537 -0.62872,0.444765 -2.730046,0.444765 h -2.035678 l -0.417945,-0.29651 c -0.229871,-0.163081 -0.418896,-0.332493 -0.420057,-0.376471 -0.0023,-0.08649 0.100557,-0.03695 0.507331,0.244422 0.235014,0.162559 0.487954,0.181467 2.42757,0.181467 2.793466,0 2.597841,0.141869 2.597841,-1.883975 v -1.480929 l -1.789121,0.02693 -1.789121,0.02693 -0.144776,0.428545 c -0.152899,0.452589 -0.143046,2.015288 0.01562,2.477882 0.05772,0.168269 0.04889,0.217634 -0.03018,0.168766 -0.198888,-0.12292 -0.393523,-0.68843 -0.451042,-1.310491 -0.0573,-0.619646 -0.224673,-1.122263 -0.373729,-1.122263 -0.04563,0 -0.08298,-0.155668 -0.08298,-0.345928 V 12.699615 H 40.35847 39.765451 v 1.353186 c 0,1.192379 -0.01666,1.330403 -0.140174,1.161485 -0.0771,-0.105435 -0.159326,-0.169531 -0.182733,-0.142437 -0.02341,0.0271 -0.880422,1.729941 -1.904474,3.784103 -1.83246,3.675756 -1.85996,3.740242 -1.738392,4.076434 0.06794,0.187878 0.09587,0.386331 0.06208,0.441009 -0.102144,0.165271 -0.489648,0.112493 -0.949292,-0.129293 -0.239127,-0.125788 -0.614521,-0.29962 -0.834208,-0.386294 -0.219687,-0.08667 -0.775643,-0.333752 -1.235458,-0.549062 -1.712363,-0.801821 -2.181607,-1.010344 -2.273595,-1.010344 -0.110918,0 -0.128815,-0.363578 -0.02027,-0.41182 0.04077,-0.01812 0.251433,-0.299805 0.468141,-0.625965 0.216705,-0.326161 0.420199,-0.615258 0.452208,-0.642438 0.032,-0.02717 0.14227,-0.193967 0.245027,-0.370638 0.102756,-0.17667 0.216321,-0.321218 0.252366,-0.321218 0.03605,0 0.120804,-0.13343 0.188353,-0.296511 0.06755,-0.163079 0.1619,-0.296509 0.209665,-0.296509 0.04776,0 0.08684,-0.04635 0.08684,-0.103009 0,-0.05665 0.04501,-0.156726 0.100017,-0.222383 0.327213,-0.390543 0.690675,-0.898901 0.690675,-0.966015 0,-0.043 0.05846,-0.13696 0.129906,-0.208792 0.265481,-0.266913 0.821514,-1.231125 0.936872,-1.624622 0.290154,-0.98974 0.03295,-2.010309 -0.688329,-2.731249 -0.315893,-0.315745 -0.4351,-0.370638 -0.804896,-0.370638 -0.877275,0 -1.649122,-0.122237 -1.649122,-0.261171 0,-0.07379 -0.04448,-0.134175 -0.09884,-0.134175 -0.05436,0 -0.09884,0.04448 -0.09884,0.09884 0,0.06249 -0.717716,0.09947 -1.952024,0.100562 -1.840752,0.0016 -2.978633,0.111849 -3.978175,0.385352 -0.963487,0.263637 -1.621363,0.410899 -2.520333,0.564159 -0.987885,0.168419 -1.994476,0.549221 -2.569752,0.972159 -0.163081,0.119895 -0.542402,0.351942 -0.842937,0.515658 -0.300533,0.163718 -0.834251,0.476562 -1.186039,0.69521 -0.351788,0.218648 -1.417952,0.853942 -2.369254,1.411764 -0.951303,0.557823 -2.075806,1.23089 -2.498896,1.495706 -0.423092,0.264816 -0.812261,0.481484 -0.864821,0.481484 -0.05256,0 -0.09556,0.04448 -0.09556,0.09884 0,0.05436 -0.06224,0.09884 -0.138323,0.09884 -0.07608,0 -0.354301,0.14455 -0.618273,0.32122 -0.745128,0.498696 -0.9903,0.577062 -2.077649,0.664092 -1.2687081,0.101547 -1.3194204,0.144527 -1.3752287,1.165593 -0.059122,1.081722 -0.1038666,1.23412 -0.3403023,1.159078 -0.1069096,-0.03393 -0.194381,-0.01941 -0.194381,0.03228 0,0.05168 -0.1111913,0.115229 -0.2470915,0.141209 -0.1359003,0.02598 -0.2470916,0.0037 -0.2470916,-0.04941 0,-0.05721 -0.2609997,-0.08003 -0.6396167,-0.05591 -0.4795067,0.03053 -0.6526317,0.0068 -0.691607,-0.09476 C 5.4691974,21.776552 5.583546,20.278828 5.7647784,18.728661 6.0024682,16.695573 5.858354,11.809786 5.4808208,9.1021858 5.3733784,8.331618 5.5291738,8.1531425 6.3092619,8.1531425 c 0.2989811,0 0.5435751,-0.033359 0.5435434,-0.074131 -3.27e-5,-0.040772 1.1897137,-0.074131 2.6438792,-0.074131 7.3205655,0 14.8287785,-0.2861427 16.6293195,-0.6337535 1.088322,-0.2101106 1.929439,-0.4155834 2.421498,-0.5915363 1.926553,-0.6889078 2.383336,-0.8422576 2.44925,-0.8222529 0.04244,0.012877 0.165506,-0.058872 0.273469,-0.1594588 0.107964,-0.1005835 0.317857,-0.2439862 0.46643,-0.3186719 0.148574,-0.074688 0.388291,-0.2153018 0.532707,-0.3124793 0.253201,-0.1703787 0.726168,-0.2118938 3.023744,-0.2654158 l 0.420055,-0.00978 V 4.1027181 c 0,-0.758969 0.0093,-0.7911563 0.247091,-0.8508268 0.135901,-0.034108 0.247092,-0.094536 0.247092,-0.1342726 0,-0.098515 0.461461,-0.3016603 0.685245,-0.3016603 0.108501,0 0.244197,-0.1315714 0.336665,-0.3264354 0.08519,-0.1795385 0.242449,-0.4056612 0.349447,-0.502494 0.17739,-0.1605353 0.22355,-0.1631318 0.523505,-0.029451 0.18093,0.080631 0.473511,0.2064243 0.650181,0.2795304 0.176671,0.073103 0.318602,0.1554191 0.315404,0.1829195 -0.0032,0.027501 -0.131472,0.316859 -0.28505,0.6430198 -0.155829,0.330937 -0.235569,0.6092643 -0.180428,0.6297761 0.05434,0.020213 0.13406,-0.02028 0.177145,-0.089994 0.06112,-0.098892 0.270398,-0.106971 0.952225,-0.036758 l 0.873891,0.089994 0.04942,0.5930199 0.04941,0.5930199 0.469474,0.030123 0.469474,0.030123 V 4.1556611 c 0,-0.6807995 0.01745,-0.7466904 0.197673,-0.7466904 0.131782,0 0.197673,0.065892 0.197673,0.1976736 0,0.1600206 0.06589,0.1976727 0.345929,0.1976727 0.280036,0 0.345927,-0.037651 0.345927,-0.1976727 0,-0.1317827 0.06589,-0.1976736 0.197674,-0.1976736 0.131782,0 0.197673,0.065892 0.197673,0.1976736 0,0.1600206 0.06589,0.1976727 0.345928,0.1976727 0.280037,0 0.345928,-0.037651 0.345928,-0.1976727 0,-0.1317827 0.06589,-0.1976736 0.197674,-0.1976736 0.131782,0 0.197673,0.065892 0.197673,0.1976736 0,0.1600206 0.06589,0.1976727 0.345928,0.1976727 0.280037,0 0.345928,-0.037651 0.345928,-0.1976727 0,-0.1317827 0.06589,-0.1976736 0.197674,-0.1976736 0.131782,0 0.197672,0.065892 0.197672,0.1976736 0,0.1600206 0.06589,0.1976727 0.345929,0.1976727 0.280036,0 0.345928,-0.037651 0.345928,-0.1976727 0,-0.1317827 0.06589,-0.1976736 0.197674,-0.1976736 0.131782,0 0.197673,0.065892 0.197673,0.1976736 0,0.1600206 0.06589,0.1976727 0.345928,0.1976727 0.280036,0 0.345928,-0.037651 0.345928,-0.1976727 0,-0.1317827 0.06589,-0.1976736 0.197673,-0.1976736 0.131783,0 0.197674,0.065892 0.197674,0.1976736 0,0.1600206 0.06589,0.1976727 0.345928,0.1976727 0.280036,0 0.345928,-0.037651 0.345928,-0.1976727 0,-0.1317827 0.06589,-0.1976736 0.197673,-0.1976736 0.131782,0 0.197674,0.065892 0.197674,0.1976736 0,0.1600206 0.06589,0.1976727 0.345928,0.1976727 0.280036,0 0.345928,-0.037651 0.345928,-0.1976727 0,-0.1317827 0.06589,-0.1976736 0.197673,-0.1976736 0.131782,0 0.197674,0.065892 0.197674,0.1976736 0,0.1600206 0.06589,0.1976727 0.345928,0.1976727 0.280036,0 0.345927,-0.037651 0.345927,-0.1976727 0,-0.2692981 0.395123,-0.2692981 0.465546,0 0.07379,0.2822 0.621657,0.2822 0.621657,0 0,-0.2692981 0.395123,-0.2692981 0.465546,0 0.0738,0.2822 0.621657,0.2822 0.621657,0 0,-0.1449611 0.06589,-0.1976736 0.247092,-0.1976736 0.181201,0 0.247092,0.052708 0.247092,0.1976736 0,0.1537454 0.06589,0.1976727 0.29651,0.1976727 0.230618,0 0.296509,-0.043931 0.296509,-0.1976727 0,-0.1449611 0.06589,-0.1976736 0.247092,-0.1976736 0.1812,0 0.247092,0.052708 0.247092,0.1976736 0,0.1537454 0.06589,0.1976727 0.296509,0.1976727 0.230619,0 0.29651,-0.043931 0.29651,-0.1976727 0,-0.1449611 0.06589,-0.1976736 0.247092,-0.1976736 0.1812,0 0.247092,0.052708 0.247092,0.1976736 0,0.2875255 0.588973,0.2839121 0.664283,-0.00403 0.04783,-0.1829013 0.118527,-0.1990602 0.756732,-0.1729647 l 0.703972,0.028788 0.0061,0.2965104 c 0.0034,0.16308 0.0145,0.4077008 0.02469,0.5436011 l 0.01851,0.2470915 8.32633,-0.02897 c 5.12805,-0.017841 8.362658,-0.065296 8.420905,-0.1235458 0.162015,-0.162015 0.648061,-0.1138242 0.648061,0.06425 0,0.1042257 0.05374,0.1382048 0.156339,0.098837 0.08598,-0.032994 0.237359,-0.059996 0.336385,-0.059996 0.282548,0 0.358964,-0.8355954 0.241787,-2.6438802 l -0.0656,-1.01307884 h 0.598682 c 0.329275,0 0.621165,0.036374 0.648644,0.080843 0.02748,0.044459 0.05765,0.91240914 0.06704,1.92877024 0.01555,1.68172 0.09096,2.2211795 0.251858,1.8018636 0.07706,-0.2008069 0.591181,-0.203606 0.667916,-0.00365 0.128965,0.3360763 0.190414,1.7270127 0.0763,1.7270127 -0.06218,0 -0.113047,0.088957 -0.113047,0.1976736 0,0.1537454 -0.06589,0.1976727 -0.296509,0.1976727 -0.192277,0 -0.29651,-0.050067 -0.29651,-0.1424223 0,-0.078327 -0.04448,-0.1699091 -0.09884,-0.2035061 -0.06173,-0.03816 -0.09884,0.1637012 -0.09884,0.5377685 v 0.5988524 h 0.820344 c 0.45119,0 0.862597,-0.037315 0.91424,-0.082927 0.243316,-0.2148869 1.261092,-0.3231533 2.762483,-0.2938592 1.833358,0.035769 2.165173,0.219497 0.440794,0.2440677 -1.341303,0.019109 -1.401261,0.039072 -1.361346,0.4532547 l 0.03103,0.3218993 1.309585,0.027578 c 1.287795,0.027117 1.309586,0.031313 1.309586,0.2520954 0,0.1234853 -0.0556,0.3457382 -0.123546,0.493896 l -0.123546,0.2693788 -1.828477,-0.03805 c -1.826531,-0.03801 -2.470916,-0.109683 -2.470916,-0.2748443 0,-0.048195 -0.333574,-0.087622 -0.741274,-0.087622 -0.428293,0 -0.741275,-0.041732 -0.741275,-0.098837 0,-0.054359 -0.04175,-0.098837 -0.09278,-0.098837 -0.05103,0 -0.122793,0.2001444 -0.159476,0.4447653 -0.06426,0.42852 -0.07918,0.444765 -0.408462,0.444765 -0.187971,0 -0.408482,-0.06672 -0.490022,-0.148256 -0.09496,-0.09496 -0.338989,-0.148255 -0.67883,-0.148255 h -0.530575 l -0.03876,-0.3706367 c -0.02603,-0.2488277 -0.04423,-0.1676219 -0.05539,0.2470917 l -0.01661,0.617728 h 0.749511 c 0.555834,0 0.738795,0.03193 0.708043,0.123546 -0.02768,0.08248 -0.285087,0.127527 -0.77422,0.135518 -0.58193,0.0095 -0.739128,0.04406 -0.763724,0.1678482 -0.03987,0.20066 -0.39595,0.242287 -2.687036,0.314117 -1.005663,0.03153 -2.192314,0.100946 -2.637005,0.154258 -0.44469,0.05331 -1.467649,0.142605 -2.273242,0.19843 -0.805593,0.05582 -2.020671,0.140405 -2.700173,0.18796 -3.656349,0.255893 -4.570738,0.308403 -4.614166,0.264974 -0.02631,-0.02631 0.500757,-0.310796 1.171255,-0.632196 l 1.219101,-0.584368 6.029034,-0.1226842 c 3.392076,-0.06902 6.070102,-0.162825 6.122929,-0.214461 0.297254,-0.290551 -0.18279,-0.311867 -6.189353,-0.27484 l -6.062813,0.03737 -0.691174,0.340155 c -0.380144,0.1870862 -1.055189,0.5534392 -1.500101,0.8141192 -0.646388,0.378729 -0.899596,0.473964 -1.260166,0.473964 -0.408159,0 -0.451239,0.02225 -0.451239,0.233011 0,0.212632 -0.05313,0.238566 -0.607518,0.29651 -0.334135,0.03492 -0.801623,0.0635 -1.038862,0.0635 -0.52967,0 -1.276205,0.331274 -1.639937,0.727721 -0.324836,0.354052 -0.338617,0.603324 -0.12368,2.237377 0.08223,0.625142 0.195469,1.492433 0.251648,1.927315 0.204787,1.585277 0.501233,3.171979 0.849425,4.546484 0.08262,0.326161 0.191167,0.759807 0.241208,0.963658 0.05004,0.20385 0.132495,0.537423 0.183233,0.741274 0.179136,0.719732 1.234525,3.935801 1.464327,4.462219 0.163007,0.373408 0.201664,0.564674 0.128843,0.637495 -0.05722,0.05722 -0.104034,0.07631 -0.104034,0.04242 0,-0.03389 -0.408266,0.112888 -0.907258,0.326162 -0.498992,0.213272 -0.945905,0.387768 -0.993141,0.387768 -0.04723,0 -0.269994,0.08896 -0.495019,0.197673 -0.225024,0.108721 -0.459142,0.197673 -0.520262,0.197673 -0.06112,0 -0.308504,0.0954 -0.549746,0.212008 -0.417127,0.201618 -1.795662,0.731547 -2.217679,0.852507 -0.108721,0.03116 -0.384139,0.160206 -0.612041,0.286765 -0.527729,0.293059 -0.590128,0.289062 -0.651018,-0.04169 z M 8.7660436,18.259187 C 8.6234908,17.96809 8.6051444,12.307383 8.746205,12.137418 8.841375,12.022742 8.837803,11.975089 8.728978,11.907829 8.5135649,11.774697 8.764401,11.403277 9.2800747,11.091798 l 0.4390565,-0.2652 v 0.224891 c 0,0.437531 0.1208572,0.462098 2.2732418,0.462098 2.154464,0 2.273243,-0.02428 2.273243,-0.464531 v -0.227324 h 2.489254 c 2.418445,0 2.49575,0.0061 2.717618,0.214535 0.1256,0.117995 0.257916,0.184981 0.294037,0.148861 0.07641,-0.0764 -0.22906,-0.437346 -0.486897,-0.575335 -0.106565,-0.05703 -2.069466,-0.09186 -4.927487,-0.08742 -6.517822,0.01012 -5.954391,-0.386349 -5.9971314,4.219995 -0.025907,2.792704 -0.00941,3.245854 0.1258244,3.452226 0.181773,0.27742 0.4153424,0.330314 0.2852151,0.06459 z m 2.2720754,-0.504533 c 0.280216,-0.155182 0.647996,-0.366445 0.81729,-0.469474 0.169293,-0.103027 0.636296,-0.384598 1.037785,-0.625711 0.894149,-0.536981 0.977069,-0.616879 0.977069,-0.941451 0,-0.280143 -0.319156,-0.471668 -0.602663,-0.361655 -0.318331,0.123526 -2.845205,1.626556 -3.094105,1.84043 -0.2981236,0.256171 -0.3291146,0.516155 -0.08373,0.702426 0.250314,0.190017 0.379855,0.170269 0.948357,-0.144565 z M 74.14277,4.9656613 C 74.115816,4.7758876 74.042346,4.7388616 73.641712,4.713154 73.196285,4.684568 73.172238,4.695966 73.172238,4.9355366 c 0,0.2375794 0.02962,0.2525063 0.501058,0.2525063 0.463081,0 0.498663,-0.016852 0.469474,-0.2223816 z M 38.480583,2.5125804 c 0,-0.2580873 -0.03321,-0.2986691 -0.222383,-0.2718006 -0.159226,0.022614 -0.231264,0.1087744 -0.253655,0.3033839 -0.02693,0.2340294 0.0039,0.2718005 0.222381,0.2718005 0.217226,0 0.253657,-0.043576 0.253657,-0.3033838 z"
   id="path69" /><path
   style="fill:#ffffff;stroke-width:0.0988368"
   d="m 8.1375801,21.466392 -1.603e-4,-0.612744 h 0.4696335 0.4696345 v -0.459311 -0.45931 l 0.6846194,-0.06728 c 0.6441458,-0.06331 1.4030338,-0.326468 1.7368768,-0.602294 0.119086,-0.09839 1.612185,-0.990537 2.619171,-1.564988 0.848303,-0.483929 2.23921,-1.313175 2.538551,-1.51346 0.509566,-0.340946 0.988927,-0.616197 1.192531,-0.684757 0.09513,-0.03203 0.172964,-0.09753 0.172964,-0.145551 0,-0.04802 0.06354,-0.08731 0.141195,-0.08731 0.07766,0 0.199969,-0.05808 0.271801,-0.129076 0.07184,-0.07099 0.197321,-0.158932 0.278861,-0.195422 0.08154,-0.03649 0.370637,-0.202756 0.642438,-0.369478 0.2718,-0.166722 0.572017,-0.32859 0.667147,-0.359707 0.09513,-0.03111 0.172964,-0.08827 0.172964,-0.127014 0,-0.03875 0.287919,-0.215118 0.63982,-0.391948 0.635223,-0.3192 1.707168,-0.60234 2.275824,-0.601129 0.257176,5.47e-4 0.204693,0.04815 -0.39531,0.358518 -0.380521,0.196838 -0.762073,0.418937 -0.847894,0.493552 -0.08582,0.07461 -0.20813,0.135664 -0.2718,0.135664 -0.06367,0 -0.115764,0.04448 -0.115764,0.09884 0,0.05436 -0.05795,0.09884 -0.128782,0.09884 -0.07083,0 -0.518393,0.244621 -0.994584,0.543601 -0.476192,0.298981 -0.907481,0.543602 -0.958421,0.543602 -0.05094,0 -0.09262,0.03362 -0.09262,0.07471 0,0.04109 -0.144549,0.1376 -0.321219,0.214464 -0.17667,0.07687 -0.343457,0.16922 -0.370637,0.205232 -0.07815,0.103551 -1.285204,0.790471 -1.389008,0.790471 -0.05145,0 -0.09354,0.04448 -0.09354,0.09884 0,0.05436 -0.04627,0.09884 -0.102839,0.09884 -0.05656,0 -0.223347,0.08358 -0.370637,0.185727 -0.235074,0.163033 -3.399562,2.052079 -3.924754,2.34289 -0.108719,0.0602 -0.420055,0.25015 -0.691855,0.422107 -0.271802,0.171959 -0.572018,0.33968 -0.667148,0.372715 -0.09513,0.03303 -0.172964,0.09105 -0.172964,0.128923 0,0.03787 -0.155667,0.129941 -0.345928,0.204593 -0.190261,0.07465 -0.345927,0.171907 -0.345927,0.216121 0,0.04422 -0.04361,0.08039 -0.09692,0.08039 -0.0533,0 -0.340265,0.155668 -0.6376887,0.345929 -0.2974256,0.19026 -0.5836797,0.345927 -0.6361214,0.345927 -0.052439,0 -0.1101735,0.03336 -0.1282932,0.07413 -0.01812,0.04077 -0.2219707,0.171956 -0.4530012,0.291525 L 8.1377326,22.07915 Z"
   id="path71" /></svg>
