<?xml version="1.0" encoding="UTF-8" standalone="no"?>
<svg
   xmlns:dc="http://purl.org/dc/elements/1.1/"
   xmlns:cc="http://creativecommons.org/ns#"
   xmlns:rdf="http://www.w3.org/1999/02/22-rdf-syntax-ns#"
   xmlns:svg="http://www.w3.org/2000/svg"
   xmlns="http://www.w3.org/2000/svg"
   xmlns:sodipodi="http://sodipodi.sourceforge.net/DTD/sodipodi-0.dtd"
   xmlns:inkscape="http://www.inkscape.org/namespaces/inkscape"
   version="1.1"
   x="0px"
   y="0px"
   width="90px"
   height="32px"
   viewBox="0 0 90 32"
   enable-background="new 0 0 90 32"
   xml:space="preserve"
   id="svg92"
   sodipodi:docname="bizon.svg"
   inkscape:version="1.0.2-2 (e86c870879, 2021-01-15)"><metadata
   id="metadata98"><rdf:RDF><cc:Work
       rdf:about=""><dc:format>image/svg+xml</dc:format><dc:type
         rdf:resource="http://purl.org/dc/dcmitype/StillImage" /></cc:Work></rdf:RDF></metadata><defs
   id="defs96" /><sodipodi:namedview
   pagecolor="#ffffff"
   bordercolor="#666666"
   borderopacity="1"
   objecttolerance="10"
   gridtolerance="10"
   guidetolerance="10"
   inkscape:pageopacity="0"
   inkscape:pageshadow="2"
   inkscape:window-width="1842"
   inkscape:window-height="1051"
   id="namedview94"
   showgrid="false"
   inkscape:zoom="5.6568543"
   inkscape:cx="73.880929"
   inkscape:cy="-9.2586685"
   inkscape:window-x="-9"
   inkscape:window-y="-9"
   inkscape:window-maximized="1"
   inkscape:current-layer="svg92" />

<g
   id="guides">
</g>
<path
   style="fill:#ffffff;stroke-width:0.0883883"
   d="m 34.111365,27.930374 c -0.291681,-0.100543 -0.609879,-0.215869 -0.707107,-0.256281 -0.09723,-0.04041 -0.498474,-0.177414 -0.891659,-0.304452 -0.930758,-0.300726 -1.362243,-0.676735 -1.362243,-1.187098 0,-0.187537 0.264785,-1.107916 0.483776,-1.681575 0.06495,-0.170147 0.204942,-0.607669 0.311087,-0.972271 0.266788,-0.916404 0.312798,-1.066407 0.650661,-2.121321 0.163481,-0.510442 0.381998,-1.206501 0.485593,-1.546796 0.103594,-0.340295 0.271664,-0.877254 0.373488,-1.193242 0.273039,-0.847307 0.31318,-1.555009 0.123526,-2.177797 -0.08677,-0.284926 -0.191295,-0.555834 -0.232285,-0.602017 -0.04099,-0.04618 -0.07453,-0.409673 -0.07453,-0.807755 v -0.723787 l -0.287262,-0.05141 c -0.157994,-0.02827 -0.595517,-0.02087 -0.972272,0.01644 -0.376755,0.03732 -0.68501,0.03614 -0.68501,-0.0026 0,-0.03876 -0.04264,-0.07047 -0.09475,-0.07047 -0.06307,0 -0.07481,0.159578 -0.03511,0.477298 0.05226,0.418302 0.03939,0.482974 -0.104125,0.523218 -0.748835,0.209983 -1.541938,0.449699 -1.798944,0.543732 -1.222008,0.447107 -1.813303,0.573047 -1.871452,0.398601 -0.0262,-0.07859 -1.421028,0.321794 -2.106023,0.604532 -0.121534,0.05016 -0.777818,0.270593 -1.458408,0.489844 -0.68059,0.219251 -1.356761,0.440956 -1.502602,0.492678 -0.394678,0.139971 -2.321033,0.786564 -2.828427,0.949379 -0.243068,0.078 -0.899352,0.296758 -1.458408,0.486136 -0.559056,0.189378 -1.21534,0.408139 -1.458408,0.486136 -0.243068,0.078 -0.899351,0.296758 -1.458407,0.486136 -0.559057,0.189378 -1.21534,0.40848 -1.458408,0.486893 -0.718038,0.231639 -2.172461,0.714669 -2.695845,0.895319 -0.267374,0.09229 -0.883883,0.294425 -1.3700194,0.449194 -0.4861356,0.154769 -1.0230946,0.336377 -1.1932426,0.403574 -0.267645,0.105701 -1.0844809,0.37623 -3.4029511,1.127025 -1.0690165,0.346182 -1.0342201,0.321519 -0.9721301,0.689027 0.053086,0.314211 0.043345,0.330759 -0.2264515,0.384718 -0.5437926,0.108759 -1.0732626,0.0653 -1.1974457,-0.09829 C 2.5480835,24.407814 2.5174365,23.954912 2.515342,22.746306 2.510261,19.814372 2.1566666,16.289361 1.5653385,13.275648 1.493799,12.911046 1.4143813,12.294538 1.3888548,11.905629 c -0.058786,-0.895635 0.010417,-0.97119 0.9689966,-1.057943 l 0.6850097,-0.06199 v 0.240719 0.240718 l 0.5524271,-0.05539 c 0.303835,-0.03046 0.9104,-0.07638 1.3479223,-0.102033 1.6851724,-0.09881 5.8446185,-0.352571 7.9549515,-0.485319 0.729204,-0.04587 2.041771,-0.125447 2.916815,-0.176839 0.875045,-0.05139 2.42626,-0.151471 3.447146,-0.222398 1.020885,-0.07093 2.54227,-0.169301 3.380854,-0.218609 3.441559,-0.2023597 4.575768,-0.3012771 4.683775,-0.4084836 0.06032,-0.059876 0.37852,-0.1329369 0.707106,-0.1623581 0.328586,-0.029421 1.104558,-0.1203854 1.724381,-0.2021424 1.072905,-0.1415201 1.126952,-0.1583716 1.126952,-0.351376 0,-0.1114999 0.03977,-0.202727 0.08839,-0.202727 0.04861,0 0.089,0.1093806 0.08974,0.2430679 0.0024,0.4311439 0.08357,0.4738097 0.778539,0.4092194 0.67539,-0.062771 0.872372,-0.2103456 0.280768,-0.2103456 -0.400885,0 -0.441758,-0.1033744 -0.214576,-0.5426971 0.07644,-0.1478143 0.116625,-0.3270055 0.0893,-0.3982027 -0.02732,-0.071197 0.04935,-0.2362435 0.170381,-0.3667696 0.121031,-0.1305262 0.220056,-0.2675578 0.220056,-0.3045148 0,-0.036957 0.05966,-0.067194 0.132583,-0.067194 0.07292,0 0.132582,0.039775 0.132582,0.088388 0,0.1888839 0.17615,0.05594 1.14186,-0.8617859 0.549921,-0.522597 1.064872,-0.977211 1.144338,-1.010254 0.07946,-0.03304 1.148795,-0.06287 2.376288,-0.06629 l 2.231806,-0.0062 v -0.530333 -0.53033 h 1.546796 c 1.316004,0 1.546796,0.01978 1.546796,0.132583 0,0.0926 0.0933,0.132582 0.309359,0.132582 0.21606,0 0.309359,-0.03998 0.309359,-0.132582 0,-0.08839 0.08839,-0.132583 0.265165,-0.132583 0.176777,0 0.265165,0.04419 0.265165,0.132583 0,0.09575 0.09821,0.132582 0.353554,0.132582 0.255344,0 0.353553,-0.03683 0.353553,-0.132582 0,-0.0825 0.08348,-0.132583 0.220971,-0.132583 0.137493,0 0.220971,0.05009 0.220971,0.132583 0,0.09575 0.09821,0.132582 0.353553,0.132582 0.255344,0 0.353554,-0.03683 0.353554,-0.132582 0,-0.08839 0.08839,-0.132583 0.265165,-0.132583 0.176776,0 0.265165,0.04419 0.265165,0.132583 0,0.0926 0.0933,0.132582 0.309359,0.132582 0.21606,0 0.309359,-0.03998 0.309359,-0.132582 0,-0.08839 0.08839,-0.132583 0.265165,-0.132583 0.176777,0 0.265165,0.04419 0.265165,0.132583 0,0.09575 0.09821,0.132582 0.353554,0.132582 0.255344,0 0.353553,-0.03683 0.353553,-0.132582 0,-0.0825 0.08348,-0.132583 0.220971,-0.132583 0.137493,0 0.220971,0.05009 0.220971,0.132583 0,0.09575 0.09821,0.132582 0.353553,0.132582 0.255344,0 0.353553,-0.03683 0.353553,-0.132582 0,-0.114638 0.329001,-0.132583 2.43068,-0.132583 h 2.43068 l -0.0028,0.198874 c -0.0015,0.10938 -0.09907,0.308254 -0.216731,0.441942 l -0.213938,0.243067 h -3.451385 c -2.241998,0 -3.451385,0.03097 -3.451385,0.08839 0,0.05797 1.885617,0.08839 5.480077,0.08839 h 5.480078 v -0.265165 c 0,-0.184623 0.04314,-0.265165 0.142039,-0.265165 0.09321,0 0.123594,-0.04807 0.08839,-0.139811 -0.02951,-0.0769 -0.05365,-0.176333 -0.05365,-0.220971 0,-0.04464 -0.139211,-0.08116 -0.309359,-0.08116 -0.170147,0 -0.309359,0.03978 -0.309359,0.08839 0,0.04861 -0.07435,0.08839 -0.165212,0.08839 -0.158501,0 -0.272745,-0.338726 -0.275757,-0.817592 -0.0012,-0.187307 0.2024,-0.203054 0.348544,-0.02696 0.08906,0.107313 0.517971,0.122945 2.68457,0.09784 1.418216,-0.01643 2.676919,-0.03779 2.797118,-0.04746 0.137485,-0.01106 0.287304,0.06236 0.403926,0.197938 0.10196,0.118536 0.291982,0.242275 0.422272,0.274975 0.233631,0.05864 0.236888,0.06976 0.236888,0.809073 0,0.440819 0.03641,0.749617 0.08839,0.749617 0.04861,0 0.08839,-0.09944 0.08839,-0.220971 v -0.22097 h 8.582954 8.582953 l -0.04587,0.331456 c -0.02523,0.182301 -0.163797,0.768979 -0.307935,1.3037285 -0.33052,1.2262307 -0.404135,1.6351845 -0.294345,1.6351845 0.08904,0 0.189534,-0.2813079 0.355237,-0.9943689 0.05366,-0.2309146 0.141427,-0.6087748 0.195035,-0.8396891 0.05361,-0.230915 0.148154,-0.598831 0.210101,-0.817592 0.06195,-0.218762 0.204093,-0.795496 0.315882,-1.281631 0.111789,-0.486136 0.260017,-0.951235 0.329395,-1.033554 0.289791,-0.343841 1.076282,-0.299746 1.244651,0.06978 0.06695,0.146938 0.100598,0.988077 0.100598,2.514727 0,1.4703664 0.03173,2.293938 0.08839,2.293938 0.04861,0 0.08839,-0.039775 0.08839,-0.088388 0,-0.214414 0.248388,-0.061787 0.297279,0.182669 l 0.05421,0.2710574 0.862817,-0.033662 c 0.555112,-0.021657 1.08337,-0.1025628 1.481255,-0.2268633 0.500151,-0.1562486 0.834039,-0.1932016 1.74567,-0.1932016 h 1.127232 v 1.458404 1.458408 l -1.082751,-6.72e-4 c -0.849705,-5.3e-4 -1.206417,-0.04006 -1.657281,-0.183667 -0.33087,-0.105385 -0.94184,-0.203912 -1.440635,-0.232321 -0.799818,-0.04555 -0.879309,-0.03516 -1.038563,0.135777 -0.09485,0.101805 -0.172453,0.226541 -0.172453,0.277187 0,0.05065 -0.03978,0.09208 -0.08839,0.09208 -0.04861,0 -0.08839,0.0772 -0.08839,0.171561 0,0.09436 0.03977,0.196142 0.08839,0.226187 0.05663,0.035 0.08738,1.331031 0.08558,3.607041 -0.0024,2.983559 -0.02359,3.579889 -0.132582,3.723988 -0.126822,0.167673 -0.129772,0.167171 -0.129772,-0.0221 0,-0.191448 -0.01667,-0.19367 -1.453191,-0.19367 -0.873451,0 -1.474985,-0.03526 -1.507818,-0.08839 -0.07092,-0.114744 -27.960818,-0.118186 -28.455299,-0.0035 -0.294077,0.0682 -0.389652,0.0513 -0.618718,-0.109402 -0.149003,-0.104532 -0.284173,-0.221327 -0.300377,-0.259543 -0.0162,-0.03822 -0.06876,-0.06949 -0.116799,-0.06949 -0.04804,0 -0.137122,-0.04972 -0.197972,-0.110486 -0.13456,-0.134379 -0.73135,-0.612309 -0.876604,-0.702017 -0.06962,-0.043 -0.115421,-0.453008 -0.135961,-1.217158 -0.01704,-0.633776 -0.06135,-1.15232 -0.09847,-1.15232 -0.07322,0 -0.179914,0.650863 -0.179914,1.097524 0,0.152545 -0.0526,0.355812 -0.116881,0.451702 -0.06428,0.09589 -0.168248,0.412995 -0.231031,0.704677 -0.06278,0.291681 -0.166058,0.709316 -0.2295,0.928078 -0.06344,0.218761 -0.165871,0.606565 -0.22762,0.861786 -0.06175,0.255221 -0.139657,0.464039 -0.173127,0.464039 -0.141822,0 -0.263345,-0.265199 -0.21889,-0.477682 0.0264,-0.126184 0.06795,-0.32608 0.09233,-0.444215 0.02438,-0.118134 0.09399,-0.26729 0.15468,-0.331456 0.129447,-0.136854 0.331323,-0.682996 0.331323,-0.89634 0,-0.08162 -0.05541,-0.148404 -0.123126,-0.148404 -0.06772,0 -0.14602,-0.05966 -0.174003,-0.132583 -0.03855,-0.100457 -0.201468,-0.132582 -0.672369,-0.132582 h -0.621498 v 0.265263 c 0,0.193417 -0.09588,0.358308 -0.353982,0.60879 -0.378961,0.367771 -0.502624,0.403199 -2.20928,0.632939 -0.413216,0.05562 -0.942189,0.137055 -1.175496,0.180956 -0.233307,0.0439 -0.726998,0.07982 -1.097089,0.07982 -0.8318,0 -1.293952,-0.233326 -1.673641,-0.844969 l -0.25222,-0.406303 -0.453167,0.03538 c -0.542702,0.04238 -0.93115,0.318835 -1.087455,0.773945 -0.05844,0.170147 -0.140581,0.388909 -0.182542,0.486136 -0.0943,0.218498 -0.371921,0.998348 -0.707975,1.988738 -0.140209,0.413215 -0.359127,1.029724 -0.486483,1.370019 -0.127355,0.340295 -0.346171,0.956804 -0.486256,1.370019 -0.140085,0.413216 -0.379534,1.089387 -0.53211,1.502602 -0.24897,0.674284 -0.272458,0.820702 -0.229124,1.428298 0.05454,0.764724 0.06693,0.744821 -0.641743,1.031121 -0.574988,0.232293 -0.70041,0.232085 -1.38033,-0.0023 z M 4.7234874,21.667041 c 0.2666885,-0.100253 0.683762,-0.244857 0.9268299,-0.321342 0.243068,-0.07649 0.7800272,-0.254445 1.1932427,-0.395466 0.4132155,-0.14102 1.069499,-0.359938 1.458408,-0.486485 0.388908,-0.126545 1.045192,-0.345306 1.4584066,-0.486135 0.4132164,-0.140829 1.0694994,-0.35959 1.4584084,-0.486136 0.388909,-0.126546 1.045192,-0.345806 1.458408,-0.487246 0.413215,-0.141439 1.069499,-0.358343 1.458408,-0.482009 0.388908,-0.123665 1.045192,-0.342427 1.458407,-0.486135 0.413216,-0.143709 1.069499,-0.36247 1.458408,-0.486136 0.388909,-0.123666 1.045192,-0.342427 1.458408,-0.486136 0.413215,-0.143709 1.069499,-0.36247 1.458408,-0.486136 0.388908,-0.123666 1.045192,-0.34159 1.458407,-0.484275 0.413216,-0.142685 1.606459,-0.544635 2.651651,-0.89322 1.045192,-0.348586 1.909168,-0.638032 1.919946,-0.643213 0.01078,-0.0052 -0.100025,-0.32543 -0.246229,-0.711663 -0.318377,-0.841071 -0.333819,-1.03207 -0.127185,-1.573132 0.0871,-0.228075 0.135228,-0.437823 0.106944,-0.466106 -0.02828,-0.02828 -0.839465,0.01154 -1.802625,0.0885 -0.96316,0.07696 -2.447259,0.181112 -3.297997,0.231455 -0.850738,0.05034 -2.193136,0.130729 -2.983107,0.178636 -0.78997,0.04791 -2.092594,0.126879 -2.894718,0.175492 -0.802124,0.04861 -2.124635,0.129075 -2.938912,0.178804 -1.554061,0.09491 -4.5140777,0.29311 -6.6070294,0.442406 -0.6805903,0.04855 -1.4064796,0.08774 -1.6130874,0.08708 l -0.3756504,-0.0012 v 0.438774 c 0,0.241325 0.037864,0.828002 0.084141,1.303728 0.046278,0.475725 0.1265278,1.421801 0.1783337,2.102391 0.051806,0.68059 0.1332047,1.734621 0.1808863,2.342291 0.047682,0.60767 0.1100368,1.413109 0.1385669,1.789864 0.060249,0.795623 0.093929,0.813988 0.9219215,0.502733 z M 42.807426,19.017353 c 0.321594,-0.05056 0.922801,-0.148486 1.336017,-0.217616 0.413215,-0.06913 1.073622,-0.173195 1.46757,-0.231257 0.393948,-0.05806 0.772356,-0.149066 0.840905,-0.202229 0.314807,-0.244148 0.576417,-0.93635 0.353883,-0.93635 -0.04272,0 -0.105876,-0.606565 -0.140337,-1.347923 -0.05027,-1.081572 -0.03697,-1.42215 0.06734,-1.723572 l 0.129998,-0.375651 h -1.227099 c -0.786378,0 -1.227098,-0.03284 -1.227098,-0.09143 0,-0.05647 -0.160564,-0.07423 -0.419845,-0.04645 -0.230915,0.02474 -0.648549,0.06875 -0.928078,0.09779 -0.48756,0.05066 -0.508233,0.06306 -0.508233,0.304871 0,0.138634 -0.04635,0.452866 -0.103002,0.698293 -0.186615,0.808462 0.16514,1.799117 0.868566,2.446152 0.262344,0.241314 0.38414,0.47986 0.245005,0.47986 -0.100269,0 -0.709453,-0.494905 -1.033582,-0.839689 -0.394669,-0.419819 -0.86087,-1.336576 -0.86087,-1.692851 0,-0.157638 -0.06679,-0.295074 -0.176777,-0.363763 -0.138421,-0.08644 -0.176776,-0.206123 -0.176776,-0.551591 0,-0.422903 -0.01008,-0.441103 -0.243068,-0.439019 -0.188745,0.0017 -0.277638,0.07164 -0.397748,0.312992 -0.131843,0.26493 -0.15468,0.572579 -0.15468,2.083816 v 1.772999 l 0.375651,0.373681 c 0.546857,0.54399 0.933408,0.642826 1.912255,0.488936 z m 4.592197,-4.641009 c 0.153565,-0.337037 0.12709,-0.408152 -0.140491,-0.377363 -0.202538,0.0233 -0.247686,0.07587 -0.270765,0.31523 -0.02248,0.233152 0.004,0.287263 0.140492,0.287263 0.09446,0 0.213157,-0.0987 0.270764,-0.22513 z m 4.135364,-0.549622 c 0.0611,-0.03987 0.11413,-0.482685 0.137391,-1.147226 0.0344,-0.982741 0.02329,-1.086921 -0.120812,-1.132657 -0.292126,-0.09272 -0.337056,0.04417 -0.337056,1.026919 v 0.967055 h -0.53033 c -0.383016,0 -0.53033,0.03274 -0.53033,0.117851 0,0.06482 0.02652,0.144368 0.05893,0.176777 0.07992,0.07992 1.197682,0.07255 1.322211,-0.0087 z M 26.904271,13.34737 c 0.382793,-0.410879 0.105313,-1.132382 -0.435498,-1.132382 -0.408171,0 -0.621718,0.227696 -0.621718,0.662913 0,0.300464 0.04421,0.41869 0.196444,0.525318 0.278587,0.195131 0.649361,0.171074 0.860772,-0.05585 z M 80.35678,11.899947 c 0.103191,-0.103191 0.1128,-0.163729 0.03788,-0.238649 -0.05521,-0.05521 -0.100383,-0.23164 -0.100383,-0.392065 0,-0.200347 -0.04152,-0.291682 -0.132583,-0.291682 -0.08249,0 -0.132582,0.08348 -0.132582,0.220971 v 0.220971 h -8.127711 -8.12771 l -0.220971,0.220971 c -0.210183,0.210183 -0.27079,0.220971 -1.241455,0.220971 -0.621396,0 -1.020483,0.03457 -1.020483,0.08839 0,0.05838 3.213548,0.08839 9.463867,0.08839 8.46733,0 9.478425,-0.01456 9.602131,-0.138264 z m 7.889338,-1.270138 c 0.05032,-0.09403 0.0915,-0.29552 0.0915,-0.447753 0,-0.5291449 -0.114701,-0.6187181 -0.792292,-0.6187181 -0.709988,0 -0.887086,0.1171187 -0.887086,0.5866481 0,0.571964 0.101704,0.650789 0.839689,0.650789 0.558791,0 0.670334,-0.02549 0.748191,-0.170966 z M 73.43226,8.5846508 c 0.168913,-0.1328665 0.232891,-0.2646526 0.232891,-0.4797207 0,-0.2150681 -0.06398,-0.3468542 -0.232891,-0.4797207 -0.215076,-0.1691786 -0.349009,-0.1831919 -1.750874,-0.1831919 -1.71568,0 -1.801802,0.026936 -1.876926,0.5870238 -0.04002,0.2983721 -0.01352,0.3922212 0.155112,0.5493259 0.191555,0.1784608 0.291635,0.1894755 1.721587,0.1894755 1.402095,0 1.536022,-0.014011 1.751101,-0.1831919 z m 4.965685,-0.033761 c 0.119324,-0.1193242 0.216953,-0.2964392 0.216953,-0.3935886 0,-0.2902116 -0.185696,-0.6085233 -0.386425,-0.662391 -0.103454,-0.027763 -0.845476,-0.051022 -1.648937,-0.051685 -1.73237,-0.00143 -1.853725,0.041888 -1.853725,0.6617056 0,0.6235834 0.114149,0.6629126 1.924034,0.6629126 1.50781,0 1.534453,-0.00331 1.7481,-0.2169536 z M 82.50619,8.1712217 C 82.656319,7.9809751 82.688886,7.8465312 82.65605,7.5525516 82.59567,7.0119341 82.478388,6.9116881 81.906286,6.9116881 c -0.599416,0 -0.7214,0.129228 -0.725315,0.7683857 -0.0034,0.5520755 0.185588,0.7342158 0.761742,0.7342158 0.300027,0 0.408636,-0.046851 0.563477,-0.2430679 z M 60.719367,4.9127841 c 0.119824,-0.07851 0.217862,-0.177948 0.217862,-0.220971 0,-0.04302 -0.361288,-0.07822 -0.802861,-0.07822 -0.893015,0 -1.03558,0.13435 -0.339705,0.32013 0.544644,0.145405 0.675352,0.142446 0.924704,-0.020939 z"
   id="path328" /></svg>
