<?xml version="1.0" encoding="UTF-8" standalone="no"?>
<svg
   xmlns:dc="http://purl.org/dc/elements/1.1/"
   xmlns:cc="http://creativecommons.org/ns#"
   xmlns:rdf="http://www.w3.org/1999/02/22-rdf-syntax-ns#"
   xmlns:svg="http://www.w3.org/2000/svg"
   xmlns="http://www.w3.org/2000/svg"
   xmlns:sodipodi="http://sodipodi.sourceforge.net/DTD/sodipodi-0.dtd"
   xmlns:inkscape="http://www.inkscape.org/namespaces/inkscape"
   version="1.1"
   x="0px"
   y="0px"
   width="88.5px"
   height="32px"
   viewBox="0 0 88.5 32"
   enable-background="new 0 0 88.5 32"
   xml:space="preserve"
   id="svg137"
   sodipodi:docname="origin12.svg"
   inkscape:version="1.0.2-2 (e86c870879, 2021-01-15)"><metadata
   id="metadata143"><rdf:RDF><cc:Work
       rdf:about=""><dc:format>image/svg+xml</dc:format><dc:type
         rdf:resource="http://purl.org/dc/dcmitype/StillImage" /></cc:Work></rdf:RDF></metadata><defs
   id="defs141" /><sodipodi:namedview
   pagecolor="#ffffff"
   bordercolor="#666666"
   borderopacity="1"
   objecttolerance="10"
   gridtolerance="10"
   guidetolerance="10"
   inkscape:pageopacity="0"
   inkscape:pageshadow="2"
   inkscape:window-width="1842"
   inkscape:window-height="1051"
   id="namedview139"
   showgrid="false"
   inkscape:zoom="9.7077372"
   inkscape:cx="49.985894"
   inkscape:cy="25.017531"
   inkscape:window-x="-9"
   inkscape:window-y="-9"
   inkscape:window-maximized="1"
   inkscape:current-layer="svg137" />
<g
   id="Selected_Items">
	<g
   id="g133">
		<g
   id="Selected_Items_1_">
			
		</g>
	</g>
</g>
<g
   id="guides">
</g>
<path
   style="fill:#ffffff;stroke-width:0.0515053"
   d="m 53.527348,31.326191 c -0.08196,-0.05616 -0.379036,-0.570382 -0.379036,-0.656087 0,-0.04393 -0.02318,-0.123184 -0.05151,-0.176123 -0.03437,-0.06422 -0.03431,-0.141487 1.54e-4,-0.232157 0.0462,-0.12152 -0.0015,-0.225365 -0.450664,-0.98111 -0.382522,-0.643613 -0.535166,-0.856723 -0.639984,-0.893502 -0.168272,-0.05904 -0.266901,-0.229756 -0.233547,-0.404234 0.02951,-0.15436 -0.02912,-0.289794 -0.504643,-1.16568 -0.296074,-0.545357 -0.389791,-0.676154 -0.525823,-0.733866 -0.206398,-0.08757 -0.289307,-0.236071 -0.244836,-0.438548 0.02761,-0.125694 -0.04245,-0.333208 -0.359796,-1.065715 -0.601026,-1.387309 -0.580045,-1.347664 -0.743343,-1.40459 -0.203274,-0.07086 -0.269004,-0.234998 -0.174143,-0.434858 0.06944,-0.14631 0.06154,-0.200013 -0.11377,-0.772579 -0.103622,-0.338436 -0.231289,-0.708049 -0.283704,-0.82136 -0.05241,-0.113312 -0.179953,-0.48415 -0.28342,-0.824085 -0.335958,-1.103784 -0.340579,-1.113932 -0.536541,-1.178429 -0.188855,-0.06216 -0.15297,0.0237 -0.47078,-1.126434 -0.05962,-0.215758 -0.09686,-0.22629 -0.409772,-0.115887 -0.305624,0.107831 -0.646499,0.100328 -0.763634,-0.01681 -0.05174,-0.05174 -0.205719,-0.416779 -0.342185,-0.811208 C 45.599498,15.868038 45.705036,16.020646 44.752946,15.246031 44.379981,14.94259 44.285452,14.889699 44.1146,14.888864 l -0.20055,-9.79e-4 0.03339,0.400341 c 0.05746,0.689032 -0.132197,1.166145 -0.550361,1.384506 -0.163632,0.08545 -0.534978,0.11688 -3.316563,0.280733 -1.834545,0.108066 -1.926988,0.109064 -2.151774,0.02322 -0.235209,-0.08983 -0.556077,-0.3506 -0.600514,-0.488044 -0.01956,-0.06049 -0.05177,-0.05656 -0.185936,0.02269 -0.21963,0.129738 -0.287341,0.310714 -0.233221,0.623342 0.06001,0.346662 0.01588,0.547642 -0.165199,0.752421 -0.08498,0.0961 -0.177693,0.210611 -0.206021,0.254461 -0.02833,0.04385 -0.09706,0.144476 -0.152738,0.223613 -0.07849,0.111559 -0.102865,0.237696 -0.108497,0.561434 -0.0085,0.491229 -0.03704,0.600031 -0.23454,0.895499 -0.08142,0.121814 -0.148042,0.232846 -0.148042,0.246736 0,0.03801 -0.224594,0.350715 -0.280966,0.391191 -0.02706,0.01943 -0.06525,0.274378 -0.08487,0.566558 -0.0365,0.543457 -0.08389,0.717598 -0.305801,1.123549 -0.12093,0.221225 -0.126696,0.272778 -0.126696,1.132786 v 0.901012 l -0.412042,0.119378 c -0.588545,0.170515 -1.310808,0.233135 -2.291987,0.198716 -0.993163,-0.03484 -1.557987,-0.12588 -2.028813,-0.32701 l -0.339288,-0.144939 -5.72e-4,-0.373413 c -3.09e-4,-0.205378 0.01834,-0.373414 0.04145,-0.373414 0.02311,0 0.06975,-0.295511 0.103636,-0.656692 0.0751,-0.800376 0.190928,-1.300004 0.497355,-2.145354 0.21626,-0.596601 1.177145,-2.647356 1.270258,-2.711029 0.06358,-0.04348 0.388858,-0.776969 0.429744,-0.969063 0.02022,-0.09501 0.0211,-0.29816 0.0019,-0.451452 -0.03287,-0.263093 -0.05644,-0.299595 -0.420521,-0.651346 -0.446549,-0.431425 -0.49931,-0.516937 -0.607933,-0.985312 -0.09694,-0.418005 -0.097,-0.367688 5.66e-4,-0.465254 0.06772,-0.06772 0.235899,-0.08094 1.030106,-0.08094 0.620151,-2e-6 0.949169,-0.01849 0.949169,-0.05334 0,-0.03563 -0.47012,-0.0513 -1.416396,-0.04719 -0.872625,0.0038 -1.416396,0.02525 -1.416396,0.0559 0,0.02803 -0.129203,0.04302 -0.295854,0.03432 -0.28412,-0.01483 -0.296897,-0.02157 -0.322192,-0.169962 -0.02473,-0.145069 -0.04216,-0.155444 -0.28516,-0.169692 -0.252943,-0.01483 -0.259954,-0.01132 -0.308747,0.154516 -0.04749,0.161398 -0.06335,0.170459 -0.324512,0.185404 -0.307338,0.01759 -0.420737,-0.04387 -0.420737,-0.22804 0,-0.107707 -0.02385,-0.122457 -0.198039,-0.122457 -0.372221,0 -0.361999,0.05837 -0.379063,-2.164701 -0.01709,-2.2265479 -0.0057,-2.1572669 -0.408542,-2.4763549 l -0.216126,-0.171199 -0.558433,0.01523 -0.558433,0.01523 -0.03172,-0.158611 c -0.03071,-0.153538 -0.04058,-0.158612 -0.308566,-0.158612 h -0.276841 v 0.222841 c 0,0.122563 -0.06767,0.46443 -0.150376,0.759703 -0.08271,0.295274 -0.199032,0.7330239 -0.258502,0.9727759 -0.187847,0.757311 -0.210649,0.823317 -0.319433,0.924664 -0.06029,0.05617 -0.221262,0.114017 -0.371484,0.133503 -0.145802,0.01891 -0.617309,0.09029 -1.047793,0.158619 -1.210804,0.192184 -1.27126,0.181794 -1.453913,-0.249872 -0.06929,-0.163744 -0.148264,-0.262242 -0.237463,-0.296156 -0.08266,-0.03142 -1.355714,-0.05092 -3.336503,-0.0511 -2.02629,-2.06e-4 -3.272606,-0.01966 -3.392737,-0.05302 -0.211884,-0.05885 -0.305274,-0.185243 -0.531453,-0.719267 -0.137931,-0.325663 -0.476884,-0.7210739 -0.618118,-0.7210739 -0.03538,0 -0.09318,-0.03477 -0.128446,-0.07726 -0.05314,-0.06403 -0.243092,-0.07726 -1.109378,-0.07726 -0.574893,0 -1.052986,0.02058 -1.062429,0.04574 -0.0094,0.02516 -0.107842,0.08889 -0.218666,0.14164 -0.261531,0.12447 -0.395887,0.3119309 -0.428045,0.5972319 -0.02602,0.230858 0.256263,2.129468 0.34664,2.331458 0.03983,0.08903 0.409896,2.345935 0.652983,3.98236 l 0.07895,0.531504 -0.117608,0.125189 c -0.109536,0.116595 -0.153406,0.125188 -0.639135,0.125188 -0.330257,0 -0.543682,-0.02215 -0.581936,-0.06041 -0.04621,-0.04621 -0.09158,-0.04621 -0.192993,0 -0.206279,0.09399 -0.6124759,0.07687 -0.7053969,-0.02972 C 9.7264141,17.374821 9.6412909,17.045588 9.5799776,16.690572 9.5188224,16.336473 9.4474995,16.000401 9.4214821,15.943745 9.3278979,15.739955 8.6505818,11.391169 8.5727685,10.494482 8.461481,9.2120531 8.4588474,5.812579 8.5690704,5.7211019 c 0.051706,-0.042912 0.2307327,-0.05722 0.5622638,-0.044935 0.267522,0.00991 0.5037878,6.387e-4 0.5250351,-0.020606 0.021247,-0.021246 3.6048137,-0.038629 7.9634807,-0.038629 6.996798,0 7.928322,0.00905 7.954496,0.077258 0.02128,0.055458 0.108024,0.077258 0.307416,0.077258 0.243432,0 0.277769,-0.012734 0.277769,-0.1030106 0,-0.095737 0.03434,-0.1030106 0.48626,-0.1030106 0.268616,0 0.500509,-0.023053 0.518093,-0.051505 0.02047,-0.033114 0.867541,-0.051505 2.372284,-0.051505 h 2.340452 v 0.5374527 c 0,0.2955993 -0.02196,0.5952155 -0.0488,0.6658143 -0.02684,0.070599 -0.453424,0.5298614 -0.947962,1.0205824 -1.009224,1.001438 -1.063447,1.093366 -1.063447,1.802913 v 0.351188 h 0.386289 0.38629 v -0.841518 -0.841517 l 0.733951,-0.638657 c 0.403673,-0.351262 0.995777,-0.8663402 1.315786,-1.1446193 0.889201,-0.773244 0.857756,-0.7571244 1.476925,-0.7571244 h 0.52498 l -0.02375,-0.2864092 c -0.02157,-0.260063 -0.01041,-0.3003348 0.121286,-0.4377951 0.144478,-0.1508022 0.147386,-0.1513859 0.754191,-0.1513859 h 0.609153 l 0.15228,-0.1673923 C 36.409285,4.4030251 36.443982,4.285116 36.364432,4.1979602 36.261946,4.085673 36.151566,3.6179209 36.151566,3.2959048 c 0,-0.2063916 -0.03099,-0.4048668 -0.07698,-0.4930016 C 35.943008,2.5507408 35.929844,2.353201 36.030126,2.1357729 36.099966,1.9843464 36.129796,1.75519 36.150183,1.2132275 l 0.02713,-0.72107431 h 0.229799 c 0.193412,0 0.240114,0.020389 0.294939,0.1287632 0.03583,0.07082 0.204751,0.66897791 0.375389,1.32924031 0.23425,0.9064107 0.310248,1.2880636 0.310248,1.5580356 0,0.1966572 0.0207,0.3575586 0.04599,0.3575586 0.07545,0 0.108521,-0.1445809 0.108521,-0.4744587 V 3.0797745 l 0.242962,0.027385 c 0.133628,0.015062 0.250349,0.049548 0.259378,0.076636 0.009,0.027088 0.23932,0.1393346 0.511757,0.2494374 0.558052,0.2255311 0.550291,0.2157045 0.71786,0.9088887 0.07469,0.3089633 0.11684,0.3991247 0.186616,0.3991661 0.06179,3.67e-5 0.09013,0.040542 0.09013,0.1288167 0,0.1201791 0.01717,0.1287633 0.257526,0.1287633 0.240359,0 0.257527,-0.00858 0.257527,-0.1287633 0,-0.120179 0.01717,-0.1287632 0.257527,-0.1287632 0.240358,0 0.257526,0.00858 0.257526,0.1287632 0,0.1201791 0.01717,0.1287633 0.257527,0.1287633 0.240358,0 0.257526,-0.00858 0.257526,-0.1287633 0,-0.120179 0.01717,-0.1287632 0.257527,-0.1287632 0.240358,0 0.257526,0.00858 0.257526,0.1287632 0,0.1217398 0.01545,0.1287633 0.283279,0.1287633 0.267828,0 0.28328,-0.00702 0.28328,-0.1287633 0,-0.1182714 0.01888,-0.1287632 0.231774,-0.1287632 0.212888,0 0.231773,0.010492 0.231773,0.1287632 0,0.1201791 0.01717,0.1287633 0.257527,0.1287633 0.240358,0 0.257527,-0.00858 0.257527,-0.1287633 0,-0.1217398 0.01545,-0.1287632 0.283279,-0.1287632 0.267827,0 0.283279,0.00702 0.283279,0.1287632 0,0.1201791 0.01717,0.1287633 0.257526,0.1287633 0.240359,0 0.257527,-0.00858 0.257527,-0.1287633 0,-0.1182714 0.01888,-0.1287632 0.231774,-0.1287632 0.212888,0 0.231774,0.010492 0.231774,0.1287632 0,0.1217398 0.01545,0.1287633 0.283279,0.1287633 0.267828,0 0.283279,-0.00702 0.283279,-0.1287633 0,-0.120179 0.01717,-0.1287632 0.257527,-0.1287632 0.240358,0 0.257526,0.00858 0.257526,0.1287632 0,0.1201791 0.01717,0.1287633 0.257527,0.1287633 0.240358,0 0.257526,-0.00858 0.257526,-0.1287633 0,-0.1182714 0.01889,-0.1287632 0.231774,-0.1287632 0.212889,0 0.231774,0.010492 0.231774,0.1287632 0,0.1230405 0.01373,0.1287633 0.309032,0.1287633 0.295297,0 0.309032,-0.00572 0.309032,-0.1287633 0,-0.1182714 0.01888,-0.1287632 0.231774,-0.1287632 0.212888,0 0.231774,0.010492 0.231774,0.1287632 0,0.1201791 0.01717,0.1287633 0.257526,0.1287633 0.240358,0 0.257527,-0.00858 0.257527,-0.1287633 0,-0.1217398 0.01545,-0.1287632 0.283279,-0.1287632 0.267828,0 0.283279,0.00702 0.283279,0.1287632 0,0.1201791 0.01717,0.1287633 0.257527,0.1287633 0.240358,0 0.257526,-0.00858 0.257526,-0.1287633 0,-0.1182714 0.01889,-0.1287632 0.231774,-0.1287632 0.212889,0 0.231774,0.010492 0.231774,0.1287632 0,0.1201791 0.01717,0.1287633 0.257527,0.1287633 0.240358,0 0.257526,-0.00858 0.257526,-0.1287633 0,-0.1217398 0.01545,-0.1287632 0.283279,-0.1287632 0.267828,0 0.283279,0.00702 0.283279,0.1287632 0,0.1201791 0.01717,0.1287633 0.257527,0.1287633 0.240358,0 0.257527,-0.00858 0.257527,-0.1287633 0,-0.1182714 0.01889,-0.1287632 0.231773,-0.1287632 0.212889,0 0.231774,0.010492 0.231774,0.1287632 0,0.1217398 0.01545,0.1287633 0.28328,0.1287633 0.267827,0 0.283279,-0.00702 0.283279,-0.1287633 0,-0.120179 0.01717,-0.1287632 0.257526,-0.1287632 0.240359,0 0.257527,0.00858 0.257527,0.1287632 0,0.1201791 0.01717,0.1287633 0.257526,0.1287633 0.240359,0 0.257527,-0.00858 0.257527,-0.1287633 0,-0.120179 0.01717,-0.1287632 0.257526,-0.1287632 0.240359,0 0.257527,0.00858 0.257527,0.1287632 0,0.1217398 0.01545,0.1287633 0.283279,0.1287633 0.267828,0 0.283279,-0.00702 0.283279,-0.1287633 0,-0.1247475 0.01094,-0.1287632 0.350901,-0.1287632 0.31766,0 0.364081,0.013756 0.490022,0.1452106 0.07652,0.079866 0.124828,0.1595028 0.10736,0.176971 -0.01747,0.017468 -0.0164,0.1434401 0.0024,0.2799374 0.04037,0.2935469 0.16225,0.3764818 0.553264,0.3764818 h 0.247259 l 0.0081,-0.2188975 c 0.01645,-0.4466511 0.03073,-0.507757 0.147772,-0.6323437 0.119056,-0.1267287 0.124452,-0.1273596 1.089271,-0.1273596 h 0.969623 v 0.1287632 c 0,0.1201791 0.01717,0.1287633 0.257527,0.1287633 0.240358,0 0.257526,-0.00858 0.257526,-0.1287633 0,-0.120179 0.01717,-0.1287632 0.257527,-0.1287632 0.240358,0 0.257526,0.00858 0.257526,0.1287632 0,0.1217398 0.01545,0.1287633 0.28328,0.1287633 0.267827,0 0.283279,-0.00702 0.283279,-0.1287633 0,-0.1182714 0.01889,-0.1287632 0.231774,-0.1287632 0.212887,0 0.231774,0.010492 0.231774,0.1287632 0,0.1217398 0.01545,0.1287633 0.283279,0.1287633 0.267827,0 0.283279,-0.00702 0.283279,-0.1287633 0,-0.1182714 0.01889,-0.1287632 0.231774,-0.1287632 0.212887,0 0.231774,0.010492 0.231774,0.1287632 0,0.1217398 0.01545,0.1287633 0.283279,0.1287633 0.267828,0 0.283279,-0.00702 0.283279,-0.1287633 0,-0.120179 0.01717,-0.1287632 0.257527,-0.1287632 0.240359,0 0.257526,0.00858 0.257526,0.1287632 0,0.1201791 0.01717,0.1287633 0.257527,0.1287633 0.24036,0 0.257526,-0.00858 0.257526,-0.1287633 0,-0.1182714 0.01889,-0.1287632 0.231774,-0.1287632 0.212887,0 0.231774,0.010492 0.231774,0.1287632 0,0.1217398 0.01545,0.1287633 0.283279,0.1287633 0.267828,0 0.283279,-0.00702 0.283279,-0.1287633 0,-0.120179 0.01717,-0.1287632 0.257527,-0.1287632 0.24036,0 0.257527,0.00858 0.257527,0.1287632 0,0.1201791 0.01717,0.1287633 0.257526,0.1287633 0.24036,0 0.257527,-0.00858 0.257527,-0.1287633 0,-0.120179 0.01717,-0.1287632 0.257526,-0.1287632 0.24036,0 0.257527,0.00858 0.257527,0.1287632 0,0.1217398 0.01545,0.1287633 0.283279,0.1287633 0.267828,0 0.283279,-0.00702 0.283279,-0.1287633 0,-0.1182714 0.01889,-0.1287632 0.231774,-0.1287632 0.212887,0 0.231774,0.010492 0.231774,0.1287632 0,0.1201791 0.01717,0.1287633 0.257526,0.1287633 0.24036,0 0.257527,-0.00858 0.257527,-0.1287633 0,-0.1217398 0.01545,-0.1287632 0.283279,-0.1287632 0.267828,0 0.283279,0.00702 0.283279,0.1287632 0,0.1201791 0.01717,0.1287633 0.257527,0.1287633 0.24036,0 0.257526,-0.00858 0.257526,-0.1287633 0,-0.094426 0.02747,-0.1287632 0.103011,-0.1287632 0.05666,0 0.103011,-0.027704 0.103011,-0.061563 0,-0.03386 0.05925,-0.1234109 0.131673,-0.1990025 L 68.966267,4.3433362 68.856484,4.0174596 C 68.753417,3.7114957 68.74704,3.59573 68.752211,2.1229118 c 0.003,-0.8627692 0.01772,-1.58843541 0.03265,-1.61259131 0.01493,-0.024156 0.20649,-0.04392 0.425696,-0.04392 0.393465,0 0.400979,0.00249 0.589272,0.1953165 l 0.190719,0.1953166 V 2.3098869 c 0,1.3173177 0.02732,1.6213639 0.123253,1.371383 0.0172,-0.044809 0.03126,-0.1954619 0.03126,-0.3347845 0,-0.2457503 0.0045,-0.2533141 0.150839,-0.2533141 0.08296,0 0.181463,0.030041 0.218897,0.066759 0.03743,0.036717 0.230301,0.1311506 0.428597,0.209852 0.728434,0.2891075 0.708383,0.2722268 0.833814,0.701996 0.062,0.2124562 0.114151,0.4500218 0.115887,0.5279236 l 0.0031,0.1416396 0.502177,0.00151 c 0.4833,0.00145 0.50847,0.00723 0.669569,0.1537899 0.128207,0.1166325 0.167392,0.1946495 0.167392,0.3332747 v 0.1809948 l 1.171746,3.25e-5 c 1.077403,3e-5 1.24017,0.012438 2.021583,0.1541153 0.467411,0.084746 0.901987,0.1662935 0.965725,0.1812171 0.102557,0.024014 0.115886,0.059189 0.115886,0.3058504 0,0.2456664 0.01312,0.2806674 0.110629,0.2951744 0.08861,0.013183 0.1786,0.1058789 0.229662,0.2365685 0.02271,0.058132 0.171981,-0.071292 0.184626,-0.1600832 0.01439,-0.1009617 0.0512,-0.112965 0.388504,-0.1266489 0.601824,-0.024416 0.580233,-0.06231 0.580233,1.0183621 0,1.094883 0.0065,1.08272 -0.579635,1.08272 -0.289048,0 -0.355588,-0.01585 -0.378544,-0.09013 -0.05198,-0.168223 -0.108501,-0.244607 -0.193335,-0.261303 -0.05663,-0.01115 -0.08461,0.01866 -0.08461,0.09013 0,0.07245 -0.03312,0.106787 -0.103011,0.106787 -0.0975,0 -0.10301,0.03434 -0.10301,0.642679 v 0.64268 l 0.965724,0.01401 0.965725,0.01401 0.01544,0.9270959 c 0.0085,0.509902 0.0013,1.025599 -0.01603,1.145993 l -0.03147,0.218897 h -0.947136 c -0.809875,0 -0.953735,0.0118 -0.992698,0.08142 -0.09454,0.168926 -0.961352,1.00019 -1.042962,1.00019 -0.04688,0 -0.127198,0.04636 -0.178471,0.10301 -0.07984,0.08822 -0.158637,0.103011 -0.548789,0.103011 H 75.29555 v 0.301049 c 0,0.31175 -0.02849,0.360946 -0.295455,0.51016 -0.06336,0.03541 -0.242538,0.06438 -0.398187,0.06438 -0.258907,0 -0.285747,-0.01096 -0.315316,-0.128763 -0.02906,-0.115806 -0.05815,-0.128763 -0.289079,-0.128763 -0.213448,0 -0.261312,0.01738 -0.283706,0.10301 -0.0211,0.0807 -0.07025,0.103011 -0.226948,0.103011 -0.165677,0 -0.200016,-0.01768 -0.200016,-0.103011 0,-0.09156 -0.03434,-0.10301 -0.309032,-0.10301 -0.274693,0 -0.309032,0.01145 -0.309032,0.10301 0,0.08775 -0.03434,0.103011 -0.231773,0.103011 -0.197436,0 -0.231774,-0.01526 -0.231774,-0.103011 0,-0.09052 -0.03434,-0.10301 -0.28328,-0.10301 -0.24894,0 -0.283279,0.01249 -0.283279,0.10301 0,0.08775 -0.03434,0.103011 -0.231774,0.103011 -0.197435,0 -0.231773,-0.01526 -0.231773,-0.103011 0,-0.09025 -0.03434,-0.10301 -0.277274,-0.10301 -0.233953,0 -0.281477,0.01609 -0.304206,0.10301 -0.02141,0.08185 -0.07026,0.103011 -0.237785,0.103011 -0.176503,0 -0.210842,-0.01678 -0.210842,-0.103011 0,-0.09052 -0.03434,-0.10301 -0.283279,-0.10301 -0.24894,0 -0.283279,0.01249 -0.283279,0.10301 0,0.08806 -0.03434,0.103011 -0.236595,0.103011 -0.193279,0 -0.241529,-0.01886 -0.263537,-0.103011 -0.02238,-0.0856 -0.07025,-0.10301 -0.283279,-0.10301 -0.213021,0 -0.26089,0.01741 -0.283279,0.10301 -0.0211,0.0807 -0.07025,0.103011 -0.226948,0.103011 -0.165677,0 -0.200016,-0.01768 -0.200016,-0.103011 0,-0.09156 -0.03434,-0.10301 -0.309032,-0.10301 -0.274693,0 -0.309032,0.01145 -0.309032,0.10301 0,0.08775 -0.03434,0.103011 -0.231774,0.103011 -0.197435,0 -0.231773,-0.01526 -0.231773,-0.103011 0,-0.09052 -0.03434,-0.10301 -0.28328,-0.10301 -0.24894,0 -0.283279,0.01249 -0.283279,0.10301 0,0.08533 -0.03434,0.103011 -0.200016,0.103011 -0.156694,0 -0.205846,-0.02231 -0.226947,-0.103011 -0.02281,-0.08719 -0.07026,-0.10301 -0.309032,-0.10301 -0.238779,0 -0.286231,0.01582 -0.309032,0.10301 -0.02141,0.08185 -0.07026,0.103011 -0.237785,0.103011 -0.176503,0 -0.210842,-0.01678 -0.210842,-0.103011 0,-0.09052 -0.03434,-0.10301 -0.283279,-0.10301 -0.248941,0 -0.283279,0.01249 -0.283279,0.10301 0,0.08624 -0.03434,0.103011 -0.210842,0.103011 -0.167527,0 -0.216379,-0.02116 -0.237785,-0.103011 -0.02309,-0.08828 -0.07025,-0.10301 -0.329958,-0.10301 -0.268688,0 -0.303027,0.01167 -0.303027,0.10301 0,0.08584 -0.03434,0.103011 -0.206021,0.103011 -0.171683,0 -0.206021,-0.01717 -0.206021,-0.103011 0,-0.09052 -0.03434,-0.10301 -0.283279,-0.10301 -0.248941,0 -0.28328,0.01249 -0.28328,0.10301 0,0.08928 -0.03434,0.103011 -0.257526,0.103011 -0.223188,0 -0.257527,-0.01374 -0.257527,-0.103011 0,-0.09052 -0.03434,-0.10301 -0.283279,-0.10301 -0.24894,0 -0.283279,0.01249 -0.283279,0.10301 0,0.09847 -0.03434,0.103011 -0.779548,0.103011 -0.76956,0 -0.781113,-0.0017 -0.901345,-0.131417 -0.127555,-0.137634 -0.172791,-0.500554 -0.07029,-0.563905 0.120673,-0.07458 0.0338,-0.128763 -0.206443,-0.128763 -0.193568,0 -0.410758,0.06428 -0.870198,0.257527 l -0.612249,0.257526 h -0.617313 -0.617312 l -0.02107,0.476424 c -0.01494,0.337808 -0.04823,0.522258 -0.114433,0.633953 -0.08747,0.147592 -0.403584,0.331772 -0.569421,0.331772 -0.138212,0 -0.135567,0.09925 0.01677,0.62926 0.202823,0.705645 0.2042,0.715047 0.127658,0.871435 -0.05846,0.119432 -0.04708,0.193946 0.09433,0.618064 0.08844,0.265242 0.177988,0.493848 0.198996,0.508011 0.02101,0.01416 0.06503,0.130051 0.09782,0.257527 0.03279,0.127476 0.152395,0.513889 0.265783,0.858695 0.186744,0.567878 0.220268,0.63184 0.355938,0.679135 0.178498,0.06223 0.240103,0.244305 0.160204,0.473502 -0.05084,0.145833 -0.02361,0.222456 0.329752,0.928004 0.282871,0.564799 0.409858,0.769046 0.478141,0.769046 0.05114,0 0.145891,0.0493 0.210566,0.109552 0.10024,0.09339 0.112696,0.142189 0.08442,0.330756 -0.0308,0.205402 -0.0054,0.272483 0.35567,0.938963 0.213863,0.394766 0.388842,0.744239 0.388842,0.776607 0,0.03237 0.05741,0.05885 0.127576,0.05885 0.17667,0 0.307114,0.208668 0.264291,0.42278 -0.02754,0.13772 0.01819,0.255426 0.284901,0.733349 0.174741,0.313114 0.33152,0.580887 0.348398,0.595051 0.01688,0.01416 0.06908,0.09529 0.115996,0.180269 0.04858,0.088 0.152373,0.1753 0.241117,0.202801 0.08569,0.02656 0.184492,0.101883 0.219551,0.167392 0.03506,0.06551 0.0888,0.119382 0.119426,0.119718 0.0766,8.4e-4 0.376802,0.572484 0.353542,0.673223 -0.01035,0.04484 -0.191697,0.171658 -0.402993,0.281822 -0.211295,0.110165 -0.384173,0.218835 -0.384173,0.241489 0,0.02266 -0.06374,0.06855 -0.141639,0.101992 -0.0779,0.03344 -0.558833,0.296577 -1.068735,0.584746 -0.509903,0.28817 -1.166522,0.657842 -1.459156,0.821494 -0.292632,0.163652 -0.559172,0.324442 -0.592311,0.357312 -0.06605,0.06551 -0.693033,0.439672 -0.736766,0.439672 -0.01495,0 -0.332397,0.177599 -0.705439,0.394664 -0.373042,0.217065 -0.93321,0.532242 -1.244817,0.700394 -0.311607,0.168152 -0.578147,0.322522 -0.592311,0.343044 -0.04252,0.06161 -0.186184,0.09987 -0.239028,0.06366 z M 40.385756,16.769177 c 3.131639,-0.183189 2.98696,-0.159483 3.232103,-0.529582 0.148963,-0.224893 0.156487,-0.26183 0.156487,-0.768228 0,-0.553534 -0.01293,-0.581157 -0.222283,-0.474848 -0.133132,0.0676 -0.645473,0.595434 -0.936586,0.964902 -0.224837,0.285352 -0.224343,0.285027 -0.330923,0.217574 -0.05781,-0.03658 0.02972,-0.174081 0.412042,-0.647274 0.411105,-0.508821 0.528817,-0.621074 0.768718,-0.733068 0.155804,-0.07273 0.29199,-0.139409 0.302635,-0.148164 0.03038,-0.02498 -0.220782,-0.533254 -0.264006,-0.534272 -0.02125,-5.15e-4 -0.03863,0.06546 -0.03863,0.146583 0,0.09069 -0.0523,0.19979 -0.135786,0.283279 -0.119806,0.119805 -0.176576,0.135786 -0.482355,0.135786 -0.389514,0 -0.617986,-0.121345 -0.617986,-0.328221 0,-0.138638 -0.09049,-0.238337 -0.216322,-0.238337 -0.05837,0 -0.09271,-0.03815 -0.09271,-0.103011 0,-0.09792 -0.03434,-0.10301 -0.695322,-0.10301 -0.545804,0 -0.695321,0.0148 -0.695321,0.06881 0,0.04008 -0.12669,0.104037 -0.303413,0.15317 -0.23238,0.06461 -0.349946,0.134724 -0.502177,0.299501 -0.10932,0.11833 -0.240913,0.259588 -0.292428,0.313908 -0.12986,0.136929 -0.24112,0.475075 -0.24112,0.73282 0,0.240309 0.138268,0.698021 0.210863,0.698021 0.02567,0 0.04666,0.02919 0.04666,0.06487 0,0.07914 -0.192955,0.206812 -0.254792,0.168594 -0.02452,-0.01515 -0.12018,-0.183974 -0.212577,-0.375158 -0.161933,-0.335063 -0.169293,-0.37827 -0.203978,-1.197443 -0.01979,-0.46741 -0.03908,-0.855632 -0.04286,-0.862714 -0.0038,-0.0071 -0.238646,-0.01288 -0.521925,-0.01288 -0.467412,0 -0.608485,0.03919 -0.463548,0.128763 0.03139,0.0194 0.05137,0.407893 0.05115,0.994517 l -3.61e-4,0.962685 -0.179916,0.122526 c -0.09895,0.06739 -0.179909,0.141909 -0.179909,0.1656 0,0.08603 0.33676,0.423886 0.488343,0.489935 0.197034,0.08585 -0.06017,0.09168 2.45822,-0.05564 z m -10.569348,-3.81274 v -0.386289 h -0.257527 c -0.264594,0 -0.327322,0.06412 -0.193575,0.197864 0.05093,0.05093 0.04836,0.07359 -0.01263,0.111279 -0.06561,0.04055 -0.06248,0.05763 0.02183,0.119287 0.09686,0.07083 0.09686,0.07284 -2.58e-4,0.127822 -0.09674,0.05477 -0.09665,0.05739 0.0043,0.134456 0.05666,0.04323 0.178337,0.07933 0.270403,0.08023 l 0.167401,0.0016 z m 27.701006,-0.40544 c 0.0215,-0.188168 -0.05102,-0.26037 -0.219153,-0.218172 -0.1031,0.02588 -0.132534,0.06546 -0.132534,0.178215 0,0.182412 0.04002,0.222245 0.204093,0.203112 0.101143,-0.01179 0.134513,-0.04868 0.147594,-0.163155 z m 3.36047,0.03086 c 0.176277,-0.205879 0.408267,-0.576327 0.408267,-0.651934 0,-0.06348 -0.05972,-0.08085 -0.277912,-0.08085 -0.275873,0 -0.279076,0.0018 -0.437795,0.24916 -0.174392,0.27177 -0.186527,0.325891 -0.106565,0.475301 0.06782,0.126724 0.308481,0.131565 0.414005,0.0083 z m 1.808666,-0.007 c 0.128655,-0.150262 0.453792,-0.642118 0.453792,-0.686486 0,-0.02162 -0.136648,-0.03932 -0.303665,-0.03932 h -0.303659 l -0.159888,0.24916 c -0.174392,0.27177 -0.186527,0.325891 -0.106565,0.475301 0.06943,0.129734 0.309392,0.130501 0.419985,0.0013 z m 1.767322,0.05887 c 0.09146,-0.067 0.437651,-0.625953 0.437651,-0.706618 0,-0.05997 -0.06362,-0.07805 -0.274719,-0.07805 -0.274554,0 -0.274832,1.55e-4 -0.467215,0.279496 -0.187933,0.272873 -0.190436,0.282636 -0.105648,0.412042 0.0859,0.131091 0.293683,0.178296 0.409931,0.09313 z m 1.83207,-0.05188 c 0.176276,-0.205879 0.408267,-0.576327 0.408267,-0.651934 0,-0.06348 -0.05972,-0.08085 -0.277913,-0.08085 -0.275872,0 -0.279076,0.0018 -0.437795,0.24916 -0.174392,0.27177 -0.186526,0.325891 -0.106564,0.475301 0.06782,0.126724 0.30848,0.131565 0.414005,0.0083 z m 1.802685,0 c 0.176277,-0.205879 0.408267,-0.576327 0.408267,-0.651934 0,-0.0633 -0.05929,-0.08085 -0.273137,-0.08085 h -0.273143 l -0.204317,0.296156 -0.204316,0.296155 0.104046,0.115355 c 0.125101,0.138702 0.33514,0.150624 0.4426,0.02512 z m 1.836077,-0.02459 c 0.149777,-0.162786 0.426382,-0.612043 0.426382,-0.692529 0,-0.04765 -0.08606,-0.06664 -0.296156,-0.06533 l -0.296155,0.0018 -0.214798,0.317061 -0.214798,0.31706 0.111787,0.117999 c 0.142629,0.150554 0.34728,0.1522 0.483738,0.0039 z m 1.757588,0.02081 c 0.158435,-0.158432 0.419974,-0.562073 0.419974,-0.648152 0,-0.06343 -0.05959,-0.08085 -0.276434,-0.08085 -0.265448,0 -0.281853,0.0082 -0.412774,0.206022 -0.07499,0.113311 -0.157488,0.206021 -0.183338,0.206021 -0.09456,0 -0.08534,0.183419 0.01489,0.296155 0.124978,0.140569 0.309166,0.149325 0.437682,0.02081 z m 1.793023,-0.0012 c 0.124931,-0.104353 0.429637,-0.578898 0.429637,-0.669116 0,-0.03632 -0.101172,-0.05869 -0.265464,-0.05869 -0.247287,0 -0.278139,0.01465 -0.450671,0.213961 -0.279736,0.32316 -0.286936,0.345664 -0.155433,0.485642 0.138065,0.146966 0.288265,0.156549 0.441931,0.0282 z m 1.802686,0 c 0.124931,-0.104353 0.429637,-0.578898 0.429637,-0.669116 0,-0.07986 -0.517273,-0.07376 -0.621293,0.0073 -0.09153,0.07135 -0.357308,0.452566 -0.357308,0.512495 0,0.08487 0.212021,0.245482 0.321908,0.243857 0.06374,-9.42e-4 0.165914,-0.0435 0.227056,-0.09457 z m -54.382313,-1.66519 c 0.08072,-0.08072 0.07612,-0.249814 -0.0099,-0.363113 -0.06356,-0.08373 -0.251623,-0.09013 -2.647206,-0.09013 -2.275677,0 -2.588299,0.0095 -2.659722,0.08094 -0.04452,0.04452 -0.08094,0.12398 -0.08094,0.176589 0,0.05261 0.03642,0.132075 0.08094,0.17659 0.07143,0.07143 0.384795,0.08094 2.667975,0.08094 1.943467,0 2.602413,-0.01537 2.648844,-0.06181 z m 8.92072,-0.839537 c 0,-0.1201789 -0.01717,-0.1287629 -0.257527,-0.1287629 -0.240358,0 -0.257527,0.0086 -0.257527,0.1287629 0,0.120179 0.01717,0.128763 0.257527,0.128763 0.240358,0 0.257527,-0.0086 0.257527,-0.128763 z M 61.131635,9.5132681 c 0,-0.0099 -0.02549,-0.0912 -0.05665,-0.180579 -0.05682,-0.162991 -0.2027,-0.2408 -0.384488,-0.205082 -0.115938,0.02278 -0.302387,0.274226 -0.257361,0.347081 0.03063,0.04956 0.698499,0.08645 0.698499,0.03858 z m 15.297077,-0.107776 c 0,-0.138747 -0.170045,-0.2862 -0.330051,-0.2862 -0.130015,0 -0.339518,0.196231 -0.339518,0.31801 0,0.0814 0.04499,0.09403 0.334785,0.09403 0.320692,0 0.334784,-0.0053 0.334784,-0.125843 z M 11.020356,7.9328581 c 0.07255,-0.03883 0.09962,-0.108324 0.09962,-0.255714 0,-0.20594 -0.09337,-0.309032 -0.279893,-0.309032 -0.113738,0 -0.286665,0.186419 -0.286665,0.309032 0,0.122613 0.172927,0.309031 0.286665,0.309031 0.04435,0 0.125475,-0.02399 0.180269,-0.05332 z"
   id="path295" /></svg>
