<?xml version="1.0" encoding="UTF-8" standalone="no"?>
<!-- Created with Inkscape (http://www.inkscape.org/) -->

<svg
   width="8.9999418mm"
   height="8.4667349mm"
   viewBox="0 0 8.9999419 8.4667348"
   version="1.1"
   id="svg5"
   xmlns="http://www.w3.org/2000/svg"
   xmlns:svg="http://www.w3.org/2000/svg">
  <defs
     id="defs2" />
  <g
     id="layer1"
     transform="translate(-52.55158,96.513012)">
    <path
       style="fill:#ffffff;stroke-width:0.0174768;fill-opacity:1"
       d="m 59.0548,-88.053177 0.157291,0.0069 0.03495,-0.0093 0.03495,-0.0093 0.227198,-0.07537 0.227199,-0.07537 0.139814,-0.06631 0.139814,-0.06631 0.08769,-0.07396 0.08769,-0.07396 0.09581,-0.03771 0.09581,-0.03771 0.116343,-0.06107 0.116344,-0.06107 0.112282,-0.134134 0.112281,-0.134134 0.109303,-0.13972 0.109304,-0.139721 0.08617,-0.171462 0.08617,-0.171463 -0.02119,-0.190544 -0.02119,-0.190544 0.03103,-0.101223 0.03103,-0.101223 0.131714,-0.23187 0.131715,-0.231869 0.0186,-0.327413 0.0186,-0.327413 -0.05789,-0.30582 -0.05789,-0.305819 -0.12063,-0.349452 -0.120631,-0.349453 -0.113408,-0.485168 -0.113407,-0.485168 -0.03466,-0.170296 -0.03466,-0.170297 -0.06518,-0.148552 -0.06518,-0.148553 -0.214678,-0.428182 -0.214677,-0.428182 -0.06083,-0.05429 -0.06083,-0.05429 -0.186047,-0.08195 -0.186048,-0.08195 -0.185326,-0.0188 -0.185326,-0.0188 -0.131075,-0.03981 -0.131077,-0.03981 -0.122337,-0.02723 -0.122338,-0.02723 -0.104861,-0.01748 -0.104861,-0.01748 -0.21846,-0.01854 -0.21846,-0.01854 -0.227198,-0.02686 -0.227199,-0.02686 -0.117486,-0.01501 -0.117485,-0.01501 -0.09224,-0.04236 -0.09224,-0.04236 -0.1136,-0.08628 -0.113599,-0.08628 -0.04369,-0.03809 -0.04369,-0.03809 -0.111054,-0.09256 -0.111054,-0.09256 -0.133621,-0.0921 -0.133622,-0.0921 -0.06991,-0.01784 -0.06991,-0.01784 -0.148553,-0.04314 -0.148553,-0.04314 -0.288367,-0.01347 -0.288368,-0.01347 -0.183506,0.02312 -0.183506,0.02312 -0.192245,-0.0042 -0.192246,-0.0042 -0.09988,0.0034 -0.09988,0.0034 -0.05801,0.05093 -0.05801,0.05093 -0.06425,0.01205 -0.06425,0.01205 -0.137883,0.08486 -0.137883,0.08485 -0.04894,0.06625 -0.04894,0.06625 -0.07165,0.07505 -0.07165,0.07505 -0.09289,0.02702 -0.09289,0.02702 -0.230428,0.132059 -0.230429,0.132059 -0.06991,0.04794 -0.06991,0.04794 -0.06587,0.06427 -0.06587,0.06427 -0.08895,0.10807 -0.08895,0.10807 -0.07474,0.07916 -0.07475,0.07916 -0.05971,0.235427 -0.05971,0.235428 0.05474,0.148553 0.05473,0.148552 0.05565,0.115803 0.05565,0.115803 0.08642,0.08084 0.08642,0.08084 0.04802,0.08299 0.04802,0.08299 0.121821,0.135176 0.12182,0.135175 0.04787,0.08197 0.04787,0.08197 0.0124,0.123655 0.0124,0.123656 0.03909,0.113599 0.03909,0.113599 0.06358,0.182572 0.06358,0.182571 v 0.03093 0.03093 l 0.03059,0.06613 0.03058,0.06613 0.0543,0.05243 0.0543,0.05243 0.06091,0.08738 0.06091,0.08738 0.0762,0.139815 0.0762,0.139814 0.07668,0.08214 0.07668,0.08214 0.168829,0.113614 0.168828,0.113614 0.08076,0.08388 0.08076,0.08388 0.09275,0.139814 0.09275,0.139815 0.08864,0.106523 0.08864,0.106523 0.07865,0.04177 0.07865,0.04177 0.167108,0.158953 0.167107,0.158953 0.115204,0.04452 0.115204,0.04452 0.226437,0.158028 0.226436,0.158028 0.08805,0.02615 0.08805,0.02615 0.13496,0.079 0.13496,0.079 0.177763,0.188992 0.177764,0.18899 0.08275,0.102658 0.08275,0.102657 0.126247,0.100406 0.126249,0.100406 0.21846,0.135175 0.21846,0.135174 0.07865,0.07318 0.07865,0.07318 0.113599,0.04649 0.113599,0.04649 0.1136,0.0468 0.113599,0.0468 0.192245,0.05111 0.192245,0.05111 z"
       id="path2583" />
  </g>
</svg>
