<?xml version="1.0" encoding="UTF-8" standalone="no"?>
<svg
   xmlns:dc="http://purl.org/dc/elements/1.1/"
   xmlns:cc="http://creativecommons.org/ns#"
   xmlns:rdf="http://www.w3.org/1999/02/22-rdf-syntax-ns#"
   xmlns:svg="http://www.w3.org/2000/svg"
   xmlns="http://www.w3.org/2000/svg"
   xmlns:sodipodi="http://sodipodi.sourceforge.net/DTD/sodipodi-0.dtd"
   xmlns:inkscape="http://www.inkscape.org/namespaces/inkscape"
   version="1.1"
   x="0px"
   y="0px"
   width="99.75px"
   height="32px"
   viewBox="0 0 99.75 32"
   enable-background="new 0 0 99.75 32"
   xml:space="preserve"
   id="svg122"
   sodipodi:docname="sks.svg"
   inkscape:version="1.0.2-2 (e86c870879, 2021-01-15)"><metadata
   id="metadata128"><rdf:RDF><cc:Work
       rdf:about=""><dc:format>image/svg+xml</dc:format><dc:type
         rdf:resource="http://purl.org/dc/dcmitype/StillImage" /></cc:Work></rdf:RDF></metadata><defs
   id="defs126" /><sodipodi:namedview
   pagecolor="#ffffff"
   bordercolor="#666666"
   borderopacity="1"
   objecttolerance="10"
   gridtolerance="10"
   guidetolerance="10"
   inkscape:pageopacity="0"
   inkscape:pageshadow="2"
   inkscape:window-width="1842"
   inkscape:window-height="1051"
   id="namedview124"
   showgrid="false"
   inkscape:zoom="14.481547"
   inkscape:cx="44.50686"
   inkscape:cy="4.2290737"
   inkscape:window-x="-9"
   inkscape:window-y="-9"
   inkscape:window-maximized="1"
   inkscape:current-layer="svg122" />

<g
   id="guides">
</g>
<path
   style="fill:#ffffff;stroke-width:0.0690534"
   d="m 25.310111,24.495177 c -0.829192,-0.277133 -1.556356,-0.552613 -1.615921,-0.612178 -0.268859,-0.268859 -0.160735,-2.618984 0.168599,-3.664575 0.130683,-0.4149 0.794754,-1.671594 1.024764,-1.939274 0.09313,-0.108375 0.169317,-0.223628 0.169317,-0.256116 0,-0.03249 0.23626,-0.306361 0.525023,-0.608605 0.511296,-0.535167 0.524242,-0.557266 0.49512,-0.845148 -0.01645,-0.162586 -0.05248,-0.345907 -0.08008,-0.40738 -0.03555,-0.07918 -0.0088,-0.122594 0.09183,-0.148905 0.310037,-0.08108 0.121137,-0.172484 -0.33742,-0.163275 -0.263688,0.0053 -0.508709,-0.02145 -0.54449,-0.05943 -0.03578,-0.03798 -0.0795,-0.309877 -0.09715,-0.604217 l -0.03209,-0.535164 h 0.231317 c 0.415042,0 0.243131,-0.122978 -0.234795,-0.167962 -0.660011,-0.06212 -3.698912,0.25166 -4.333101,0.447415 -0.265855,0.08206 -0.767086,0.28581 -1.113845,0.452775 -0.346759,0.166965 -0.659279,0.303573 -0.69449,0.303573 -0.03521,0 -0.652646,0.290721 -1.372078,0.646046 -0.719431,0.355326 -1.385743,0.670095 -1.480691,0.699487 -0.09495,0.02939 -0.638744,0.284045 -1.208434,0.565895 -0.569691,0.28185 -1.346542,0.648169 -1.726335,0.814043 -0.379794,0.165873 -1.131841,0.521646 -1.671215,0.790607 -0.539375,0.26896 -1.013723,0.489019 -1.054106,0.489019 -0.04038,0 -0.4846872,0.205714 -0.9873409,0.457141 -1.0893505,0.544894 -1.8248573,0.854312 -2.0315195,0.854637 -0.082971,1.38e-4 -0.3781739,0.04988 -0.6560073,0.110544 -0.2864109,0.06254 -1.0433781,0.12982 -1.7481127,0.15537 l -1.2429611,0.04506 -0.022268,0.5179 -0.022268,0.517901 -0.3229992,0.15253 c -0.1776496,0.08389 -0.5560545,0.308772 -0.8408998,0.499734 -0.6285019,0.421352 -0.9910417,0.4691 -1.2902141,0.169928 -0.2016248,-0.201625 -0.202411,-0.07345 0.013515,-2.20326 0.2123894,-2.094924 0.2072083,-5.452992 -0.012112,-7.850611 -0.04096,-0.447773 -0.035788,-0.468362 0.1691211,-0.673271 l 0.2113729,-0.211373 h 0.9318849 c 0.5125368,0 0.9810375,0.01886 1.0411128,0.04191 0.065146,0.025 0.1092278,0.123413 0.1092278,0.243854 0,0.120123 0.044089,0.218858 0.1088212,0.243698 0.1608378,0.06172 9.8014989,-0.247626 12.3207899,-0.395345 1.126219,-0.06603 7.189969,-0.54138 8.445212,-0.66203 0.353714,-0.034 0.460713,-0.06814 0.43375,-0.138405 -0.02763,-0.072 0.05954,-0.09327 0.382115,-0.09327 0.49206,0 0.54837,-0.158902 0.06877,-0.194075 -0.254539,-0.01867 -0.289581,-0.04064 -0.270846,-0.169822 0.01605,-0.110663 0.09173,-0.163724 0.297732,-0.208745 0.368054,-0.08044 1.355325,-0.0076 1.426982,0.10533 0.118826,0.187206 0.05755,0.260152 -0.218548,0.260152 -0.199487,0 -0.276213,0.02877 -0.276213,0.10358 0,0.08622 0.136572,0.10358 0.81483,0.10358 0.559155,0 0.84229,0.02708 0.902343,0.08632 0.07011,0.06916 0.105227,0.06234 0.176619,-0.03429 0.04901,-0.06633 0.186749,-0.140134 0.306091,-0.164002 l 0.216985,-0.0434 V 10.16119 c 0,-0.948147 0.01815,-1.164853 0.100196,-1.196337 0.06953,-0.02668 0.106513,-0.171574 0.120843,-0.473498 l 0.02065,-0.43505 0.575401,-0.02015 c 0.530002,-0.01856 0.57831,-0.009 0.612272,0.120844 0.05221,0.199658 0.435082,0.202196 0.435082,0.0029 0,-0.107417 0.04604,-0.138107 0.20716,-0.138107 0.161125,0 0.207161,0.03069 0.207161,0.138107 0,0.110894 0.04603,0.138107 0.233633,0.138107 0.175558,0 0.24261,-0.03433 0.269749,-0.138107 0.0484,-0.185103 0.325898,-0.185103 0.374304,0 0.05245,0.200568 0.503382,0.200568 0.503382,0 0,-0.19454 0.343439,-0.19454 0.394312,0 0.05156,0.197162 0.434328,0.197162 0.434328,0 0,-0.107417 0.04604,-0.138107 0.20716,-0.138107 0.161125,0 0.207161,0.03069 0.207161,0.138107 0,0.110894 0.04603,0.138107 0.233633,0.138107 0.175558,0 0.24261,-0.03433 0.269749,-0.138107 0.0484,-0.185103 0.325899,-0.185103 0.374304,0 0.05245,0.200568 0.503382,0.200568 0.503382,0 0,-0.19454 0.343439,-0.19454 0.394312,0 0.05156,0.197162 0.434328,0.197162 0.434328,0 0,-0.107417 0.04604,-0.138107 0.207161,-0.138107 0.161124,0 0.20716,0.03069 0.20716,0.138107 0,0.110894 0.04604,0.138107 0.233633,0.138107 0.175559,0 0.24261,-0.03433 0.269749,-0.138107 0.04841,-0.185103 0.325899,-0.185103 0.374304,0 0.05245,0.200568 0.503382,0.200568 0.503382,0 0,-0.107417 0.04604,-0.138107 0.20716,-0.138107 0.161124,0 0.20716,0.03069 0.20716,0.138107 0,0.197162 0.382769,0.197162 0.434329,0 0.05013,-0.191712 0.393224,-0.191712 0.443357,0 0.05245,0.200568 0.503382,0.200568 0.503382,0 0,-0.188148 0.276057,-0.188148 0.325259,0 0.05245,0.200568 0.503382,0.200568 0.503382,0 0,-0.107417 0.04604,-0.138107 0.20716,-0.138107 0.161124,0 0.20716,0.03069 0.20716,0.138107 0,0.197162 0.382769,0.197162 0.434329,0 0.02481,-0.09488 0.09419,-0.138107 0.221678,-0.138107 0.12749,0 0.196866,0.04322 0.221679,0.138107 0.05245,0.200568 0.503382,0.200568 0.503382,0 0,-0.101279 0.04604,-0.138107 0.172634,-0.138107 0.126597,0 0.172633,0.03683 0.172633,0.138107 0,0.200568 0.450933,0.200568 0.503382,0 0.05087,-0.19454 0.394312,-0.19454 0.394312,0 0,0.1118 0.04604,0.138107 0.241687,0.138107 0.195651,0 0.241687,-0.02631 0.241687,-0.138107 0,-0.19454 0.343439,-0.19454 0.394312,0 0.05245,0.200568 0.503382,0.200568 0.503382,0 0,-0.101279 0.04604,-0.138107 0.172634,-0.138107 0.126597,0 0.172633,0.03683 0.172633,0.138107 0,0.110894 0.04604,0.138107 0.233633,0.138107 0.175559,0 0.24261,-0.03433 0.269749,-0.138107 0.05013,-0.191712 0.393224,-0.191712 0.443358,0 0.05156,0.197162 0.434328,0.197162 0.434328,0 0,-0.19454 0.343439,-0.19454 0.394312,0 0.05245,0.200568 0.503382,0.200568 0.503382,0 0,-0.107417 0.04604,-0.138107 0.20716,-0.138107 0.161125,0 0.207161,0.03069 0.207161,0.138107 0,0.197162 0.382769,0.197162 0.434328,0 0.05013,-0.191712 0.393224,-0.191712 0.443358,0 0.05156,0.197162 0.434328,0.197162 0.434328,0 0,-0.108278 0.04604,-0.138107 0.213139,-0.138107 h 0.213139 l -0.01312,0.535164 c -0.0197,0.80335 -0.02713,0.77685 0.217862,0.77685 h 0.216697 l -0.04599,-0.448847 c -0.0492,-0.480264 0.02262,-0.585463 0.165021,-0.241687 0.07661,0.184964 0.11777,0.207161 0.384095,0.207161 0.164059,0 0.31739,-0.03091 0.340736,-0.06868 0.109502,-0.177178 0.296564,-0.204213 0.469852,-0.06791 0.160751,0.126447 0.283702,0.136587 1.656228,0.136587 1.128204,0 1.538981,-0.02356 1.718517,-0.09858 0.208722,-0.08721 0.263448,-0.08556 0.474543,0.01434 0.131238,0.06211 0.254151,0.132038 0.27314,0.155405 0.06813,0.08383 0.290219,0.135463 0.368762,0.08574 0.08924,-0.0565 2.186569,-0.03764 2.859485,0.02571 0.368175,0.03466 0.431583,0.02423 0.431583,-0.07099 0,-0.07799 0.06242,-0.111624 0.207161,-0.111624 0.138106,0 0.20716,0.03453 0.20716,0.10358 0,0.06905 0.06905,0.10358 0.20716,0.10358 0.138107,0 0.20716,-0.03453 0.20716,-0.10358 0,-0.06905 0.06905,-0.10358 0.20716,-0.10358 0.138107,0 0.207161,0.03453 0.207161,0.10358 0,0.07481 0.07672,0.10358 0.276213,0.10358 0.199488,0 0.276214,-0.02877 0.276214,-0.10358 0,-0.06445 0.06522,-0.10358 0.172633,-0.10358 0.107417,0 0.172634,0.03913 0.172634,0.10358 0,0.07234 0.07289,0.10358 0.241687,0.10358 0.168796,0 0.241686,-0.03124 0.241686,-0.10358 0,-0.06905 0.06905,-0.10358 0.207161,-0.10358 0.138106,0 0.20716,0.03453 0.20716,0.10358 0,0.06905 0.06905,0.10358 0.20716,0.10358 0.138107,0 0.20716,-0.03453 0.20716,-0.10358 0,-0.06905 0.06905,-0.10358 0.20716,-0.10358 0.138107,0 0.207161,0.03453 0.207161,0.10358 0,0.07481 0.07673,0.10358 0.276213,0.10358 0.199488,0 0.276214,-0.02877 0.276214,-0.10358 0,-0.06905 0.06905,-0.10358 0.20716,-0.10358 0.138107,0 0.20716,0.03453 0.20716,0.10358 0,0.06905 0.06905,0.10358 0.20716,0.10358 0.138107,0 0.207161,-0.03453 0.207161,-0.10358 0,-0.06905 0.06905,-0.10358 0.20716,-0.10358 0.138107,0 0.20716,0.03453 0.20716,0.10358 0,0.07234 0.07289,0.10358 0.241687,0.10358 0.168797,0 0.241687,-0.03124 0.241687,-0.10358 0,-0.12943 0.335036,-0.141537 0.384024,-0.01388 0.02722,0.07092 0.337257,0.08359 1.481042,0.0605 1.268725,-0.02561 1.47764,-0.01448 1.698868,0.0905 0.378272,0.179502 1.959757,0.252712 4.722473,0.218613 2.482608,-0.03064 2.966845,-0.06638 3.059045,-0.225756 0.07293,-0.126077 0.285895,-0.121681 0.393625,0.0081 0.111397,0.134221 0.456837,0.134221 0.508344,0 0.0494,-0.128731 0.564732,-0.142527 0.644869,-0.01726 0.03037,0.04747 0.114297,0.118841 0.186506,0.158592 0.137092,0.07547 0.329951,0.6782592 0.268362,0.838761 -0.0494,0.128736 5.040643,0.132489 5.317478,0.0039 0.303448,-0.1409228 0.23128,-0.2589498 -0.158326,-0.2589498 -0.189897,0 -0.345267,-0.02745 -0.345267,-0.061 0,-0.07267 0.240334,-0.143904 0.489934,-0.145217 0.09856,-5.18e-4 0.235438,-0.06309 0.30418,-0.1390502 0.09783,-0.108099 0.212685,-0.138107 0.528604,-0.138107 h 0.403617 V 8.539643 7.745529 h 0.586954 0.586954 v 1.16652 c 0,0.9732052 0.01717,1.173107 0.10358,1.206267 0.05697,0.02186 0.10358,0.103846 0.10358,0.182189 0,0.07834 -0.04661,0.160327 -0.10358,0.182188 -0.05697,0.02186 -0.10358,0.09857 -0.10358,0.170467 0,0.186898 0.317735,0.171079 0.84192,-0.04191 0.233669,-0.09495 0.541627,-0.172633 0.68436,-0.172633 0.216538,0 0.263156,0.02572 0.281565,0.15537 0.0158,0.111245 0.076,0.161575 0.211967,0.17722 0.163504,0.01881 0.189896,-0.0028 0.189896,-0.15537 0,-0.155839 0.02859,-0.17722 0.237033,-0.17722 0.17639,0 0.248247,0.03533 0.280868,0.138106 0.04196,0.132192 0.172633,0.196149 0.172633,0.08449 0,-0.02949 0.124297,-0.04176 0.276214,-0.02727 0.177654,0.01694 0.276214,0.06071 0.276214,0.122668 0,0.07839 0.205772,0.09633 1.104854,0.09633 1.058816,0 1.104854,-0.0058 1.104854,-0.138107 0,-0.128354 0.04604,-0.138107 0.651933,-0.138107 0.35856,0 0.667519,-0.02522 0.686571,-0.05605 0.01905,-0.03083 1.240544,-0.05413 2.71442,-0.05179 l 2.679783,0.0043 0.01921,0.949484 0.01921,0.949484 -2.401553,-2.56e-4 c -1.320853,-1.38e-4 -2.842818,-0.02044 -3.382146,-0.04511 -0.92631,-0.04238 -0.981746,-0.05288 -1.001274,-0.189645 -0.0199,-0.139313 -0.06308,-0.145501 -1.142799,-0.163758 -0.967797,-0.01636 -1.122118,-0.0045 -1.122118,0.08632 0,0.09895 -0.183682,0.140138 -0.492136,0.110342 -0.06179,-0.006 -0.130732,0.03706 -0.153202,0.09563 -0.06274,0.163499 -0.434919,0.138952 -0.479521,-0.03163 -0.05014,-0.191712 -0.393224,-0.191712 -0.443364,0 -0.04885,0.186806 -0.512825,0.186806 -0.986752,0 -0.192708,-0.07596 -0.45799,-0.138107 -0.589509,-0.138107 -0.227255,0 -0.239132,0.012 -0.239132,0.241687 v 0.241687 h -0.349804 c -0.520835,0 -0.616944,0.07568 -0.616944,0.485804 0,0.334894 0.0048,0.342837 0.20716,0.342837 0.306301,0 0.259179,0.131718 -0.205344,0.573995 -0.433482,0.412719 -0.572708,0.458168 -0.89422,0.291909 -0.202803,-0.104873 -0.764877,-0.729891 -0.764877,-0.850536 0,-0.03798 0.108759,-0.08945 0.241687,-0.114389 l 0.241686,-0.04534 v -0.657847 -0.657847 l -0.36253,0.04324 c -0.534197,0.06372 -1.596853,0.09344 -3.55625,0.09945 -1.501449,0.0046 -1.743598,0.01973 -1.743598,0.108929 0,0.08696 -0.149618,0.103581 -0.932221,0.103581 -0.782603,0 -0.932221,-0.01662 -0.932221,-0.103581 0,-0.09075 -0.446485,-0.10358 -3.604028,-0.10358 h -3.604023 l -0.262965,0.282004 c -0.250488,0.268625 -0.262964,0.304007 -0.262964,0.745777 0,0.268641 -0.03486,0.498638 -0.08286,0.546637 -0.06445,0.06445 -0.06445,0.101278 0,0.165728 0.08691,0.08691 0.120352,1.396376 0.04095,1.603296 -0.03261,0.08498 -0.147564,0.109228 -0.5179,0.109228 -0.271288,0 -0.475986,-0.0297 -0.475986,-0.06905 0,-0.03798 -0.108759,-0.06905 -0.241687,-0.06905 -0.132928,0 -0.241687,0.03107 -0.241687,0.06905 0,0.03798 -0.07769,0.06905 -0.172633,0.06905 -0.09495,0 -0.172634,-0.03107 -0.172634,-0.06905 0,-0.09002 -0.462265,-0.09002 -0.5179,0 -0.05557,0.08991 -0.379794,0.08991 -0.379794,0 0,-0.03798 -0.124296,-0.06905 -0.276214,-0.06905 -0.151917,0 -0.276213,0.03107 -0.276213,0.06905 0,0.03798 -0.07768,0.06905 -0.172634,0.06905 -0.09495,0 -0.172633,-0.03107 -0.172633,-0.06905 0,-0.03798 -0.108759,-0.06905 -0.241687,-0.06905 -0.132928,0 -0.241687,0.03107 -0.241687,0.06905 0,0.08991 -0.324227,0.08991 -0.379794,0 -0.05541,-0.08966 -0.427963,-0.08966 -0.483374,0 -0.05557,0.08991 -0.379793,0.08991 -0.379793,0 0,-0.03798 -0.124296,-0.06905 -0.276214,-0.06905 -0.151917,0 -0.276213,0.03107 -0.276213,0.06905 0,0.03798 -0.07769,0.06905 -0.172634,0.06905 -0.09495,0 -0.172633,-0.03107 -0.172633,-0.06905 0,-0.03798 -0.108759,-0.06905 -0.241687,-0.06905 -0.132928,0 -0.241687,0.03107 -0.241687,0.06905 0,0.03798 -0.09322,0.06905 -0.20716,0.06905 -0.113938,0 -0.207161,-0.03107 -0.207161,-0.06905 0,-0.03798 -0.108759,-0.06905 -0.241686,-0.06905 -0.132928,0 -0.241687,0.03107 -0.241687,0.06905 0,0.03798 -0.07769,0.06905 -0.172634,0.06905 -0.09495,0 -0.172633,-0.03107 -0.172633,-0.06905 0,-0.03798 0.04661,-0.06905 0.10358,-0.06905 0.05697,0 0.10358,-0.03107 0.10358,-0.06905 0,-0.07912 -0.132118,-0.08564 -0.500637,-0.02473 -0.152303,0.02517 -0.25895,0.08174 -0.25895,0.137346 0,0.10916 -0.315017,0.130304 -0.379794,0.02549 -0.05541,-0.08966 -0.427963,-0.08966 -0.483374,0 -0.05557,0.08991 -0.379794,0.08991 -0.379794,0 0,-0.03798 -0.124296,-0.06905 -0.276213,-0.06905 -0.151918,0 -0.276214,0.03107 -0.276214,0.06905 0,0.03798 -0.06215,0.06905 -0.138107,0.06905 -0.07596,0 -0.138106,-0.03107 -0.138106,-0.06905 0,-0.03798 -0.124297,-0.06905 -0.276214,-0.06905 -0.151917,0 -0.276214,0.03107 -0.276214,0.06905 0,0.08991 -0.324226,0.08991 -0.379793,0 -0.05418,-0.08767 -0.400071,-0.09018 -0.486827,-0.0035 -0.03608,0.03604 -0.190061,0.0854 -0.342179,0.109704 -0.251861,0.04024 -0.299633,0.0218 -0.534527,-0.206332 -0.141872,-0.137783 -0.277751,-0.329413 -0.301954,-0.425844 l -0.044,-0.175328 -1.251383,0.04621 c -2.168586,0.08008 -3.440652,0.164446 -4.082572,0.270766 -0.341814,0.05662 -0.880296,0.124118 -1.196625,0.150007 -0.542184,0.04437 -0.572776,0.05541 -0.533793,0.192502 0.02274,0.07999 0.101061,0.394023 0.174037,0.697858 0.07298,0.303835 0.212193,0.762886 0.309369,1.020114 0.09718,0.257228 0.17697,0.521357 0.177319,0.586954 6.91e-4,0.13043 0.800846,1.887203 0.88673,1.946861 0.07667,0.05326 0.424369,0.696035 0.426186,0.787869 8.42e-4,0.04269 0.0623,0.155305 0.136571,0.250253 0.07427,0.09495 0.135675,0.203708 0.136457,0.241687 7.8e-4,0.03798 -0.270425,0.236121 -0.602681,0.440314 -0.332257,0.204194 -0.806499,0.507166 -1.053869,0.673271 -0.247372,0.166106 -0.477706,0.30201 -0.511855,0.30201 -0.06289,0 -0.735674,0.40918 -0.799241,0.486088 -0.05025,0.0608 -0.994691,0.663014 -1.23328,0.786393 -0.180943,0.09357 -0.24145,0.09383 -0.549312,0.0024 -0.409479,-0.121602 -0.392568,-0.09648 -1.346196,-1.999951 -0.841547,-1.679757 -1.6386,-4.053931 -1.883576,-5.610589 -0.04619,-0.293475 -0.04619,-0.293477 -0.3481,-0.293477 -0.252943,0 -0.301915,0.02177 -0.301915,0.134192 0,0.157159 -0.246126,0.349182 -0.447566,0.349182 -0.110528,0 -0.175072,0.09606 -0.301597,0.448847 -0.08854,0.246866 -0.189248,0.448847 -0.223806,0.448847 -0.08233,0 -0.08112,-0.0084 0.04463,-0.309369 0.168015,-0.402118 0.115879,-0.54746 -0.211038,-0.588325 -0.236792,-0.0296 -0.273866,-0.0567 -0.259764,-0.189897 0.01635,-0.154464 0.01085,-0.15537 -0.94373,-0.15537 -0.706756,0 -0.967776,0.02278 -0.988964,0.08632 -0.02188,0.06562 -0.334574,0.08281 -1.303818,0.07168 -1.157051,-0.01328 -1.295494,-0.0022 -1.496144,0.119829 -0.24685,0.150118 -0.288311,0.274602 -0.09146,0.274602 0.07131,0 0.163765,0.0411 0.205458,0.09134 0.07994,0.09632 0.129391,0.77919 0.06136,0.847223 -0.02189,0.02189 -0.163507,0.05639 -0.31471,0.07667 -0.231902,0.0311 -0.280841,0.0665 -0.312789,0.226239 -0.05732,0.286599 -0.378962,0.623905 -0.76742,0.804796 -0.327802,0.152644 -0.42657,0.162091 -1.694631,0.162091 -1.271012,0 -1.365908,-0.0091 -1.691808,-0.16282 -0.577878,-0.272514 -0.858322,-0.703776 -0.868474,-1.335524 -0.0091,-0.568384 -0.134718,-0.865818 -0.425836,-1.008558 -0.341281,-0.167337 -0.479479,-0.109519 -0.698034,0.292038 -0.261535,0.480526 -0.252244,0.961854 0.02873,1.488387 0.200222,0.375208 0.205289,0.403408 0.09447,0.525859 -0.0644,0.07116 -0.171587,0.146683 -0.238189,0.167822 -0.0666,0.02114 -0.210106,0.166922 -0.318897,0.323965 -0.184019,0.265635 -0.197977,0.332399 -0.200308,0.958134 l -0.0025,0.672604 -0.286623,0.31095 c -0.349368,0.379019 -0.462742,0.751881 -0.401907,1.321781 l 0.04454,0.417281 -0.322817,0.269554 c -0.431864,0.360608 -0.61359,0.771331 -0.549824,1.242674 0.02621,0.193717 0.05302,0.460973 0.05958,0.593901 0.01166,0.236057 0.0055,0.241974 -0.264279,0.254015 -0.184891,0.0083 -0.774671,-0.154266 -1.783834,-0.491549 z M 6.4926945,20.075929 c 0.7704603,-0.150921 1.4168858,-0.402968 2.8598401,-1.115075 0.7245294,-0.357559 1.3527384,-0.650109 1.3960184,-0.650109 0.04328,0 0.669572,-0.295203 1.391758,-0.656007 0.722186,-0.360804 1.345371,-0.656007 1.384857,-0.656007 0.03948,0 0.699636,-0.310741 1.467002,-0.690534 0.767366,-0.379794 1.431162,-0.690534 1.475102,-0.690534 0.04394,0 0.674331,-0.295204 1.400868,-0.656008 0.726537,-0.360804 1.368425,-0.656007 1.426415,-0.656007 0.05799,0 0.228366,-0.06271 0.378613,-0.139363 0.543567,-0.277308 1.505699,-0.474204 3.079732,-0.630256 l 1.544382,-0.153112 v -0.22349 -0.22349 l -0.811377,0.03348 c -0.446258,0.01841 -1.992191,0.1233 -3.435407,0.233081 -3.13888,0.238766 -4.535095,0.319451 -7.147026,0.413012 -3.4636263,0.12407 -8.2369298,0.274817 -8.7179918,0.275326 l -0.4661104,4.93e-4 v 3.141929 3.14193 h 1.1333065 c 0.704397,0 1.3250759,-0.03757 1.6400182,-0.09926 z M 34.515093,18.367205 c 0.617766,-0.142597 0.899786,-0.562074 0.899786,-1.338339 0,-0.530385 -0.125721,-0.801081 -0.445302,-0.958803 -0.199563,-0.09849 -0.165971,-0.104072 0.635199,-0.105561 0.527652,-9.81e-4 0.845904,-0.02806 0.845904,-0.07197 0,-0.04653 -0.678932,-0.06568 -2.002548,-0.05648 -1.101402,0.0077 -2.002549,0.03933 -2.002549,0.0704 0,0.03107 0.06901,0.05648 0.153357,0.05648 0.139237,0 0.12962,0.02306 -0.104455,0.250411 -0.293,0.284591 -0.358023,0.468463 -0.305125,0.862843 0.04963,0.369994 0.300255,0.722308 0.631082,0.887124 0.199621,0.09945 0.24243,0.14622 0.162065,0.177059 -0.154996,0.05948 -0.623188,-0.197005 -0.849442,-0.465338 -0.282679,-0.33525 -0.378016,-0.618458 -0.378016,-1.122928 0,-0.399031 -0.01532,-0.451065 -0.132808,-0.451065 -0.187546,0 -0.559115,0.331726 -0.670695,0.598775 -0.133942,0.320568 -0.116835,0.812462 0.03887,1.117668 0.17664,0.346243 0.287355,0.428649 0.715213,0.532342 0.46448,0.112567 2.346654,0.124214 2.809465,0.01738 z m 1.59032,-1.200904 c 0,-0.226657 -0.231008,-0.206484 -0.263753,0.02303 -0.01676,0.11747 0.0123,0.154665 0.120844,0.154665 0.107487,0 0.142909,-0.04405 0.142909,-0.177697 z m 32.545439,-2.45421 c 0.119724,-0.191329 0.0068,-0.33739 -0.260809,-0.33739 -0.221725,0 -0.243854,0.01776 -0.243854,0.195652 0,0.107608 0.02214,0.217794 0.04921,0.244857 0.08272,0.08272 0.381497,0.01507 0.455457,-0.103119 z m -40.57155,-1.597614 0.01861,-1.501911 -0.709144,0.0068 -0.709144,0.0068 0.442622,0.08703 c 0.272067,0.0535 0.47828,0.1358 0.535164,0.213593 0.06744,0.09222 0.09229,0.3993 0.0916,1.131899 -5.53e-4,0.552936 -0.01814,1.069368 -0.03916,1.147626 -0.04087,0.152159 -0.473301,0.30656 -0.858583,0.30656 -0.113393,0 -0.206169,0.03216 -0.206169,0.07147 0,0.04589 0.253343,0.06443 0.707797,0.05179 l 0.707797,-0.01968 z m 56.833052,0.832093 c 0.234388,-0.234387 -0.04125,-0.624876 -0.331456,-0.469563 -0.243738,0.130443 -0.138238,0.552427 0.138107,0.552427 0.06077,0 0.147774,-0.03729 0.193349,-0.08286 z m 9.647809,-2.406372 c 0.0931,-0.293326 -0.306065,-0.459372 -0.471096,-0.195969 -0.111604,0.178132 -0.007,0.33739 0.221537,0.33739 0.145627,0 0.217629,-0.0408 0.249559,-0.141421 z m 1.186013,0.02846 c 0.06195,-0.161444 -0.0704,-0.335881 -0.254841,-0.335881 -0.184442,0 -0.316797,0.174437 -0.254842,0.335881 0.02708,0.07056 0.122736,0.112966 0.254842,0.112966 0.132106,0 0.227765,-0.0424 0.254841,-0.112966 z m 1.173908,0 c 0.06195,-0.161444 -0.0704,-0.335881 -0.254842,-0.335881 -0.184441,0 -0.316796,0.174437 -0.254841,0.335881 0.02708,0.07056 0.122735,0.112966 0.254841,0.112966 0.132106,0 0.227766,-0.0424 0.254842,-0.112966 z m 1.160753,-0.128721 c 0,-0.182407 -0.02385,-0.20716 -0.199633,-0.20716 -0.223126,0 -0.363636,0.161967 -0.295204,0.340291 0.03236,0.08433 0.108366,0.111274 0.269937,0.0957 0.199039,-0.01918 0.2249,-0.0455 0.2249,-0.228834 z m -21.924454,-0.72182 c 0,-0.165989 -0.627246,-0.209652 -3.017012,-0.210021 -1.592005,-2.48e-4 -2.5146,0.02468 -2.541786,0.06867 -0.02347,0.03798 -0.304974,0.06905 -0.625556,0.06905 -0.34255,0 -0.582878,0.02847 -0.582878,0.06905 0,0.0451 1.173907,0.06905 3.383616,0.06905 2.09845,0 3.383616,-0.025 3.383616,-0.06581 z m 7.526821,-0.106826 v -0.172633 h -2.589503 -2.589502 v 0.172633 0.172634 h 2.589502 2.589503 z M 50.46852,9.195697 c 0,-0.161125 -0.03069,-0.207161 -0.138107,-0.207161 -0.107417,0 -0.138107,0.04604 -0.138107,0.207161 0,0.161124 0.03069,0.20716 0.138107,0.20716 0.107417,0 0.138107,-0.04604 0.138107,-0.20716 z m 4.695631,0.04191 c 0,-0.164118 -0.162125,-0.285059 -0.282445,-0.210697 -0.07301,0.04512 -0.08407,0.262619 -0.01679,0.329907 0.02532,0.02532 0.103004,0.04604 0.172633,0.04604 0.08749,0 0.126598,-0.05104 0.126598,-0.165246 z M 52.488332,9.12713 c 0.104443,-2.69e-4 0.189896,-0.03273 0.189896,-0.07213 0,-0.117637 -1.258871,-0.05439 -1.29854,0.06524 -0.02654,0.08004 0.05162,0.08926 0.443262,0.05228 0.261517,-0.02469 0.560938,-0.04512 0.665382,-0.04539 z"
   id="path222" /></svg>
