<?xml version="1.0" encoding="UTF-8" standalone="no"?>
<svg
   xmlns:dc="http://purl.org/dc/elements/1.1/"
   xmlns:cc="http://creativecommons.org/ns#"
   xmlns:rdf="http://www.w3.org/1999/02/22-rdf-syntax-ns#"
   xmlns:svg="http://www.w3.org/2000/svg"
   xmlns="http://www.w3.org/2000/svg"
   xmlns:sodipodi="http://sodipodi.sourceforge.net/DTD/sodipodi-0.dtd"
   xmlns:inkscape="http://www.inkscape.org/namespaces/inkscape"
   version="1.1"
   x="0px"
   y="0px"
   width="37.75px"
   height="32px"
   viewBox="0 0 37.75 32"
   enable-background="new 0 0 37.75 32"
   xml:space="preserve"
   id="svg176"
   sodipodi:docname="m19.svg"
   inkscape:version="1.0.2-2 (e86c870879, 2021-01-15)"><metadata
   id="metadata182"><rdf:RDF><cc:Work
       rdf:about=""><dc:format>image/svg+xml</dc:format><dc:type
         rdf:resource="http://purl.org/dc/dcmitype/StillImage" /></cc:Work></rdf:RDF></metadata><defs
   id="defs180" /><sodipodi:namedview
   pagecolor="#ffffff"
   bordercolor="#666666"
   borderopacity="1"
   objecttolerance="10"
   gridtolerance="10"
   guidetolerance="10"
   inkscape:pageopacity="0"
   inkscape:pageshadow="2"
   inkscape:window-width="1842"
   inkscape:window-height="1051"
   id="namedview178"
   showgrid="false"
   inkscape:zoom="19.445436"
   inkscape:cx="24.716105"
   inkscape:cy="13.738022"
   inkscape:window-x="-9"
   inkscape:window-y="-9"
   inkscape:window-maximized="1"
   inkscape:current-layer="svg176" />

<g
   id="guides">
</g>
<path
   style="fill:#ffffff;stroke-width:0.0362148"
   d="m 2.08545,29.312433 c -0.048138,-0.01885 -0.056628,-0.0357 -0.027161,-0.05391 0.023575,-0.01457 0.042865,-0.08257 0.042865,-0.151107 0,-0.09941 -0.014284,-0.124614 -0.07063,-0.124614 -0.038846,0 -0.08657,0.02852 -0.1060524,0.06338 -0.031877,0.05704 -0.120852,0.06452 -0.8890636,0.07483 l -0.85364153,0.01146 v -0.255906 c 0,-0.234711 0.006214,-0.255913 0.0750165,-0.255913 0.0960708,0 0.17848754,-0.08241 0.17848754,-0.178486 0,-0.04126 0.0162967,-0.07501 0.0362148,-0.07501 0.0490549,0 0.0455553,-0.0741 -0.009054,-0.19168 -0.0294149,-0.06334 -0.0738052,-0.09757 -0.12675202,-0.09776 -0.0767142,-2.66e-4 -0.0814835,-0.01512 -0.0814835,-0.253787 0,-0.139427 0.0138644,-0.253503 0.03081,-0.253503 0.0169455,0 0.0423625,-0.305563 0.0564821,-0.679029 0.0141197,-0.373465 0.0409969,-0.684461 0.0597271,-0.691101 0.0187303,-0.0067 0.0340551,-0.100344 0.0340551,-0.208235 0,-0.10789 0.0138913,-0.196163 0.0308696,-0.196163 0.0169782,0 0.0419824,-0.158894 0.0555648,-0.353096 0.0135824,-0.194202 0.0404328,-0.358527 0.0596676,-0.365166 0.0192348,-0.0067 0.0349723,-0.0759 0.0349723,-0.153913 0,-0.07801 0.0153099,-0.141842 0.0340219,-0.141842 0.0187121,0 0.0452629,-0.114077 0.0590016,-0.253504 0.0137388,-0.139427 0.0377077,-0.253504 0.0532642,-0.253504 0.0155565,0 0.0398234,-0.138522 0.0539264,-0.307826 0.014103,-0.169305 0.0400109,-0.307827 0.0575733,-0.307827 0.017562,0 0.031932,-0.03163 0.031932,-0.07029 0,-0.03866 0.014693,-0.07937 0.032652,-0.09047 0.017958,-0.0111 0.044003,-0.11799 0.057878,-0.237534 0.013875,-0.119544 0.039923,-0.217355 0.057886,-0.217355 0.017962,0 0.032659,-0.03978 0.032659,-0.0884 0,-0.04862 0.014694,-0.09748 0.032652,-0.108579 0.017958,-0.0111 0.044003,-0.11799 0.057878,-0.237535 0.013875,-0.119544 0.039114,-0.217354 0.056088,-0.217354 0.016973,0 0.041924,-0.09778 0.055444,-0.217289 0.01352,-0.119509 0.038775,-0.217289 0.05612,-0.217289 0.017346,0 0.031537,-0.04074 0.031537,-0.09054 0,-0.0498 0.015298,-0.09054 0.033996,-0.09054 0.018697,0 0.044993,-0.07334 0.058434,-0.162966 0.013441,-0.08963 0.038884,-0.162968 0.056542,-0.162968 0.017656,0 0.032103,-0.04074 0.032103,-0.09054 0,-0.04979 0.014767,-0.09054 0.032816,-0.09054 0.018049,0 0.044023,-0.08149 0.057721,-0.181074 0.013698,-0.09959 0.038142,-0.181074 0.054323,-0.181074 0.01618,0 0.040625,-0.08149 0.054322,-0.181074 0.013698,-0.09959 0.039671,-0.181075 0.057721,-0.181075 0.018049,0 0.032816,-0.04074 0.032816,-0.09054 0,-0.0498 0.014864,-0.09054 0.033031,-0.09054 0.018167,0 0.044045,-0.06518 0.057506,-0.144859 0.013461,-0.07967 0.039338,-0.14486 0.057506,-0.14486 0.018167,0 0.033031,-0.04074 0.033031,-0.09054 0,-0.0498 0.016104,-0.09054 0.035787,-0.09054 0.019683,0 0.046211,-0.06519 0.058951,-0.14486 0.012741,-0.07967 0.037185,-0.144859 0.054322,-0.144859 0.017138,0 0.041582,-0.06519 0.054322,-0.14486 0.012741,-0.07967 0.037377,-0.144859 0.05475,-0.144859 0.017373,0 0.031586,-0.02445 0.031586,-0.05433 0,-0.02988 0.014214,-0.05433 0.031586,-0.05433 0.017373,0 0.04201,-0.06519 0.05475,-0.144859 0.012741,-0.07967 0.039268,-0.144859 0.058951,-0.144859 0.019683,0 0.035787,-0.04074 0.035787,-0.09054 0,-0.0498 0.016104,-0.09054 0.035787,-0.09054 0.019683,0 0.04621,-0.06519 0.058951,-0.144859 0.012741,-0.07967 0.037185,-0.14486 0.054323,-0.14486 0.017137,0 0.041582,-0.06518 0.054322,-0.144859 0.012741,-0.07967 0.037377,-0.14486 0.05475,-0.14486 0.017373,0 0.031586,-0.0326 0.031586,-0.07243 0,-0.03984 0.014864,-0.07243 0.033031,-0.07243 0.018167,0 0.044045,-0.06519 0.057506,-0.14486 0.013461,-0.07967 0.039338,-0.144859 0.057506,-0.144859 0.018167,0 0.033031,-0.02445 0.033031,-0.05433 0,-0.02988 0.014214,-0.05433 0.031586,-0.05433 0.017373,0 0.04201,-0.06519 0.05475,-0.14486 0.012741,-0.07967 0.037739,-0.144859 0.055553,-0.144859 0.017814,0 0.043595,-0.08149 0.057293,-0.181074 0.013697,-0.09959 0.039671,-0.181076 0.057721,-0.181076 0.018049,0 0.032816,-0.04889 0.032816,-0.108644 0,-0.05976 0.015487,-0.108644 0.034417,-0.108644 0.018929,0 0.045479,-0.09778 0.059,-0.217289 0.01352,-0.119509 0.038775,-0.21729 0.05612,-0.21729 0.017346,0 0.031537,-0.04889 0.031537,-0.108644 0,-0.05975 0.0146,-0.108645 0.032446,-0.108645 0.017845,0 0.043986,-0.130373 0.058091,-0.289719 0.014105,-0.159345 0.038401,-0.289719 0.053991,-0.289719 0.01559,0 0.040184,-0.24445 0.054653,-0.543223 0.01447,-0.298773 0.04076,-0.543222 0.058423,-0.543222 0.017662,0 0.032114,-0.138522 0.032114,-0.307827 0,-0.181074 -0.014912,-0.307826 -0.036215,-0.307826 -0.019918,0 -0.036316,-0.03667 -0.036438,-0.08149 -1.231e-4,-0.04481 -0.023031,-0.125201 -0.050909,-0.178635 -0.027878,-0.05343 -0.060987,-0.144049 -0.073576,-0.201369 -0.012589,-0.05733 -0.095609,-0.17265 -0.1844877,-0.256288 -0.088879,-0.08364 -0.1615973,-0.16705 -0.1615973,-0.185361 0,-0.06926 -0.276605,-0.317326 -0.4345784,-0.389749 -0.029877,-0.01369 -0.075857,-0.04619 -0.1021777,-0.0722 -0.02632,-0.02601 -0.071136,-0.0473 -0.099591,-0.0473 -0.028454,0 -0.051735,-0.01629 -0.051735,-0.03621 0,-0.01992 -0.024445,-0.03621 -0.054322,-0.03621 -0.029877,0 -0.054322,-0.01448 -0.054322,-0.03219 0,-0.0177 -0.057039,-0.04288 -0.1267521,-0.05596 -0.069714,-0.01308 -0.126752,-0.03934 -0.126752,-0.05835 0,-0.01901 -0.040742,-0.03458 -0.090537,-0.03458 -0.049795,0 -0.090537,-0.0161 -0.090537,-0.03578 0,-0.01968 -0.065186,-0.04621 -0.1448594,-0.05895 -0.079673,-0.01274 -0.1448595,-0.03529 -0.1448595,-0.05012 0,-0.01483 -0.065186,-0.03739 -0.1448594,-0.05012 -0.079673,-0.01274 -0.1448595,-0.03927 -0.1448595,-0.05895 0,-0.01968 -0.040742,-0.03578 -0.090537,-0.03578 -0.049795,0 -0.090537,-0.0161 -0.090537,-0.03578 0,-0.01968 -0.065187,-0.04621 -0.1448595,-0.05895 -0.079673,-0.01274 -0.14485951,-0.03738 -0.14485951,-0.05476 0,-0.01737 -0.026544,-0.03159 -0.058988,-0.03159 -0.0501907,0 -0.0552601,-0.02835 -0.0339926,-0.190128 0.0137474,-0.10457 0.0402919,-0.195559 0.0589879,-0.202199 0.018696,-0.0067 0.033993,-0.05146 0.033993,-0.09959 0,-0.04813 0.015558,-0.08752 0.034574,-0.08752 0.019016,0 0.04517,-0.05649 0.058121,-0.125517 0.014591,-0.07778 0.04965,-0.133802 0.092178,-0.147301 0.037747,-0.01198 0.068631,-0.04689 0.068631,-0.07758 0,-0.07325 0.33964,-0.410115 0.4134902,-0.410115 0.031516,0 0.057303,-0.01505 0.057303,-0.03343 0,-0.04442 0.2132375,-0.256289 0.2579359,-0.256289 0.052685,0 0.2008747,-0.1586988 0.2280028,-0.2441718 0.013104,-0.041291 0.047651,-0.084214 0.076771,-0.095388 0.029119,-0.011174 0.052944,-0.041679 0.052944,-0.067782 0,-0.026103 0.032519,-0.070899 0.072266,-0.099551 C 2.358028,9.5068362 2.40112,9.4258337 2.414042,9.3554728 2.426964,9.2851118 2.447408,9.2193958 2.459473,9.2094367 2.519609,9.1598007 2.5781826,9.0045314 2.5971332,8.8445228 c 0.011615,-0.098067 0.033848,-0.1783095 0.049406,-0.1783095 0.015558,0 0.039632,-0.1059279 0.053497,-0.235396 0.013865,-0.1294681 0.039607,-0.235397 0.057205,-0.235397 0.017598,0 0.031995,-0.033373 0.031995,-0.074155 0,-0.040793 0.040742,-0.1119173 0.090537,-0.1580657 0.049795,-0.04615 0.090537,-0.1235953 0.090537,-0.172102 0,-0.048511 0.016222,-0.104418 0.036051,-0.1242456 0.019827,-0.019829 0.046664,-0.1616091 0.059636,-0.3150696 0.012972,-0.1534606 0.035614,-0.2790188 0.050313,-0.2790188 0.014701,0 0.037927,-0.089632 0.051614,-0.1991818 0.013688,-0.1095499 0.040011,-0.1991817 0.058495,-0.1991817 0.018485,0 0.033609,-0.047933 0.033609,-0.1065073 0,-0.058579 0.014392,-0.1154022 0.031983,-0.1262735 0.017591,-0.010873 0.043207,-0.1096154 0.056928,-0.2194285 0.013721,-0.1097875 0.04007,-0.1996346 0.058555,-0.1996346 0.018485,0 0.033609,-0.047928 0.033609,-0.1065073 0,-0.058579 0.014694,-0.1155882 0.032652,-0.126687 0.017958,-0.011099 0.044003,-0.1179891 0.057878,-0.2375339 0.013875,-0.1195448 0.039114,-0.2173542 0.056088,-0.2173542 0.016973,0 0.041923,-0.09778 0.055444,-0.2172892 0.013521,-0.119509 0.038776,-0.2172891 0.056121,-0.2172891 0.017346,0 0.031537,-0.04889 0.031537,-0.1086446 0,-0.059754 0.014192,-0.1086447 0.031537,-0.1086447 0.017346,0 0.0426,-0.09778 0.05612,-0.2172891 0.01352,-0.1195091 0.040071,-0.2172892 0.059001,-0.2172892 0.018929,0 0.034417,-0.04889 0.034417,-0.1086446 0,-0.059754 0.016297,-0.1086446 0.036215,-0.1086446 0.019918,0 0.036215,-0.039488 0.036215,-0.087751 0,-0.049215 0.047712,-0.135463 0.1086446,-0.196396 0.080217,-0.080217 0.1086446,-0.1425379 0.1086446,-0.2381823 0,-0.071245 0.014697,-0.1295379 0.032659,-0.1295379 0.017962,0 0.044368,-0.1018542 0.058678,-0.2263428 0.01431,-0.1244886 0.036281,-0.2344912 0.048824,-0.2444503 0.012543,-0.00996 0.040866,-0.050701 0.062939,-0.090537 0.037994,-0.068568 0.082995,-0.072949 0.8440831,-0.082181 l 0.8039496,-0.00975 0.1065572,0.1065572 C 6.2631394,2.9360018 6.2658628,2.9480519 6.2658628,3.3036595 V 3.6685938 H 10.7772 c 4.854747,0 4.614808,-0.00928 4.614808,0.1784876 0,0.093967 0.09619,0.098859 0.125546,0.00638 0.0135,-0.042528 0.06953,-0.077587 0.147301,-0.092178 0.06904,-0.012951 0.125517,-0.039105 0.125517,-0.058121 0,-0.048405 0.570104,-0.044467 0.586276,0.00405 0.0083,0.024761 0.282288,0.046263 0.763531,0.059907 0.41286,0.011706 0.750655,0.035067 0.750655,0.051914 0,0.016847 0.252599,0.03063 0.561331,0.03063 0.308732,0 0.56133,0.014355 0.56133,0.031901 0,0.017546 0.505197,0.043932 1.122661,0.058636 0.617463,0.014705 1.12266,0.041091 1.12266,0.058636 0,0.017546 0.252599,0.031901 0.561331,0.031901 0.350077,0 0.56133,0.013629 0.56133,0.036215 0,0.020429 0.102608,0.036215 0.235397,0.036215 H 22.85227 V 3.8858967 3.6686076 h 5.572655 c 4.90929,0 5.578021,0.00646 5.617738,0.054323 0.0361,0.043501 0.144988,0.054322 0.546607,0.054322 h 0.501522 l 0.01011,-0.4798469 0.01011,-0.4798469 0.507008,0.013435 c 0.278855,0.00739 0.512441,0.02776 0.51908,0.045269 0.0067,0.017509 0.116643,0.031834 0.24445,0.031834 0.127809,0 0.232379,0.01453 0.232379,0.032288 0,0.017759 0.04049,0.042452 0.08999,0.054874 0.05551,0.013934 0.09863,0.057057 0.11257,0.1125706 0.01242,0.049492 0.03712,0.089985 0.05488,0.089985 0.01776,0 0.03229,0.096036 0.03229,0.2134146 0,0.2571103 -4.56e-4,0.2573786 -0.437541,0.2573786 -0.262941,0 -0.322971,0.010096 -0.322971,0.054323 0,0.045687 0.08021,0.054322 0.504567,0.054322 0.472763,0 0.506016,0.00456 0.527557,0.072429 0.01264,0.039836 0.03818,0.07243 0.05677,0.07243 0.01857,0 0.03377,0.1466701 0.03377,0.3259337 v 0.3259338 h 0.173027 c 0.306776,0 0.297766,-0.042203 0.297766,1.3946862 0,0.972322 -0.01003,1.2501348 -0.04526,1.2541254 -0.09812,0.011114 -0.195299,0.018972 -0.307826,0.024898 l -0.117698,0.00617 -0.0031,0.8601037 -0.0031,0.8601026 -0.467697,0.2346122 c -0.257252,0.1290359 -0.467734,0.2471865 -0.467734,0.2625574 0,0.015367 -0.02445,0.027945 -0.05433,0.027945 -0.02988,0 -0.05433,0.016293 -0.05433,0.036211 0,0.078179 0.686018,-0.012847 0.997422,-0.1323443 0.04507,-0.017299 0.05281,0.076147 0.05281,0.6380647 0,0.750851 -0.0112,0.784215 -0.257419,0.766438 -0.246645,-0.01781 -0.274744,0.0071 -0.302699,0.268113 -0.01379,0.128842 -0.04008,0.234257 -0.05842,0.234257 -0.01833,0 -0.03333,0.05704 -0.03333,0.126752 0,0.06971 -0.01442,0.126753 -0.03204,0.126753 -0.01762,0 -0.04324,0.08963 -0.05693,0.199181 -0.01369,0.10955 -0.04001,0.199182 -0.0585,0.199182 -0.01848,0 -0.0336,0.04074 -0.0336,0.09054 0,0.0498 -0.01421,0.09054 -0.03159,0.09054 -0.01737,0 -0.04201,0.06518 -0.05474,0.144859 l -0.02317,0.14486 h -0.394974 c -0.217235,0 -0.420751,-0.0099 -0.452257,-0.02198 -0.04508,-0.0173 -0.05728,-0.07899 -0.05728,-0.289718 v -0.267737 h -0.46657 c -0.539254,0 -0.509865,-0.02344 -0.510738,0.407418 l -4.93e-4,0.24445 H 33.970234 33.49944 V 12.17908 11.853146 h -0.470793 -0.470793 v 0.325934 0.325934 H 32.050846 31.543837 V 12.17908 11.853146 h -0.470793 -0.470793 v 0.325934 0.325934 h -0.470793 -0.470793 l -3.99e-4,-0.190128 c -2.17e-4,-0.104571 -0.0105,-0.251241 -0.02285,-0.325934 l -0.02244,-0.135806 h -0.466055 -0.466055 v 0.289719 0.289719 h -0.380254 c -0.229361,0 -0.380257,0.01437 -0.380257,0.03621 0,0.02362 -0.583995,0.03621 -1.679557,0.03621 -1.448759,0 -1.685751,0.0075 -1.72464,0.05433 -0.0248,0.02988 -0.06753,0.05432 -0.09497,0.05432 -0.02744,0 -0.04988,0.01453 -0.04988,0.03229 0,0.01776 -0.04215,0.04286 -0.09366,0.05579 -0.133821,0.03358 -0.297776,0.205143 -0.400364,0.418924 -0.01434,0.02988 -0.05476,0.07985 -0.08983,0.111045 -0.03644,0.03242 -0.07443,0.137162 -0.08867,0.244451 -0.01369,0.10325 -0.0391,0.187727 -0.05645,0.187727 -0.01735,0 -0.03155,0.138522 -0.03155,0.307826 0,0.169305 -0.01421,0.307827 -0.03159,0.307827 -0.01738,0 -0.04357,0.297415 -0.0582,0.660922 -0.01464,0.363506 -0.03975,0.669157 -0.0558,0.679222 -0.01605,0.01007 -0.03433,0.194217 -0.0406,0.409224 -0.0087,0.297595 1.81e-4,0.39809 0.03717,0.420946 0.03906,0.02414 0.03942,0.03308 0.0018,0.04562 -0.03055,0.01019 -0.04768,0.08757 -0.04937,0.223004 -0.0018,0.143035 -0.01943,0.21789 -0.0569,0.241185 -0.04479,0.02784 -0.04637,0.04661 -0.0091,0.106821 0.06673,0.107667 0.05513,0.232 -0.02716,0.291315 -0.03984,0.02871 -0.07243,0.08475 -0.07243,0.12454 0,0.03979 -0.04327,0.109522 -0.09618,0.154973 -0.07615,0.06543 -0.139784,0.08264 -0.305689,0.08264 -0.115236,0 -0.219592,0.01629 -0.231901,0.03621 -0.01368,0.02213 -0.296132,0.03621 -0.726435,0.03621 -0.387229,0 -0.704053,0.01434 -0.704053,0.03187 0,0.01753 -0.602976,0.04393 -1.339949,0.05867 -0.736972,0.01474 -1.33995,0.04114 -1.33995,0.05867 0,0.01753 -0.309637,0.03187 -0.688083,0.03187 -0.434578,0 -0.688082,0.01335 -0.688082,0.03621 0,0.02213 -0.169003,0.03621 -0.434579,0.03621 -0.265575,0 -0.434577,-0.01408 -0.434577,-0.03621 0,-0.01992 -0.08963,-0.03621 -0.199182,-0.03621 -0.10955,0 -0.199182,-0.0144 -0.199182,-0.032 0,-0.0176 -0.105929,-0.04334 -0.235397,-0.0572 -0.129468,-0.01386 -0.235397,-0.04021 -0.235397,-0.05854 0,-0.01834 -0.04074,-0.03333 -0.09054,-0.03333 -0.04979,0 -0.09054,-0.01477 -0.09054,-0.03281 0,-0.01805 -0.08148,-0.04402 -0.181074,-0.05772 -0.09959,-0.01369 -0.181074,-0.03968 -0.181074,-0.05772 0,-0.01805 -0.195561,-0.03281 -0.434579,-0.03281 -0.239018,0 -0.434579,0.01477 -0.434579,0.03281 0,0.01805 -0.08148,0.04402 -0.181074,0.05772 -0.09959,0.01369 -0.181074,0.03967 -0.181074,0.05772 0,0.01805 -0.02444,0.03281 -0.05432,0.03281 -0.02988,0 -0.05433,0.01448 -0.05433,0.03219 0,0.0177 -0.05612,0.04271 -0.12471,0.05558 -0.07904,0.01483 -0.132984,0.04946 -0.1473,0.09457 -0.01243,0.03915 -0.05001,0.07159 -0.08353,0.0721 -0.07663,0.0012 -0.404976,0.332319 -0.404976,0.408434 0,0.0311 -0.03256,0.06688 -0.07234,0.07951 -0.03979,0.01263 -0.0823,0.06261 -0.09446,0.111085 -0.01217,0.04847 -0.03665,0.08813 -0.05441,0.08813 -0.01776,0 -0.03229,0.02444 -0.03229,0.05432 0,0.02988 -0.01448,0.05433 -0.03219,0.05433 -0.0177,0 -0.04364,0.06108 -0.05764,0.135724 -0.014,0.07464 -0.04356,0.146908 -0.06568,0.160579 -0.02463,0.01523 -0.04609,0.201246 -0.05537,0.47993 -0.0084,0.25029 -0.02948,0.455073 -0.047,0.455073 -0.01752,0 -0.03184,0.03939 -0.03184,0.08752 0,0.04813 -0.01613,0.09295 -0.03586,0.09959 -0.01972,0.0067 -0.04649,0.113926 -0.05949,0.238415 -0.013,0.124488 -0.0376,0.226343 -0.05467,0.226343 -0.01708,0 -0.03105,0.08149 -0.03105,0.181074 0,0.09959 -0.01473,0.181074 -0.03273,0.181074 -0.01801,0 -0.0444,0.171115 -0.05865,0.380256 -0.01425,0.209141 -0.03835,0.380256 -0.05355,0.380256 -0.0152,0 -0.03909,0.122226 -0.05308,0.271612 -0.014,0.149387 -0.04035,0.271611 -0.05858,0.271611 -0.01821,0 -0.03312,0.04889 -0.03312,0.108645 0,0.05976 -0.01438,0.108645 -0.03196,0.108645 -0.01758,0 -0.04341,0.122225 -0.05742,0.271611 -0.014,0.149386 -0.04035,0.271611 -0.05858,0.271611 -0.01821,0 -0.03312,0.04792 -0.03312,0.106508 0,0.05858 -0.01437,0.115391 -0.03194,0.126248 -0.01757,0.01085 -0.04371,0.129971 -0.05809,0.264696 -0.01438,0.134724 -0.04032,0.253799 -0.05764,0.264611 -0.01733,0.01082 -0.04242,0.13711 -0.05576,0.280665 -0.01335,0.143554 -0.03821,0.261007 -0.05527,0.261007 -0.01706,0 -0.03101,0.04889 -0.03101,0.108645 0,0.05975 -0.0144,0.108645 -0.032,0.108645 -0.0176,0 -0.04334,0.105929 -0.0572,0.235397 -0.01386,0.129468 -0.04021,0.235396 -0.05854,0.235396 -0.01833,0 -0.03333,0.06519 -0.03333,0.14486 0,0.07967 -0.0144,0.144859 -0.032,0.144859 -0.0176,0 -0.04334,0.105928 -0.0572,0.235397 -0.01386,0.129468 -0.03831,0.235397 -0.05433,0.235397 -0.01601,0 -0.04045,0.105927 -0.05433,0.235395 -0.01386,0.129469 -0.04021,0.235397 -0.05854,0.235397 -0.01833,0 -0.03333,0.05704 -0.03333,0.126753 0,0.06971 -0.01397,0.126751 -0.03105,0.126751 -0.01708,0 -0.04169,0.101855 -0.05468,0.226343 -0.01299,0.124489 -0.03976,0.231775 -0.05949,0.238415 -0.01972,0.0067 -0.03586,0.05864 -0.03586,0.115561 0,0.05692 -0.01402,0.112154 -0.03115,0.122745 -0.01714,0.0106 -0.04093,0.08896 -0.05287,0.174158 -0.03558,0.253797 -0.09817,0.350762 -0.241902,0.374771 -0.06971,0.01164 -0.148478,0.02805 -0.175033,0.03648 -0.0807,0.02559 -0.02622,0.100661 0.09602,0.132336 l 0.115234,0.02986 v 0.610743 c 0,0.523509 -0.0082,0.613882 -0.05728,0.632724 -0.08383,0.03217 -8.0965007,0.02185 -8.179194,-0.01053 z M 17.202751,17.357826 c 0,-0.02284 0.247469,-0.03621 0.669975,-0.03621 0.368486,0 0.669976,-0.01428 0.669976,-0.03175 0,-0.01746 0.611125,-0.04381 1.358057,-0.05855 0.746931,-0.01474 1.358057,-0.03898 1.358057,-0.05386 0,-0.01488 0.150745,-0.03588 0.334988,-0.04667 0.309539,-0.01813 0.533203,-0.07853 0.533887,-0.144163 1.44e-4,-0.01494 0.02618,-0.02716 0.05783,-0.02716 0.07823,0 0.370709,-0.306266 0.398598,-0.417387 0.01237,-0.04929 0.03703,-0.08962 0.05478,-0.08962 0.01776,0 0.03229,-0.03123 0.03229,-0.06941 0,-0.03817 0.0169,-0.07504 0.03756,-0.08193 0.02162,-0.0072 0.04699,-0.204464 0.05976,-0.464757 0.0122,-0.248729 0.03768,-0.462355 0.0566,-0.474724 0.05477,-0.03579 0.05587,-1.886997 0.0011,-1.905425 -0.02427,-0.0082 -0.0545,-0.07015 -0.06717,-0.137734 -0.01415,-0.07543 -0.04956,-0.131292 -0.09168,-0.144664 -0.03775,-0.01198 -0.06863,-0.04659 -0.06863,-0.07689 0,-0.06801 -0.295366,-0.360003 -0.396699,-0.392164 -0.04075,-0.01294 -0.07409,-0.03872 -0.07409,-0.05729 0,-0.01857 -0.02309,-0.03377 -0.05131,-0.03377 -0.02821,0 -0.05809,-0.02038 -0.06638,-0.04527 -0.02055,-0.0617 -4.572316,-0.08712 -4.646021,-0.02595 -0.02652,0.02201 -0.05871,0.08778 -0.07153,0.146156 -0.01282,0.05838 -0.03831,0.106142 -0.05665,0.106142 -0.01834,0 -0.03333,0.02445 -0.03333,0.05433 0,0.02988 -0.01549,0.05433 -0.03442,0.05433 -0.01893,0 -0.04548,0.09778 -0.059,0.217289 -0.01352,0.119509 -0.03878,0.21729 -0.05612,0.21729 -0.01735,0 -0.03154,0.105927 -0.03154,0.235396 0,0.132788 -0.01579,0.235397 -0.03621,0.235397 -0.02008,0 -0.03621,0.09586 -0.03621,0.215152 0,0.118333 0.01629,0.225223 0.03621,0.237533 0.01992,0.01231 0.03621,0.127349 0.03621,0.255642 0,0.128293 0.01442,0.233259 0.03204,0.233259 0.01762,0 0.04324,0.08963 0.05693,0.199182 0.01368,0.10955 0.04001,0.199182 0.0585,0.199182 0.01848,0 0.03361,0.04074 0.03361,0.09054 0,0.04979 0.015,0.09054 0.03333,0.09054 0.01833,0 0.04408,0.04889 0.0572,0.108645 0.01313,0.05975 0.03886,0.108644 0.0572,0.108644 0.01833,0 0.03333,0.0331 0.03333,0.07357 0,0.04046 0.02445,0.08295 0.05433,0.09441 0.02988,0.01146 0.05432,0.04355 0.05432,0.0713 0,0.02775 0.0152,0.05045 0.03377,0.05045 0.01857,0 0.04505,0.03552 0.05883,0.07896 0.01378,0.04342 0.130188,0.184082 0.258679,0.312573 0.255346,0.255346 0.274517,0.342053 0.10803,0.488617 -0.06896,0.06071 -0.115755,0.06685 -0.366253,0.04804 -0.157955,-0.01185 -0.296477,-0.03614 -0.307826,-0.05397 -0.01135,-0.01783 -0.08989,-0.04399 -0.174547,-0.05813 -0.08465,-0.01415 -0.153913,-0.04059 -0.153913,-0.05876 0,-0.01816 -0.02445,-0.03303 -0.05433,-0.03303 -0.02988,0 -0.05433,-0.01453 -0.05433,-0.03229 0,-0.01776 -0.04074,-0.04251 -0.09054,-0.05501 -0.0498,-0.0125 -0.09054,-0.03871 -0.09054,-0.05825 0,-0.01954 -0.01753,-0.03552 -0.03896,-0.03552 -0.05046,0 -0.540476,-0.490463 -0.540476,-0.540975 0,-0.02115 -0.01453,-0.03846 -0.03229,-0.03846 -0.01776,0 -0.04252,-0.04074 -0.05501,-0.09054 -0.0125,-0.04979 -0.03742,-0.09054 -0.05537,-0.09054 -0.01796,0 -0.04334,-0.0487 -0.05642,-0.108229 -0.01308,-0.05953 -0.03881,-0.117527 -0.0572,-0.12889 -0.01839,-0.01136 -0.03343,-0.05229 -0.03343,-0.09096 0,-0.03866 -0.01549,-0.07029 -0.03442,-0.07029 -0.01893,0 -0.04548,-0.09778 -0.059,-0.217289 -0.01352,-0.119509 -0.03878,-0.217289 -0.05612,-0.217289 -0.01735,0 -0.03154,-0.08963 -0.03154,-0.199182 0,-0.10955 -0.01396,-0.199182 -0.03103,-0.199182 -0.01707,0 -0.04252,-0.166699 -0.05655,-0.370443 -0.01403,-0.203743 -0.0383,-0.378932 -0.05393,-0.38931 -0.01563,-0.01038 -0.03871,-0.09592 -0.05129,-0.190095 -0.02078,-0.155486 -0.07953,-0.306941 -0.137294,-0.353887 -0.01225,-0.01 -0.03372,-0.05477 -0.04771,-0.09959 -0.01398,-0.04482 -0.04062,-0.08149 -0.05921,-0.08149 -0.01857,0 -0.03377,-0.0185 -0.03377,-0.04112 0,-0.02262 -0.03911,-0.07735 -0.0869,-0.121651 -0.04779,-0.0443 -0.09316,-0.111351 -0.100808,-0.149012 -0.01203,-0.05922 -0.04446,-0.06762 -0.239773,-0.06213 -0.21424,0.006 -0.441676,0.07173 -0.441676,0.127606 0,0.01415 -0.05648,0.03633 -0.125517,0.04928 -0.07778,0.01459 -0.133802,0.04965 -0.1473,0.09218 -0.01198,0.03775 -0.03632,0.06863 -0.05409,0.06863 -0.04486,0 -0.216314,0.189447 -0.216314,0.239008 0,0.02231 -0.03908,0.06991 -0.08684,0.105779 -0.05396,0.04051 -0.09526,0.117867 -0.109072,0.204254 -0.01223,0.07648 -0.03834,0.139042 -0.05802,0.139042 -0.01968,0 -0.03578,0.05704 -0.03578,0.126751 0,0.06971 -0.01629,0.126753 -0.03621,0.126753 -0.02264,0 -0.03621,0.217289 -0.03621,0.579437 0,0.36215 0.01358,0.579438 0.03621,0.579438 0.01992,0 0.03621,0.06519 0.03621,0.14486 0,0.07967 0.01421,0.144859 0.03159,0.144859 0.01737,0 0.04201,0.06519 0.05476,0.14486 0.01274,0.07967 0.03927,0.14486 0.05895,0.14486 0.01968,0 0.03578,0.0326 0.03578,0.07243 0,0.03984 0.015,0.07243 0.03333,0.07243 0.01834,0 0.04408,0.04889 0.0572,0.108645 0.01313,0.05976 0.0371,0.108645 0.05327,0.108645 0.01617,0 0.03964,0.04074 0.05213,0.09054 0.0125,0.04979 0.03871,0.09054 0.05825,0.09054 0.01954,0 0.03552,0.017 0.03552,0.03777 0,0.06157 0.599216,0.650313 0.661873,0.650313 0.03165,0 0.06762,0.03176 0.07994,0.07058 0.01232,0.03882 0.05823,0.08175 0.102032,0.09542 0.0438,0.01366 0.08778,0.03571 0.09774,0.04901 0.0252,0.03362 0.273887,0.147145 0.322353,0.147145 0.02189,0 0.0398,0.01513 0.0398,0.03361 0,0.01848 0.08963,0.04481 0.199182,0.0585 0.10955,0.01368 0.199182,0.03931 0.199182,0.05693 0,0.01763 0.05703,0.03204 0.126752,0.03204 0.06971,0 0.126752,0.01629 0.126752,0.03621 0,0.02284 0.247468,0.03621 0.669975,0.03621 0.422506,0 0.669975,-0.01337 0.669975,-0.03621 z"
   id="path198" /></svg>
