<?xml version="1.0" encoding="UTF-8" standalone="no"?>
<!-- Created with Inkscape (http://www.inkscape.org/) -->

<svg
   width="4.8383002mm"
   height="8.4668999mm"
   viewBox="0 0 4.8383002 8.4668997"
   version="1.1"
   id="svg5"
   xmlns="http://www.w3.org/2000/svg"
   xmlns:svg="http://www.w3.org/2000/svg">
  <defs
     id="defs2" />
  <g
     id="layer1"
     transform="translate(-101.52797,-141.50678)">
    <path
       style="fill:#ffffff;stroke-width:0.0154822;fill-opacity:1"
       d="m 103.98447,149.96568 -1.26954,0.008 -0.0559,-0.0111 -0.0559,-0.0111 -0.0602,-0.0354 -0.0602,-0.0354 -0.24934,-0.17101 -0.24934,-0.17102 -0.0216,-0.0325 -0.0216,-0.0325 -0.008,-0.39326 -0.008,-0.39326 -0.1456,-0.10217 -0.14561,-0.10217 -0.0324,-0.0437 -0.0324,-0.0437 -0.01,-0.94717 -0.01,-0.94717 -0.002,-1.3005 -0.002,-1.3005 0.0222,-0.0426 0.0222,-0.0426 h -0.0159 -0.0159 l 0.007,-0.0194 0.007,-0.0193 -0.0213,-0.0697 -0.0213,-0.0697 -4.4e-4,-0.93667 -4.3e-4,-0.93667 0.0244,-0.0689 0.0244,-0.0689 0.0267,-0.0294 0.0267,-0.0294 0.0387,-0.0199 0.0387,-0.0199 1.18439,-0.01 1.18438,-0.01 1.04867,-1.2e-4 1.04866,-1.1e-4 0.0465,0.0241 0.0466,0.0241 0.0225,0.0345 0.0225,0.0345 0.0147,0.0659 0.0147,0.0659 -0.01,0.006 -0.01,0.006 0.01,0.22213 0.01,0.22213 -0.008,0.1974 -0.008,0.1974 h 0.0179 0.0179 v 0.0851 0.0851 h -0.0163 -0.0163 l 0.003,0.4854 0.003,0.4854 -0.0159,0.0285 -0.016,0.0285 0.0212,0.0324 0.0212,0.0324 0.0107,2.23119 0.0107,2.2312 -0.0203,0.0491 -0.0204,0.0491 -0.11765,0.0783 -0.11765,0.0783 -0.0355,0.0368 -0.0355,0.0367 0.005,0.39135 0.005,0.39135 -0.0274,0.0421 -0.0274,0.042 -0.30237,0.20093 -0.30237,0.20092 -0.0573,0.0143 -0.0572,0.0143 z m -0.0271,-6.33733 2.26426,4.9e-4 v -0.91345 -0.91345 h -2.27698 -2.27698 l -0.0237,0.0237 -0.0237,0.0237 0.009,0.3905 0.009,0.3905 0.0385,0.0129 0.0385,0.0129 v 0.0675 0.0675 l -0.0426,0.0251 -0.0426,0.0251 0.004,0.37278 0.004,0.37278 0.027,0.0205 0.027,0.0205 2.26427,4.9e-4 z m -1.86173,-1.98123 h 0.44124 v -0.031 -0.031 h -0.39557 -0.39556 l -0.0457,0.0236 -0.0457,0.0236 v 0.007 0.007 z m 1.26433,-0.005 0.60634,-0.0103 h 0.56885 0.56886 l -0.008,-0.031 -0.008,-0.031 h -0.32851 -0.32851 l -0.83859,0.0103 -0.83858,0.0103 v 0.0309 0.0309 z m -0.72246,-0.0103 h 0.0542 v -0.0232 -0.0232 h -0.0542 -0.0542 v 0.0232 0.0232 z m 2.98363,-0.005 0.32681,-0.0102 0.14071,-5.5e-4 0.14071,-5.5e-4 -0.0387,-0.0221 -0.0387,-0.0221 -0.42008,-5.5e-4 -0.42008,-5.5e-4 -0.009,0.0334 -0.009,0.0334 z m -0.42133,-0.0102 h 0.0619 v -0.0232 -0.0232 h -0.0619 -0.0619 v 0.0232 0.0232 z"
       id="path2549" />
  </g>
</svg>
