<?xml version="1.0" encoding="UTF-8" standalone="no"?>
<svg
   xmlns:dc="http://purl.org/dc/elements/1.1/"
   xmlns:cc="http://creativecommons.org/ns#"
   xmlns:rdf="http://www.w3.org/1999/02/22-rdf-syntax-ns#"
   xmlns:svg="http://www.w3.org/2000/svg"
   xmlns="http://www.w3.org/2000/svg"
   xmlns:sodipodi="http://sodipodi.sourceforge.net/DTD/sodipodi-0.dtd"
   xmlns:inkscape="http://www.inkscape.org/namespaces/inkscape"
   version="1.1"
   x="0px"
   y="0px"
   width="96.583px"
   height="32px"
   viewBox="0 0 96.583 32"
   enable-background="new 0 0 96.583 32"
   xml:space="preserve"
   id="svg107"
   sodipodi:docname="holger26.svg"
   inkscape:version="1.0.2-2 (e86c870879, 2021-01-15)"><metadata
   id="metadata113"><rdf:RDF><cc:Work
       rdf:about=""><dc:format>image/svg+xml</dc:format><dc:type
         rdf:resource="http://purl.org/dc/dcmitype/StillImage" /></cc:Work></rdf:RDF></metadata><defs
   id="defs111" /><sodipodi:namedview
   pagecolor="#ffffff"
   bordercolor="#666666"
   borderopacity="1"
   objecttolerance="10"
   gridtolerance="10"
   guidetolerance="10"
   inkscape:pageopacity="0"
   inkscape:pageshadow="2"
   inkscape:window-width="1842"
   inkscape:window-height="1051"
   id="namedview109"
   showgrid="false"
   inkscape:zoom="12.579854"
   inkscape:cx="59.389298"
   inkscape:cy="27.222231"
   inkscape:window-x="-9"
   inkscape:window-y="-9"
   inkscape:window-maximized="1"
   inkscape:current-layer="svg107" />

<g
   id="guides">
</g>
<path
   style="fill:#ffffff;stroke-width:0.0794922"
   d="m 28.474403,27.818422 c -0.161066,-0.109302 -0.344915,-0.19873 -0.408555,-0.19873 -0.06364,0 -0.115744,-0.02683 -0.115789,-0.05962 -4.4e-5,-0.03279 -0.182499,-0.166933 -0.405455,-0.298095 -0.604902,-0.355856 -0.650759,-0.383955 -0.908075,-0.556445 -0.130443,-0.08744 -0.296281,-0.194756 -0.368531,-0.238477 -0.07225,-0.04372 -0.3534,-0.231521 -0.624781,-0.417334 -0.271381,-0.185813 -0.518423,-0.337842 -0.548981,-0.337842 -0.08869,0 -0.482767,-0.436913 -0.482767,-0.535244 0,-0.04913 0.04702,-0.136607 0.104494,-0.19438 0.05747,-0.05777 0.254824,-0.355444 0.438561,-0.661489 0.473508,-0.788705 0.509048,-0.845243 0.708747,-1.12746 0.09848,-0.139175 0.179057,-0.269723 0.179057,-0.290107 0,-0.03089 0.241892,-0.410673 0.641351,-1.006944 0.09266,-0.138308 0.204393,-0.331174 0.445856,-0.769588 0.09518,-0.172806 0.22932,-0.360894 0.298096,-0.417973 0.06878,-0.05708 0.125049,-0.140739 0.125049,-0.185909 0,-0.04517 0.08943,-0.199376 0.19873,-0.342678 0.109302,-0.143303 0.19873,-0.296152 0.19873,-0.339667 0,-0.04351 0.05323,-0.132348 0.118288,-0.197406 0.269794,-0.269795 0.597142,-0.995719 0.597142,-1.32422 0,-0.617042 -0.391437,-1.17 -1.020116,-1.441051 -0.277318,-0.119564 -0.544509,-0.1485 -1.37124,-0.1485 -0.973813,0 -1.026808,-0.0082 -1.026808,-0.158985 0,-0.155246 -0.05299,-0.158984 -2.254144,-0.158984 -2.65841,0 -3.980204,0.08745 -5.496343,0.363645 -0.61209,0.111503 -1.57792,0.287465 -2.146289,0.391026 -0.568369,0.103561 -1.498428,0.264352 -2.066797,0.357314 -1.831668,0.299586 -3.4899434,0.651647 -3.7925845,0.805186 -0.1622109,0.08229 -0.355578,0.149626 -0.4297037,0.149626 -0.074127,0 -0.252022,0.08943 -0.3953242,0.19873 -0.1433021,0.109302 -0.2986243,0.198731 -0.3451606,0.198731 -0.094971,0 -0.9049544,0.560575 -0.9461456,0.65481 -0.014574,0.03334 -0.064617,0.06062 -0.111208,0.06062 -0.159811,0 -1.1564673,1.136271 -1.5094802,1.720933 -0.075259,0.124644 -0.1721914,0.280283 -0.2154056,0.345864 -0.3107734,0.471624 -0.7714115,1.824013 -0.8735458,2.564648 -0.086602,0.628 -0.2853037,0.988249 -0.7058259,1.279672 -0.3000196,0.207913 -0.3155789,0.209781 -1.7473422,0.209781 -1.43382873,0 -1.44555366,-0.0014 -1.56860071,-0.189208 C 0.55268639,25.384063 0.49856449,24.964208 0.44112726,23.952701 0.3980045,23.193282 0.3280819,22.089023 0.28574369,21.498794 c -0.0992799,-1.384043 -0.0981713,-5.195209 0.001942,-6.677344 0.0428213,-0.63395 0.11220207,-1.726804 0.1541794,-2.428566 0.0419773,-0.701761 0.0965077,-1.328532 0.12117864,-1.392823 0.0922424,-0.24038 0.40157248,-0.343098 1.13480377,-0.376831 0.526758,-0.02423 0.7353027,-0.0075 0.7353027,0.05896 0,0.07026 1.7900404,0.08582 7.3728998,0.06409 6.580024,-0.02561 7.432736,-0.04312 7.929316,-0.162796 0.306028,-0.07375 0.648534,-0.134096 0.761125,-0.134096 0.112591,0 0.467641,-0.08943 0.789002,-0.19873 0.32136,-0.109302 0.660301,-0.19873 0.7532,-0.19873 0.0929,0 0.202892,-0.03295 0.244427,-0.07323 0.04153,-0.04027 0.301464,-0.14877 0.577622,-0.2411 0.276158,-0.09233 0.56233,-0.200323 0.635938,-0.239986 0.07361,-0.03966 0.43789,-0.219644 0.809516,-0.399958 0.371626,-0.180315 0.797809,-0.403804 0.947076,-0.496643 0.370296,-0.230314 1.523022,-0.303428 1.717513,-0.108937 0.187372,0.187372 0.276276,0.158832 0.279149,-0.08961 0.003,-0.262922 0.165031,-0.496826 0.344077,-0.496826 0.088,0 0.130348,-0.06842 0.130348,-0.210574 0,-0.136192 0.09828,-0.306018 0.278223,-0.480779 0.276134,-0.268177 0.278223,-0.275424 0.278223,-0.964925 v -0.694725 l 0.380318,-0.374599 c 0.343311,-0.338149 0.416257,-0.3746 0.749647,-0.3746 0.318268,0 0.372841,-0.02387 0.39473,-0.172631 0.03663,-0.248921 0.224133,-0.283339 0.224133,-0.04114 0,0.190559 0.02034,0.197861 0.627836,0.225449 0.456001,0.02071 0.669841,0.06653 0.781308,0.167402 0.08441,0.07639 0.213255,0.138889 0.286324,0.138889 0.07307,0 0.132852,0.02764 0.132852,0.06142 0,0.03378 0.134143,0.132108 0.298095,0.218509 0.163953,0.0864 0.419346,0.237622 0.567539,0.336046 0.222204,0.147578 0.378989,0.178952 0.894287,0.178952 0.571849,0 0.624844,0.01348 0.624844,0.158984 0,0.132487 0.05299,0.158985 0.317969,0.158985 0.264974,0 0.317969,-0.0265 0.317969,-0.158985 0,-0.116588 0.053,-0.158984 0.19873,-0.158984 0.145736,0 0.198731,0.0424 0.198731,0.158984 0,0.132487 0.053,0.158985 0.317968,0.158985 0.264974,0 0.317969,-0.0265 0.317969,-0.158985 0,-0.123654 0.05299,-0.158984 0.238477,-0.158984 0.185481,0 0.238476,0.03533 0.238476,0.158984 0,0.128702 0.053,0.158985 0.278223,0.158985 0.225227,0 0.278222,-0.03028 0.278222,-0.158985 0,-0.123654 0.05299,-0.158984 0.238477,-0.158984 0.185481,0 0.238476,0.03533 0.238476,0.158984 0,0.128702 0.053,0.158985 0.278223,0.158985 0.225228,0 0.278223,-0.03028 0.278223,-0.158985 0,-0.123654 0.053,-0.158984 0.238476,-0.158984 0.185482,0 0.238477,0.03533 0.238477,0.158984 0,0.132487 0.053,0.158985 0.317969,0.158985 0.264973,0 0.317968,-0.0265 0.317968,-0.158985 0,-0.123654 0.053,-0.158984 0.238477,-0.158984 0.185481,0 0.238476,0.03533 0.238476,0.158984 0,0.128702 0.053,0.158985 0.278223,0.158985 0.225228,0 0.278223,-0.03028 0.278223,-0.158985 0,-0.226967 0.440632,-0.226967 0.499986,0 0.05983,0.228781 0.533412,0.228781 0.533412,0 0,-0.128701 0.053,-0.158984 0.278223,-0.158984 0.225227,0 0.278222,0.03028 0.278222,0.158984 0,0.123655 0.05299,0.158985 0.238477,0.158985 0.185481,0 0.238476,-0.03533 0.238476,-0.158985 0,-0.128701 0.05299,-0.158984 0.278223,-0.158984 0.225228,0 0.278223,0.03028 0.278223,0.158984 0,0.128702 0.053,0.158985 0.278222,0.158985 0.225228,0 0.278223,-0.03028 0.278223,-0.158985 0,-0.123654 0.05299,-0.158984 0.238476,-0.158984 0.185482,0 0.238477,0.03533 0.238477,0.158984 0,0.128702 0.05299,0.158985 0.278223,0.158985 0.225227,0 0.278222,-0.03028 0.278222,-0.158985 0,-0.123654 0.053,-0.158984 0.238477,-0.158984 0.185481,0 0.238476,0.03533 0.238476,0.158984 0,0.128702 0.05299,0.158985 0.278223,0.158985 0.225228,0 0.278223,-0.03028 0.278223,-0.158985 0,-0.128701 0.05299,-0.158984 0.278222,-0.158984 0.225228,0 0.278223,0.03028 0.278223,0.158984 0,0.123655 0.053,0.158985 0.238476,0.158985 0.185482,0 0.238477,-0.03533 0.238477,-0.158985 0,-0.128701 0.053,-0.158984 0.278223,-0.158984 0.225227,0 0.278222,0.03028 0.278222,0.158984 0,0.128702 0.053,0.158985 0.278223,0.158985 0.225227,0 0.278222,-0.03028 0.278222,-0.158985 0,-0.123654 0.053,-0.158984 0.238477,-0.158984 0.185482,0 0.238477,0.03533 0.238477,0.158984 0,0.132487 0.053,0.158985 0.317968,0.158985 0.264974,0 0.317969,-0.0265 0.317969,-0.158985 0,-0.116588 0.053,-0.158984 0.19873,-0.158984 0.145736,0 0.198731,0.0424 0.198731,0.158984 0,0.132487 0.053,0.158985 0.317969,0.158985 0.264973,0 0.317968,-0.0265 0.317968,-0.158985 0,-0.123654 0.053,-0.158984 0.238477,-0.158984 0.185481,0 0.238476,0.03533 0.238476,0.158984 0,0.128702 0.053,0.158985 0.278223,0.158985 0.225228,0 0.278223,-0.03028 0.278223,-0.158985 0,-0.123654 0.053,-0.158984 0.238476,-0.158984 0.185482,0 0.238477,0.03533 0.238477,0.158984 0,0.128702 0.05299,0.158985 0.278222,0.158985 0.225228,0 0.278223,-0.03028 0.278223,-0.158985 0,-0.123654 0.053,-0.158984 0.238477,-0.158984 0.185481,0 0.238476,0.03533 0.238476,0.158984 0,0.132487 0.053,0.158985 0.317969,0.158985 0.264974,0 0.317969,-0.0265 0.317969,-0.158985 0,-0.116588 0.05299,-0.158984 0.19873,-0.158984 0.145735,0 0.198731,0.0424 0.198731,0.158984 0,0.132487 0.05299,0.158985 0.317968,0.158985 0.264974,0 0.317969,-0.0265 0.317969,-0.158985 0,-0.123654 0.053,-0.158984 0.238477,-0.158984 0.185481,0 0.238476,0.03533 0.238476,0.158984 0,0.128702 0.05299,0.158985 0.278223,0.158985 0.225227,0 0.278222,-0.03028 0.278222,-0.158985 0,-0.128701 0.053,-0.158984 0.278223,-0.158984 0.225228,0 0.278223,0.03028 0.278223,0.158984 0,0.123655 0.053,0.158985 0.238476,0.158985 0.185482,0 0.238477,-0.03533 0.238477,-0.158985 0,-0.128701 0.05299,-0.158984 0.278222,-0.158984 0.225228,0 0.278223,0.03028 0.278223,0.158984 0,0.128702 0.053,0.158985 0.278223,0.158985 0.225227,0 0.278222,-0.03028 0.278222,-0.158985 0,-0.123654 0.05299,-0.158984 0.238477,-0.158984 0.185481,0 0.238476,0.03533 0.238476,0.158984 0,0.128702 0.053,0.158985 0.278223,0.158985 0.225228,0 0.278223,-0.03028 0.278223,-0.158985 0,-0.123654 0.053,-0.158984 0.238476,-0.158984 0.185482,0 0.238477,0.03533 0.238477,0.158984 0,0.128702 0.053,0.158985 0.278222,0.158985 0.225228,0 0.278223,-0.03028 0.278223,-0.158985 0,-0.128701 0.05299,-0.158984 0.278223,-0.158984 0.225227,0 0.278222,0.03028 0.278222,0.158984 0,0.123655 0.053,0.158985 0.238477,0.158985 0.185481,0 0.238476,-0.03533 0.238476,-0.158985 0,-0.128701 0.05299,-0.158984 0.278223,-0.158984 0.225228,0 0.278223,0.03028 0.278223,0.158984 0,0.124724 0.05299,0.158985 0.245918,0.158985 0.179066,0 0.257221,-0.04322 0.287494,-0.158985 0.02945,-0.112613 0.108429,-0.158984 0.270781,-0.158984 0.17621,0 0.229205,0.03676 0.229205,0.158984 0,0.123655 0.053,0.158985 0.238476,0.158985 h 0.238477 v -0.779023 c 0,-0.499918 0.03418,-0.8132 0.09539,-0.874414 0.05246,-0.05246 0.266269,-0.09539 0.47512,-0.09539 0.46398,0 0.571342,0.130935 0.718851,0.876692 l 0.101751,0.514421 0.357715,0.04186 c 0.328922,0.03849 0.432895,0.115424 1.291748,0.955781 0.931726,0.911662 0.934033,0.914847 0.934033,1.289632 0,0.364463 0.0071,0.375712 0.238477,0.375712 0.20138,0 0.238476,-0.03091 0.238476,-0.19873 0,-0.174126 0.03445,-0.198731 0.278223,-0.198731 0.243776,0 0.278222,0.02461 0.278222,0.198731 0,0.166768 0.03747,0.19873 0.232948,0.19873 0.181054,0 0.238606,-0.03984 0.25835,-0.178857 0.01947,-0.137085 0.08574,-0.184675 0.283751,-0.203767 0.232156,-0.02238 0.25835,-0.0038 0.25835,0.183656 0,0.1924 0.0231,0.206653 0.298095,0.183894 0.239448,-0.01982 0.303094,-0.05986 0.323498,-0.203529 0.03854,-0.271359 0.411805,-0.253346 0.411805,0.01987 0,0.178857 0.0318,0.19873 0.317969,0.19873 0.286172,0 0.317969,-0.01987 0.317969,-0.19873 0,-0.167817 0.0371,-0.198731 0.238476,-0.198731 0.20138,0 0.238477,0.03091 0.238477,0.198731 0,0.174125 0.03445,0.19873 0.278222,0.19873 0.243777,0 0.278223,-0.02461 0.278223,-0.19873 0,-0.167817 0.0371,-0.198731 0.238476,-0.198731 0.20138,0 0.238477,0.03091 0.238477,0.198731 0,0.174125 0.03445,0.19873 0.278223,0.19873 0.243776,0 0.278222,-0.02461 0.278222,-0.19873 0,-0.167817 0.0371,-0.198731 0.238477,-0.198731 0.20138,0 0.238476,0.03091 0.238476,0.198731 0,0.174125 0.03445,0.19873 0.278223,0.19873 0.243776,0 0.278223,-0.02461 0.278223,-0.19873 0,-0.167817 0.0371,-0.198731 0.238476,-0.198731 0.20138,0 0.238477,0.03091 0.238477,0.198731 0,0.178857 0.0318,0.19873 0.317968,0.19873 0.286172,0 0.317969,-0.01987 0.317969,-0.19873 0,-0.167817 0.0371,-0.198731 0.238477,-0.198731 0.20138,0 0.238476,0.03091 0.238476,0.198731 0,0.174125 0.03445,0.19873 0.278223,0.19873 0.243776,0 0.278223,-0.02461 0.278223,-0.19873 0,-0.167817 0.0371,-0.198731 0.238476,-0.198731 0.20138,0 0.238477,0.03091 0.238477,0.198731 0,0.174125 0.03445,0.19873 0.278222,0.19873 0.243777,0 0.278223,-0.02461 0.278223,-0.19873 0,-0.167817 0.0371,-0.198731 0.238476,-0.198731 0.20138,0 0.238477,0.03091 0.238477,0.198731 0,0.174125 0.03445,0.19873 0.278223,0.19873 0.24561,0 0.278222,-0.02388 0.278222,-0.203767 0,-0.182006 0.02759,-0.201107 0.25835,-0.178857 0.198011,0.01909 0.264282,0.06668 0.283751,0.203767 0.0207,0.145786 0.07582,0.178857 0.298096,0.178857 0.239761,0 0.272694,-0.02464 0.272694,-0.20401 0,-0.17566 0.03038,-0.200516 0.218603,-0.178858 0.156521,0.01801 0.225818,0.07595 0.244006,0.204011 0.02071,0.145786 0.07582,0.178857 0.298095,0.178857 0.239676,0 0.272694,-0.02467 0.272694,-0.203767 0,-0.182006 0.02759,-0.201107 0.25835,-0.178857 0.198011,0.01909 0.264282,0.06668 0.283751,0.203767 0.01974,0.139013 0.0773,0.178857 0.25835,0.178857 0.195483,0 0.232948,-0.03196 0.232948,-0.19873 0,-0.174126 0.03445,-0.198731 0.278222,-0.198731 0.243776,0 0.278223,0.02461 0.278223,0.198731 0,0.167816 0.0371,0.19873 0.238476,0.19873 0.20138,0 0.238477,-0.03091 0.238477,-0.19873 0,-0.174126 0.03445,-0.198731 0.278223,-0.198731 0.243778,0 0.278222,0.02461 0.278222,0.198731 0,0.174125 0.03444,0.19873 0.278223,0.19873 0.243778,0 0.278222,-0.02461 0.278222,-0.19873 0,-0.167817 0.0371,-0.198731 0.238477,-0.198731 0.201377,0 0.238476,0.03091 0.238476,0.198731 0,0.173358 0.03482,0.19873 0.27269,0.19873 0.222277,0 0.277396,-0.03307 0.298096,-0.178857 0.01948,-0.137085 0.08575,-0.184675 0.283755,-0.203767 0.230758,-0.02225 0.25835,-0.0031 0.25835,0.178857 0,0.179882 0.03262,0.203767 0.278223,0.203767 0.243778,0 0.278222,-0.02461 0.278222,-0.19873 0,-0.167817 0.0371,-0.198731 0.238477,-0.198731 0.201377,0 0.238476,0.03091 0.238476,0.198731 0,0.174125 0.03444,0.19873 0.278223,0.19873 0.243779,0 0.278223,-0.02461 0.278223,-0.19873 v -0.198731 h 1.261405 1.261414 l 0.04147,0.309233 c 0.03002,0.223831 0.131202,0.398954 0.366356,0.634105 0.178674,0.17868 0.380457,0.441954 0.448399,0.585054 0.06794,0.1431 0.230504,0.4569249 0.361245,0.6973889 0.13074,0.240464 0.388979,0.723379 0.573854,1.073145 l 0.336148,0.635937 0.668871,0.0233 c 0.476421,0.01659 0.686845,-0.0058 0.73132,-0.07774 0.04878,-0.07893 0.754341,-0.10142 3.225102,-0.102791 3.064129,-0.0017 3.163582,0.003 3.192318,0.151976 0.01631,0.08455 -0.03338,0.199824 -0.11043,0.256162 -0.128372,0.09387 -0.129096,0.106649 -0.0086,0.15287 0.103046,0.03954 0.13144,0.158806 0.13144,0.552009 0,0.32883 -0.03422,0.514117 -0.09937,0.538004 -0.07949,0.02915 -0.07949,0.0575 0,0.141761 0.05465,0.05793 0.09937,0.163928 0.09937,0.235552 0,0.114236 -0.153714,0.132805 -1.252002,0.151241 -2.47886,0.04161 -5.186865,-0.0432 -5.186865,-0.162448 0,-0.03923 -0.2504,-0.07132 -0.556445,-0.07132 h -0.556445 v 0.834668 c 0,0.688933 -0.02082,0.834668 -0.119238,0.834668 -0.06558,0 -0.119239,0.06517 -0.119239,0.144824 0,0.07965 -0.05702,0.312167 -0.12671,0.516699 l -0.126711,0.371875 H 87.05365 c -0.937038,0 -1.144696,-0.02094 -1.182415,-0.119238 -0.03021,-0.0787 -0.1547,-0.119238 -0.36622,-0.119238 -0.231863,0 -0.320465,0.03297 -0.320465,0.119238 0,0.07419 -0.07507,0.119238 -0.198731,0.119238 -0.123658,0 -0.19873,-0.04504 -0.19873,-0.119238 0,-0.08612 -0.08832,-0.119238 -0.317969,-0.119238 -0.229645,0 -0.317968,0.03312 -0.317968,0.119238 0,0.07459 -0.07535,0.119238 -0.201227,0.119238 -0.110669,0 -0.221815,-0.05366 -0.246982,-0.119238 -0.02823,-0.07357 -0.149056,-0.119238 -0.315473,-0.119238 -0.186751,0 -0.269717,0.03668 -0.269717,0.119238 0,0.07949 -0.07949,0.119238 -0.238476,0.119238 -0.158985,0 -0.238477,-0.03975 -0.238477,-0.119238 0,-0.08328 -0.08391,-0.119238 -0.278223,-0.119238 -0.19431,0 -0.278222,0.03596 -0.278222,0.119238 0,0.07949 -0.07949,0.119238 -0.238477,0.119238 -0.158984,0 -0.238476,-0.03975 -0.238476,-0.119238 0,-0.08612 -0.08832,-0.119238 -0.317969,-0.119238 -0.229645,0 -0.317969,0.03312 -0.317969,0.119238 0,0.07419 -0.07507,0.119238 -0.19873,0.119238 -0.123658,0 -0.198731,-0.04504 -0.198731,-0.119238 0,-0.08612 -0.08832,-0.119238 -0.317968,-0.119238 -0.229645,0 -0.317969,0.03312 -0.317969,0.119238 0,0.07949 -0.07949,0.119238 -0.238477,0.119238 -0.158984,0 -0.238476,-0.03975 -0.238476,-0.119238 0,-0.163914 -0.522292,-0.163914 -0.585192,0 -0.06078,0.158379 -0.448206,0.158379 -0.448206,0 0,-0.163914 -0.522292,-0.163914 -0.585193,0 -0.06077,0.158379 -0.448206,0.158379 -0.448206,0 0,-0.08612 -0.08832,-0.119238 -0.317969,-0.119238 -0.229644,0 -0.317968,0.03312 -0.317968,0.119238 0,0.07419 -0.07508,0.119238 -0.198731,0.119238 -0.123655,0 -0.19873,-0.04504 -0.19873,-0.119238 0,-0.166344 -0.600852,-0.166344 -0.664684,0 -0.06078,0.158379 -0.448207,0.158379 -0.448207,0 0,-0.08348 -0.08419,-0.119238 -0.280717,-0.119238 -0.176196,0 -0.297754,0.0444 -0.326473,0.119238 -0.02517,0.06558 -0.131358,0.119238 -0.235983,0.119238 -0.116094,0 -0.190225,-0.04647 -0.190225,-0.119238 0,-0.08348 -0.08419,-0.119238 -0.280717,-0.119238 -0.176196,0 -0.297755,0.0444 -0.326474,0.119238 -0.05934,0.154636 -0.395615,0.154636 -0.454954,0 -0.06062,-0.157964 -0.517828,-0.157964 -0.578444,0 -0.05934,0.154636 -0.395615,0.154636 -0.454955,0 -0.06195,-0.16145 -0.595982,-0.16145 -0.657936,0 -0.06053,0.157735 -0.426207,0.157735 -0.426207,0 0,-0.08348 -0.08419,-0.119238 -0.280717,-0.119238 -0.176196,0 -0.297755,0.0444 -0.326474,0.119238 -0.05934,0.154636 -0.395615,0.154636 -0.454954,0 -0.06319,-0.164659 -0.607191,-0.164659 -0.607191,0 0,0.158379 -0.387432,0.158379 -0.448206,0 -0.0629,-0.163914 -0.585193,-0.163914 -0.585193,0 0,0.07949 -0.07949,0.119238 -0.238476,0.119238 -0.158984,0 -0.238477,-0.03975 -0.238477,-0.119238 0,-0.08612 -0.08832,-0.119238 -0.317968,-0.119238 -0.229644,0 -0.317969,0.03312 -0.317969,0.119238 0,0.155614 -0.309,0.155614 -0.368714,0 -0.06383,-0.166344 -0.664684,-0.166344 -0.664684,0 0,0.07459 -0.07535,0.119238 -0.201225,0.119238 -0.110675,0 -0.221816,-0.05366 -0.246982,-0.119238 -0.06352,-0.165536 -0.585192,-0.163691 -0.585192,0.0021 0,0.104384 -0.168274,0.118247 -1.206141,0.09936 l -1.206141,-0.02194 -0.119977,-0.505871 -0.119976,-0.505872 -3.765141,0.03031 c -3.016742,0.02428 -3.778093,0.05127 -3.830303,0.135742 -0.04972,0.08045 -0.192759,0.09177 -0.603585,0.04777 -0.429958,-0.04604 -0.525665,-0.03702 -0.475094,0.04481 0.04767,0.07713 0.01602,0.08981 -0.127959,0.05129 -0.105208,-0.02815 -0.236002,-0.05167 -0.290653,-0.05227 -0.05465,-6.36e-4 -0.09936,-0.05474 -0.09936,-0.120324 0,-0.09987 -0.167816,-0.119238 -1.033398,-0.119238 -0.568369,0 -1.033398,0.03216 -1.033398,0.07147 0,0.03931 -0.141946,0.145453 -0.315437,0.235881 -0.714,0.372158 -1.047569,0.629633 -1.890471,1.459218 l -0.496827,0.488976 -0.0019,3.224427 c -0.0012,1.924275 -0.035,3.367875 -0.08392,3.580185 -0.08539,0.370565 -0.208498,0.514238 -0.348679,0.406914 -0.04519,-0.03459 -0.368331,-0.05938 -0.718096,-0.05507 l -0.635938,0.0078 -0.03975,0.274874 c -0.04611,0.318887 -0.184895,0.380498 -0.885016,0.392886 -0.38458,0.0068 -0.453678,-0.01452 -0.489384,-0.151061 -0.04062,-0.155331 -0.108428,-0.158984 -2.950482,-0.158984 -2.630266,-2e-6 -2.908902,0.01235 -2.908902,0.12897 0,0.105629 -0.02158,0.111061 -0.119239,0.03001 -0.100022,-0.08301 -0.119238,-0.41125 -0.119238,-2.036784 v -1.937824 h -3.056438 -3.056354 l -0.199548,-0.184936 c -0.109752,-0.101715 -0.239574,-0.289515 -0.288493,-0.417334 l -0.08894,-0.232398 -0.153817,0.188909 c -0.0846,0.1039 -0.176973,0.282758 -0.205273,0.397461 -0.0283,0.114703 -0.135161,0.341984 -0.237469,0.505068 -0.102307,0.163083 -0.186013,0.336669 -0.186013,0.385745 0,0.04908 -0.0851,0.255473 -0.189117,0.45866 -0.200753,0.392163 -0.527807,1.090698 -0.787067,1.681051 -0.0864,0.196743 -0.241936,0.523958 -0.345631,0.727145 -0.103695,0.203187 -0.188536,0.409584 -0.188536,0.45866 0,0.04908 -0.08943,0.230894 -0.198731,0.404039 -0.109302,0.173145 -0.19873,0.369888 -0.19873,0.437207 0,0.06732 -0.08943,0.264062 -0.198731,0.437207 -0.109301,0.173145 -0.19873,0.354962 -0.19873,0.404038 0,0.18735 -0.443142,0.867678 -0.565225,0.867755 -0.07041,4.5e-5 -0.2598,-0.08935 -0.420864,-0.198649 z M 2.0777883,24.754166 c 0.028315,-0.04581 0.03247,-0.132842 0.00923,-0.193395 -0.034101,-0.08886 -0.081328,-0.09196 -0.2449004,-0.01607 -0.111459,0.05172 -0.2029316,0.138744 -0.2032727,0.193395 -7.473e-4,0.120098 0.3663399,0.133535 0.4389394,0.01607 z M 1.535079,24.344918 c 0.1441737,-0.139738 0.262134,-0.303274 0.262134,-0.363412 0,-0.138423 -0.7214457,-0.891866 -0.85454094,-0.892439 -0.0546509,-2.39e-4 -0.10319534,0.04428 -0.10787659,0.09893 -0.0202963,0.236948 0.0273148,1.297156 0.0606862,1.351368 0.0843701,0.137058 0.39500203,0.04262 0.63959733,-0.194452 z m 2.2016758,-0.08875 c 0.071046,-0.116984 0.052472,-0.172847 -0.09873,-0.296942 -0.2520709,-0.20688 -0.4894445,-0.08557 -0.4894445,0.250136 0,0.222274 0.019178,0.238808 0.2503329,0.215807 0.1376831,-0.0137 0.2897119,-0.08975 0.3378416,-0.169001 z m -1.6587795,-0.84156 c -0.050826,-0.16014 -0.275058,-0.225686 -0.3874789,-0.113265 -0.029547,0.02955 0.024829,0.137336 0.1208352,0.23953 0.1967611,0.209442 0.3501411,0.136812 0.2666437,-0.126265 z m -0.042286,-0.540406 c 0.064388,-0.06041 0.045418,-0.720551 -0.022662,-0.78863 -0.034325,-0.03432 -0.2272402,0.102423 -0.4287013,0.303884 -0.4636878,0.463688 -0.4382512,0.662438 0.073951,0.57782 0.1857168,-0.03068 0.3555525,-0.07257 0.3774129,-0.09307 z M 1.6157906,21.808956 C 2.1921919,21.229525 2.2446127,20.654967 1.7391899,20.45644 1.6180802,20.408869 1.3632794,20.300671 1.1729658,20.215999 0.62877115,19.973882 0.57709036,20.064186 0.64572135,21.137278 c 0.030892,0.483019 0.0923665,0.922929 0.13660981,0.97758 0.16086149,0.198702 0.42962024,0.10006 0.83345944,-0.305902 z M 39.083532,20.922475 c 0.130586,-0.156534 0.149539,-0.322989 0.151853,-1.333679 0.003,-1.308956 -0.04386,-1.44737 -0.53627,-1.584126 -0.162665,-0.04518 -0.824943,-0.08234 -1.471731,-0.08258 -1.379625,-5.56e-4 -1.450095,0.03329 -1.722993,0.826796 -0.200798,0.583855 -0.201659,0.779909 -0.0059,1.348806 0.08555,0.248658 0.135382,0.504659 0.110735,0.568889 -0.06902,0.179863 -0.328073,0.138818 -0.391776,-0.06207 -0.03119,-0.09837 -0.139762,-0.310457 -0.241262,-0.4713 -0.161707,-0.256251 -0.187323,-0.408734 -0.20699,-1.232129 l -0.02244,-0.939686 -0.337842,-0.02444 c -0.185813,-0.01344 -0.337842,0.0095 -0.337842,0.051 0,0.04149 -0.08943,0.09789 -0.19873,0.125324 -0.109302,0.02743 -0.198731,0.0794 -0.198731,0.115491 0,0.03609 -0.08938,0.169549 -0.198633,0.296582 -0.109248,0.127032 -0.198677,0.275663 -0.19873,0.330291 -5.4e-5,0.05463 -0.09615,0.287143 -0.213555,0.516699 -0.478787,0.936176 -0.454144,0.836614 -0.296939,1.1997 0.07872,0.181812 0.176484,0.375281 0.217256,0.429932 0.05697,0.07636 0.754384,0.09937 3.012739,0.09937 h 2.938608 z M 4.7352544,19.714038 c 0.1631647,-0.196601 0.06728,-0.401279 -0.1879862,-0.401279 -0.2850358,0 -0.4414859,0.209868 -0.2913276,0.390798 0.1305536,0.157307 0.3534148,0.16218 0.4793138,0.01048 z m -2.7725556,-0.04357 c 0.04234,0 0.072991,-0.817829 0.072991,-1.947558 0,-1.65509 -0.017441,-1.947558 -0.1161417,-1.947558 -0.2293128,0 -0.4324817,0.342723 -0.5598229,0.944358 -0.070515,0.333156 -0.2155567,0.968399 -0.322314,1.411649 -0.22056599,0.915779 -0.23802736,1.165221 -0.0901581,1.287941 0.1537767,0.127624 0.7145756,0.316264 0.8365885,0.28141 0.058227,-0.01663 0.1387126,-0.03024 0.1788574,-0.03024 z M 6.35535,18.918603 c 0.2390475,-0.181135 0.1029314,-0.440517 -0.2311699,-0.440517 -0.248457,0 -0.2728658,0.02074 -0.2728658,0.231852 0,0.315727 0.2345795,0.41284 0.5040357,0.208665 z M 5.732076,16.971076 c 0.7990262,-0.09878 1.1117756,-0.278415 0.9419312,-0.541014 -0.1108586,-0.1714 -0.4601983,-0.161929 -1.6176148,0.04385 -0.8595902,0.15283 -0.9653001,0.221813 -0.8400539,0.5482 0.051156,0.133311 0.014649,0.13454 1.5157375,-0.05104 z m -4.88876917,0.04283 c 0,-0.01833 0.0569538,-0.255638 0.12656396,-0.527354 0.13456511,-0.525258 0.097873,-0.627652 -0.22592918,-0.630486 -0.12022972,-0.0011 -0.13911132,0.0797 -0.13911132,0.594974 0,0.476953 0.0238477,0.596191 0.11923827,0.596191 0.0655811,0 0.11923827,-0.015 0.11923827,-0.03333 z M 8.7095097,16.642199 c 0.1564621,-0.08794 0.368447,-0.282432 0.4710778,-0.432211 0.1026308,-0.14978 0.2540451,-0.350091 0.3364761,-0.445135 0.082432,-0.09504 0.1498754,-0.21801 0.1498754,-0.273258 0,-0.05525 0.030425,-0.112374 0.067611,-0.126948 0.057633,-0.02259 0.302365,-0.365717 0.608072,-0.852555 0.04372,-0.06962 0.159978,-0.22799 0.25835,-0.351923 0.124902,-0.157356 0.178857,-0.331995 0.178857,-0.578914 0,-0.306405 -0.02721,-0.363927 -0.203905,-0.431108 -0.116435,-0.04427 -1.2522659,-0.07752 -2.6477948,-0.07752 -2.6704355,0 -2.7441748,0.01204 -2.7612662,0.450673 -0.019686,0.505215 -0.1175535,0.712333 -0.3817325,0.807861 -0.1411988,0.05106 -0.3663285,0.09283 -0.5002884,0.09283 -0.1711556,0 -0.2817291,0.05825 -0.3719441,0.195933 -0.2165511,0.330499 -0.1371273,0.987798 0.1418692,1.17409 0.048106,0.03212 0.617446,0.05895 1.2652005,0.05962 0.7216374,7.15e-4 1.2449774,0.03618 1.3513671,0.09149 0.095497,0.04965 0.3811482,0.286447 0.6347797,0.526208 0.4437937,0.419526 0.4735253,0.433952 0.7900333,0.38334 0.1808869,-0.02892 0.4568996,-0.124538 0.6133617,-0.212475 z m 6.4821353,-1.057794 c 0.61209,-0.112194 1.302962,-0.226112 1.535271,-0.253149 0.530308,-0.06172 0.858179,-0.311156 0.782816,-0.595547 -0.02805,-0.105865 -0.350696,-0.514425 -0.716982,-0.907911 l -0.665976,-0.715429 h -1.409133 -1.409132 l -0.196941,0.238476 c -0.108318,0.131162 -0.289376,0.380766 -0.402351,0.554676 -0.112976,0.173909 -0.253476,0.364265 -0.312223,0.423012 -0.05875,0.05875 -0.106813,0.141525 -0.106813,0.18395 0,0.04243 -0.0626,0.144824 -0.139112,0.22755 -0.07651,0.08273 -0.226706,0.311756 -0.333767,0.508955 -0.173517,0.319609 -0.183,0.380321 -0.08733,0.559081 0.176191,0.329217 0.421697,0.356437 1.433591,0.158946 0.503356,-0.09824 1.415993,-0.270414 2.028082,-0.38261 z m 51.932242,0.254545 c 0.275097,-0.275096 0.134549,-0.30207 -1.573945,-0.30207 -1.316716,0 -1.669336,0.02183 -1.669336,0.10334 0,0.261778 0.183567,0.294121 1.669336,0.294121 1.043997,0 1.506591,-0.02804 1.573945,-0.09539 z m 12.527261,-0.08812 c 0.0697,-0.113669 0.05902,-0.165431 -0.05096,-0.24724 -0.07651,-0.05691 -0.139111,-0.197901 -0.139111,-0.313313 0,-0.191819 -0.02731,-0.20984 -0.317969,-0.20984 h -0.317969 v 0.397461 0.397461 h -1.103157 c -0.883607,0 -1.122852,-0.02373 -1.202116,-0.119239 -0.08494,-0.102341 -0.548152,-0.119238 -3.268912,-0.119238 -2.547993,0 -3.169955,0.02028 -3.169955,0.10334 0,0.291475 0.07757,0.295883 4.837025,0.274877 4.383158,-0.01935 4.649954,-0.02861 4.733127,-0.164269 z m 6.281138,0.08415 c -0.218143,-0.383444 -0.184772,-0.377588 -2.15121,-0.377588 -1.184171,0 -1.855745,0.02877 -1.855745,0.07949 0,0.04849 0.364591,0.07949 0.934789,0.07949 0.84869,0 0.943922,0.01464 1.034066,0.158985 0.09072,0.145265 0.185384,0.158984 1.09696,0.158984 0.775287,0 0.985067,-0.02215 0.94114,-0.09937 z m 0.961307,-0.139112 c 0,-0.174126 -0.03444,-0.19873 -0.278223,-0.19873 -0.245996,0 -0.281195,0.02592 -0.303875,0.223747 -0.02457,0.214356 -0.01289,0.222696 0.278223,0.19873 0.264471,-0.02177 0.303875,-0.05079 0.303875,-0.223747 z M 1.8170861,15.123577 2.0356896,14.969609 V 13.94442 c 0,-1.178235 -0.0069,-1.189766 -0.7121712,-1.189766 -0.50493815,0 -0.52139688,0.03539 -0.59975719,1.289505 -0.0626994,1.003474 -0.0380604,1.086002 0.37294909,1.249197 0.2191677,0.08702 0.4244682,0.03864 0.7203758,-0.169779 z M 22.76725,14.72606 c 0.06723,-0.06723 0.09539,-0.524027 0.09539,-1.547301 0,-1.392089 -0.0069,-1.455579 -0.166388,-1.540958 -0.224332,-0.120059 -0.803729,0.03937 -1.781171,0.490104 -0.174882,0.08065 -0.485547,0.18274 -0.690365,0.226877 -0.501211,0.108008 -1.283166,0.402857 -1.355341,0.511053 -0.140561,0.210714 -0.05736,0.537977 0.190298,0.748492 0.138125,0.117409 0.290153,0.231498 0.337842,0.25353 0.04769,0.02203 0.296751,0.183004 0.553472,0.357715 0.846176,0.575865 0.883607,0.587893 1.842483,0.59206 0.581884,0.0025 0.910589,-0.02838 0.973779,-0.09157 z m 56.501769,-0.242451 c -0.02548,-0.05465 -0.06743,-0.158244 -0.09323,-0.230206 -0.03208,-0.08948 -0.176579,-0.144848 -0.457131,-0.175156 -0.225624,-0.02437 -3.334544,-0.03301 -6.908712,-0.01919 -3.608586,0.01395 -6.498485,-0.0054 -6.498485,-0.04345 0,-0.03778 -2.498774,-0.06857 -5.564453,-0.06857 -3.521362,0 -5.564453,0.02816 -5.564453,0.0767 0,0.04218 0.06919,0.113726 0.153759,0.158984 0.103609,0.05545 3.356605,0.08229 9.973773,0.08229 8.696245,0 9.81478,0.01365 9.77426,0.119238 -0.03899,0.101607 0.08564,0.119239 0.842841,0.119239 0.683874,0 0.916068,-0.02747 1.007835,-0.119239 0.09478,-0.09478 0.350543,-0.119238 1.247075,-0.119238 1.041747,0 1.135416,0.01214 1.227125,0.158985 0.0781,0.125056 0.185377,0.158984 0.502699,0.158984 0.294438,0 0.390899,-0.02684 0.357092,-0.09937 z M 4.6445873,13.689499 C 4.6171003,13.496841 4.374534,13.404715 4.2424718,13.536777 c -0.133502,0.133503 -0.00184,0.330767 0.2207632,0.330767 0.1686982,0 0.2020785,-0.03277 0.1813523,-0.178045 z M 94.584461,13.180585 c 0.363526,-0.06009 0.386173,-0.22069 0.04776,-0.338662 -0.311132,-0.108462 -0.502025,-0.109239 -0.882427,-0.0036 -0.366466,0.101772 -0.380083,0.206077 -0.03975,0.304347 0.321761,0.0929 0.496008,0.100459 0.874414,0.03791 z M 1.3040486,12.147148 c 0.1667913,-0.04468 0.1804912,-0.0874 0.1589844,-0.495741 -0.023065,-0.43794 -0.028275,-0.446851 -0.2612465,-0.446851 -0.22089444,0 -0.24258984,0.0267 -0.3066646,0.377421 -0.1048888,0.57412 -0.0268972,0.681911 0.4089267,0.565171 z m 0.731641,-0.471167 c 0,-0.495039 -0.00925,-0.520906 -0.1775748,-0.496827 -0.1578291,0.02258 -0.1750204,0.06518 -0.1546033,0.383117 0.031073,0.483883 0.083269,0.635937 0.2182966,0.635937 0.087291,0 0.1138815,-0.121937 0.1138815,-0.522227 z M 48.914775,9.9724271 c 0.07487,-0.08744 0.181833,-0.158984 0.237698,-0.158984 0.06084,0 0.101572,-0.09995 0.101572,-0.249204 v -0.249203 l 1.062349,0.0563 c 1.031453,0.05466 1.063604,0.05151 1.10545,-0.108511 0.04246,-0.162364 0.08036,-0.16481 2.554544,-0.16481 h 2.511445 v 0.5167 0.5166989 h 1.396339 c 0.810516,0 1.460848,-0.03452 1.550098,-0.08229 0.140329,-0.0751 0.153759,-0.1757719 0.153759,-1.1526369 0,-0.964358 -0.01574,-1.086091 -0.158985,-1.229332 -0.157568,-0.157568 -0.264973,-0.158984 -12.056679,-0.158984 -13.341401,0 -12.188436,-0.05509 -12.188436,0.582379 0,0.583386 0.07148,0.610003 1.638169,0.610003 0.815948,0 1.449299,0.0348 1.557651,0.08559 0.182937,0.08575 0.619805,0.642496 0.619805,0.789886 0,0.04314 0.02806,0.07843 0.06235,0.07843 0.03429,0 0.125745,0.107314 0.203224,0.238476 L 39.406,10.131412 h 4.686322 c 4.587953,0 4.68918,-0.0033 4.82245,-0.1589849 z m 2.62467,0.1041889 c -0.07651,-0.01999 -0.139111,-0.0695 -0.139111,-0.1100169 0,-0.04051 -0.178858,-0.07366 -0.397461,-0.07366 -0.300304,0 -0.397461,0.02915 -0.397461,0.1192379 0,0.09512 0.108516,0.117374 0.536572,0.110018 0.295115,-0.0051 0.473972,-0.02558 0.397461,-0.04557 z m 21.800731,-0.06165 c 0,-0.2600269 -0.296188,-0.2810189 -3.96495,-0.2810189 h -3.657434 l -0.223036,0.196218 -0.223036,0.1962189 4.034228,0.0025 c 3.491063,0.0022 4.034228,-0.01317 4.034228,-0.11393 z m 8.485838,-0.06242 c -0.117466,-0.17698 -0.140638,-0.17908 -2.207633,-0.200073 -1.771924,-0.018 -2.117277,-0.0026 -2.275753,0.101198 -0.102755,0.06733 -0.186827,0.1573599 -0.186827,0.2000729 0,0.04883 0.888816,0.07766 2.394463,0.07766 H 81.94472 Z M 52.751701,9.6147131 c 0,-0.158985 -0.03975,-0.198731 -0.19873,-0.198731 -0.158985,0 -0.198731,0.03975 -0.198731,0.198731 0,0.158984 0.03975,0.19873 0.198731,0.19873 0.158984,0 0.19873,-0.03975 0.19873,-0.19873 z m 7.551757,-0.675684 c 0,-0.04372 -0.05155,-0.07949 -0.114546,-0.07949 -0.063,0 -0.136655,0.03577 -0.163676,0.07949 -0.02702,0.04372 0.02452,0.07949 0.114546,0.07949 0.09002,0 0.163676,-0.03577 0.163676,-0.07949 z M 30.618621,6.1479161 c 0.06818,-0.110326 -0.106866,-0.226763 -0.343334,-0.228372 -0.190214,-0.0013 -0.249454,0.195524 -0.07949,0.264105 0.176161,0.07108 0.366765,0.05497 0.422826,-0.03573 z"
   id="path351" /></svg>
