<?xml version="1.0" encoding="UTF-8" standalone="no"?>
<svg
   xmlns:dc="http://purl.org/dc/elements/1.1/"
   xmlns:cc="http://creativecommons.org/ns#"
   xmlns:rdf="http://www.w3.org/1999/02/22-rdf-syntax-ns#"
   xmlns:svg="http://www.w3.org/2000/svg"
   xmlns="http://www.w3.org/2000/svg"
   xmlns:sodipodi="http://sodipodi.sourceforge.net/DTD/sodipodi-0.dtd"
   xmlns:inkscape="http://www.inkscape.org/namespaces/inkscape"
   version="1.1"
   x="0px"
   y="0px"
   width="78.604px"
   height="32px"
   viewBox="0 0 78.604 32"
   enable-background="new 0 0 78.604 32"
   xml:space="preserve"
   id="svg141"
   sodipodi:docname="m4a1.svg"
   inkscape:version="1.0.2-2 (e86c870879, 2021-01-15)"><metadata
   id="metadata147"><rdf:RDF><cc:Work
       rdf:about=""><dc:format>image/svg+xml</dc:format><dc:type
         rdf:resource="http://purl.org/dc/dcmitype/StillImage" /></cc:Work></rdf:RDF></metadata><defs
   id="defs145" /><sodipodi:namedview
   pagecolor="#ffffff"
   bordercolor="#666666"
   borderopacity="1"
   objecttolerance="10"
   gridtolerance="10"
   guidetolerance="10"
   inkscape:pageopacity="0"
   inkscape:pageshadow="2"
   inkscape:window-width="1842"
   inkscape:window-height="1051"
   id="namedview143"
   showgrid="false"
   inkscape:zoom="15.457229"
   inkscape:cx="48.859967"
   inkscape:cy="11.260445"
   inkscape:window-x="-9"
   inkscape:window-y="-9"
   inkscape:window-maximized="1"
   inkscape:current-layer="svg141" />

<g
   id="guides">
</g>
<path
   style="fill:#ffffff;stroke-width:0.0646947"
   d="m 37.650537,29.665239 c -0.08065,-0.05778 -0.131127,-0.130171 -0.11216,-0.16086 0.01897,-0.03069 0.0075,-0.07249 -0.02553,-0.09289 -0.03301,-0.0204 -0.05253,-0.18359 -0.04339,-0.362642 0.0091,-0.179052 -0.0067,-0.33998 -0.03525,-0.357617 -0.02854,-0.01764 -0.03549,-0.0748 -0.01544,-0.127038 0.02004,-0.05223 0.0051,-0.09497 -0.03314,-0.09497 -0.03827,0 -0.05396,-0.04072 -0.03486,-0.0905 0.0191,-0.04977 0.0032,-0.110011 -0.03543,-0.13386 -0.03859,-0.02385 -0.05341,-0.07046 -0.03294,-0.103585 0.02047,-0.03312 0.01386,-0.09661 -0.01469,-0.141093 -0.02855,-0.04448 -0.05695,-0.139094 -0.06311,-0.210258 -0.02318,-0.267597 -0.06663,-0.486705 -0.103907,-0.523986 -0.02121,-0.02121 -0.02403,-0.07645 -0.0063,-0.122741 0.01777,-0.0463 0.0025,-0.102607 -0.03398,-0.125136 -0.03645,-0.02253 -0.05101,-0.08075 -0.03235,-0.129389 0.01866,-0.04863 0.0024,-0.10794 -0.03623,-0.131789 -0.03859,-0.02385 -0.05262,-0.07174 -0.03119,-0.106419 0.02143,-0.03468 0.0041,-0.105082 -0.03853,-0.156443 -0.04263,-0.05136 -0.05918,-0.141114 -0.0368,-0.199449 0.02239,-0.05834 0.0096,-0.143549 -0.02843,-0.189362 -0.03802,-0.04581 -0.07561,-0.180408 -0.08353,-0.2991 -0.0079,-0.118692 -0.03267,-0.244916 -0.055,-0.280498 -0.02233,-0.03558 -0.09144,-0.326708 -0.153584,-0.646947 -0.06214,-0.320238 -0.140298,-0.617367 -0.173683,-0.660286 -0.03339,-0.04292 -0.04113,-0.109697 -0.01721,-0.148397 0.02392,-0.0387 0.01158,-0.108813 -0.02743,-0.155809 -0.039,-0.047 -0.06902,-0.184005 -0.06671,-0.304465 0.0023,-0.120461 -0.01101,-0.306357 -0.02961,-0.413104 -0.03875,-0.222457 -0.08853,-0.639625 -0.129059,-1.081455 -0.01539,-0.167816 -0.04649,-0.335062 -0.06911,-0.371658 -0.03758,-0.0608 -0.05863,-0.255638 -0.129613,-1.199367 -0.07028,-0.934389 -0.236614,-1.615275 -0.418369,-1.712548 -0.06223,-0.03331 -0.240148,-0.05346 -0.395363,-0.04478 -0.200617,0.01121 -0.315691,-0.01771 -0.398024,-0.100041 -0.105931,-0.105931 -0.274885,-0.115816 -1.979595,-0.115816 -1.538597,0 -1.885691,0.01657 -1.98936,0.09499 -0.08996,0.06804 -0.304505,0.09557 -0.756354,0.09704 -0.376014,0.0012 -0.630773,0.02819 -0.630773,0.06675 0,0.03558 -0.11596,0.06469 -0.257688,0.06469 -0.245933,0 -0.265521,0.0155 -0.429364,0.339647 -0.09442,0.186806 -0.271004,0.495268 -0.392406,0.685471 l -0.22073,0.345823 0.103735,0.312318 c 0.05705,0.171774 0.14473,0.346341 0.194836,0.387924 0.07792,0.06467 0.07592,0.09878 -0.01388,0.23583 -0.08035,0.122626 -0.141417,0.151078 -0.260256,0.121251 -0.0854,-0.02143 -0.255108,-0.02024 -0.377128,0.0026 -0.185373,0.03478 -0.25584,0.101626 -0.428543,0.406546 -0.113679,0.20071 -0.227601,0.379483 -0.253158,0.397274 -0.02556,0.01779 -0.176176,0.279804 -0.334708,0.582252 -0.345953,0.660013 -0.832868,1.507764 -0.891794,1.552671 -0.198173,0.15103 -0.250233,0.66327 -0.09058,0.891213 0.08554,0.122128 0.08789,0.17024 0.01568,0.320904 -0.04672,0.09748 -0.136611,0.187185 -0.199756,0.199346 -0.06314,0.01216 -0.429569,-0.06754 -0.814277,-0.177119 -0.384707,-0.109573 -0.770719,-0.199227 -0.857803,-0.199227 -0.08708,0 -0.506478,-0.09879 -0.931986,-0.219539 -0.425508,-0.120747 -1.120996,-0.311776 -1.545529,-0.424509 -0.424533,-0.112733 -0.824831,-0.233309 -0.889552,-0.267947 -0.153479,-0.08214 -0.14922,-0.220961 0.01172,-0.381898 0.07116,-0.07116 0.129389,-0.158501 0.129389,-0.194083 0,-0.03558 0.02201,-0.0647 0.0489,-0.0647 0.0269,0 0.08635,-0.08459 0.132112,-0.187985 0.04577,-0.103391 0.150521,-0.256232 0.23279,-0.339647 0.08227,-0.08341 0.200157,-0.259457 0.261975,-0.391207 0.06182,-0.13175 0.182513,-0.315204 0.268213,-0.407675 0.0857,-0.09247 0.155817,-0.195742 0.155817,-0.229491 0,-0.03375 0.02183,-0.06141 0.04852,-0.06148 0.02669,-6.3e-5 0.131254,-0.13107 0.232371,-0.291126 0.101119,-0.160055 0.207977,-0.29101 0.237465,-0.29101 0.02949,0 0.0713,-0.08052 0.09291,-0.178931 0.02162,-0.09841 0.140379,-0.289263 0.26392,-0.424115 0.12354,-0.134852 0.224619,-0.272678 0.224619,-0.306279 0,-0.0336 0.02911,-0.06109 0.06469,-0.06109 0.03558,0 0.06469,-0.03115 0.06469,-0.06921 0,-0.06237 0.358954,-0.62807 0.448696,-0.707125 0.0202,-0.01779 0.07932,-0.114908 0.131393,-0.215816 0.05207,-0.100909 0.161195,-0.25525 0.242502,-0.342981 0.08131,-0.08773 0.147829,-0.184697 0.147829,-0.21548 0,-0.03078 0.02353,-0.06567 0.05229,-0.07754 0.07559,-0.03118 0.46527,-0.61438 0.46527,-0.696341 0,-0.03807 0.02911,-0.06921 0.0647,-0.06921 0.03558,0 0.06473,-0.03639 0.06477,-0.08087 6.5e-5,-0.07392 0.08478,-0.18989 0.452909,-0.620095 0.07109,-0.08308 0.129264,-0.177698 0.129264,-0.210258 0,-0.03256 0.02911,-0.0592 0.0647,-0.0592 0.03558,0 0.06469,-0.04367 0.06469,-0.09704 0,-0.05337 0.02451,-0.09704 0.05446,-0.09704 0.104575,0 0.210925,-0.526224 0.199894,-0.989088 -0.01928,-0.809095 -0.106787,-1.148992 -0.364426,-1.41555 -0.319646,-0.33071 -0.885683,-0.570269 -1.459141,-0.617539 -0.352732,-0.02908 -0.518799,-0.07662 -0.671344,-0.192188 l -0.202681,-0.153557 -0.0031,-0.879942 c -0.0017,-0.483968 -0.02936,-0.9062 -0.06145,-0.938294 -0.03209,-0.03209 -0.104819,-0.04052 -0.161614,-0.01872 -0.122204,0.04689 -0.215557,0.733579 -0.152953,1.125087 0.0534,0.333973 -0.121454,0.577963 -0.333049,0.464721 -0.08351,-0.04469 -0.155626,-0.165685 -0.18175,-0.304933 -0.04856,-0.258842 -0.0028,-1.09776 0.06932,-1.271738 0.03282,-0.07913 0.01697,-0.113215 -0.05265,-0.113215 -0.05478,0 -0.118834,-0.06059 -0.142338,-0.134643 -0.03964,-0.124879 -0.07396,-0.131415 -0.473396,-0.09014 -0.236864,0.02448 -0.845516,0.0485 -1.35256,0.05339 -0.507045,0.0049 -0.921899,0.02802 -0.921899,0.05141 0,0.02338 -0.101894,0.102629 -0.226431,0.176108 -0.221404,0.130632 -0.301372,0.342788 -0.161737,0.429087 0.08355,0.05164 0.08328,0.427899 -4.53e-4,0.648181 -0.03584,0.09427 -0.145012,0.250707 -0.242605,0.347645 -0.235876,0.234294 -0.956406,0.588276 -1.206715,0.592834 -0.182586,0.0033 -0.21851,0.0426 -0.414233,0.452863 l -0.214321,0.449221 H 15.699883 14.79821 v 0.224313 0.224312 l -0.727815,0.01829 -0.727815,0.01829 -0.02062,0.289857 c -0.02942,0.413487 -0.09024,0.460451 -0.573189,0.44262 -0.481484,-0.01778 -0.583919,-0.09675 -0.614438,-0.473698 l -0.02095,-0.258779 -0.444874,0.01824 c -0.340644,0.01397 -0.507376,0.05656 -0.711641,0.181776 -0.429119,0.263055 -0.950523,0.648502 -1.3347385,0.986702 -0.196625,0.173077 -0.444345,0.360532 -0.55049,0.416567 -0.106144,0.05604 -0.281719,0.184021 -0.390165,0.284412 C 8.1876902,17.519222 8.051706,17.610848 7.996436,17.523692 7.966803,17.476962 7.942113,17.111215 7.941568,16.710917 7.9408046,16.151273 7.920822,15.983102 7.855079,15.983102 c -0.047025,0 -0.2872035,0.162087 -0.5337309,0.360192 -0.246528,0.198106 -0.5355701,0.405218 -0.6423162,0.460248 -0.1067462,0.05503 -0.2668655,0.166699 -0.3558206,0.248151 -0.088955,0.08145 -0.5402003,0.417414 -1.002767,0.746583 -0.4625668,0.329168 -0.9688577,0.710448 -1.125091,0.847287 -0.1562334,0.136839 -0.3163663,0.248798 -0.3558509,0.248798 -0.039485,0 -0.3483463,0.220609 -0.6863591,0.490242 -0.3380129,0.269632 -0.685802,0.524367 -0.7728648,0.566078 -0.087063,0.04171 -0.2684908,0.174757 -0.4031736,0.295659 -0.1926483,0.172936 -0.2367317,0.252278 -0.2066849,0.371994 0.03797,0.151285 0.034811,0.152172 -0.5413657,0.152172 -0.53691057,0 -0.59862667,-0.01381 -0.83868177,-0.187708 -0.1768822,-0.128099 -0.2723322,-0.253825 -0.3008077,-0.396202 -0.02294,-0.114701 -0.040741,-2.6722 -0.039557,-5.683332 0.00243,-6.1817048 -0.047635,-5.6240698 0.5285044,-5.8865318 0.2918531,-0.132954 0.3433985,-0.133938 5.91465677,-0.112954 3.0911305,0.01164 5.678464,0.02385 5.749628,0.02712 0.07116,0.0033 1.526095,-0.0097 3.23318,-0.02871 l 3.103791,-0.03466 0.130941,0.162838 0.130942,0.162838 1.455593,0.01619 c 1.313311,0.01461 1.457617,0.0057 1.4763,-0.09133 0.04029,-0.209182 0.88646,-0.3041 1.839337,-0.206324 l 0.436689,0.04481 v -0.480176 c 0,-0.417865 0.01889,-0.496383 0.145592,-0.605059 0.418877,-0.359295 0.367946,-0.351314 2.242016,-0.351314 1.765746,0 1.923284,-0.02107 1.746871,-0.233635 -0.05666,-0.06827 -0.07701,-0.301089 -0.0662,-0.757328 0.02917,-1.23102 0.06997,-1.822519 0.127025,-1.841536 0.0313,-0.01043 0.04244,-0.221271 0.02475,-0.468526 -0.03742,-0.5229378 0.02722,-0.6453484 0.340752,-0.6453484 0.18036,0 0.215776,0.026763 0.247887,0.1873211 0.02061,0.1030266 0.02105,0.2884687 9.9e-4,0.4120933 -0.0325,0.200253 -0.011,0.245098 0.197052,0.411105 l 0.233527,0.186332 2e-6,0.889551 c 2e-6,0.667743 0.02017,0.88991 0.08087,0.89099 0.04448,7.91e-4 0.15365,0.06047 0.242605,0.132617 0.08896,0.07215 0.272019,0.203573 0.406808,0.292055 0.134789,0.08848 0.280352,0.239472 0.323473,0.335533 0.04312,0.09606 0.12935,0.226001 0.191618,0.288757 0.139293,0.140384 0.491115,0.151445 0.542683,0.01706 0.04827,-0.125791 0.373571,-0.125791 0.499363,0 0.130906,0.130906 0.472486,0.124805 0.547805,-0.0098 0.04644,-0.08299 0.115626,-0.09776 0.310006,-0.06622 0.137623,0.02233 0.260156,0.0704 0.272296,0.106826 0.03337,0.100109 0.330911,0.07932 0.441049,-0.03082 0.123404,-0.123404 0.350483,-0.124317 0.512123,-0.0021 0.164135,0.124145 0.457489,0.12534 0.504797,0.0021 0.02188,-0.05703 0.118935,-0.09704 0.235383,-0.09704 0.116449,0 0.213498,0.04001 0.235383,0.09704 0.04894,0.127536 0.435107,0.127536 0.540953,0 0.108366,-0.130572 0.517557,-0.130572 0.517557,0 0,0.134008 0.442739,0.134008 0.494162,0 0.04894,-0.127537 0.435107,-0.127537 0.540953,0 0.103553,0.124774 0.369677,0.124774 0.494452,0 0.123403,-0.123404 0.350482,-0.124317 0.512123,-0.0021 0.170379,0.128868 0.546095,0.130283 0.546095,0.0021 0,-0.131539 0.378991,-0.131539 0.429467,0 0.05103,0.132984 0.531222,0.132984 0.582252,0 0.04802,-0.125146 0.309523,-0.125146 0.434669,0 0.132357,0.132357 0.536214,0.126533 0.611963,-0.0088 0.04591,-0.08203 0.112173,-0.09594 0.294341,-0.06176 0.129302,0.02426 0.235094,0.0719 0.235094,0.105867 0,0.104111 0.435139,0.07188 0.476258,-0.03528 0.04757,-0.123975 0.302942,-0.125104 0.465623,-0.0021 0.173264,0.13105 0.546096,0.130185 0.546096,-0.0013 0,-0.08275 0.09369,-0.100005 0.533731,-0.09831 0.293552,0.0011 0.637244,-0.01445 0.763759,-0.03463 0.165269,-0.02636 0.254011,-0.0078 0.315221,0.06596 0.109503,0.131944 0.495606,0.135913 0.545608,0.0056 0.04809,-0.125312 0.345745,-0.125312 0.471057,0 0.126327,0.126328 0.46879,0.126328 0.517266,0 0.05119,-0.133402 0.476259,-0.133402 0.476259,0 0,0.135835 0.506731,0.135835 0.558856,0 0.04825,-0.125749 0.371895,-0.125749 0.476258,0 0.105845,0.127536 0.492012,0.127536 0.540953,0 0.0459,-0.119608 0.387432,-0.128956 0.505714,-0.01384 0.126128,0.12275 0.48389,0.132436 0.529213,0.01433 0.04864,-0.126765 0.389268,-0.1271 0.494349,-4.85e-4 0.104824,0.126305 0.445694,0.126305 0.494161,0 0.05119,-0.133402 0.476258,-0.133402 0.476258,0 0,0.138071 0.490538,0.133833 0.568182,-0.0049 0.06973,-0.124597 0.508414,-0.105453 0.483106,0.02108 -0.02448,0.122397 0.477542,0.106925 0.524779,-0.01617 0.05015,-0.130697 0.467404,-0.130697 0.517558,0 0.02307,0.06012 0.121534,0.09704 0.258778,0.09704 0.137244,0 0.235709,-0.03692 0.258779,-0.09704 0.05015,-0.130697 0.467404,-0.130697 0.517557,0 0.04933,0.128559 0.421434,0.128559 0.470766,0 0.05195,-0.135379 0.540953,-0.135379 0.540953,0 0,0.134008 0.442738,0.134008 0.494161,0 0.05015,-0.130697 0.467405,-0.130697 0.517558,0 0.04986,0.129936 0.449792,0.129936 0.499653,0 0.04909,-0.127939 0.452676,-0.127939 0.558856,0 0.104363,0.125749 0.428004,0.125749 0.476258,0 0.04867,-0.126832 0.40892,-0.126832 0.535752,0 0.05337,0.05337 0.168657,0.09704 0.256187,0.09704 0.08753,0 0.175904,-0.04367 0.196385,-0.09704 0.02428,-0.06326 0.124903,-0.09704 0.289096,-0.09704 0.180743,0 0.251856,0.0274 0.251856,0.09704 0,0.134008 0.442739,0.134008 0.494162,0 0.05015,-0.130697 0.467405,-0.130697 0.517557,0 0.04986,0.129936 0.449792,0.129936 0.499654,0 0.0491,-0.127939 0.452676,-0.127939 0.558856,0 0.104363,0.125749 0.428004,0.125749 0.476258,0 0.04867,-0.126832 0.40892,-0.126832 0.535751,0 0.05337,0.05337 0.196857,0.09704 0.318853,0.09704 0.154034,-2e-6 0.22181,-0.02965 0.22181,-0.09704 0,-0.06777 0.06829,-0.09704 0.226431,-0.09704 0.158142,0 0.226431,0.02927 0.226431,0.09704 0,0.06794 0.06851,0.09704 0.228462,0.09704 0.143397,0 0.242327,-0.03613 0.2657,-0.09704 0.04894,-0.127537 0.435107,-0.127537 0.540953,0 0.104362,0.125749 0.428003,0.125749 0.476258,0 0.04909,-0.127939 0.452676,-0.127939 0.558856,0 0.104363,0.125749 0.428,0.125749 0.476256,0 0.04867,-0.126832 0.408922,-0.126832 0.535756,0 0.129292,0.129293 0.475965,0.129293 0.475965,0 0,-0.06144 0.06187,-0.09704 0.168659,-0.09704 0.137224,0 0.159006,-0.0211 0.116877,-0.113216 -0.08439,-0.184528 -0.126083,-1.29905 -0.09145,-2.444679 0.03532,-1.1683235 0.0436,-1.1915091 0.426661,-1.1934042 0.122305,-6.049e-4 0.248195,0.05198 0.323473,0.1351183 0.111256,0.1228713 0.124621,0.2597238 0.137444,1.4071089 l 0.0142,1.270999 0.214269,0.03604 c 0.261806,0.04403 0.934482,0.52923 1.032753,0.744917 0.05462,0.119881 0.121885,0.157116 0.283816,0.157116 0.116728,0 0.235779,0.03639 0.264568,0.08087 0.02878,0.04448 0.04229,0.553948 0.02999,1.132156 l -0.02234,1.051288 h 2.007203 2.007203 l 0.02067,-0.145563 c 0.01879,-0.132297 0.06055,-0.147308 0.458252,-0.164712 0.347287,-0.0152 0.4455,0.0015 0.475958,0.08087 0.04238,0.110426 0.348012,0.139665 0.348012,0.03329 0,-0.12586 0.198923,-0.143035 0.32588,-0.02814 0.121477,0.109935 0.132462,0.109954 0.253486,4.33e-4 0.09849,-0.08913 0.180861,-0.10395 0.371995,-0.06691 0.42067,0.08151 2.554882,0.109799 2.629824,0.03485 0.03717,-0.03718 0.192221,-0.06759 0.344544,-0.06759 0.353563,0 0.353757,7.85e-4 0.330241,1.3544378 l -0.01847,1.063312 -1.81145,0.0041 c -1.534634,0.0035 -1.823807,-0.01068 -1.892318,-0.09289 -0.07135,-0.08562 -0.09123,-0.08372 -0.168866,0.01617 -0.112032,0.144127 -0.287801,0.144465 -0.446484,8.6e-4 -0.11788,-0.106679 -0.128302,-0.106679 -0.206311,0 -0.06483,0.08867 -0.180356,0.112357 -0.54788,0.112357 -0.307034,0 -0.451497,-0.02301 -0.423982,-0.06753 0.02295,-0.03714 0.0065,-0.109922 -0.03646,-0.161736 -0.06526,-0.07864 -0.397717,-0.09421 -2.011098,-0.09421 h -1.93292 v 0.504619 c 0,0.306221 -0.03052,0.53514 -0.07763,0.582251 -0.144036,0.144039 -0.569313,0.07604 -0.569313,-0.09102 0,-0.04957 -0.04367,-0.09012 -0.09704,-0.09012 -0.07548,0 -0.09704,0.08626 -0.09704,0.388168 v 0.388168 h -0.502 c -0.431927,0 -0.513268,-0.01806 -0.582795,-0.129389 -0.04696,-0.07518 -0.150875,-0.129389 -0.248052,-0.129389 -0.112834,0 -0.178254,0.04209 -0.201084,0.129389 -0.04952,0.189356 -0.570219,0.189356 -0.619736,0 -0.04698,-0.179611 -0.368404,-0.179611 -0.415379,0 -0.04837,0.184991 -0.501991,0.184991 -0.600994,0 -0.0934,-0.174515 -0.388481,-0.174515 -0.434117,0 -0.02668,0.102027 -0.08825,0.129389 -0.291126,0.129389 -0.202881,0 -0.264445,-0.02736 -0.291126,-0.129389 -0.02235,-0.08546 -0.08824,-0.129389 -0.194084,-0.129389 -0.105839,0 -0.171736,0.04393 -0.194083,0.129389 -0.02717,0.103886 -0.08825,0.129389 -0.309872,0.129389 -0.221626,0 -0.282704,-0.0255 -0.309871,-0.129389 -0.02325,-0.0889 -0.08824,-0.129389 -0.207686,-0.129389 -0.119442,0 -0.184439,0.04049 -0.207686,0.129389 -0.02717,0.103886 -0.08825,0.129389 -0.309871,0.129389 -0.221626,0 -0.282705,-0.0255 -0.309871,-0.129389 -0.02325,-0.0889 -0.08824,-0.129389 -0.207686,-0.129389 -0.119442,0 -0.184439,0.04049 -0.207686,0.129389 -0.04838,0.184991 -0.501993,0.184991 -0.600997,0 -0.0934,-0.174515 -0.388481,-0.174515 -0.434118,0 -0.04921,0.18817 -0.533044,0.18817 -0.582251,0 -0.02235,-0.08546 -0.08825,-0.129389 -0.194084,-0.129389 -0.10584,0 -0.171737,0.04393 -0.194084,0.129389 -0.02717,0.103886 -0.08825,0.129389 -0.309871,0.129389 -0.221627,0 -0.282705,-0.0255 -0.309872,-0.129389 -0.02325,-0.0889 -0.08824,-0.129389 -0.207686,-0.129389 -0.119441,0 -0.184439,0.04049 -0.207686,0.129389 -0.02717,0.103886 -0.08824,0.129389 -0.309871,0.129389 -0.221626,0 -0.282704,-0.0255 -0.309871,-0.129389 -0.02325,-0.0889 -0.08824,-0.129389 -0.207686,-0.129389 -0.119442,0 -0.184439,0.04049 -0.207686,0.129389 -0.04838,0.184991 -0.501993,0.184991 -0.600997,0 -0.0934,-0.174515 -0.388481,-0.174515 -0.434117,0 -0.02668,0.102027 -0.08825,0.129389 -0.291126,0.129389 -0.202882,0 -0.264445,-0.02736 -0.291126,-0.129389 -0.02235,-0.08546 -0.08825,-0.129389 -0.194084,-0.129389 -0.10584,0 -0.171737,0.04393 -0.194084,0.129389 -0.04952,0.189356 -0.570224,0.189356 -0.619742,0 -0.04697,-0.179611 -0.368403,-0.179611 -0.415372,0 -0.04952,0.189356 -0.570225,0.189356 -0.619743,0 -0.04541,-0.17365 -0.340685,-0.17365 -0.449131,0 -0.110634,0.177153 -0.472428,0.177153 -0.567238,0 -0.09502,-0.177538 -0.428861,-0.177538 -0.48521,0 -0.05882,0.185342 -0.482691,0.185342 -0.531159,0 -0.02428,-0.09284 -0.08825,-0.129389 -0.226431,-0.129389 -0.138187,0 -0.202154,0.03655 -0.226431,0.129389 -0.02628,0.1005 -0.08825,0.129389 -0.277524,0.129389 -0.189279,0 -0.251243,-0.02889 -0.277524,-0.129389 -0.02491,-0.09525 -0.08824,-0.129389 -0.240033,-0.129389 -0.15179,0 -0.215126,0.03414 -0.240034,0.129389 -0.04895,0.18719 -0.506096,0.18719 -0.555048,0 -0.04806,-0.183788 -0.432005,-0.183788 -0.480066,0 -0.04757,0.181907 -0.438949,0.181907 -0.536303,0 -0.09614,-0.179647 -0.451833,-0.179647 -0.498812,0 -0.02565,0.09809 -0.08824,0.129389 -0.258778,0.129389 -0.170535,0 -0.233127,-0.0313 -0.258779,-0.129389 -0.04791,-0.183222 -0.40525,-0.18207 -0.453244,0.0015 -0.03294,0.125957 -0.07686,0.13019 -1.174621,0.113216 l -1.140402,-0.01764 -0.03235,-0.323473 c -0.02514,-0.251356 -0.0422,-0.289549 -0.07654,-0.171311 -0.04287,0.147613 -0.06172,0.15148 -0.630806,0.129389 l -0.586615,-0.02277 3.3e-5,0.22821 c 4.5e-5,0.319256 -0.150054,0.499035 -0.50244,0.601785 -0.50869,0.148327 -0.52241,0.201897 -0.527914,2.061273 -0.0026,0.878555 0.02062,1.613043 0.05161,1.632193 0.07711,0.04765 0.142763,0.402022 0.09672,0.522014 -0.02063,0.05376 -0.105458,0.09775 -0.188507,0.09775 -0.08305,0 -0.165682,0.02376 -0.183632,0.0528 -0.01795,0.02904 -0.0063,0.254664 0.02595,0.501383 0.164539,1.259853 0.321104,2.561726 0.350316,2.912937 0.0374,0.449649 0.521291,2.896398 0.811281,4.102149 0.10697,0.444776 0.19484,0.88205 0.195265,0.971721 0.0011,0.23317 0.247767,1.092158 0.359371,1.251495 0.107371,0.153293 0.123334,0.448151 0.03336,0.616263 -0.03954,0.07387 -0.317571,0.187735 -0.79251,0.324548 -0.402383,0.115914 -1.27019,0.383285 -1.928458,0.594159 -0.658268,0.210875 -1.238786,0.383153 -1.29004,0.38284 -0.05125,-3.24e-4 -0.327824,0.06994 -0.614599,0.156126 -1.176199,0.353471 -1.50583,0.40437 -1.70317,0.262988 z M 2.8833074,18.357899 c 0.044286,-0.05336 0.076437,-0.68564 0.08879,-1.746106 0.01559,-1.338375 0.00257,-1.668885 -0.066795,-1.69545 -0.1716909,-0.06576 -0.3860748,-0.03074 -0.4244761,0.06934 -0.021598,0.05628 -0.039269,0.839897 -0.039269,1.741363 0,1.250692 0.01916,1.646763 0.080868,1.671663 0.1482809,0.05983 0.2907263,0.04373 0.3608821,-0.04081 z M 31.747791,18.134251 c -2.59e-4,-0.02669 -0.09754,-0.114627 -0.216216,-0.195424 -0.118676,-0.0808 -0.25303,-0.226359 -0.298565,-0.323473 -0.04554,-0.09711 -0.122146,-0.252545 -0.170247,-0.345403 -0.0481,-0.09286 -0.06952,-0.18677 -0.0476,-0.208694 0.02192,-0.02192 0.0086,-0.07756 -0.02966,-0.123628 -0.04237,-0.05105 -0.06168,-0.329583 -0.04944,-0.713204 0.01832,-0.57421 -0.01837,-0.738749 -0.125908,-0.564744 -0.02199,0.03558 -0.09438,0.0647 -0.16086,0.0647 -0.06648,0 -0.180896,0.08006 -0.254256,0.17791 -0.07336,0.09785 -0.15901,0.209005 -0.190336,0.247009 -0.03132,0.03801 -0.09581,0.183568 -0.1433,0.323474 -0.04749,0.139906 -0.109515,0.282031 -0.137833,0.315834 -0.02832,0.0338 -0.05149,0.12297 -0.05149,0.19815 0,0.192869 0.307426,0.807642 0.404495,0.808885 0.04439,5.82e-4 0.179276,0.08791 0.29974,0.194083 0.200777,0.176969 0.258715,0.193051 0.695467,0.193051 0.262044,0 0.476245,-0.02183 0.476001,-0.04852 z m 2.782312,-0.03642 c 0,-0.04672 0.08752,-0.16879 0.194493,-0.271274 0.326034,-0.31236 0.430785,-1.031392 0.209849,-1.44043 -0.113566,-0.210252 -0.680441,-0.661754 -0.830854,-0.661754 -0.04414,0 -0.09233,-0.03639 -0.107086,-0.08087 -0.0185,-0.05576 -0.256165,-0.09091 -0.765554,-0.113215 -0.639928,-0.02802 -0.755397,-0.01731 -0.86335,0.08013 -0.06854,0.06186 -0.174141,0.128193 -0.234667,0.147403 -0.180303,0.05723 -0.577679,0.716763 -0.620622,1.030065 -0.05372,0.391891 0.02281,0.835591 0.174224,1.010173 0.06951,0.08015 0.126392,0.199501 0.126392,0.265221 0,0.112397 0.08065,0.11949 1.358587,0.11949 1.078459,0 1.358588,-0.01751 1.358588,-0.08494 z M 4.7382174,16.209586 c 0,-0.172322 -0.021663,-0.194084 -0.193198,-0.194084 -0.1349396,0 -0.1999921,0.03528 -0.215729,0.116994 -0.040412,0.209845 0.041503,0.313436 0.2306488,0.29168 0.1504001,-0.0173 0.1782782,-0.05086 0.1782782,-0.21459 z m 3.3205724,-1.864755 c 0.1684953,-0.351636 0.096903,-0.362862 -2.3286879,-0.365154 -1.1979842,-0.0011 -2.224203,0.01561 -2.2804863,0.03721 -0.1213196,0.04655 -0.1370171,0.353032 -0.023877,0.466172 0.059123,0.05912 0.628848,0.07427 2.3119822,0.06146 l 2.2335261,-0.017 z m 57.5079042,-2.13014 c 0.03503,-0.04448 0.08281,-0.160928 0.106196,-0.258779 l 0.0425,-0.17791 h -1.650948 c -1.792869,0 -1.790342,-5.82e-4 -1.516861,0.347096 l 0.134085,0.170461 h 1.410665 c 1.051434,0 1.426883,-0.02059 1.474363,-0.08087 z m -4.48912,-0.648041 c 0.10525,-0.07696 0.103877,-0.09078 -0.0225,-0.226431 -0.158823,-0.170477 -0.423968,-0.201262 -0.362905,-0.04214 0.0216,0.05628 0.03927,0.158177 0.03927,0.226431 0,0.144196 0.177083,0.165752 0.346139,0.04214 z m 6.323316,-0.05684 c 0.21293,-0.0638 0.238413,-0.0908 0.183138,-0.194084 -0.05309,-0.09921 -0.142205,-0.119977 -0.514795,-0.119977 -0.395032,0 -0.450585,0.01473 -0.450585,0.119504 0,0.229234 0.364179,0.319812 0.782242,0.194557 z m 10.345237,-1.249092 c 0,-0.05352 -0.104488,-0.123018 -0.242605,-0.161375 -0.536901,-0.1491048 -1.827623,-0.0335 -1.827623,0.163695 0,0.07529 0.185046,0.09168 1.035114,0.09168 0.862088,0 1.035114,-0.01571 1.035114,-0.094 z M 77.422654,9.5783842 c 0,-0.03921 -0.280341,-0.06469 -0.711641,-0.06469 -0.4313,0 -0.711641,0.02549 -0.711641,0.06469 0,0.03921 0.280341,0.0647 0.711641,0.0647 0.4313,0 0.711641,-0.02549 0.711641,-0.0647 z M 60.994467,9.0585502 c 0.198557,-0.106264 0.157568,-0.303793 -0.07357,-0.35456 -0.247248,-0.05431 -0.264877,-0.03643 -0.214167,0.217114 0.04387,0.219366 0.09185,0.242284 0.287741,0.137446 z m 1.729563,-0.01066 c 0.1096,-0.1096 0.09637,-0.289499 -0.0247,-0.33596 -0.196149,-0.07527 -0.567614,-0.03851 -0.685082,0.0678 -0.143545,0.129908 -0.152046,0.216405 -0.02127,0.216405 0.05337,0 0.09704,0.02911 0.09704,0.06469 0,0.09165 0.540448,0.08062 0.634007,-0.01294 z m 1.699253,0.01066 c 0.171561,-0.09182 0.159421,-0.296918 -0.02043,-0.345115 -0.260752,-0.06988 -0.521096,-0.04299 -0.641852,0.06629 -0.143546,0.129907 -0.152047,0.216404 -0.02127,0.216404 0.05337,0 0.09704,0.02911 0.09704,0.06469 0,0.08502 0.426475,0.08337 0.586505,-0.0023 z m 1.682058,0 c 0.171564,-0.09182 0.159427,-0.296918 -0.02042,-0.345115 -0.260752,-0.06988 -0.521096,-0.04299 -0.641855,0.06629 -0.143544,0.129907 -0.152045,0.216404 -0.02126,0.216404 0.05337,0 0.09704,0.02911 0.09704,0.06469 0,0.08502 0.426474,0.08337 0.586502,-0.0023 z m 1.746756,0 c 0.171563,-0.09182 0.159427,-0.296918 -0.02042,-0.345115 -0.300818,-0.08062 -0.608971,-0.04271 -0.728747,0.08964 -0.114361,0.126366 -0.114166,0.133337 0.0061,0.224374 0.145194,0.109861 0.563174,0.127355 0.743025,0.0311 z m -6.963636,-0.859656 c 0.166814,-0.121978 0.08492,-0.496655 -0.108551,-0.496655 -0.300606,0 -0.491019,0.377081 -0.258733,0.512375 0.152572,0.08887 0.228712,0.08561 0.367284,-0.01572 z m 1.010492,0.0209 c 0.116343,0 0.198713,-0.253004 0.126375,-0.388168 -0.12868,-0.240442 -0.582252,-0.08394 -0.582252,0.200896 0,0.133603 0.185621,0.262983 0.312591,0.217879 0.04739,-0.01683 0.111867,-0.03061 0.143286,-0.03061 z m 1.062193,0 c 0.113531,0 0.172584,-0.25123 0.0937,-0.398628 -0.123972,-0.231643 -0.576654,-0.06573 -0.576654,0.211356 0,0.133603 0.185621,0.262983 0.31259,0.217879 0.04739,-0.01683 0.124052,-0.03061 0.170365,-0.03061 z m 0.982867,0.02548 c 0.286217,-0.07678 0.209837,-0.54304 -0.08896,-0.54304 -0.08333,0 -0.190082,0.06929 -0.251744,0.163394 -0.100253,0.153007 -0.09971,0.171515 0.0085,0.291126 0.12744,0.140819 0.132343,0.142126 0.332166,0.08852 z m 1.087365,-0.02548 c 0.119381,0 0.168587,-0.328115 0.06478,-0.431927 -0.198127,-0.198127 -0.483042,-0.05339 -0.483042,0.24539 0,0.180071 0.09506,0.262045 0.247897,0.213758 0.04739,-0.01497 0.124052,-0.02722 0.170367,-0.02722 z m 1.097441,-0.03697 c 0.126439,-0.126439 0.129797,-0.26761 0.0092,-0.388168 -0.207262,-0.207267 -0.489829,-0.04223 -0.489829,0.286102 0,0.208654 0.308484,0.274169 0.480591,0.102066 z m 1.035024,0.01607 c 0.166815,-0.121978 0.08492,-0.496655 -0.108551,-0.496655 -0.300604,0 -0.49102,0.377081 -0.258734,0.512375 0.15257,0.08887 0.228709,0.08561 0.367285,-0.01572 z m -19.84754,-0.07629 c 0.02051,-0.05345 0.01904,-0.169904 -0.0033,-0.258779 -0.03148,-0.125434 -0.08216,-0.161592 -0.226489,-0.161592 -0.196207,0 -0.264468,0.09321 -0.264468,0.361112 0,0.13593 0.02996,0.156445 0.228461,0.156445 0.143549,0 0.242324,-0.03612 0.265756,-0.09719 z m 1.060168,-0.06906 c 0.07772,-0.204419 -0.04228,-0.351313 -0.286986,-0.351313 -0.12214,0 -0.175683,0.04207 -0.205682,0.161592 -0.0617,0.245834 0.01,0.355965 0.231747,0.355965 0.152798,0 0.212074,-0.03777 0.260921,-0.166244 z m 1.029969,0.07334 c 0.164256,-0.197916 -0.149459,-0.485873 -0.389423,-0.357448 -0.119981,0.06421 -0.170815,0.317982 -0.08157,0.407224 0.07814,0.07814 0.392391,0.04493 0.470995,-0.04978 z m 1.068001,-0.02737 c 0.07785,-0.245275 -0.11331,-0.440987 -0.35561,-0.364084 -0.119196,0.03783 -0.222841,0.316456 -0.157216,0.422639 0.02098,0.03395 0.136359,0.06172 0.256398,0.06172 0.155922,0 0.229156,-0.03435 0.256428,-0.120275 z m 1.047014,0.02309 c 0.07111,-0.185324 -0.03437,-0.420436 -0.18815,-0.41938 -0.07938,5.43e-4 -0.176797,0.02238 -0.216479,0.04852 -0.09517,0.0627 -0.173348,0.320164 -0.122293,0.402772 0.06451,0.10438 0.48438,0.07895 0.526922,-0.03191 z m 1.046525,-0.112525 c 0.01584,-0.13763 -0.01634,-0.194109 -0.143647,-0.252116 -0.213833,-0.09743 -0.361981,0.01699 -0.361981,0.27957 0,0.180074 0.01276,0.189012 0.242605,0.169989 0.210424,-0.01742 0.245313,-0.04361 0.263023,-0.197443 z m 1.100079,0.03169 c 0.02617,-0.184259 -0.125948,-0.339539 -0.332618,-0.339539 -0.169558,0 -0.237974,0.104888 -0.237974,0.364832 0,0.14842 0.02016,0.158706 0.274952,0.140271 0.228633,-0.01654 0.278437,-0.04443 0.29564,-0.165564 z m 1.035566,-0.0035 c 0.04677,-0.329956 -0.379996,-0.477499 -0.516241,-0.178474 -0.115178,0.252788 -0.02952,0.370992 0.251976,0.347708 0.197303,-0.01632 0.24711,-0.04822 0.264265,-0.169234 z m 1.053323,0.039 c 0.05681,-0.106141 0.05739,-0.148758 0.0023,-0.167127 -0.04069,-0.01356 -0.07397,-0.0659 -0.07397,-0.116308 0,-0.163847 -0.355413,-0.112001 -0.450527,0.06572 -0.124257,0.232175 -0.04614,0.360184 0.219789,0.360184 0.166896,0 0.246172,-0.03735 0.302433,-0.14247 z m 1.049594,0.0026 c 0.08393,-0.320939 -0.233986,-0.498186 -0.485423,-0.270639 -0.118846,0.107554 -0.155564,0.286974 -0.07518,0.367358 0.02372,0.02372 0.151332,0.04313 0.28358,0.04313 0.192037,0 0.247814,-0.02816 0.277022,-0.139848 z m 1.034328,0.003 c 0.08975,-0.343193 -0.316734,-0.516762 -0.512065,-0.21865 -0.138293,0.211062 -0.0305,0.355497 0.265316,0.355497 0.160387,0 0.219543,-0.03281 0.246749,-0.136844 z m 1.045483,0.0115 c 0.0534,-0.16824 -0.09514,-0.392214 -0.260117,-0.392214 -0.183995,0 -0.288503,0.121863 -0.288503,0.336412 0,0.167689 0.0189,0.181145 0.254419,0.181145 0.194863,0 0.263732,-0.02934 0.294201,-0.125343 z m 1.0417,-0.03448 c 0.04699,-0.187235 -0.091,-0.357732 -0.28953,-0.357732 -0.1445,0 -0.265676,0.175105 -0.265676,0.383914 0,0.11268 0.0404,0.133643 0.257547,0.133643 0.219939,0 0.263403,-0.02334 0.297659,-0.159825 z m 7.037462,-0.907637 c 0.02968,-0.07734 -0.02146,-0.09704 -0.251856,-0.09704 -0.213842,0 -0.289095,0.02526 -0.289095,0.09704 0,0.06964 0.07111,0.09704 0.251856,0.09704 0.164195,0 0.264821,-0.03378 0.289095,-0.09704 z"
   id="path163" /></svg>
