<?xml version="1.0" encoding="UTF-8" standalone="no"?>
<svg
   xmlns:dc="http://purl.org/dc/elements/1.1/"
   xmlns:cc="http://creativecommons.org/ns#"
   xmlns:rdf="http://www.w3.org/1999/02/22-rdf-syntax-ns#"
   xmlns:svg="http://www.w3.org/2000/svg"
   xmlns="http://www.w3.org/2000/svg"
   xmlns:sodipodi="http://sodipodi.sourceforge.net/DTD/sodipodi-0.dtd"
   xmlns:inkscape="http://www.inkscape.org/namespaces/inkscape"
   version="1.1"
   x="0px"
   y="0px"
   width="109.5px"
   height="32px"
   viewBox="0 0 109.5 32"
   enable-background="new 0 0 109.5 32"
   xml:space="preserve"
   id="svg32"
   sodipodi:docname="ax50.svg"
   inkscape:version="1.0.2-2 (e86c870879, 2021-01-15)"><metadata
   id="metadata38"><rdf:RDF><cc:Work
       rdf:about=""><dc:format>image/svg+xml</dc:format><dc:type
         rdf:resource="http://purl.org/dc/dcmitype/StillImage" /></cc:Work></rdf:RDF></metadata><defs
   id="defs36" /><sodipodi:namedview
   pagecolor="#ffffff"
   bordercolor="#666666"
   borderopacity="1"
   objecttolerance="10"
   gridtolerance="10"
   guidetolerance="10"
   inkscape:pageopacity="0"
   inkscape:pageshadow="2"
   inkscape:window-width="1842"
   inkscape:window-height="1051"
   id="namedview34"
   showgrid="false"
   inkscape:zoom="11.251142"
   inkscape:cx="40.230529"
   inkscape:cy="25.947318"
   inkscape:window-x="-9"
   inkscape:window-y="-9"
   inkscape:window-maximized="1"
   inkscape:current-layer="svg32" />

<g
   id="guides">
</g>
<path
   style="fill:#ffffff;stroke-width:0.0888799"
   d="m 25.254271,27.709648 c -1.074993,-0.101829 -1.177205,-0.185416 -0.906946,-0.741691 0.107749,-0.22178 0.195907,-0.444724 0.195907,-0.495433 0,-0.05071 0.09999,-0.310798 0.2222,-0.577975 0.122209,-0.267178 0.222445,-0.534588 0.222747,-0.594245 2.66e-4,-0.05966 0.06333,-0.228453 0.140055,-0.375105 0.07673,-0.146651 0.180113,-0.485348 0.229743,-0.752659 0.04963,-0.267311 0.166586,-0.63568 0.259904,-0.818598 0.09332,-0.182918 0.169669,-0.37943 0.169669,-0.436694 0,-0.05726 0.179982,-0.284097 0.39996,-0.504075 0.342387,-0.342387 0.400412,-0.452649 0.403109,-0.766004 0.0017,-0.201324 0.06031,-0.466034 0.13017,-0.588244 0.226148,-0.395605 0.169873,-0.673439 -0.168972,-0.834232 -0.166261,-0.0789 -0.383878,-0.143447 -0.483594,-0.143447 -0.09972,0 -0.204472,-0.03749 -0.232791,-0.08331 -0.03021,-0.04888 -0.912172,-0.07551 -2.133936,-0.06443 -1.998003,0.01812 -2.093292,0.0269 -2.349914,0.21663 -0.147106,0.108761 -0.303243,0.197747 -0.346967,0.197747 -0.04373,0 -0.187392,0.09999 -0.319258,0.2222 -0.131867,0.12221 -0.264003,0.222199 -0.293636,0.222199 -0.02963,0 -0.325691,0.269973 -0.657907,0.59994 -0.898922,0.892836 -0.890539,0.887242 -1.5749,1.05086 -0.36531,0.08734 -1.251695,0.121336 -3.223273,0.123632 -3.273627,0.0038 -3.27999,0.0053 -3.27999,0.762451 0,0.314878 0.06106,0.588337 0.177759,0.796113 0.142736,0.254129 0.17776,0.481234 0.17776,1.152656 0,0.797424 -0.01187,0.849171 -0.25626,1.116739 -0.199967,0.218936 -0.361043,0.295802 -0.733259,0.349917 -0.262349,0.03814 -0.36701,0.07434 -0.232579,0.08044 0.215022,0.0098 0.24442,0.04637 0.24442,0.304392 0,0.452191 -0.115708,0.506615 -1.0770649,0.506615 -1.0934472,0 -1.1449321,-0.02041 -1.1449321,-0.453908 0,-0.295027 0.029466,-0.348271 0.1999797,-0.361351 0.1099889,-0.0084 -0.059042,-0.03843 -0.3756234,-0.06666 C 7.9357754,26.691698 7.8370884,26.556664 7.8351267,25.65846 l -0.00131,-0.599939 h -2.538271 c -1.3960491,0 -2.8059061,0.03771 -3.1330154,0.0838 -0.3271094,0.04609 -0.8106477,0.10078 -1.0745294,0.121538 l -0.47978506,0.03774 0.0589277,-1.121436 C 0.69955374,23.563373 0.76398624,22.538779 0.8103268,21.903288 0.93382473,20.209691 0.91961123,18.771106 0.7574476,16.551305 0.6781119,15.465306 0.63674641,14.515402 0.6655244,14.440408 0.7112988,14.321122 1.1464987,14.304055 4.1425124,14.304055 h 3.4246645 v -0.488839 -0.48884 h 5.9105111 c 3.250781,0 5.910511,0.0194 5.910511,0.04312 0,0.02371 -0.122851,0.413674 -0.273003,0.866578 -0.42465,1.280877 -0.309706,1.223421 -2.447539,1.223421 -0.990418,0 -1.893354,0.03642 -2.006525,0.08093 -0.113171,0.04451 -0.585727,0.445463 -1.050124,0.891001 l -0.844359,0.810068 8.115615,-0.03229 8.115615,-0.03229 0.129583,-0.249772 c 0.07127,-0.137374 0.110414,-0.268939 0.08699,-0.292365 -0.02343,-0.02343 -0.274117,-0.06747 -0.557089,-0.09788 l -0.514493,-0.05528 v -0.888799 -0.888799 l 0.507375,-0.0452 c 0.279056,-0.02486 0.557028,-0.09485 0.617715,-0.155539 0.06069,-0.06069 0.182333,-0.11034 0.270324,-0.11034 0.124663,0 0.159983,-0.0712 0.159983,-0.322491 0,-0.275614 0.07106,-0.389685 0.48884,-0.784748 0.419795,-0.396968 0.488839,-0.508337 0.488839,-0.788508 v -0.32625 h 0.399959 c 0.219978,0 0.39996,0.04 0.39996,0.08888 0,0.04888 0.09923,0.08888 0.220506,0.08888 0.169019,0 0.232335,-0.05707 0.271163,-0.24442 0.02786,-0.134431 0.140522,-0.424401 0.250356,-0.644379 l 0.199698,-0.399959 1.965563,-0.0239 1.965562,-0.0239 0.186777,0.237448 c 0.102727,0.130596 0.211964,0.21226 0.242749,0.181475 0.03078,-0.03078 0.06022,-0.386855 0.06541,-0.791267 l 0.0094,-0.7352951 -1.310643,-0.02459 c -1.160993,-0.02179 -1.35597,-0.0039 -1.707623,0.1562511 -0.305924,0.139364 -0.565932,0.178471 -1.133554,0.170492 -0.405115,-0.0057 -1.726472,-0.0027 -2.93635,0.0066 l -2.199776,0.01699 v -1.6985701 -1.69857 l 2.228991,0.05483 c 1.650682,0.0406 2.296378,0.02692 2.488717,-0.05275 0.20106,-0.08328 0.288536,-0.08367 0.387283,-0.0017 0.09877,0.08197 0.173019,0.08153 0.328971,-0.0019 0.149081,-0.07979 0.210214,-0.08139 0.235287,-0.0062 0.01863,0.05589 0.170529,0.101625 0.337548,0.101625 0.16702,0 0.303673,0.04 0.303673,0.08888 0,0.05577 0.562906,0.08888 1.510958,0.08888 h 1.510958 v -0.444394 -0.444399 h 0.933239 0.933238 v 0.444399 0.4444 h 0.981395 c 1.353321,0 1.364213,-0.0111 1.301643,-1.326368 -0.04437,-0.932688 -0.03683,-0.991388 0.1436,-1.117766 0.27869,-0.195202 2.03048,-0.188183 2.36509,0.0095 l 0.241841,0.142859 -0.035,0.977372 c -0.032,0.893683 -0.01951,0.991801 0.145896,1.145898 0.109508,0.102023 0.309708,0.168528 0.507318,0.168528 0.324427,0 0.326111,-0.0019 0.275112,-0.316205 -0.08955,-0.551809 -0.05431,-0.572594 0.970802,-0.572594 h 0.92373 v 0.4444 0.444399 h 0.367491 c 0.202121,0 0.632078,-0.04166 0.955459,-0.09257 1.698892,-0.267483 2.934813,-0.468568 4.054282,-0.659635 0.684375,-0.116806 1.508903,-0.255317 1.832285,-0.307802 0.335417,-0.05444 1.872029,-0.09543 3.577415,-0.09543 h 2.989495 v 2.535148 2.5351511 l -3.355216,-0.02483 c -3.55175,-0.02628 -3.616564,-0.03193 -6.46601,-0.563729 -0.635491,-0.118603 -1.281022,-0.215612 -1.434514,-0.215576 -0.153492,3.6e-5 -0.667843,-0.07993 -1.143002,-0.177695 -0.47516,-0.09777 -0.979512,-0.1777591 -1.120783,-0.1777591 H 46.58544 v 0.8887981 0.888799 h -1.893142 c -1.353936,0 -1.923518,0.03038 -1.999797,0.106656 -0.12881,0.12881 -0.142798,0.604383 -0.01778,0.604383 0.04888,0 0.08888,-0.04 0.08888,-0.08888 0,-0.04888 0.09999,-0.08888 0.2222,-0.08888 0.12221,0 0.2222,0.04 0.2222,0.08888 0,0.04888 0.09999,0.08888 0.222199,0.08888 0.12221,0 0.2222,-0.04 0.2222,-0.08888 0,-0.04888 0.07999,-0.08888 0.17776,-0.08888 0.09777,0 0.177759,0.04 0.177759,0.08888 0,0.04888 0.09999,0.08888 0.2222,0.08888 0.12221,0 0.2222,-0.04 0.2222,-0.08888 0,-0.04888 0.07999,-0.08888 0.17776,-0.08888 0.09777,0 0.177759,0.04 0.177759,0.08888 0,0.04888 0.09999,0.08888 0.2222,0.08888 0.12221,0 0.2222,-0.04 0.2222,-0.08888 0,-0.04888 0.09999,-0.08888 0.222199,-0.08888 0.12221,0 0.2222,0.04 0.2222,0.08888 0,0.04888 0.07999,0.08888 0.17776,0.08888 0.09777,0 0.177759,-0.04 0.177759,-0.08888 0,-0.04888 0.09999,-0.08888 0.2222,-0.08888 0.12221,0 0.2222,0.04 0.2222,0.08888 0,0.04888 0.09999,0.08888 0.2222,0.08888 0.122209,0 0.222199,-0.04 0.222199,-0.08888 0,-0.04888 0.07999,-0.08888 0.17776,-0.08888 0.09777,0 0.17776,0.04 0.17776,0.08888 0,0.04888 0.09999,0.08888 0.222199,0.08888 0.12221,0 0.2222,-0.04 0.2222,-0.08888 0,-0.04888 0.09999,-0.08888 0.2222,-0.08888 0.12221,0 0.222199,0.04 0.222199,0.08888 0,0.04888 0.09999,0.08888 0.2222,0.08888 0.12221,0 0.2222,-0.04 0.2222,-0.08888 0,-0.04888 0.07999,-0.08888 0.177759,-0.08888 0.09777,0 0.17776,0.04 0.17776,0.08888 0,0.04888 0.09999,0.08888 0.2222,0.08888 0.12221,0 0.2222,-0.04 0.2222,-0.08888 0,-0.04888 0.09999,-0.08888 0.222199,-0.08888 0.12221,0 0.2222,0.04 0.2222,0.08888 0,0.04888 0.09999,0.08888 0.2222,0.08888 0.122209,0 0.222199,-0.04 0.222199,-0.08888 0,-0.04888 0.07999,-0.08888 0.17776,-0.08888 0.09777,0 0.17776,0.04 0.17776,0.08888 0,0.04888 0.09999,0.08888 0.222199,0.08888 0.12221,0 0.2222,-0.04 0.2222,-0.08888 0,-0.04888 0.219978,-0.08888 0.488839,-0.08888 h 0.48884 v 0.342003 c 0,0.336918 0.0099,0.346878 0.663367,0.669857 0.364852,0.180319 0.687179,0.366383 0.716284,0.413475 0.03046,0.04929 0.672948,0.08562 1.51419,0.08562 h 1.461272 v -0.2222 c 0,-0.162946 0.0474,-0.2222 0.17776,-0.2222 0.217901,0 0.228331,-0.152322 0.02575,-0.376167 -0.131131,-0.144898 -0.134182,-0.179238 -0.02222,-0.250057 0.178135,-0.112675 1.774063,-0.109018 1.774063,0.0041 0,0.04888 0.09999,0.08888 0.2222,0.08888 0.12221,0 0.2222,-0.04 0.2222,-0.08888 0,-0.04888 0.07999,-0.08888 0.17776,-0.08888 0.09777,0 0.177759,0.04 0.177759,0.08888 0,0.04888 0.09999,0.08888 0.2222,0.08888 0.12221,0 0.2222,-0.04 0.2222,-0.08888 0,-0.04888 0.09999,-0.08888 0.222199,-0.08888 0.12221,0 0.2222,0.04 0.2222,0.08888 0,0.04888 0.09999,0.08888 0.2222,0.08888 0.122209,0 0.222199,-0.04 0.222199,-0.08888 0,-0.04888 0.07999,-0.08888 0.17776,-0.08888 0.09777,0 0.17776,0.04 0.17776,0.08888 0,0.04888 0.09999,0.08888 0.222199,0.08888 0.12221,0 0.2222,-0.04 0.2222,-0.08888 0,-0.04888 0.09999,-0.08888 0.2222,-0.08888 0.12221,0 0.2222,0.04 0.2222,0.08888 0,0.04888 0.09999,0.08888 0.222199,0.08888 0.12221,0 0.2222,-0.04 0.2222,-0.08888 0,-0.04888 0.07999,-0.08888 0.17776,-0.08888 0.09777,0 0.177759,0.04 0.177759,0.08888 0,0.04888 0.09999,0.08888 0.2222,0.08888 0.12221,0 0.2222,-0.04 0.2222,-0.08888 0,-0.04888 0.09999,-0.08888 0.222199,-0.08888 0.12221,0 0.2222,0.04 0.2222,0.08888 0,0.04888 0.07999,0.08888 0.17776,0.08888 0.09777,0 0.17776,-0.04 0.17776,-0.08888 0,-0.04888 0.09999,-0.08888 0.222199,-0.08888 0.12221,0 0.2222,0.04 0.2222,0.08888 0,0.04888 0.09999,0.08888 0.2222,0.08888 0.122209,0 0.222199,-0.04 0.222199,-0.08888 0,-0.04888 0.07999,-0.08888 0.17776,-0.08888 0.09777,0 0.17776,0.04 0.17776,0.08888 0,0.04888 0.09999,0.08888 0.222199,0.08888 0.12221,0 0.2222,-0.04 0.2222,-0.08888 0,-0.04888 0.07999,-0.08888 0.17776,-0.08888 0.09777,0 0.17776,0.04 0.17776,0.08888 0,0.04888 0.09999,0.08888 0.222199,0.08888 0.12221,0 0.2222,-0.04 0.2222,-0.08888 0,-0.04888 0.09999,-0.08888 0.2222,-0.08888 0.122209,0 0.222199,0.04 0.222199,0.08888 0,0.04888 0.09999,0.08888 0.2222,0.08888 0.12221,0 0.2222,-0.04 0.2222,-0.08888 0,-0.04888 0.07999,-0.08888 0.177759,-0.08888 0.09777,0 0.17776,0.04 0.17776,0.08888 0,0.04888 0.09999,0.08888 0.2222,0.08888 0.12221,0 0.222199,-0.04 0.222199,-0.08888 0,-0.04888 0.09999,-0.08888 0.2222,-0.08888 0.12221,0 0.2222,0.04 0.2222,0.08888 0,0.04888 0.09999,0.08888 0.222199,0.08888 0.12221,0 0.2222,-0.04 0.2222,-0.08888 0,-0.04888 0.07999,-0.08888 0.17776,-0.08888 0.09777,0 0.17776,0.04 0.17776,0.08888 0,0.04888 0.09999,0.08888 0.222199,0.08888 0.12221,0 0.2222,-0.04 0.2222,-0.08888 0,-0.04888 0.09999,-0.08888 0.2222,-0.08888 0.122209,0 0.222199,0.04 0.222199,0.08888 0,0.04888 0.07999,0.08888 0.17776,0.08888 0.09777,0 0.17776,-0.04 0.17776,-0.08888 0,-0.04888 0.09999,-0.08888 0.222199,-0.08888 0.12221,0 0.2222,0.04 0.2222,0.08888 0,0.04888 0.09999,0.08888 0.2222,0.08888 0.12221,0 0.222199,-0.04 0.222199,-0.08888 0,-0.04888 0.07999,-0.08888 0.17776,-0.08888 0.09777,0 0.17776,0.04 0.17776,0.08888 0,0.04888 0.09999,0.08888 0.2222,0.08888 0.122209,0 0.222199,-0.04 0.222199,-0.08888 0,-0.04888 0.09999,-0.08888 0.2222,-0.08888 0.12221,0 0.2222,0.04 0.2222,0.08888 0,0.04888 0.09999,0.08888 0.222199,0.08888 0.12221,0 0.2222,-0.04 0.2222,-0.08888 0,-0.04888 0.07999,-0.08888 0.17776,-0.08888 0.09777,0 0.177759,0.04 0.177759,0.08888 0,0.04888 0.09999,0.08888 0.2222,0.08888 0.12221,0 0.2222,-0.04 0.2222,-0.08888 0,-0.04888 0.09999,-0.08888 0.2222,-0.08888 0.122209,0 0.222199,0.04 0.222199,0.08888 0,0.04888 0.09999,0.08888 0.2222,0.08888 0.12221,0 0.2222,-0.04 0.2222,-0.08888 0,-0.04888 0.07999,-0.08888 0.177759,-0.08888 0.09777,0 0.17776,0.04 0.17776,0.08888 0,0.04888 0.09999,0.08888 0.2222,0.08888 0.12221,0 0.222199,-0.04 0.222199,-0.08888 0,-0.04888 0.09999,-0.08888 0.2222,-0.08888 0.12221,0 0.2222,0.04 0.2222,0.08888 0,0.04888 0.09999,0.08888 0.222199,0.08888 0.12221,0 0.2222,-0.04 0.2222,-0.08888 0,-0.04888 0.07999,-0.08888 0.17776,-0.08888 0.09777,0 0.17776,0.04 0.17776,0.08888 0,0.04888 0.09999,0.08888 0.222199,0.08888 0.12221,0 0.2222,-0.04 0.2222,-0.08888 0,-0.04888 0.09999,-0.08888 0.2222,-0.08888 0.122209,0 0.222199,0.04 0.222199,0.08888 0,0.04888 0.07999,0.08888 0.17776,0.08888 0.09777,0 0.17776,-0.04 0.17776,-0.08888 0,-0.04888 0.09999,-0.08888 0.222199,-0.08888 0.17607,0 0.2222,-0.04485 0.2222,-0.216037 0,-0.11882 0.08999,-0.357103 0.19998,-0.529517 l 0.19998,-0.313481 1.777597,-0.0031 1.777597,-0.0032 0.19998,0.293752 c 0.118139,0.173536 0.19998,0.427903 0.19998,0.621552 0,0.232124 0.03891,0.3278 0.13332,0.3278 0.07332,0 0.133319,-0.04 0.133319,-0.08888 0,-0.04888 0.129987,-0.08781 0.28886,-0.08649 0.271481,0.0022 0.304109,0.03834 0.542317,0.59994 0.139403,0.328652 0.33622,0.78753 0.437373,1.019729 l 0.183914,0.422179 h 9.751226 c 9.492502,0 9.752392,-0.0045 9.795222,-0.168237 0.0419,-0.160375 0.15975,-0.167644 2.52122,-0.15554 l 2.47723,0.0127 0.0263,0.599939 c 0.0216,0.493243 0.002,0.599939 -0.1111,0.599939 -0.17621,0 -0.17936,0.231513 -0.004,0.298781 0.16961,0.06509 0.19058,1.077422 0.0244,1.1801 -0.0599,0.03701 -1.14977,0.05888 -2.42197,0.04859 -1.2722,-0.01029 -2.35842,-0.01821 -2.41383,-0.01761 -0.0554,6.22e-4 -0.11903,-0.0689 -0.1414,-0.154447 -0.0385,-0.147117 -0.56844,-0.154294 -9.787144,-0.132542 l -9.74646,0.023 v 0.354742 0.354741 h -0.533279 -0.533279 v 0.426624 c 0,0.234643 -0.048,0.474618 -0.106656,0.533279 -0.150104,0.150104 -0.426623,0.132821 -0.426623,-0.02666 0,-0.08295 -0.08394,-0.13332 -0.2222,-0.13332 -0.138258,0 -0.2222,0.05037 -0.2222,0.13332 0,0.07407 -0.079,0.13332 -0.177759,0.13332 -0.09876,0 -0.17776,-0.05925 -0.17776,-0.13332 0,-0.176363 -0.408865,-0.176363 -0.476541,0 -0.06677,0.173991 -0.412258,0.173991 -0.412258,0 0,-0.08295 -0.08394,-0.13332 -0.2222,-0.13332 -0.138258,0 -0.222199,0.05037 -0.222199,0.13332 0,0.07407 -0.079,0.13332 -0.17776,0.13332 -0.09875,0 -0.17776,-0.05925 -0.17776,-0.13332 0,-0.08136 -0.08289,-0.13332 -0.21269,-0.13332 -0.11698,0 -0.235712,0.05999 -0.263851,0.13332 -0.06612,0.172305 -0.313996,0.172305 -0.380116,0 -0.06768,-0.176363 -0.476541,-0.176363 -0.476541,0 0,0.173242 -0.256899,0.173242 -0.323378,0 -0.06635,-0.172898 -0.442335,-0.172898 -0.508682,0 -0.06605,0.172133 -0.289466,0.172133 -0.35552,0 -0.06795,-0.177082 -0.501137,-0.177082 -0.501137,0 0,0.173242 -0.2569,0.173242 -0.323378,0 -0.02814,-0.07333 -0.142592,-0.13332 -0.254342,-0.13332 -0.111749,0 -0.226202,0.05999 -0.254341,0.13332 -0.02814,0.07333 -0.112408,0.13332 -0.187269,0.13332 -0.07486,0 -0.136109,-0.05999 -0.136109,-0.13332 0,-0.08888 -0.08888,-0.13332 -0.266639,-0.13332 -0.17776,0 -0.26664,0.04444 -0.26664,0.13332 0,0.173242 -0.256899,0.173242 -0.323378,0 -0.06635,-0.172898 -0.442335,-0.172898 -0.508682,0 -0.02814,0.07333 -0.112408,0.13332 -0.187269,0.13332 -0.07486,0 -0.136109,-0.05999 -0.136109,-0.13332 0,-0.177082 -0.433186,-0.177082 -0.501138,0 -0.06605,0.172133 -0.289466,0.172133 -0.355519,0 -0.06768,-0.176363 -0.476541,-0.176363 -0.476541,0 0,0.07407 -0.079,0.13332 -0.17776,0.13332 -0.09875,0 -0.17776,-0.05925 -0.17776,-0.13332 0,-0.176363 -0.408864,-0.176363 -0.476541,0 -0.06612,0.172305 -0.313996,0.172305 -0.380116,0 -0.06768,-0.176363 -0.476541,-0.176363 -0.476541,0 0,0.07407 -0.079,0.13332 -0.17776,0.13332 -0.09875,0 -0.177759,-0.05925 -0.177759,-0.13332 0,-0.08295 -0.08394,-0.13332 -0.2222,-0.13332 -0.138258,0 -0.2222,0.05037 -0.2222,0.13332 0,0.173991 -0.345491,0.173991 -0.412257,0 -0.06656,-0.173442 -0.387661,-0.173442 -0.387661,0 0,0.07475 -0.07932,0.13332 -0.180549,0.13332 -0.0993,0 -0.203572,-0.05999 -0.231709,-0.13332 -0.06621,-0.172534 -0.353595,-0.172534 -0.419803,0 -0.02814,0.07333 -0.132406,0.13332 -0.231709,0.13332 -0.101234,0 -0.180549,-0.05857 -0.180549,-0.13332 0,-0.08295 -0.08394,-0.13332 -0.222199,-0.13332 -0.138258,0 -0.2222,0.05037 -0.2222,0.13332 0,0.07407 -0.079,0.13332 -0.17776,0.13332 -0.09876,0 -0.177759,-0.05925 -0.177759,-0.13332 0,-0.08295 -0.08394,-0.13332 -0.2222,-0.13332 -0.138258,0 -0.2222,0.05037 -0.2222,0.13332 0,0.111923 -0.192573,0.13332 -1.199878,0.13332 h -1.199878 v 1.273265 c 0,1.21601 -0.0092,1.281955 -0.205708,1.466518 l -0.205708,0.193253 h -6.262746 c -5.524425,0 -6.286034,-0.01631 -6.460282,-0.13836 -0.108645,-0.0761 -0.197537,-0.196086 -0.197537,-0.266639 0,-0.154777 0.10674,-0.15521 -1.244318,0.005 -0.611049,0.07248 -1.120997,0.132123 -1.133218,0.132548 -0.01222,4.44e-4 -0.02222,1.094643 -0.02222,2.431596 v 2.430825 L 47.71873,26.20239 c -0.892132,0.106104 -1.762043,0.191669 -1.933137,0.190145 -0.171094,-0.0015 -1.19099,0.09623 -2.266437,0.217226 -3.491215,0.392801 -5.41392,0.58647 -5.799411,0.58416 l -0.37774,-0.0023 v -2.39977 -2.399757 h -0.561488 -0.561488 l -0.149551,0.474431 c -0.08225,0.260937 -0.149551,0.561511 -0.149551,0.667941 0,0.366136 -0.293824,1.257385 -0.414531,1.257385 -0.06531,0 -0.118748,-0.01265 -0.118748,-0.02812 0,-0.170262 0.227298,-1.206166 0.361548,-1.647744 0.215665,-0.709368 0.214987,-0.723896 -0.03375,-0.723896 -0.196383,0 -0.594434,0.412112 -0.594434,0.615433 0,0.04914 -0.08999,0.136742 -0.199979,0.194664 -0.109989,0.05792 -0.228444,0.14932 -0.263232,0.203107 -0.0949,0.146726 -2.868276,0.185288 -3.291963,0.04577 -0.183315,-0.06036 -0.3333,-0.143345 -0.3333,-0.184405 0,-0.04106 -0.04422,-0.07465 -0.09827,-0.07465 -0.05405,0 -0.2171,-0.09999 -0.362339,-0.2222 -0.145238,-0.12221 -0.370989,-0.22131 -0.50167,-0.220223 -0.423736,0.0035 -0.808835,0.447584 -0.821815,0.947639 -0.0036,0.137645 -0.08297,0.370251 -0.17644,0.516902 -0.268019,0.420518 -0.350343,0.65437 -0.350343,0.995195 0,0.174361 -0.08381,0.452635 -0.186253,0.618386 -0.157825,0.255365 -0.17697,0.381349 -0.125431,0.825411 0.05821,0.501565 0.0505,0.530811 -0.179773,0.681693 -0.300733,0.197047 -1.404784,0.479427 -1.81942,0.465347 -0.171094,-0.0058 -0.691041,-0.04655 -1.155438,-0.09054 z m 9.26329,-4.628706 c 0.34363,-0.26765 0.602375,-0.799815 0.602375,-1.238915 0,-0.541819 -0.17296,-0.888466 -0.563835,-1.130041 -0.241688,-0.149371 -0.445491,-0.18634 -1.027269,-0.18634 -0.691061,0 -0.738369,0.0129 -0.989407,0.269704 -0.368766,0.377242 -0.363685,0.828854 0.01431,1.271373 0.152873,0.17897 0.332854,0.3254 0.39996,0.3254 0.06711,0 0.122009,0.04 0.122009,0.08888 0,0.240218 -0.58863,-0.05451 -0.868638,-0.434923 -0.279679,-0.37997 -0.328278,-0.715833 -0.16138,-1.115277 0.07767,-0.185892 0.14122,-0.353099 0.14122,-0.371571 0,-0.01847 -0.175703,-0.03359 -0.39045,-0.03359 -0.265077,0 -0.406878,0.04281 -0.441611,0.13332 -0.02814,0.07333 -0.105436,0.133319 -0.171775,0.133319 -0.06634,0 -0.217579,0.103212 -0.33609,0.22936 -0.187547,0.199636 -0.215472,0.313713 -0.215472,0.880235 0,0.595573 0.02073,0.670083 0.243949,0.876959 0.134173,0.124346 0.314154,0.26697 0.39996,0.316941 0.235387,0.137084 3.063718,0.12414 3.242149,-0.01484 z m 72.010079,-6.60884 c 0.11356,-0.04358 0.14059,-0.205324 0.14059,-0.841232 0,-0.855222 -0.0675,-0.971296 -0.56461,-0.971296 -0.48054,0 -0.50195,0.04211 -0.50195,0.987188 v 0.87929 h 0.39269 c 0.21598,0 0.45596,-0.02428 0.53328,-0.05395 z m 1.81068,-0.776978 c 0.0165,-0.503447 -0.0114,-0.831305 -0.0776,-0.911019 -0.13986,-0.168523 -0.7459,-0.158547 -0.91959,0.01514 -0.17663,0.176625 -0.19952,1.453643 -0.0291,1.624046 0.0669,0.0669 0.28622,0.100239 0.5555,0.08444 l 0.44495,-0.02611 z m -59.384831,-1.96992 c 0.02838,-0.07395 0.0022,-0.193936 -0.05811,-0.266639 -0.0951,-0.114584 -0.900513,-0.132189 -6.047722,-0.132189 H 36.90964 l -0.189864,0.26664 -0.189864,0.26664 h 6.185993 c 5.439814,0 6.192216,-0.01622 6.237586,-0.134452 z m -4.322167,-2.62314 c 0.053,-0.09904 0.08441,-0.40901 0.06979,-0.688819 -0.02532,-0.4844611 -0.03854,-0.5101141 -0.277025,-0.5374481 -0.178777,-0.02049 -0.311082,0.03673 -0.462375,0.1999801 -0.209635,0.226199 -0.226514,0.228684 -1.553623,0.228684 -1.322058,0 -1.344742,-0.0033 -1.550588,-0.225409 C 40.656299,9.8619549 40.61467,9.8545809 39.728524,9.8790719 l -0.920073,0.02543 -0.02659,0.5087441 c -0.04849,0.927896 -0.24946,0.868894 2.959623,0.868894 2.71447,0 2.796186,-0.0051 2.889835,-0.180075 z"
   id="path144" /></svg>
