<?xml version="1.0" encoding="UTF-8" standalone="no"?>
<!-- Generator: Adobe Illustrator 16.0.0, SVG Export Plug-In . SVG Version: 6.00 Build 0)  -->

<svg
   version="1.1"
   id="Layer_1"
   x="0px"
   y="0px"
   width="29.624px"
   height="29.438px"
   viewBox="0 0 29.624 29.438"
   enable-background="new 0 0 29.624 29.438"
   xml:space="preserve"
   sodipodi:docname="bumpmine.svg"
   inkscape:version="1.2.1 (9c6d41e410, 2022-07-14)"
   xmlns:inkscape="http://www.inkscape.org/namespaces/inkscape"
   xmlns:sodipodi="http://sodipodi.sourceforge.net/DTD/sodipodi-0.dtd"
   xmlns="http://www.w3.org/2000/svg"
   xmlns:svg="http://www.w3.org/2000/svg"><defs
   id="defs70" /><sodipodi:namedview
   id="namedview68"
   pagecolor="#ffffff"
   bordercolor="#000000"
   borderopacity="0.25"
   inkscape:showpageshadow="2"
   inkscape:pageopacity="0.0"
   inkscape:pagecheckerboard="0"
   inkscape:deskcolor="#d1d1d1"
   showgrid="false"
   inkscape:zoom="6.9128338"
   inkscape:cx="20.107528"
   inkscape:cy="22.711381"
   inkscape:window-width="1920"
   inkscape:window-height="1017"
   inkscape:window-x="-8"
   inkscape:window-y="-8"
   inkscape:window-maximized="1"
   inkscape:current-layer="Layer_1" />

<path
   style="fill:#ffffff;stroke-width:0.0453763"
   d="m 3.4103978,29.064544 c 0.015415,-0.02497 0.010217,-0.04538 -0.011561,-0.04538 -0.1070563,0 -0.042648,-1.025073 0.2377417,-3.784076 0.1626015,-1.599918 0.3373434,-3.256076 0.3883124,-3.680345 0.05097,-0.424269 0.1216975,-1.04706 0.1571708,-1.383978 0.074154,-0.704238 0.1086342,-0.910121 0.1641394,-0.980115 0.063207,-0.07971 0.2181539,-1.631906 0.2157002,-2.160778 -0.00107,-0.265386 0.021191,-0.595354 0.049813,-0.73326 0.058846,-0.283484 0.1057729,-0.31485 0.4401945,-0.294287 0.1747597,0.01076 0.2214469,-0.004 0.2768177,-0.08738 l 0.066607,-0.100312 -0.8790281,-0.0014 C 3.3314163,15.810984 2.7653272,15.757264 2.4909881,15.62049 2.2217958,15.486284 2.0414123,15.209444 1.9804034,14.836886 1.931347,14.537302 1.9284635,9.8920457 1.9752414,6.6032955 2.0079219,4.3070675 1.9883243,4.4466521 2.3364045,4.0302587 2.5992093,3.7158593 2.9205231,3.614143 3.7634157,3.5785175 c 0.3798219,-0.016064 0.7039987,-0.049751 0.7203995,-0.074893 0.019954,-0.030571 0.2228397,-0.028168 0.6125805,0.00721 0.665058,0.060377 2.0574984,0.070737 2.0574984,0.015308 0,-0.020319 -0.091899,-0.1057987 -0.204214,-0.1899581 C 6.5855212,3.0633341 6.2009896,2.5528446 6.2009896,2.3422592 c 0,-0.1102184 0.019553,-0.1404684 0.090753,-0.1404684 0.059416,0 0.090753,-0.030242 0.090753,-0.087602 0,-0.056292 0.036481,-0.092778 0.1020981,-0.1020945 0.066536,-0.00945 0.1024683,-0.04611 0.1031696,-0.1052531 7.271e-4,-0.062477 0.026824,-0.086294 0.083668,-0.076441 0.068111,0.01181 0.078284,-0.0081 0.058019,-0.1134428 -0.021849,-0.1134934 0.00801,-0.1545933 0.267596,-0.368291 0.335842,-0.2764946 0.5229139,-0.3259551 1.2345354,-0.3264018 0.4213542,-2.733e-4 0.4853357,0.026175 0.3429557,0.1416529 -0.065388,0.053044 -0.071075,0.05283 -0.038368,-0.00142 0.026059,-0.043262 0.021591,-0.053328 -0.013991,-0.031372 -0.1158057,0.071573 -0.048852,0.1539543 0.1397305,0.1719402 0.1662683,0.015851 0.2065004,0.00107 0.2989839,-0.1086743 0.081701,-0.097103 0.145964,-0.1267348 0.2729863,-0.1258884 0.3072172,0.00223 0.56304,0.089213 0.7454047,0.2539654 0.1600602,0.1446085 0.1846982,0.1535654 0.2528232,0.09191 0.05944,-0.053791 0.09476,-0.057271 0.166212,-0.016358 0.05881,0.03366 0.561589,0.062709 1.429326,0.082538 1.793231,0.040984 1.713474,0.025303 1.957683,0.3854074 l 0.196977,0.2904675 h 0.322367 c 0.177301,0 0.507506,0.013154 0.733783,0.029192 l 0.41142,0.029192 0.140319,-0.2779702 c 0.106435,-0.2108444 0.170392,-0.2855459 0.264856,-0.3093283 0.06849,-0.01723 0.755462,-0.00905 1.526598,0.018209 0.915475,0.032351 1.442417,0.034202 1.51834,0.00534 0.06395,-0.024315 0.160554,-0.033081 0.214671,-0.019518 0.06248,0.015664 0.145521,-0.012398 0.227478,-0.076886 0.12438,-0.097889 0.163855,-0.1015899 1.083162,-0.1015899 1.286543,0 1.33194,0.00942 1.686702,0.3500819 0.2349,0.2255649 0.277611,0.2885292 0.241484,0.3560333 -0.06171,0.1153029 -0.05579,0.1333483 0.04371,0.1333483 0.05629,0 0.09278,0.03649 0.102095,0.1020964 0.0097,0.068164 0.0409,0.097668 0.09391,0.088768 0.05502,-0.00923 0.0794,0.016465 0.0794,0.08365 0,0.058828 0.0357,0.1063291 0.09075,0.1207229 0.191132,0.049982 0.109179,0.2298662 -0.2836,0.6224933 -0.205897,0.2058133 -0.433625,0.418645 -0.50607,0.4729586 -0.07244,0.054316 -0.120571,0.1098935 -0.106958,0.1235077 0.01364,0.013635 0.58337,0.036774 1.266123,0.051459 0.682753,0.014685 1.252015,0.042862 1.265024,0.062602 0.01301,0.01974 0.276572,0.057849 0.58569,0.084692 0.712544,0.061872 1.00934,0.1805767 1.234961,0.4939259 0.282194,0.3919213 0.307017,0.6081662 0.309169,2.6931955 0.0011,1.184079 -0.01436,1.8564721 -0.04347,1.8744535 -0.0624,0.038563 -0.06025,1.3963338 0.0022,1.4588908 0.03232,0.03232 0.04277,0.667879 0.03246,1.971604 -0.01341,1.694118 -0.02483,1.952703 -0.09562,2.164856 -0.09337,0.279799 -0.330521,0.56296 -0.540878,0.645832 -0.08084,0.03184 -0.278533,0.119938 -0.439318,0.195759 -0.283437,0.133661 -0.316322,0.138452 -1.080326,0.157375 -0.665527,0.01647 -0.784058,0.02977 -0.762667,0.08551 0.01392,0.03631 0.02534,0.08474 0.02534,0.10766 0,0.0229 0.08872,0.04166 0.197159,0.04166 0.340451,0 0.453959,0.209808 0.466427,0.862151 0.0079,0.41686 0.03808,0.58145 0.240756,1.315917 0.127408,0.461705 0.292085,0.96198 0.365947,1.111722 0.07387,0.149741 0.184203,0.466241 0.245197,0.703333 0.06099,0.237092 0.185546,0.713689 0.276775,1.059106 0.09123,0.345416 0.173823,0.702756 0.183531,0.794091 0.0097,0.09133 0.100692,0.462138 0.202182,0.824013 0.309165,1.102398 0.592843,2.13382 0.705126,2.563767 0.05866,0.224614 0.199511,0.755517 0.313004,1.179786 0.188253,0.703751 0.261078,1.116858 0.313974,1.781025 0.018,0.226133 0.01348,0.238226 -0.08931,0.238226 -0.066,0 -0.108288,-0.02658 -0.108288,-0.06807 0,-0.03743 -0.02723,-0.06807 -0.06054,-0.06807 -0.03329,0 -0.144939,-0.178671 -0.248099,-0.397043 -0.189027,-0.400156 -0.387727,-1.113765 -1.73412,-6.227916 -0.268134,-1.018482 -0.512172,-1.851063 -0.585212,-1.996562 -0.0689,-0.137262 -0.223124,-0.630402 -0.342709,-1.095866 -0.119582,-0.46546 -0.233137,-0.871719 -0.25234,-0.902794 -0.01919,-0.03108 -0.06442,-0.04518 -0.100463,-0.03134 -0.08718,0.03345 -0.669641,1.414636 -0.669641,1.587923 0,0.07468 -0.257986,0.740708 -0.573301,1.480064 -0.31532,0.73936 -0.590644,1.405544 -0.611832,1.480416 -0.02119,0.07487 -0.268581,0.671423 -0.549761,1.32567 -0.543931,1.265611 -0.746611,1.601107 -0.967262,1.601107 -0.133875,0 -0.137812,-0.04727 -0.04228,-0.507516 0.0617,-0.297312 0.947325,-2.612922 1.020711,-2.668832 0.06958,-0.05301 1.225215,-2.984313 1.224917,-3.107033 -1.82e-4,-0.07419 0.103195,-0.384477 0.229724,-0.689539 l 0.230055,-0.554661 -0.100077,-0.135364 c -0.083,-0.112266 -0.103323,-0.211397 -0.119096,-0.581 -0.02828,-0.66263 -0.0184,-0.640454 -0.274506,-0.615842 -0.24137,0.02319 -0.619163,-0.05977 -0.577699,-0.126858 0.01505,-0.02431 -0.04392,-0.04326 -0.134762,-0.04326 -0.155386,0 -0.161492,-0.0062 -0.161492,-0.164542 v -0.16454 l -2.257477,0.03246 c -1.241613,0.01784 -4.416826,0.03497 -7.056033,0.03799 l -4.7985551,0.0055 v 0.177611 c 0,0.174171 -0.00258,0.177068 -0.1397777,0.149654 -0.092552,-0.0185 -0.1617213,-0.006 -0.2047337,0.03701 -0.035733,0.03573 -0.1566039,0.0787 -0.2686138,0.0955 -0.1120064,0.01679 -0.2036506,0.04865 -0.2036506,0.07076 0,0.02213 0.021627,0.04023 0.048051,0.04023 0.026424,0 0.035439,0.02043 0.020034,0.04538 -0.015415,0.02494 -0.099649,0.04537 -0.1871662,0.04537 -0.2629365,0 -0.334661,0.06446 -0.334661,0.30079 0,0.163737 -0.017631,0.211463 -0.084674,0.228991 -0.065824,0.0172 -0.09075,0.08026 -0.111953,0.283106 -0.039177,0.374834 -0.060911,0.412277 -0.2393055,0.412277 -0.084683,0 -0.1539605,0.0076 -0.1539605,0.0168 0,0.0092 0.041456,0.255531 0.092116,0.5473 0.063706,0.366873 0.079921,0.575116 0.052572,0.675181 -0.030135,0.110342 0.070585,0.796374 0.4243855,2.889963 0.255158,1.509899 0.4786991,2.934152 0.496757,3.165007 l 0.032823,0.419729 H 6.5340058 c -0.1145953,0 -0.1393852,-0.02595 -0.2057625,-0.215538 C 6.286734,25.100407 6.0354128,23.808881 5.7697467,22.348896 5.4014413,20.324825 5.2932254,19.643512 5.3141153,19.480216 c 0.026353,-0.20609 -0.054129,-0.807183 -0.1079898,-0.806457 -0.046564,7.27e-4 -0.1396326,0.241222 -0.1396326,0.360945 0,0.07711 -0.034425,0.131422 -0.1020981,0.161116 -0.080242,0.03519 -0.1074558,0.09335 -0.127146,0.271674 -0.013777,0.124783 -0.067906,0.359607 -0.120294,0.521827 -0.074056,0.229349 -0.1825133,1.157827 -0.4876265,4.174631 -0.3776548,3.734051 -0.4883306,4.646705 -0.5747586,4.739567 -0.022063,0.0237 -0.040121,0.07986 -0.040121,0.124783 0,0.05738 -0.034567,0.08168 -0.1161173,0.08168 -0.065859,0 -0.1039813,-0.01962 -0.088074,-0.04537 z M 21.644165,3.815889 c 0.02963,-0.077251 -0.08187,-0.1823389 -0.149279,-0.1406757 -0.0273,0.016865 -0.04737,-0.012104 -0.04737,-0.068414 0,-0.059514 -0.03544,-0.1069504 -0.09075,-0.1214101 -0.04991,-0.013047 -0.09075,-0.050774 -0.09075,-0.083828 0,-0.087673 -0.08551,-0.1262916 -0.153917,-0.069517 -0.04409,0.036588 -0.0801,0.026023 -0.141174,-0.041474 -0.04509,-0.049822 -0.09924,-0.09059 -0.12033,-0.09059 -0.04692,0 -0.05004,0.4562276 -0.0036,0.5279521 0.01836,0.028319 0.166065,0.071671 0.328285,0.096315 0.420543,0.063901 0.441314,0.063528 0.468903,-0.00837 z M 8.3357143,3.4903878 c 0.2211745,-0.029334 0.224908,-0.032458 0.224908,-0.1888847 0,-0.087477 0.023959,-0.2389976 0.053222,-0.336708 0.048202,-0.1608856 0.043939,-0.1869481 -0.045149,-0.2760399 l -0.09838,-0.09838 -0.2200078,0.2167006 C 8.0588049,2.9956992 8.013717,3.0196142 7.9022989,2.9916506 7.7968171,2.9651912 7.7791623,2.9722043 7.8019381,3.031549 c 0.019375,0.050489 -0.00223,0.076263 -0.071947,0.086205 -0.064266,0.00916 -0.1048926,0.051611 -0.1145437,0.1197377 -0.00967,0.068182 -0.037264,0.097006 -0.077954,0.08139 -0.070238,-0.026967 -0.1265791,0.041678 -0.1356881,0.1652875 -0.00543,0.073896 0.027697,0.079441 0.3514934,0.058819 0.1966285,-0.012504 0.4587142,-0.036205 0.5824142,-0.052598 z"
   id="path183" /></svg>
