<?xml version="1.0" encoding="UTF-8" standalone="no"?>
<!-- Generator: Adobe Illustrator 16.0.0, SVG Export Plug-In . SVG Version: 6.00 Build 0)  -->

<svg
   version="1.1"
   x="0px"
   y="0px"
   width="76.833px"
   height="32px"
   viewBox="0 0 76.833 32"
   enable-background="new 0 0 76.833 32"
   xml:space="preserve"
   id="svg392"
   sodipodi:docname="knife3.svg"
   inkscape:version="1.2.1 (9c6d41e410, 2022-07-14)"
   xmlns:inkscape="http://www.inkscape.org/namespaces/inkscape"
   xmlns:sodipodi="http://sodipodi.sourceforge.net/DTD/sodipodi-0.dtd"
   xmlns="http://www.w3.org/2000/svg"
   xmlns:svg="http://www.w3.org/2000/svg"><defs
   id="defs396" /><sodipodi:namedview
   id="namedview394"
   pagecolor="#ffffff"
   bordercolor="#000000"
   borderopacity="0.25"
   inkscape:showpageshadow="2"
   inkscape:pageopacity="0.0"
   inkscape:pagecheckerboard="0"
   inkscape:deskcolor="#d1d1d1"
   showgrid="false"
   inkscape:zoom="8.7722723"
   inkscape:cx="54.375877"
   inkscape:cy="9.1196439"
   inkscape:window-width="1920"
   inkscape:window-height="1017"
   inkscape:window-x="-8"
   inkscape:window-y="-8"
   inkscape:window-maximized="1"
   inkscape:current-layer="svg392" />

<g
   id="guides">
</g>
<path
   style="fill:#ffffff;stroke-width:0.105443"
   d="m 1.793768,14.865992 c 0.1178929,-0.237944 0.3029424,-0.47611 0.4112196,-0.529259 0.1130194,-0.05547 2.6447071,-0.06406 5.9441927,-0.02016 3.1610257,0.04212 7.8828477,0.103467 10.4929267,0.136462 2.610083,0.03303 6.050618,0.07741 7.64563,0.09868 5.230246,0.06977 11.92194,0.143357 14.533185,0.159808 l 2.563458,0.01616 0.05175,0.229267 c 0.02846,0.126096 0.09363,0.230682 0.144833,0.232414 0.05118,0.0017 0.07942,0.05622 0.06273,0.121078 -0.06638,0.257826 0.522908,0.221383 0.873627,-0.05403 0.404474,-0.317623 -0.121188,-0.297469 6.389813,-0.244981 2.378446,0.01918 5.752954,0.04016 7.498912,0.04664 5.556999,0.02063 10.31969,0.561794 13.915889,1.581198 2.737874,0.776099 3.176307,0.89559 3.301646,0.899829 0.282491,0.0096 0.701999,0.243743 0.60276,0.336489 -0.09407,0.08791 -4.226578,1.209083 -5.633206,1.528313 -0.580865,0.131828 -2.530067,0.446504 -4.137203,0.667907 -1.137087,0.156647 -4.203222,0.379321 -5.44678,0.395565 -1.623624,0.0212 -3.282592,0.02123 -9.653526,1.14e-4 -2.959028,-0.0098 -5.64228,0.01494 -5.96278,0.05501 -0.524786,0.0656 -0.620942,0.04614 -0.96702,-0.195792 -0.510249,-0.356691 -0.693853,-0.349193 -0.78359,0.03201 -0.04035,0.171414 -0.140086,0.363321 -0.221619,0.42646 -0.21272,0.164724 -3.313456,0.160689 -3.407948,-0.0044 -0.05344,-0.09338 -0.688133,-0.119063 -2.544515,-0.103001 -1.360328,0.01177 -6.818048,0.0403 -12.128266,0.0634 -5.310215,0.0231 -12.195324,0.05386 -15.300241,0.06835 -8.6217867,0.04025 -7.9952825,0.08364 -8.3011303,-0.574917 C 1.439347,19.590433 1.4106219,19.202801 1.6156809,18.577144 1.8267702,17.93309 2.1084684,17.690359 2.6245652,17.707814 2.861321,17.715814 2.9716353,17.669784 2.9753,17.561423 2.97821,17.474473 2.921371,17.40108 2.8489375,17.398305 2.7765025,17.395605 2.5465543,17.339585 2.3379508,17.273964 2.0198545,17.173868 1.9255132,17.069759 1.7531342,16.628534 1.5002739,15.981303 1.5129177,15.432833 1.7937743,14.865985 Z m 6.0794134,1.331256 c 0.1393222,0.235775 0.4666042,0.01738 0.522567,-0.348705 0.067039,-0.438565 -0.1415588,-0.591822 -0.4014001,-0.294903 -0.2359571,0.269631 -0.2616164,0.405929 -0.1211669,0.643608 z m -0.00613,3.538251 c 0.1659177,0.110465 0.5292869,-0.248967 0.5388956,-0.53306 0.00999,-0.296404 -0.2399977,-0.434847 -0.4673554,-0.258785 -0.1854625,0.143616 -0.2342405,0.683524 -0.07154,0.791845 z m 1.3539833,-2.017094 c 0.4202412,0.01336 5.0588853,0.07744 10.3081053,0.142169 5.249219,0.06478 11.181021,0.145769 13.181784,0.179968 2.000762,0.03422 3.981969,0.04768 4.402682,0.02996 0.676719,-0.02852 0.754626,-0.05315 0.675565,-0.2137 -0.05494,-0.111569 -0.04595,-0.253246 0.02334,-0.367795 0.106616,-0.176257 0.04801,-0.184942 -1.084916,-0.160771 -1.068416,0.02279 -9.451115,0.05766 -22.300485,0.09275 -5.0436393,0.01377 -5.9623012,0.04097 -5.9668903,0.176656 -0.0018,0.05301 0.3405734,0.107358 0.7608119,0.120763 z m 2.5523263,-1.378849 c 1.742781,0.03229 2.006079,-0.04493 2.024624,-0.593269 l 0.01114,-0.329595 -1.640435,0.0044 c -1.799049,0.0048 -1.979477,0.05799 -1.945222,0.573458 l 0.02105,0.31675 z m -1.628395,3.24924 c 0.0493,0.14271 0.283967,0.176488 1.515547,0.21814 1.631675,0.05518 1.962692,-0.01009 2.077475,-0.409698 0.149545,-0.520615 -0.03559,-0.579538 -1.769872,-0.563312 -1.799997,0.01684 -2.0432918,0.117577 -1.82315,0.75487 z m 10.492102,-3.383243 c 0.07754,0.132351 0.36386,0.163771 1.653914,0.181495 0.858078,0.01179 1.643992,1.59e-4 1.74648,-0.02584 0.254716,-0.06461 0.435946,-0.407413 0.359481,-0.679958 -0.06178,-0.220201 -0.09902,-0.224866 -1.750869,-0.219303 -1.384247,0.0047 -1.724652,0.03688 -1.892978,0.179165 -0.227969,0.192701 -0.255465,0.32646 -0.116028,0.564437 z m -0.04856,3.419944 c 0.04964,0.143707 0.296439,0.176909 1.657034,0.222926 1.842378,0.0623 2.106238,-0.01414 2.069323,-0.599542 l -0.02102,-0.333462 -1.687422,-0.01843 c -1.959876,-0.02138 -2.241802,0.08037 -2.01791,0.728516 z m 10.632747,-3.244084 c 0.06595,0.02541 0.893292,0.04479 1.838525,0.0431 1.827767,-0.0033 1.917134,-0.02851 1.938255,-0.547531 0.01389,-0.339206 -0.304298,-0.396585 -2.084658,-0.37602 -1.35635,0.01566 -1.563285,0.04214 -1.723169,0.220373 -0.190682,0.212573 -0.173333,0.581365 0.03105,0.660076 z m -0.156491,3.33572 c 0.130123,0.221869 3.316993,0.282375 3.670772,0.0697 0.282221,-0.169664 0.338213,-0.609703 0.09621,-0.756091 -0.08987,-0.05437 -0.907158,-0.103966 -1.816198,-0.110239 -1.497035,-0.01033 -1.670854,0.0081 -1.844425,0.195635 -0.213972,0.231167 -0.239303,0.374312 -0.10636,0.601002 z M 36.46493,16.26747 c 0.307058,0.01039 0.374632,-0.02868 0.411468,-0.237911 0.07142,-0.405692 -0.337652,-0.583281 -0.656718,-0.285093 -0.287572,0.268757 -0.175014,0.50879 0.24525,0.523004 z m -0.07786,3.478965 c 0.337252,0.01146 0.563522,-0.227771 0.470431,-0.497265 -0.07101,-0.205589 -0.493456,-0.245685 -0.68661,-0.06518 -0.0742,0.06935 -0.124464,0.221947 -0.111697,0.339108 0.01714,0.157271 0.102949,0.215721 0.327876,0.223328 z m 8.309652,-1.551805 c 0.182517,0.161996 2.093111,0.224384 4.318518,0.141032 0.915458,-0.0343 1.146214,-0.07816 1.333858,-0.25352 0.264666,-0.247348 0.220372,-0.462982 -0.148491,-0.722907 -0.223889,-0.157764 -0.540755,-0.191761 -2.134367,-0.228988 -2.681118,-0.06263 -3.158836,-0.0487 -3.34777,0.0976 -0.222538,0.172327 -0.236127,0.776528 -0.02179,0.966805 z"
   id="path429" /></svg>
