<?xml version="1.0" encoding="UTF-8" standalone="no"?>
<svg
   xmlns:dc="http://purl.org/dc/elements/1.1/"
   xmlns:cc="http://creativecommons.org/ns#"
   xmlns:rdf="http://www.w3.org/1999/02/22-rdf-syntax-ns#"
   xmlns:svg="http://www.w3.org/2000/svg"
   xmlns="http://www.w3.org/2000/svg"
   xmlns:sodipodi="http://sodipodi.sourceforge.net/DTD/sodipodi-0.dtd"
   xmlns:inkscape="http://www.inkscape.org/namespaces/inkscape"
   version="1.1"
   x="0px"
   y="0px"
   width="88.5px"
   height="32px"
   viewBox="0 0 88.5 32"
   enable-background="new 0 0 88.5 32"
   xml:space="preserve"
   id="svg197"
   sodipodi:docname="vklrogue.svg"
   inkscape:version="1.0.2-2 (e86c870879, 2021-01-15)"><metadata
   id="metadata203"><rdf:RDF><cc:Work
       rdf:about=""><dc:format>image/svg+xml</dc:format><dc:type
         rdf:resource="http://purl.org/dc/dcmitype/StillImage" /></cc:Work></rdf:RDF></metadata><defs
   id="defs201" /><sodipodi:namedview
   pagecolor="#ffffff"
   bordercolor="#666666"
   borderopacity="1"
   objecttolerance="10"
   gridtolerance="10"
   guidetolerance="10"
   inkscape:pageopacity="0"
   inkscape:pageshadow="2"
   inkscape:window-width="1842"
   inkscape:window-height="1051"
   id="namedview199"
   showgrid="false"
   inkscape:zoom="9.7077372"
   inkscape:cx="30.795852"
   inkscape:cy="-0.87787051"
   inkscape:window-x="-9"
   inkscape:window-y="-9"
   inkscape:window-maximized="1"
   inkscape:current-layer="svg197" />
<g
   id="Selected_Items">
	<g
   id="g193">
		<g
   id="Selected_Items_1_">
			
		</g>
	</g>
</g>
<g
   id="guides">
</g>
<path
   style="fill:#ffffff;stroke-width:0.0651208"
   d="m 34.067312,28.016997 c -0.941723,-0.104715 -4.950873,-0.866574 -5.258487,-0.999271 -0.383739,-0.165537 -0.366499,-0.314685 0.134,-1.15926 0.225919,-0.381232 0.467472,-0.803884 0.536784,-0.939227 0.06931,-0.135344 0.194704,-0.325821 0.278648,-0.423284 0.08395,-0.09746 0.256784,-0.367683 0.384085,-0.60049 0.127301,-0.232806 0.432455,-0.764917 0.678121,-1.18247 0.245665,-0.417552 0.446664,-0.789724 0.446664,-0.827052 0,-0.03733 0.03952,-0.0913 0.08782,-0.119941 0.07551,-0.04478 0.888988,-1.343134 0.888988,-1.418873 0,-0.06716 0.790596,-1.327353 0.878494,-1.400302 0.05407,-0.04488 0.09831,-0.110496 0.09831,-0.145821 0,-0.03533 0.227108,-0.434671 0.504684,-0.887434 l 0.504686,-0.823207 0.01995,-1.313681 c 0.01979,-1.301606 0.01869,-1.313876 -0.120092,-1.334971 -0.100226,-0.01524 -0.182489,-0.123167 -0.289214,-0.379456 -0.382983,-0.91969 -1.345521,-1.493694 -2.509977,-1.496811 -0.339409,-9.04e-4 -0.365811,-0.01286 -0.469454,-0.212604 -0.0604,-0.116403 -0.129346,-0.32372 -0.15321,-0.460703 l -0.04339,-0.249062 -0.477437,0.02114 c -0.449196,0.01989 -0.479603,0.01247 -0.514047,-0.125381 l -0.03661,-0.146522 h -1.835951 -1.835951 l -0.279227,0.274041 -0.279228,0.274042 v 0.662729 c 0,0.762279 -0.122122,1.233642 -0.36678,1.415677 -0.08822,0.06564 -0.332602,0.143687 -0.543067,0.173437 -0.565967,0.08 -0.91318,0.320421 -1.890337,1.308932 -1.056127,1.068398 -1.120078,1.100789 -2.173305,1.100789 -0.40591,0 -0.91814,0.01883 -1.138293,0.04184 l -0.400276,0.04184 v 0.34192 c 0,0.40259 -0.05705,0.44325 -0.505309,0.360111 -0.169777,-0.03149 -1.334341,-0.0669 -2.587912,-0.07868 l -2.279221,-0.02142 -0.403536,0.275645 c -0.436374,0.298074 -0.621105,0.510709 -0.90458,1.041213 -0.100477,0.188036 -0.204151,0.341883 -0.230386,0.341883 -0.02623,0 -0.184685,0.219782 -0.352109,0.488405 -0.167425,0.268622 -0.331406,0.488404 -0.364402,0.488404 -0.0827,0 -0.169573,-0.248518 -0.261766,-0.748864 -0.0429,-0.232818 -0.09491,-0.423254 -0.11558,-0.42319 -0.02067,6.4e-5 -0.123852,0.139259 -0.22929,0.309323 -0.105437,0.170063 -0.251958,0.372507 -0.325602,0.449874 -0.07365,0.07737 -0.207159,0.281411 -0.2967,0.453432 -0.08954,0.172021 -0.3574273,0.62507 -0.5953023,1.006776 -0.2378742,0.381705 -0.4811603,0.79305 -0.5406335,0.9141 -0.059471,0.121048 -0.2458056,0.330649 -0.4140683,0.465777 -0.5145937,0.413259 -0.6857022,0.438078 -3.0202565,0.438078 -1.3379459,0 -2.0720397,0.02307 -2.0720397,0.06512 0,0.03753 -0.2037186,0.06512 -0.4809147,0.06512 -0.5607417,0 -0.6406111,-0.06882 -0.7179335,-0.618645 C 2.1714816,22.120931 1.9045692,20.479892 1.6035249,18.65326 1.3024808,16.826628 1.0128423,14.951155 0.95988378,14.485543 0.89812048,13.942497 0.84897018,12.609984 0.82280138,10.768967 0.78714718,8.2604811 0.79434058,7.8887214 0.87993108,7.8176884 0.94393408,7.7645734 1.1653846,7.7407514 1.5191996,7.7489274 1.8169387,7.7558074 7.2986804,7.7385094 13.700848,7.7104914 L 25.341153,7.6595444 V 7.800234 7.9409236 h 2.141386 c 2.086616,0 2.142254,-0.00335 2.175442,-0.1302411 0.03013,-0.1152079 0.08926,-0.1303522 0.51228,-0.1312012 0.301774,-6.057e-4 0.538288,-0.036261 0.641021,-0.09664 0.08954,-0.052622 0.212426,-0.1137843 0.273078,-0.1359123 0.06065,-0.022126 0.11926,-0.1122392 0.13024,-0.2002479 0.01643,-0.1316445 0.12388,-0.2084036 0.606052,-0.4329327 l 0.586085,-0.2729168 1.709415,-0.019313 1.709416,-0.019312 v 0.4224765 c 0,0.2323617 0.02931,0.440587 0.06512,0.4627232 0.04085,0.025249 0.06512,-0.1171317 0.06512,-0.3821394 0,-0.408924 0.0077,-0.4287957 0.244202,-0.623495 l 0.244202,-0.2011096 0.03256,-1.0897636 0.03255,-1.0897628 1.417928,-0.017556 c 1.308345,-0.016196 1.420691,-0.00865 1.453687,0.09768 0.01967,0.06338 0.0617,0.1641558 0.0934,0.2239468 0.03171,0.059791 0.119442,0.3507647 0.194977,0.6466093 0.07554,0.2958439 0.179938,0.6202772 0.232005,0.7209628 0.184454,0.3566951 0.316335,0.39254 1.904149,0.5175384 0.812017,0.063925 1.55489,0.1176608 1.650826,0.1194125 0.09594,0.00177 0.218387,0.047141 0.272111,0.1008658 0.06538,0.065375 0.22844,0.097681 0.493056,0.097681 h 0.395375 v 0.1953618 c 0,0.1910201 0.0073,0.1953613 0.325603,0.1953613 0.318368,0 0.325603,-0.00437 0.325603,-0.1953613 0,-0.1881266 0.01085,-0.1953618 0.293042,-0.1953618 0.269166,0 0.293044,0.013263 0.293044,0.1628011 0,0.1539216 0.01954,0.1628018 0.358163,0.1628018 0.338627,0 0.358163,-0.00888 0.358163,-0.1628018 0,-0.1519479 0.02171,-0.1628011 0.325603,-0.1628011 0.303896,0 0.325603,0.010854 0.325603,0.1628011 0,0.1539216 0.01954,0.1628018 0.358162,0.1628018 0.338628,0 0.358164,-0.00888 0.358164,-0.1628018 0,-0.1495362 0.02388,-0.1628011 0.293043,-0.1628011 0.269165,0 0.293042,0.013263 0.293042,0.1628011 0,0.1539216 0.01954,0.1628018 0.358164,0.1628018 0.334256,0 0.358163,-0.010393 0.358163,-0.1556772 0,-0.1310382 0.03865,-0.1605209 0.244202,-0.1862833 0.302296,-0.037886 0.341883,-0.016695 0.341883,0.1830023 0,0.1470506 0.02407,0.1589582 0.321278,0.1589582 0.302076,0 0.322509,-0.010702 0.341883,-0.1790815 0.01888,-0.1639978 0.04666,-0.1807536 0.329928,-0.1989298 0.305843,-0.019623 0.309323,-0.017612 0.309323,0.1790814 0,0.1949446 0.0064,0.1989299 0.321278,0.1989299 0.302075,0 0.322508,-0.010702 0.341882,-0.1790815 0.01942,-0.1687373 0.03942,-0.1790821 0.346209,-0.1790821 0.306794,0 0.326794,0.010342 0.346208,0.1790821 0.01937,0.1683781 0.03981,0.1790815 0.341883,0.1790815 0.314904,0 0.321278,-0.00392 0.321278,-0.1991062 0,-0.1939698 0.0071,-0.1985892 0.276763,-0.1790815 0.247648,0.017916 0.27893,0.038866 0.297367,0.1991062 0.01966,0.1708613 0.03685,0.1790815 0.374444,0.1790815 0.349739,0 0.353838,-0.00228 0.353838,-0.1953619 0,-0.1881259 0.01085,-0.1953618 0.293042,-0.1953618 0.28219,0 0.293043,0.00724 0.293043,0.1953618 0,0.1933882 0.0036,0.1953619 0.358163,0.1953619 0.354545,0 0.358163,-0.00196 0.358163,-0.1953619 0,-0.1881259 0.01085,-0.1953618 0.293043,-0.1953618 0.282189,0 0.293043,0.00724 0.293043,0.1953618 0,0.1936923 0.0031,0.1953619 0.362824,0.1953619 0.357471,0 0.362515,-0.00265 0.341883,-0.1790815 -0.02026,-0.1732225 -0.0098,-0.1797257 0.320943,-0.1987655 l 0.341882,-0.019686 v 0.1987655 c 0,0.1951038 0.006,0.1987648 0.325603,0.1987648 0.318368,0 0.325603,-0.00437 0.325603,-0.1953618 V 6.443153 h 1.009369 1.00937 v 0.358163 c 0,0.1973684 0.02949,0.3581636 0.06567,0.3581636 0.03893,0 0.03255,0.05304 -0.01567,0.130241 -0.06479,0.1037529 -0.06491,0.1565502 -5.21e-4,0.2595989 0.04443,0.071146 0.08079,0.1737111 0.08079,0.227922 -3.1e-5,0.054209 0.02927,0.098565 0.06509,0.098565 0.03952,0 0.06512,-0.28514 0.06512,-0.7251783 V 6.4254503 l 0.293044,0.040168 0.293042,0.040168 0.01581,-0.60112 c 0.0087,-0.330616 0.0077,-0.8135758 -0.0021,-1.0732441 l -0.01791,-0.4721243 h 0.2877 c 0.358383,0 0.534079,0.089982 0.841906,0.4311765 l 0.242129,0.2683753 v 0.7143131 c 0,0.3928725 0.01925,1.2025142 0.04279,1.7992039 l 0.04279,1.08489 h 3.853714 c 2.119545,0 5.660756,-0.019458 7.869368,-0.043241 3.80818,-0.041003 4.015647,-0.049297 4.015647,-0.1605101 0,-0.1800291 0.225597,-0.2653055 0.566588,-0.2141709 0.242822,0.036413 0.31674,0.023839 0.381646,-0.064918 0.07397,-0.1011617 0.402653,-0.1105621 4.057734,-0.1160557 3.121117,-0.00468 3.998643,0.011777 4.07664,0.07651 0.08523,0.070734 0.09939,0.3725152 0.09939,2.117838 0,1.639729 -0.01725,2.049683 -0.08883,2.109082 -0.06393,0.05305 -1.200998,0.07446 -4.053757,0.07632 -4.280586,0.0028 -4.75056,-0.02752 -5.069372,-0.327025 -0.141111,-0.132542 -0.196483,-0.139054 -0.922936,-0.108526 -0.425055,0.01786 -3.928673,0.03439 -7.785824,0.03672 l -7.012999,0.0042 -0.02003,0.276763 -0.02003,0.276762 -1.05821,0.01789 -1.058209,0.01789 v 1.62978 c 0,1.554207 0.0065,1.641182 0.141514,1.875665 0.166776,0.289781 0.128854,0.444556 -0.122446,0.499743 -0.379672,0.08338 -0.364293,0.04846 -0.321602,0.730253 0.02183,0.34858 0.07441,1.307779 0.116853,2.131555 0.04245,0.823775 0.09541,1.512425 0.117707,1.530333 0.02229,0.01791 0.107587,0.926341 0.189532,2.018738 0.08195,1.092398 0.164239,2.162004 0.182873,2.376902 l 0.03388,0.390723 -0.286,0.283543 c -0.237872,0.235831 -0.334826,0.287098 -0.576161,0.304662 -0.159588,0.01162 -0.759029,0.05469 -1.332091,0.09573 -0.573061,0.04103 -1.085886,0.09155 -1.13961,0.112251 -0.05372,0.02071 -0.256478,0.03213 -0.450563,0.02541 -0.194085,-0.0067 -0.369934,0.01536 -0.390776,0.04908 -0.116039,0.187755 -5.930066,0.307739 -5.932091,0.12242 -5.2e-4,-0.04477 -0.01856,-0.147335 -0.04015,-0.227922 -0.03457,-0.129006 -0.015,-0.146522 0.163691,-0.146522 0.149601,0 0.203147,-0.02996 0.203683,-0.11396 0.0026,-0.402354 -0.218371,-2.938008 -0.265262,-3.044388 -0.05115,-0.116059 -0.25643,-3.508331 -0.25643,-4.237708 0,-0.283383 -0.0036,-0.288173 -0.217828,-0.288173 -0.289645,0 -0.390165,0.131729 -0.534195,0.700047 -0.09321,0.367787 -0.145658,0.472124 -0.237338,0.472124 -0.144617,0 -0.146373,-0.08696 -0.01252,-0.619835 0.05784,-0.230274 0.08659,-0.492708 0.06388,-0.583188 l -0.04128,-0.164515 h -1.004285 c -0.599279,0 -1.020516,0.02626 -1.044532,0.06512 -0.02213,0.03582 -0.287604,0.06512 -0.589929,0.06512 -0.32304,0 -0.549681,-0.02685 -0.549681,-0.06512 0,-0.04244 -1.009369,-0.06512 -2.897866,-0.06512 -2.515898,0 -2.897867,0.01271 -2.897867,0.09644 0,0.129904 -0.171098,0.16152 -0.976808,0.180498 l -0.683766,0.01611 -0.502017,1.009369 c -0.284269,0.571561 -0.503174,1.095435 -0.504684,1.207795 -0.0019,0.14767 0.06396,0.263487 0.257814,0.45278 0.424141,0.414162 0.308433,0.683765 -0.293455,0.683765 -0.669456,0 -0.583313,-0.103852 -1.41789,1.709416 -0.111272,0.24176 -0.222147,0.439564 -0.246388,0.439564 -0.05042,0 -1.102934,2.285318 -1.102934,2.39478 0,0.03954 0.117216,0.207315 0.260481,0.372845 0.6157,0.711385 0.116209,1.055803 -1.302411,0.898062 z M 4.6895502,20.61697 c 0.054228,-0.06534 0.019041,-0.456405 -0.1385477,-1.539796 -0.2305519,-1.584984 -0.2626214,-1.664867 -0.605633,-1.508581 -0.173722,0.07915 -0.1758638,0.08752 -0.1320017,0.515635 0.024522,0.239348 0.066135,0.450643 0.092475,0.469544 0.026343,0.0189 0.1126002,0.483782 0.1916902,1.033066 0.079091,0.549286 0.1603508,1.025481 0.1805791,1.05821 0.055587,0.08995 0.3289717,0.07129 0.4114381,-0.02807 z M 9.139573,19.288184 c 0.088544,-0.134311 0.2579237,-0.420027 0.3763917,-0.634925 0.118469,-0.214898 0.456232,-0.758183 0.7505853,-1.2073 0.709267,-1.082183 0.76965,-1.202972 0.682639,-1.365551 -0.03817,-0.07131 -0.123312,-0.129654 -0.189218,-0.129654 -0.146921,0 -0.524634,0.434063 -0.7625573,0.876322 -0.09717,0.180625 -0.376919,0.644222 -0.621662,1.030215 -0.244742,0.385994 -0.4449861,0.72851 -0.4449861,0.761149 0,0.03264 -0.087908,0.155593 -0.1953618,0.273234 -0.1821784,0.199461 -0.25673,0.492517 -0.1519478,0.597299 0.023877,0.02388 0.1225484,0.04341 0.2192685,0.04341 0.131175,0 0.216759,-0.06205 0.3368485,-0.244202 z m 36.197882,-0.99538 c 0.08605,-0.04605 0.125959,-0.136531 0.125959,-0.285561 0,-0.160142 0.07504,-0.311048 0.282189,-0.567514 0.155203,-0.19215 0.32019,-0.445227 0.366638,-0.562393 0.113138,-0.285398 0.05952,-1.179596 -0.07672,-1.27921 -0.05352,-0.03914 -0.117785,-0.135662 -0.142808,-0.214503 -0.06793,-0.214009 -0.666199,-0.722591 -0.939235,-0.798427 -0.29948,-0.08318 -1.769285,-0.08875 -1.769285,-0.0067 0,0.03321 -0.153848,0.133426 -0.341884,0.22269 -0.662586,0.31454 -0.994864,0.906229 -0.990271,1.763381 0.0028,0.524223 0.0679,0.750774 0.332719,1.158095 0.155839,0.239694 0.07117,0.295965 -0.162412,0.107939 -0.658544,-0.530107 -0.970186,-1.783824 -0.661525,-2.661287 0.196437,-0.55843 0.185746,-0.590855 -0.179081,-0.543128 -0.170128,0.02225 -0.397236,0.08358 -0.504685,0.136285 -0.726039,0.356107 -1.096713,1.281705 -0.851325,2.125811 0.08999,0.309561 0.181389,0.445063 0.528899,0.784127 0.257419,0.251162 0.420107,0.463707 0.420107,0.548854 v 0.13896 h 2.218381 c 1.404653,0 2.264585,-0.02473 2.344342,-0.06741 z m 36.072526,-7.45879 c 0,-0.213748 -0.21786,-0.194725 -0.248735,0.02172 -0.01581,0.110779 0.01157,0.145856 0.113956,0.145856 0.101368,0 0.134779,-0.04153 0.134779,-0.167576 z m 0.678436,0.128049 c 0.05664,-0.02174 0.103006,-0.09715 0.103006,-0.167577 0,-0.180718 -0.222007,-0.12605 -0.248735,0.06125 -0.0225,0.157584 -0.01056,0.166295 0.145729,0.106329 z m 1.588525,-0.138807 c -0.03268,-0.169752 -0.248229,-0.188684 -0.248229,-0.0218 0,0.09319 0.04185,0.135016 0.13502,0.135016 0.09319,0 0.128261,-0.03507 0.113209,-0.113213 z m 0.716329,0 c -0.03268,-0.169752 -0.248229,-0.188684 -0.248229,-0.0218 0,0.09319 0.04185,0.135016 0.135013,0.135016 0.09319,0 0.128262,-0.03507 0.113216,-0.113213 z m 1.444908,-0.01703 c 0,-0.07235 -0.04343,-0.130241 -0.09768,-0.130241 -0.05424,0 -0.09768,0.05788 -0.09768,0.130241 0,0.07236 0.04343,0.130242 0.09768,0.130242 0.05424,0 0.09768,-0.05788 0.09768,-0.130242 z m 0.781443,0 c 0,-0.07235 -0.04343,-0.130241 -0.09768,-0.130241 -0.05424,0 -0.09768,0.05788 -0.09768,0.130241 0,0.07236 0.04343,0.130242 0.09768,0.130242 0.05424,0 0.09768,-0.05788 0.09768,-0.130242 z M 49.110167,9.6566711 V 9.1583174 l -0.732607,0.042216 c -0.402933,0.02322 -2.014668,0.042349 -3.581631,0.042508 -2.761993,2.864e-4 -2.853005,0.0043 -2.979267,0.1305375 -0.168272,0.1682713 -0.166059,0.4200269 0.0052,0.591282 0.13407,0.1340711 0.168573,0.1352601 3.417236,0.1177941 1.80499,-0.0097 3.302052,0.0026 3.326807,0.02736 0.02475,0.02476 0.157341,0.045 0.294637,0.045 h 0.249629 z m 31.974206,0.00519 c 0,-0.060644 -0.04432,-0.093863 -0.108563,-0.081401 -0.163372,0.031685 -0.185808,0.1838569 -0.02712,0.1838569 0.07999,0 0.135665,-0.042046 0.135665,-0.1024557 z m 0.781449,0.00481 c 0,-0.054266 -0.0579,-0.097681 -0.13024,-0.097681 -0.07236,0 -0.130241,0.043411 -0.130241,0.097681 0,0.054266 0.05791,0.097681 0.130241,0.097681 0.07235,0 0.13024,-0.043411 0.13024,-0.097681 z m 1.432651,0 c 0,-0.054266 -0.05791,-0.097681 -0.130241,-0.097681 -0.07235,0 -0.13024,0.043411 -0.13024,0.097681 0,0.054266 0.05791,0.097681 0.13024,0.097681 0.07236,0 0.130241,-0.043411 0.130241,-0.097681 z m 0.716328,0 c 0,-0.054266 -0.0579,-0.097681 -0.13024,-0.097681 -0.07236,0 -0.130241,0.043411 -0.130241,0.097681 0,0.054266 0.05791,0.097681 0.130241,0.097681 0.07235,0 0.13024,-0.043411 0.13024,-0.097681 z m 1.497771,-0.00481 c 0,-0.060644 -0.04432,-0.093863 -0.108563,-0.081401 -0.163373,0.031685 -0.185808,0.1838563 -0.02712,0.1838563 0.07999,0 0.135664,-0.042046 0.135664,-0.1024557 z m 0.716329,0.00481 c 0,-0.054266 -0.0579,-0.097681 -0.130241,-0.097681 -0.07236,0 -0.13024,0.043411 -0.13024,0.097681 0,0.054266 0.05791,0.097681 0.13024,0.097681 0.07235,0 0.130241,-0.043411 0.130241,-0.097681 z M 37.182035,5.4746031 c 0.04919,-0.031186 0.07732,-0.1362549 0.06512,-0.2432047 -0.01914,-0.1676872 -0.04644,-0.1882961 -0.249417,-0.1882961 -0.202977,0 -0.230275,0.020609 -0.249418,0.1882961 -0.02179,0.1908563 0.06795,0.2981141 0.249418,0.2981141 0.05372,0 0.136657,-0.024712 0.184296,-0.054911 z"
   id="path261" /></svg>
