<?xml version="1.0" encoding="UTF-8" standalone="no"?>
<!-- Generator: Adobe Illustrator 16.0.0, SVG Export Plug-In . SVG Version: 6.00 Build 0)  -->

<svg
   version="1.1"
   x="0px"
   y="0px"
   width="25.458px"
   height="32px"
   viewBox="0 0 25.458 32"
   enable-background="new 0 0 25.458 32"
   xml:space="preserve"
   id="svg657"
   sodipodi:docname="smokegrenade.svg"
   inkscape:version="1.2.1 (9c6d41e410, 2022-07-14)"
   xmlns:inkscape="http://www.inkscape.org/namespaces/inkscape"
   xmlns:sodipodi="http://sodipodi.sourceforge.net/DTD/sodipodi-0.dtd"
   xmlns="http://www.w3.org/2000/svg"
   xmlns:svg="http://www.w3.org/2000/svg"><defs
   id="defs661" /><sodipodi:namedview
   id="namedview659"
   pagecolor="#ffffff"
   bordercolor="#000000"
   borderopacity="0.25"
   inkscape:showpageshadow="2"
   inkscape:pageopacity="0.0"
   inkscape:pagecheckerboard="0"
   inkscape:deskcolor="#d1d1d1"
   showgrid="false"
   inkscape:zoom="9.2476309"
   inkscape:cx="-0.43254322"
   inkscape:cy="22.492247"
   inkscape:window-width="1920"
   inkscape:window-height="1017"
   inkscape:window-x="-8"
   inkscape:window-y="-8"
   inkscape:window-maximized="1"
   inkscape:current-layer="svg657" />

<g
   id="guides">
</g>
<path
   style="fill:#ffffff;stroke-width:0.0403646"
   d="m 11.555464,30.372345 c -0.610516,-0.01593 -1.255343,-0.04867 -1.432948,-0.0728 C 8.7231011,30.109494 7.8054366,29.850534 7.2922554,29.500857 7.0465117,29.333412 6.9350907,29.192504 6.8765673,28.975166 6.8484485,28.870731 6.8256556,27.679941 6.8113649,25.568556 6.799282,23.783231 6.7719512,20.932954 6.7506324,19.234607 6.7293117,17.53626 6.7108694,14.966039 6.7096474,13.523003 6.7069868,10.385485 6.6868648,9.9205065 6.5417162,9.6423669 6.396246,9.3636111 6.3700606,9.1562149 6.4584778,8.9830832 6.5561354,8.7918647 6.718811,8.7519754 7.5267433,8.7211572 8.997663,8.6650427 8.9759677,8.6672464 9.1419949,8.557368 9.2898441,8.4595286 9.2950427,8.4481552 9.2950427,8.222546 c 0,-0.1284488 0.021795,-0.2553416 0.048436,-0.2819826 0.072006,-0.072006 0.4643524,-0.060065 0.5967845,0.018167 0.1073158,0.063389 0.1198318,0.062224 0.2594878,-0.024071 l 0.146736,-0.090685 -0.01107,-0.6502494 -0.01107,-0.6502502 -0.09792,-0.023077 c -0.117402,-0.027672 -0.156002,-0.1120472 -0.0669,-0.146239 0.04806,-0.018436 0.06391,-0.082165 0.06391,-0.2570285 0,-0.2265382 0.0041,-0.2352483 0.161458,-0.339354 L 10.546348,5.670931 V 4.9480417 4.2251526 L 10.425254,4.1040602 C 10.324248,4.0030514 10.304125,3.9506465 10.303951,3.7881258 10.30383,3.6809663 10.291875,3.4140264 10.277372,3.194929 l -0.02637,-0.3983593 -0.216431,0.025432 C 9.8288565,2.8461797 9.8161793,2.8423097 9.7786006,2.7434467 9.6794436,2.4826432 9.7672176,2.1507559 9.9418977,2.1259944 c 0.054946,-0.00779 0.1128593,-0.035036 0.1286973,-0.060549 0.019,-0.030601 0.211217,-0.048617 0.565106,-0.052854 0.294971,-0.00367 0.599885,-0.027099 0.677587,-0.052307 0.0777,-0.025218 0.295672,-0.064589 0.484377,-0.087486 0.847244,-0.102805 0.852463,-0.1028569 1.150394,-0.011646 0.367991,0.1126591 1.341713,0.5813595 1.480751,0.7127538 0.114546,0.108257 0.11829,0.1217705 0.226503,0.8175528 0.06247,0.4016649 0.07753,0.4452191 0.157908,0.4566704 0.137119,0.019529 0.323375,-0.1413828 0.354271,-0.3060705 0.03224,-0.1718569 0.109331,-0.3019872 0.300471,-0.507211 0.276262,-0.2966141 0.605254,-0.3950752 1.032189,-0.3089066 0.461499,0.093145 0.464195,0.093313 0.464195,0.029186 0,-0.033101 -0.02725,-0.082801 -0.06055,-0.1104338 -0.08665,-0.071917 -0.07487,-0.140151 0.03428,-0.1985714 0.08366,-0.044747 0.130038,-0.033056 0.393556,0.099411 0.449001,0.2257086 0.628593,0.3578599 1.005529,0.7399071 0.373966,0.3790381 0.639491,0.7894445 0.847065,1.3092446 0.129995,0.3255323 0.242565,0.8552341 0.241823,1.1379056 -5.01e-4,0.1908117 -0.08157,0.5140516 -0.173476,0.6916893 -0.07407,0.1431583 -0.491045,0.5365154 -0.734196,0.6926085 -0.268426,0.1723112 -0.863328,0.2750113 -0.933679,0.1611832 -0.01664,-0.026893 -0.02682,-0.1041048 -0.02264,-0.1715488 0.0072,-0.1151906 -0.0077,-0.1284596 -0.244606,-0.2188627 -0.939631,-0.358565 -1.885319,-1.4553906 -2.118285,-2.4568323 l -0.06808,-0.2926403 h -0.173229 -0.173221 l 8.96e-4,0.2119129 c 5.04e-4,0.1165541 0.05739,0.4298826 0.126424,0.6962894 0.106623,0.4114967 0.124307,0.5481496 0.117536,0.9082078 -0.0052,0.2739364 0.01453,0.51662 0.05566,0.6862007 0.04184,0.1725154 0.07255,0.5623939 0.0897,1.1384116 0.02118,0.7115211 0.03708,0.880266 0.08469,0.8985373 0.03224,0.012371 0.369974,0.040679 0.750512,0.062878 1.247787,0.072822 1.465181,0.1278531 1.617857,0.4095392 l 0.07831,0.1444797 -0.113023,0.2170245 c -0.06216,0.1193634 -0.147146,0.2808861 -0.188851,0.3589349 -0.07263,0.1359167 -0.07659,0.3388527 -0.09403,4.8034027 -0.04398,11.270004 -0.06674,14.145962 -0.113317,14.327505 -0.133658,0.520908 -1.023925,0.933825 -2.611631,1.211318 -0.234524,0.04099 -0.535392,0.0853 -0.668596,0.09848 -0.133204,0.01316 -0.323927,0.03232 -0.423829,0.04251 -0.405871,0.04151 -0.881128,0.04605 -1.937506,0.01848 z M 18.380065,6.6728564 c 0.19912,-0.045947 0.216155,-0.06011 0.303781,-0.252277 0.07229,-0.1585415 0.09277,-0.2750373 0.09254,-0.5265054 -4.04e-4,-0.4412085 -0.01,-0.5449218 -0.05041,-0.5449218 -0.01903,0 -0.02413,-0.02726 -0.01136,-0.060549 0.01278,-0.033316 0.0037,-0.060549 -0.02018,-0.060549 -0.02388,0 -0.03296,-0.02726 -0.02018,-0.060549 0.01277,-0.033316 0.0093,-0.060549 -0.0078,-0.060549 -0.03118,0 -0.137535,-0.2578957 -0.126798,-0.3074806 0.0032,-0.01462 -0.01037,-0.037705 -0.03009,-0.051277 -0.01972,-0.013581 -0.07893,-0.097348 -0.131585,-0.1861481 C 18.081578,4.06215 17.487273,3.4919857 17.014699,3.2541369 16.466548,2.9782531 15.904577,3.012591 15.66307,3.3367319 15.521452,3.5268028 15.489512,3.6818926 15.5857,3.7124187 c 0.179574,0.056992 0.176323,0.334263 -0.0056,0.4738604 l -0.08891,0.068244 0.09825,0.2886037 c 0.267105,0.7845686 0.929067,1.549962 1.682968,1.9459403 0.436505,0.2292695 0.712318,0.2750381 1.107581,0.1837992 z"
   id="path692" /></svg>
