<?xml version="1.0" encoding="UTF-8" standalone="no"?>
<svg
   width="402"
   height="133"
   viewBox="0 0 402 133"
   version="1.1"
   id="svg5"
   sodipodi:docname="raal.svg"
   xml:space="preserve"
   inkscape:version="1.2.1 (9c6d41e410, 2022-07-14)"
   xmlns:inkscape="http://www.inkscape.org/namespaces/inkscape"
   xmlns:sodipodi="http://sodipodi.sourceforge.net/DTD/sodipodi-0.dtd"
   xmlns="http://www.w3.org/2000/svg"
   xmlns:svg="http://www.w3.org/2000/svg"
   xmlns:rdf="http://www.w3.org/1999/02/22-rdf-syntax-ns#"
   xmlns:x="adobe:ns:meta/"><defs
     id="defs9" /><sodipodi:namedview
     id="namedview7"
     pagecolor="#ffffff"
     bordercolor="#000000"
     borderopacity="0.25"
     inkscape:showpageshadow="2"
     inkscape:pageopacity="0.0"
     inkscape:pagecheckerboard="0"
     inkscape:deskcolor="#d1d1d1"
     showgrid="false"
     inkscape:zoom="2.3710944"
     inkscape:cx="184.30308"
     inkscape:cy="118.08893"
     inkscape:window-width="1920"
     inkscape:window-height="1017"
     inkscape:window-x="-8"
     inkscape:window-y="-8"
     inkscape:window-maximized="1"
     inkscape:current-layer="svg5" /><metadata
     id="metadata2"><?xpacket begin="﻿" id="W5M0MpCehiHzreSzNTczkc9d"?><x:xmpmeta
       x:xmptk="Adobe XMP Core 5.6-c138 79.159824, 2016/09/14-01:09:01        "><rdf:RDF><rdf:Description
           rdf:about="" /></rdf:RDF></x:xmpmeta><?xpacket end="w"?></metadata><path
     style="fill:#ffffff;stroke-width:0.262639"
     d="m 67.602701,122.38717 -1.432542,0.008 0.01292,-1.63348 0.01292,-1.63349 -0.02182,-0.64506 -0.0218,-0.64506 h -0.34469 -0.34469 l -0.15273,0.57339 -0.15273,0.57338 0.132704,0.50171 0.132703,0.50172 -0.190962,0.84676 -0.190962,0.84676 -0.707485,0.0133 -0.707488,0.0133 -0.0204,-1.46163 -0.0204,-1.46163 -0.152504,-0.47355 -0.152503,-0.47355 h -0.592064 -0.592063 l 0.06869,-1.50514 0.0687,-1.50514 0.03461,-0.64506 0.03462,-0.64503 h 0.561405 0.561409 l 0.134232,-0.15995 0.134235,-0.15995 -0.1254,-0.57138 -0.125398,-0.57138 -0.690544,0.18072 -0.690542,0.18072 -0.01841,-0.52448 -0.01841,-0.5245 -0.100568,-0.57339 -0.100564,-0.57338 -0.04173,-0.97681 -0.04174,-0.97682 0.642523,-0.65855 0.642522,-0.65855 -0.834514,-0.18654 -0.834516,-0.18655 -0.138619,-0.52041 -0.138618,-0.52041 -0.100079,-0.6192 -0.100074,-0.61919 -0.146989,-0.55182 -0.146986,-0.55184 0.497778,-0.75405 0.497778,-0.75405 v -0.82141 -0.82142 l -0.300753,-0.0305 -0.300754,-0.0305 -0.481205,-0.04121 -0.481206,-0.0412 -0.05264,-0.57338 -0.05264,-0.57339 -0.139047,-1.505138 -0.139049,-1.50514 h 0.266042 0.266042 l -0.134377,-0.25908 -0.134379,-0.25908 -1.985096,0.11636 -1.985096,0.11636 -6.135372,0.0232 -6.135371,0.0232 -2.16543,-0.16924 -2.165425,-0.16944 -4.210549,-0.74361 -4.210549,-0.74361 -0.240603,-0.22218 -0.240603,-0.22218 -1.422203,-0.20512 -1.422204,-0.20512 -0.382317,-0.25288 -0.382318,-0.25288 -1.443617,-0.27491 -1.443617,-0.27491 -1.203014,-0.31748 -1.203014,-0.31748 -0.41779,-0.2751 -0.41779,-0.27511 H 20.0944 19.503826 l -0.1487,-0.2867 -0.148699,-0.28669 h -0.461529 -0.461527 l -1.635916,-0.93175 -1.635919,-0.93176 -0.675457,-0.63355 -0.675456,-0.63355 0.129886,-0.25042 0.129886,-0.25042 -0.290169,-0.0301 -0.29017,-0.0301 -0.901851,-0.27403 -0.90185,-0.27404 -1.263575,-0.77719 -1.2635747,-0.7772 -0.1940052,-0.21535 -0.1940053,-0.21534 0.5821378,-0.8296 0.582138,-0.82959 0.1694373,-0.64506 0.1694371,-0.64506 h 0.224389 0.22439 v -0.39109 -0.39109 l -1.063761,-0.48412 -1.0637604,-0.48408 -0.2812363,-0.40378 -0.2812365,-0.40378 0.8036406,-1.37297 0.8036405,-1.37296 0.1810265,-0.09579 0.1810266,-0.09579 0.89895,-1.624367 0.89895,-1.624367 0.544092,-0.658091 0.544093,-0.658093 v -0.26063 -0.26063 l 0.541356,-0.659833 0.541357,-0.659837 0.721808,-1.288377 0.721809,-1.288377 0.181026,-0.09579 0.181027,-0.09579 0.83286,-1.481021 0.832861,-1.481021 0.610183,-0.832999 0.610181,-0.833 v -0.173357 -0.173358 l 0.541356,-0.720122 0.541356,-0.720122 0.824683,-1.427148 0.824683,-1.427149 0.318934,-0.43004 0.318936,-0.430039 0.781203,-1.18114 0.781206,-1.18114 0.360905,-0.648001 0.360904,-0.648001 0.721808,-1.092291 0.721809,-1.092288 0.601507,-1.037729 0.601507,-1.03773 0.300753,-0.392437 0.300754,-0.392435 v -0.297208 -0.297196 l 0.752232,-1.020866 0.752233,-1.020864 0.0054,-2.931144 0.0054,-2.931144 -0.17281,-1.088561 -0.172813,-1.088561 0.156495,-0.849002 0.156493,-0.849005 0.49941,-0.318476 0.499409,-0.318476 2.669022,-0.09123 2.669045,-0.09123 5.413563,-0.168654 5.413564,-0.168654 4.210549,-0.150821 4.210549,-0.15082 3.127837,-0.09995 3.127836,-0.09995 2.288439,-0.06102 2.288438,-0.06101 0.928931,0.462485 0.928934,0.462485 h 0.451821 0.451823 v 0.253256 0.253256 l 0.481206,0.149944 0.481205,0.149943 9.63e-4,0.528553 9.62e-4,0.528554 0.894634,0.05574 0.894633,0.05574 0.264774,0.431463 0.264771,0.431462 0.278007,1.08961 0.278007,1.089607 0.305878,2.006854 0.305879,2.006853 1.382566,-0.04841 1.382566,-0.0484 0.593772,-0.840841 0.593774,-0.840837 2.053759,-0.01989 2.053757,-0.01989 v 0.264071 0.264073 h 0.54363 0.543633 l 0.313091,0.597376 0.313092,0.597381 0.332113,-0.151859 0.332114,-0.151859 3.142013,-0.05733 3.142015,-0.05734 v -0.388188 -0.388189 l 1.022562,-0.03427 1.022562,-0.03428 2.646631,-0.0915 2.646631,-0.0915 3.969949,-0.133728 3.96995,-0.133728 0.42105,-0.20121 0.42106,-0.201207 v -0.24702 -0.247024 l -0.31575,0.144373 -0.31574,0.144373 -0.28959,-0.655086 -0.28959,-0.655082 -0.0563,-1.633938 -0.0563,-1.633938 0.30421,-0.362704 0.30421,-0.362707 0.83865,-0.03315 0.83865,-0.03316 v 0.206888 0.206886 l 0.58239,0.174172 0.58238,0.174172 0.35519,-0.162409 0.35519,-0.162409 0.55511,-1.246847 0.55511,-1.246844 0.69409,-0.121385 0.69409,-0.121384 0.33919,0.404168 0.3392,0.404168 0.14237,0.675942 0.14238,0.67594 0.36969,0.169039 0.36968,0.169038 0.36755,-0.363315 0.36755,-0.363312 h 8.2035 8.20351 l 0.0838,-0.707547 0.0837,-0.707547 0.63805,-0.653896 0.63806,-0.653897 0.1203,-0.03694 0.1203,-0.03694 0.60151,-0.105206 0.6015,-0.105208 5.14204,-0.129445 5.14204,-0.129446 1.17692,0.733284 1.17693,0.733282 0.34844,-0.344585 0.34845,-0.344584 0.14204,-0.533263 0.14205,-0.533261 0.87827,-0.646786 0.87828,-0.646784 0.61307,-0.04721 0.6133,-0.0472 0.26574,-0.03697 0.26574,-0.03697 -0.0693,-3.081953 -0.0693,-3.081955 0.3815,-1.0751 0.3815,-1.0751 0.86571,-0.03905 0.86572,-0.03905 1.3198,-0.03263 1.31979,-0.03263 0.0772,-0.573387 0.0772,-0.573387 0.2563,-0.788407 0.25629,-0.788407 0.63247,-0.02015 0.63247,-0.02015 0.46986,-0.219023 0.46987,-0.219023 0.0373,-4.720557 0.0373,-4.7205567 0.42642,-1.0707426 0.42641,-1.070744 0.3897,-0.230616 0.38969,-0.230616 2.40603,-0.05601 2.40603,-0.056 1.07011,-0.09732 1.07012,-0.09732 0.36899,0.439665 0.36898,0.439664 1.08723,1.6524976 1.08722,1.652498 1.46672,2.2437217 1.46671,2.243723 0.30011,1.088772 0.3001,1.088773 0.0892,0.774734 0.0892,0.774735 0.13574,1.29012 0.13573,1.29012 0.12838,4.730441 0.12838,4.730441 -1.8e-4,0.505876 -1.9e-4,0.505876 0.71546,1.620662 0.71547,1.620662 0.60792,0.671326 0.60791,0.671325 -0.0425,0.49911 -0.0425,0.49911 0.0277,2.924769 0.0277,2.924771 3.6692,-0.12968 3.66919,-0.129682 3.84965,-0.127573 3.84964,-0.127574 5.05266,-0.173308 5.05266,-0.173307 5.53386,-0.120944 5.53387,-0.120945 15.03767,-0.173237 15.03768,-0.173237 6.0571,-0.04983 6.05708,-0.04982 0.13845,-0.824243 0.13841,-0.824243 v -0.537551 -0.53755 l 0.4411,-0.525603 0.44112,-0.525607 0.34084,-0.02233 0.34086,-0.02236 5.00726,-0.171695 5.00723,-0.171697 0.35265,0.4202 0.35266,0.420201 0.42586,1.661239 0.42585,1.661242 5.52258,-0.04808 5.52258,-0.04808 4.93235,-0.173226 4.93236,-0.173226 4.57146,-0.137989 4.57145,-0.137985 4.09025,-0.145333 4.09025,-0.145334 4.69175,-0.143441 4.69175,-0.143438 4.09025,-0.142042 4.09025,-0.142043 4.93236,-0.157962 4.93236,-0.157966 3.84964,-0.108255 3.84965,-0.108255 0.36424,-0.01878 0.36428,-0.01878 0.59109,-1.139632 0.59108,-1.139636 0.67997,-0.599005 0.67995,-0.599005 3.29705,-0.115696 3.29705,-0.115695 5.05266,-0.156621 5.05266,-0.156623 3.24814,-0.124508 3.24814,-0.124511 5.53386,-0.172927 5.53386,-0.172928 3.12784,-0.120643 3.12784,-0.120644 0.72181,0.404149 0.7218,0.404145 0.86379,1.093136 0.86379,1.093136 0.65013,1.361794 0.65011,1.361793 h -0.1599 -0.15991 l 0.24388,0.358368 0.2439,0.358366 0.41001,1.433467 0.41001,1.433466 0.0871,0.573388 0.0871,0.573386 0.25747,1.433467 0.25747,1.433467 0.12889,1.290121 0.12889,1.29012 0.0993,3.296973 0.0993,3.296974 -0.50216,4.157055 -0.50214,4.157053 -0.21385,0.272359 -0.21387,0.272359 v 0.78582 0.785824 l -0.2221,0.163553 -0.22208,0.163556 -0.15793,0.856791 -0.15793,0.856792 h -0.20237 -0.20237 l -0.15846,0.859725 -0.15849,0.859724 -0.42397,0.358723 -0.42396,0.358722 -0.26255,0.590026 -0.26252,0.590027 -1.04949,0.643176 -1.0495,0.64318 -3.95927,0.123112 -3.95926,0.123112 -5.77447,0.162268 -5.77447,0.162268 -3.24814,0.105601 -3.24813,0.105601 -6.60994,0.190135 -6.60994,0.190135 -0.1765,0.129981 -0.17651,0.129978 -0.80794,-0.402251 -0.80795,-0.402251 -0.72659,-1.112008 -0.72658,-1.11201 -0.13996,-0.462064 -0.13995,-0.462066 -3.3286,0.08899 -3.32862,0.08899 -4.57145,0.159562 -4.57146,0.159559 -5.29326,0.147727 -5.29326,0.147725 -3.96995,0.131962 -3.96994,0.131959 -5.05266,0.150686 -5.05266,0.150683 -4.45115,0.14265 -4.45115,0.142651 -3.48875,0.124731 -3.48874,0.124732 -6.13537,0.189243 -6.13537,0.189246 -0.60151,0.06556 -0.6015,0.06556 -0.074,1.196141 -0.074,1.196145 h -0.22677 -0.22677 v 0.6723 0.6723 l -0.48183,0.51957 -0.48181,0.51957 -2.10467,0.0989 -2.10465,0.0989 -3.18229,0.0676 -3.18228,0.0676 -0.37142,-0.44257 -0.37142,-0.44256 -0.11457,-0.70076 -0.11455,-0.70076 -0.14545,-0.91544 -0.14542,-0.915437 -2.80288,0.117874 -2.80288,0.117874 -2.76693,0.154923 -2.76693,0.154923 -3.60904,0.144907 -3.60905,0.144909 -3.00753,0.126105 -3.00754,0.126108 -2.88723,0.164584 -2.88723,0.16458 -3.24814,0.14874 -3.24814,0.14873 -2.40603,0.10794 -2.40603,0.10794 -3.48874,0.17539 -3.48874,0.17539 -4.09024,0.12172 -4.09025,0.12171 -5.65417,0.18393 -5.65416,0.18393 -2.18081,0.0645 -2.18082,0.0645 -0.33863,0.24938 -0.33863,0.24938 -0.7127,-0.0647 -0.7127,-0.0647 -0.27874,-0.27565 -0.27873,-0.27564 -0.11837,0.14104 -0.11836,0.14104 -2.1014,0.0271 -2.10141,0.0271 -0.12937,0.40172 -0.12936,0.40171 -0.005,0.78948 -0.005,0.78948 -0.59249,5.16048 -0.5925,5.16048 -0.48245,1.89261 -0.48245,1.8926 -0.91239,1.18935 -0.91239,1.18935 -0.93006,0.0255 -0.93006,0.0255 -2.88723,0.10219 -2.88723,0.10219 -2.8299,0.0687 -2.82989,0.0687 -0.86038,-0.98475 -0.86039,-0.98474 -0.44924,-1.03828 -0.44925,-1.03827 -0.46814,-0.14587 -0.46813,-0.14588 -0.57927,0.13195 -0.57926,0.13195 -0.28307,2.3142 -0.28308,2.31421 -0.38012,0.691275 -0.38012,0.69127 -0.52585,-0.0498 -0.52586,-0.0498 -0.28454,0.0317 -0.28454,0.0317 -0.1597,0.59956 -0.1597,0.599565 -0.80505,0.4008 -0.80505,0.40081 -3.20186,0.11539 -3.20187,0.11539 -0.42105,0.20503 -0.42106,0.20505 v 0.57373 0.57374 l -0.5138,1.33454 -0.5138,1.33452 -0.52236,0.4695 -0.52236,0.46949 -4.43755,0.18423 -4.43756,0.18422 -4.25854,0.12754 -4.25854,0.12755 -4.40316,0.14145 -4.40316,0.14146 -6.13537,0.16505 -6.13537,0.16505 -3.007534,0.10999 -3.007535,0.10999 -1.24064,0.0169 -1.240639,0.0169 0.118477,0.53985 0.11848,0.53984 -0.45777,0.39191 -0.457769,0.3919 0.101433,1.21844 0.101436,1.21845 h 0.335634 0.335631 l 0.02786,0.21503 0.02787,0.21501 0.0512,1.80804 0.0512,1.80805 -0.439973,0.28057 -0.439971,0.28057 v 1.99677 1.99677 h -0.575424 -0.575423 l -0.111815,-0.64507 -0.111813,-0.64506 0.03519,-1.31931 0.03518,-1.31929 -0.851715,0.0292 -0.851715,0.0292 -0.03178,1.96904 -0.03178,1.96903 -0.329123,0.2463 -0.329125,0.24629 -0.400806,-0.14847 -0.400808,-0.14846 -0.138462,0.26695 -0.138465,0.26697 -4.092824,-0.0647 -4.092825,-0.0647 -0.14548,-0.17335 -0.145478,-0.17335 -0.01196,-2.02405 -0.01196,-2.02405 H 78.02968 77.712481 l 0.01602,2.03788 0.01602,2.03788 -0.202534,0.23571 -0.202535,0.23571 -4.051462,0.0885 -4.051461,0.0885 -0.10112,0.19496 -0.101118,0.19495 -1.432542,0.008 z m -34.412913,-34.365043 0.120302,-0.14334 2.766932,-0.0623 2.766932,-0.0623 2.912093,-0.19292 2.912095,-0.19292 -0.349721,-0.83533 -0.349721,-0.83532 -0.396946,0.0954 -0.396949,0.0954 -0.430761,-0.64158 -0.430761,-0.64158 -0.351646,-2.18995 -0.351645,-2.18997 0.100035,-2.91059 0.100038,-2.910601 0.364963,-1.198247 0.364963,-1.198249 0.405228,-0.736931 0.405231,-0.736934 h 0.442245 0.442247 l 0.404636,-1.016055 0.404636,-1.016056 0.632389,-0.389668 0.632388,-0.389665 1.320142,-0.456135 1.32014,-0.456132 1.323315,-0.163922 1.323315,-0.163923 2.494929,-0.09126 2.494931,-0.09126 0.1517,-0.25559 0.151702,-0.25559 0.997034,-0.924345 0.997037,-0.924346 h 0.266128 0.266131 V 63.670146 63.40037 l -0.244527,-0.180075 -0.244527,-0.180078 0.162799,-0.338556 0.162801,-0.338556 -0.21059,0.228859 -0.210592,0.228858 -0.542422,-1.339213 -0.542425,-1.339214 0.272536,-0.609805 0.272535,-0.609806 0.381753,-0.350293 0.381755,-0.350296 0.293047,0.122753 0.293049,0.122754 0.142608,-0.274948 0.14261,-0.274947 0.450786,0.287469 0.450786,0.287468 h 0.497023 0.497023 l 0.451393,-0.537862 0.451392,-0.537863 -0.07839,-0.680584 -0.07839,-0.680584 L 62.19029,53.618957 61.813048,51.182063 61.709,50.608676 61.604951,50.03529 l -0.121093,-0.860081 -0.121091,-0.86008 -0.263055,-1.72016 -0.263056,-1.72016 -0.121091,-0.860081 -0.121093,-0.86008 -0.07411,-0.633231 -0.07411,-0.633234 -0.364687,-0.663202 -0.364686,-0.663205 -2.555092,-0.938838 -2.555088,-0.938837 -2.347509,0.04501 -2.347511,0.04501 -0.649455,0.131314 -0.649452,0.131317 0.217421,0.681407 0.217421,0.681407 -0.01874,4.051282 -0.01874,4.051281 -0.496847,0.551555 -0.496845,0.551553 h -1.127133 -1.12713 l -0.0218,1.294096 -0.0218,1.294099 -0.42977,0.686089 -0.429769,0.686091 -0.84211,0.449008 -0.84211,0.449011 -0.481206,1.001822 -0.481205,1.001818 -1.183949,2.374369 -1.183949,2.374368 -0.10773,1.335934 -0.10773,1.335934 0.364819,0.871384 0.364819,0.871385 -0.276154,0.449486 -0.276155,0.449484 -0.777077,0.117 -0.777077,0.116999 -0.964675,0.646038 -0.964673,0.646038 -0.15236,0.571999 -0.152359,0.572002 -0.221468,0.308714 -0.221467,0.308714 -0.847914,1.576814 -0.847913,1.576814 -0.47188,1.003426 -0.471879,1.003427 -0.414275,0.773278 -0.414273,0.773279 -1.134052,2.28402 -1.13405,2.28402 0.09624,0.81306 0.09624,0.81307 0.260215,1.57166 0.260217,1.57166 -0.504927,0.45383 -0.504924,0.45382 -0.762601,-0.12109 -0.762597,-0.12109 0.481205,0.4517 0.481206,0.45171 0.493236,0.009 0.493235,0.009 0.228573,0.27027 0.228573,0.27027 1.323315,0.0881 1.323316,0.0881 0.120301,-0.14335 z M 176.08224,67.82911 l 0.18034,-0.132808 6.11816,-0.174776 6.11816,-0.174777 3.84965,-0.14312 3.84964,-0.143121 3.00754,-0.106581 3.00753,-0.106581 13.11286,-0.174187 13.11285,-0.174186 9.74441,-0.110907 9.74442,-0.110904 3.1664,-0.05135 3.16638,-0.05135 0.13402,-0.610625 0.13401,-0.610626 -0.20951,-0.249658 -0.20952,-0.249655 -18.24888,0.15271 -18.24886,0.15271 -2.16542,0.135073 -2.16543,0.135073 -3.43027,0.192609 -3.43026,0.192607 -3.06601,0.08902 -3.06601,0.08902 -0.84211,0.166858 -0.84211,0.166859 -10.34592,0.168776 -10.34592,0.168777 -0.84211,-0.01516 -0.84211,-0.01516 -0.3265,0.250782 -0.3265,0.25078 0.16337,0.61334 0.16337,0.613343 0.18034,-0.132808 z m 96.35163,-1.475106 3.64446,-0.124218 4.09024,-0.128348 4.09025,-0.128344 5.65417,-0.163048 5.65416,-0.163048 3.48874,-0.127415 3.48875,-0.127418 5.89476,-0.162036 5.89477,-0.162039 3.72935,-0.120673 3.72934,-0.120674 5.41356,-0.17687 5.41357,-0.176872 3.48874,-0.102586 3.48874,-0.102584 0.38085,-0.02061 0.38085,-0.02062 -0.0369,-0.59631 -0.0369,-0.596308 -0.3276,-0.241255 -0.32761,-0.241255 -2.18178,0.102833 -2.18181,0.102837 -6.49628,0.178673 -6.49627,0.178673 -2.88724,0.118499 -2.88723,0.118499 -5.89477,0.158788 -5.89477,0.158786 -3.72934,0.131755 -3.72935,0.131756 -5.17296,0.154613 -5.17296,0.154618 -4.57145,0.14762 -4.57145,0.147619 -3.60905,0.11044 -3.60904,0.11044 -0.98089,0.02104 -0.98089,0.02104 0.10337,0.83913 0.10333,0.839131 3.64449,-0.124221 z m -73.58905,-0.693958 h 0.1203 v -0.143347 -0.143347 h -0.1203 -0.1203 v 0.143347 0.143347 z m -19.06777,-11.042406 4.391,-0.14691 4.09025,-0.127476 4.09025,-0.127472 4.69175,-0.161337 4.69176,-0.161334 7.45868,-0.132658 7.45869,-0.132657 13.11285,-0.159842 13.11286,-0.159846 5.51702,-0.0617 5.51702,-0.0617 0.18625,-0.829777 0.18623,-0.829777 -0.22879,-0.509422 -0.22881,-0.50942 -1.02331,0.09871 -1.02331,0.09871 -3.84964,0.18232 -3.84965,0.182323 -2.28572,0.132034 -2.28573,0.132036 -3.12784,0.133949 -3.12783,0.133949 -3.12784,0.160772 -3.12784,0.160769 -1.80452,0.117 -1.80452,0.116999 -3.48874,0.167225 -3.48874,0.167222 -2.52633,0.129262 -2.52633,0.129259 -3.00754,0.150514 -3.00753,0.150514 -4.81206,0.13955 -4.81205,0.139549 -4.21055,0.145428 -4.21055,0.145425 -5.73812,0.143507 -5.73812,0.143507 -0.2168,0.159658 -0.2168,0.159656 v 0.269202 0.2692 z m 88.93787,-3.703877 0.16086,-0.118471 6.48851,-0.182672 6.4885,-0.18267 3.24814,-0.106977 3.24814,-0.106976 5.41356,-0.174069 5.41357,-0.174069 3.72934,-0.128957 3.72934,-0.128955 5.05266,-0.146957 5.05266,-0.146955 3.60904,-0.12919 3.60905,-0.129193 5.89476,-0.179112 5.89477,-0.179108 2.00995,-0.08004 2.00995,-0.08004 0.21195,-0.39882 0.21194,-0.398819 0.004,-0.313516 0.004,-0.313517 -2.10527,0.07377 -2.10528,0.07377 -6.25567,0.181927 -6.25567,0.181927 -3.12784,0.117593 -3.12784,0.11759 -5.77446,0.17089 -5.77447,0.170886 -3.84965,0.129433 -3.84964,0.129434 -4.57146,0.135436 -4.57145,0.135434 -4.93236,0.168381 -4.93235,0.168384 -3.00754,0.09542 -3.00753,0.09542 -2.34588,0.06555 -2.34588,0.06556 0.003,0.178547 0.003,0.178547 0.14436,0.641834 0.14438,0.641838 0.16087,-0.118473 z"
     id="path233" /></svg>
