<?xml version="1.0" encoding="UTF-8" standalone="no"?>
<svg
   xmlns:dc="http://purl.org/dc/elements/1.1/"
   xmlns:cc="http://creativecommons.org/ns#"
   xmlns:rdf="http://www.w3.org/1999/02/22-rdf-syntax-ns#"
   xmlns:svg="http://www.w3.org/2000/svg"
   xmlns="http://www.w3.org/2000/svg"
   xmlns:sodipodi="http://sodipodi.sourceforge.net/DTD/sodipodi-0.dtd"
   xmlns:inkscape="http://www.inkscape.org/namespaces/inkscape"
   version="1.1"
   x="0px"
   y="0px"
   width="47.875px"
   height="32px"
   viewBox="0 0 47.875 32"
   enable-background="new 0 0 47.875 32"
   xml:space="preserve"
   id="svg222"
   sodipodi:docname="renetti.svg"
   inkscape:version="1.0.2-2 (e86c870879, 2021-01-15)"><metadata
   id="metadata228"><rdf:RDF><cc:Work
       rdf:about=""><dc:format>image/svg+xml</dc:format><dc:type
         rdf:resource="http://purl.org/dc/dcmitype/StillImage" /></cc:Work></rdf:RDF></metadata><defs
   id="defs226" /><sodipodi:namedview
   pagecolor="#ffffff"
   bordercolor="#666666"
   borderopacity="1"
   objecttolerance="10"
   gridtolerance="10"
   guidetolerance="10"
   inkscape:pageopacity="0"
   inkscape:pageshadow="2"
   inkscape:window-width="1842"
   inkscape:window-height="1051"
   id="namedview224"
   showgrid="false"
   inkscape:zoom="17.945373"
   inkscape:cx="31.37443"
   inkscape:cy="23.254641"
   inkscape:window-x="-9"
   inkscape:window-y="-9"
   inkscape:window-maximized="1"
   inkscape:current-layer="svg222" />

<g
   id="guides">
</g>
<path
   style="fill:#ffffff;stroke-width:0.111449"
   d="m 3.0028155,30.497445 c 0,-0.07703 0.050963,-0.315249 0.113252,-0.529385 0.062289,-0.214135 0.1379326,-0.525555 0.1680977,-0.692042 l 0.054846,-0.302707 -1.1990041,-0.03164 C 1.1536198,28.915641 0.94394189,28.880381 0.95757709,28.742853 0.97408909,28.576304 1.3211257,27.311411 1.844317,25.510822 1.9957098,24.989796 2.2135644,24.237513 2.3284383,23.839082 2.4433122,23.440651 2.7125785,22.512835 2.9268077,21.777269 3.141037,21.041704 3.3996088,20.138964 3.5014118,19.771181 3.7489777,18.876801 4.0396094,17.864657 4.3974701,16.6506 4.9956787,14.621153 5.116574,14.072017 5.1184431,13.375774 5.1214131,12.268785 4.9418323,11.841157 4.1431947,11.053484 3.3120602,10.233759 2.9237731,10.08793 1.7324705,10.148089 0.91801819,10.189219 0.87365919,10.179049 0.81299569,9.9373473 0.70550919,9.5090863 1.0269416,9.1652603 1.6176017,9.0766853 c 1.1070877,-0.166018 1.1391925,-0.394713 0.055411,-0.394713 -0.72553761,0 -0.78658401,-0.0197 -1.00304401,-0.32369 -0.262402,-0.36851 -0.2939353,-0.865011 -0.073398,-1.155676 0.0825,-0.108735 0.3943566,-0.322841 0.69301391,-0.475791 0.500799,-0.256473 0.6209907,-0.272639 1.5460573,-0.207949 l 1.0030442,0.07014 0.4257837,-0.792433 c 0.2341811,-0.435838 0.4674979,-0.792433 0.5184818,-0.792433 0.050984,0 0.143843,-0.146715 0.2063535,-0.326032 0.1305514,-0.3745 0.8728304,-1.131943 1.5241651,-1.555302 0.2451886,-0.15937 0.4859037,-0.35294 0.5349223,-0.430157 0.049019,-0.07722 0.2370895,-0.140395 0.417935,-0.140395 0.2437937,0 0.3288101,-0.0525 0.3288101,-0.203045 0,-0.111675 0.079943,-0.437664 0.1776505,-0.724421 0.1601889,-0.470128 0.211517,-0.521375 0.5222014,-0.521375 0.2040403,0 0.453244,0.102262 0.6110815,0.250761 0.2179237,0.20503 0.4428081,0.263461 1.233126,0.3204 1.093622,0.07879 2.173914,0.415162 2.228572,0.693912 0.03264,0.166468 0.397234,0.183768 3.872864,0.183768 2.483587,0 3.836831,0.03931 3.836831,0.11145 0,0.07338 3.060883,0.111449 8.959748,0.111449 7.861409,0 8.967612,-0.02049 9.023899,-0.167174 0.05265,-0.137202 0.334524,-0.167174 1.572215,-0.167174 1.263122,0 1.508063,-0.02703 1.508063,-0.166409 0,-0.260344 0.374215,-1.058733 0.499951,-1.066648 0.06216,-0.0039 0.283725,-0.02377 0.492364,-0.04412 0.208639,-0.02035 0.434324,0.0098 0.501522,0.06691 0.0672,0.05715 0.334874,0.25654 0.594834,0.44309 0.259961,0.18655 0.550782,0.503819 0.646268,0.705043 0.161061,0.339409 0.222747,0.370996 0.853223,0.436894 0.373785,0.03907 1.073471,0.07103 1.554856,0.07103 h 0.875247 v 1.337392 1.337392 l -0.808008,7.91e-4 c -0.444404,4.35e-4 -1.146535,0.03276 -1.560291,0.07184 l -0.752283,0.07105 -0.0015,1.739211 c -0.0017,1.98551 -0.03947,2.214925 -0.37205,2.262333 -0.186967,0.02665 -0.246809,0.122869 -0.27323,0.4393227 -0.04309,0.516038 -0.160104,0.542122 -2.431992,0.542122 h -1.71355 v -0.284448 c 0,-0.27312 -0.0233,-0.283105 -0.585109,-0.25076 -0.509735,0.02935 -0.589696,0.06599 -0.620722,0.284447 -0.03003,0.211475 -0.104242,0.250761 -0.47366,0.250761 -0.392949,0 -0.438046,-0.02868 -0.438046,-0.278623 0,-0.260048 -0.03715,-0.278623 -0.557247,-0.278623 -0.520097,0 -0.557246,0.01857 -0.557246,0.278623 0,0.250761 -0.04458,0.278623 -0.445798,0.278623 -0.401217,0 -0.445797,-0.02786 -0.445797,-0.278623 0,-0.263425 -0.03343,-0.278623 -0.612971,-0.278623 -0.579537,0 -0.612972,0.0152 -0.612972,0.278623 v 0.278623 h -2.861907 c -3.142727,0 -3.41979,0.04437 -3.807147,0.60968 -0.228468,0.333426 -0.246765,0.508185 -0.287212,2.743038 -0.02376,1.312808 -0.04811,2.393346 -0.05412,2.401196 -0.03944,0.05155 -1.382303,0.499745 -1.794111,0.598806 -0.275837,0.06635 -0.601826,0.163629 -0.72442,0.216165 -0.403982,0.173123 -3.82447,0.595334 -4.313365,0.532424 -0.95246,-0.12256 -2.600674,-0.441087 -2.784204,-0.538063 -0.695469,-0.367482 -2.181095,0.290596 -2.81355,1.2463 -0.150937,0.228082 -0.3541,0.733323 -0.451473,1.122759 -0.09737,0.389434 -0.223869,0.808367 -0.281099,0.930961 -0.05723,0.122595 -0.20268,0.599041 -0.323221,1.058769 -0.120541,0.459729 -0.326295,1.212012 -0.45723,1.67174 -0.534175,1.875553 -0.589787,2.251239 -0.581402,3.927675 0.0069,1.375845 -0.01994,1.658724 -0.165007,1.739904 -0.119531,0.06689 -0.134243,0.121034 -0.04747,0.174666 0.06917,0.04275 0.125762,0.265992 0.125762,0.496094 0,0.312898 -0.0788,0.493866 -0.312584,0.717843 l -0.312584,0.299475 H 7.4268285 c -3.4773069,0 -4.424013,-0.02997 -4.424013,-0.140046 z M 22.702647,17.217744 c 0.727139,-0.1478 1.519597,-0.375762 1.761017,-0.506584 0.672184,-0.364244 1.133295,-0.95442 1.40512,-1.798409 0.224666,-0.697566 0.231627,-0.803185 0.09144,-1.387548 -0.08346,-0.347879 -0.294121,-0.847468 -0.468145,-1.110198 -0.363024,-0.548065 -1.27542,-1.207421 -1.926862,-1.392475 -0.599308,-0.170244 -5.714225,-0.109274 -5.82744,0.06946 -0.04366,0.06892 -0.230377,0.158038 -0.414936,0.198039 -0.461087,0.09993 -1.350192,0.885036 -1.566572,1.383323 -0.09813,0.225976 -0.224353,0.497951 -0.280498,0.60439 -0.157611,0.298799 -0.120947,1.215962 0.07114,1.779716 0.219689,0.644753 0.83462,1.367026 1.416671,1.663966 0.559934,0.285657 2.79793,0.738307 3.726122,0.753635 0.379978,0.0063 1.2858,-0.109519 2.012939,-0.257318 z M 2.072492,8.0587033 c 0.1746332,-0.266524 0.1754507,-0.311882 0.010545,-0.585109 -0.3569743,-0.591461 -1.19775931,-0.398843 -1.19775931,0.274399 0,0.608924 0.84663501,0.830499 1.18721431,0.31071 z m 22.885843,-0.379775 c 0,-0.20167 -0.0743,-0.222899 -0.780145,-0.222899 -0.445797,0 -0.780146,0.04776 -0.780146,0.11145 0,0.0613 0.238223,0.112217 0.529385,0.113156 0.291161,9.36e-4 0.604613,0.05032 0.696558,0.109742 0.251361,0.162442 0.334348,0.134779 0.334348,-0.111449 z"
   id="path244" /><path
   style="fill:#ffffff;stroke-width:0.0278623"
   d="m 20.376237,16.405273 c 0,-0.01532 -0.02508,-0.02786 -0.05572,-0.02786 -0.03065,0 -0.05572,-0.01254 -0.05572,-0.02786 0,-0.01532 -0.01343,-0.02786 -0.02985,-0.02786 -0.03558,0 -0.109459,-0.06973 -0.109459,-0.103309 0,-0.01304 -0.02508,-0.04178 -0.05572,-0.06386 -0.03065,-0.02209 -0.05572,-0.06247 -0.05572,-0.08974 0,-0.02727 -0.01429,-0.04957 -0.03176,-0.04957 -0.04083,0 -0.105522,-0.08499 -0.106669,-0.140126 -4.87e-4,-0.02344 -0.02596,-0.06068 -0.05661,-0.08277 -0.03065,-0.02209 -0.05572,-0.06874 -0.05572,-0.103669 0,-0.03787 -0.01687,-0.0635 -0.04179,-0.0635 -0.02322,0 -0.04179,-0.02477 -0.04179,-0.05572 0,-0.03065 -0.01254,-0.05573 -0.02786,-0.05573 -0.01532,0 -0.02786,-0.02858 -0.02786,-0.0635 0,-0.03493 -0.02508,-0.08158 -0.05573,-0.103669 -0.03065,-0.02209 -0.05572,-0.06247 -0.05572,-0.08974 0,-0.02727 -0.01881,-0.04957 -0.04179,-0.04957 -0.02601,0 -0.04179,-0.02631 -0.04179,-0.06966 0,-0.03831 -0.01254,-0.06965 -0.02786,-0.06965 -0.01532,0 -0.02786,-0.02508 -0.02786,-0.05573 0,-0.03065 -0.01254,-0.05573 -0.02786,-0.05573 -0.01532,0 -0.02786,-0.03134 -0.02786,-0.06966 0,-0.03831 -0.01254,-0.06966 -0.02786,-0.06966 -0.01532,0 -0.02786,-0.02508 -0.02786,-0.05572 0,-0.03096 -0.01857,-0.05572 -0.04179,-0.05572 -0.02919,0 -0.04179,-0.02941 -0.04179,-0.09752 0,-0.05363 -0.01254,-0.09752 -0.02786,-0.09752 -0.01532,0 -0.02786,-0.04388 -0.02786,-0.09752 0,-0.05363 -0.01254,-0.09752 -0.02786,-0.09752 -0.01532,0 -0.02786,-0.03761 -0.02786,-0.08359 0,-0.04597 -0.01254,-0.08359 -0.02786,-0.08359 -0.01533,0 -0.02786,-0.05642 -0.02786,-0.12538 0,-0.06896 -0.01254,-0.125381 -0.02786,-0.125381 -0.01532,0 -0.02786,-0.06935 -0.02786,-0.154117 0,-0.11129 -0.01161,-0.158574 -0.04179,-0.170155 -0.03281,-0.01259 -0.04179,-0.06927 -0.04179,-0.263818 0,-0.146611 -0.01138,-0.24778 -0.02786,-0.24778 -0.01785,0 -0.02786,-0.255404 -0.02786,-0.710489 0,-0.455085 -0.01002,-0.71049 -0.02786,-0.71049 -0.01533,0 -0.02786,-0.02434 -0.02786,-0.05408 0,-0.02974 -0.01254,-0.06183 -0.02786,-0.0713 -0.01532,-0.0095 -0.02786,-0.04156 -0.02786,-0.0713 0,-0.02975 -0.01421,-0.05408 -0.03159,-0.05408 -0.041,0 -0.163373,-0.142323 -0.163417,-0.190061 -4.1e-5,-0.04429 -0.06788,-0.116424 -0.109493,-0.116424 -0.01642,0 -0.02985,-0.03135 -0.02985,-0.06966 0,-0.05882 -0.013,-0.06966 -0.08359,-0.06966 -0.04597,0 -0.08359,-0.01254 -0.08359,-0.02786 0,-0.0181 0.380785,-0.02786 1.086631,-0.02786 h 1.086631 v 0.125381 c 0,0.06896 -0.01254,0.12538 -0.02786,0.12538 -0.01532,0 -0.02786,0.02508 -0.02786,0.05573 0,0.03065 -0.01254,0.05573 -0.02786,0.05573 -0.01533,0 -0.02786,0.01881 -0.02786,0.04179 0,0.02299 -0.01343,0.04179 -0.02985,0.04179 -0.04439,0 -0.109459,0.07335 -0.109459,0.12339 0,0.02408 -0.01254,0.04378 -0.02786,0.04378 -0.01532,0 -0.02786,0.01881 -0.02786,0.04179 0,0.02299 -0.01254,0.04179 -0.02786,0.04179 -0.01533,0 -0.02786,0.02373 -0.02786,0.05274 0,0.02901 -0.01881,0.05996 -0.04179,0.06878 -0.02299,0.0088 -0.04179,0.04151 -0.04179,0.07264 0,0.03113 -0.01254,0.0566 -0.02786,0.0566 -0.01532,0 -0.02786,0.02508 -0.02786,0.05572 0,0.03065 -0.01254,0.05573 -0.02786,0.05573 -0.01532,0 -0.02786,0.04388 -0.02786,0.09752 0,0.05363 -0.01254,0.09752 -0.02786,0.09752 -0.01533,0 -0.02786,0.05642 -0.02786,0.125381 0,0.09287 -0.01084,0.12538 -0.04179,0.12538 -0.03286,0 -0.04179,0.0387 -0.04179,0.181106 0,0.102161 -0.01215,0.181105 -0.02786,0.181105 -0.01771,0 -0.02786,0.218255 -0.02786,0.59904 0,0.380785 0.01015,0.59904 0.02786,0.59904 0.0161,0 0.02786,0.08823 0.02786,0.208968 0,0.167174 0.0084,0.208967 0.04179,0.208967 0.03096,0 0.04179,0.03251 0.04179,0.125381 0,0.06896 0.01254,0.12538 0.02786,0.12538 0.01532,0 0.02786,0.04388 0.02786,0.09752 0,0.05363 0.01254,0.09752 0.02786,0.09752 0.01532,0 0.02786,0.05642 0.02786,0.125381 0,0.06896 0.01254,0.125381 0.02786,0.125381 0.01532,0 0.02786,0.02547 0.02786,0.0566 0,0.03113 0.01881,0.06382 0.04179,0.07264 0.02299,0.0088 0.04179,0.03977 0.04179,0.06878 0,0.02901 0.01254,0.05274 0.02786,0.05274 0.01532,0 0.02786,0.04388 0.02786,0.09752 0,0.05363 0.01254,0.09752 0.02786,0.09752 0.01533,0 0.02786,0.0197 0.02786,0.04378 0,0.05004 0.06507,0.12339 0.109459,0.12339 0.01642,0 0.02985,0.02858 0.02985,0.0635 0,0.03493 0.02508,0.08158 0.05572,0.103669 0.03065,0.02209 0.05572,0.06874 0.05572,0.103669 0,0.03493 0.01254,0.06351 0.02786,0.06351 0.01532,0 0.02786,0.02508 0.02786,0.05572 0,0.03065 0.01343,0.05572 0.02985,0.05572 0.04513,0 0.109459,0.07369 0.109459,0.125381 0,0.05169 -0.06433,0.12538 -0.109459,0.12538 -0.01642,0 -0.02985,0.01254 -0.02985,0.02786 0,0.01532 -0.01254,0.02786 -0.02786,0.02786 -0.01532,0 -0.02786,-0.01254 -0.02786,-0.02786 z"
   id="path246" /></svg>
