<?xml version="1.0" encoding="UTF-8" standalone="no"?>
<svg
   xmlns:dc="http://purl.org/dc/elements/1.1/"
   xmlns:cc="http://creativecommons.org/ns#"
   xmlns:rdf="http://www.w3.org/1999/02/22-rdf-syntax-ns#"
   xmlns:svg="http://www.w3.org/2000/svg"
   xmlns="http://www.w3.org/2000/svg"
   xmlns:sodipodi="http://sodipodi.sourceforge.net/DTD/sodipodi-0.dtd"
   xmlns:inkscape="http://www.inkscape.org/namespaces/inkscape"
   version="1.1"
   x="0px"
   y="0px"
   width="88.5px"
   height="32px"
   viewBox="0 0 88.5 32"
   enable-background="new 0 0 88.5 32"
   xml:space="preserve"
   id="svg77"
   sodipodi:docname="jak17.svg"
   inkscape:version="1.0.2-2 (e86c870879, 2021-01-15)"><metadata
   id="metadata83"><rdf:RDF><cc:Work
       rdf:about=""><dc:format>image/svg+xml</dc:format><dc:type
         rdf:resource="http://purl.org/dc/dcmitype/StillImage" /></cc:Work></rdf:RDF></metadata><defs
   id="defs81" /><sodipodi:namedview
   pagecolor="#ffffff"
   bordercolor="#666666"
   borderopacity="1"
   objecttolerance="10"
   gridtolerance="10"
   guidetolerance="10"
   inkscape:pageopacity="0"
   inkscape:pageshadow="2"
   inkscape:window-width="1842"
   inkscape:window-height="1051"
   id="namedview79"
   showgrid="false"
   inkscape:zoom="10.24"
   inkscape:cx="41.170919"
   inkscape:cy="5.641547"
   inkscape:window-x="-9"
   inkscape:window-y="-9"
   inkscape:window-maximized="1"
   inkscape:current-layer="svg77" />
<g
   id="Selected_Items"
   style="fill:#999999">
	<g
   id="g73"
   style="fill:#999999">
		<g
   id="Selected_Items_1_"
   style="fill:#999999">
			
		</g>
	</g>
</g>
<g
   id="guides">
</g>
<path
   style="fill:#ffffff;stroke-width:0.0941723"
   d="m 47.237561,31.703578 c -0.02656,-0.169773 -0.09329,-0.817209 -0.148294,-1.438747 -0.05499,-0.621537 -0.140388,-1.490277 -0.189751,-1.930533 -0.04936,-0.440256 -0.13265,-1.181864 -0.185086,-1.648018 -0.05244,-0.466153 -0.123085,-1.154788 -0.156997,-1.530301 L 46.495773,24.47323 H 46.0956 45.695426 l 0.09146,-0.400233 c 0.05209,-0.227984 0.06372,-0.834412 0.02701,-1.409084 -0.06349,-0.9939 -0.06891,-1.012261 -0.365994,-1.238857 -0.284088,-0.216683 -0.3083,-0.283695 -0.41809,-1.157112 -0.0641,-0.50991 -0.161324,-1.276724 -0.21606,-1.704031 l -0.09952,-0.776923 h -0.649478 c -0.634436,0 -0.64948,0.0056 -0.64948,0.241622 0,0.132892 -0.04904,0.334186 -0.108969,0.447319 -0.113855,0.214921 -0.549925,0.629159 -0.662526,0.629358 -0.03586,6.3e-5 -0.268938,-0.239651 -0.517949,-0.532698 -0.24901,-0.293046 -0.522545,-0.595374 -0.607857,-0.671838 -0.27208,-0.243864 -2.12883,-0.673924 -2.920633,-0.676474 l -0.721436,-0.0023 -0.187206,0.400233 c -0.102964,0.220128 -0.323288,0.696876 -0.48961,1.059439 -0.16632,0.362565 -0.400086,0.871096 -0.519478,1.130069 -0.676467,1.467327 -0.882761,1.92056 -1.02873,2.260137 -0.08905,0.20718 -0.200735,0.450276 -0.248177,0.540214 -0.116289,0.220463 -0.110102,1.270294 0.0079,1.343234 0.121656,0.07519 0.121154,0.479915 -8.48e-4,0.707933 -0.0919,0.171721 -0.115947,0.169738 -0.725805,-0.05982 -0.346916,-0.130578 -0.80208,-0.313891 -1.011475,-0.407361 -0.209396,-0.09347 -0.55023,-0.223183 -0.75741,-0.288254 -0.207179,-0.06507 -0.419067,-0.149007 -0.470862,-0.186527 -0.05179,-0.03752 -0.412004,-0.185334 -0.800465,-0.328476 -0.388461,-0.143142 -0.791048,-0.291746 -0.894638,-0.330233 -0.10359,-0.03849 -0.346471,-0.138351 -0.539736,-0.221924 l -0.351392,-0.151952 0.57026,-0.92054 c 0.313642,-0.506299 0.62009,-1.005298 0.680994,-1.108887 0.06091,-0.103589 0.134699,-0.209534 0.163987,-0.235431 0.02929,-0.0259 0.280779,-0.428484 0.558869,-0.894637 0.278091,-0.466154 0.532171,-0.868741 0.564623,-0.894638 0.03245,-0.0259 0.223335,-0.322541 0.424188,-0.659207 0.200851,-0.336667 0.393845,-0.633309 0.428874,-0.659206 0.03502,-0.0259 0.09344,-0.142436 0.129813,-0.258975 0.03636,-0.116538 0.105647,-0.211888 0.153952,-0.211888 0.0483,0 0.08782,-0.04409 0.08782,-0.09798 0,-0.0539 0.07807,-0.212808 0.173497,-0.353147 0.921833,-1.355741 1.199588,-2.000727 1.098826,-2.551639 -0.06562,-0.358625 -0.418488,-1.140811 -0.514681,-1.140811 -0.03107,0 -0.203665,-0.135143 -0.383541,-0.300316 l -0.327048,-0.300318 -3.95524,-0.03404 c -5.357909,-0.04611 -6.16397,0.04466 -8.646035,0.973666 -1.185013,0.443537 -2.001266,0.772728 -2.654651,1.070611 -0.428661,0.19543 -0.709593,0.318306 -1.836362,0.803198 -0.930688,0.400512 -1.204423,0.520261 -1.807652,0.79078 -0.243183,0.109055 -0.485565,0.198283 -0.538627,0.198283 -0.05306,0 -0.23549,0.07641 -0.405398,0.169797 -0.169909,0.09339 -0.520813,0.247911 -0.779787,0.343384 -0.258974,0.09547 -0.640373,0.246931 -0.847551,0.336576 -0.815883,0.353023 -1.257154,0.469524 -1.979011,0.522483 -0.4135943,0.03035 -0.8418783,0.09845 -0.9517423,0.15135 -0.192549,0.09271 -0.828765,0.07108 -1.5659791,-0.05324 -0.2141964,-0.03612 -0.3531464,-0.02215 -0.3531464,0.03552 0,0.05228 -0.084755,0.09506 -0.1883448,0.09506 -0.1236543,0 -0.1883448,-0.06278 -0.1883448,-0.182787 0,-0.100533 -0.042377,-0.208978 -0.094172,-0.240989 -0.051795,-0.03201 -0.094172,0.0021 -0.094172,0.07577 0,0.103227 -0.2295766,0.149344 -1.000559,0.200989 -0.5503075,0.03687 -1.0357917,0.03179 -1.0788537,-0.01127 C 4.6597319,17.303142 4.6057459,15.467122 4.5828243,13.26616 4.5599079,11.065175 4.4940864,8.8618024 4.436559,8.3697516 4.2581652,6.8438931 4.1361787,5.8844927 4.0878039,5.6268597 3.9971506,5.1440616 4.2122643,5.0658413 5.5914475,5.0801008 c 0.6808174,0.00704 1.4921154,-0.014176 1.8028842,-0.047146 0.3107689,-0.03297 3.8492963,-0.1029986 7.8633943,-0.1556141 6.576701,-0.086201 19.096072,-0.2545906 19.988089,-0.2688385 0.246567,-0.00395 0.353147,-0.047734 0.353147,-0.1451058 0,-0.076702 0.101403,-0.1649151 0.225341,-0.1960213 0.173706,-0.043597 0.250596,-0.1572988 0.33555,-0.4961994 0.06062,-0.2418026 0.149504,-0.5879635 0.197532,-0.7692451 0.04803,-0.1812825 0.127747,-0.5414917 0.177151,-0.8004651 0.345058,-1.8087689 0.43322,-1.9570579 1.136218,-1.9111324 l 0.423776,0.027685 0.02546,1.9540772 0.02546,1.9540768 h 0.232721 c 0.130734,0 0.284271,0.082546 0.350345,0.1883443 0.07146,0.1144249 0.219614,0.1883452 0.377488,0.1883452 0.240394,0 0.259865,-0.028226 0.259865,-0.3766895 V 3.8494824 h 0.376689 c 0.272054,0 0.37669,0.039238 0.37669,0.1412582 0,0.094176 0.09418,0.1412592 0.282517,0.1412592 0.188344,0 0.282517,-0.047088 0.282517,-0.1412592 0,-0.078477 0.08371,-0.1412582 0.188345,-0.1412582 0.104636,0 0.188344,0.062778 0.188344,0.1412582 0,0.094176 0.09418,0.1412592 0.282518,0.1412592 0.188345,0 0.282517,-0.047088 0.282517,-0.1412592 0,-0.087898 0.08894,-0.1412582 0.235431,-0.1412582 0.146491,0 0.235431,0.053366 0.235431,0.1412582 0,0.087898 0.08894,0.1412592 0.235431,0.1412592 0.146491,0 0.23543,-0.053366 0.23543,-0.1412592 0,-0.087898 0.08894,-0.1412582 0.235432,-0.1412582 0.14649,0 0.235431,0.053366 0.235431,0.1412582 0,0.087898 0.08894,0.1412592 0.23543,0.1412592 0.146492,0 0.235432,-0.053366 0.235432,-0.1412592 0,-0.087898 0.08894,-0.1412582 0.235431,-0.1412582 0.146491,0 0.23543,0.053366 0.23543,0.1412582 0,0.095256 0.0953,0.1412592 0.292593,0.1412592 0.221392,0 0.279403,-0.034378 0.238386,-0.1412592 -0.03916,-0.1020535 0.01032,-0.1412582 0.17827,-0.1412582 0.143863,0 0.232476,0.053848 0.232476,0.1412582 0,0.095256 0.09529,0.1412592 0.292592,0.1412592 0.221392,0 0.279402,-0.034378 0.238386,-0.1412592 -0.03916,-0.1020535 0.01032,-0.1412582 0.178269,-0.1412582 0.143864,0 0.232476,0.053848 0.232476,0.1412582 0,0.094176 0.09418,0.1412592 0.282517,0.1412592 0.188345,0 0.282518,-0.047088 0.282518,-0.1412592 0,-0.078477 0.08371,-0.1412582 0.188344,-0.1412582 0.104636,0 0.188345,0.062778 0.188345,0.1412582 0,0.094176 0.09418,0.1412592 0.282517,0.1412592 0.188345,0 0.282517,-0.047088 0.282517,-0.1412592 0,-0.078477 0.08371,-0.1412582 0.188345,-0.1412582 0.104637,0 0.188345,0.062778 0.188345,0.1412582 0,0.098657 0.0994,0.1412592 0.329603,0.1412592 0.230199,0 0.329604,-0.042604 0.329604,-0.1412592 0,-0.078477 0.08371,-0.1412582 0.188345,-0.1412582 0.104635,0 0.188344,0.062778 0.188344,0.1412582 0,0.094176 0.09418,0.1412592 0.282518,0.1412592 0.188344,0 0.282517,-0.047088 0.282517,-0.1412592 0,-0.078477 0.08371,-0.1412582 0.188344,-0.1412582 0.104636,0 0.188346,0.062778 0.188346,0.1412582 0,0.094176 0.09418,0.1412592 0.282516,0.1412592 0.188345,0 0.282517,-0.047088 0.282517,-0.1412592 0,-0.078477 0.08371,-0.1412582 0.188346,-0.1412582 0.104635,0 0.188344,0.062778 0.188344,0.1412582 0,0.094176 0.09418,0.1412592 0.282517,0.1412592 0.19298,0 0.282518,-0.04648 0.282518,-0.1466738 0,-0.1143169 0.08829,-0.1402852 0.400232,-0.1177152 0.388496,0.02811 0.401089,0.039316 0.429461,0.3821042 l 0.02923,0.3531465 2.701772,1.032e-4 c 1.485974,5.88e-5 4.767677,0.028168 7.292674,0.062459 3.463188,0.04704 4.590905,0.035449 4.590905,-0.047194 0,-0.060251 -0.105945,-0.1095503 -0.235431,-0.1095503 -0.306748,0 -0.32008,-0.3229689 -0.02354,-0.5703492 0.256029,-0.2135874 0.628304,-0.2325981 0.876639,-0.044764 0.230154,0.1740799 0.512404,0.1840559 0.512404,0.01811 0,-0.2942619 0.4621,-0.3447193 3.157035,-0.3447193 h 2.677297 l 0.153811,0.2347447 c 0.09638,0.1470953 0.131684,0.3229072 0.09455,0.4708627 l -0.05926,0.236117 h -2.258344 c -1.242088,0 -2.258342,0.035776 -2.258342,0.079509 0,0.043732 1.175977,0.10742 2.613284,0.1415369 1.437305,0.034118 3.217163,0.089383 3.955239,0.1228135 l 1.341957,0.060782 V 4.6639168 c 0,-0.1866239 0.04742,-0.2494063 0.188345,-0.2494063 0.174962,0 0.188869,-0.065237 0.19572,-0.9181804 0.01129,-1.4050324 0.08313,-2.3274377 0.183968,-2.3621572 0.05015,-0.017265 0.09118,-0.1761809 0.09118,-0.3531464 0,-0.1769657 0.04238,-0.3217557 0.09418,-0.3217557 0.05179,0 0.09418,0.1382632 0.09418,0.3072516 0,0.2124347 0.06819,0.3584551 0.220945,0.4731745 0.222179,0.1668492 0.307445,0.4446167 0.532556,1.7348561 0.05611,0.3216112 0.120777,0.8684762 0.1437,1.2152543 0.02505,0.3790299 0.09859,0.6933884 0.184359,0.7881661 0.09786,0.1081298 0.142681,0.3577647 0.142681,0.7945982 0,0.494343 0.04217,0.6905437 0.188345,0.8763797 0.223861,0.2845936 0.237767,0.4893903 0.05008,0.7375333 -0.07605,0.1005406 -0.13961,0.3756568 -0.141258,0.6113697 l -0.003,0.4285693 1.389043,0.1136052 c 0.763973,0.062488 1.861377,0.1132976 2.438676,0.1129225 l 1.049633,-6.828e-4 0.0089,1.0726845 0.0089,1.072684 -1.811882,0.01249 c -0.996536,0.0068 -1.960205,0.03468 -2.141487,0.0618 -0.181281,0.02713 -0.46733,0.07044 -0.635664,0.09626 -0.219647,0.03368 -0.30606,0.09673 -0.30606,0.223313 0,0.298207 -0.106273,0.474296 -0.286247,0.474296 -0.09456,0 -0.1981,0.08248 -0.230095,0.183286 -0.0786,0.247668 -0.729895,0.339414 -1.613846,0.22734 -0.52921,-0.0671 -0.722291,-0.05847 -0.85418,0.03817 -0.146582,0.107409 -0.192266,0.09793 -0.326761,-0.06779 -0.303246,-0.373658 -0.455768,-0.249044 -0.455768,0.372375 v 0.565034 h -0.376689 c -0.272054,0 -0.37669,-0.03924 -0.37669,-0.141258 0,-0.22745 -0.531578,-0.185191 -0.59232,0.04709 -0.02709,0.10359 -0.111844,0.188344 -0.188345,0.188344 -0.0765,0 -0.161255,-0.08475 -0.188345,-0.188344 -0.03253,-0.124397 -0.128452,-0.188345 -0.282517,-0.188345 -0.154064,0 -0.249986,0.06394 -0.282517,0.188345 -0.0671,0.256589 -0.443576,0.256589 -0.443576,0 0,-0.146491 -0.06278,-0.188345 -0.282517,-0.188345 -0.188344,0 -0.282516,0.04709 -0.282516,0.141259 0,0.07848 -0.08371,0.141258 -0.188346,0.141258 -0.104636,0 -0.188344,-0.06278 -0.188344,-0.141258 0,-0.09418 -0.09418,-0.141259 -0.282517,-0.141259 -0.188346,0 -0.282518,0.04709 -0.282518,0.141259 0,0.183769 -0.340225,0.183769 -0.410744,0 -0.072,-0.187628 -0.530979,-0.187628 -0.530979,0 0,0.08789 -0.08894,0.141258 -0.235431,0.141258 -0.146491,0 -0.235432,-0.05337 -0.235432,-0.141258 0,-0.0879 -0.08894,-0.141259 -0.23543,-0.141259 -0.146491,0 -0.235431,0.05336 -0.235431,0.141259 0,0.08789 -0.08894,0.141258 -0.235432,0.141258 -0.14649,0 -0.23543,-0.05337 -0.23543,-0.141258 0,-0.0879 -0.08894,-0.141259 -0.235431,-0.141259 -0.146491,0 -0.235431,0.05336 -0.235431,0.141259 0,0.08789 -0.08894,0.141258 -0.235431,0.141258 -0.146491,0 -0.235431,-0.05337 -0.235431,-0.141258 0,-0.220859 -0.438929,-0.179369 -0.498149,0.04709 -0.02947,0.112686 -0.128452,0.188344 -0.246414,0.188344 -0.134379,0 -0.197161,-0.05997 -0.197161,-0.188344 0,-0.146491 -0.06279,-0.188345 -0.282517,-0.188345 -0.219735,0 -0.282518,0.04185 -0.282518,0.188345 0,0.125563 -0.06278,0.188344 -0.188344,0.188344 -0.125563,0 -0.188345,-0.06278 -0.188345,-0.188344 0,-0.146491 -0.06278,-0.188345 -0.282517,-0.188345 -0.188345,0 -0.282517,0.04709 -0.282517,0.141259 0,0.104635 -0.109868,0.141258 -0.423776,0.141258 -0.403693,0 -0.423775,-0.0128 -0.423775,-0.269944 v -0.269942 l -0.635664,0.03533 c -0.349615,0.01943 -1.589159,0.08048 -2.754542,0.135679 -1.165384,0.05519 -2.754543,0.136857 -3.531465,0.181477 -0.776922,0.04462 -1.994654,0.111546 -2.70607,0.148725 l -1.293486,0.0676 -0.196565,-0.249891 c -0.318751,-0.405226 -0.405497,-0.318325 -0.338079,0.338685 0.07318,0.71319 0.215165,2.024628 0.346647,3.201862 0.05351,0.479101 0.158051,1.485569 0.232313,2.236594 0.07426,0.751024 0.178802,1.757492 0.232312,2.236594 0.05351,0.479102 0.141072,1.263087 0.194582,1.742189 0.05351,0.479102 0.158051,1.48557 0.232312,2.236594 0.126794,1.282299 0.205792,2.016914 0.425326,3.95524 0.04987,0.440256 0.118008,1.118298 0.15143,1.506759 0.03342,0.388461 0.09892,0.780453 0.145554,0.871094 0.07208,0.140121 0.04009,0.164802 -0.213666,0.164802 -0.164145,0 -0.451685,0.03943 -0.638976,0.08763 -0.341593,0.08791 -1.235457,0.197518 -3.165701,0.388199 -0.569743,0.05628 -1.247784,0.137904 -1.506758,0.181382 -0.258974,0.04348 -0.51324,0.04537 -0.565035,0.0042 -0.10511,-0.08353 -1.685061,-0.04864 -1.829125,0.0404 -0.05054,0.03123 -0.113623,-0.08211 -0.140185,-0.251885 z m -5.399035,-14.31682 c 0.03025,-0.0893 0.407318,-0.11076 1.561692,-0.0889 0.932004,0.01765 1.52181,-0.0063 1.52181,-0.06181 0,-0.04984 0.0761,-0.07072 0.169102,-0.0464 0.156881,0.04102 0.163354,-0.009 0.08955,-0.691567 -0.177501,-1.641759 -0.275399,-2.081547 -0.53008,-2.381277 -0.289731,-0.34098 -0.286971,-0.340728 -2.579136,-0.234814 l -1.579236,0.07297 -0.05369,0.244459 c -0.02953,0.134452 -0.100072,0.392781 -0.156755,0.574062 -0.09271,0.296501 -0.119408,1.253743 -0.04859,1.742189 0.0258,0.177956 -0.03372,0.189808 -1.079219,0.214877 -0.89812,0.02153 -1.106526,0.05257 -1.106526,0.164802 0,0.111801 0.175766,0.139173 0.918182,0.14299 0.71489,0.0037 1.053707,0.0533 1.530301,0.224114 0.690739,0.24757 1.282283,0.302342 1.3426,0.124312 z m -2.285339,-1.152389 c 0.139302,-0.167849 0.04982,-0.613344 -0.123203,-0.613344 -0.166685,0 -0.346644,0.195558 -0.346644,0.37669 0,0.152429 0.172543,0.376689 0.289821,0.376689 0.03509,0 0.116106,-0.06302 0.180026,-0.140035 z m 0.362588,-1.606584 c 0.173424,-0.380624 0.136606,-0.513518 -0.142271,-0.513518 -0.319383,0 -0.595992,0.247162 -0.595992,0.532544 0,0.187581 0.04736,0.220835 0.314487,0.220835 0.245616,0 0.338422,-0.05253 0.423776,-0.239861 z M 67.853004,4.4481447 c -0.143501,-0.1435012 -0.165923,-0.1435012 -0.309423,0 -0.143501,0.1435003 -0.132291,0.1547115 0.15471,0.1547115 0.287002,0 0.298213,-0.011215 0.154713,-0.1547115 z"
   id="path245" /></svg>
