<?xml version="1.0" encoding="UTF-8" standalone="no"?>
<svg
   width="402"
   height="133"
   viewBox="0 0 402 133"
   version="1.1"
   id="svg10529"
   sodipodi:docname="crossbow.svg"
   inkscape:version="1.2.1 (9c6d41e410, 2022-07-14)"
   xmlns:inkscape="http://www.inkscape.org/namespaces/inkscape"
   xmlns:sodipodi="http://sodipodi.sourceforge.net/DTD/sodipodi-0.dtd"
   xmlns="http://www.w3.org/2000/svg"
   xmlns:svg="http://www.w3.org/2000/svg">
  <defs
     id="defs10533" />
  <sodipodi:namedview
     id="namedview10531"
     pagecolor="#ffffff"
     bordercolor="#000000"
     borderopacity="0.25"
     inkscape:showpageshadow="2"
     inkscape:pageopacity="0.0"
     inkscape:pagecheckerboard="0"
     inkscape:deskcolor="#d1d1d1"
     showgrid="false"
     inkscape:zoom="2.3710944"
     inkscape:cx="119.77592"
     inkscape:cy="50.609542"
     inkscape:window-width="1920"
     inkscape:window-height="1017"
     inkscape:window-x="-8"
     inkscape:window-y="-8"
     inkscape:window-maximized="1"
     inkscape:current-layer="svg10529" />
  <path
     style="fill:#ffffff"
     d="m 150.89796,113.46225 -2.66821,-0.116 -2,-0.49161 -2,-0.49161 -1,-0.7988 -1,-0.79881 -4.75,-0.70713 -4.75,-0.70713 v -0.88645 -0.88646 h -1.71657 -1.71656 l -4.03344,-1.39456 -4.03343,-1.39456 -6,-1.81515 -6,-1.81515 -1,-0.67722 -1,-0.677226 -4.24476,-0.700074 -4.244756,-0.70008 -0.494195,-0.79963 -0.494196,-0.79962 -3.634153,-0.68177 -3.634153,-0.68177 -1.626892,-0.831929 -1.626892,-0.831927 -6,-1.724108 -6,-1.724108 -1.820505,-0.928062 -1.820506,-0.928062 -11.705043,-1.617615 -11.705043,-1.617614 -2.813611,1.843549 -2.81361,1.843548 0.388358,3.326571 0.388359,3.326567 H 29.457524 15.586896 L 14.158325,94.149683 12.729754,92.721111 V 89.849683 86.978254 L 11.514075,85.762576 10.298397,84.546898 9.8940316,59.059683 9.489666,33.572468 10.732155,32.075361 11.974643,30.578254 H 57.91892 103.8632 l 3.38578,2.582469 3.3858,2.582469 1.6903,-0.332469 1.6903,-0.332469 1.10719,-1.912251 1.10718,-1.912251 1.5,-1.654948 1.5,-1.654947 3.22939,-4.682802 3.22939,-4.682801 h 35.02061 35.02061 v 3 3 h 11.5 11.5 v 1 1 h 55.5 55.5 v 2 2 l 9.75,0.0071 9.75,0.0071 6.67034,0.630057 6.67034,0.630057 0.32966,-2.792792 0.32966,-2.792792 3.14436,2.655626 3.14435,2.655626 h 5.60565 5.60564 v -1.5 -1.5 h 1.5 1.5 v 2.5 2.5 h 3.04206 3.04207 l -0.29207,7.75 -0.29206,7.750018 -20.25,0.270705 -20.25,0.270706 v 0.979294 0.979295 h -11.5 -11.5 v 1.5 1.5 h -1.07946 -1.07945 l 0.65891,3 0.65891,3 h -4.57945 -4.57946 v 1.355376 1.355375 l -6.07716,6.632153 -6.07717,6.632153 -0.9464,3.427603 -0.94641,3.427602 -3.53359,2.084869 -3.53359,2.084869 h -16.00494 -16.00495 l -5.18789,-1.605653 -5.1879,-1.605654 -3.15113,-1.394346 -3.15113,-1.394347 h -1.11244 -1.11244 l -1.73643,-0.915933 -1.73643,-0.915932 -3.65113,-1.584068 -3.65113,-1.584067 h -0.98456 -0.98457 l -2.8643,-1.493839 -2.86431,-1.49384 -1.69098,-0.0062 -1.69099,-0.0062 -0.56425,-0.912988 -0.56426,-0.912987 -3.97303,-0.67124 -3.97304,-0.671239 -2.93522,0.644683 -2.93522,0.644683 -5.65702,4.950329 -5.65702,4.95033 -2.87983,1.489214 -2.87982,1.489294 h -7.54966 -7.54966 v -3.8 -3.8 l -1.10735,-1.107351 -1.10735,-1.10735 -0.66835,-3.267884 -0.66836,-3.267884 -1.08756,-0.362521 -1.08756,-0.362521 -0.56091,4.181875 -0.56091,4.181876 -1.02882,0.635848 -1.02883,0.635848 -0.67481,4.220032 -0.67481,4.220032 h -0.87219 -0.87219 v 1.833333 1.833334 l -0.75,0.75 -0.75,0.75 -0.0864,0.666666 -0.0864,0.666667 -0.73663,2 -0.73664,1.999996 -0.79984,1.53283 -0.79985,1.53282 -0.74263,3.46717 -0.74263,3.46718 -1.00697,1.25 -1.00697,1.25 h 1.12245 1.12244 v 1.89301 1.89301 l -1.58179,0.60699 -1.58171,0.60699 z m -22.33719,-15.884 h 3.83102 l 1.1511,-2.25 1.1511,-2.249996 0.91158,-4.25 0.91159,-4.25 h -4.02641 -4.02641 l -1.86729,2.15301 -1.8673,2.153009 v 4.346991 4.346986 z m -12.83102,-3.364925 1.5,-0.153803 0.2984,-5.129451 0.29841,-5.129451 1.95139,-1.765982 1.95138,-1.765983 7.25021,-0.140126 7.25021,-0.140126 2.05539,-1.136104 2.05538,-1.136105 1.94462,-3.81897 1.94461,-3.81897 0.95379,-0.684964 0.95378,-0.684963 -1.37276,-2.565037 -1.37277,-2.565036 h -17.70857 -17.70858 l -1.14901,1.384467 -1.149,1.384468 -1.58241,5.365532 -1.58241,5.365533 -0.48553,5.283669 -0.48553,5.283669 1.23226,1.484785 1.23226,1.484786 3.11224,1.41361 3.11224,1.413611 2,0.462372 2,0.462372 z M 31.229753,85.578254 h 2.255111 l 1.261067,-1.519493 1.261067,-1.519493 -0.505405,-11.45272 -0.505406,-11.452719 -1.693469,-2.584561 -1.693469,-2.58456 -3.689748,0.306773 -3.689748,0.306773 0.09611,6.5 0.09611,6.5 1.284327,7.5 1.284327,7.5 0.992008,1.25 0.992007,1.25 z m 23.511679,-8 h 1.678346 l 1.546118,-1.75 1.546119,-1.75 0.680754,-4.155218 0.680753,-4.155218 3.594782,-3.594782 3.594782,-3.594782 H 82.39642 96.729753 v -1.410231 -1.410231 l -8.512298,-0.70907 -8.512297,-0.709071 -6.237703,0.610961 -6.237702,0.610961 -6.75,0.642708 -6.75,0.642708 v 4.306615 4.306616 l -1,0.618034 -1,0.618034 v 4.774316 4.774317 l 0.666667,0.666666 0.666666,0.666667 z m 128.668818,0 h 3.41882 l 2.7027,-1.397621 2.7027,-1.397621 1.84955,-2.043723 1.84954,-2.043724 -0.69574,-5.058656 -0.69575,-5.058655 h -3.40616 -3.40616 v 3 3 h -3.92668 -3.92667 l -0.45732,-1.75 -0.45733,-1.75 -0.10499,3.5 -0.105,3.5 0.61984,3.75 0.61983,3.75 z m 97.61907,-0.09397 10.79956,0.09397 3.45044,-3.351019 3.45043,-3.351019 V 70.160513 69.44481 l 2.5,-3.277669 2.5,-3.277669 v -1.155609 -1.155609 h -26.67126 -26.67126 l -1.74418,-1.57846 -1.74418,-1.57846 -2.50974,1.644444 -2.50973,1.644444 -0.99421,2.851985 -0.99421,2.851984 1.66939,1.445172 1.66938,1.445171 5,1.725519 5,1.725518 1.8741,0.997319 1.87411,0.997319 6.62589,1.320057 6.6259,1.320056 10.79957,0.09397 z m -51.16943,-16.086483 2.13015,-0.319551 2.49801,-3.25 2.49802,-3.25 h -4.62816 -4.62816 v 3.569551 3.569551 z M 370.72975,42.578254 h 5 v -2 -2 h -5 -5 v 2 2 z m -194.67074,-12.2064 6.012,-0.2936 0.4127,-1.25 0.41271,-1.25 h -7.70578 -7.70578 l 1.28107,1.5436 1.28108,1.5436 z"
     id="path10535" />
</svg>
