<?xml version="1.0" encoding="UTF-8" standalone="no"?>
<!-- Generator: Adobe Illustrator 16.0.0, SVG Export Plug-In . SVG Version: 6.00 Build 0)  -->

<svg
   version="1.1"
   x="0px"
   y="0px"
   width="25.458px"
   height="32px"
   viewBox="0 0 25.458 32"
   enable-background="new 0 0 25.458 32"
   xml:space="preserve"
   id="svg657"
   sodipodi:docname="flashbang.svg"
   inkscape:version="1.2.1 (9c6d41e410, 2022-07-14)"
   xmlns:inkscape="http://www.inkscape.org/namespaces/inkscape"
   xmlns:sodipodi="http://sodipodi.sourceforge.net/DTD/sodipodi-0.dtd"
   xmlns="http://www.w3.org/2000/svg"
   xmlns:svg="http://www.w3.org/2000/svg"><defs
   id="defs661" /><sodipodi:namedview
   id="namedview659"
   pagecolor="#ffffff"
   bordercolor="#000000"
   borderopacity="0.25"
   inkscape:showpageshadow="2"
   inkscape:pageopacity="0.0"
   inkscape:pagecheckerboard="0"
   inkscape:deskcolor="#d1d1d1"
   showgrid="false"
   inkscape:zoom="18.495262"
   inkscape:cx="15.301216"
   inkscape:cy="11.949006"
   inkscape:window-width="1920"
   inkscape:window-height="1017"
   inkscape:window-x="-8"
   inkscape:window-y="-8"
   inkscape:window-maximized="1"
   inkscape:current-layer="svg657" />

<g
   id="guides">
</g>
<g
   id="g671"
   transform="translate(-34.48359,0.59778928)"
   style="fill:#ffffff"><g
     id="guides-6"
     style="fill:#ffffff">
</g><path
     style="fill:#ffffff;stroke-width:0.0397671"
     d="m 45.487155,30.98123 c -0.632157,-0.04374 -1.12042,-0.245628 -1.238333,-0.512012 -0.0634,-0.143236 -0.143483,-0.177889 -0.285926,-0.123733 -0.07689,0.02924 -0.182012,0.0186 -0.412865,-0.04177 -0.437353,-0.114357 -0.542696,-0.17345 -0.783422,-0.439459 -0.294003,-0.324884 -0.34152,-0.509835 -0.34152,-1.329304 0,-0.705859 0.01379,-0.752389 0.25711,-0.867855 0.18329,-0.08697 0.177564,-0.153506 -0.02093,-0.24301 -0.165201,-0.07449 -0.236187,-0.159094 -0.236187,-0.281475 0,-0.03799 -0.0308,-0.10311 -0.06844,-0.144708 -0.06418,-0.07091 -0.06851,-0.497304 -0.06959,-6.833127 -7.07e-4,-3.716622 -0.01009,-6.7575 -0.02104,-6.7575 -0.01094,-5e-6 -0.01917,-0.601467 -0.01826,-1.336589 0.0015,-1.213782 0.0079,-1.341148 0.06959,-1.386284 0.03867,-0.02826 0.06798,-0.102553 0.06798,-0.172311 0,-0.147778 0.09262,-0.222032 0.363583,-0.291478 0.107628,-0.02761 0.193156,-0.07259 0.193156,-0.101638 0,-0.02869 -1.18e-4,-0.06555 -1.75e-4,-0.08196 -1.18e-4,-0.01639 -0.08117,-0.05047 -0.180084,-0.0757 -0.09891,-0.02521 -0.224067,-0.07486 -0.278125,-0.110275 -0.09185,-0.06017 -0.0983,-0.08668 -0.0983,-0.4041168 0,-0.1868432 0.01852,-0.3743344 0.04117,-0.4166391 0.02992,-0.0559 0.02831,-0.076916 -0.0059,-0.076916 -0.03438,0 -0.04094,-0.094382 -0.02434,-0.3505631 0.02142,-0.3305324 0.03227,-0.3644196 0.190163,-0.5932193 0.218891,-0.3172093 0.579279,-0.5196461 0.984132,-0.5528092 0.422954,-0.034628 0.704951,-0.2161245 0.560421,-0.3606578 -0.02779,-0.027766 -0.03467,-0.1218177 -0.0188,-0.2564961 0.01379,-0.1169448 0.03523,-0.3983727 0.04763,-0.6253858 L 44.182413,5.801482 43.744026,5.829408 C 43.309672,5.857066 43.305017,5.856412 43.242273,5.760678 43.08168,5.5155774 42.991673,4.3246472 43.11905,4.1302412 c 0.05817,-0.088762 0.106155,-0.1024349 0.510289,-0.1453227 0.593968,-0.063031 0.585273,-0.059643 0.585273,-0.2283584 0,-0.1340635 0.0059,-0.1401497 0.119303,-0.123506 l 0.119299,0.01753 V 3.3040957 c 0,-0.2578466 -0.02441,-0.4214191 -0.09541,-0.6393302 -0.05248,-0.1610567 -0.105471,-0.3379255 -0.117761,-0.3930421 -0.03028,-0.1357833 0.06748,-0.4054287 0.158889,-0.4382705 0.04079,-0.014644 0.306812,-0.037023 0.591146,-0.049705 0.284334,-0.01269 0.615394,-0.044595 0.73569,-0.070838 0.148895,-0.032506 0.358366,-0.038224 0.656159,-0.018023 0.24059,0.016392 0.661127,0.034191 0.934526,0.03964 0.437051,0.00869 0.518473,0.021402 0.674161,0.1049338 0.155568,0.083492 0.192759,0.1314931 0.306224,0.3952798 0.180988,0.420772 0.292161,0.9467609 0.292161,1.3823034 0,0.1876279 0.0136,0.2461465 0.05721,0.2461465 0.03733,0 0.06655,-0.062216 0.08405,-0.1789489 0.0241,-0.1607252 0.03765,-0.1789534 0.133047,-0.1789534 0.07507,0 0.126223,-0.033868 0.174478,-0.1155682 0.04986,-0.084415 0.08985,-0.1099213 0.148351,-0.094622 0.05772,0.015084 0.07403,0.00547 0.05843,-0.035445 -0.0173,-0.045134 0.03453,-0.057556 0.258816,-0.062143 0.196871,-0.00386 0.272317,0.00744 0.253134,0.038493 -0.01771,0.028697 -0.004,0.035284 0.03886,0.018839 0.03639,-0.013989 0.06618,-0.010292 0.06618,0.00816 0,0.018461 0.05562,0.044704 0.123607,0.058273 0.08855,0.017691 0.117098,0.041701 0.10067,0.084504 -0.01443,0.037623 3.5e-4,0.059786 0.03972,0.059786 0.0403,0 0.0542,0.022046 0.03897,0.061713 -0.01303,0.033922 -0.0079,0.051945 0.01139,0.040016 0.04699,-0.02902 0.19821,0.2991657 0.239389,0.5195808 0.01818,0.097274 0.06283,0.2097707 0.09921,0.2499895 0.0364,0.04024 0.06171,0.088788 0.05623,0.1079235 -0.0055,0.01917 0.02948,0.1381198 0.07766,0.2643917 0.216635,0.5677436 0.341407,1.4315058 0.331612,2.2956228 -0.0071,0.6326328 -0.0445,0.9160255 -0.135216,1.0266222 -0.07968,0.097132 -0.26542,0.1714731 -0.333394,0.1334314 -0.09752,-0.054571 -0.382699,0.067345 -0.348559,0.1490141 0.01445,0.034574 0.03533,0.1971118 0.04639,0.3611529 0.01105,0.1640357 0.03628,0.3185869 0.05604,0.3434416 0.0201,0.025262 0.02413,0.2133695 0.0091,0.4267335 -0.03011,0.4284314 -0.05663,0.4666034 -0.373593,0.5378194 -0.196005,0.04405 -0.207621,0.05314 -0.175297,0.1373787 0.01371,0.03571 0.09913,0.08311 0.189826,0.105375 0.283231,0.06949 0.363487,0.128418 0.366141,0.268812 0.0015,0.06927 0.03163,0.158259 0.06738,0.197756 0.07109,0.07855 0.08287,1.277286 0.07337,7.46713 -0.0023,1.509161 0.0061,4.087285 0.01867,5.729159 0.02056,2.68368 0.01656,2.990471 -0.03964,3.03711 -0.03438,0.02853 -0.06251,0.0913 -0.06251,0.139495 0,0.09884 -0.117826,0.220366 -0.305673,0.315266 -0.191909,0.09695 -0.192753,0.13785 -0.0045,0.218542 0.284819,0.122087 0.289325,0.135264 0.298182,0.872151 0.0102,0.85259 -0.03019,1.020854 -0.314611,1.308844 -0.135562,0.13727 -0.252245,0.218147 -0.337901,0.234216 -0.07196,0.01349 -0.130833,0.03915 -0.130833,0.057 0,0.0523 -0.401826,0.22565 -0.596506,0.257328 -0.09842,0.01601 -0.22369,0.03648 -0.278369,0.04547 -0.05468,0.009 -0.151075,0.0793 -0.214209,0.156225 -0.170757,0.20806 -0.470383,0.341286 -0.879386,0.391009 -0.08749,0.01063 -0.311178,0.03794 -0.497088,0.06066 -0.36746,0.04491 -0.935209,0.04468 -1.590684,-7.09e-4 z M 49.662698,7.6054782 c 0,-0.019546 -0.03386,-0.1493081 -0.07525,-0.2883093 -0.108138,-0.3632113 -0.125712,-0.4931907 -0.07372,-0.5451921 0.07653,-0.076528 0.133072,-0.051838 0.210547,0.092052 0.04076,0.075686 0.07999,0.1317272 0.08719,0.1245351 0.0071,-0.00717 -0.03109,-0.1988656 -0.08506,-0.425928 C 49.614347,6.0911966 49.601035,6.0156857 49.53629,5.4841322 L 49.489119,5.0968394 49.34725,5.0713058 c -0.07804,-0.014044 -0.163181,-0.042355 -0.18923,-0.063013 -0.07003,-0.055449 -0.08479,0.1008064 -0.111602,1.1812386 -0.01303,0.5249214 -0.03358,1.0182702 -0.04566,1.0963243 l -0.02196,0.1419196 0.212708,0.048784 c 0.116987,0.026841 0.257445,0.074172 0.312124,0.1052174 0.116801,0.066316 0.159068,0.07261 0.159068,0.023684 z M 48.622292,7.3675207 c 0.07352,-0.046605 0.04178,-0.2197997 -0.04324,-0.2360079 -0.05577,-0.01062 -0.06959,0.014976 -0.06959,0.1288413 0,0.1460577 0.0206,0.1656256 0.112839,0.1071666 z M 50.247765,6.8755384 C 50.223638,6.665921 50.103669,6.3287403 50.053204,6.3287403 c -0.04632,0 -0.01245,0.2280706 0.07531,0.5070312 0.0791,0.251444 0.146179,0.2738154 0.119246,0.039747 z m 0.393749,-0.2584882 c -0.03592,-0.5061923 -0.166668,-1.4187938 -0.215278,-1.5026135 -0.04171,-0.071904 -0.04542,-0.072379 -0.04652,-0.00592 -7.09e-4,0.039693 0.01558,0.1035513 0.03607,0.1418652 0.0445,0.083133 0.163646,1.0753628 0.167171,1.3920605 0.0015,0.1227327 0.01066,0.236574 0.02067,0.2529792 0.0479,0.078562 0.05797,0.00439 0.03789,-0.2783736 z M 48.557575,6.4751358 c 0.0097,-0.050744 0.0058,-0.1258094 -0.0086,-0.1668831 -0.02336,-0.06658 -0.02901,-0.064124 -0.05222,0.022594 -0.03661,0.1368892 -0.03323,0.236477 0.0081,0.236477 0.01932,0 0.04306,-0.041486 0.05276,-0.09221 z m 1.481607,-0.4744725 c -0.03594,-0.3816789 -0.05169,-0.6262677 -0.05517,-0.8563907 -0.003,-0.1997796 -0.0073,-0.2080007 -0.0854,-0.1661696 -0.0744,0.039802 -0.08008,0.069295 -0.05957,0.3095978 0.01247,0.1460684 0.04945,0.4176899 0.08219,0.6036023 0.03273,0.1859116 0.05952,0.3424945 0.05956,0.3479605 3.1e-5,0.00547 0.01844,0.00997 0.04093,0.00997 0.02613,0 0.03242,-0.089689 0.01748,-0.2485412 z m -0.57532,-1.3222594 c 0,-0.098417 -0.01847,-0.1789489 -0.04104,-0.1789489 -0.09477,0 -0.322637,0.1218508 -0.3083,0.1648576 0.01522,0.04568 0.258665,0.1930446 0.318899,0.1930446 0.01675,0 0.03045,-0.080525 0.03045,-0.1789533 z m 0.397672,-0.022217 c 0,-0.020577 -0.01789,-0.037408 -0.03977,-0.037408 -0.02187,0 -0.03976,0.027881 -0.03976,0.062 0,0.034084 0.01789,0.050959 0.03976,0.037408 0.02187,-0.013506 0.03977,-0.041432 0.03977,-0.061992 z M 49.450691,4.2580047 c 0.04743,-0.017861 0.110192,-0.082694 0.139461,-0.1440591 0.06972,-0.1461776 0.281277,-0.1782076 0.358654,-0.054284 0.06924,0.1108694 0.128962,0.1029963 0.18713,-0.024664 C 50.177376,3.9440286 50.173396,3.91343 50.108766,3.826218 49.956319,3.6205035 49.463058,3.5503772 49.320006,3.7140859 49.20732,3.8430364 49.10596,4.0852727 49.10596,4.2256251 c 0,0.1158936 0.0056,0.1199015 0.129242,0.093 0.07109,-0.01546 0.168053,-0.042741 0.215489,-0.060602 z m 2.226875,25.9840183 c -0.01458,-0.01458 -0.02651,-0.05932 -0.02651,-0.09942 0,-0.114954 0.176104,-0.09477 0.231364,0.02651 0.04247,0.09322 0.03832,0.09942 -0.06652,0.09942 -0.0615,0 -0.123751,-0.01194 -0.13833,-0.02651 z"
     id="path178" /></g></svg>
