<?xml version="1.0" encoding="UTF-8" standalone="no"?>
<!-- Generator: Adobe Illustrator 16.0.0, SVG Export Plug-In . SVG Version: 6.00 Build 0)  -->

<svg
   version="1.1"
   x="0px"
   y="0px"
   width="25.458px"
   height="32px"
   viewBox="0 0 25.458 32"
   enable-background="new 0 0 25.458 32"
   xml:space="preserve"
   id="svg657"
   sodipodi:docname="frag.svg"
   inkscape:version="1.2.1 (9c6d41e410, 2022-07-14)"
   xmlns:inkscape="http://www.inkscape.org/namespaces/inkscape"
   xmlns:sodipodi="http://sodipodi.sourceforge.net/DTD/sodipodi-0.dtd"
   xmlns="http://www.w3.org/2000/svg"
   xmlns:svg="http://www.w3.org/2000/svg"><defs
   id="defs661" /><sodipodi:namedview
   id="namedview659"
   pagecolor="#ffffff"
   bordercolor="#000000"
   borderopacity="0.25"
   inkscape:showpageshadow="2"
   inkscape:pageopacity="0.0"
   inkscape:pagecheckerboard="0"
   inkscape:deskcolor="#d1d1d1"
   showgrid="false"
   inkscape:zoom="9.2476309"
   inkscape:cx="10.705445"
   inkscape:cy="24.654963"
   inkscape:window-width="1920"
   inkscape:window-height="1017"
   inkscape:window-x="-8"
   inkscape:window-y="-8"
   inkscape:window-maximized="1"
   inkscape:current-layer="svg657" />

<g
   id="guides">
</g>
<path
   style="fill:#ffffff;stroke-width:0.0442925"
   d="M 9.860187,29.557319 C 9.1996403,29.488339 9.0116613,29.439335 8.2239539,29.130742 7.5163147,28.853516 7.4065987,28.793845 6.4939497,28.189924 c -1.050376,-0.695077 -1.161569,-0.791768 -1.913661,-1.664002 -0.451252,-0.523348 -0.536906,-0.652864 -0.943552,-1.42684 -0.445139,-0.847211 -0.448497,-0.855924 -0.704953,-1.838337 -0.176143,-0.675071 -0.289264,-1.225111 -0.357619,-1.740065 -0.05486,-0.414133 -0.114773,-0.7729 -0.132891,-0.79726 -0.03986,-0.05366 -0.133136,-0.674857 -0.133136,-0.886504 0,-0.08362 0.057,-0.297085 0.12661,-0.474333 0.07756,-0.197186 0.129264,-0.416834 0.133618,-0.56588 0.05891,-2.074886 0.911417,-4.161889 2.163131,-5.295209 0.556982,-0.504298 1.229197,-0.914007 1.87425,-1.142343 0.303839,-0.107546 0.642131,-0.209848 0.751755,-0.227317 0.261024,-0.04161 0.5206931,-0.194408 0.6904089,-0.406229 0.2089964,-0.260845 0.2408937,-0.34202 0.3339383,-0.850614 0.04759,-0.259425 0.098102,-0.535608 0.1123558,-0.613736 0.034583,-0.189406 0.1336182,-0.2704264 0.4429889,-0.3623734 L 9.1957,9.8220466 9.20029,9.3818475 9.20488,8.9416483 9.474427,8.7644681 9.7440045,8.5872879 l 0.0023,-1.1318384 0.0023,-1.13184 L 9.593471,6.1733457 C 9.4509164,6.0351385 9.4383534,6.0021815 9.4383534,5.7623368 V 5.5015825 L 9.0344079,5.0402028 C 8.8123588,4.7864431 8.6222529,4.5788208 8.61223,4.5788208 c -0.00964,0 -0.089885,0.029893 -0.1773516,0.06645 C 7.9737719,4.8379386 7.4554657,4.6069228 7.2731867,4.1275283 7.2383767,4.0362193 7.2514567,4.0075635 7.3560667,3.9368654 7.4437767,3.8778604 7.4863037,3.805375 7.5022487,3.6877614 7.5382887,3.4190722 7.7245417,3.283057 8.5580565,2.916695 8.9722697,2.7346334 9.3255957,2.5856887 9.3432314,2.5856887 c 0.016909,0 0.1101753,-0.03987 0.2058595,-0.088578 0.211177,-0.1077147 0.3614897,-0.1115808 0.6017101,-0.015463 0.181697,0.072678 0.184352,0.072272 0.454893,-0.06599 0.149808,-0.076495 0.341919,-0.1479203 0.42719,-0.1587205 0.08529,-0.010872 0.155117,-0.022471 0.155117,-0.025975 0,-0.058209 1.010507,-0.057314 1.459586,0.0013 2.391247,0.3120241 3.72951,0.5295981 4.336101,0.704952 0.314054,0.090777 0.604557,0.2723648 0.604557,0.3778783 0,0.033267 0.01936,0.067146 0.04178,0.075264 0.02173,0.00822 0.05073,0.064583 0.06159,0.1254981 0.02754,0.1522454 0.167206,0.632299 0.199822,0.6865313 0.01446,0.024353 0.03045,0.070749 0.0355,0.1030996 0.0046,0.032349 0.04009,0.1244582 0.07804,0.2047248 l 0.06932,0.1459149 0.251452,-0.058446 c 0.271123,-0.063037 0.377633,-0.036893 0.457442,0.1121844 0.0645,0.1204476 0.05608,0.3212077 -0.01691,0.4267816 -0.06136,0.087588 -0.04981,0.093266 0.387557,0.1910493 1.145256,0.2560819 2.388929,0.9886343 3.177218,1.8714628 1.414298,1.5839496 1.852406,3.4777917 1.096978,4.7420147 -0.22374,0.374441 -0.731212,0.827744 -1.136557,1.015236 -0.297894,0.137796 -0.794066,0.259334 -1.059098,0.259431 -0.128783,4.5e-5 -0.144001,0.01329 -0.144001,0.126947 0,0.174523 -0.150535,0.358968 -0.268009,0.328262 -0.08046,-0.02102 -0.08747,-0.0092 -0.06182,0.103802 0.03458,0.151206 0.499087,1.763664 0.681098,2.364332 0.138209,0.455866 0.317588,1.454312 0.425713,2.368883 0.03741,0.316272 0.09931,0.665075 0.137726,0.775117 0.112111,0.321884 0.09448,0.727036 -0.04614,1.063773 -0.06718,0.160726 -0.13869,0.444429 -0.161881,0.64224 -0.02173,0.194891 -0.04323,1.340951 -0.04491,2.546812 l -0.0023,2.19247 -0.140863,0.553654 c -0.164789,0.647184 -0.151017,0.637707 -0.714908,0.493238 -0.49305,-0.126319 -0.511129,-0.150264 -0.511129,-0.677272 0,-0.488352 -0.04858,-0.553063 -0.207069,-0.275752 -0.05027,0.08817 -0.36823,0.459632 -0.7063,0.825477 -0.668955,0.723888 -0.792152,0.817617 -2.138686,1.626974 -0.590761,0.355098 -0.778159,0.442326 -1.395209,0.649443 -1.45915,0.489776 -2.361141,0.625101 -4.366882,0.655151 -0.718657,0.01087 -1.486019,8.42e-4 -1.7052604,-0.02199 z M 21.546724,12.416082 c 0.310113,-0.05734 0.756147,-0.259322 0.942221,-0.426698 0.406891,-0.366 0.621396,-0.995277 0.578757,-1.697788 C 22.997847,9.1417029 22.334141,7.9969847 21.190957,7.0548643 20.603165,6.5704511 19.965969,6.2428839 19.250166,6.0571353 18.800628,5.9404811 18.563621,5.923495 18.563621,6.007939 c 0,0.030803 0.250106,0.8031656 0.555804,1.7163297 0.428826,1.2809783 0.636889,1.9891739 0.910713,3.0998003 0.195232,0.791725 0.364612,1.473101 0.376425,1.514166 0.01209,0.04108 0.05532,0.0836 0.09689,0.09452 0.149808,0.03943 0.795542,0.02911 1.043223,-0.01667 z m -4.57763,-0.465394 c 0,-0.01377 -0.159464,-0.205449 -0.354336,-0.426028 -0.194987,-0.220574 -0.354336,-0.418605 -0.354336,-0.440077 0,-0.02151 -0.02173,-0.03904 -0.04782,-0.03904 -0.06213,0 -0.01209,0.235556 0.09472,0.446515 0.07422,0.146737 0.322148,0.376339 0.48295,0.447293 0.08626,0.03808 0.179043,0.04395 0.179043,0.01135 z"
   id="path730" /></svg>
