<?xml version="1.0" encoding="UTF-8" standalone="no"?>
<svg
   xmlns:dc="http://purl.org/dc/elements/1.1/"
   xmlns:cc="http://creativecommons.org/ns#"
   xmlns:rdf="http://www.w3.org/1999/02/22-rdf-syntax-ns#"
   xmlns:svg="http://www.w3.org/2000/svg"
   xmlns="http://www.w3.org/2000/svg"
   xmlns:sodipodi="http://sodipodi.sourceforge.net/DTD/sodipodi-0.dtd"
   xmlns:inkscape="http://www.inkscape.org/namespaces/inkscape"
   version="1.1"
   x="0px"
   y="0px"
   width="49.125px"
   height="32px"
   viewBox="0 0 49.125 32"
   enable-background="new 0 0 49.125 32"
   xml:space="preserve"
   id="svg200"
   sodipodi:docname="mp7.svg"
   inkscape:version="1.0.2-2 (e86c870879, 2021-01-15)"><metadata
   id="metadata206"><rdf:RDF><cc:Work
       rdf:about=""><dc:format>image/svg+xml</dc:format><dc:type
         rdf:resource="http://purl.org/dc/dcmitype/StillImage" /></cc:Work></rdf:RDF></metadata><defs
   id="defs204" /><sodipodi:namedview
   pagecolor="#ffffff"
   bordercolor="#666666"
   borderopacity="1"
   objecttolerance="10"
   gridtolerance="10"
   guidetolerance="10"
   inkscape:pageopacity="0"
   inkscape:pageshadow="2"
   inkscape:window-width="1842"
   inkscape:window-height="1051"
   id="namedview202"
   showgrid="false"
   inkscape:zoom="12.366412"
   inkscape:cx="33.644398"
   inkscape:cy="26.466213"
   inkscape:window-x="-9"
   inkscape:window-y="-9"
   inkscape:window-maximized="1"
   inkscape:current-layer="svg200" />
<g
   id="Selected_Items">
	<g
   id="g196">
		<g
   id="Selected_Items_36_">
			
		</g>
	</g>
</g>
<g
   id="guides">
</g>
<path
   style="fill:#ffffff;stroke-width:0.0404321"
   d="m 27.163737,28.46998 c -0.04434,-0.07424 -0.108264,-0.487878 -0.08483,-0.548948 0.01428,-0.0372 0.0079,-0.06764 -0.01421,-0.06764 -0.06187,0 -0.103807,-0.35892 -0.04958,-0.424262 0.03446,-0.04153 0.0308,-0.139214 -0.0147,-0.391689 -0.03334,-0.185 -0.07835,-0.463725 -0.100017,-0.619389 -0.02167,-0.155664 -0.121907,-0.728789 -0.222752,-1.273611 -0.235281,-1.271119 -0.632668,-3.913269 -0.632668,-4.206485 0,-0.02251 -0.185419,-0.03889 -0.44037,-0.03889 -0.42322,0 -0.441225,-0.0035 -0.462325,-0.09097 -0.146442,-0.606784 -0.177629,-2.765411 -0.05564,-3.851157 0.09053,-0.805766 0.123102,-0.999143 0.280795,-1.667154 0.120854,-0.511955 0.126335,-0.648278 0.02187,-0.543808 -0.02632,0.02632 -0.08935,0.04785 -0.140068,0.04785 -0.146215,0 -0.15725,-0.155836 -0.03736,-0.527544 0.05793,-0.179588 0.10532,-0.406713 0.10532,-0.504722 0,-0.18193 -0.166765,-0.75646 -0.247976,-0.854313 -0.03702,-0.04461 -0.767891,-0.05416 -4.143857,-0.05416 h -4.098908 v 0.1461 0.146101 l -0.555941,-0.01949 c -0.484783,-0.017 -0.590874,-0.03361 -0.828858,-0.129816 -0.248917,-0.100622 -0.272917,-0.120644 -0.272917,-0.227689 0,-0.124558 -0.05656,-0.158154 -0.09549,-0.05672 -0.02988,0.07786 -0.107631,0.07646 -0.364058,-0.0066 -0.337053,-0.109113 -0.471221,-0.186284 -0.616342,-0.354505 L 13.955777,12.191571 V 11.6989 c 0,-0.4372 -0.0094,-0.504666 -0.0838,-0.599204 l -0.0838,-0.106533 h -1.068516 -1.068516 v 0.242593 0.242593 H 8.6397446 5.628338 l -0.2212194,0.141512 c -0.1216707,0.07783 -0.237528,0.141512 -0.2574611,0.141512 -0.019933,0 -0.1618141,0.072 -0.3152911,0.159999 -0.153477,0.088 -0.3733273,0.207806 -0.4885564,0.266235 -0.1486539,0.07538 -0.2243546,0.143409 -0.260622,0.234214 -0.035299,0.08838 -0.058046,0.509537 -0.073517,1.361157 l -0.022403,1.233179 -0.1285287,0.28325 c -0.070691,0.155787 -0.158935,0.374121 -0.196098,0.485185 -0.1170745,0.349885 -0.3789222,0.858477 -0.4532854,0.880425 -0.039139,0.01155 -0.2531064,0.07972 -0.4754829,0.15148 -0.3936639,0.127037 -0.4213725,0.130247 -1.0512346,0.121818 -0.3558025,-0.0048 -0.6680369,-0.02615 -0.6938541,-0.04754 -0.030678,-0.02541 -0.056979,-0.02264 -0.0759151,0.008 -0.0515417,0.0834 -0.4928523,0.02642 -0.59638456,-0.077 -0.084815,-0.08472 -0.0900798,-0.128144 -0.10261666,-0.84638 -0.0116226,-0.665859 -0.004505,-0.773396 0.0590757,-0.89251 0.0684708,-0.128275 0.068635,-0.141801 0.003107,-0.255977 -0.0853318,-0.148682 -0.0887156,-0.290042 -0.008536,-0.356585 0.0779965,-0.06473 0.0779965,-0.218293 0,-0.283025 -0.0333565,-0.02768 -0.0606482,-0.100461 -0.0606482,-0.161728 0,-0.06127 0.0272917,-0.134045 0.0606482,-0.161729 0.0789366,-0.06551 0.0789366,-0.278544 0,-0.308835 -0.0797063,-0.03059 -0.0797063,-0.271928 0,-0.338078 0.0768733,-0.0638 0.0773621,-0.164607 0.001286,-0.265189 -0.0771732,-0.102032 -0.0777569,-0.250382 -0.001286,-0.326853 0.0763744,-0.07637 0.0758157,-0.213363 -0.001286,-0.3153 -0.0764879,-0.101126 -0.075897,-0.241565 0.001286,-0.305621 0.0779965,-0.06473 0.0779965,-0.218293 0,-0.283025 -0.0783517,-0.06503 -0.0783517,-0.298863 0,-0.363889 0.0768733,-0.0638 0.0773621,-0.164607 0.001286,-0.265189 -0.0764689,-0.1011 -0.0774497,-0.224459 -0.002572,-0.323456 0.0326493,-0.04317 0.0593623,-0.114873 0.0593623,-0.159349 0,-0.04448 -0.026713,-0.116182 -0.0593623,-0.159348 -0.074878,-0.099 -0.0738971,-0.222356 0.002572,-0.323457 0.0760762,-0.100581 0.0755874,-0.2013886 -0.001286,-0.2651876 -0.0502923,-0.04174 -0.0606482,-0.19155 -0.0606482,-0.8773507 v -0.826975 l 0.11818646,-0.118186 c 0.0983151,-0.09832 0.15133937,-0.118186 0.31537038,-0.118186 0.10845134,0 0.21918625,0.022 0.24607759,0.04889 0.0382364,0.03824 0.0625304,0.02942 0.11145931,-0.04043 l 0.062566,-0.08933 h 5.1513931 5.1513927 l 0.142919,0.125485 c 0.137828,0.121014 0.14292,0.135485 0.14292,0.40615 v 0.280664 l 1.102847,-0.01194 c 1.073502,-0.01162 1.105923,-0.01436 1.218416,-0.102908 0.09167,-0.07216 0.16747,-0.09097 0.366531,-0.09097 0.13803,0 0.501063,-0.012 0.80674,-0.02665 0.594004,-0.02849 0.669972,-0.05559 0.669972,-0.239043 0,-0.06033 0.02339,-0.09819 0.06065,-0.09819 0.03774,0 0.06065,-0.03819 0.06065,-0.10108 0,-0.07413 -0.02156,-0.10108 -0.08086,-0.10108 -0.07316,0 -0.08086,-0.02695 -0.08086,-0.283025 0,-0.2560699 0.0077,-0.2830246 0.08086,-0.2830246 0.06546,0 0.08086,-0.026955 0.08086,-0.1415124 v -0.141512 h 0.404321 0.404321 V 7.152157 c 0,0.066713 -0.01819,0.1212963 -0.04043,0.1212963 -0.02224,0 -0.04043,0.045486 -0.04043,0.1010802 0,0.074126 0.02156,0.1010802 0.08086,0.1010802 0.06859,0 0.08086,-0.02696 0.08086,-0.1776186 0,-0.120585 0.01947,-0.1850916 0.06065,-0.2008915 0.03336,-0.0128 0.06065,-0.060804 0.06065,-0.106675 0,-0.045871 0.02729,-0.093875 0.06065,-0.106675 0.03336,-0.0128 0.06065,-0.047207 0.06065,-0.07646 0,-0.029253 0.06481,-0.074576 0.14402,-0.1007177 0.08869,-0.029271 0.158204,-0.08484 0.180944,-0.1446479 0.03205,-0.084287 0.06308,-0.097117 0.234923,-0.097117 0.108901,0 0.337344,-0.045486 0.507652,-0.1010802 0.241708,-0.078902 0.393655,-0.1010803 0.692507,-0.1010803 0.381424,0 0.382855,3.76e-4 0.382855,0.1010803 0,0.090972 0.01617,0.1010802 0.161729,0.1010802 0.154779,0 0.161728,-0.00552 0.161728,-0.12858 0,-0.078349 0.05133,-0.2043032 0.131404,-0.3224143 l 0.131405,-0.1938341 0.655599,-0.00104 c 0.606203,-9.639e-4 0.658752,-0.00693 0.697453,-0.079249 0.02302,-0.043013 0.04186,-0.3165347 0.04186,-0.6078254 0,-0.4847801 0.0086,-0.5465074 0.10108,-0.7290917 0.05559,-0.1097098 0.10108,-0.2273688 0.10108,-0.2614646 0,-0.041728 0.03909,-0.061992 0.119584,-0.061992 0.112855,0 0.124045,0.01536 0.198825,0.2729167 0.04358,0.1501041 0.09115,0.3485153 0.105697,0.4409136 0.01897,0.1204764 0.07681,0.2228354 0.204448,0.3618647 0.167462,0.1824011 0.174049,0.1982219 0.111368,0.2674841 -0.0641,0.070836 -0.07064,0.069766 -0.173,-0.0283 -0.05851,-0.056054 -0.119027,-0.1019162 -0.134489,-0.1019162 -0.01546,0 -0.02811,0.1110967 -0.02811,0.2468816 0,0.215183 0.01298,0.2570903 0.101081,0.3263913 0.08909,0.070076 0.10108,0.1103421 0.10108,0.3393838 0,0.2482612 0.0044,0.2598741 0.09827,0.2598741 0.07112,0 0.101837,-0.025128 0.111188,-0.090972 0.01099,-0.07738 0.04115,-0.092795 0.201887,-0.1031695 0.170722,-0.01102 0.19024,-0.00321 0.202161,0.080864 0.01194,0.084248 0.03425,0.093062 0.23557,0.093062 0.19983,0 0.223687,-0.00922 0.235297,-0.090972 0.01114,-0.078459 0.03717,-0.090972 0.18924,-0.090972 0.152068,0 0.178097,0.012513 0.18924,0.090972 0.01074,0.075625 0.04191,0.09307 0.184757,0.1034051 0.101669,0.00736 0.171836,-0.00503 0.171836,-0.030324 0,-0.023516 0.02729,-0.042757 0.06065,-0.042757 0.03336,0 0.06065,-0.027292 0.06065,-0.060648 0,-0.1076224 0.300541,-0.078024 0.430475,0.042395 0.147929,0.1370959 0.391319,0.1287224 0.411576,-0.01416 0.01192,-0.084077 0.03144,-0.091884 0.202161,-0.080864 0.160732,0.010375 0.190897,0.02579 0.201887,0.1031695 0.01159,0.081587 0.03557,0.090972 0.232484,0.090972 0.207248,0 0.219565,-0.00567 0.219565,-0.1010802 0,-0.094342 0.01348,-0.1010803 0.20216,-0.1010803 0.188684,0 0.202161,0.00674 0.202161,0.1010803 0,0.095567 0.01213,0.1010802 0.222376,0.1010802 0.210247,0 0.222377,-0.00551 0.222377,-0.1010802 0,-0.095567 0.01213,-0.1010803 0.222376,-0.1010803 0.210247,0 0.222377,0.00551 0.222377,0.1010803 0,0.095567 0.01213,0.1010802 0.222377,0.1010802 0.210246,0 0.222376,-0.00551 0.222376,-0.1010802 0,-0.094152 0.01366,-0.1010803 0.199349,-0.1010803 0.175948,0 0.200865,0.010678 0.212268,0.090972 0.01126,0.079253 0.04026,0.092547 0.225189,0.1031933 0.203816,0.011734 0.212268,0.00811 0.212268,-0.090972 0,-0.096683 0.01258,-0.1031932 0.199349,-0.1031932 0.175948,0 0.200865,0.010678 0.212268,0.090972 0.01161,0.081749 0.03547,0.090972 0.235297,0.090972 0.19983,0 0.223686,-0.00922 0.235296,-0.090972 0.01114,-0.078459 0.03717,-0.090972 0.189241,-0.090972 0.152067,0 0.178097,0.012513 0.18924,0.090972 0.01161,0.081749 0.03547,0.090972 0.235297,0.090972 0.19983,0 0.223686,-0.00922 0.235296,-0.090972 0.01114,-0.078459 0.03717,-0.090972 0.189241,-0.090972 0.152067,0 0.178097,0.012513 0.18924,0.090972 0.01161,0.081749 0.03547,0.090972 0.235297,0.090972 0.19983,0 0.223686,-0.00922 0.235296,-0.090972 0.0112,-0.078818 0.03702,-0.090972 0.193322,-0.090972 0.123058,0 0.187799,0.019278 0.203674,0.060648 0.03334,0.086889 0.459375,0.086889 0.459375,0 0,-0.045823 0.04942,-0.060648 0.20216,-0.060648 0.188683,0 0.202161,0.00674 0.202161,0.1010803 0,0.095567 0.01213,0.1010802 0.222376,0.1010802 0.210247,0 0.222377,-0.00551 0.222377,-0.1010802 0,-0.094342 0.01348,-0.1010803 0.20216,-0.1010803 0.188683,0 0.202161,0.00674 0.202161,0.1010803 0,0.095567 0.01213,0.1010802 0.222376,0.1010802 0.210247,0 0.222377,-0.00551 0.222377,-0.1010802 0,-0.094342 0.01348,-0.1010803 0.20216,-0.1010803 0.188683,0 0.202161,0.00674 0.202161,0.1010803 0,0.095567 0.01213,0.1010802 0.222376,0.1010802 0.210247,0 0.222377,-0.00551 0.222377,-0.1010802 0,-0.094152 0.01367,-0.1010803 0.199348,-0.1010803 0.175949,0 0.200865,0.010678 0.212269,0.090972 0.01126,0.079253 0.04026,0.092547 0.225188,0.1031933 0.203816,0.011734 0.212269,0.00811 0.212269,-0.090972 0,-0.096683 0.01258,-0.1031932 0.199348,-0.1031932 0.175949,0 0.200865,0.010678 0.212269,0.090972 0.01161,0.081749 0.03547,0.090972 0.235296,0.090972 0.19983,0 0.223687,-0.00922 0.235297,-0.090972 0.0114,-0.080294 0.03632,-0.090972 0.212269,-0.090972 0.185683,0 0.199348,0.00693 0.199348,0.1010803 0,0.095567 0.01213,0.1010802 0.222377,0.1010802 0.210246,0 0.222376,-0.00551 0.222376,-0.1010802 0,-0.094152 0.01366,-0.1010803 0.199349,-0.1010803 0.175948,0 0.200865,0.010678 0.212268,0.090972 0.01161,0.081749 0.03547,0.090972 0.235297,0.090972 0.201316,0 0.223626,-0.00881 0.23557,-0.093062 0.01192,-0.084077 0.03144,-0.091884 0.20216,-0.080864 0.160733,0.010375 0.190898,0.02579 0.201887,0.1031695 0.01077,0.075812 0.03772,0.090758 0.161729,0.089686 0.153733,-0.00133 0.29032,-0.074154 0.29032,-0.1547919 0,-0.028345 0.07782,-0.046083 0.202161,-0.046083 0.116804,0 0.20216,0.018291 0.20216,0.04332 0,0.090039 0.12134,0.1588404 0.280137,0.1588404 0.148636,0 0.164616,-0.00981 0.164616,-0.1010802 0,-0.094342 0.01348,-0.1010803 0.202161,-0.1010803 0.188683,0 0.20216,0.00674 0.20216,0.1010803 0,0.080864 0.02022,0.1010802 0.101081,0.1010802 0.08605,0 0.10108,-0.018611 0.10108,-0.1251628 0,-0.1308701 0.115281,-0.3310416 0.259216,-0.4500955 0.07224,-0.059751 0.179299,-0.069987 0.740055,-0.070756 0.618846,-8.487e-4 0.658085,-0.00554 0.699912,-0.083699 0.02437,-0.04554 0.08869,-0.099673 0.142936,-0.1202955 0.0816,-0.031024 0.09862,-0.065101 0.09862,-0.197413 0,-0.135057 -0.01414,-0.1619256 -0.09097,-0.1728372 -0.08816,-0.012521 -0.09159,-0.030118 -0.111188,-0.5696688 -0.01112,-0.3062119 -0.01415,-0.5745799 -0.0067,-0.5963735 0.01488,-0.043751 0.258414,-0.05234 0.400953,-0.014141 0.09058,0.024275 0.09097,0.027937 0.09097,0.8511322 V 5.742256 l 0.121297,0.1020642 c 0.0967,0.081368 0.121296,0.1341292 0.121296,0.2601983 v 0.1581342 h 0.505401 0.505401 v 0.3032408 c 0,0.1667824 0.01583,0.3032407 0.03518,0.3032407 0.01935,0 0.0581,0.081875 0.08612,0.1819444 0.05239,0.1871219 0.121296,0.2445431 0.121296,0.1010803 0,-0.077693 0.02696,-0.080864 0.687346,-0.080864 h 0.687345 V 7.172373 c 0,0.098137 0.0082,0.1010803 0.281404,0.1010803 h 0.281399 l 0.04623,0.1542954 c 0.02819,0.09408 0.03539,0.247924 0.01847,0.394213 -0.01527,0.131955 -0.036,0.644744 -0.04608,1.139532 l -0.01833,0.8996137 h 0.463631 c 0.436614,0 0.464387,-0.0048 0.476553,-0.08308 0.0127,-0.08162 0.03355,-0.08308 1.185453,-0.08285 l 1.172531,2.43e-4 0.01102,0.7549336 0.01102,0.754934 -0.09188,-0.03429 c -0.119396,-0.04455 -2.085487,-0.04477 -2.204459,-2.43e-4 -0.08217,0.03075 -0.09097,0.02185 -0.09097,-0.09196 v -0.126012 h -0.535996 -0.535992 l -0.201894,0.18131 c -0.111039,0.09972 -0.22027,0.181596 -0.242734,0.181944 -0.02246,3.64e-4 -0.0899,0.04612 -0.149858,0.101715 -0.0986,0.09143 -0.142005,0.10108 -0.454448,0.10108 -0.31848,0 -0.345436,0.0063 -0.345436,0.08086 0,0.06546 0.02696,0.08086 0.141512,0.08086 h 0.141513 v 0.274039 c 0,0.216501 -0.01569,0.287472 -0.07473,0.338021 -0.06975,0.05972 -0.284464,0.121988 -0.471107,0.136615 -0.04447,0.0035 -0.153642,0.0274 -0.242592,0.05314 -0.08895,0.02574 -0.275444,0.04691 -0.414429,0.04703 l -0.252701,2.19e-4 v -0.123314 -0.123314 l -0.232484,0.01213 c -0.220085,0.01148 -0.233168,0.01806 -0.245278,0.123314 -0.01181,0.102653 -0.02656,0.111188 -0.192052,0.111188 -0.172225,0 -0.17926,-0.0048 -0.17926,-0.121296 V 12.287028 H 41.85399 41.611398 v 0.121296 c 0,0.116534 -0.007,0.121296 -0.17926,0.121296 -0.165497,0 -0.180238,-0.0085 -0.192052,-0.111188 -0.01211,-0.105258 -0.02519,-0.111835 -0.245278,-0.123314 l -0.232484,-0.01213 v 0.123314 c 0,0.121022 -0.0038,0.123314 -0.202161,0.123314 -0.197668,0 -0.20216,-0.0027 -0.20216,-0.121296 0,-0.120071 -0.0022,-0.121296 -0.222377,-0.121296 -0.220976,0 -0.222376,7.76e-4 -0.222376,0.123409 v 0.123409 l -0.212269,-0.01222 c -0.197983,-0.0114 -0.213129,-0.0197 -0.225062,-0.123409 -0.01221,-0.106085 -0.02288,-0.111188 -0.232484,-0.111188 -0.217147,0 -0.219691,0.0014 -0.219691,0.121296 0,0.118601 -0.0045,0.121296 -0.202161,0.121296 -0.197668,0 -0.20216,-0.0027 -0.20216,-0.121296 0,-0.120071 -0.0022,-0.121296 -0.222377,-0.121296 -0.22013,0 -0.222377,0.0012 -0.222377,0.121296 0,0.118601 -0.0045,0.121296 -0.20216,0.121296 -0.197668,0 -0.202161,-0.0027 -0.202161,-0.121296 0,-0.120071 -0.0022,-0.121296 -0.222376,-0.121296 -0.221868,0 -0.222377,2.83e-4 -0.222377,0.125715 v 0.125716 l -0.293132,-0.02004 c -0.396381,-0.02711 -1.021332,-0.165383 -1.099148,-0.2432 -0.0423,-0.0423 -0.06327,-0.138101 -0.06327,-0.289017 v -0.225743 l -0.171837,0.02281 c -0.453191,0.06015 -0.40728,0.02583 -0.525588,0.392864 -0.09899,0.307092 -0.108442,0.396875 -0.120332,1.142638 -0.01498,0.939335 -0.03539,1.004423 -0.37499,1.195523 -0.185804,0.104556 -0.291079,0.123738 -1.301161,0.237078 -1.37499,0.154286 -1.52966,0.154133 -2.246972,-0.0022 -0.837002,-0.182447 -0.95307,-0.199363 -1.053576,-0.153551 -0.08407,0.03832 -0.08873,0.06712 -0.0949,0.585833 -0.0045,0.378184 -0.02251,0.564848 -0.05874,0.608494 -0.04347,0.05238 -0.04068,0.06944 0.01659,0.10149 0.06282,0.03515 0.06885,0.163885 0.06885,1.470409 0,1.626756 0.03876,2.1075 0.211441,2.62257 0.08226,0.245381 0.106329,0.367589 0.07606,0.386293 -0.03028,0.01872 -0.01891,0.0771 0.03599,0.184792 l 0.08026,0.15743 -0.191772,0.07343 c -0.105474,0.04039 -0.260001,0.0846 -0.343392,0.09825 -0.13772,0.02254 -0.151562,0.03639 -0.150988,0.151054 0.0018,0.367008 0.379035,2.728158 0.690847,4.324523 0.06444,0.329907 0.118124,0.657407 0.119299,0.727778 0.0012,0.07037 0.03479,0.296457 0.07471,0.502413 l 0.07257,0.374465 0.249134,0.239281 c 0.212091,0.203701 0.252779,0.265866 0.273642,0.41808 0.02413,0.176022 0.02247,0.179206 -0.106518,0.205004 -0.07206,0.01441 -0.180132,0.0262 -0.240151,0.0262 -0.06002,0 -0.517156,0.08004 -1.015857,0.177863 -0.498702,0.09783 -1.052286,0.199264 -1.230187,0.225419 -0.177901,0.02616 -0.563579,0.09167 -0.857062,0.145593 -0.610371,0.112142 -0.567979,0.10729 -0.591617,0.06771 z M 3.5560677,14.932113 l 0.092417,-0.105727 -0.011553,-1.455229 -0.011553,-1.45523 -0.095451,-0.07726 c -0.066687,-0.05397 -0.1589922,-0.07726 -0.3063009,-0.07726 -0.174384,0 -0.2278015,0.01805 -0.3088695,0.104338 l -0.09802,0.104338 v 1.448053 c 0,1.370852 0.00414,1.452623 0.077576,1.533773 0.1674685,0.185051 0.4911568,0.175364 0.6617549,-0.0198 z m 29.8399833,-0.395571 1.185178,-0.133458 0.128865,-0.128813 0.128865,-0.128812 0.01389,-0.791539 c 0.01826,-1.040776 0.01237,-1.066997 -0.292257,-1.300815 -0.114763,-0.08809 -0.137306,-0.08953 -1.400217,-0.08953 H 31.8768 l -0.111602,0.146317 c -0.06138,0.08047 -0.156761,0.276065 -0.211956,0.434645 -0.08371,0.240507 -0.09672,0.336568 -0.07843,0.579181 0.02331,0.309312 0.176523,0.719068 0.31609,0.845374 0.04197,0.03798 0.0763,0.0907 0.0763,0.117168 0,0.02646 0.03654,0.08118 0.08119,0.121593 0.076,0.06878 0.07689,0.07823 0.01395,0.147778 -0.03698,0.04087 -0.0834,0.0743 -0.10314,0.0743 -0.07429,0 -0.455062,-0.395646 -0.671232,-0.697454 -0.191105,-0.266814 -0.241792,-0.313349 -0.34131,-0.313349 -0.294065,0 -0.362359,-0.148088 -0.167674,-0.363581 0.142929,-0.158205 0.143812,-0.161424 0.100159,-0.364975 -0.02422,-0.112949 -0.04404,-0.268147 -0.04404,-0.344884 0,-0.196162 -0.103458,-0.181382 -0.294495,0.04207 -0.190597,0.222938 -0.266108,0.400528 -0.296813,0.698051 -0.02604,0.252337 0.05132,0.594313 0.177063,0.782742 0.365398,0.547542 0.268428,0.486292 1.243103,0.785188 0.135773,0.04164 0.797391,-6.87e-4 1.832092,-0.117201 z m 15.072003,-3.593877 c 0.01662,-0.01668 0.01659,-0.04397 0,-0.06065 -0.04037,-0.04043 -1.074774,-0.0658 -1.300826,-0.0319 -0.183154,0.02747 -0.232986,0.08144 -0.107606,0.116535 0.111661,0.03126 1.374881,0.0097 1.408492,-0.02399 z m -0.08625,-0.885888 c 0.05664,-0.02581 0.102985,-0.05972 0.102985,-0.07537 0,-0.04395 -0.336404,-0.07987 -0.747994,-0.07987 -0.632269,0 -0.895996,0.06441 -0.657022,0.1604676 0.136175,0.05474 1.179623,0.05054 1.302031,-0.0052 z M 45.642359,7.8129457 c 0.03771,-0.09828 -0.07181,-0.264525 -0.202973,-0.308099 -0.09455,-0.03141 -0.130887,-0.02211 -0.212268,0.05435 -0.09342,0.08776 -0.129294,0.235727 -0.07123,0.293787 0.01482,0.01483 0.124564,0.02696 0.243863,0.02696 0.164631,0 0.2231,-0.01614 0.242612,-0.06699 z M 38.295904,7.1770231 c 0,-0.030799 -0.04538,-0.085732 -0.100844,-0.1220734 -0.09137,-0.059869 -0.375795,-0.065053 -3.028178,-0.05519 -2.813647,0.010462 -2.930639,0.013876 -3.012428,0.087908 -0.0468,0.042363 -0.08509,0.092397 -0.08509,0.1111883 0,0.018791 1.400972,0.034166 3.113271,0.034166 2.625497,0 3.113272,-0.00877 3.113272,-0.055998 z m 3.679321,-0.00361 c 0,-0.032785 -0.05368,-0.087369 -0.119287,-0.1212963 -0.178759,-0.092439 -2.286734,-0.091346 -2.418939,0.00125 -0.04942,0.034617 -0.08986,0.089201 -0.08986,0.1212963 0,0.049656 0.195905,0.058356 1.314044,0.058356 1.13091,0 1.314043,-0.00831 1.314043,-0.05961 z"
   id="path442" /></svg>
