<?xml version="1.0" encoding="UTF-8" standalone="no"?>
<svg
   width="402"
   height="133"
   viewBox="0 0 402 133"
   version="1.1"
   id="svg21"
   sodipodi:docname="raal2.svg"
   inkscape:version="1.2.1 (9c6d41e410, 2022-07-14)"
   xml:space="preserve"
   xmlns:inkscape="http://www.inkscape.org/namespaces/inkscape"
   xmlns:sodipodi="http://sodipodi.sourceforge.net/DTD/sodipodi-0.dtd"
   xmlns="http://www.w3.org/2000/svg"
   xmlns:svg="http://www.w3.org/2000/svg"
   xmlns:rdf="http://www.w3.org/1999/02/22-rdf-syntax-ns#"
   xmlns:x="adobe:ns:meta/"><defs
     id="defs25" /><sodipodi:namedview
     id="namedview23"
     pagecolor="#ffffff"
     bordercolor="#000000"
     borderopacity="0.25"
     inkscape:showpageshadow="2"
     inkscape:pageopacity="0.0"
     inkscape:pagecheckerboard="0"
     inkscape:deskcolor="#d1d1d1"
     showgrid="false"
     inkscape:zoom="3.1309703"
     inkscape:cx="190.35632"
     inkscape:cy="73.779045"
     inkscape:window-width="1920"
     inkscape:window-height="1017"
     inkscape:window-x="-8"
     inkscape:window-y="-8"
     inkscape:window-maximized="1"
     inkscape:current-layer="svg21" /><metadata
     id="metadata18"><?xpacket begin="﻿" id="W5M0MpCehiHzreSzNTczkc9d"?><x:xmpmeta
       x:xmptk="Adobe XMP Core 5.6-c138 79.159824, 2016/09/14-01:09:01        "><rdf:RDF><rdf:Description
           rdf:about="" /></rdf:RDF></x:xmpmeta><?xpacket end="w"?></metadata><path
     style="fill:#ffffff;stroke-width:0.980233"
     d="m 153.28105,108.11468 c -1.0908,-0.45802 -3.11124,-0.8634 -4.48988,-0.90085 l -2.50661,-0.0681 -1.52781,-1.74356 -1.52781,-1.74356 0.0679,-14.329999 0.0679,-14.329999 1.98358,-1.61002 c 1.92604,-1.563384 4.46195,-6.083811 4.46195,-7.953872 v -0.923381 h -8.30746 -8.30746 l -1.2127,1.427804 -1.2127,1.427803 -3.61898,0.656307 c -4.06104,0.736475 -8.08133,2.97613 -8.08133,4.502011 0,0.554567 -1.1383,2.466569 -2.52955,4.248894 l -2.52955,3.240592 h -6.3306 -6.33059 l -2.31678,0.860699 -2.316776,0.8607 -1.451865,2.772912 c -0.798527,1.525102 -2.748397,4.883085 -4.333045,7.462183 l -2.88118,4.689268 -0.108259,2.09347 -0.10826,2.093478 -0.991633,-0.004 c -2.39583,-0.01 -13.491434,-2.768678 -13.931728,-3.464808 l -0.486623,-0.76931 6.986248,-9.751927 c 3.842437,-5.363558 7.446103,-10.933785 8.008149,-12.37828 l 1.0219,-2.626355 -1.17945,-2.153439 -1.179449,-2.153439 -3.027121,-1.225209 -3.027122,-1.225209 -2.821413,0.210069 -2.821413,0.21007 -1.963495,-1.026807 -1.963494,-1.026807 -1.726155,-3.59349 -1.726155,-3.593491 -4.746261,-0.296861 -4.746262,-0.296861 -3.012654,2.477028 c -3.504528,2.881452 -2.772453,2.735093 -14.317965,2.862462 l -8.978394,0.09905 -2.367367,1.533986 -2.367367,1.533986 -1.630042,4.76127 -1.630041,4.761269 -3.881966,0.673886 c -2.135081,0.370638 -6.224699,0.699015 -9.088041,0.729728 l -5.2060754,0.05584 V 55.790671 36.411408 L 23.624982,36.285657 c 10.22622,-0.06917 23.788754,-0.02471 30.138965,0.09879 l 11.545839,0.224542 0.849579,-1.312809 c 0.467268,-0.722045 2.658505,-2.510633 4.869414,-3.974643 l 4.019834,-2.661835 h 3.048087 3.048088 l 1.039164,-1.22349 1.039163,-1.22349 0.359185,-3.863567 0.359185,-3.863566 1.192054,2.701769 c 0.655631,1.485973 2.377348,3.775148 3.82604,5.087056 l 2.633985,2.385288 h 58.454406 58.45441 l 0.45331,-1.695685 0.45332,-1.695686 h 18.04697 c 9.92584,0 18.70574,-0.218016 19.51089,-0.484481 l 1.4639,-0.484482 0.34042,2.180167 0.34042,2.180167 h 3.89757 3.89756 v -2.849704 -2.849704 l 0.94156,-0.568612 0.94156,-0.568612 2.21982,2.933835 2.21984,2.933834 h 1.29341 c 1.9065,0 6.01657,3.709447 10.21491,9.219204 l 3.70237,4.858871 13.02477,-0.05498 13.02476,-0.05498 1.19766,-1.170281 1.19767,-1.170278 h 2.0601 2.06012 l 2.17777,1.490493 2.17775,1.490494 32.99796,-0.591361 c 18.14888,-0.325248 36.32333,-0.540213 40.38766,-0.4777 l 7.38969,0.113662 1.2871,1.043776 c 1.60742,1.303538 1.66072,3.929675 0.11052,5.444442 l -1.17659,1.149684 -40.81112,-0.626664 -40.81111,-0.626666 -0.71654,1.132889 -0.71655,1.132887 0.62665,1.929256 0.62665,1.929255 h 1.42063 1.42062 v 1.819282 1.819283 l -1.55571,1.261607 -1.55571,1.261609 -11.99301,-1.102519 C 295.6958,58.305619 289.93666,58.028273 289.49386,58.29568 l -0.80508,0.486194 0.58539,4.173245 0.58539,4.173246 -3.83309,0.618748 -3.83308,0.618749 -29.50109,0.01066 -29.50109,0.01067 v 2.849704 2.849704 l -1.05412,0.636588 -1.05413,0.636588 -1.92077,-1.698543 c -1.05644,-0.934199 -1.92078,-2.20756 -1.92078,-2.829692 v -1.131148 l -4.05553,-2.594527 -4.05553,-2.594527 H 192.8574 c -8.95013,0 -16.27296,0.202574 -16.27296,0.450163 0,0.24759 1.35332,2.318748 3.00738,4.602575 1.65406,2.283827 3.70825,5.125757 4.56488,6.315401 l 1.5575,2.162988 -0.71645,13.070801 -0.71644,13.070803 -1.1594,1.54932 -1.15939,1.54931 -6.90348,0.86877 c -3.79692,0.47783 -9.80402,0.85239 -13.34911,0.83237 l -6.44561,-0.0364 z m -38.30527,-32.522108 1.99984,-2.48425 -0.5498,-1.399965 -0.54978,-1.399967 -2.38258,-0.584319 -2.38258,-0.584319 -1.55902,1.264288 -1.55901,1.264289 0.41243,2.74585 0.41244,2.745849 -1.07172,-0.358798 -1.07172,-0.358797 v -3.533184 -3.533185 l -1.1257,-0.421339 -1.1257,-0.421339 -2.09711,1.435292 -2.09711,1.435291 v 3.336427 3.336427 h 6.37365 6.37364 z M 19.51414,58.980285 c -0.365902,-3.04208 -0.921951,-6.530347 -1.235664,-7.751705 l -0.570388,-2.220651 h -1.027956 -1.027956 l 0.582075,6.784256 c 0.613457,7.150033 1.130944,8.719154 2.875525,8.719154 h 1.06964 z m 262.18457,3.835369 9.9e-4,-1.695686 -20.08172,0.223276 c -11.04479,0.122802 -24.20923,0.49052 -29.25417,0.81715 l -9.1726,0.593875 v 0.878536 0.878534 h 29.25318 29.25319 l 9.9e-4,-1.695685 z M 36.115613,54.551763 37.946187,50.890448 37.386278,49.464707 36.82637,48.038966 31.589172,48.153608 c -2.880459,0.06305 -6.575903,0.392883 -8.212098,0.732954 l -2.9749,0.618311 -0.329216,2.265934 -0.329215,2.265934 1.09029,2.57265 1.090291,2.572651 6.180358,-0.484482 6.180359,-0.484481 z M 59.38163,53.780072 c -0.195434,-0.572899 -0.779258,-1.041635 -1.297387,-1.041635 -0.518128,0 -1.101952,0.468736 -1.297387,1.041635 l -0.355336,1.041636 h 1.652723 1.652723 z m 243.88397,-1.432181 1.23955,-0.372251 -0.002,-1.726096 -0.002,-1.726097 -10.98504,-0.317153 -10.98503,-0.317153 0.32693,2.255079 0.32692,2.25508 3.47071,0.57831 c 3.32466,0.553975 14.01834,0.148552 16.60986,-0.629719 z m 89.49492,-7.215815 V 43.19415 h -5.45399 -5.45398 v 1.937926 1.937926 h 5.45398 5.45399 z M 56.596793,45.235744 c 0,-1.276904 -2.630329,-2.041594 -7.022537,-2.041594 h -3.88543 v 1.453444 1.453445 h 5.453983 5.453984 z m 164.601407,-9.297352 1.22474,-1.441979 -1.52702,-0.572574 c -0.83985,-0.314916 -2.55894,-0.429084 -3.82018,-0.253707 l -2.29316,0.318868 -0.33075,1.695685 -0.33075,1.695686 h 2.92619 2.92619 z m 13.70928,-0.253707 -0.32873,-1.695685 -3.16887,-0.300294 -3.16887,-0.300294 -2.02908,1.061108 c -1.116,0.583609 -2.02909,1.4818 -2.02909,1.99598 v 0.934871 h 5.52669 5.5267 z m 25.9658,0.760815 c 0,-0.51418 -0.86314,-1.386247 -1.91808,-1.937927 l -1.91808,-1.003055 h -9.98152 -9.98153 v 1.937926 1.937927 h 11.8996 11.89961 z m 10.90796,0 c 0,-1.358001 -3.43425,-2.940982 -6.38042,-2.940982 h -2.54428 v 0.775171 c 0,0.426343 0.53548,1.29841 1.18996,1.937926 l 1.18996,1.162756 h 3.27239 3.27239 z"
     id="path8168" /><path
     style="fill:#000000;stroke-width:0.980233"
     id="path8146"
     d="" /><path
     style="fill:#000000;stroke-width:0.980233"
     id="path8144"
     d="" /></svg>
