<?xml version="1.0" encoding="UTF-8" standalone="no"?>
<svg
   xmlns:dc="http://purl.org/dc/elements/1.1/"
   xmlns:cc="http://creativecommons.org/ns#"
   xmlns:rdf="http://www.w3.org/1999/02/22-rdf-syntax-ns#"
   xmlns:svg="http://www.w3.org/2000/svg"
   xmlns="http://www.w3.org/2000/svg"
   xmlns:sodipodi="http://sodipodi.sourceforge.net/DTD/sodipodi-0.dtd"
   xmlns:inkscape="http://www.inkscape.org/namespaces/inkscape"
   version="1.1"
   x="0px"
   y="0px"
   width="88.5px"
   height="32px"
   viewBox="0 0 88.5 32"
   enable-background="new 0 0 88.5 32"
   xml:space="preserve"
   id="svg167"
   sodipodi:docname="r90.svg"
   inkscape:version="1.0.2-2 (e86c870879, 2021-01-15)"><metadata
   id="metadata173"><rdf:RDF><cc:Work
       rdf:about=""><dc:format>image/svg+xml</dc:format><dc:type
         rdf:resource="http://purl.org/dc/dcmitype/StillImage" /></cc:Work></rdf:RDF></metadata><defs
   id="defs171" /><sodipodi:namedview
   pagecolor="#ffffff"
   bordercolor="#666666"
   borderopacity="1"
   objecttolerance="10"
   gridtolerance="10"
   guidetolerance="10"
   inkscape:pageopacity="0"
   inkscape:pageshadow="2"
   inkscape:window-width="1842"
   inkscape:window-height="1051"
   id="namedview169"
   showgrid="false"
   inkscape:zoom="13.728814"
   inkscape:cx="51.175747"
   inkscape:cy="27.905486"
   inkscape:window-x="-9"
   inkscape:window-y="-9"
   inkscape:window-maximized="1"
   inkscape:current-layer="svg167" />

<g
   id="guides">
</g>
<path
   style="fill:#ffffff;stroke-width:0.0728395"
   d="m 40.28624,31.023088 c -1.021574,-0.109886 -2.670267,-0.278836 -3.663762,-0.375444 -0.993495,-0.09661 -1.825425,-0.19472 -1.848733,-0.218028 -0.05877,-0.05877 0.165342,-0.516865 0.486533,-0.9945 0.319027,-0.474416 0.4989,-0.93814 0.844417,-2.176958 0.453887,-1.62737 0.839068,-2.853247 1.341356,-4.269004 0.681413,-1.920638 0.703471,-2.222794 0.204266,-2.797982 -0.588635,-0.67823 -0.863555,-0.733133 -3.676429,-0.734204 l -2.269759,-8.65e-4 -0.199612,-0.236728 C 31.221039,18.883186 31.108462,18.572186 31.108462,18.125249 V 17.73663 l -0.496834,-0.160017 c -0.273259,-0.08801 -0.558637,-0.160016 -0.634174,-0.160016 -0.07554,0 -1.128891,-0.344166 -2.340789,-0.764815 l -2.20345,-0.764814 -2.898488,-0.0035 c -1.594167,-0.0019 -3.225028,-0.02984 -3.624135,-0.06198 -0.798923,-0.06434 -0.98608,-0.04256 -0.98608,0.114731 0,0.05778 -0.03421,0.08392 -0.07603,0.05807 -0.04182,-0.02584 -0.123762,-0.0074 -0.182099,0.04104 -0.0747,0.062 -0.106069,0.06385 -0.106069,0.0063 0,-0.04497 -0.03278,-0.08176 -0.07284,-0.08176 -0.04006,0 -0.07284,0.05326 -0.07284,0.118364 0,0.092 -0.04747,0.108871 -0.213135,0.07574 -0.130991,-0.0262 -0.30624,0.0038 -0.454702,0.07788 -0.132863,0.06628 -0.331951,0.113623 -0.44242,0.105205 -0.11047,-0.0084 -0.200854,0.0202 -0.200854,0.0636 0,0.04576 -0.0612,0.05948 -0.145679,0.03267 -0.08357,-0.02652 -0.145679,-0.01309 -0.145679,0.03151 0,0.04276 -0.09344,0.07775 -0.207649,0.07775 -0.114207,0 -0.306301,0.03439 -0.426875,0.07642 -0.120574,0.04203 -0.297548,0.0854 -0.393276,0.09636 -0.180868,0.02072 -0.431153,0.07703 -0.866027,0.194831 -0.140216,0.03798 -1.008827,0.250704 -1.930247,0.472715 -2.8741341,0.692507 -3.2452637,0.817193 -3.4128988,1.146613 -0.065677,0.129063 -0.3337688,1.004937 -0.5957594,1.946387 -0.2619906,0.941451 -0.492804,1.766157 -0.5129187,1.832682 -0.056956,0.188366 -0.3569787,0.349692 -1.0029488,0.539296 -0.7921321,0.232506 -0.945047,0.227243 -1.1539769,-0.03972 l -0.1699249,-0.217183 -0.4596147,0.13916 c -0.448673,0.135847 -0.4628514,0.135923 -0.595583,0.0032 C 3.9222361,22.571111 3.2506981,20.4924 3.1433937,19.820301 3.1018192,19.5599 2.9839866,18.708167 2.8815436,17.927561 2.5952201,15.745808 2.358863,14.828048 1.3899343,12.135733 1.1592513,11.494745 0.87956767,10.648731 0.76841527,10.255702 0.52753674,9.4039681 0.51126304,9.4337391 1.3717346,9.1520041 c 0.5602001,-0.183419 0.6009259,-0.210392 0.6009259,-0.398001 0,-0.273049 0.1652829,-0.400304 0.7542776,-0.580735 0.7260485,-0.222417 0.9609707,-0.20008 1.7834673,0.16958 0.6641169,0.298478 0.7416061,0.317326 1.0384199,0.25258 0.6750286,-0.147249 2.0431857,-0.655837 3.4528476,-1.283536 l 0.8012346,-0.356777 6.7376535,0.0417 6.737655,0.0417 1.056172,-0.275536 c 0.580895,-0.151545 1.423279,-0.373992 1.871963,-0.494328 l 0.815789,-0.218792 9.00379,0.06429 9.003789,0.06429 0.286903,0.280153 c 0.157796,0.154084 0.286902,0.322667 0.286902,0.374629 0,0.05196 0.03278,0.09448 0.07284,0.09448 0.04006,0 0.07284,-0.08493 0.07284,-0.188729 0,-0.110401 0.105808,-0.312343 0.254938,-0.486568 0.140217,-0.163811 0.254939,-0.373883 0.254939,-0.466826 0,-0.144569 0.03684,-0.168988 0.254938,-0.168988 0.223375,0 0.254938,0.02255 0.254938,0.182099 0,0.167261 0.02671,0.182099 0.327778,0.182099 0.30107,0 0.327778,-0.01484 0.327778,-0.182099 0,-0.159553 0.03156,-0.182099 0.254938,-0.182099 0.223375,0 0.254938,0.02255 0.254938,0.182099 0,0.167261 0.02671,0.182099 0.327778,0.182099 0.30107,0 0.327778,-0.01484 0.327778,-0.182099 0,-0.100154 0.03278,-0.182099 0.07284,-0.182099 0.103122,0 0.09051,-0.244563 -0.01821,-0.353197 -0.06772,-0.06766 -0.09736,-0.659281 -0.115657,-2.309012 l -0.02461,-2.218038 h 0.224916 c 0.123705,0 0.224916,0.02895 0.224916,0.06434 0,0.03539 0.06053,0.08017 0.134506,0.09952 0.102411,0.02678 0.145889,0.132031 0.182213,0.441091 0.02624,0.223254 0.08465,0.498055 0.129793,0.610667 0.05109,0.12743 0.07631,0.626935 0.06678,1.322735 -0.01466,1.070668 -0.0084,1.125388 0.149015,1.292901 0.118166,0.125782 0.242916,0.174916 0.444107,0.174916 0.381313,0 1.078775,0.454051 1.078775,0.702288 0,0.134679 0.03933,0.171786 0.182098,0.171786 0.145679,0 0.182099,0.03642 0.182099,0.182099 0,0.163889 0.02914,0.182099 0.291358,0.182099 0.262222,0 0.291358,-0.01821 0.291358,-0.182099 0,-0.163889 0.02914,-0.182099 0.291358,-0.182099 0.262222,0 0.291358,0.01821 0.291358,0.182099 0,0.163889 0.02914,0.182099 0.291358,0.182099 0.263969,0 0.291358,-0.01751 0.291358,-0.186287 0,-0.174115 0.02023,-0.184824 0.309568,-0.163889 0.257344,0.01862 0.313495,0.05005 0.332844,0.186287 0.03465,0.243942 0.574358,0.243942 0.609004,0 0.01907,-0.134309 0.06929,-0.163889 0.278214,-0.163889 0.208924,0 0.25914,0.02958 0.278214,0.163889 0.03464,0.243942 0.574359,0.243942 0.609004,0 0.01907,-0.134309 0.06929,-0.163889 0.278214,-0.163889 0.208924,0 0.25914,0.02958 0.278214,0.163889 0.01963,0.138213 0.06813,0.163889 0.309568,0.163889 0.234831,0 0.286292,-0.02541 0.286292,-0.14138 0,-0.189622 0.105466,-0.243225 0.365975,-0.186008 0.142736,0.03135 0.216741,0.09247 0.216741,0.179001 0,0.133611 0.189284,0.218397 0.491667,0.220232 0.12652,7.67e-4 0.163889,-0.04053 0.163889,-0.181105 0,-0.159553 0.03156,-0.182098 0.254938,-0.182098 0.223375,0 0.254938,0.02255 0.254938,0.182098 0,0.167262 0.02671,0.182099 0.327778,0.182099 0.30107,0 0.327778,-0.01484 0.327778,-0.182099 0,-0.159553 0.03156,-0.182098 0.254938,-0.182098 0.223375,0 0.254938,0.02255 0.254938,0.182098 0,0.167262 0.02671,0.182099 0.327778,0.182099 0.30107,0 0.327778,-0.01484 0.327778,-0.182099 0,-0.159553 0.03156,-0.182098 0.254938,-0.182098 0.223375,0 0.254938,0.02255 0.254938,0.182098 0,0.167262 0.02671,0.182099 0.327778,0.182099 0.30107,0 0.327778,-0.01484 0.327778,-0.182099 0,-0.159553 0.03156,-0.182098 0.254938,-0.182098 0.223375,0 0.254939,0.02255 0.254939,0.182098 0,0.167262 0.02671,0.182099 0.327777,0.182099 0.303035,0 0.327778,-0.01406 0.327778,-0.186287 0,-0.174114 0.02023,-0.184823 0.309568,-0.163889 0.257343,0.01862 0.313495,0.05005 0.332844,0.186287 0.01963,0.138213 0.06813,0.163889 0.309568,0.163889 0.256818,0 0.286292,-0.01875 0.286292,-0.182099 0,-0.163888 0.02914,-0.182098 0.291358,-0.182098 0.262222,0 0.291358,0.01821 0.291358,0.182098 0,0.163889 0.02914,0.182099 0.291358,0.182099 0.264054,0 0.291358,-0.01748 0.291358,-0.186495 0,-0.170966 0.02275,-0.184614 0.273148,-0.163889 0.219409,0.01816 0.277728,0.05485 0.296424,0.186495 0.01955,0.137641 0.06832,0.163889 0.304502,0.163889 0.236186,0 0.284954,-0.02625 0.304502,-0.163889 0.01907,-0.134308 0.06929,-0.163889 0.278214,-0.163889 0.208924,0 0.25914,0.02958 0.278214,0.163889 0.01955,0.137641 0.06832,0.163889 0.304502,0.163889 0.236186,0 0.284954,-0.02625 0.304502,-0.163889 0.01907,-0.134308 0.06929,-0.163889 0.278214,-0.163889 0.208924,0 0.25914,0.02958 0.278214,0.163889 0.01963,0.138213 0.06813,0.163889 0.309568,0.163889 0.237732,0 0.286292,-0.02471 0.286292,-0.145679 0,-0.121399 0.04856,-0.145679 0.291358,-0.145679 0.262222,0 0.291358,0.01821 0.291358,0.182099 0,0.167261 0.02671,0.182099 0.327778,0.182099 0.30107,0 0.327778,-0.01484 0.327778,-0.182099 0,-0.159553 0.03156,-0.182099 0.254938,-0.182099 0.223375,0 0.254938,0.02255 0.254938,0.182099 0,0.167261 0.02671,0.182099 0.327778,0.182099 0.30107,0 0.327778,-0.01484 0.327778,-0.182099 0,-0.159553 0.03156,-0.182099 0.254938,-0.182099 0.223375,0 0.254938,0.02255 0.254938,0.182099 0,0.167261 0.02671,0.182099 0.327778,0.182099 0.30107,0 0.327778,-0.01484 0.327778,-0.182099 0,-0.163889 0.02914,-0.182099 0.291358,-0.182099 0.262222,0 0.291358,0.01821 0.291358,0.182099 0,0.167261 0.02671,0.182099 0.327778,0.182099 0.301067,0 0.327778,-0.01484 0.327778,-0.182099 0,-0.159553 0.03156,-0.182099 0.254938,-0.182099 0.223377,0 0.254938,0.02255 0.254938,0.182099 0,0.167261 0.02671,0.182099 0.327778,0.182099 0.303129,0 0.327778,-0.01402 0.327778,-0.186496 0,-0.170965 0.02275,-0.184613 0.273148,-0.163889 0.219407,0.01816 0.27773,0.05485 0.296427,0.186496 0.01962,0.138213 0.06813,0.163889 0.309568,0.163889 0.258617,0 0.286289,-0.01803 0.286289,-0.186496 0,-0.170965 0.02275,-0.184613 0.273148,-0.163889 0.219407,0.01816 0.27773,0.05485 0.296428,0.186496 0.01962,0.138213 0.06813,0.163889 0.309567,0.163889 0.258617,0 0.286289,-0.01803 0.286289,-0.186496 0,-0.170965 0.02275,-0.184613 0.273148,-0.163889 0.219407,0.01816 0.27773,0.05485 0.296428,0.186496 0.01954,0.137641 0.06832,0.163889 0.304498,0.163889 0.236182,0 0.284955,-0.02625 0.304498,-0.163889 0.01908,-0.134309 0.06929,-0.163889 0.278218,-0.163889 0.208926,0 0.259141,0.02958 0.278218,0.163889 0.01954,0.137641 0.06832,0.163889 0.304498,0.163889 0.226881,0 0.285728,-0.02871 0.304498,-0.148564 0.01281,-0.08171 0.04786,-0.147266 0.07791,-0.145679 0.03005,0.0016 0.150684,0.0029 0.268079,0.0029 0.165906,0 0.218642,0.03651 0.236728,0.163888 0.0187,0.131645 0.07702,0.168337 0.296428,0.186496 0.2504,0.02072 0.273148,0.0071 0.273148,-0.163889 0,-0.169018 0.02731,-0.186495 0.291358,-0.186495 0.262222,0 0.291358,0.01821 0.291358,0.182098 0,0.167261 0.02671,0.182099 0.327778,0.182099 0.301067,0 0.327778,-0.01484 0.327778,-0.182099 0,-0.163888 0.02914,-0.182098 0.291358,-0.182098 0.262222,0 0.291358,0.01821 0.291358,0.182098 0,0.167261 0.02671,0.182099 0.327778,0.182099 0.301067,0 0.327777,-0.01484 0.327777,-0.182099 0,-0.159553 0.03156,-0.182098 0.254939,-0.182098 0.223377,0 0.254938,0.02255 0.254938,0.182098 0,0.153433 0.03411,0.182099 0.216697,0.182099 0.198845,0 0.213311,-0.01692 0.175624,-0.205363 -0.02284,-0.114215 0.0086,-0.324355 0.07094,-0.473457 l 0.112013,-0.268093 h 0.695697 0.695691 v -0.214905 c 0,-0.118194 0.0441,-0.241111 0.09802,-0.273148 0.05391,-0.03204 0.119609,-0.169608 0.145999,-0.305712 0.06495,-0.33494 -0.09234,-1.54481 -0.219931,-1.691676 -0.07625,-0.08777 -0.09723,-0.293788 -0.08157,-0.801235 l 0.02106,-0.683083 0.278232,-0.02291 c 0.153029,-0.0126 0.323378,0.01456 0.378562,0.06036 0.05648,0.04687 0.122108,0.304314 0.150166,0.589032 0.02741,0.278171 0.08181,0.525525 0.120884,0.549675 0.04269,0.02639 0.03416,0.0667 -0.02139,0.101032 -0.07196,0.04448 -0.06563,0.08393 0.02864,0.178197 0.156554,0.156551 0.159059,0.679573 0.0043,0.900497 -0.08965,0.127997 -0.110694,0.300116 -0.09065,0.741501 0.02503,0.551129 0.03734,0.586321 0.298853,0.854132 0.150013,0.153627 0.272747,0.348957 0.272747,0.434068 0,0.08511 0.03983,0.168024 0.08851,0.184251 0.105675,0.03522 0.08501,1.315516 -0.02186,1.354448 -0.03665,0.01335 -0.06665,0.201826 -0.06665,0.418827 v 0.394547 h 0.392547 c 0.278225,0 0.442631,0.0406 0.564506,0.139425 0.171355,0.138936 0.17196,0.145074 0.17196,1.754648 v 1.6152229 l -0.179317,0.145137 c -0.143639,0.116263 -0.241645,0.13579 -0.49262,0.09815 -0.332877,-0.04992 -0.602755,5.82e-4 -0.602755,0.112816 0,0.03736 0.173723,0.06793 0.38605,0.06793 0.212327,0 0.425382,0.03933 0.473456,0.08741 0.08771,0.08771 0.132394,2.478027 0.05034,2.692746 -0.02657,0.06953 -0.157596,0.09017 -0.462611,0.07287 l -0.425543,-0.02413 -0.04335,0.366032 c -0.02385,0.201318 -0.02444,0.482594 -0.0013,0.625059 l 0.04204,0.259027 H 84.800695 82.97018 V 15.41351 14.794374 l -0.437037,-0.01093 c -0.24037,-0.006 -0.476647,-0.0142 -0.525056,-0.01821 -0.04842,-0.004 -0.136858,0.123827 -0.196543,0.284074 -0.05969,0.160247 -0.130645,0.307747 -0.157676,0.327778 -0.02703,0.02003 -0.137091,0.28111 -0.24458,0.580177 -0.107489,0.299066 -0.230384,0.585872 -0.273105,0.637346 -0.04592,0.05533 -0.240392,0.09359 -0.475765,0.09359 h -0.398105 l 0.04922,-0.291358 0.04923,-0.291358 h -0.545764 -0.545772 l 0.03681,0.274424 c 0.03617,0.269677 0.02816,0.280387 -0.463143,0.619135 -0.274977,0.189592 -0.524102,0.344713 -0.553617,0.344713 -0.02951,0 -0.05366,-0.08195 -0.05366,-0.182099 0,-0.100154 -0.03278,-0.182099 -0.07284,-0.182099 -0.04006,0 -0.0741,0.172083 -0.07564,0.382408 -0.0025,0.350242 -0.02249,0.394715 -0.236728,0.528735 -0.554782,0.347039 -0.965758,1.67232 -0.846709,2.730403 l 0.06141,0.545868 -0.355646,0.526438 c -0.543251,0.804134 -0.687204,1.236156 -0.678347,2.035865 0.0072,0.653671 0.0024,0.673454 -0.231477,0.946914 -0.131387,0.153612 -0.347633,0.492351 -0.480558,0.752752 -0.228687,0.448005 -0.242177,0.517519 -0.250954,1.293112 -0.0092,0.814211 -0.0108,0.821226 -0.237369,1.056172 -0.622807,0.645828 -0.711766,1.797061 -0.185319,2.398303 0.09111,0.104059 0.09277,0.161817 0.01111,0.387641 l -0.09595,0.265363 -0.402307,-0.03955 c -0.221265,-0.02175 -0.648134,-0.05896 -0.948597,-0.08268 -0.300463,-0.02372 -1.283796,-0.123115 -2.185185,-0.220872 -0.901389,-0.09776 -1.810972,-0.196377 -2.021296,-0.219152 -0.373357,-0.04043 -0.382407,-0.04695 -0.382407,-0.275387 0,-0.187264 0.08047,-0.313449 0.403096,-0.632064 0.37134,-0.366727 0.420412,-0.455476 0.622886,-1.126524 1.165097,-3.861418 1.612466,-5.105977 2.801578,-7.793867 0.358726,-0.810873 0.411757,-1.22699 0.224139,-1.758755 -0.133998,-0.379794 -0.460099,-0.851159 -0.633536,-0.91575 -0.113082,-0.04212 -0.140371,-0.123533 -0.140371,-0.418827 0,-0.269337 -0.02763,-0.366545 -0.104193,-0.366545 -0.05731,0 -0.114668,0.07375 -0.127469,0.163889 -0.01908,0.134309 -0.06929,0.163889 -0.278215,0.163889 -0.208924,0 -0.259139,-0.02958 -0.278214,-0.163889 -0.01963,-0.138213 -0.06813,-0.163889 -0.309568,-0.163889 -0.241549,0 -0.286292,0.02372 -0.286292,0.151749 0,0.181657 -0.003,0.180676 -0.57032,-0.188169 -0.396808,-0.257973 -0.448232,-0.318482 -0.448795,-0.528086 l -6.38e-4,-0.236728 h 2.98642 c 1.942389,0 2.98642,-0.02546 2.98642,-0.07284 0,-0.111934 -6.971678,-0.09916 -7.009012,0.01284 -0.05696,0.170879 -0.991653,0.192403 -6.557346,0.150999 -5.572839,-0.04146 -5.663272,-0.03987 -5.663272,0.09933 0,0.0778 -0.05103,0.214307 -0.113389,0.303344 -0.111415,0.159066 -0.141712,0.161886 -1.739043,0.161886 -1.961434,0 -2.080901,0.0169 -2.080901,0.294393 0,0.111839 0.03246,0.214269 0.07213,0.227624 0.04151,0.01397 -0.06386,0.534528 -0.248188,1.226131 -0.176173,0.661019 -0.338518,1.283797 -0.360766,1.383951 -0.03182,0.143251 -0.923402,1.775866 -1.025647,1.878112 -0.01331,0.01331 -0.308336,0.0702 -0.655602,0.126418 -0.475082,0.07691 -0.686571,0.148639 -0.854279,0.289756 -0.122588,0.103151 -0.315539,0.235459 -0.42878,0.294018 -0.21506,0.111212 -1.359658,0.207834 -3.418618,0.288583 -1.497266,0.05872 -1.467896,0.05108 -1.618613,0.420935 -0.173094,0.424768 -1.877684,5.880117 -1.877684,6.009319 0,0.05748 0.08491,0.382868 0.188678,0.723086 0.15054,0.493542 0.176306,0.680036 0.127469,0.922626 l -0.06121,0.304048 z m 6.555556,-8.725518 c 0.661018,-0.03853 1.365741,-0.119181 1.566049,-0.179221 0.344573,-0.103282 0.385624,-0.143608 0.761826,-0.748359 0.218695,-0.351558 0.443346,-0.67402 0.499223,-0.716583 0.141823,-0.10803 0.60047,-1.320354 0.549635,-1.452829 -0.0329,-0.08574 0.02306,-0.108672 0.265242,-0.108672 0.26375,0 0.299563,0.01794 0.254492,0.127469 -0.114718,0.278787 -0.47301,1.263044 -0.47301,1.299396 0,0.0213 0.120787,0.02855 0.268417,0.01611 l 0.268418,-0.02261 0.311952,-1.274691 c 0.171573,-0.70108 0.313007,-1.332053 0.314298,-1.402161 0.0043,-0.23635 -0.119588,-0.129786 -0.211791,0.182099 -0.05033,0.170262 -0.154338,0.457068 -0.231121,0.637346 l -0.139605,0.327778 -1.857832,-0.02062 c -2.399471,-0.02662 -2.557799,0.01556 -2.981651,0.79431 -0.278251,0.511239 -0.302582,1.3138 -0.05424,1.788955 0.08757,0.167544 0.192463,0.325173 0.233097,0.350287 0.126568,0.07822 0.08108,0.182742 -0.07952,0.182742 -0.08437,0 -0.217863,-0.08194 -0.296645,-0.182099 -0.126684,-0.161054 -0.198258,-0.182099 -0.619305,-0.182099 h -0.476067 l 0.04999,0.200309 c 0.08106,0.324815 0.247188,0.455359 0.578017,0.454218 0.164053,-5.83e-4 0.839112,-0.03255 1.500131,-0.07108 z m 4.953086,-5.172331 c 0,-0.235524 -0.169258,-0.306271 -0.247145,-0.103302 -0.08085,0.21069 -0.04581,0.321821 0.101466,0.321821 0.113306,0 0.145679,-0.04856 0.145679,-0.218519 z M 62.77908,15.144005 c 0.04807,-0.04807 0.08741,-0.179186 0.08741,-0.291358 v -0.203951 l -1.566049,-0.01093 c -0.861327,-0.006 -1.607022,-0.0142 -1.657099,-0.01821 -0.149892,-0.01199 -0.15847,0.40904 -0.01054,0.517211 0.177507,0.129796 3.017186,0.136325 3.146278,0.0072 z m 3.947116,-0.02091 c 0.05156,-0.06212 0.0703,-0.186374 0.04395,-0.291358 l -0.04594,-0.183045 H 65.34303 63.961855 l -0.04594,0.183045 c -0.09258,0.368847 0.01749,0.399671 1.427116,0.399671 1.055697,0 1.309787,-0.0199 1.383165,-0.108313 z M 50.558413,14.971732 c 0.149347,-0.39281 0.238184,-0.375645 -2.205197,-0.426087 -3.067553,-0.06333 -11.199136,-0.08969 -11.199102,-0.0363 1.5e-5,0.02351 0.319611,0.15462 0.710213,0.291358 0.920875,0.32237 1.032503,0.327517 7.467852,0.344371 l 5.155198,0.0135 z m 7.939494,0.07542 c 0.0707,-0.08519 0.07317,-0.153767 0.01048,-0.291358 l -0.08199,-0.179942 h -1.347705 -1.347705 l -0.04594,0.183045 c -0.09257,0.368847 0.01749,0.399671 1.427117,0.399671 1.071844,0 1.309105,-0.01908 1.385741,-0.111416 z m 25.447707,-3.386351 c 0.212087,-0.53006 0.182048,-0.581241 -0.34118,-0.581241 h -0.45835 l -0.08302,0.309568 c -0.04566,0.170262 -0.10513,0.366929 -0.13216,0.437037 -0.0437,0.113364 0.0032,0.127469 0.424195,0.127469 h 0.47334 z m -9.929897,-0.146767 c 0.157494,-0.08429 0.1873,-0.358931 0.05349,-0.492746 -0.0616,-0.0616 -0.480172,-0.08741 -1.417808,-0.08741 -1.293551,0 -1.332759,0.0044 -1.415609,0.159214 -0.07379,0.137874 -0.05894,0.181808 0.110759,0.327778 0.187189,0.161012 0.248207,0.168564 1.362126,0.168564 0.664565,0 1.226755,-0.03243 1.307046,-0.0754 z m 3.927761,-0.03291 c 0.04944,-0.05957 0.07044,-0.185834 0.04665,-0.280582 l -0.04323,-0.172268 -1.582621,-0.05258 c -1.463892,-0.04864 -1.589664,-0.04294 -1.676627,0.07598 -0.12414,0.169775 -0.118612,0.284234 0.02045,0.423298 0.166001,0.166003 3.098082,0.171575 3.23537,0.0062 z m 3.353196,-0.0031 c 0.07071,-0.08519 0.07317,-0.153768 0.01048,-0.291358 l -0.08199,-0.179942 h -1.347706 -1.347706 l -0.04594,0.183045 c -0.09258,0.368847 0.01749,0.399671 1.427116,0.399671 1.07184,0 1.309108,-0.01908 1.385742,-0.111416 z M 52.025708,11.170609 c 0.133447,-0.07011 0.253557,-0.152052 0.266911,-0.182099 0.03556,-0.08 2.69046,-0.06743 2.719342,0.01288 0.0281,0.07814 12.704353,0.132871 12.782034,0.05519 0.02742,-0.02742 0.02528,-0.07444 -0.0048,-0.104488 -0.03004,-0.03005 -4.845641,-0.0655 -10.701337,-0.07878 -6.333174,-0.01436 -10.674754,-0.05125 -10.715916,-0.09105 -0.03995,-0.03862 -1.447776,-0.0669 -3.329849,-0.0669 -3.149158,0 -3.263225,0.0048 -3.336049,0.140891 -0.208337,0.38928 -0.5185,0.366449 5.260092,0.387203 2.934521,0.01054 5.668809,0.02714 6.076195,0.03689 0.58934,0.01411 0.790284,-0.0083 0.983334,-0.10974 z M 69.216872,8.1841891 c 0.09341,-0.250651 0.184677,-0.383098 0.264891,-0.384412 0.06731,-0.0011 0.204323,-0.114923 0.304477,-0.252933 0.169134,-0.233063 0.210621,-0.251036 0.582716,-0.252436 0.373979,-0.0014 0.411729,0.01481 0.567723,0.243925 0.122453,0.17985 0.239234,0.257357 0.437037,0.290058 0.148462,0.02454 1.236876,0.04421 2.418697,0.04371 l 2.148766,-9.2e-4 0.214279,-0.289636 c 0.197584,-0.267061 0.24131,-0.289636 0.561075,-0.289636 0.317005,0 0.3669,0.02502 0.580932,0.291358 l 0.234142,0.291358 h 2.388408 2.388407 l 0.203419,-0.254936 c 0.184502,-0.231235 0.237828,-0.254937 0.573626,-0.254939 0.344341,-2e-6 0.386588,0.02037 0.604364,0.291356 0.136486,0.169842 0.296711,0.291358 0.384177,0.291358 0.11312,0 0.137907,0.03137 0.10073,0.127469 -0.02713,0.07011 -0.06751,0.217608 -0.08974,0.327778 -0.03844,0.190449 -0.02681,0.200309 0.236175,0.200309 0.152126,0 0.400836,-0.05736 0.552692,-0.127469 0.31699,-0.146354 0.427189,-0.376331 0.427189,-0.891517 V 7.2423391 L 79.965561,7.1944321 C 68.276514,7.0894781 56.52945,7.0513181 56.52945,7.1183021 c 0,0.03759 0.05333,0.144496 0.118522,0.237564 0.09187,0.131167 0.110445,0.282103 0.0826,0.671298 l -0.03592,0.502085 5.398575,0.02025 c 2.969216,0.01114 5.754651,0.01954 6.189857,0.01867 l 0.791276,-0.0016 z m -14.02709,-0.874074 c 0.237386,-0.312715 0.271163,-0.309568 -3.32206,-0.309568 -1.882902,0 -3.423457,0.0136 -3.423457,0.03023 0,0.01663 0.07375,0.114369 0.163889,0.217203 l 0.163889,0.18697 3.160488,0.0013 c 2.925476,0.0012 3.167684,-0.0082 3.257251,-0.126153 z"
   id="path277" /></svg>
