<?xml version="1.0" encoding="UTF-8" standalone="no"?>
<!-- Generator: Adobe Illustrator 16.0.0, SVG Export Plug-In . SVG Version: 6.00 Build 0)  -->

<svg
   version="1.1"
   id="Layer_1"
   x="0px"
   y="0px"
   width="29.624px"
   height="29.438px"
   viewBox="0 0 29.624 29.438"
   enable-background="new 0 0 29.624 29.438"
   xml:space="preserve"
   sodipodi:docname="bumpmine.svg"
   inkscape:version="1.2.1 (9c6d41e410, 2022-07-14)"
   xmlns:inkscape="http://www.inkscape.org/namespaces/inkscape"
   xmlns:sodipodi="http://sodipodi.sourceforge.net/DTD/sodipodi-0.dtd"
   xmlns="http://www.w3.org/2000/svg"
   xmlns:svg="http://www.w3.org/2000/svg"><defs
   id="defs70" /><sodipodi:namedview
   id="namedview68"
   pagecolor="#ffffff"
   bordercolor="#000000"
   borderopacity="0.25"
   inkscape:showpageshadow="2"
   inkscape:pageopacity="0.0"
   inkscape:pagecheckerboard="0"
   inkscape:deskcolor="#d1d1d1"
   showgrid="false"
   inkscape:zoom="6.9128338"
   inkscape:cx="11.572678"
   inkscape:cy="17.0697"
   inkscape:window-width="1920"
   inkscape:window-height="1017"
   inkscape:window-x="-8"
   inkscape:window-y="-8"
   inkscape:window-maximized="1"
   inkscape:current-layer="Layer_1" />

<path
   style="fill:#ffffff;stroke-width:0.0367467"
   d="m 15.580392,27.105405 c -0.0136,-0.0136 -0.592263,-0.029 -1.285876,-0.03415 -0.693614,-0.0051 -1.302457,-0.01851 -1.352984,-0.0296 -0.237014,-0.05213 -0.398858,-0.06177 -0.411273,-0.02452 -0.01991,0.0597 -0.470644,0.0013 -0.470644,-0.06101 0,-0.0276 -0.05969,-0.05889 -0.137801,-0.07221 C 11.269574,26.772648 9.895702,26.373555 9.3803833,26.145659 9.2319166,26.079999 9.173351,26.068599 9.1530714,26.101419 9.1170004,26.159789 8.6934225,25.971515 8.7062023,25.902793 8.7113823,25.874773 8.5532152,25.774397 8.32463,25.660714 7.8504628,25.424894 7.2433795,25.062188 7.0437006,24.895415 6.7240842,24.628473 6.2336013,24.295077 6.1604924,24.295077 c -0.099745,0 -0.3845492,-0.218451 -0.3845492,-0.294961 0,-0.03233 -0.3103603,-0.371895 -0.6896829,-0.754626 C 4.7069346,22.862757 4.2658866,22.38012 4.106148,22.172961 3.9166773,21.927241 3.7912301,21.796309 3.7452719,21.796309 c -0.038749,0 -0.1441881,-0.07588 -0.2343198,-0.168619 -0.1278336,-0.13153 -0.1548089,-0.179546 -0.1226417,-0.218307 0.03201,-0.03858 -0.030085,-0.167246 -0.2778389,-0.5755 C 2.8036625,20.328295 2.3890162,19.512089 2.2124894,19.066274 2.1558634,18.923261 2.0962603,18.836866 2.0309108,18.803076 1.8999222,18.735336 1.7770912,18.383112 1.8623886,18.319823 c 0.048141,-0.03571 0.04573,-0.06707 -0.019731,-0.257224 -0.1957391,-0.568601 -0.4207609,-1.590784 -0.5306091,-2.410316 -0.016405,-0.122376 -0.042826,-0.178944 -0.090698,-0.194134 -0.078662,-0.02498 -0.1110309,-0.123097 -0.1117306,-0.338714 -3.325e-4,-0.100623 0.019035,-0.165279 0.055615,-0.185752 0.047397,-0.02652 0.05822,-0.173829 0.069643,-0.948051 0.00811,-0.549436 0.038118,-1.114584 0.074909,-1.410748 0.060712,-0.488636 0.060574,-0.49473 -0.012701,-0.551197 -0.069149,-0.05329 -0.071147,-0.07171 -0.029979,-0.27609 0.037559,-0.186462 0.057735,-0.22218 0.1357881,-0.240466 0.05221,-0.01225 0.096947,-0.05242 0.1039186,-0.09335 C 1.5900256,10.925227 1.868827,9.998271 2.1452527,9.2911171 2.3212267,8.8409386 2.3264638,8.8173699 2.2654593,8.74996 2.2047073,8.682834 2.2058393,8.669825 2.2892833,8.4763996 2.3692323,8.2910496 2.3852953,8.2750971 2.4732371,8.2936982 2.5639561,8.3128712 2.5833126,8.2887582 2.803957,7.8818898 3.0620728,7.4058968 3.5938567,6.5778614 3.8621945,6.2341165 4.1006772,5.9286155 4.1014926,5.9267444 4.0303923,5.8481816 c -0.059328,-0.065557 -0.05547,-0.077247 0.078274,-0.2372547 0.077376,-0.092563 0.1575803,-0.1612918 0.1782344,-0.1527315 0.020637,0.00858 0.064311,0.026339 0.097009,0.039534 0.043012,0.017351 0.1345046,-0.059443 0.3307204,-0.2775248 C 5.0410335,4.8574251 5.6907722,4.2624257 6.1627422,3.8940944 6.3998634,3.7090421 6.5009207,3.607908 6.4866055,3.569986 6.4307885,3.4221631 6.4406085,3.4006443 6.6189094,3.280046 l 0.1841883,-0.1245801 0.068187,0.084213 0.068187,0.084213 0.217471,-0.1473575 C 7.6502413,2.842276 8.4990852,2.386976 9.101505,2.1335172 9.4202647,1.9994079 9.4322251,1.9901122 9.4322251,1.876563 c 0,-0.1093758 0.013922,-0.1225722 0.1944878,-0.1842757 l 0.1944842,-0.066455 0.04173,0.09158 c 0.02795,0.061359 0.06078,0.084167 0.09949,0.069117 0.4211239,-0.1637825 1.5416679,-0.4467364 2.1790889,-0.5502529 0.582027,-0.094519 0.542801,-0.080231 0.542801,-0.1976954 0,-0.0924761 0.01613,-0.10739555 0.137799,-0.12750765 0.255825,-0.042284 0.303161,-0.031978 0.303161,0.066107 0,0.0493301 0.01238,0.09707 0.02757,0.10608105 0.01515,0.00903 0.275601,6.997e-4 0.578761,-0.01833 0.513383,-0.032326 1.458148,-0.00211 2.085369,0.066852 0.209729,0.023055 0.211292,0.022497 0.211292,-0.073801 0,-0.10716505 0.02263,-0.11264325 0.305242,-0.073906 0.154999,0.0212351 0.169408,0.0321151 0.179676,0.13538595 l 0.01116,0.1122872 0.484711,0.099936 c 0.624617,0.1287849 1.183217,0.2854729 1.746871,0.4900007 0.326154,0.1183454 0.457987,0.1514711 0.477287,0.1199195 0.08727,-0.1426729 0.08475,-0.1422668 0.298144,-0.04789 0.193175,0.08543 0.205976,0.09878 0.186969,0.1949911 -0.01987,0.1006479 -0.0075,0.109684 0.483588,0.3538479 0.571316,0.2840346 1.092707,0.5906446 1.580322,0.9293345 0.317304,0.2203888 0.337867,0.229068 0.414908,0.1751061 0.076,-0.053229 0.09131,-0.049127 0.245454,0.065792 0.145158,0.1082174 0.16217,0.135585 0.145354,0.2338118 -0.01749,0.1020793 0.0044,0.1308389 0.265864,0.3489012 0.370052,0.3086705 1.140086,1.0804594 1.436367,1.4396496 0.217305,0.2634437 0.238694,0.2795183 0.321688,0.2417015 0.04889,-0.022287 0.09391,-0.033692 0.100037,-0.02536 0.0062,0.00833 0.06612,0.086444 0.13333,0.1735806 0.107109,0.1388604 0.117076,0.1696741 0.0807,0.2495273 -0.03778,0.082908 -0.0106,0.138066 0.302103,0.6132508 0.384294,0.5839627 0.69542,1.1285054 0.909362,1.5915786 0.127739,0.276496 0.152133,0.3077264 0.225872,0.2892265 0.07299,-0.018299 0.09318,0.00575 0.172608,0.2057769 0.08572,0.215877 0.08686,0.228779 0.0241,0.274663 -0.06235,0.04559 -0.05906,0.06629 0.06223,0.390662 0.184133,0.4924299 0.411111,1.3062529 0.519835,1.8638579 0.05167,0.265004 0.09395,0.489983 0.09395,0.499957 0,0.01 0.03275,0.01812 0.07279,0.01812 0.07421,0 0.0835,0.02214 0.130143,0.309968 0.01934,0.119353 0.01028,0.154651 -0.05199,0.202106 -0.07118,0.05427 -0.07345,0.07605 -0.04034,0.388215 0.04091,0.385674 0.04407,1.825435 0.0049,2.216715 -0.02386,0.238084 -0.01931,0.273228 0.03923,0.304563 0.05349,0.02863 0.06218,0.06512 0.04529,0.190192 -0.03643,0.269887 -0.05313,0.32013 -0.106361,0.32013 -0.0637,0 -0.08968,0.09052 -0.184615,0.643064 -0.03915,0.227887 -0.05885,0.315715 -0.165389,0.737589 -0.06013,0.238078 -0.123086,0.442357 -0.13991,0.453957 -0.03726,0.02567 -0.338658,0.887098 -0.338658,0.967889 0,0.0317 0.01484,0.06312 0.03299,0.06986 0.05644,0.02096 -0.118681,0.398015 -0.184874,0.398053 -0.04076,2.4e-5 -0.141861,0.167995 -0.315184,0.523675 -0.280876,0.576393 -0.594604,1.114904 -0.952644,1.635208 -0.128637,0.186937 -0.233886,0.3744 -0.233886,0.41658 0,0.105402 -0.218475,0.401051 -0.296363,0.401051 -0.03488,0 -0.204292,0.161226 -0.376464,0.358277 -0.284854,0.326018 -0.714035,0.75604 -1.460202,1.463047 -0.150711,0.14277 -0.2699,0.283327 -0.264887,0.312342 0.01126,0.06528 -0.27411,0.2719 -0.382451,0.276895 -0.04371,0.0021 -0.184261,0.0782 -0.312346,0.169279 -0.413009,0.293707 -1.17353,0.733682 -1.761204,1.018884 -0.3151,0.152923 -0.567311,0.294575 -0.560468,0.314785 0.01654,0.04887 -0.398228,0.210188 -0.438045,0.170374 -0.01707,-0.01707 -0.240981,0.03986 -0.497571,0.126529 -0.625058,0.211117 -1.349969,0.395132 -1.963952,0.498529 -0.33906,0.0571 -0.505266,0.100428 -0.505266,0.131719 0,0.02687 -0.04478,0.04664 -0.105647,0.04664 -0.05811,0 -0.153302,0.0096 -0.21155,0.02116 -0.05825,0.01165 -0.11704,0.01008 -0.130659,-0.0036 z"
   id="path138" /></svg>
