<?xml version="1.0" encoding="UTF-8" standalone="no"?>
<svg
   xmlns:dc="http://purl.org/dc/elements/1.1/"
   xmlns:cc="http://creativecommons.org/ns#"
   xmlns:rdf="http://www.w3.org/1999/02/22-rdf-syntax-ns#"
   xmlns:svg="http://www.w3.org/2000/svg"
   xmlns="http://www.w3.org/2000/svg"
   xmlns:sodipodi="http://sodipodi.sourceforge.net/DTD/sodipodi-0.dtd"
   xmlns:inkscape="http://www.inkscape.org/namespaces/inkscape"
   version="1.1"
   x="0px"
   y="0px"
   width="98px"
   height="32px"
   viewBox="0 0 98 32"
   enable-background="new 0 0 98 32"
   xml:space="preserve"
   id="svg335"
   sodipodi:docname="scar17.svg"
   inkscape:version="1.0.2-2 (e86c870879, 2021-01-15)"><metadata
   id="metadata341"><rdf:RDF><cc:Work
       rdf:about=""><dc:format>image/svg+xml</dc:format><dc:type
         rdf:resource="http://purl.org/dc/dcmitype/StillImage" /></cc:Work></rdf:RDF></metadata><defs
   id="defs339" /><sodipodi:namedview
   pagecolor="#ffffff"
   bordercolor="#666666"
   borderopacity="1"
   objecttolerance="10"
   gridtolerance="10"
   guidetolerance="10"
   inkscape:pageopacity="0"
   inkscape:pageshadow="2"
   inkscape:window-width="1842"
   inkscape:window-height="1051"
   id="namedview337"
   showgrid="false"
   inkscape:zoom="6.1989796"
   inkscape:cx="105.43782"
   inkscape:cy="29.705122"
   inkscape:window-x="-9"
   inkscape:window-y="-9"
   inkscape:window-maximized="1"
   inkscape:current-layer="svg335" />

<g
   id="guides">
</g>
<path
   style="fill:#ffffff;stroke-width:0.159606"
   d="m 41.143929,26.420171 c -0.0595,-2.519363 -0.138642,-4.611112 -0.175864,-4.648335 -0.03722,-0.03722 -1.083065,0.02229 -2.324098,0.132244 -1.24103,0.109956 -3.065554,0.160069 -4.054495,0.111363 l -1.798075,-0.08855 -0.344044,0.708146 c -0.407092,0.837918 -0.425384,1.071834 -0.104636,1.338031 0.436704,0.362434 0.281841,0.638327 -0.359113,0.639764 -0.653123,0.0015 -0.529592,-0.160135 -1.983,2.594105 -0.460347,0.872365 -0.472091,0.939694 -0.228717,1.311129 0.46397,0.70811 0.299454,0.984837 -0.541479,0.910801 -0.712034,-0.06269 -4.863011,-0.901964 -5.306886,-1.072985 -0.15362,-0.05918 -0.279309,-0.15929 -0.279309,-0.222446 0,-0.06315 0.82337,-1.473969 1.829713,-3.135135 2.748575,-4.537065 3.756482,-6.334863 3.756482,-6.700412 0,-0.423005 -0.750976,-1.125527 -1.308386,-1.223966 -0.236805,-0.04182 -4.201152,-0.02568 -8.809661,0.03588 -7.122998,0.09514 -8.435005,0.148545 -8.751996,0.356244 -0.205091,0.134383 -0.8286328,1.132721 -1.3856493,2.218534 -2.4803313,4.835004 -3.4293268,6.610828 -3.5911646,6.720029 -0.09558,0.06449 -0.5149396,0.11836 -0.9319092,0.119703 -0.540438,0.0018 -0.7581265,0.06629 -0.7581265,0.224776 0,0.320932 -0.3635264,0.416091 -1.5895667,0.416091 -1.672547,0 -1.63202433,0.190339 -0.968415,-4.548759 0.3009191,-2.14898 0.3434793,-2.983685 0.2685538,-5.26698 C 1.3193532,14.767222 1.0696303,12.642082 0.66138862,11.029076 0.55919196,10.625285 0.49934329,10.086617 0.52839157,9.8320342 L 0.58120669,9.3691562 2.0770314,9.323007 C 3.3696673,9.283125 3.5600514,9.310224 3.4785895,9.5225149 3.3965035,9.7364264 3.6724163,9.76817 5.6137916,9.76817 c 1.791806,0 2.2294689,-0.043345 2.2294689,-0.2207936 0,-0.121436 0.1256894,-0.2570846 0.2793098,-0.30144 2.7454537,-0.7927135 4.2239447,-1.117329 5.6649087,-1.2437782 0.94535,-0.082961 2.203178,-0.2208777 2.795171,-0.3064878 0.591995,-0.085612 1.409648,-0.1570788 1.817006,-0.1588172 0.407361,-0.00178 1.448786,-0.192588 2.314282,-0.4241097 2.227577,-0.5958809 2.451458,-0.6246841 2.451458,-0.3153923 0,0.3649035 0.265625,0.3200672 0.365457,-0.061689 0.06969,-0.2665065 0.217703,-0.3192104 0.896446,-0.3192104 h 0.812969 V 5.8164217 c 0,-0.6448054 0.343291,-1.0001266 1.117239,-1.1563921 0.364282,-0.073551 0.411361,-0.181217 0.540841,-1.2369435 0.09601,-0.7828433 0.210202,-1.1563793 0.353498,-1.1563793 0.241357,0 0.526241,0.4581755 0.50032,0.8046604 -0.0096,0.1280263 0.041,0.5380214 0.112391,0.9110992 l 0.129805,0.678324 1.056938,0.00247 c 0.581315,0.00139 1.135964,0.055208 1.232553,0.1197035 0.263563,0.1759871 0.542611,0.7702761 0.542611,1.1556046 0,0.1876075 0.102604,0.4437076 0.228007,0.569112 0.261575,0.2615754 0.729626,0.3054549 0.729626,0.068407 0,-0.087779 0.107734,-0.1596057 0.239408,-0.1596057 0.131675,0 0.239409,0.07182 0.239409,0.1596057 0,0.087779 0.143645,0.1596057 0.319211,0.1596057 0.175566,0 0.319211,-0.07182 0.319211,-0.1596057 0,-0.087779 0.107734,-0.1596057 0.239409,-0.1596057 0.131674,0 0.239408,0.07182 0.239408,0.1596057 0,0.087779 0.143645,0.1596057 0.319212,0.1596057 0.175565,0 0.31921,-0.07182 0.31921,-0.1596057 0,-0.087779 0.107734,-0.1596057 0.239409,-0.1596057 0.131674,0 0.239408,0.07182 0.239408,0.1596057 0,0.087779 0.143645,0.1596057 0.319212,0.1596057 0.175565,0 0.31921,-0.07182 0.31921,-0.1596057 0,-0.087779 0.107734,-0.1596057 0.239409,-0.1596057 0.131674,0 0.239408,0.07182 0.239408,0.1596057 0,0.087779 0.143645,0.1596057 0.319212,0.1596057 0.175565,0 0.319211,-0.07182 0.319211,-0.1596057 0,-0.087779 0.107733,-0.1596057 0.239408,-0.1596057 0.131674,0 0.239408,0.07182 0.239408,0.1596057 0,0.2625183 0.507138,0.1805541 0.740649,-0.1197035 0.206876,-0.2660098 0.225191,-0.2660098 0.384639,0 0.21271,0.3548711 0.456616,0.3548711 0.7326,0 0.206876,-0.2660098 0.225191,-0.2660098 0.38464,0 0.205197,0.3423394 0.607785,0.3642772 0.73226,0.039902 0.05053,-0.1316752 0.156009,-0.2394091 0.2344,-0.2394091 0.07839,0 0.142529,0.1077339 0.142529,0.2394091 0,0.1489648 0.150739,0.239408 0.399015,0.239408 0.219457,0 0.399013,-0.077529 0.399013,-0.1722867 0,-0.1099274 0.180527,-0.1326369 0.498755,-0.062747 0.344004,0.07556 0.540027,0.042762 0.631776,-0.1056888 0.10594,-0.1714141 0.173367,-0.1748869 0.331195,-0.017057 0.23718,0.23718 0.772752,0.2639094 0.772752,0.038566 0,-0.087779 0.107734,-0.1596057 0.239408,-0.1596057 0.131676,0 0.239409,0.07182 0.239409,0.1596057 0,0.087779 0.143645,0.1596057 0.319211,0.1596057 0.175566,0 0.319211,-0.07182 0.319211,-0.1596057 0,-0.087779 0.107734,-0.1596057 0.239408,-0.1596057 0.131675,0 0.239409,0.07182 0.239409,0.1596057 0,0.2312476 0.598333,0.1963933 0.684975,-0.039902 0.05852,-0.1596057 0.115447,-0.1596057 0.284629,0 0.252672,0.2383692 0.786057,0.2654449 0.786057,0.039902 0,-0.087779 0.107734,-0.1596057 0.239409,-0.1596057 0.131674,0 0.239408,0.07182 0.239408,0.1596057 0,0.087779 0.143645,0.1596057 0.319212,0.1596057 0.175565,0 0.31921,-0.07182 0.31921,-0.1596057 0,-0.087779 0.107734,-0.1596057 0.239409,-0.1596057 0.131674,0 0.239408,0.07182 0.239408,0.1596057 0,0.2315236 0.599507,0.1962835 0.678808,-0.039902 0.05208,-0.1551277 0.163862,-0.1478933 0.502497,0.032521 0.380969,0.2029727 0.453591,0.2029727 0.579866,0 0.118447,-0.1903867 0.202135,-0.1962241 0.466272,-0.032521 0.40097,0.2485015 0.759544,0.2562623 0.838913,0.018155 0.04338,-0.1301475 0.156137,-0.1215933 0.399354,0.030295 0.28437,0.1775928 0.38369,0.1746712 0.617228,-0.018155 0.21427,-0.176918 0.293778,-0.1838903 0.345471,-0.030295 0.08645,0.2568649 0.554329,0.2568649 0.826605,0 0.169182,-0.1596057 0.226108,-0.1596057 0.284629,0 0.04024,0.1097285 0.19645,0.1995069 0.347143,0.1995069 0.150694,0 0.369155,-0.089778 0.485467,-0.1995069 0.169182,-0.1596057 0.226108,-0.1596057 0.284629,0 0.0793,0.2162602 0.619776,0.2745384 0.740098,0.079804 0.04067,-0.065834 1.068388,-0.1116291 2.2838,-0.1017599 1.215408,0.00989 2.29322,-0.047481 2.395133,-0.1274535 0.114041,-0.08949 0.225073,-0.081041 0.28873,0.021955 0.143654,0.2324378 0.680778,0.2099974 0.769567,-0.032155 0.05852,-0.1596057 0.115447,-0.1596057 0.284629,0 0.252672,0.2383692 0.786058,0.2654449 0.786058,0.039902 0,-0.087779 0.107734,-0.1596057 0.239408,-0.1596057 0.131674,0 0.239408,0.07182 0.239408,0.1596057 0,0.087779 0.143646,0.1596047 0.319212,0.1596047 0.175566,0 0.319211,-0.07182 0.319211,-0.1596047 0,-0.087779 0.107734,-0.1596057 0.239408,-0.1596057 0.131675,0 0.239408,0.07182 0.239408,0.1596057 0,0.087779 0.143646,0.1596047 0.319212,0.1596047 0.175566,0 0.319211,-0.07182 0.319211,-0.1596047 0,-0.087779 0.107734,-0.1596057 0.239408,-0.1596057 0.131675,0 0.239409,0.07182 0.239409,0.1596057 0,0.087779 0.143645,0.1596047 0.31921,0.1596047 0.175567,0 0.319212,-0.07182 0.319212,-0.1596047 0,-0.087779 0.107734,-0.1596057 0.239408,-0.1596057 0.131675,0 0.239409,0.07182 0.239409,0.1596057 0,0.2312169 0.754253,0.1964051 0.86453,-0.039902 0.07448,-0.1596057 0.111725,-0.1596057 0.186206,0 0.11444,0.2452267 0.580031,0.2605583 0.813792,0.026793 0.123876,-0.1238758 0.264623,-0.1153086 0.497778,0.030295 0.26509,0.165551 0.37288,0.1633278 0.584201,-0.012051 0.196277,-0.1628964 0.30395,-0.1702456 0.443895,-0.030295 0.205162,0.2051613 0.759261,0.2526264 0.759487,0.065062 1.59e-4,-0.1730406 3.624705,-0.2091257 4.068214,-0.040506 0.2708,0.1029571 0.396423,0.08209 0.457059,-0.075926 0.04792,-0.1248592 0.215689,-0.1833689 0.392913,-0.1370238 0.29726,0.077736 0.308508,-0.02057 0.289073,-2.5261773 l -0.02022,-2.60705879 h 0.718225 0.718226 l 0.04328,3.15220969 c 0.04731,3.4466015 -0.03806,3.16974 0.991317,3.2147069 0.30479,0.013317 0.420082,0.1277502 0.499834,0.4961235 0.149265,0.6894398 0.16152,1.7621749 0.02173,1.9019661 -0.173343,0.1733434 -0.156243,0.4740036 0.03456,0.6076606 0.244849,0.171516 8.48479,0.127252 10.698914,-0.05747 1.053397,-0.08789 3.331192,-0.195554 5.061768,-0.2392643 l 3.146503,-0.079468 0.09339,0.3720993 c 0.104967,0.418224 0.01223,1.842643 -0.129183,1.984048 -0.18631,0.18631 -8.894419,0.09639 -9.360475,-0.09666 -0.284558,-0.117867 -0.974118,-0.158546 -1.866143,-0.110088 -0.77815,0.04227 -3.102646,0.148132 -5.165547,0.235247 -2.062903,0.08712 -4.262043,0.209835 -4.88698,0.272714 -0.778344,0.07831 -1.170931,0.05821 -1.246363,-0.06385 -0.06056,-0.09799 -0.321343,-0.17817 -0.579512,-0.17817 -0.516713,0 -0.52237,0.02059 -0.471431,1.715761 l 0.02518,0.837928 h -0.553116 c -0.344422,0 -0.587778,-0.09033 -0.644985,-0.239408 -0.05053,-0.131674 -0.237768,-0.239408 -0.41609,-0.239408 -0.181791,0 -0.32422,0.105171 -0.32422,0.239408 0,0.131676 -0.107733,0.239408 -0.239408,0.239408 -0.131675,0 -0.221452,-0.08807 -0.199507,-0.195717 0.02195,-0.107645 -0.121699,-0.220373 -0.319211,-0.250509 -0.243153,-0.0371 -0.359113,0.0261 -0.359113,0.195717 0,0.137781 -0.107733,0.250509 -0.239408,0.250509 -0.131675,0 -0.239409,-0.103269 -0.239409,-0.229488 0,-0.1311 -0.136854,-0.21918 -0.31921,-0.205444 -0.175567,0.01323 -0.319211,0.116496 -0.319211,0.229489 0,0.112995 -0.107734,0.205443 -0.239409,0.205443 -0.131675,0 -0.239409,-0.09234 -0.239409,-0.205206 0,-0.112864 -0.143644,-0.205207 -0.31921,-0.205207 -0.175567,0 -0.319211,0.09234 -0.319211,0.205207 0,0.112864 -0.107734,0.205206 -0.239409,0.205206 -0.131675,0 -0.239409,-0.09234 -0.239409,-0.205206 0,-0.112864 -0.143644,-0.205207 -0.319211,-0.205207 -0.175566,0 -0.31921,0.09234 -0.31921,0.205207 0,0.112864 -0.107734,0.205206 -0.239409,0.205206 -0.131675,0 -0.239408,-0.09777 -0.239408,-0.217275 0,-0.145426 -0.131333,-0.192169 -0.397155,-0.141354 -0.218434,0.04175 -0.35784,0.13953 -0.309792,0.217275 0.04805,0.07775 -0.02461,0.141354 -0.161464,0.141354 -0.136856,0 -0.248828,-0.07182 -0.248828,-0.159604 0,-0.231218 -0.754253,-0.196406 -0.864531,0.0399 -0.07448,0.159606 -0.111724,0.159606 -0.186205,0 -0.12085,-0.258961 -0.816131,-0.258961 -0.911084,0 -0.05852,0.159606 -0.115447,0.159606 -0.284629,0 -0.272199,-0.256792 -0.738452,-0.256792 -0.83261,0 -0.05852,0.159606 -0.115447,0.159606 -0.284629,0 -0.271944,-0.256551 -0.732835,-0.256551 -0.852561,0 -0.07448,0.159606 -0.111723,0.159606 -0.186205,0 -0.12075,-0.258748 -0.810283,-0.258748 -0.931034,0 -0.07448,0.159606 -0.111724,0.159606 -0.186205,0 -0.120848,-0.258961 -0.816131,-0.258961 -0.911083,0 -0.05852,0.159606 -0.115448,0.159606 -0.284629,0 -0.271944,-0.256551 -0.732835,-0.256551 -0.852561,0 -0.07448,0.159606 -0.111724,0.159606 -0.186205,0 -0.120848,-0.258961 -0.81613,-0.258961 -0.911082,0 -0.05852,0.159606 -0.115449,0.159606 -0.284631,0 -0.272199,-0.256792 -0.738451,-0.256792 -0.832609,0 -0.05852,0.159606 -0.115448,0.159606 -0.28463,0 -0.229911,-0.216898 -0.786038,-0.273355 -0.786087,-0.0798 -1.8e-5,0.06583 -0.412997,0.119704 -0.917732,0.119704 h -0.917702 l -0.05001,-0.518718 c -0.02961,-0.307108 -0.13878,-0.518718 -0.267606,-0.518718 -0.119677,0 -0.25044,-0.12569 -0.290584,-0.27931 -0.04015,-0.153621 -0.08133,0.05389 -0.09151,0.461135 -0.02289,0.915531 -0.389748,1.397947 -1.100237,1.446817 -0.845352,0.05815 -1.229794,0.605578 -1.2471,1.775825 -0.0086,0.583653 0.07262,1.112904 0.199498,1.299509 0.117732,0.173152 0.214058,0.578346 0.214058,0.90043 0,0.474189 -0.06833,0.602754 -0.359113,0.675729 l -0.359112,0.09012 0.01906,4.466862 c 0.01556,3.647036 -0.02105,4.482254 -0.199508,4.550732 -0.321467,0.123359 -0.292235,1.211128 0.03255,1.211128 0.153218,0 0.23017,0.108889 0.19739,0.27931 -0.04931,0.256366 -0.402146,0.282797 -4.29541,0.321769 l -4.241685,0.04246 z M 6.3139538,21.96092 c 0.5310155,-0.20377 0.1947301,-1.179965 -0.406481,-1.179965 -0.2879442,0 -0.7775071,0.401987 -0.7775071,0.638422 0,0.212963 0.4775395,0.638423 0.7165717,0.638423 0.1182248,0 0.3285621,-0.04359 0.4674164,-0.09688 z M 39.495559,21.393307 c 0.191741,-0.102122 0.436114,-0.299634 0.543051,-0.438916 0.21079,-0.274547 0.273472,-2.057534 0.08244,-2.344885 -0.42484,-0.639027 -2.566519,-0.647553 -3.512943,-0.01398 -0.60937,0.407934 -0.751461,0.821501 -0.617654,1.797737 0.05329,0.388799 0.03578,0.706907 -0.03891,0.706907 -0.180307,0 -0.483922,-1.176947 -0.535252,-2.074873 -0.03805,-0.665672 -0.07552,-0.722146 -0.512004,-0.771818 -0.672034,-0.07648 -0.885701,0.306796 -0.885701,1.588768 0,0.971399 0.04059,1.10707 0.420539,1.405944 0.378035,0.297363 0.637188,0.330795 2.564182,0.330795 1.323568,0 2.277013,-0.07103 2.492263,-0.185675 z M 74.638195,10.007578 c 0,-0.2536562 -0.122915,-0.3293843 -0.598521,-0.3687472 -0.64818,-0.053645 -0.685704,-0.012575 -0.42818,0.4686082 0.232698,0.434802 1.026701,0.357574 1.026701,-0.09986 z M 74.239181,7.6017919 c 0,-0.4569179 -0.05554,-0.5598018 -0.279309,-0.5174113 -0.183954,0.034846 -0.296385,0.2295557 -0.329324,0.570322 -0.0418,0.4324632 0.0041,0.5174113 0.279309,0.5174113 0.271254,0 0.329324,-0.1005657 0.329324,-0.570322 z"
   id="path357" /></svg>
