<?xml version="1.0" encoding="UTF-8" standalone="no"?>
<!-- Generator: Adobe Illustrator 16.0.0, SVG Export Plug-In . SVG Version: 6.00 Build 0)  -->

<svg
   version="1.1"
   x="0px"
   y="0px"
   width="19.438px"
   height="32px"
   viewBox="0 0 19.438 32"
   enable-background="new 0 0 19.438 32"
   xml:space="preserve"
   id="svg66"
   sodipodi:docname="sensorgrenade.svg"
   inkscape:version="1.2.1 (9c6d41e410, 2022-07-14)"
   xmlns:inkscape="http://www.inkscape.org/namespaces/inkscape"
   xmlns:sodipodi="http://sodipodi.sourceforge.net/DTD/sodipodi-0.dtd"
   xmlns="http://www.w3.org/2000/svg"
   xmlns:svg="http://www.w3.org/2000/svg"><defs
   id="defs70" /><sodipodi:namedview
   id="namedview68"
   pagecolor="#ffffff"
   bordercolor="#000000"
   borderopacity="0.25"
   inkscape:showpageshadow="2"
   inkscape:pageopacity="0.0"
   inkscape:pagecheckerboard="0"
   inkscape:deskcolor="#d1d1d1"
   showgrid="false"
   inkscape:zoom="12.71875"
   inkscape:cx="14.859951"
   inkscape:cy="14.702703"
   inkscape:window-width="1920"
   inkscape:window-height="1017"
   inkscape:window-x="-8"
   inkscape:window-y="-8"
   inkscape:window-maximized="1"
   inkscape:current-layer="svg66" />

<g
   id="guides">
</g>
<path
   style="fill:#ffffff;stroke-width:0.0484401"
   d="m 10.935442,31.32193 c -0.114888,-0.02265 -0.387365,-0.0942 -0.6055,-0.159076 C 9.9909725,31.062039 9.7960425,31.040831 8.9887454,31.016935 7.6953031,30.978646 6.8803011,30.836204 6.5338257,30.587904 6.4491184,30.527194 6.1521391,30.264845 5.8738728,30.004902 L 5.3679355,29.532287 4.841105,29.46018 C 3.6972061,29.30366 3.1534781,29.131541 3.1048148,28.910549 3.0883375,28.835721 3.0134198,28.745947 2.925347,28.695494 l -0.1511836,-0.08662 0.033439,-0.675595 c 0.036792,-0.743253 0.0184,-0.823428 -0.2106718,-0.918315 -0.1676155,-0.06942 -0.3418072,-0.320698 -0.3404232,-0.491058 5.111e-4,-0.06348 0.1204048,-0.288309 0.266421,-0.49967 0.1460155,-0.211353 0.265483,-0.424754 0.265483,-0.474216 0,-0.110871 -0.1807646,-0.473598 -0.2360144,-0.473598 -0.022162,0 -0.052933,0.195219 -0.06839,0.433828 -0.036835,0.568603 -0.1250828,0.75962 -0.3648247,0.789721 -0.09816,0.01236 -0.2043857,0.0022 -0.2360614,-0.02279 -0.035175,-0.02757 -0.066617,-0.246557 -0.080764,-0.562428 -0.012752,-0.284496 -0.045223,-0.691648 -0.072174,-0.904781 -0.063659,-0.503506 -0.073298,-9.111189 -0.010413,-9.305379 0.025014,-0.07725 0.057037,-0.521904 0.071175,-0.988143 0.029037,-0.957699 0.04786,-1.06235 0.2701329,-1.501638 0.2694408,-0.532506 0.4903143,-0.807131 1.596681,-1.985247 L 4.7260213,9.892034 V 9.593295 c 0,-0.258848 0.042772,-0.400804 0.3203203,-1.063102 L 5.3666613,7.7658289 5.2279907,7.6663074 C 5.1517222,7.6115589 5.00372,7.4877559 4.8990968,7.3911708 L 4.7088727,7.2155512 4.8405889,6.9907975 c 0.072442,-0.1236174 0.1630104,-0.2247536 0.2012614,-0.2247536 0.038252,0 0.1875665,0.057879 0.3318158,0.1286307 L 5.6359371,7.0233053 5.8228107,6.8273721 C 6.0555902,6.5833103 6.2580993,6.5244625 6.8664495,6.5241126 L 7.3356956,6.5238592 7.3128716,6.3664304 C 7.3003124,6.2798421 7.2680951,5.6749469 7.2412711,5.0222136 7.2144468,4.3694801 7.1736408,3.6283485 7.1505941,3.3752511 7.0842823,2.6469767 7.0906885,2.1280586 7.1678238,1.9801943 7.2053517,1.9082359 7.3564853,1.7458463 7.5036724,1.6192939 7.7645736,1.3949722 7.7793138,1.3892065 8.0916292,1.3892065 c 0.3051219,0 0.3242691,0.00671 0.402865,0.1450113 0.078826,0.1385306 0.097146,0.1450337 0.4094881,0.1453241 L 9.230953,1.6799218 V 1.849463 c 0,0.093247 0.019881,0.1695411 0.04418,0.1695411 0.066274,0 0.097957,0.2831024 0.1246881,1.114122 0.039758,1.2359369 0.077554,1.6634249 0.1548764,1.7513763 0.03937,0.044768 0.07731,0.2051924 0.08592,0.3632992 0.0086,0.1557081 0.01788,0.308757 0.02086,0.3401027 0.003,0.031361 0.126036,0.1260012 0.273441,0.2103399 0.4080235,0.2334467 0.5554735,0.3743311 0.5554735,0.5307396 0,0.1228502 0.01975,0.138471 0.211441,0.167217 0.116291,0.017431 0.252529,0.062796 0.302748,0.1008381 0.138717,0.1050246 0.735266,0.096264 0.855513,-0.01259 0.141058,-0.1276549 0.487953,-0.1135613 0.627105,0.025476 0.0973,0.09721 0.112313,0.1675149 0.127035,0.5948987 0.01902,0.5519329 -0.0316,0.6844148 -0.305104,0.7986985 -0.08787,0.036723 -0.34734,0.2692172 -0.576582,0.5166823 l -0.416815,0.4499254 -8.94e-4,1.0034282 c -8.94e-4,0.992091 2.56e-4,1.004062 0.108065,1.059624 0.230357,0.118776 0.32697,0.248807 0.32697,0.440056 0,0.178919 0.0058,0.185317 0.166795,0.185317 0.103321,0 0.190883,0.03255 0.23009,0.08563 0.09709,0.131335 0.669403,0.567897 0.886779,0.676437 0.106565,0.05318 0.276593,0.123544 0.377828,0.156297 0.101246,0.03278 0.242737,0.113918 0.314433,0.180372 0.0717,0.06645 0.242298,0.187768 0.379107,0.269597 0.266504,0.159396 0.5214,0.497412 0.977226,1.295879 l 0.235056,0.411741 0.393919,0.02958 c 0.285439,0.02145 0.467434,0.06555 0.660849,0.160156 0.280648,0.137309 0.640141,0.497755 0.688465,0.690283 0.01561,0.0622 0.04522,0.113029 0.0658,0.113029 0.114011,0 0.238326,1.214662 0.241382,2.358595 7.28e-4,0.271505 0.01956,0.504929 0.04186,0.51871 0.0223,0.01379 0.0304,0.200202 0.01801,0.414267 -0.01282,0.221512 -0.0017,0.415449 0.02559,0.450096 0.03072,0.03888 0.03308,0.192297 0.0066,0.42418 -0.0253,0.221186 -0.01868,0.922263 0.01694,1.792279 0.06852,1.673757 0.06768,2.312061 -0.0039,3.005131 -0.02882,0.278731 -0.0657,0.864228 -0.08197,1.301109 -0.01627,0.436889 -0.05159,0.85105 -0.07849,0.920364 -0.0269,0.06928 -0.04869,0.316765 -0.04843,0.549884 4.87e-4,0.388128 -0.0075,0.423845 -0.09401,0.423845 -0.05196,0 -0.101828,0.02727 -0.110824,0.06056 -0.238737,0.884623 -0.396386,1.194117 -0.841685,1.652356 -0.271052,0.27893 -0.27299,0.279787 -1.17737,0.517852 -0.912059,0.240092 -1.228422,0.361676 -2.001075,0.769066 -0.349228,0.184127 -0.768895,0.369222 -0.932587,0.411323 -0.317037,0.08153 -0.827597,0.09235 -1.170701,0.02481 z m 2.130934,-1.254263 c 0.675736,-0.399516 1.087524,-0.560005 1.801327,-0.70203 0.337337,-0.06712 0.694786,-0.163611 0.79433,-0.214415 0.222931,-0.11378 0.377102,-0.274297 0.305784,-0.318381 -0.03405,-0.02101 -0.02665,-0.06883 0.02218,-0.143343 0.06802,-0.103818 0.263751,-0.898895 0.337923,-1.372694 l 0.03223,-0.205871 h -0.172092 c -0.256665,0 -0.284048,0.09028 -0.246865,0.813879 l 0.03161,0.615108 -0.173887,0.115234 c -0.09563,0.06339 -0.17388,0.153354 -0.17388,0.199941 0,0.04655 -0.02724,0.107188 -0.06055,0.134673 -0.165196,0.136318 -1.008889,0.341555 -1.817399,0.442102 l -0.352087,0.0438 -0.435066,0.397186 c -0.385146,0.351612 -0.496626,0.483579 -0.408509,0.483579 0.0146,0 0.246333,-0.129942 0.514947,-0.288756 z M 2.6621232,23.615325 c 0.048538,-0.470209 0.027957,-0.573356 -0.1143902,-0.573356 -0.092703,0 -0.0984,0.02964 -0.0984,0.512169 0,0.46159 0.00837,0.510597 0.08477,0.496176 0.06877,-0.01297 0.092935,-0.09509 0.1280202,-0.434989 z M 16.545401,22.202048 c 0,-0.168894 0.0325,-0.646297 0.07221,-1.060899 0.09543,-0.996061 0.06832,-3.206859 -0.04488,-3.661253 -0.08937,-0.35874 -0.281421,-0.783935 -0.404329,-0.895157 -0.0827,-0.07483 -0.08454,-0.0587 -0.0423,0.36785 0.06187,0.624584 -0.02965,2.538312 -0.138174,2.889373 -0.06375,0.206221 -0.07418,0.353571 -0.04799,0.678164 0.03806,0.471758 0.03701,1.35545 -0.0018,1.587497 -0.02326,0.138725 -0.0062,0.168558 0.157416,0.275682 0.100919,0.06608 0.24344,0.121406 0.316706,0.12297 0.131611,0.003 0.13321,-7.45e-4 0.13321,-0.304227 z m -13.8074365,0.131796 0.150745,-0.126842 0.00574,-0.684527 c 0.00313,-0.376492 0.00365,-0.967904 0.00104,-1.314256 -0.00261,-0.346345 -0.00714,-1.257576 -0.010244,-2.024959 l -0.0055,-1.395251 0.1712045,-0.663458 c 0.3629257,-1.406426 0.6075258,-1.985018 1.1791849,-2.789311 0.3637678,-0.511797 0.3834907,-0.530433 0.669735,-0.632903 0.1951825,-0.06988 0.4152939,-0.206883 0.6508198,-0.405141 0.1957409,-0.164765 0.3736452,-0.299572 0.3953428,-0.299572 0.0217,0 0.03945,-0.01706 0.03945,-0.03799 0,-0.02086 -0.1798328,-0.04238 -0.3996307,-0.04775 l -0.3996267,-0.0098 -0.2300917,-0.246267 c -0.169115,-0.180998 -0.2300895,-0.28495 -0.2300895,-0.392238 0,-0.08029 -0.020313,-0.138718 -0.045134,-0.129831 -0.09588,0.03427 -1.5632832,1.652511 -1.7168795,1.893325 -0.5063857,0.793946 -0.5109154,0.823564 -0.5129044,3.354345 -0.00216,2.724747 0.052636,6.079233 0.099279,6.079233 0.020261,0 0.1046776,-0.05706 0.187588,-0.126842 z M 16.75721,16.272466 c -0.01773,-0.0733 -0.04944,-0.180014 -0.07049,-0.237224 -0.02103,-0.05721 -0.02604,-0.116213 -0.01108,-0.13114 0.04025,-0.04021 -0.172393,-0.380783 -0.290988,-0.466037 -0.239256,-0.171984 -0.759571,-0.316184 -0.759571,-0.210504 0,0.159775 0.135357,0.350986 0.316469,0.447072 0.220582,0.117018 0.446142,0.319021 0.640518,0.573608 0.146949,0.192478 0.218286,0.20234 0.175184,0.0242 z"
   id="path192" /></svg>
