<?xml version="1.0" encoding="UTF-8" standalone="no"?>
<!-- Generator: Adobe Illustrator 16.0.0, SVG Export Plug-In . SVG Version: 6.00 Build 0)  -->

<svg
   version="1.1"
   x="0px"
   y="0px"
   width="25.458px"
   height="32px"
   viewBox="0 0 25.458 32"
   enable-background="new 0 0 25.458 32"
   xml:space="preserve"
   id="svg657"
   sodipodi:docname="molotov.svg"
   inkscape:version="1.2.1 (9c6d41e410, 2022-07-14)"
   xmlns:inkscape="http://www.inkscape.org/namespaces/inkscape"
   xmlns:sodipodi="http://sodipodi.sourceforge.net/DTD/sodipodi-0.dtd"
   xmlns="http://www.w3.org/2000/svg"
   xmlns:svg="http://www.w3.org/2000/svg"><defs
   id="defs661" /><sodipodi:namedview
   id="namedview659"
   pagecolor="#ffffff"
   bordercolor="#000000"
   borderopacity="0.25"
   inkscape:showpageshadow="2"
   inkscape:pageopacity="0.0"
   inkscape:pagecheckerboard="0"
   inkscape:deskcolor="#d1d1d1"
   showgrid="false"
   inkscape:zoom="6.5390625"
   inkscape:cx="-2.1409797"
   inkscape:cy="24.009558"
   inkscape:window-width="1920"
   inkscape:window-height="1017"
   inkscape:window-x="-8"
   inkscape:window-y="-8"
   inkscape:window-maximized="1"
   inkscape:current-layer="svg657" />

<g
   id="guides">
</g>
<path
   style="fill:#ffffff;stroke-width:0.0420678"
   d="M 10.481463,31.154558 C 9.2645317,31.031939 8.620225,30.776666 8.4842503,30.363266 8.4285789,30.194014 8.3083238,16.147176 8.3597928,15.826213 c 0.051261,-0.31989 0.2634862,-0.94316 0.5074417,-1.49057 0.1127241,-0.252951 0.2049605,-0.502166 0.2049605,-0.55381 0,-0.05168 0.055422,-0.242224 0.1231594,-0.42351 0.1780568,-0.476552 0.3027309,-1.320934 0.6356357,-4.3050369 l 0.2933279,-2.629237 -0.09487,-0.073563 C 9.9772751,6.3099602 9.9113516,6.2576008 9.8829501,6.2340258 9.8545735,6.2104757 9.8007328,6.0826728 9.763344,5.9500601 9.6400681,5.5127526 9.4599141,5.1714013 9.2876907,5.0487912 L 9.1285904,4.9355261 9.0828216,4.2074377 C 9.0369697,3.4783507 9.0643473,2.7835236 9.147147,2.5748849 9.2039007,2.4319285 9.5556201,2.0508583 9.788924,1.8795918 9.9553307,1.757431 10.506294,1.4511219 10.965222,1.2256154 c 0.602199,-0.29589876 1.1739,-0.36021626 1.833968,-0.2063087 0.415662,0.096922 0.567474,0.1942423 0.974673,0.6248427 0.227737,0.2408098 0.278932,0.3258564 0.376802,0.6258327 0.10585,0.3244835 0.109519,0.3601914 0.05617,0.5468861 -0.06998,0.2449873 -0.05933,0.6190508 0.02239,0.7886113 0.03346,0.069485 0.232164,0.3061094 0.441519,0.5259156 0.359276,0.3772172 0.400208,0.4397706 0.729453,1.1147923 0.191854,0.3933362 0.421388,0.9044644 0.510079,1.1358377 0.08869,0.2313732 0.183865,0.4490742 0.211509,0.4837751 0.09148,0.1148461 0.56318,0.95714 0.651863,1.1639812 0.04793,0.1117755 0.11562,0.3260563 0.150445,0.4761942 0.03486,0.1501297 0.0769,0.2826426 0.09351,0.2944758 0.114239,0.081385 0.358086,0.7017507 0.397056,1.0100982 0.0042,0.0347 0.01972,0.07257 0.03403,0.08414 0.05159,0.04169 0.239861,0.4468034 0.283757,0.6106894 0.03387,0.126512 0.03012,0.250004 -0.01531,0.504104 -0.07789,0.435477 -0.07789,0.72208 -8e-6,1.129022 0.08465,0.442409 0.08247,0.995444 -0.005,1.196577 l -0.06782,0.156404 -0.04086,-0.115687 c -0.02247,-0.06366 -0.06307,-0.115686 -0.0902,-0.115686 -0.02713,0 -0.09167,-0.08991 -0.143422,-0.199818 -0.05174,-0.109903 -0.179314,-0.290839 -0.283492,-0.402082 -0.104187,-0.111243 -0.202081,-0.25266 -0.217534,-0.314256 -0.02988,-0.118908 -0.152677,-0.348184 -0.268771,-0.501675 l -0.07015,-0.09271 -0.116627,0.121737 c -0.06682,0.06973 -0.106391,0.14844 -0.09263,0.184281 0.01323,0.03437 -0.0033,0.08517 -0.03662,0.112832 -0.03328,0.02763 -0.06058,0.08703 -0.06058,0.131921 0,0.059 -0.02447,0.07797 -0.08821,0.06848 -0.145186,-0.02164 -0.276509,0.39411 -0.309754,0.98074 -0.03844,0.678018 -0.03495,0.667773 -0.229018,0.667773 -0.125922,0 -0.177791,-0.02313 -0.229792,-0.102493 -0.03694,-0.05634 -0.119573,-0.127461 -0.183633,-0.157968 -0.10119,-0.04818 -0.124058,-0.09543 -0.174395,-0.36025 -0.03188,-0.167621 -0.07206,-0.304777 -0.08939,-0.304777 -0.04103,0 -0.08405,0.219082 -0.08405,0.427613 0,0.09058 -0.03703,0.237315 -0.0823,0.326072 l -0.0823,0.161372 0.182384,0.415381 c 0.100317,0.228461 0.245062,0.595217 0.32167,0.815024 0.173846,0.498786 0.205694,0.995867 0.183283,2.860609 -0.0085,0.705688 0.0033,2.475696 0.02713,3.933346 0.104811,6.532791 0.114739,8.11067 0.05201,8.266334 -0.167256,0.414922 -0.538915,0.57622 -1.8007,0.781479 -0.306508,0.04985 -0.768905,0.07165 -1.703751,0.08047 -0.705687,0.0067 -1.35879,0.0042 -1.451342,-0.005 z m 3.933345,-18.383522 v -0.531108 l -0.133653,0.02672 c -0.07348,0.01473 -0.143022,0.03611 -0.154465,0.04751 -0.059,0.059 0.175577,0.987938 0.249431,0.987938 0.02147,0 0.0387,-0.236025 0.0387,-0.531108 z m -0.408881,-1.808904 c 0.02854,-0.478823 -0.0183,-0.819684 -0.132662,-0.9650874 -0.04552,-0.05783 -0.09239,-0.08966 -0.104137,-0.07065 -0.01174,0.01905 0.01448,0.2894164 0.05834,0.6008774 0.04386,0.311459 0.08038,0.627812 0.08113,0.703015 7.57e-4,0.07522 0.01756,0.136716 0.03728,0.136716 0.01972,0 0.04676,-0.182202 0.06008,-0.404887 z"
   id="path711" /></svg>
