<?xml version="1.0" encoding="UTF-8" standalone="no"?>
<svg
   xmlns:dc="http://purl.org/dc/elements/1.1/"
   xmlns:cc="http://creativecommons.org/ns#"
   xmlns:rdf="http://www.w3.org/1999/02/22-rdf-syntax-ns#"
   xmlns:svg="http://www.w3.org/2000/svg"
   xmlns="http://www.w3.org/2000/svg"
   xmlns:sodipodi="http://sodipodi.sourceforge.net/DTD/sodipodi-0.dtd"
   xmlns:inkscape="http://www.inkscape.org/namespaces/inkscape"
   version="1.1"
   x="0px"
   y="0px"
   width="96.583px"
   height="32px"
   viewBox="0 0 96.583 32"
   enable-background="new 0 0 96.583 32"
   xml:space="preserve"
   id="svg77"
   sodipodi:docname="finn.svg"
   inkscape:version="1.0.2-2 (e86c870879, 2021-01-15)"><metadata
   id="metadata83"><rdf:RDF><cc:Work
       rdf:about=""><dc:format>image/svg+xml</dc:format><dc:type
         rdf:resource="http://purl.org/dc/dcmitype/StillImage" /></cc:Work></rdf:RDF></metadata><defs
   id="defs81" /><sodipodi:namedview
   pagecolor="#ffffff"
   bordercolor="#666666"
   borderopacity="1"
   objecttolerance="10"
   gridtolerance="10"
   guidetolerance="10"
   inkscape:pageopacity="0"
   inkscape:pageshadow="2"
   inkscape:window-width="1842"
   inkscape:window-height="1051"
   id="namedview79"
   showgrid="false"
   inkscape:zoom="12.579854"
   inkscape:cx="49.78769"
   inkscape:cy="15.641809"
   inkscape:window-x="-9"
   inkscape:window-y="-9"
   inkscape:window-maximized="1"
   inkscape:current-layer="svg77" />

<g
   id="guides">
</g>
<path
   style="fill:#ffffff;stroke-width:0.0794922"
   d="m 32.855856,28.360558 c -0.08744,-0.03758 -0.264852,-0.07083 -0.394247,-0.07391 -0.21433,-0.0051 -0.652951,-0.111654 -2.326685,-0.565276 -0.316053,-0.08566 -0.636794,-0.155741 -0.712759,-0.155741 -0.07596,0 -0.452318,-0.0977 -0.836343,-0.217106 -0.744756,-0.231572 -0.842308,-0.343292 -0.539243,-0.617562 0.08744,-0.07913 0.158984,-0.189011 0.158984,-0.244172 0,-0.05516 0.03043,-0.112217 0.06761,-0.126791 0.03719,-0.01457 0.17133,-0.184232 0.298096,-0.377019 0.447846,-0.681086 0.987198,-1.453314 1.059906,-1.517545 0.02475,-0.02186 0.08076,-0.09757 0.124485,-0.168239 0.04372,-0.07067 0.276235,-0.406621 0.516699,-0.746554 0.507096,-0.716856 0.594767,-0.844435 0.905855,-1.318181 0.126593,-0.192787 0.278622,-0.379128 0.337841,-0.414091 0.05922,-0.03496 0.107671,-0.09685 0.107671,-0.137536 0,-0.05955 0.662844,-1.051003 0.929711,-1.390617 0.559459,-0.711962 0.657884,-0.967466 0.734198,-1.905934 l 0.05171,-0.635937 -0.266624,-0.252582 c -0.394418,-0.373646 -0.862348,-0.502129 -1.840747,-0.505425 -0.805899,-0.0027 -1.334677,-0.08724 -2.138524,-0.341848 -0.204156,-0.06466 -0.693135,-0.211269 -1.086621,-0.325793 -0.393487,-0.114523 -0.939031,-0.282037 -1.212321,-0.372253 -1.040204,-0.343381 -1.426526,-0.407302 -2.762288,-0.457047 -1.323455,-0.04929 -1.351892,-0.05402 -1.376769,-0.229183 -0.02142,-0.150836 -0.07435,-0.178857 -0.337842,-0.178857 -0.206451,0 -0.366372,0.05393 -0.471424,0.158984 -0.155697,0.155697 -0.264974,0.158985 -5.284561,0.158985 -5.04802,0 -5.133721,0.0026 -5.663818,0.173189 -0.296033,0.09525 -0.675017,0.279203 -0.842187,0.408774 -0.2828071,0.2192 -0.832818,0.894109 -0.9509253,1.166865 -0.028398,0.06558 -0.1596386,0.298095 -0.2916465,0.516699 -0.1320079,0.218603 -0.2834445,0.486889 -0.3365254,0.596191 -0.053081,0.109302 -0.1682913,0.304125 -0.2560237,0.432941 -0.087732,0.128815 -0.2172274,0.343444 -0.2877682,0.476953 -0.1560242,0.2953 -0.5284543,0.95142 -0.72437,1.276141 -0.079135,0.131162 -0.2334935,0.405859 -0.3430199,0.610439 -0.1095264,0.204579 -0.2355906,0.394491 -0.2801426,0.422025 -0.044552,0.02754 -0.081004,0.116514 -0.081004,0.197732 0,0.08122 -0.026829,0.159592 -0.059619,0.174166 -0.032791,0.01457 -0.1132764,0.109142 -0.1788575,0.210153 l -0.1192382,0.183656 -2.3450194,-0.005 -2.3450193,-0.005 -0.1788574,-0.202997 C 1.0285418,21.753604 1.0153621,20.89903 1.2577096,20.747682 c 0.2035356,-0.12711 0.2035356,-0.379318 0,-0.553592 -0.1857463,-0.159035 -0.2044571,-0.259772 -0.048251,-0.259772 0.2536689,0 0.2763915,-0.498992 0.030563,-0.671176 L 1.0633543,19.139465 1.2400261,19.01572 c 0.2207521,-0.154621 0.2247661,-0.352921 0.012107,-0.598119 L 1.087569,18.227857 1.2521334,18.094601 C 1.4674247,17.920268 1.461334,17.67049 1.2378406,17.508456 L 1.0589832,17.378782 1.2378406,17.255775 c 0.2189245,-0.150562 0.2337242,-0.465463 0.027917,-0.593992 -0.1473527,-0.09202 -0.1469973,-0.0996 0.014949,-0.318642 L 1.4465964,16.118762 1.2766944,15.888957 C 1.108481,15.661437 1.1083325,15.657759 1.2617452,15.518922 1.4667936,15.333356 1.4577704,15.124157 1.2378406,14.964706 L 1.0589832,14.835033 1.2378406,14.712026 c 0.2266039,-0.155844 0.2266039,-0.320766 0,-0.561978 -0.1680742,-0.178909 -0.1704704,-0.19652 -0.039746,-0.292109 0.1752352,-0.128138 0.1780303,-0.346641 0.00685,-0.535789 -0.1138694,-0.125825 -0.1175784,-0.173571 -0.026677,-0.343422 0.087949,-0.164334 0.087691,-0.233899 -0.00155,-0.416562 -0.05892,-0.120606 -0.097649,-0.384249 -0.086066,-0.585873 0.016555,-0.288168 -0.00868,-0.378003 -0.11796539,-0.41994 -0.105962,-0.04066 -0.1169595,-0.07542 -0.046241,-0.146134 0.15194139,-0.151934 0.11166669,-0.522246 -0.0672031,-0.617974 -0.1269102,-0.06792 -0.143348,-0.116731 -0.0794921,-0.236047 0.1290068,-0.241052 0.093795,-0.460516 -0.095117,-0.5928352 -0.1373411,-0.096198 -0.1546675,-0.143961 -0.0794922,-0.219137 0.1357838,-0.135784 0.119451,-0.457831 -0.0260507,-0.513665 C 0.4130664,9.1668508 0.2147888,8.7649218 0.206557,8.4753968 0.202446,8.3308098 0.2674455,8.1704938 0.3730461,8.0647648 c 0.15428201,-0.15447 0.27372471,-0.176383 1.0918441,-0.200316 1.0160238,-0.02972 1.3031749,0.01157 1.3031749,0.187371 0,0.08653 0.094786,0.117724 0.3577148,0.117724 0.1967431,0 0.3577148,0.03577 0.3577148,0.07949 0,0.103501 0.3732399,0.103501 0.437207,0 0.082397,-0.133321 2.4711203,-0.09785 2.9809568,0.04427 0.5178051,0.144337 1.0670935,0.237943 2.3052735,0.392851 0.6974339,0.08726 2.016634,0.115372 5.564452,0.118596 4.458385,0.0041 4.664594,0.01071 4.996815,0.161464 0.273604,0.124151 0.519347,0.157238 1.167819,0.157238 0.461783,0 0.842801,0.0348 0.870424,0.07949 0.120423,0.194849 0.178333,0.0311 0.220797,-0.624337 0.02508,-0.387107 0.100092,-0.83425 0.166694,-0.993653 0.114168,-0.27324 0.141794,-0.289822 0.482867,-0.289822 h 0.361771 v -0.397461 -0.397461 h 0.476953 c 0.531412,0 0.582985,-0.07304 0.357226,-0.505912 -0.160694,-0.308115 -0.160367,-0.924947 4.89e-4,-0.924947 0.09876,0 0.119238,-0.1501519 0.119238,-0.874414 0,-0.8333455 0.0078,-0.874414 0.165768,-0.874414 0.17746,0 0.180078,0.1357042 0.02738,1.4194757 -0.03808,0.3201065 -0.016,0.5026563 0.08891,0.7353023 0.07676,0.170214 0.169895,0.30948 0.206975,0.30948 0.03708,0 0.06742,0.1252 0.06742,0.278222 v 0.278223 h 0.703218 c 0.386769,0 1.029245,0.02314 1.427725,0.05143 l 0.724508,0.05143 0.02301,0.604383 0.02301,0.604384 0.25835,0.02491 c 0.230759,0.02225 0.25835,0.0031 0.25835,-0.178857 0,-0.173413 0.03552,-0.203767 0.238476,-0.203767 0.20138,0 0.238477,0.03091 0.238477,0.198731 0,0.174125 0.03445,0.19873 0.278222,0.19873 0.243777,0 0.278223,-0.0246 0.278223,-0.19873 0,-0.167817 0.0371,-0.198731 0.238476,-0.198731 0.20138,0 0.238477,0.03091 0.238477,0.198731 0,0.178857 0.0318,0.19873 0.317969,0.19873 0.286172,0 0.317968,-0.01987 0.317968,-0.19873 0,-0.158985 0.03975,-0.198731 0.198731,-0.198731 0.158984,0 0.19873,0.03975 0.19873,0.198731 0,0.178857 0.0318,0.19873 0.317969,0.19873 0.286172,0 0.317969,-0.01987 0.317969,-0.19873 0,-0.167817 0.0371,-0.198731 0.238476,-0.198731 0.20138,0 0.238477,0.03091 0.238477,0.198731 0,0.174125 0.03445,0.19873 0.278222,0.19873 0.243777,0 0.278223,-0.0246 0.278223,-0.19873 0,-0.167817 0.0371,-0.198731 0.238477,-0.198731 0.20138,0 0.238476,0.03091 0.238476,0.198731 0,0.174125 0.03445,0.19873 0.278223,0.19873 0.24561,0 0.278222,-0.02388 0.278222,-0.203767 0,-0.182006 0.02759,-0.201107 0.25835,-0.178857 0.200153,0.0193 0.264207,0.06623 0.284352,0.208346 0.02182,0.153965 0.06652,0.179508 0.278222,0.158984 0.193948,-0.0188 0.258231,-0.06686 0.278237,-0.207997 0.03639,-0.256762 0.438895,-0.219217 0.476339,0.04443 0.02071,0.145786 0.07582,0.178857 0.298095,0.178857 0.237879,0 0.272694,-0.02537 0.272694,-0.19873 0,-0.167817 0.0371,-0.198731 0.238477,-0.198731 0.20138,0 0.238476,0.03091 0.238476,0.198731 0,0.174125 0.03445,0.19873 0.278223,0.19873 0.243776,0 0.278223,-0.0246 0.278223,-0.19873 0,-0.174126 0.03445,-0.198731 0.278222,-0.198731 0.243777,0 0.278223,0.02461 0.278223,0.198731 0,0.167816 0.0371,0.19873 0.238477,0.19873 0.201379,0 0.238476,-0.03091 0.238476,-0.19873 0,-0.174126 0.03445,-0.198731 0.278223,-0.198731 0.243776,0 0.278222,0.02461 0.278222,0.198731 0,0.167816 0.0371,0.19873 0.238477,0.19873 0.20138,0 0.238476,-0.03091 0.238476,-0.19873 0,-0.174126 0.03445,-0.198731 0.278223,-0.198731 0.243776,0 0.278223,0.02461 0.278223,0.198731 0,0.174125 0.03445,0.19873 0.278222,0.19873 0.243777,0 0.278223,-0.0246 0.278223,-0.19873 0,-0.167817 0.0371,-0.198731 0.238477,-0.198731 0.201379,0 0.238476,0.03091 0.238476,0.198731 0,0.174125 0.03445,0.19873 0.278223,0.19873 0.24015,0 0.278222,-0.02593 0.278222,-0.18947 0,-0.176136 0.03776,-0.192878 0.536573,-0.237895 0.295114,-0.02663 2.772289,-0.07039 5.504833,-0.09723 l 4.968261,-0.0488 0.254776,-0.242131 0.254775,-0.242131 3.069526,0.05738 c 2.884456,0.05392 3.07878,0.06663 3.223007,0.21086 0.09318,0.09318 0.153482,0.262796 0.153482,0.431704 v 0.278223 h -0.516699 -0.516699 v 0.304829 c 0,0.238289 0.05191,0.351077 0.237788,0.516699 0.287387,0.256063 0.557134,0.281669 0.557134,0.05289 0,-0.14889 0.05299,-0.158985 0.834668,-0.158985 0.620479,0 0.834668,-0.02583 0.834668,-0.100663 0,-0.05537 0.171213,-0.287879 0.380473,-0.516699 l 0.380474,-0.416036 h 0.49394 c 0.473875,0 0.493941,0.0081 0.493941,0.198731 0,0.174125 0.03445,0.19873 0.278222,0.19873 0.243776,0 0.278223,-0.0246 0.278223,-0.19873 0,-0.167817 0.0371,-0.198731 0.238476,-0.198731 0.20138,0 0.238477,0.03091 0.238477,0.198731 0,0.174125 0.03445,0.19873 0.278223,0.19873 0.243776,0 0.278222,-0.0246 0.278222,-0.19873 0,-0.167817 0.0371,-0.198731 0.238477,-0.198731 0.20138,0 0.238476,0.03091 0.238476,0.198731 0,0.174125 0.03445,0.19873 0.278223,0.19873 0.243776,0 0.278223,-0.0246 0.278223,-0.19873 0,-0.167817 0.0371,-0.198731 0.238476,-0.198731 0.158984,0 0.238477,0.03975 0.238477,0.119238 0,0.08612 0.08832,0.119239 0.317968,0.119239 0.229644,0 0.317969,-0.03312 0.317969,-0.119239 0,-0.07949 0.07949,-0.119238 0.238477,-0.119238 0.20138,0 0.238476,0.03091 0.238476,0.198731 0,0.174125 0.03445,0.19873 0.278223,0.19873 0.243776,0 0.278222,-0.0246 0.278222,-0.19873 0,-0.167817 0.0371,-0.198731 0.238477,-0.198731 0.20138,0 0.238476,0.03091 0.238476,0.198731 0,0.174125 0.03445,0.19873 0.278223,0.19873 0.243776,0 0.278223,-0.0246 0.278223,-0.19873 0,-0.167817 0.0371,-0.198731 0.238476,-0.198731 0.20138,0 0.238477,0.03091 0.238477,0.198731 0,0.174125 0.03445,0.19873 0.278222,0.19873 0.243777,0 0.278223,-0.0246 0.278223,-0.19873 0,-0.167817 0.0371,-0.198731 0.238477,-0.198731 0.20138,0 0.238476,0.03091 0.238476,0.198731 0,0.178857 0.0318,0.19873 0.317969,0.19873 0.288367,0 0.317969,-0.01899 0.317969,-0.20401 0,-0.17566 0.03038,-0.200516 0.218603,-0.178858 0.156521,0.01801 0.225818,0.07595 0.244005,0.204011 0.02071,0.145786 0.07582,0.178857 0.298096,0.178857 0.239676,0 0.272694,-0.02467 0.272694,-0.203767 0,-0.182006 0.02759,-0.201107 0.25835,-0.178857 0.198011,0.01909 0.264282,0.06668 0.283751,0.203767 0.01974,0.139013 0.0773,0.178857 0.25835,0.178857 0.197018,0 0.232947,-0.03143 0.232947,-0.203767 0,-0.182006 0.02759,-0.201107 0.25835,-0.178857 0.198011,0.01909 0.264282,0.06668 0.283751,0.203767 0.01974,0.139013 0.0773,0.178857 0.25835,0.178857 0.195483,0 0.232948,-0.03196 0.232948,-0.19873 0,-0.174126 0.03445,-0.198731 0.278222,-0.198731 0.243777,0 0.278223,0.02461 0.278223,0.198731 0,0.174125 0.03445,0.19873 0.278223,0.19873 0.243776,0 0.278222,-0.0246 0.278222,-0.19873 0,-0.167817 0.0371,-0.198731 0.238477,-0.198731 0.20138,0 0.238476,0.03091 0.238476,0.198731 0,0.174125 0.03445,0.19873 0.278223,0.19873 0.243776,0 0.278223,-0.0246 0.278223,-0.19873 0,-0.166769 0.03746,-0.198731 0.232947,-0.198731 0.181054,0 0.238607,0.03984 0.25835,0.178858 0.01947,0.137084 0.08574,0.184675 0.283751,0.203766 0.23076,0.02225 0.25835,0.0031 0.25835,-0.178857 0,-0.179882 0.03261,-0.203767 0.278223,-0.203767 0.243776,0 0.278222,0.02461 0.278222,0.198731 0,0.167816 0.0371,0.19873 0.238477,0.19873 0.20138,0 0.238476,-0.03091 0.238476,-0.19873 0,-0.174126 0.03445,-0.198731 0.278223,-0.198731 0.243776,0 0.278223,0.02461 0.278223,0.198731 0,0.174125 0.03445,0.19873 0.278222,0.19873 0.243777,0 0.278223,-0.0246 0.278223,-0.19873 0,-0.167817 0.0371,-0.198731 0.238476,-0.198731 0.20138,0 0.238477,0.03091 0.238477,0.198731 0,0.173358 0.03481,0.19873 0.272694,0.19873 0.222272,0 0.27739,-0.03307 0.298096,-0.178857 0.01819,-0.128063 0.08748,-0.186001 0.244005,-0.204011 0.188221,-0.02166 0.218603,0.0032 0.218603,0.178858 0,0.173683 0.03545,0.20401 0.238477,0.20401 h 0.238476 v -0.596191 -0.596192 h 0.437207 c 0.486318,0 0.558147,-0.109928 0.306554,-0.469132 -0.10927,-0.156002 -0.122577,-0.318305 -0.08129,-0.9914667 0.07429,-1.2112069 0.154573,-1.3634441 0.516056,-0.9786622 0.197418,0.2101456 0.235662,0.610941 0.05829,0.610941 -0.176735,0 -0.24129,0.1712186 -0.09534,0.2528938 0.09348,0.052315 0.130399,0.1843821 0.130399,0.4664861 0,0.216431 0.03577,0.393511 0.07949,0.393511 0.04372,0 0.07949,0.107314 0.07949,0.238476 v 0.238477 h 0.993652 c 0.609443,0 0.993652,0.03074 0.993652,0.07949 0,0.04484 0.225225,0.07949 0.516699,0.07949 h 0.5167 v 0.427474 c 0,0.271416 0.04103,0.461524 0.112386,0.520746 0.06181,0.0513 0.187235,0.24348 0.278723,0.427067 0.09149,0.183587 0.271895,0.512652 0.400911,0.731256 0.129016,0.218603 0.312166,0.544107 0.406992,0.723341 l 0.172411,0.325881 2.911313,0.0449 c 1.731547,0.0267 2.922045,0.01544 2.937801,-0.02778 0.04696,-0.128801 0.569696,-0.08608 0.569696,0.04655 0,0.06624 0.07066,0.119239 0.158985,0.119239 0.08832,0 0.158984,-0.053 0.158984,-0.119239 0,-0.06624 0.07066,-0.119238 0.158984,-0.119238 0.08832,0 0.158985,0.05299 0.158985,0.119238 0,0.155614 0.309002,0.155614 0.368716,0 0.03844,-0.100177 0.286236,-0.119238 1.550098,-0.119238 1.131746,0 1.513038,0.02461 1.539461,0.09936 0.01932,0.05465 0.0092,0.5465092 -0.02237,1.0930182 l -0.05749,0.993652 -1.448943,0.02166 c -1.380509,0.02064 -1.453682,0.01407 -1.549343,-0.139111 -0.116877,-0.187145 -0.380131,-0.215908 -0.380131,-0.04153 0,0.163171 -0.23645,0.150431 -0.368828,-0.01987 -0.102974,-0.132487 -0.113276,-0.132487 -0.216251,0 -0.118976,0.153064 -0.607304,0.194319 -0.607304,0.05131 0,-0.06338 -0.635818,-0.0718 -2.2854,-0.03027 -1.25697,0.03164 -2.299924,0.07078 -2.317682,0.08696 -0.01775,0.01619 0.07181,0.199725 0.19904,0.407861 0.127228,0.208137 0.301912,0.512574 0.3882,0.676526 0.08628,0.163953 0.182324,0.298096 0.213421,0.298096 0.0311,0 0.08069,0.160972 0.110192,0.357715 0.03497,0.233182 0.09342,0.357715 0.167911,0.357715 0.236625,0 0.344631,0.509896 0.344631,1.627036 v 1.075698 h -0.476953 c -0.423956,0 -0.476953,-0.01766 -0.476953,-0.158984 0,-0.132488 -0.053,-0.158985 -0.317969,-0.158985 -0.264971,0 -0.317969,0.0265 -0.317969,0.158985 0,0.123654 -0.053,0.158984 -0.238476,0.158984 -0.185479,0 -0.238477,-0.03533 -0.238477,-0.158984 0,-0.128702 -0.053,-0.158985 -0.278223,-0.158985 -0.225225,0 -0.278222,0.03028 -0.278222,0.158985 0,0.123654 -0.053,0.158984 -0.238477,0.158984 -0.185479,0 -0.238476,-0.03533 -0.238476,-0.158984 0,-0.128702 -0.053,-0.158985 -0.278223,-0.158985 -0.225225,0 -0.278223,0.03028 -0.278223,0.158985 0,0.123654 -0.053,0.158984 -0.238476,0.158984 -0.185479,0 -0.238477,-0.03533 -0.238477,-0.158984 0,-0.132488 -0.053,-0.158985 -0.317968,-0.158985 -0.264972,0 -0.317969,0.0265 -0.317969,0.158985 0,0.116588 -0.053,0.158984 -0.198731,0.158984 -0.145733,0 -0.19873,-0.0424 -0.19873,-0.158984 0,-0.132488 -0.053,-0.158985 -0.317969,-0.158985 -0.264971,0 -0.317968,0.0265 -0.317968,0.158985 0,0.123654 -0.053,0.158984 -0.238477,0.158984 -0.185479,0 -0.238477,-0.03533 -0.238477,-0.158984 0,-0.128702 -0.053,-0.158985 -0.278222,-0.158985 -0.225225,0 -0.278223,0.03028 -0.278223,0.158985 0,0.123654 -0.053,0.158984 -0.238476,0.158984 -0.185479,0 -0.238477,-0.03533 -0.238477,-0.158984 0,-0.128702 -0.053,-0.158985 -0.278223,-0.158985 -0.225225,0 -0.278222,0.03028 -0.278222,0.158985 0,0.123654 -0.053,0.158984 -0.238477,0.158984 -0.185479,0 -0.238476,-0.03533 -0.238476,-0.158984 0,-0.132488 -0.053,-0.158985 -0.317969,-0.158985 -0.264971,0 -0.317969,0.0265 -0.317969,0.158985 0,0.116588 -0.053,0.158984 -0.19873,0.158984 -0.145736,0 -0.198731,-0.0424 -0.198731,-0.158984 0,-0.132488 -0.05299,-0.158985 -0.317968,-0.158985 -0.264974,0 -0.317969,0.0265 -0.317969,0.158985 0,0.123654 -0.05299,0.158984 -0.238477,0.158984 -0.185481,0 -0.238476,-0.03533 -0.238476,-0.158984 0,-0.127659 -0.053,-0.158985 -0.268952,-0.158985 -0.202097,0 -0.279285,0.03952 -0.310526,0.158985 -0.05698,0.217884 -0.419975,0.217884 -0.476953,0 -0.05846,-0.223549 -0.502207,-0.223549 -0.573159,0 -0.06803,0.214339 -0.404189,0.214339 -0.46024,0 -0.0306,-0.117034 -0.108428,-0.158985 -0.294936,-0.158985 -0.186507,0 -0.26433,0.04195 -0.294935,0.158985 -0.05605,0.214339 -0.392212,0.214339 -0.46024,0 -0.03919,-0.12348 -0.120274,-0.158985 -0.363072,-0.158985 -0.259617,0 -0.312612,0.02695 -0.312612,0.158985 0,0.116588 -0.05299,0.158984 -0.19873,0.158984 -0.145736,0 -0.198731,-0.0424 -0.198731,-0.158984 0,-0.132488 -0.05299,-0.158985 -0.317968,-0.158985 -0.264974,0 -0.317969,0.0265 -0.317969,0.158985 0,0.123654 -0.053,0.158984 -0.238477,0.158984 -0.185481,0 -0.238476,-0.03533 -0.238476,-0.158984 0,-0.128702 -0.05299,-0.158985 -0.278223,-0.158985 -0.225227,0 -0.278223,0.03028 -0.278223,0.158985 0,0.123654 -0.05299,0.158984 -0.238476,0.158984 -0.185482,0 -0.238477,-0.03533 -0.238477,-0.158984 0,-0.128702 -0.053,-0.158985 -0.278222,-0.158985 -0.225228,0 -0.278223,0.03028 -0.278223,0.158985 0,0.123654 -0.05299,0.158984 -0.238476,0.158984 -0.185482,0 -0.238477,-0.03533 -0.238477,-0.158984 0,-0.129491 -0.05299,-0.158985 -0.285665,-0.158985 -0.218811,0 -0.295394,0.03721 -0.32724,0.158985 -0.0269,0.102884 -0.108429,0.158984 -0.231034,0.158984 -0.136464,0 -0.189459,-0.04447 -0.189459,-0.158984 0,-0.132488 -0.05299,-0.158985 -0.317969,-0.158985 -0.264974,0 -0.317969,0.0265 -0.317969,0.158985 0,0.123654 -0.05299,0.158984 -0.238476,0.158984 -0.185482,0 -0.238477,-0.03533 -0.238477,-0.158984 0,-0.128702 -0.053,-0.158985 -0.278223,-0.158985 -0.225227,0 -0.278222,0.03028 -0.278222,0.158985 0,0.123654 -0.05299,0.158984 -0.238477,0.158984 -0.185481,0 -0.238476,-0.03533 -0.238476,-0.158984 0,-0.128702 -0.05299,-0.158985 -0.278223,-0.158985 -0.225227,0 -0.278223,0.03028 -0.278223,0.158985 0,0.123654 -0.053,0.158984 -0.238476,0.158984 -0.185482,0 -0.238477,-0.03533 -0.238477,-0.158984 0,-0.128702 -0.05299,-0.158985 -0.278222,-0.158985 -0.225228,0 -0.278223,0.03028 -0.278223,0.158985 0,0.123654 -0.05299,0.158984 -0.238476,0.158984 -0.158985,0 -0.238477,-0.03975 -0.238477,-0.119238 0,-0.08612 -0.08833,-0.119239 -0.317969,-0.119239 -0.229644,0 -0.317968,0.03312 -0.317968,0.119239 0,0.07949 -0.07949,0.119238 -0.238477,0.119238 -0.185481,0 -0.238476,-0.03533 -0.238476,-0.158984 0,-0.128702 -0.053,-0.158985 -0.278223,-0.158985 -0.225228,0 -0.278223,0.03028 -0.278223,0.158985 0,0.123654 -0.053,0.158984 -0.238476,0.158984 -0.185482,0 -0.238477,-0.03533 -0.238477,-0.158984 0,-0.128702 -0.05299,-0.158985 -0.278222,-0.158985 -0.225228,0 -0.278223,0.03028 -0.278223,0.158985 0,0.123654 -0.05299,0.158984 -0.238477,0.158984 -0.185481,0 -0.238476,-0.03533 -0.238476,-0.158984 0,-0.128702 -0.05299,-0.158985 -0.278223,-0.158985 -0.225227,0 -0.278222,0.03028 -0.278222,0.158985 0,0.133543 -0.053,0.158984 -0.331174,0.158984 -0.182145,0 -0.387831,-0.05261 -0.45708,-0.116908 -0.429565,-0.398866 -0.693689,-0.674624 -0.771916,-0.805916 -0.06301,-0.105743 -0.157299,-0.141673 -0.317969,-0.121158 -0.125622,0.01604 -1.014964,0.04424 -1.976313,0.06268 -0.963253,0.01847 -1.782222,0.06782 -1.824346,0.109949 -0.101465,0.101465 -1.452331,0.09874 -1.515245,-0.0031 -0.07621,-0.123305 -1.343798,-0.09372 -1.975931,0.04612 -0.3123,0.06909 -0.772916,0.221115 -1.023591,0.337842 l -0.455772,0.212228 -0.0013,4.233786 -0.0013,4.233785 -3.517529,-0.0207 -3.517529,-0.0207 -0.02059,-4.113721 c -0.0127,-2.538178 -0.04959,-4.11372 -0.0963,-4.11372 -0.112802,0 -0.217497,0.476963 -0.357699,1.629589 -0.06913,0.56837 -0.160166,1.317234 -0.202293,1.664142 -0.09373,0.771878 -0.332228,1.179867 -0.818854,1.400802 -0.302827,0.137488 -0.54674,0.151154 -2.726128,0.152744 -1.316448,9.62e-4 -2.552897,0.02359 -2.747662,0.05028 -0.350152,0.04799 -0.357426,0.05534 -0.64918,0.65581 -0.162283,0.334001 -0.368598,0.722964 -0.458478,0.864363 -0.140166,0.220508 -0.150745,0.295487 -0.07435,0.52696 0.04899,0.148429 0.159262,0.333398 0.245058,0.411042 0.174167,0.157619 0.182443,0.190206 0.08667,0.341265 -0.05328,0.08404 -0.13429,0.08735 -0.398303,0.01625 -0.276087,-0.07434 -0.351932,-0.06873 -0.454277,0.03362 -0.06757,0.06757 -0.15064,0.122857 -0.184598,0.122857 -0.03396,0 -0.126264,0.143086 -0.205125,0.317968 -0.07886,0.174883 -0.170223,0.317969 -0.203027,0.317969 -0.0328,0 -0.09844,0.09837 -0.145869,0.218604 -0.04742,0.120232 -0.185067,0.386231 -0.305872,0.59111 -0.555937,0.942835 -0.749025,1.312819 -0.790628,1.514956 -0.04701,0.228444 0.102734,0.696033 0.222911,0.696033 0.03842,0 0.06985,0.06743 0.06985,0.149842 0,0.30988 -0.585333,0.502572 -0.993652,0.327111 z m 9.420593,-7.680578 c 0.41797,-0.167239 0.602185,-0.560864 0.727751,-1.555031 0.110003,-0.870945 0.07998,-1.033107 -0.278052,-1.502013 -0.300572,-0.393647 -0.699116,-0.550268 -1.400236,-0.550268 -0.367224,0 -0.392572,0.01328 -0.416193,0.218016 -0.01731,0.150055 -0.09872,0.253126 -0.261151,0.330643 -0.46382,0.221354 -0.757654,0.74846 -0.757654,1.359154 0,0.380796 0.166122,0.899805 0.318061,0.993709 0.0451,0.02787 0.0596,0.08691 0.03223,0.131193 -0.07789,0.126032 -0.500924,-0.327917 -0.677433,-0.726945 -0.241771,-0.546562 -0.266938,-0.931049 -0.09369,-1.431356 0.200838,-0.579986 0.112918,-0.874414 -0.261109,-0.874414 -0.340187,0 -0.659977,0.176235 -0.796184,0.438774 -0.139168,0.268247 -0.143578,1.929683 -0.0062,2.352001 0.120263,0.369817 0.427272,0.722442 0.729194,0.837536 0.139477,0.05317 0.774056,0.09442 1.528616,0.09937 1.018969,0.0067 1.35781,-0.01862 1.612095,-0.120365 z M 86.78301,15.012677 c 0.06103,-0.03864 0.08897,-0.12752 0.06211,-0.197513 -0.03663,-0.09546 -0.158698,-0.127261 -0.488535,-0.127261 -0.437501,0 -0.483472,0.03191 -0.391452,0.271721 0.05353,0.139507 0.622997,0.176447 0.817872,0.05305 z m 0.688672,-1.127302 c 0.05195,-0.08405 -0.649491,-0.866808 -0.776758,-0.866808 -0.03444,0 -0.06261,0.214629 -0.06261,0.476953 v 0.476953 h 0.392771 c 0.21602,0 0.416992,-0.03919 0.446595,-0.0871 z M 61.393549,11.6672 c 0,-0.145688 -0.04783,-0.205523 -0.179213,-0.224179 -0.107496,-0.01526 -0.19838,0.0245 -0.227108,0.09937 -0.07915,0.206256 0.03179,0.376729 0.227108,0.348993 0.131379,-0.01866 0.179213,-0.07849 0.179213,-0.224179 z m 0,-1.11289 c 0,-0.145688 -0.04783,-0.205523 -0.179213,-0.224179 -0.107496,-0.01527 -0.19838,0.0245 -0.227108,0.09936 -0.07915,0.206256 0.03179,0.376728 0.227108,0.348992 0.131379,-0.01866 0.179213,-0.07849 0.179213,-0.224178 z m 34.254627,0.190225 c 0.224065,-0.08598 0.133929,-0.170946 -0.24098,-0.227167 -0.494306,-0.07413 -1.14363,0.01878 -1.14363,0.163639 0,0.08663 0.141599,0.111779 0.629435,0.111779 0.346188,0 0.686017,-0.02171 0.755175,-0.04825 z M 4.7286735,10.588712 c 0.066254,-0.172654 -0.1019436,-0.335021 -0.2223357,-0.214628 -0.1017526,0.101752 -0.038717,0.33921 0.090047,0.33921 0.046465,0 0.1059948,-0.05606 0.1322887,-0.124582 z M 64.851459,8.9247198 V 8.7259888 H 63.81806 62.784662 v 0.198731 0.19873 h 1.033398 1.033399 z m 1.00773,0.07147 c 0.04942,-0.128796 -0.0903,-0.266751 -0.272428,-0.268982 -0.05465,-6.7e-4 -0.09936,0.08821 -0.09936,0.197513 0,0.146759 0.04223,0.19873 0.161479,0.19873 0.08881,0 0.183455,-0.05727 0.210314,-0.127261 z m 4.556722,0.04504 c 0.103207,-0.06906 0.09849,-0.09561 -0.03507,-0.197513 -0.225755,-0.172241 -3.475904,-0.174011 -3.618685,-0.002 -0.05284,0.06367 -0.07299,0.153094 -0.04479,0.19873 0.06813,0.110236 3.533863,0.110943 3.698538,7.55e-4 z m 4.526454,-0.03147 c 0.189893,-0.228807 -0.174628,-0.283767 -1.882087,-0.283767 -1.66951,0 -1.891782,0.03565 -1.794982,0.28791 0.06317,0.164615 3.540263,0.160698 3.677069,-0.0041 z m 4.531054,0 c 0.189889,-0.228807 -0.174628,-0.283767 -1.882087,-0.283767 -1.66951,0 -1.891782,0.03565 -1.794982,0.28791 0.06317,0.164615 3.540263,0.160698 3.677069,-0.0041 z m 5.643943,0 c 0.189502,-0.228332 -0.17462,-0.283767 -1.863917,-0.283767 -1.279696,0 -1.664343,0.02385 -1.748939,0.10845 -0.244542,0.24454 0.03171,0.289011 1.795307,0.289011 1.397409,0 1.74103,-0.02149 1.817549,-0.113694 z M 25.109316,8.9226778 c 0.184301,-0.0953 0.234529,-0.174831 0.234529,-0.371328 0,-0.455681 -0.318501,-0.645797 -0.751436,-0.448538 -0.165363,0.07534 -0.202471,0.147723 -0.202471,0.394922 0,0.248441 0.03917,0.323919 0.218604,0.421264 0.271291,0.147178 0.223952,0.14683 0.500774,0.0037 z m 1.883991,-0.05717 c 0.140048,-0.112044 0.12364,-0.580844 -0.02555,-0.730035 -0.401245,-0.401245 -1.083295,0.239479 -0.729624,0.685414 0.179731,0.226619 0.503759,0.245765 0.755175,0.04462 z m 1.593863,-0.0033 c 0.05986,-0.04796 0.09333,-0.202594 0.07949,-0.367294 -0.01824,-0.217174 -0.07387,-0.308295 -0.23516,-0.385214 -0.420432,-0.2005 -0.773308,0.109354 -0.656149,0.576153 0.08326,0.331719 0.503864,0.423089 0.811817,0.176355 z m 1.689137,0.0605 c 0.25996,-0.13443 0.318305,-0.449193 0.130799,-0.705624 -0.147203,-0.201311 -0.674694,-0.206838 -0.819658,-0.0086 -0.199703,0.27311 -0.132232,0.57013 0.168213,0.740502 0.208835,0.118423 0.24426,0.116634 0.520646,-0.02629 z m 1.649451,-0.06043 c 0.06233,-0.04994 0.09386,-0.209496 0.07949,-0.402314 -0.02053,-0.275573 -0.05494,-0.327817 -0.249989,-0.379613 -0.454666,-0.120736 -0.764476,0.171079 -0.653033,0.615103 0.08015,0.31935 0.52155,0.408765 0.82353,0.166824 z m 1.643693,0.08859 c 0.398837,-0.181722 0.33776,-0.80083 -0.08702,-0.88203 -0.121589,-0.02324 -0.300307,-0.01214 -0.397151,0.02468 -0.338542,0.128714 -0.34683,0.691575 -0.01255,0.852676 0.236325,0.113893 0.256584,0.114084 0.49672,0.0047 z m 1.589843,0 c 0.398837,-0.181722 0.33776,-0.80083 -0.08701,-0.88203 -0.12159,-0.02324 -0.300307,-0.01214 -0.397151,0.02468 -0.338543,0.128714 -0.34683,0.691575 -0.01255,0.852676 0.236324,0.113893 0.256584,0.114084 0.496719,0.0047 z m 1.748828,0 c 0.240377,-0.109523 0.319769,-0.348526 0.210895,-0.634886 -0.0879,-0.231183 -0.408198,-0.331525 -0.701863,-0.219874 -0.152356,0.05793 -0.182881,0.127537 -0.182881,0.417066 0,0.281853 0.0338,0.363837 0.178858,0.433794 0.234405,0.11305 0.255076,0.113212 0.494991,0.0039 z m 1.589844,0 c 0.242553,-0.110514 0.334525,-0.399789 0.212358,-0.667917 -0.08436,-0.185156 -0.238218,-0.236766 -0.607984,-0.203948 -0.394905,0.03505 -0.496137,0.646337 -0.139112,0.840026 0.26922,0.146054 0.282349,0.146835 0.534738,0.03184 z m 1.71432,0.01181 c 0.254177,-0.136031 0.34147,-0.37725 0.232086,-0.641327 -0.09368,-0.22616 -0.214674,-0.273527 -0.593204,-0.232226 -0.215886,0.02355 -0.283826,0.148332 -0.259224,0.476087 0.01527,0.203382 0.07324,0.302816 0.219478,0.376416 0.241317,0.121455 0.215764,0.120113 0.400864,0.02105 z m 4.368666,-0.514877 c 0,-0.398847 -0.02634,-0.516699 -0.115493,-0.516699 -0.09175,0 -0.106713,0.08578 -0.07278,0.417334 0.08131,0.794432 0.18827,0.850882 0.18827,0.09937 z m 6.120898,0.317968 c 0,-0.124805 -0.138182,-0.152735 -0.351213,-0.07099 -0.207613,0.07967 -0.142091,0.190226 0.112737,0.190226 0.158984,0 0.238476,-0.03975 0.238476,-0.119239 z m 5.447272,-0.45708 c 0.121378,-0.26131 0.206448,-0.343539 0.375531,-0.362994 0.154433,-0.01777 0.218603,-0.07027 0.218603,-0.178858 0,-0.1384 -0.05988,-0.153704 -0.601417,-0.153704 -0.821553,0 -0.908934,0.05758 -0.908934,0.598988 v 0.43441 h 0.379645 c 0.36903,0 0.384033,-0.0094 0.536572,-0.337842 z m -7.832037,-0.343573 c 0,-0.117411 -0.429298,-0.207988 -0.683448,-0.144201 -0.356288,0.08942 -0.208865,0.229251 0.246319,0.23363 0.284817,0.0027 0.437129,-0.02842 0.437129,-0.08943 z"
   id="path335" /></svg>
