<?xml version="1.0" encoding="UTF-8" standalone="no"?>
<svg
   version="1.1"
   x="0px"
   y="0px"
   width="96.583px"
   height="32px"
   viewBox="0 0 96.583 32"
   enable-background="new 0 0 96.583 32"
   xml:space="preserve"
   id="svg137"
   sodipodi:docname="renetti_akimbo.svg"
   inkscape:version="1.2.1 (9c6d41e410, 2022-07-14)"
   xmlns:inkscape="http://www.inkscape.org/namespaces/inkscape"
   xmlns:sodipodi="http://sodipodi.sourceforge.net/DTD/sodipodi-0.dtd"
   xmlns="http://www.w3.org/2000/svg"
   xmlns:svg="http://www.w3.org/2000/svg"
   xmlns:rdf="http://www.w3.org/1999/02/22-rdf-syntax-ns#"
   xmlns:cc="http://creativecommons.org/ns#"
   xmlns:dc="http://purl.org/dc/elements/1.1/"><metadata
   id="metadata143"><rdf:RDF><cc:Work
       rdf:about=""><dc:format>image/svg+xml</dc:format><dc:type
         rdf:resource="http://purl.org/dc/dcmitype/StillImage" /></cc:Work></rdf:RDF></metadata><defs
   id="defs141" /><sodipodi:namedview
   pagecolor="#ffffff"
   bordercolor="#666666"
   borderopacity="1"
   objecttolerance="10"
   gridtolerance="10"
   guidetolerance="10"
   inkscape:pageopacity="0"
   inkscape:pageshadow="2"
   inkscape:window-width="1920"
   inkscape:window-height="1017"
   id="namedview139"
   showgrid="false"
   inkscape:zoom="8.8953001"
   inkscape:cx="49.351905"
   inkscape:cy="9.3307701"
   inkscape:window-x="-8"
   inkscape:window-y="-8"
   inkscape:window-maximized="1"
   inkscape:current-layer="svg137"
   inkscape:showpageshadow="2"
   inkscape:pagecheckerboard="0"
   inkscape:deskcolor="#d1d1d1" />

<g
   id="guides">
</g>
<path
   style="fill:#ffffff;stroke-width:0.0394415"
   d="m 44.17105,30.621152 c -0.451074,5.65e-4 -0.541915,-0.0092 -0.561662,-0.06072 -0.01297,-0.03376 0.0029,-0.242315 0.0345,-0.463435 0.03191,-0.221121 0.06927,-0.466741 0.08299,-0.545822 0.02391,-0.137839 0.01945,-0.145089 -0.107718,-0.175328 -0.07297,-0.01736 -0.310163,-0.0327 -0.527095,-0.03405 -0.328557,-0.0022 -0.421845,-0.01714 -0.558708,-0.09001 -0.121577,-0.06474 -0.171298,-0.119365 -0.191215,-0.210053 -0.01776,-0.08081 0.0071,-0.252448 0.0729,-0.503779 0.05491,-0.209665 0.125274,-0.487706 0.156392,-0.617862 0.03112,-0.130155 0.173665,-0.662617 0.316775,-1.183244 0.14311,-0.520629 0.268762,-0.996654 0.279225,-1.057831 0.01049,-0.06118 0.171867,-0.660272 0.358678,-1.331316 0.186811,-0.671045 0.348406,-1.259935 0.359106,-1.30866 0.01071,-0.04871 0.02853,-0.132952 0.03957,-0.187183 0.01105,-0.05423 0.161477,-0.604439 0.33424,-1.222684 0.172757,-0.618245 0.321838,-1.182681 0.331275,-1.254303 0.0095,-0.07162 0.135968,-0.550834 0.281169,-1.064917 0.192646,-0.682066 0.268914,-1.020523 0.282168,-1.252201 0.01393,-0.243552 -0.0022,-0.399171 -0.06969,-0.66821 -0.04831,-0.192892 -0.134125,-0.422739 -0.190662,-0.510772 -0.05654,-0.08803 -0.181495,-0.262239 -0.277674,-0.387124 -0.107099,-0.139051 -0.274377,-0.289896 -0.431569,-0.389176 -0.141177,-0.08916 -0.382501,-0.207794 -0.536283,-0.263626 -0.252222,-0.09157 -0.342448,-0.102319 -0.921333,-0.109698 -0.514394,-0.0065 -0.661016,-0.0208 -0.738975,-0.07189 -0.0535,-0.03506 -0.126339,-0.108119 -0.161894,-0.162379 -0.03557,-0.05423 -0.06464,-0.142671 -0.06464,-0.196474 0,-0.05378 0.06729,-0.195515 0.149532,-0.314931 0.08224,-0.119412 0.177645,-0.219531 0.211999,-0.222485 0.03439,-0.0029 0.130275,-0.01117 0.213144,-0.01821 0.08287,-0.0071 0.256336,-0.04419 0.385483,-0.08254 0.170682,-0.05068 0.215708,-0.07725 0.164859,-0.09736 -0.03845,-0.01522 -0.238686,-0.02892 -0.444907,-0.03044 -0.206226,-0.0017 -0.435295,-0.02007 -0.509038,-0.04121 -0.07373,-0.02114 -0.193429,-0.103248 -0.265965,-0.182442 -0.07254,-0.07919 -0.131892,-0.175086 -0.131892,-0.213087 0,-0.038 -0.02661,-0.09119 -0.05916,-0.118193 -0.03253,-0.027 -0.05916,-0.09026 -0.05916,-0.140551 0,-0.05029 0.01477,-0.100587 0.03286,-0.111755 0.0181,-0.01117 0.02554,-0.0703 0.01657,-0.131402 -0.01133,-0.07709 0.0088,-0.133814 0.06573,-0.185334 0.0451,-0.04082 0.08204,-0.09686 0.08204,-0.124484 0,-0.02763 0.02847,-0.07872 0.06332,-0.113548 0.03484,-0.03484 0.09444,-0.05345 0.132479,-0.04138 0.03805,0.01206 0.09158,-0.0051 0.118994,-0.03811 0.02739,-0.03304 0.08254,-0.06006 0.122523,-0.06006 0.03997,0 0.136378,-0.05592 0.214236,-0.124288 l 0.14156,-0.124293 0.52046,0.03021 c 0.286254,0.01663 0.638184,0.03337 0.782072,0.03721 l 0.261608,0.0071 0.06741,-0.218595 c 0.0371,-0.120228 0.138951,-0.351716 0.226398,-0.514409 0.08745,-0.162695 0.227806,-0.363025 0.311904,-0.445179 0.0841,-0.08216 0.153004,-0.179775 0.1531,-0.216931 0,-0.03715 0.128436,-0.206841 0.285189,-0.377073 0.156752,-0.170231 0.391842,-0.394046 0.522415,-0.497368 0.130578,-0.103322 0.370533,-0.267849 0.533228,-0.365606 0.162695,-0.09776 0.352612,-0.206735 0.422036,-0.2421598 0.06943,-0.0354 0.167509,-0.06441 0.217975,-0.06441 0.08299,0 0.09033,-0.01477 0.07694,-0.155218 -0.0081,-0.08537 0.0061,-0.2229191 0.03151,-0.3056703 0.02548,-0.082756 0.08342,-0.245857 0.128809,-0.3624549 l 0.08252,-0.211999 0.235851,0.024635 c 0.129722,0.01353 0.291644,0.024635 0.359828,0.024635 0.08833,0 0.171872,0.043351 0.29051,0.1507095 0.09159,0.082892 0.158162,0.1590754 0.147931,0.1693072 -0.0102,0.010204 0.277973,0.023789 0.640445,0.03016 0.362471,0.00637 0.676789,0.024748 0.698482,0.040928 0.02171,0.016123 0.252424,0.105323 0.512735,0.1981926 0.260317,0.092871 0.513232,0.2054709 0.562041,0.2502259 0.04881,0.04476 0.08874,0.11378 0.08874,0.153382 0,0.06777 0.06095,0.07228 1.035342,0.07666 0.569437,0.0029 1.277925,5.63e-4 1.574423,-0.004 0.296491,-0.0045 1.063203,0.0045 1.7038,0.02041 1.145057,0.02842 1.164923,0.03033 1.176626,0.112302 0.01184,0.08287 0.01985,0.08341 1.313469,0.08702 0.715867,0.0022 2.996568,0.01821 5.068234,0.03602 2.071667,0.01781 4.281375,0.02774 4.910467,0.0221 l 1.143806,-0.01032 0.106236,-0.11446 0.106248,-0.114468 h 1.007979 1.007978 v -0.09988 c 0,-0.05491 0.0539,-0.239644 0.119784,-0.410473 0.06588,-0.1708295 0.141311,-0.317221 0.167627,-0.3253162 0.02633,-0.00812 0.243078,-0.00507 0.481702,0.0062 l 0.433858,0.020914 0.27609,0.2141694 c 0.151849,0.117793 0.324899,0.2586698 0.384554,0.3130538 0.05965,0.0544 0.108462,0.137445 0.108462,0.184585 0,0.04713 0.05922,0.1484998 0.131599,0.2252468 0.113622,0.12047 0.163479,0.142693 0.364834,0.162611 0.128279,0.01268 0.549306,0.0225 0.935613,0.02182 0.386306,-5.64e-4 0.737142,0.0098 0.779631,0.02328 0.0425,0.01348 0.115126,0.09866 0.16141,0.189275 0.06153,0.120459 0.08935,0.263671 0.103473,0.532607 0.01393,0.264832 -3.94e-4,0.461555 -0.05091,0.70245 -0.03862,0.184033 -0.108435,0.391229 -0.155145,0.460427 l -0.08493,0.125821 -0.629357,0.004 c -0.346145,0.0023 -0.749161,0.01686 -0.895587,0.0327 l -0.266229,0.0288 v 0.531908 c 0,0.292552 -0.01815,0.565852 -0.04037,0.607326 -0.02221,0.04149 -0.05708,0.257729 -0.07753,0.480563 -0.02046,0.22284 -0.04735,0.520521 -0.05977,0.661529 -0.01804,0.204896 -0.04605,0.285595 -0.139401,0.401961 -0.09715,0.121103 -0.116795,0.181541 -0.116795,0.359288 v 0.213695 l -0.44371,0.09997 c -0.429793,0.09684 -0.484543,0.0998 -1.744591,0.09429 l -1.300875,-0.0057 -0.02413,-0.148337 c -0.0133,-0.08159 -0.03461,-0.158799 -0.04735,-0.171579 -0.0128,-0.0128 -0.04217,-0.01155 -0.0653,0.0029 -0.02312,0.01432 -0.04234,0.06488 -0.04268,0.112409 -3.95e-4,0.04753 -0.01534,0.109669 -0.03337,0.138094 -0.02266,0.03574 -0.195774,0.06085 -0.561437,0.08142 -0.29077,0.01635 -0.549373,0.02283 -0.57468,0.01438 -0.02531,-0.0085 -0.05802,-0.102769 -0.07272,-0.209608 -0.02125,-0.154645 -0.04188,-0.194247 -0.101145,-0.194247 -0.04905,0 -0.08266,0.03698 -0.09857,0.108462 -0.0133,0.05965 -0.0319,0.137513 -0.04143,0.173022 -0.01274,0.04753 -0.08195,0.07068 -0.262566,0.08777 -0.134903,0.01274 -0.378386,0.02808 -0.541081,0.03394 l -0.29581,0.01077 -0.03512,-0.206987 c -0.03264,-0.192325 -0.04302,-0.206981 -0.146121,-0.206981 -0.09759,0 -0.11396,0.01787 -0.135573,0.147902 -0.01353,0.08135 -0.03061,0.167661 -0.03794,0.191805 -0.0091,0.03005 -0.346822,0.05107 -1.07171,0.06664 -0.582103,0.01251 -1.519835,0.0181 -2.083849,0.01246 -0.882379,-0.0088 -1.047497,-0.0011 -1.183245,0.05531 -0.08677,0.03608 -0.215799,0.114624 -0.286722,0.174579 -0.07093,0.05994 -0.176806,0.190638 -0.235281,0.29042 -0.102933,0.175637 -0.107212,0.207269 -0.134345,0.991743 -0.01539,0.445674 -0.04803,0.939 -0.07245,1.096289 -0.0398,0.256156 -0.03551,0.317682 0.04093,0.590119 0.07531,0.268356 0.07981,0.328851 0.03833,0.514106 -0.02582,0.115476 -0.08551,0.246213 -0.132586,0.290528 -0.04708,0.04432 -0.147727,0.107713 -0.223651,0.140889 -0.07593,0.0332 -0.217912,0.0841 -0.315529,0.113171 -0.09762,0.02909 -0.266231,0.08154 -0.3747,0.11662 -0.108462,0.03506 -0.28595,0.09616 -0.394412,0.135748 -0.108464,0.03957 -0.401319,0.134716 -0.650784,0.211401 -0.249471,0.07668 -0.613318,0.176698 -0.808552,0.222248 -0.195233,0.04555 -0.425971,0.08956 -0.512741,0.09778 -0.08677,0.0082 -0.397401,0.03737 -0.690285,0.06479 -0.464249,0.04347 -0.608375,0.04127 -1.124087,-0.01685 -0.325355,-0.0367 -0.803647,-0.110909 -1.062864,-0.164938 -0.259218,-0.05401 -0.533109,-0.105904 -0.608644,-0.115268 -0.07554,-0.0094 -0.271666,-0.02819 -0.435848,-0.04177 -0.24318,-0.02018 -0.345628,-0.0094 -0.552688,0.05788 -0.139796,0.04544 -0.33503,0.134609 -0.433858,0.198148 -0.09882,0.06354 -0.25415,0.19185 -0.345176,0.285138 -0.09102,0.09329 -0.218855,0.284992 -0.284062,0.425993 -0.06521,0.141008 -0.18937,0.514326 -0.275904,0.829602 -0.08653,0.315276 -0.16575,0.617005 -0.176039,0.670503 -0.01026,0.0535 -0.128802,0.487751 -0.263361,0.964989 -0.134552,0.477243 -0.278982,0.991957 -0.320935,1.143805 -0.04194,0.151849 -0.0851,0.347088 -0.09586,0.433858 -0.01077,0.08677 -0.03833,0.228691 -0.06123,0.315378 -0.02288,0.08669 -0.0495,0.193181 -0.05914,0.236651 -0.0096,0.04347 -0.02667,0.318641 -0.03788,0.611497 -0.01274,0.332204 -5.64e-4,0.68821 0.03185,0.946594 0.03129,0.247801 0.04104,0.5145 0.02429,0.664032 -0.01534,0.137439 -0.0478,0.273868 -0.07214,0.303171 -0.02706,0.03259 -0.04053,0.188171 -0.03473,0.400891 0.0071,0.256365 -0.007,0.379209 -0.05338,0.467981 -0.03461,0.0662 -0.142096,0.193379 -0.238901,0.282607 -0.0968,0.08923 -0.234165,0.192313 -0.305257,0.229075 -0.07109,0.03676 -0.226595,0.100328 -0.345555,0.141261 -0.118965,0.04093 -0.384125,0.10142 -0.589246,0.134428 -0.205121,0.03297 -0.71279,0.06844 -1.128151,0.07875 -0.415362,0.01032 -1.349784,0.03631 -2.076498,0.05776 -0.726708,0.02148 -1.563435,0.03935 -1.859386,0.03968 z M 56.324672,20.558169 c 0.162695,0.0034 0.48217,-0.0128 0.709948,-0.03636 0.227773,-0.02362 0.62634,-0.08777 0.88571,-0.142603 0.259359,-0.05485 0.588779,-0.137908 0.73203,-0.184613 0.143251,-0.04668 0.364158,-0.146803 0.490897,-0.222451 0.145044,-0.08657 0.319571,-0.244651 0.470935,-0.426569 0.132269,-0.158962 0.263214,-0.342069 0.290984,-0.4069 0.02779,-0.06483 0.07575,-0.214874 0.106625,-0.333422 0.03089,-0.118542 0.0589,-0.352533 0.06229,-0.519968 0.0034,-0.167436 -0.0064,-0.375427 -0.02171,-0.462197 -0.01534,-0.08677 -0.09676,-0.302378 -0.18099,-0.479121 -0.118486,-0.248619 -0.207252,-0.370313 -0.392186,-0.537669 -0.13147,-0.118972 -0.340374,-0.26963 -0.464238,-0.334804 -0.12387,-0.06516 -0.340582,-0.145907 -0.481584,-0.17941 -0.141002,-0.03349 -0.487102,-0.06645 -0.769106,-0.07322 -0.28201,-0.0067 -0.737842,-0.008 -1.012964,-0.0029 -0.480743,0.0092 -0.501252,0.01303 -0.526597,0.09831 -0.01449,0.04882 -0.07391,0.150868 -0.132,0.226793 -0.05808,0.07593 -0.133216,0.182413 -0.16695,0.236645 -0.03371,0.05423 -0.09029,0.215201 -0.12568,0.357708 -0.04087,0.16451 -0.06612,0.445307 -0.06921,0.769112 -0.004,0.404459 0.01268,0.578581 0.0799,0.841378 0.04662,0.182256 0.13059,0.421867 0.186603,0.532461 0.05603,0.1106 0.171162,0.315208 0.255869,0.454694 l 0.154016,0.253607 -0.09966,0.09966 -0.09966,0.09966 -0.123273,-0.116621 c -0.0678,-0.06414 -0.189663,-0.214237 -0.270813,-0.333546 -0.08114,-0.119309 -0.237925,-0.403601 -0.348401,-0.631764 -0.110475,-0.228155 -0.208893,-0.458887 -0.218724,-0.512735 -0.0098,-0.05383 -0.03748,-0.170519 -0.06143,-0.259263 -0.02396,-0.08875 -0.06204,-0.257357 -0.08461,-0.374693 -0.02261,-0.117336 -0.04076,-0.429681 -0.04042,-0.694096 l 5.63e-4,-0.480761 -0.166843,-0.248907 c -0.142468,-0.212551 -0.186112,-0.250761 -0.298781,-0.261552 -0.07256,-0.0069 -0.201248,0.01511 -0.285956,0.04899 -0.0847,0.03389 -0.154007,0.05265 -0.154007,0.04172 0,-0.01093 -0.128437,0.04477 -0.28542,0.123842 -0.187387,0.09436 -0.363504,0.224779 -0.512742,0.379684 -0.125026,0.129766 -0.227316,0.254707 -0.227316,0.277646 0,0.02295 -0.02739,0.072 -0.06093,0.109043 -0.03354,0.03703 -0.106394,0.189297 -0.161951,0.338355 -0.0791,0.212224 -0.101055,0.343756 -0.101219,0.606277 0,0.184387 0.0279,0.439168 0.06226,0.566178 0.03433,0.12701 0.124958,0.342651 0.201322,0.479205 0.08422,0.150608 0.24894,0.350216 0.41871,0.507392 0.153923,0.142512 0.376503,0.30483 0.494623,0.360707 0.118114,0.05587 0.387214,0.143539 0.597984,0.1948 0.210781,0.05125 0.560721,0.121135 0.777653,0.155275 0.216926,0.03416 0.456531,0.06843 0.532461,0.07619 0.07593,0.0077 0.271157,0.01703 0.433852,0.02063 z M 42.360665,14.214174 c 0.01618,0 0.08411,-0.01905 0.150991,-0.04239 0.06689,-0.02334 0.149029,-0.08424 0.182544,-0.135393 0.03349,-0.05113 0.06491,-0.145066 0.06975,-0.208707 0.0051,-0.06364 -0.02463,-0.166889 -0.06557,-0.229441 -0.04093,-0.06255 -0.09828,-0.13771 -0.127478,-0.167018 -0.03411,-0.03422 -0.09144,-0.0438 -0.160389,-0.02678 -0.05902,0.0146 -0.15611,0.07294 -0.215765,0.129688 -0.08635,0.08212 -0.108462,0.138657 -0.108462,0.277173 0,0.143798 0.02125,0.193869 0.122499,0.288431 0.06737,0.06294 0.135714,0.114426 0.151877,0.114426 z m -14.622066,8.577357 c -1.899506,0.02035 -2.143153,0.01612 -2.163718,-0.03743 -0.01274,-0.0332 0.0068,-0.268847 0.04347,-0.523628 0.03665,-0.254787 0.07235,-0.501563 0.07931,-0.548398 0.0088,-0.05896 -0.01348,-0.09353 -0.07222,-0.112398 -0.04668,-0.01499 -0.280109,-0.04031 -0.518734,-0.05621 -0.322446,-0.02153 -0.475653,-0.05051 -0.596619,-0.112714 -0.08951,-0.04605 -0.173823,-0.112556 -0.187347,-0.147795 -0.01353,-0.03524 -0.02458,-0.09851 -0.02458,-0.140596 0,-0.04211 0.131869,-0.542044 0.293035,-1.110996 0.161168,-0.568958 0.701273,-2.472112 1.200237,-4.22923 0.498959,-1.757118 1.037057,-3.647351 1.195771,-4.200519 0.280381,-0.97721 0.288673,-1.018634 0.292123,-1.459335 0.0029,-0.3313708 -0.01454,-0.5069463 -0.0637,-0.6516686 C 27.178647,9.3516643 27.102817,9.1741776 27.047131,9.0661994 26.991431,8.9582268 26.867581,8.7756999 26.77187,8.6605904 26.676159,8.5454866 26.503947,8.3880686 26.389187,8.3107858 26.274422,8.2334975 26.080519,8.1206429 25.958289,8.0600017 25.83606,7.9993549 25.629952,7.9310412 25.50027,7.9081873 25.370588,7.885356 25.039229,7.8705296 24.763922,7.875265 l -0.500565,0.00863 -0.136774,-0.1324444 c -0.08116,-0.078607 -0.147237,-0.1882365 -0.162514,-0.269674 -0.02182,-0.1163666 -0.004,-0.1691436 0.118791,-0.347093 0.109399,-0.1588442 0.174708,-0.2152517 0.26866,-0.2320512 0.06828,-0.012233 0.217061,-0.032358 0.330649,-0.044761 0.113587,-0.012402 0.262566,-0.046114 0.331077,-0.07492 0.118504,-0.049835 0.105594,-0.053668 -0.265684,-0.078551 -0.214631,-0.014431 -0.458854,-0.036361 -0.542721,-0.048819 -0.09723,-0.014431 -0.207996,-0.072762 -0.305675,-0.161009 -0.09081,-0.08204 -0.153184,-0.1742173 -0.153184,-0.2263743 0,-0.048368 -0.03562,-0.1290789 -0.07921,-0.1793135 -0.07115,-0.082035 -0.0734,-0.1002099 -0.0221,-0.1785018 0.0314,-0.047917 0.04701,-0.1257754 0.03467,-0.1729659 -0.01443,-0.055303 0.0058,-0.1166823 0.05701,-0.1726445 0.04369,-0.047749 0.09155,-0.126745 0.106326,-0.1755026 0.01612,-0.053273 0.06914,-0.097786 0.132721,-0.1115298 0.05821,-0.012572 0.150207,-0.041717 0.20444,-0.064785 0.05423,-0.023057 0.158234,-0.070473 0.23112,-0.1053962 0.07289,-0.034896 0.141341,-0.085677 0.152125,-0.1127926 0.01336,-0.033599 0.118238,-0.049327 0.32898,-0.049327 0.170153,0 0.394548,0.016912 0.498659,0.037545 0.104112,0.020633 0.324741,0.04307 0.490288,0.049834 l 0.301002,0.012289 0.0669,-0.2233414 c 0.03681,-0.1228327 0.158849,-0.3715535 0.27123,-0.5527104 0.112381,-0.1811514 0.261862,-0.388928 0.332183,-0.4617234 0.07032,-0.072796 0.127855,-0.1584383 0.127855,-0.1903121 0,-0.031851 0.181924,-0.239966 0.404273,-0.4624279 0.222355,-0.2224564 0.451148,-0.4296749 0.508429,-0.4604719 0.05728,-0.03078 0.234774,-0.1350153 0.394419,-0.2315837 0.159638,-0.096567 0.370126,-0.2162945 0.467743,-0.2660612 0.09762,-0.049782 0.208549,-0.090562 0.246511,-0.090654 0.05338,-1.187e-4 0.06908,-0.033655 0.06924,-0.1480712 1.18e-4,-0.081347 0.01962,-0.2188996 0.04335,-0.3056699 0.02373,-0.086769 0.07905,-0.2420749 0.122962,-0.3451146 l 0.07985,-0.1873466 0.221926,4.345e-4 c 0.122067,2.366e-4 0.287084,0.011221 0.366717,0.024357 0.09044,0.01494 0.204479,0.079608 0.303866,0.1722839 0.0875,0.081587 0.152542,0.1549264 0.144543,0.1629709 -0.008,0.0081 0.163359,0.020694 0.380798,0.028076 0.217439,0.00736 0.522088,0.027736 0.676992,0.045152 0.176303,0.019847 0.466059,0.1014278 0.77467,0.2181549 0.28125,0.1063831 0.522292,0.2225247 0.561168,0.2703915 0.03749,0.046174 0.06854,0.1149744 0.06902,0.1529362 5.64e-4,0.056714 0.03777,0.069215 0.207946,0.070108 0.113887,5.634e-4 1.014638,0.018153 2.001658,0.039012 0.987025,0.020859 2.131817,0.047858 2.543976,0.06 l 0.749393,0.022102 0.01246,0.096676 c 0.0124,0.096032 0.01539,0.09668 0.453577,0.097628 0.242604,5.243e-4 0.787196,0.00851 1.210208,0.017758 0.423012,0.00924 1.603297,0.035798 2.622861,0.059001 1.019564,0.023226 2.464653,0.051526 3.211312,0.062947 0.746659,0.011388 1.369346,0.028018 1.383738,0.036924 0.01443,0.00891 0.796291,0.026833 1.737523,0.039856 0.941233,0.013023 1.718897,0.031231 1.728136,0.040477 0.0092,0.00925 0.08726,-0.046847 0.173356,-0.124631 l 0.156549,-0.14143 0.981388,0.028806 0.981392,0.028807 v -0.084639 c 0,-0.04657 0.04409,-0.2108155 0.09797,-0.3650368 0.0539,-0.1542157 0.118171,-0.3047512 0.142874,-0.3345101 0.0332,-0.039969 0.160609,-0.054118 0.487796,-0.054118 0.422589,0 0.44936,0.00506 0.584217,0.1084681 0.07774,0.05965 0.209051,0.1606991 0.291813,0.2245481 0.08276,0.063848 0.199287,0.1603492 0.258942,0.2144461 0.06985,0.063342 0.108468,0.1383016 0.108468,0.210544 0,0.064537 0.02577,0.1220663 0.06062,0.1354495 0.03331,0.012797 0.08705,0.074357 0.119338,0.1368021 0.05446,0.1053286 0.0753,0.1135479 0.287777,0.1135479 0.125984,0 0.240361,0.011275 0.254166,0.025086 0.01381,0.013812 0.347702,0.031175 0.742003,0.038616 0.394295,0.00744 0.745406,0.022549 0.780257,0.033598 0.03484,0.011049 0.08796,0.05948 0.118001,0.1076006 0.03005,0.048143 0.06551,0.1503769 0.07879,0.2272312 0.0133,0.076854 0.02396,0.3083474 0.02373,0.5144271 -3.95e-4,0.2060854 -0.02508,0.4866236 -0.05519,0.6234201 -0.0301,0.1368021 -0.10091,0.3103148 -0.157339,0.3855906 l -0.102607,0.1368585 -0.854608,0.00885 c -0.470038,0.00507 -0.869384,0.023621 -0.887435,0.04166 -0.01804,0.01804 -0.04369,0.2842758 -0.05693,0.5916253 -0.01325,0.307344 -0.04313,0.620934 -0.06634,0.6968582 -0.02322,0.075925 -0.06142,0.3565807 -0.08485,0.6236793 -0.02345,0.2671044 -0.06937,0.5496608 -0.102071,0.6279018 -0.0327,0.078247 -0.09458,0.1668776 -0.137534,0.1969642 -0.06268,0.043915 -0.0781,0.1001874 -0.0781,0.2851552 v 0.2304533 l -0.30567,0.072982 c -0.268469,0.064097 -0.480896,0.072982 -1.745286,0.072982 h -1.439615 l -0.01105,-0.098603 c -0.0061,-0.054231 -0.01973,-0.1385384 -0.03033,-0.1873467 -0.0106,-0.048819 -0.03647,-0.088744 -0.05741,-0.088744 -0.02097,0 -0.05743,0.076708 -0.08104,0.1704629 -0.03935,0.1562454 -0.05338,0.1704516 -0.168197,0.1703388 -0.06889,-7.89e-5 -0.314374,0.00507 -0.545501,0.01167 -0.231126,0.00648 -0.438649,4.172e-4 -0.461159,-0.013473 -0.02249,-0.013924 -0.05282,-0.104748 -0.06741,-0.201863 -0.02052,-0.1366387 -0.04313,-0.1765681 -0.100131,-0.1765681 -0.04448,0 -0.08115,0.035177 -0.09259,0.088744 -0.01043,0.04882 -0.0243,0.124056 -0.03078,0.1672045 -0.0092,0.061295 -0.05491,0.08496 -0.208606,0.1081643 -0.108209,0.016349 -0.356485,0.024691 -0.551724,0.018547 L 48.574421,8.4328298 48.539301,8.2273531 C 48.506711,8.0366747 48.496171,8.021871 48.393186,8.021871 c -0.09759,0 -0.11396,0.01787 -0.135573,0.1479077 -0.01353,0.081347 -0.03151,0.1700907 -0.03997,0.1972066 -0.0085,0.027116 -0.07365,0.051187 -0.14483,0.053555 -0.07118,0.00226 -0.65301,0.00226 -1.292947,-2.763e-4 -0.639938,-0.00226 -1.5185,-0.011219 -1.952358,-0.019337 -0.699085,-0.013135 -0.811556,-0.00637 -0.988626,0.059565 -0.109889,0.040928 -0.244617,0.1231484 -0.299395,0.182741 -0.0548,0.059593 -0.140184,0.1762299 -0.189793,0.2591951 -0.0798,0.1334649 -0.09659,0.2448254 -0.145681,0.9663181 -0.0305,0.4485098 -0.06863,0.9574568 -0.08469,1.1309988 -0.02312,0.249526 -0.01443,0.369163 0.04127,0.571906 0.03963,0.14422 0.06123,0.316752 0.04933,0.394412 -0.01162,0.07593 -0.03169,0.173541 -0.04459,0.216926 -0.01291,0.04341 -0.05242,0.111835 -0.08782,0.152103 -0.0354,0.04024 -0.135347,0.1099 -0.222117,0.154734 -0.08678,0.04482 -0.273137,0.115346 -0.414139,0.156696 -0.141002,0.04132 -0.353987,0.102274 -0.473297,0.135382 -0.119309,0.03309 -0.234678,0.07417 -0.256371,0.09123 -0.02171,0.01708 -0.145935,0.05954 -0.276089,0.09437 -0.130156,0.03484 -0.334268,0.09158 -0.453579,0.126086 -0.119309,0.0345 -0.279049,0.07709 -0.354973,0.09463 -0.07593,0.01754 -0.271157,0.0591 -0.433858,0.09236 -0.162694,0.03326 -0.447596,0.07945 -0.633111,0.102646 -0.185515,0.02317 -0.60759,0.04217 -0.93794,0.04217 -0.470873,0 -0.713297,-0.02097 -1.12204,-0.09715 -0.286762,-0.05345 -0.690003,-0.134435 -0.896083,-0.180001 -0.206085,-0.04555 -0.475349,-0.09793 -0.598362,-0.116344 -0.123019,-0.01844 -0.336004,-0.01928 -0.473302,-0.0017 -0.137293,0.01736 -0.329499,0.06307 -0.427116,0.101529 -0.09762,0.03845 -0.257357,0.127912 -0.354974,0.198813 -0.09762,0.0709 -0.232846,0.188294 -0.300517,0.260869 -0.06767,0.07258 -0.169628,0.223917 -0.226583,0.336315 -0.05695,0.112392 -0.211892,0.573411 -0.344302,1.02448 -0.132407,0.451068 -0.380073,1.302103 -0.550367,1.891191 -0.170288,0.589089 -0.338135,1.245786 -0.372991,1.459336 -0.03484,0.213549 -0.08213,0.477936 -0.105047,0.587521 -0.02745,0.131362 -0.03084,0.433745 -0.0099,0.887435 0.01747,0.378499 0.03225,0.805862 0.03286,0.949689 5.64e-4,0.15903 -0.01906,0.285871 -0.05046,0.323681 -0.03129,0.03766 -0.05702,0.201535 -0.06534,0.415852 -0.0082,0.210206 -0.03755,0.399729 -0.07245,0.467196 -0.0323,0.06243 -0.137901,0.186518 -0.234706,0.275753 -0.0968,0.08923 -0.227587,0.188908 -0.290635,0.221509 -0.06305,0.03259 -0.220376,0.0967 -0.349624,0.142434 -0.129243,0.04572 -0.323737,0.09325 -0.432201,0.105604 -0.108462,0.01234 -0.212342,0.0318 -0.230844,0.04324 -0.01849,0.01144 -0.311358,0.02649 -0.650784,0.03349 -0.339432,0.007 -1.580392,0.023 -2.75769,0.03562 z m 11.01488,-9.845879 c 0.02171,0.0029 0.154808,-0.01184 0.295815,-0.03225 0.141003,-0.02041 0.360448,-0.04555 0.487661,-0.05587 0.127213,-0.01032 0.322447,-0.04019 0.433859,-0.06639 0.111411,-0.02615 0.300178,-0.07303 0.419488,-0.104127 0.119315,-0.03106 0.27905,-0.07032 0.354973,-0.08718 0.07593,-0.01686 0.23752,-0.07848 0.359095,-0.136909 0.12157,-0.05844 0.322785,-0.196936 0.447135,-0.307772 0.124354,-0.110831 0.273158,-0.274152 0.330677,-0.362934 0.05751,-0.08879 0.14435,-0.256704 0.192955,-0.373155 0.04859,-0.116451 0.109354,-0.36166 0.134987,-0.544914 0.03631,-0.259477 0.03591,-0.391155 -0.0017,-0.59525 -0.02651,-0.144138 -0.1101,-0.3906718 -0.185697,-0.5478468 C 41.919795,9.517059 41.820312,9.3857534 41.626662,9.2083115 41.484425,9.0779754 41.276744,8.919943 41.165142,8.8571201 41.053538,8.794303 40.839899,8.7123299 40.690391,8.6749654 40.478059,8.621918 40.201794,8.6043294 39.428262,8.5946895 l -0.990272,-0.012346 -0.0684,0.145523 c -0.0376,0.080039 -0.100306,0.1802381 -0.139299,0.2226593 -0.03901,0.042393 -0.108791,0.1392488 -0.155091,0.2151785 -0.04628,0.075924 -0.11229,0.2470972 -0.146649,0.3803874 -0.04194,0.1626715 -0.06233,0.4155135 -0.06204,0.7691063 2.76e-4,0.356959 0.01973,0.59034 0.0603,0.723974 0.03293,0.108463 0.06862,0.246815 0.07933,0.307451 0.01071,0.06063 0.05457,0.175734 0.09748,0.255784 0.0429,0.08005 0.07801,0.165818 0.07801,0.1906 0,0.02481 0.02492,0.06573 0.05536,0.09099 0.03044,0.02526 0.103248,0.143837 0.161792,0.263502 0.102014,0.208504 0.103559,0.22076 0.03715,0.294146 -0.03811,0.04211 -0.0902,0.07658 -0.115752,0.07658 -0.02554,0 -0.107099,-0.07507 -0.181236,-0.166826 -0.07413,-0.09175 -0.186073,-0.247052 -0.24876,-0.345114 -0.06269,-0.09806 -0.192161,-0.342161 -0.287721,-0.542457 -0.09556,-0.20029 -0.207799,-0.494171 -0.24942,-0.653072 -0.0416,-0.158901 -0.08715,-0.403247 -0.101161,-0.542986 -0.01404,-0.139745 -0.02627,-0.4562378 -0.02723,-0.7033241 l -0.0017,-0.4492356 -0.161561,-0.2391824 c -0.115127,-0.170446 -0.195561,-0.2480782 -0.279884,-0.2701372 -0.08289,-0.021704 -0.195115,-0.0062 -0.374693,0.051694 -0.141003,0.045437 -0.373166,0.1507602 -0.515927,0.2340242 -0.146561,0.08548 -0.3372,0.2424803 -0.437917,0.360651 -0.0981,0.1150983 -0.209091,0.2689697 -0.246652,0.3419403 -0.03755,0.072961 -0.09398,0.20546 -0.125365,0.294428 -0.0314,0.08896 -0.08101,0.2777488 -0.110266,0.4195118 -0.03653,0.176985 -0.04279,0.325727 -0.01996,0.474677 0.01826,0.119316 0.04916,0.280793 0.06865,0.358848 0.01945,0.07805 0.09537,0.255542 0.168681,0.394419 0.07955,0.150692 0.24712,0.365667 0.415621,0.533205 0.185261,0.18419 0.36847,0.32217 0.532861,0.401307 0.137795,0.06633 0.454643,0.165063 0.704108,0.21939 0.249471,0.05435 0.586692,0.119123 0.749387,0.143978 0.1627,0.02486 0.482176,0.05908 0.709948,0.07606 0.227778,0.01697 0.431885,0.03304 0.453578,0.03568 z M 24.572545,6.3653174 c 0.01618,0 0.08411,-0.019054 0.150991,-0.042393 0.06689,-0.023339 0.146662,-0.080998 0.177284,-0.1281882 0.03061,-0.047185 0.06489,-0.1349136 0.07615,-0.1949459 0.01449,-0.077204 -0.01234,-0.1609132 -0.09165,-0.2859501 -0.06167,-0.097239 -0.137975,-0.1767936 -0.169584,-0.1767936 -0.03163,0 -0.09855,0.016067 -0.14877,0.035628 -0.05022,0.019618 -0.13125,0.07355 -0.180058,0.1198618 -0.06674,0.06333 -0.08875,0.1287914 -0.08875,0.2640546 0,0.1503317 0.02012,0.1986215 0.122499,0.2942764 0.06737,0.062936 0.135715,0.1144274 0.151877,0.1144274 z"
   id="path556" /></svg>
