<?xml version="1.0" encoding="UTF-8" standalone="no"?>
<!-- Created with Inkscape (http://www.inkscape.org/) -->

<svg
   width="23.462072mm"
   height="8.4659948mm"
   viewBox="0 0 23.462073 8.4659947"
   version="1.1"
   id="svg5"
   xmlns="http://www.w3.org/2000/svg"
   xmlns:svg="http://www.w3.org/2000/svg">
  <defs
     id="defs2" />
  <g
     id="layer1"
     transform="translate(-48.896632,-97.835175)">
    <path
       style="fill:#ffffff;stroke-width:0.0166162;fill-opacity:1"
       d="m 57.03021,106.29648 c -0.0877,-0.0216 -1.38227,-0.32223 -1.523163,-0.35371 -0.08835,-0.0198 -0.164221,-0.0452 -0.168605,-0.0567 -0.0044,-0.0114 -0.0042,-0.0405 4.21e-4,-0.0647 0.0067,-0.035 0.02451,-0.0493 0.08772,-0.0703 0.04363,-0.0145 0.09066,-0.0391 0.104513,-0.0547 0.05122,-0.0578 1.496834,-2.29087 1.52967,-2.36297 0.02448,-0.0538 0.03416,-0.10979 0.03442,-0.1994 3.27e-4,-0.111 -0.01274,-0.16377 -0.119541,-0.48284 -0.06595,-0.19702 -0.119911,-0.38606 -0.119911,-0.42009 0,-0.11164 0.0647,-0.21604 0.166504,-0.26869 0.05608,-0.029 0.325833,-0.12444 0.351716,-0.12444 0.0074,0 0.02889,0.0154 0.04771,0.0342 l 0.03421,0.0342 0.846173,-0.30291 0.846174,-0.30291 -0.04612,-0.028 c -0.05516,-0.0335 -0.133692,-0.12394 -0.153935,-0.17718 l -0.01457,-0.0383 h -2.326682 -2.326681 v 0.23314 c 0,0.19845 -0.004,0.23467 -0.0266,0.24336 -0.01463,0.006 -0.03262,5e-4 -0.03997,-0.0114 -0.01586,-0.0257 -0.427352,-0.0246 -0.544706,0.001 -0.204183,0.0453 -0.355075,0.17026 -0.452144,0.37457 -0.05977,0.1258 -0.06561,0.14925 -0.05657,0.22703 0.0085,0.0733 0.0045,0.0938 -0.02604,0.13242 -0.03471,0.0439 -0.04208,0.0457 -0.188619,0.0457 l -0.152494,-3e-5 0.0055,0.12466 c 0.0044,0.10058 7.93e-4,0.12466 -0.01874,0.12466 -0.01331,0 -0.03351,0.0112 -0.04489,0.0249 -0.01358,0.0164 -0.05066,0.0249 -0.108006,0.0249 -0.05735,0 -0.09442,-0.009 -0.108005,-0.0249 -0.01138,-0.0137 -0.03158,-0.0249 -0.04489,-0.0249 -0.01953,0 -0.02315,-0.0241 -0.01874,-0.12466 l 0.0055,-0.12466 -0.199395,1.2e-4 c -0.165446,6e-5 -0.207881,0.005 -0.249243,0.0311 -0.02742,0.017 -0.262951,0.21573 -0.523411,0.44158 -0.556024,0.48214 -0.53934,0.46939 -0.575164,0.43966 -0.02267,-0.0188 -0.02562,-0.0545 -0.01974,-0.23875 0.0084,-0.26246 0.02631,-0.3054 0.191182,-0.45806 0.06212,-0.0575 0.10172,-0.10036 0.08801,-0.0952 -0.227242,0.0855 -0.634481,0.27588 -0.67928,0.31758 -0.06502,0.0605 -0.209978,0.27599 -0.317692,0.4722 -0.04113,0.0749 -0.07978,0.13633 -0.0859,0.13647 -0.01054,2.5e-4 -0.03709,-0.10574 -0.08004,-0.31959 -0.02142,-0.10667 -0.03533,-0.11349 -0.133147,-0.0653 -0.06808,0.0335 -0.0687,0.004 0.008,0.38437 0.03563,0.17688 0.0503,0.28594 0.04155,0.30896 -0.0074,0.0196 -0.05645,0.0966 -0.108918,0.1711 -0.08584,0.12195 -0.100767,0.13553 -0.149048,0.13553 h -0.05366 l -0.06006,-0.31259 c -0.174334,-0.9074 -0.658231,-3.60864 -0.658231,-3.674416 0,-0.02829 0.08955,-0.02013 0.170118,0.01551 0.07329,0.03242 0.121218,0.0331 2.639937,0.03738 l 2.56529,0.004 0.0051,0.0706 0.0051,0.0706 h 2.007829 c 1.769408,0 2.008965,-0.003 2.017393,-0.0249 0.008,-0.0209 0.05902,-0.0249 0.316709,-0.0249 h 0.307143 l 0.03204,-0.0724 c 0.0461,-0.104207 0.181085,-0.193629 0.291861,-0.193335 0.06853,1.83e-4 0.16129,0.0357 0.213986,0.08194 0.0767,0.06729 0.09502,0.03969 0.09534,-0.143643 1.32e-4,-0.08035 0.0066,-0.156038 0.01427,-0.168194 0.008,-0.01255 0.03477,-0.01973 0.06206,-0.01662 0.03881,0.0044 0.04964,0.0151 0.05635,0.05551 0.0075,0.04514 0.01398,0.04978 0.06647,0.04752 0.195594,-0.0084 2.344465,-0.0049 2.411145,0.004 0.06845,0.0091 0.08129,0.0065 0.08129,-0.01628 0,-0.02036 -0.01597,-0.02706 -0.06443,-0.02706 -0.037,0 -0.07324,-0.01061 -0.08512,-0.02493 -0.01409,-0.01698 -0.05181,-0.02492 -0.118348,-0.02492 h -0.09766 v -0.09849 c 0,-0.132457 0.04033,-0.167368 0.193327,-0.167368 0.105158,0 0.105765,-2.7e-4 0.105765,-0.04727 0,-0.08052 -0.05131,-0.109657 -0.205242,-0.116558 -0.07446,-0.0033 -0.1398,-0.01308 -0.145189,-0.02164 -0.0054,-0.0086 -0.09886,-0.01707 -0.207703,-0.0189 l -0.197904,-0.0033 V 98.613907 98.07388 l 0.182778,-0.0026 c 0.100528,-0.0014 0.192125,-0.0033 0.203549,-0.0042 0.01142,-8.57e-4 0.02077,-0.01945 0.02077,-0.04132 0,-0.02187 0.01183,-0.0443 0.02628,-0.04985 0.01446,-0.0055 0.155585,-0.01009 0.313619,-0.01009 0.212935,0 0.305628,0.0065 0.357979,0.02492 0.05168,0.01823 0.143122,0.02492 0.34068,0.02492 h 0.270038 l -0.008,-0.07127 c -0.01228,-0.108907 -4.39e-4,-0.113098 0.305122,-0.107783 l 0.263637,0.0046 v 0.08522 0.08522 l 0.03963,-0.03122 c 0.03354,-0.02643 0.06885,-0.03122 0.230007,-0.03122 0.165218,0 0.195962,0.0044 0.232626,0.03323 0.05386,0.04237 0.121368,0.04237 0.175231,0 0.03254,-0.0256 0.06741,-0.03323 0.151786,-0.03323 0.06025,0 0.109539,0.0071 0.109539,0.01589 0,0.0087 0.05421,0.01808 0.120467,0.02077 l 0.120468,0.0049 0.0044,0.6148 c 0.005,0.703356 0.01568,0.65634 -0.148802,0.65634 h -0.09652 v 0.130853 c 0,0.07197 -0.0047,0.154219 -0.01038,0.182778 -0.01017,0.05085 -0.01235,0.05193 -0.10483,0.05193 -0.05732,0 -0.107123,0.0096 -0.126698,0.0244 -0.01774,0.01342 -0.06029,0.02463 -0.09457,0.02492 -0.03427,2.89e-4 -0.06231,0.008 -0.06231,0.01714 0,0.01051 0.118491,0.01662 0.322238,0.01662 0.271106,0 0.323756,-0.004 0.331803,-0.02492 0.0078,-0.02023 0.04697,-0.02493 0.208293,-0.02493 0.154494,0 0.204278,-0.0055 0.223654,-0.02492 0.01847,-0.01847 0.06374,-0.02492 0.174831,-0.02492 0.124571,0 0.152614,-0.0048 0.165922,-0.02862 0.0233,-0.04164 0.26179,-0.04185 0.292203,-2.58e-4 0.02894,0.03958 0.04237,0.01888 0.04237,-0.06528 0,-0.0396 0.0075,-0.072 0.01662,-0.072 0.0091,0 0.01685,0.03178 0.01714,0.07062 6.66e-4,0.08868 0.03018,0.128776 0.09481,0.128776 0.02757,0 0.05836,0.0099 0.06842,0.02203 0.01223,0.01473 0.01916,0.180854 0.02092,0.501484 0.0026,0.47119 0.002,0.47995 -0.03286,0.5082 -0.02239,0.0181 -0.0355,0.0477 -0.0355,0.0801 v 0.0513 h 0.124622 0.124622 v -0.2175 c 0,-0.20524 0.0021,-0.21926 0.03739,-0.2487 0.05806,-0.0484 0.09554,-0.0415 0.09554,0.0176 0,0.0493 9.29e-4,0.0499 0.09139,0.0499 0.09047,0 0.09139,-5e-4 0.09139,-0.0499 0,-0.0471 0.0037,-0.0498 0.06646,-0.0498 0.06277,0 0.06646,0.003 0.06646,0.0498 0,0.0493 9.3e-4,0.0499 0.09139,0.0499 0.09047,0 0.09139,-5e-4 0.09139,-0.0499 0,-0.048 0.0028,-0.0498 0.07477,-0.0498 0.072,0 0.07477,0.002 0.07477,0.0498 0,0.0493 9.3e-4,0.0499 0.09139,0.0499 0.09046,0 0.09139,-5e-4 0.09139,-0.0499 0,-0.048 0.0028,-0.0498 0.07477,-0.0498 0.072,0 0.07477,0.002 0.07477,0.0498 0,0.0487 0.0018,0.0499 0.08308,0.0499 0.08123,0 0.08308,-0.001 0.08308,-0.0499 0,-0.048 0.0028,-0.0498 0.07477,-0.0498 0.072,0 0.07477,0.002 0.07477,0.0498 0,0.0493 9.29e-4,0.0499 0.09139,0.0499 0.09046,0 0.09139,-5e-4 0.09139,-0.0499 0,-0.048 0.0028,-0.0498 0.07477,-0.0498 0.072,0 0.07477,0.002 0.07477,0.0498 0,0.0493 9.3e-4,0.0499 0.09139,0.0499 0.09047,0 0.09139,-5e-4 0.09139,-0.0499 0,-0.0471 0.0037,-0.0498 0.06646,-0.0498 0.06277,0 0.06646,0.003 0.06646,0.0498 0,0.0493 9.29e-4,0.0499 0.09139,0.0499 0.09047,0 0.09139,-5e-4 0.09139,-0.0499 0,-0.048 0.0028,-0.0498 0.07477,-0.0498 0.072,0 0.07477,0.002 0.07477,0.0498 0,0.0493 9.29e-4,0.0499 0.09139,0.0499 0.09046,0 0.09139,-5e-4 0.09139,-0.0499 0,-0.048 0.0028,-0.0498 0.07477,-0.0498 0.072,0 0.07477,0.002 0.07477,0.0498 0,0.0493 9.29e-4,0.0499 0.09139,0.0499 0.09046,0 0.09139,-5e-4 0.09139,-0.0499 0,-0.0471 0.0037,-0.0498 0.06646,-0.0498 0.06277,0 0.06647,0.003 0.06647,0.0498 0,0.0493 9.29e-4,0.0499 0.09139,0.0499 0.09047,0 0.09139,-5e-4 0.09139,-0.0499 0,-0.048 0.0028,-0.0498 0.07477,-0.0498 0.072,0 0.07477,0.002 0.07477,0.0498 0,0.0493 9.3e-4,0.0499 0.09139,0.0499 0.09046,0 0.09139,-5e-4 0.09139,-0.0499 0,-0.048 0.0028,-0.0498 0.07477,-0.0498 0.072,0 0.07477,0.002 0.07477,0.0498 0,0.0487 0.0018,0.0499 0.08308,0.0499 0.08124,0 0.08308,-0.001 0.08308,-0.0499 0,-0.048 0.0028,-0.0498 0.07477,-0.0498 0.072,0 0.07477,0.002 0.07477,0.0498 0,0.0493 9.29e-4,0.0499 0.09139,0.0499 0.09047,0 0.09139,-5e-4 0.09139,-0.0499 0,-0.0622 0.04417,-0.0674 0.0968,-0.0114 0.03359,0.0357 0.03613,0.055 0.03613,0.27417 v 0.23571 h 0.595608 c 0.574505,0 0.596675,-0.001 0.625683,-0.0332 0.02572,-0.0284 0.05118,-0.0332 0.175687,-0.0332 0.08009,0 0.157438,0.005 0.171894,0.0101 0.02349,0.009 0.02628,0.10051 0.02628,0.86226 0,0.76175 -0.0028,0.85325 -0.02628,0.86227 -0.01446,0.006 -0.09051,0.0101 -0.169006,0.0101 -0.106608,0 -0.150048,-0.007 -0.171663,-0.0262 -0.02477,-0.0224 -0.115185,-0.0276 -0.628569,-0.0358 l -0.599634,-0.01 v 0.24063 c 0,0.23005 -0.0017,0.24223 -0.03846,0.27676 -0.05623,0.0528 -0.09447,0.0473 -0.09447,-0.0137 0,-0.0493 -9.3e-4,-0.0498 -0.09139,-0.0498 -0.09046,0 -0.09139,5e-4 -0.09139,0.0498 v 0.0498 h -0.13293 -0.13293 v 0.0838 c 0,0.0886 -0.0091,0.10271 -0.129537,0.20234 -0.03009,0.0249 -0.0712,0.081 -0.09136,0.12462 -0.03283,0.0711 -0.03665,0.10639 -0.03665,0.33853 0,0.18532 0.006,0.26641 0.02114,0.28463 0.016,0.0193 0.01844,0.0759 0.01006,0.23271 -0.0079,0.14837 -0.0057,0.21059 0.0079,0.219 0.02337,0.0144 0.02543,0.18665 0.0024,0.20088 -0.02166,0.0134 -0.02166,0.23585 0,0.24924 0.0091,0.006 0.01662,0.0543 0.01662,0.10801 0,0.0537 -0.0075,0.10235 -0.01662,0.108 -0.0091,0.006 -0.01662,0.0767 -0.01662,0.15786 0,0.0812 0.0075,0.1522 0.01662,0.15785 0.02159,0.0133 0.02068,0.16414 -0.0015,0.24924 -0.0095,0.0366 -0.03166,0.1322 -0.04918,0.21253 -0.01752,0.0803 -0.04506,0.16422 -0.06121,0.18641 l -0.02935,0.0404 -0.333582,5e-4 c -0.401603,6.3e-4 -0.390193,0.006 -0.430998,-0.21624 -0.01416,-0.0773 -0.03251,-0.15544 -0.04078,-0.17372 -0.02455,-0.0543 -0.03882,-0.28569 -0.01839,-0.29831 0.02391,-0.0148 0.02358,-0.29583 -3.77e-4,-0.31978 -0.01165,-0.0116 -0.01448,-0.0534 -0.0078,-0.11549 0.02561,-0.23868 0.02837,-0.32589 0.01089,-0.34337 -0.02206,-0.0221 -0.02406,-0.18143 -0.0025,-0.20333 0.01794,-0.0183 0.02846,-0.25153 0.01208,-0.2679 -0.01969,-0.0197 -0.01154,-0.13294 0.01395,-0.19396 0.01754,-0.042 0.02492,-0.11979 0.02492,-0.26264 0,-0.26513 -0.02976,-0.37789 -0.121702,-0.4611 -0.14873,-0.1346 -0.144161,-0.12773 -0.144161,-0.21688 v -0.0838 h -0.05816 c -0.05354,0 -0.05816,-0.004 -0.05816,-0.0499 0,-0.0493 -9.29e-4,-0.0498 -0.09139,-0.0498 -0.09047,0 -0.09139,5e-4 -0.09139,0.0498 0,0.0471 -0.0037,0.0499 -0.06647,0.0499 -0.06277,0 -0.06646,-0.003 -0.06646,-0.0499 0,-0.0493 -9.29e-4,-0.0498 -0.09139,-0.0498 -0.09047,0 -0.09139,5e-4 -0.09139,0.0498 0,0.048 -0.0028,0.0499 -0.07477,0.0499 -0.072,0 -0.07477,-0.002 -0.07477,-0.0499 0,-0.0493 -9.3e-4,-0.0498 -0.09139,-0.0498 -0.09046,0 -0.09139,5e-4 -0.09139,0.0498 0,0.0607 -0.03107,0.065 -0.08979,0.0125 -0.03974,-0.0355 -0.04236,-0.0491 -0.05311,-0.27417 l -0.01131,-0.23678 h -0.112043 c -0.09783,0 -0.113139,0.004 -0.12068,0.033 -0.0084,0.0321 -0.02576,0.0331 -0.612583,0.0374 l -0.603948,0.004 -0.0048,0.14629 -0.0048,0.14628 0.08677,-0.005 c 0.0797,-0.005 0.0878,-0.009 0.0994,-0.0525 0.03392,-0.12761 0.115748,-0.16022 0.40203,-0.16022 0.203279,0 0.227117,0.003 0.277328,0.0374 0.121264,0.0825 0.124453,0.0943 0.124453,0.45812 v 0.32699 h -0.04154 -0.04154 l -0.0083,-0.26586 c -0.0089,-0.28378 -0.01544,-0.30872 -0.100078,-0.37994 -0.100868,-0.0849 -0.279282,-0.0964 -0.415602,-0.0269 -0.08278,0.0422 -0.09912,0.0957 -0.09912,0.32442 0,0.21582 0.0071,0.207 -0.167025,0.207 h -0.114457 l -0.0047,0.2114 c -0.0045,0.20269 -0.0062,0.21219 -0.04344,0.2307 -0.02133,0.0106 -0.04532,0.0258 -0.0533,0.0338 -0.008,0.008 -0.05252,0.4405 -0.09898,0.96115 -0.06712,0.75227 -0.0903,0.95658 -0.112863,0.99511 -0.05456,0.0931 -0.09717,0.11002 -0.387127,0.15332 -0.149977,0.0224 -0.359895,0.0555 -0.466486,0.0735 -0.10659,0.0181 -0.250528,0.0328 -0.319862,0.0328 -0.100977,0 -0.126061,0.005 -0.126061,0.0249 0,0.0196 -0.02308,0.0249 -0.108006,0.0249 -0.08445,0 -0.108005,-0.005 -0.108005,-0.0247 0,-0.0212 -0.06997,-0.0253 -0.49253,-0.0291 -0.442797,-0.004 -0.49433,-0.007 -0.510361,-0.0327 -0.02658,-0.0422 -0.0042,-0.0531 0.123123,-0.0603 0.109518,-0.006 0.115421,-0.009 0.115421,-0.0471 v -0.0406 l -0.228472,0.009 c -0.827742,0.032 -0.835886,0.0318 -1.631067,-0.0322 -0.672285,-0.0542 -0.766862,-0.0653 -0.840595,-0.0985 -0.178281,-0.0805 -0.242569,-0.19177 -0.259643,-0.44954 -0.015,-0.22639 -0.04711,-0.59476 -0.0523,-0.59995 -0.01051,-0.0105 -0.208281,-0.0105 -0.225302,5e-5 -0.01157,0.007 -0.02435,-2.5e-4 -0.0311,-0.018 -0.0063,-0.0166 -0.02868,-0.0438 -0.04973,-0.0604 -0.03149,-0.0249 -0.03827,-0.0462 -0.03827,-0.12009 0,-0.0774 0.0057,-0.0935 0.04154,-0.11702 0.04517,-0.0296 0.05406,-0.0754 0.02009,-0.10359 -0.0143,-0.0119 -0.256815,-0.0195 -0.72696,-0.0228 -0.690874,-0.005 -0.706929,-0.006 -0.774036,-0.0417 -0.08824,-0.0472 -0.147623,-0.11866 -0.184216,-0.22169 -0.01607,-0.0453 -0.03892,-0.0823 -0.05077,-0.0823 -0.04391,0 -0.226314,0.0696 -0.28261,0.10788 -0.07165,0.0487 -0.104478,0.0959 -0.184913,0.26598 -0.03458,0.0731 -0.277143,0.51703 -0.539036,0.98648 -0.261893,0.46945 -0.476168,0.87016 -0.476168,0.89046 0,0.0235 0.01548,0.044 0.04254,0.0563 0.0363,0.0165 0.04178,0.0285 0.03739,0.0816 -0.005,0.0601 -0.0074,0.0623 -0.07162,0.0648 -0.03656,10e-4 -0.08142,-0.001 -0.0997,-0.006 z m 6.987118,-0.42905 c 0,-0.0137 0.0075,-0.0249 0.01662,-0.0249 0.0091,0 0.01662,-0.007 0.01662,-0.0166 0,-0.009 -0.04113,-0.0166 -0.09139,-0.0166 -0.0864,0 -0.09139,0.002 -0.09139,0.0415 0,0.0382 0.0061,0.0415 0.07477,0.0415 0.05539,0 0.07477,-0.006 0.07477,-0.0249 z m 1.032919,-0.0326 c 0.02163,-0.0475 -0.0121,-0.11519 -0.06415,-0.1288 -0.02636,-0.007 -0.02951,8.1e-4 -0.02398,0.0588 0.01006,0.10552 0.0555,0.14161 0.08812,0.07 z m -1.418204,-0.10453 c -0.0046,-0.0239 -0.0268,-0.0299 -0.12584,-0.034 -0.08288,-0.003 -0.120291,-0.0114 -0.120291,-0.0258 0,-0.0569 0.0343,-0.0607 0.54335,-0.0607 h 0.503471 v -0.0997 -0.0997 l 0.07062,-10e-4 c 0.05444,-8.7e-4 0.063,-0.004 0.03739,-0.0153 -0.01828,-0.008 -0.754792,-0.0268 -1.636697,-0.0423 -1.855907,-0.0326 -1.631334,-9e-4 -1.75471,-0.24735 l -0.07453,-0.14888 0.0029,-0.51251 c 0.0016,-0.28188 -0.0018,-0.51725 -0.0076,-0.52304 -0.0058,-0.006 -0.01053,0.24826 -0.01053,0.56456 v 0.57509 l -0.03693,0.0259 c -0.03919,0.0274 -0.138087,0.0352 -0.152444,0.012 -0.0047,-0.008 -0.03132,-0.0105 -0.05914,-0.006 l -0.05058,0.007 3.64e-4,0.1352 c 4.33e-4,0.16003 0.03166,0.24275 0.121373,0.32152 0.03327,0.0292 0.08865,0.0609 0.123076,0.0705 0.03442,0.01 0.372894,0.0427 0.752159,0.0737 0.601796,0.0492 0.765343,0.0566 1.284821,0.0582 0.558495,0.002 0.594905,2e-5 0.589699,-0.0272 z m 0.423538,-0.005 c 0.0083,-0.0317 0.0025,-0.0337 -0.08514,-0.0291 -0.07397,0.004 -0.09521,0.0112 -0.09957,0.034 -0.0047,0.0248 0.0078,0.0291 0.08514,0.0291 0.0774,0 0.09197,-0.005 0.09957,-0.034 z m 0.595186,-0.1446 c -0.01919,-0.016 -0.0417,-0.059 -0.05002,-0.0955 l -0.01513,-0.0665 -0.0017,0.0956 -0.0017,0.0955 h 0.05169 c 0.05144,0 0.05152,-1.3e-4 0.0168,-0.0291 z m -4.05619,-1.37238 c 5.52e-4,-0.15341 -0.08746,-1.28896 -0.10297,-1.32854 -0.02901,-0.074 -0.09706,-0.0989 -0.252604,-0.0922 -0.105698,0.005 -0.154954,0.0157 -0.228196,0.0516 -0.25493,0.12519 -0.391726,0.35366 -0.377728,0.63085 0.0074,0.1466 0.07092,0.28962 0.187425,0.42202 0.07132,0.081 0.07349,0.0864 0.04508,0.11216 -0.04657,0.0421 -0.07794,0.0326 -0.143836,-0.0436 -0.172846,-0.19998 -0.220977,-0.35271 -0.236991,-0.752 l -0.01196,-0.29826 -0.09644,-0.0462 c -0.05304,-0.0254 -0.09185,-0.0536 -0.08625,-0.0627 0.0064,-0.0104 -0.04375,-0.0165 -0.136405,-0.0165 -0.135975,0 -0.147774,0.003 -0.162989,0.0373 -0.01245,0.0283 -0.03565,0.04 -0.09637,0.0486 -0.102371,0.0145 -0.157452,0.0512 -0.188515,0.12549 -0.02026,0.0485 -0.02379,0.1353 -0.01938,0.47643 0.0061,0.47074 0.01292,0.50091 0.135681,0.59884 l 0.06383,0.0509 0.731085,0.008 0.731085,0.008 0.03175,0.0392 c 0.01746,0.0216 0.03174,0.0515 0.03172,0.0665 -1.7e-5,0.0226 0.01544,0.0263 0.09139,0.0216 0.09026,-0.006 0.09141,-0.006 0.0916,-0.0582 z m 0.596029,-0.18222 c -0.0011,-0.0383 -0.0077,-0.0921 -0.01465,-0.11948 -0.0093,-0.0365 -0.01321,-0.0152 -0.01465,0.0799 -0.0013,0.0827 0.0041,0.12604 0.01465,0.11949 0.0091,-0.006 0.01573,-0.0416 0.01465,-0.0799 z m 7.670349,-1.0583 c 0.02454,-0.0475 0.02417,-0.0499 -0.0079,-0.0499 -0.02632,0 -0.03366,0.0109 -0.03366,0.0499 0,0.0274 0.0035,0.0499 0.0079,0.0499 0.0043,0 0.01948,-0.0224 0.03366,-0.0499 z m -0.876049,-0.44127 c 0.05764,-0.0404 0.04406,-0.0572 -0.04615,-0.0572 -0.08787,0 -0.113261,0.0306 -0.054,0.0651 0.04013,0.0234 0.05743,0.022 0.100154,-0.008 z m 0.310015,0.01 c 0.02344,-0.009 0.04262,-0.0276 0.04262,-0.0415 0,-0.0193 -0.01971,-0.0253 -0.08308,-0.0253 -0.06355,0 -0.08308,0.006 -0.08308,0.0255 0,0.0204 0.02461,0.0383 0.07785,0.0566 0.0017,5.7e-4 0.02225,-0.006 0.04569,-0.0152 z m 0.670342,-0.01 c 0.05883,-0.0412 0.0436,-0.0572 -0.05446,-0.0572 -0.05026,0 -0.09139,0.007 -0.09139,0.0157 0,0.0186 0.06624,0.0674 0.09139,0.0674 0.0096,0 0.03415,-0.0116 0.05446,-0.0259 z m 0.349701,-0.03 c 0.0044,-0.0224 -0.0098,-0.0272 -0.08031,-0.0272 -0.09226,0 -0.105771,0.0246 -0.03351,0.0609 0.04577,0.023 0.106152,0.005 0.113818,-0.0337 z m 0.298331,0.03 c 0.05764,-0.0404 0.04406,-0.0572 -0.04615,-0.0572 -0.08787,0 -0.113262,0.0306 -0.054,0.0651 0.04013,0.0234 0.05743,0.022 0.100154,-0.008 z m 0.642639,0.007 c 0.07217,-0.0329 0.05242,-0.0638 -0.04076,-0.0638 -0.111821,0 -0.114694,0.0478 -0.0049,0.082 0.0019,5.7e-4 0.02242,-0.008 0.04569,-0.0182 z m 0.315409,0.003 c 0.02344,-0.009 0.04262,-0.0276 0.04262,-0.0415 0,-0.0193 -0.01971,-0.0253 -0.08308,-0.0253 -0.06355,0 -0.08308,0.006 -0.08308,0.0255 0,0.0204 0.02461,0.0383 0.07785,0.0566 0.0017,5.6e-4 0.02225,-0.006 0.04569,-0.0152 z m -1.943016,-0.0503 c 0.02529,-0.0109 0.01536,-0.0145 -0.04154,-0.0152 -0.0541,-6.5e-4 -0.06788,0.004 -0.04985,0.0152 0.02958,0.0191 0.0469,0.0191 0.09139,0 z m 1.296065,0 c 0.02507,-0.0108 0.01486,-0.0143 -0.04154,-0.0143 -0.0564,0 -0.06661,0.004 -0.04154,0.0143 0.01828,0.008 0.03697,0.0143 0.04154,0.0143 0.0046,0 0.02326,-0.006 0.04154,-0.0143 z m -8.733786,-0.31057 c 0.0011,-0.0383 -0.0055,-0.0743 -0.01465,-0.0799 -0.0106,-0.007 -0.0159,0.0367 -0.01465,0.11949 0.0014,0.0951 0.0054,0.11643 0.01465,0.0799 0.007,-0.0274 0.01357,-0.0812 0.01465,-0.11948 z m -0.11047,0.0251 c 0.0032,-0.0336 -1.19e-4,-0.0575 -0.0074,-0.053 -0.0072,0.004 -0.01228,0.0432 -0.01122,0.0861 0.002,0.0818 0.0088,0.0697 0.01857,-0.033 z m -8.644309,-0.52873 c 0,-0.0823 -0.0024,-0.14955 -0.0053,-0.14955 -0.0029,0 -0.06701,0.0673 -0.142434,0.14955 l -0.137141,0.14954 h 0.142433 0.142434 z m -1.720965,0.0404 c 0.0311,-0.0311 0.03377,-0.0759 0.0062,-0.1035 -0.01468,-0.0147 -0.161232,-0.0199 -0.556058,-0.0199 -0.513039,0 -0.53686,0.001 -0.55332,0.0321 -0.02337,0.0437 -0.02171,0.0607 0.0089,0.0913 0.02263,0.0226 0.09563,0.0261 0.547149,0.0261 0.451514,0 0.524521,-0.003 0.547148,-0.0261 z m 10.528511,-0.77236 0.04653,-0.0591 1.13524,-0.0204 c 2.008424,-0.0361 2.125019,-0.0395 2.148054,-0.0625 0.0116,-0.0116 0.02589,-0.0511 0.03176,-0.0878 0.01754,-0.10968 0.0435,-0.11834 0.354889,-0.11834 h 0.27047 v -0.0576 c 0,-0.076 -0.03292,-0.092 -0.189014,-0.092 -0.0686,0 -0.129354,-0.007 -0.135003,-0.0166 -0.0067,-0.0108 -0.465099,-0.0166 -1.320989,-0.0166 -0.720895,0 -1.314186,-0.006 -1.318423,-0.0125 -0.01,-0.0162 -0.09849,-0.0136 -0.126492,0.004 -0.01193,0.007 -0.276797,0.0105 -0.588603,0.007 l -0.566919,-0.006 -0.0048,0.13476 c -0.0046,0.1284 -0.0028,0.13606 0.03739,0.16239 0.04168,0.0273 0.04217,0.0302 0.04217,0.25021 0,0.29383 0.0074,0.30917 0.07962,0.16542 0.03167,-0.063 0.07852,-0.14117 0.10411,-0.17364 z m -1.866354,0.223 c 0.04067,-0.0254 0.09674,-0.10206 0.08396,-0.11484 -0.01273,-0.0127 -0.395282,0.0128 -0.395282,0.0264 0,0.0307 0.06418,0.0857 0.124622,0.10682 0.0708,0.0247 0.126522,0.0192 0.186701,-0.0183 z m 0.386558,-0.11096 c 0,-0.022 -0.008,-0.0286 -0.02628,-0.0215 -0.01446,0.006 -0.05471,0.0101 -0.08945,0.0101 -0.0459,0 -0.06545,0.008 -0.07153,0.0291 -0.0046,0.016 -0.01357,0.0417 -0.01993,0.0571 -0.01033,0.025 8.2e-5,0.0242 0.09781,-0.008 0.08398,-0.0273 0.109376,-0.0429 0.109376,-0.0672 z m 7.909318,-0.21915 c -0.01138,-0.0137 -0.04129,-0.0249 -0.06646,-0.0249 -0.02518,0 -0.05509,0.0112 -0.06647,0.0249 -0.01794,0.0216 -0.0091,0.0249 0.06647,0.0249 0.07558,0 0.08441,-0.003 0.06646,-0.0249 z m 0.332325,0 c -0.02137,-0.0257 -0.0773,-0.0325 -0.123263,-0.0148 -0.0529,0.0203 -0.02411,0.0398 0.05883,0.0398 0.07377,0 0.08236,-0.003 0.06443,-0.0249 z m 0.332323,0.0101 c 0,-0.039 -0.118877,-0.047 -0.149545,-0.0101 -0.01793,0.0216 -0.0093,0.0249 0.06443,0.0249 0.04681,0 0.08511,-0.007 0.08511,-0.0148 z m 0.648033,0 c 0,-0.039 -0.118878,-0.047 -0.149546,-0.0101 -0.01793,0.0216 -0.0093,0.0249 0.06443,0.0249 0.04681,0 0.08511,-0.007 0.08511,-0.0148 z m 0.332324,0 c 0,-0.039 -0.118877,-0.047 -0.149546,-0.0101 -0.01793,0.0216 -0.0093,0.0249 0.06443,0.0249 0.04681,0 0.08511,-0.007 0.08511,-0.0148 z m 0.315708,-0.0101 c -0.02137,-0.0257 -0.07729,-0.0325 -0.123262,-0.0148 -0.0529,0.0203 -0.02411,0.0398 0.05883,0.0398 0.07377,0 0.08236,-0.003 0.06443,-0.0249 z m 0.648032,0 c -0.02137,-0.0257 -0.07729,-0.0325 -0.123262,-0.0148 -0.0529,0.0203 -0.02411,0.0398 0.05883,0.0398 0.07377,0 0.08236,-0.003 0.06443,-0.0249 z m 0.332325,0.0101 c 0,-0.039 -0.118877,-0.047 -0.149546,-0.0101 -0.01793,0.0216 -0.0093,0.0249 0.06443,0.0249 0.04681,0 0.08511,-0.007 0.08511,-0.0148 z m -11.14948,-0.72963 c 0,-0.007 -0.02553,-0.0381 -0.05673,-0.0683 -0.103533,-0.100353 -0.256566,-0.0803 -0.338225,0.0443 l -0.0245,0.0374 h 0.209729 c 0.115351,0 0.209729,-0.006 0.209729,-0.0134 z"
       id="path2780" />
  </g>
</svg>
