<?xml version="1.0" encoding="UTF-8" standalone="no"?>
<svg
   xmlns:dc="http://purl.org/dc/elements/1.1/"
   xmlns:cc="http://creativecommons.org/ns#"
   xmlns:rdf="http://www.w3.org/1999/02/22-rdf-syntax-ns#"
   xmlns:svg="http://www.w3.org/2000/svg"
   xmlns="http://www.w3.org/2000/svg"
   xmlns:sodipodi="http://sodipodi.sourceforge.net/DTD/sodipodi-0.dtd"
   xmlns:inkscape="http://www.inkscape.org/namespaces/inkscape"
   version="1.1"
   x="0px"
   y="0px"
   width="99.75px"
   height="32px"
   viewBox="0 0 99.75 32"
   enable-background="new 0 0 99.75 32"
   xml:space="preserve"
   id="svg32"
   sodipodi:docname="ebr14.svg"
   inkscape:version="1.0.2-2 (e86c870879, 2021-01-15)"><metadata
   id="metadata38"><rdf:RDF><cc:Work
       rdf:about=""><dc:format>image/svg+xml</dc:format><dc:type
         rdf:resource="http://purl.org/dc/dcmitype/StillImage" /></cc:Work></rdf:RDF></metadata><defs
   id="defs36" /><sodipodi:namedview
   pagecolor="#ffffff"
   bordercolor="#666666"
   borderopacity="1"
   objecttolerance="10"
   gridtolerance="10"
   guidetolerance="10"
   inkscape:pageopacity="0"
   inkscape:pageshadow="2"
   inkscape:window-width="1842"
   inkscape:window-height="1051"
   id="namedview34"
   showgrid="false"
   inkscape:zoom="8.235589"
   inkscape:cx="65.527339"
   inkscape:cy="19.085031"
   inkscape:window-x="-9"
   inkscape:window-y="-9"
   inkscape:window-maximized="1"
   inkscape:current-layer="svg32" />

<g
   id="guides">
</g>
<path
   style="fill:#ffffff;stroke-width:0.0937781"
   d="m 1.4658941,26.065293 c -0.1160506,-0.07753 -0.2110012,-0.211337 -0.2110012,-0.297339 0,-0.108679 -0.078054,-0.155244 -0.25592275,-0.152675 -0.45107755,0.0065 -0.47535936,-0.329961 -0.48530095,-6.724894 l -0.009006,-5.790809 h 0.47183475 c 0.33289885,0 0.48772915,-0.04142 0.52581375,-0.140667 0.044944,-0.117123 0.3113007,-0.140668 1.5912874,-0.140668 0.9623535,0 1.5373081,-0.03507 1.5373081,-0.09378 0,-0.06188 3.0860617,-0.09337 9.0730478,-0.09257 8.737231,0.0012 9.094676,0.008 9.657384,0.184403 0.321385,0.100756 0.785589,0.275826 1.031561,0.389044 0.355337,0.163557 0.630269,0.207396 1.338118,0.213374 0.846177,0.0072 0.919136,-0.0084 1.453564,-0.310504 0.309468,-0.174914 0.58377,-0.343364 0.609559,-0.374332 0.07704,-0.09251 0.41034,-0.29228 0.586114,-0.3513 0.09026,-0.03031 0.164112,-0.08746 0.164112,-0.127008 0,-0.03954 0.07385,-0.0967 0.164112,-0.127007 0.175774,-0.05903 0.509076,-0.258792 0.586114,-0.3513 0.163099,-0.195853 1.165515,-0.647031 1.437558,-0.647031 0.224324,0 0.338449,-0.04991 0.37528,-0.164113 0.172743,-0.535651 0.607299,-1.7246147 0.6436,-1.7609157 0.117562,-0.117562 2.184676,-0.413768 3.38126,-0.484518 0.39973,-0.02364 0.729563,-0.07141 0.732965,-0.106164 0.0034,-0.03475 0.01396,-0.400794 0.02345,-0.813419 0.02054,-0.8923932 0.173804,-1.2522739 0.626927,-1.472015 0.180464,-0.087516 0.379085,-0.2035663 0.441381,-0.2578905 0.177048,-0.1543921 0.308738,-0.1165207 0.308738,0.088786 0,0.1031564 0.06043,0.1875569 0.134281,0.1875569 0.159076,0 0.522167,0.481311 0.522167,0.6921804 0,0.3455597 1.411587,0.7995242 2.502907,0.8049312 l 0.674233,0.0033 0.02911,-0.351668 0.02911,-0.3516689 1.289451,-0.026089 c 1.105625,-0.022374 1.289451,-0.00564 1.289451,0.1172227 0,0.1012688 0.09629,0.1433138 0.328224,0.1433138 0.229236,0 0.328225,-0.042424 0.328225,-0.1406672 0,-0.087526 0.08857,-0.1406671 0.234445,-0.1406671 0.145878,0 0.234446,0.053143 0.234446,0.1406671 0,0.098244 0.09898,0.1406672 0.328224,0.1406672 0.229236,0 0.328224,-0.042424 0.328224,-0.1406672 0,-0.087526 0.08857,-0.1406671 0.234446,-0.1406671 0.145878,0 0.234445,0.053143 0.234445,0.1406671 0,0.093778 0.09378,0.1406672 0.281335,0.1406672 0.187557,0 0.281335,-0.046888 0.281335,-0.1406672 0,-0.1222905 0.418244,-0.1406671 3.201524,-0.1406671 h 3.201513 l -0.0521,0.4454467 c -0.06938,0.593258 0.0083,0.961227 0.202842,0.961227 0.13353,0 0.150082,-0.09743 0.119485,-0.703337 l -0.03552,-0.7033367 h 0.52603 c 0.405064,0 0.52603,0.032345 0.52603,0.1406671 0,0.098244 0.09898,0.1406672 0.328225,0.1406672 0.229234,0 0.328224,-0.042424 0.328224,-0.1406672 0,-0.087526 0.08857,-0.1406671 0.234445,-0.1406671 0.145878,0 0.234446,0.053143 0.234446,0.1406671 0,0.093778 0.09378,0.1406672 0.281335,0.1406672 0.187556,0 0.281335,-0.046888 0.281335,-0.1406672 0,-0.093778 0.09378,-0.1406671 0.281334,-0.1406671 0.154735,0 0.281335,0.042199 0.281335,0.093778 0,0.051576 0.126601,0.093778 0.281335,0.093778 0.154734,0 0.281335,-0.042199 0.281335,-0.093778 0,-0.051576 0.1055,-0.093778 0.234446,-0.093778 0.145877,0 0.234445,0.053143 0.234445,0.1406671 0,0.093778 0.09378,0.1406672 0.281335,0.1406672 0.187556,0 0.281335,-0.046888 0.281335,-0.1406672 0,-0.093778 0.09378,-0.1406671 0.281334,-0.1406671 0.187558,0 0.281336,0.046888 0.281336,0.1406671 0,0.098001 0.09866,0.1406672 0.325281,0.1406672 0.25061,0 0.312889,-0.032291 0.271301,-0.1406672 -0.04084,-0.1064371 0.01692,-0.1406671 0.237389,-0.1406671 0.196475,0 0.291368,0.045814 0.291368,0.1406671 0,0.093778 0.09378,0.1406672 0.281335,0.1406672 0.187556,0 0.281335,-0.046888 0.281335,-0.1406672 0,-0.087526 0.08857,-0.1406671 0.234445,-0.1406671 0.145878,0 0.234446,0.053143 0.234446,0.1406671 0,0.098244 0.09898,0.1406672 0.328224,0.1406672 0.229235,0 0.328225,-0.042424 0.328225,-0.1406672 0,-0.087526 0.08857,-0.1406671 0.234444,-0.1406671 0.145878,0 0.234447,0.053143 0.234447,0.1406671 0,0.098244 0.09898,0.1406672 0.328224,0.1406672 0.229235,0 0.328223,-0.042424 0.328223,-0.1406672 0,-0.087526 0.08857,-0.1406671 0.234446,-0.1406671 0.145878,0 0.234445,0.053143 0.234445,0.1406671 0,0.093778 0.09378,0.1406672 0.281335,0.1406672 0.187557,0 0.281336,-0.046888 0.281336,-0.1406672 0,-0.087526 0.08857,-0.1406671 0.234444,-0.1406671 0.145879,0 0.234447,0.053143 0.234447,0.1406671 0,0.098244 0.09898,0.1406672 0.328224,0.1406672 0.229235,0 0.328223,-0.042424 0.328223,-0.1406672 0,-0.087526 0.08857,-0.1406671 0.234446,-0.1406671 0.145878,0 0.234446,0.053143 0.234446,0.1406671 0,0.098244 0.09898,0.1406672 0.328224,0.1406672 0.229236,0 0.328224,-0.042424 0.328224,-0.1406672 0,-0.087526 0.08857,-0.1406671 0.234445,-0.1406671 0.145878,0 0.234446,0.053143 0.234446,0.1406671 0,0.093778 0.09378,0.1406672 0.281335,0.1406672 0.187556,0 0.281336,-0.046888 0.281336,-0.1406672 0,-0.087526 0.08857,-0.1406671 0.234444,-0.1406671 0.145879,0 0.234447,0.053143 0.234447,0.1406671 0,0.098244 0.09898,0.1406672 0.328224,0.1406672 0.229235,0 0.328223,-0.042424 0.328223,-0.1406672 0,-0.087526 0.08857,-0.1406671 0.234446,-0.1406671 0.145878,0 0.234445,0.053143 0.234445,0.1406671 0,0.098244 0.099,0.1406672 0.328225,0.1406672 0.229234,0 0.328224,-0.042424 0.328224,-0.1406672 0,-0.078149 0.08336,-0.1406671 0.187555,-0.1406671 0.1042,0 0.187558,0.062519 0.187558,0.1406671 0,0.098244 0.09898,0.1406672 0.328224,0.1406672 0.229235,0 0.328224,-0.042424 0.328224,-0.1406672 0,-0.087526 0.08857,-0.1406671 0.234445,-0.1406671 0.145878,0 0.234447,0.053143 0.234447,0.1406671 0,0.098244 0.09898,0.1406672 0.328223,0.1406672 0.229236,0 0.328224,-0.042424 0.328224,-0.1406672 0,-0.087526 0.08857,-0.1406671 0.234446,-0.1406671 0.145877,0 0.234445,0.053143 0.234445,0.1406671 0,0.098244 0.09898,0.1406672 0.328224,0.1406672 0.229235,0 0.328225,-0.042424 0.328225,-0.1406672 0,-0.087526 0.08857,-0.1406671 0.234444,-0.1406671 0.145879,0 0.234447,0.053143 0.234447,0.1406671 0,0.093778 0.09377,0.1406672 0.281335,0.1406672 0.187556,0 0.281334,-0.046888 0.281334,-0.1406672 0,-0.093778 0.09378,-0.1406671 0.281335,-0.1406671 0.187557,0 0.281332,0.046888 0.281332,0.1406671 0,0.093778 0.09379,0.1406672 0.281341,0.1406672 0.187557,0 0.281332,-0.046888 0.281332,-0.1406672 0,-0.087526 0.08857,-0.1406671 0.234446,-0.1406671 0.145875,0 0.234445,0.053143 0.234445,0.1406671 0,0.093778 0.09379,0.1406672 0.281332,0.1406672 0.187558,0 0.281341,-0.046888 0.281341,-0.1406672 0,-0.093778 0.09378,-0.1406671 0.281333,-0.1406671 0.187556,0 0.281331,0.046888 0.281331,0.1406671 0,0.093778 0.09378,0.1406672 0.281332,0.1406672 0.187558,0 0.28134,-0.046888 0.28134,-0.1406672 0,-0.093778 0.09378,-0.1406671 0.281332,-0.1406671 0.187557,0 0.281333,0.046888 0.281333,0.1406671 0,0.093778 0.09379,0.1406672 0.28134,0.1406672 0.18755,0 0.281333,-0.046888 0.281333,-0.1406672 0,-0.087526 0.08857,-0.1406671 0.234445,-0.1406671 0.145876,0 0.234446,0.053143 0.234446,0.1406671 0,0.098001 0.09867,0.1406672 0.325277,0.1406672 0.25061,0 0.312889,-0.032291 0.271301,-0.1406672 -0.04085,-0.1064371 0.01691,-0.1406671 0.237395,-0.1406671 0.19647,0 0.291365,0.045814 0.291365,0.1406671 0,0.098244 0.09898,0.1406672 0.328221,0.1406672 0.22924,0 0.328227,-0.042424 0.328227,-0.1406672 0,-0.087526 0.08857,-0.1406671 0.234446,-0.1406671 0.145876,0 0.234445,0.053143 0.234445,0.1406671 0,0.093778 0.09378,0.1406672 0.281332,0.1406672 0.187559,0 0.281342,-0.046888 0.281342,-0.1406672 0,-0.087526 0.08856,-0.1406671 0.234444,-0.1406671 0.145877,0 0.234446,0.053143 0.234446,0.1406671 0,0.098244 0.09898,0.1406672 0.32822,0.1406672 0.22924,0 0.328228,-0.042424 0.328228,-0.1406672 0,-0.087526 0.08856,-0.1406671 0.234446,-0.1406671 0.145875,0 0.234444,0.053143 0.234444,0.1406671 0,0.098244 0.09898,0.1406672 0.328221,0.1406672 0.229239,0 0.328228,-0.042424 0.328228,-0.1406672 0,-0.087526 0.08857,-0.1406671 0.234445,-0.1406671 0.145876,0 0.234446,0.053143 0.234446,0.1406671 0,0.093778 0.09378,0.1406672 0.281332,0.1406672 0.187558,0 0.281333,-0.046888 0.281333,-0.1406672 0,-0.087526 0.08857,-0.1406671 0.234445,-0.1406671 0.145883,0 0.234446,0.053143 0.234446,0.1406671 0,0.098244 0.09899,0.1406672 0.328228,0.1406672 0.229232,0 0.328219,-0.042424 0.328219,-0.1406672 0,-0.087526 0.08857,-0.1406671 0.234446,-0.1406671 0.218821,0 0.234453,0.031264 0.234453,0.4688917 0,0.440834 0.01436,0.468891 0.240609,0.468891 0.342438,0 0.603389,0.163655 0.603389,0.378412 0,0.162684 0.06587,0.184257 0.562673,0.184257 0.312596,0 0.562666,0.04168 0.562666,0.09378 0,0.05821 0.515786,0.09378 1.359792,0.09378 0.843998,0 1.359784,-0.03558 1.359784,-0.09378 0,-0.0547 0.312588,-0.09378 0.750223,-0.09378 h 0.750224 v -1.11531 c 0,-0.9305027 0.02456,-1.1247371 0.148338,-1.172227 0.261995,-0.1005374 1.217045,-0.060705 1.333363,0.055614 0.0716,0.071617 0.112998,0.4381932 0.11381,1.0081161 0.0023,1.4080769 -0.107623,1.3028129 1.391595,1.3360779 0.7039,0.01562 1.293875,-0.0033 1.311066,-0.04194 0.01723,-0.03869 0.72405,-0.07034 1.570782,-0.07034 h 1.539542 v 0.914338 0.9143387 h -1.54735 c -0.851042,0 -1.547342,-0.03165 -1.547342,-0.07034 0,-0.10822 -2.605434,-0.08537 -2.67268,0.02345 -0.0319,0.05158 -0.224274,0.09378 -0.427541,0.09378 -0.310974,0 -0.369577,0.03072 -0.369577,0.193722 0,0.482631 0.136561,0.556505 1.02876,0.556505 0.459028,0 0.942847,0.04115 1.075145,0.09146 0.212991,0.08098 0.240555,0.144045 0.240555,0.5504 0,0.457482 -7.73e-4,0.459128 -0.351668,0.51707 -0.19342,0.03197 -0.652803,0.05859 -1.020844,0.05916 -0.397251,6.1e-4 -0.774876,0.05587 -0.929294,0.135983 -0.199922,0.103722 -0.696091,0.136164 -2.144175,0.140195 -1.036227,0.0029 -2.303496,0.03314 -2.816146,0.06724 -0.878497,0.05843 -0.94894,0.07868 -1.225029,0.352142 -0.290083,0.287328 -0.89067,0.455407 -0.89067,0.24926 0,-0.05487 -0.06333,-0.09978 -0.140671,-0.09978 -0.07737,0 -0.140669,0.0633 -0.140669,0.140668 0,0.120664 -0.285929,0.140667 -2.010695,0.140667 -1.23931,0 -2.032938,0.03597 -2.068657,0.09377 -0.07531,0.12188 -0.6749,0.12188 -0.750224,0 -0.07554,-0.122222 -1.237363,-0.122222 -1.312897,0 -0.0319,0.05158 -0.203174,0.09378 -0.380653,0.09378 -0.177479,0 -0.32269,-0.0422 -0.32269,-0.09378 0,-0.05158 -0.119471,-0.09377 -0.265485,-0.09377 -0.18721,0 -0.302486,0.06912 -0.390963,0.234446 -0.06897,0.128945 -0.171085,0.234515 -0.226846,0.2346 -0.05577,8.4e-5 -0.26014,0.168885 -0.454178,0.375113 -0.35125,0.373301 -0.631865,0.485523 -0.631865,0.252688 0,-0.06725 0.147698,-0.26543 0.32822,-0.440399 0.353421,-0.342552 0.449544,-0.639163 0.16411,-0.506407 -0.09026,0.04199 -0.72326,0.09197 -1.406667,0.111077 l -1.242561,0.03475 v 0.720749 0.72075 h -0.750232 c -0.654111,0 -0.750223,-0.02118 -0.750223,-0.165346 0,-0.216237 -0.634418,-0.238095 -0.716314,-0.02467 -0.07023,0.183001 -0.409026,0.183001 -0.409026,0 0,-0.190672 -0.549366,-0.190672 -0.622534,0 -0.06986,0.182044 -0.373084,0.182044 -0.442939,0 -0.0778,-0.202762 -0.596158,-0.183954 -0.662168,0.02403 -0.04389,0.138275 -0.17276,0.165698 -0.803435,0.170968 -0.666645,0.0056 -0.751164,-0.01296 -0.751164,-0.164692 0,-0.132874 -0.07313,-0.17097 -0.328223,-0.17097 -0.218032,0 -0.328224,0.04386 -0.328224,0.130636 0,0.122873 -0.190399,0.244478 -0.382783,0.244478 -0.04736,0 -0.08611,-0.298439 -0.08611,-0.663197 v -0.663198 l -1.453097,0.0302 -1.453097,0.03019 -4.69e-4,0.614249 -4.69e-4,0.614247 h -0.797115 c -0.705074,0 -0.797115,-0.01949 -0.797115,-0.168801 0,-0.130396 -0.07467,-0.168801 -0.328225,-0.168801 -0.229234,0 -0.328224,0.04242 -0.328224,0.140668 0,0.08752 -0.08857,0.140667 -0.234445,0.140667 -0.145878,0 -0.234446,-0.05314 -0.234446,-0.140667 0,-0.189449 -0.523883,-0.189449 -0.596583,0 -0.07045,0.183581 -0.434978,0.183581 -0.434978,0 0,-0.09825 -0.09898,-0.140668 -0.328224,-0.140668 -0.253548,0 -0.328224,0.03841 -0.328224,0.168801 0,0.149311 -0.09205,0.168801 -0.797115,0.168801 -0.705073,0 -0.797116,-0.01949 -0.797116,-0.168801 0,-0.234198 -0.415362,-0.22233 -0.656447,0.01876 -0.27854,0.27854 -0.375113,0.230254 -0.375113,-0.187557 0,-0.362606 -0.01042,-0.375113 -0.312584,-0.375113 -0.171921,0 -0.541173,0.03904 -0.82056,0.08675 -0.279382,0.04771 -1.014374,0.155703 -1.633311,0.239984 -0.618937,0.08428 -1.43249,0.214047 -1.807898,0.288368 -0.375406,0.07432 -0.936319,0.135129 -1.246471,0.135129 h -0.563923 l 0.05901,0.726781 c 0.03245,0.39973 0.116887,1.105872 0.187634,1.569204 0.118574,0.776579 0.1161,0.849876 -0.03165,0.937783 -0.240372,0.143014 -0.576547,0.2124 -1.09806,0.226639 -0.257891,0.0071 -0.975294,0.09936 -1.594231,0.205161 -1.501026,0.256579 -3.505203,0.457334 -4.965639,0.4974 -0.350371,0.0096 -0.3743,-0.0077 -0.440413,-0.318059 -0.03846,-0.180524 -0.115794,-0.811827 -0.171872,-1.402898 -0.129366,-1.363521 -0.165858,-1.504228 -0.390105,-1.504228 -0.09918,0 -0.195135,0.05275 -0.213223,0.117222 -0.01809,0.06447 -0.08007,0.296574 -0.137724,0.51578 -0.275284,1.046555 -0.320373,1.148785 -0.506682,1.148785 -0.157909,0 -0.175528,-0.0436 -0.123164,-0.30478 0.13967,-0.696644 0.169383,-1.011485 0.115662,-1.22553 -0.05389,-0.214704 -0.103598,-0.229125 -0.972505,-0.282124 -0.503643,-0.03073 -1.022256,-0.08169 -1.152474,-0.113276 -0.174722,-0.04237 -0.302985,0.004 -0.489505,0.176818 -0.179346,0.166212 -0.410164,0.253839 -0.794802,0.301739 -0.769002,0.09576 -0.926905,0.225418 -0.996585,0.818281 -0.161207,1.371619 -0.691096,2.021202 -1.796149,2.201874 -0.780148,0.127551 -1.775152,-0.131404 -2.35331,-0.612464 -0.575075,-0.478492 -0.97582,-1.429455 -0.97582,-2.315608 v -0.522713 l -0.398557,0.05235 c -1.742916,0.228959 -4.020971,1.248841 -4.99878,2.237947 -0.20911,0.211527 -0.588912,0.701095 -0.844005,1.08793 -0.255093,0.386835 -0.495455,0.717404 -0.534138,0.734596 -0.03869,0.0172 -0.07034,0.08956 -0.07034,0.160813 0,0.213441 -0.314546,0.323218 -0.665551,0.232276 -3.112251,-0.806352 -3.455737,-0.869224 -4.492254,-0.822246 -0.969669,0.04395 -1.071841,0.06769 -2.532013,0.588442 -0.598519,0.21345 -1.636974,0.617783 -1.922455,0.748524 -0.154734,0.07086 -0.471236,0.190518 -0.703336,0.265899 -0.232102,0.07539 -0.548604,0.189186 -0.703338,0.252896 -0.564206,0.232306 -0.850731,0.345114 -1.172228,0.46152 -0.180523,0.06536 -0.461203,0.177193 -0.623732,0.248512 -0.378993,0.166308 -0.544205,0.163672 -0.689164,-0.01099 -0.132823,-0.160041 -0.429196,-0.186985 -0.51578,-0.04689 -0.03188,0.05158 -0.01706,0.09378 0.03292,0.09378 0.129872,0 1.139303,0.98634 1.139303,1.113243 0,0.05823 -0.03669,0.105875 -0.08153,0.105875 -0.131,0 -1.038128,-0.751936 -1.142579,-0.947106 -0.130671,-0.244161 -0.276346,-0.224043 -0.276346,0.03817 0,0.235496 -0.09531,0.285426 -1.734897,0.90894 -0.7702081,0.2929 -1.0708967,0.410805 -1.3395218,0.525247 -0.169378,0.07216 -0.370402,0.131202 -0.4467187,0.131202 -0.076321,0 -0.2120365,0.03963 -0.3015984,0.08807 -0.089561,0.04844 -0.838043,0.325492 -1.6632919,0.615671 -0.8252487,0.29018 -1.6481532,0.586141 -1.8286764,0.657691 -0.4148733,0.164435 -1.2215465,0.31864 -1.8286763,0.349574 -0.2578904,0.01314 -0.4899916,0.05054 -0.5157806,0.08309 -0.025789,0.03256 -0.1418395,-0.0043 -0.2578902,-0.08177 z M 36.281079,19.371677 c 0.229197,-0.06341 0.50768,-0.247088 0.715913,-0.4722 0.299401,-0.323668 0.354979,-0.461943 0.457522,-1.138263 0.13088,-0.863219 0.246615,-1.047358 0.819353,-1.303623 0.219206,-0.09808 0.398557,-0.218556 0.398557,-0.26772 0,-0.05317 -0.647206,-0.08939 -1.597242,-0.08939 -1.733224,0 -2.079233,0.07221 -2.494799,0.520608 -0.281476,0.303716 -0.353345,0.59987 -0.2852,1.175241 0.05872,0.495787 -0.07221,0.633857 -0.192663,0.203162 -0.113043,-0.404226 -0.08242,-1.410442 0.04686,-1.539721 0.276234,-0.276234 0.1295,-0.35929 -0.63476,-0.35929 h -0.750226 l 0.0014,0.586114 c 7.49e-4,0.322363 0.05353,0.758847 0.117222,0.969965 0.147025,0.487356 0.585471,1.183357 0.849217,1.34807 0.677961,0.423394 1.774411,0.581289 2.548821,0.367047 z m 54.485176,-8.851003 v -0.281336 h -1.359784 -1.359784 l -0.02958,0.307322 -0.02958,0.307322 1.389356,-0.02598 1.389364,-0.02598 z m 8.057262,-0.291369 c 0.367697,-0.141101 0.07465,-0.224412 -0.789444,-0.224412 -0.859112,0 -1.047095,0.047 -0.875262,0.218815 0.07815,0.07816 1.463476,0.08282 1.664706,0.0056 z m 0.10793,-1.1726797 c 0.122424,-0.198091 -0.197019,-0.277683 -1.006904,-0.250871 -0.824683,0.0273 -0.990129,0.07532 -0.879001,0.255118 0.08468,0.137025 1.800976,0.133161 1.885905,-0.0043 z M 63.898781,8.5982193 c 0,-0.05894 -0.609558,-0.09378 -1.641119,-0.09378 -1.031562,0 -1.641121,0.03483 -1.641121,0.09378 0,0.05894 0.609559,0.09378 1.641121,0.09378 1.031561,0 1.641119,-0.03483 1.641119,-0.09378 z m 4.782692,0 c 0,-0.05893 -0.607714,-0.09378 -1.635585,-0.09378 -0.989233,0 -1.65849,0.03707 -1.693544,0.09378 -0.03782,0.0612 0.530437,0.09378 1.635585,0.09378 1.06651,0 1.693544,-0.03472 1.693544,-0.09378 z m 4.688914,0 c 0,-0.05894 -0.609558,-0.09378 -1.64112,-0.09378 -1.031561,0 -1.64112,0.03483 -1.64112,0.09378 0,0.05894 0.609559,0.09378 1.64112,0.09378 1.031562,0 1.64112,-0.03483 1.64112,-0.09378 z m 4.782688,0 c 0,-0.05894 -0.60956,-0.09378 -1.641115,-0.09378 -1.031562,0 -1.641123,0.03483 -1.641123,0.09378 0,0.05894 0.609561,0.09378 1.641123,0.09378 1.031555,0 1.641115,-0.03483 1.641115,-0.09378 z m 4.782696,0 c 0,-0.05894 -0.609561,-0.09378 -1.641124,-0.09378 -1.031557,0 -1.641118,0.03483 -1.641118,0.09378 0,0.05894 0.609561,0.09378 1.641118,0.09378 1.031563,0 1.641124,-0.03483 1.641124,-0.09378 z M 47.901044,8.2816363 c 0.353649,-0.117006 0.837285,-0.152309 2.086567,-0.152309 1.563696,0 1.626216,-0.0072 1.626216,-0.187557 0,-0.184375 -0.06252,-0.187556 -3.686697,-0.187556 h -3.686697 l -0.269535,0.281335 c -0.255545,0.266731 -0.308787,0.281409 -1.025663,0.282771 -0.547314,0.0011 -0.717278,0.02809 -0.615458,0.09795 0.09141,0.06271 1.01093,0.08271 2.625792,0.0571 1.960904,-0.0311 2.582233,-0.07155 2.945475,-0.191726 z m 45.256559,-0.808757 c 0,-0.2709149 -0.03909,-0.3751131 -0.140671,-0.3751131 -0.101591,0 -0.14067,0.1041982 -0.14067,0.3751131 0,0.270915 0.03907,0.375114 0.14067,0.375114 0.101591,0 0.140671,-0.104199 0.140671,-0.375114 z"
   id="path174" /></svg>
