<?xml version="1.0" encoding="UTF-8" standalone="no"?>
<svg
   xmlns:dc="http://purl.org/dc/elements/1.1/"
   xmlns:cc="http://creativecommons.org/ns#"
   xmlns:rdf="http://www.w3.org/1999/02/22-rdf-syntax-ns#"
   xmlns:svg="http://www.w3.org/2000/svg"
   xmlns="http://www.w3.org/2000/svg"
   xmlns:sodipodi="http://sodipodi.sourceforge.net/DTD/sodipodi-0.dtd"
   xmlns:inkscape="http://www.inkscape.org/namespaces/inkscape"
   version="1.1"
   x="0px"
   y="0px"
   width="78.604px"
   height="32px"
   viewBox="0 0 78.604 32"
   enable-background="new 0 0 78.604 32"
   xml:space="preserve"
   id="svg95"
   sodipodi:docname="kilo141.svg"
   inkscape:version="1.0.2-2 (e86c870879, 2021-01-15)"><metadata
   id="metadata101"><rdf:RDF><cc:Work
       rdf:about=""><dc:format>image/svg+xml</dc:format><dc:type
         rdf:resource="http://purl.org/dc/dcmitype/StillImage" /></cc:Work></rdf:RDF></metadata><defs
   id="defs99" /><sodipodi:namedview
   pagecolor="#ffffff"
   bordercolor="#666666"
   borderopacity="1"
   objecttolerance="10"
   gridtolerance="10"
   guidetolerance="10"
   inkscape:pageopacity="0"
   inkscape:pageshadow="2"
   inkscape:window-width="1842"
   inkscape:window-height="1051"
   id="namedview97"
   showgrid="false"
   inkscape:zoom="15.457229"
   inkscape:cx="28.134995"
   inkscape:cy="20.455897"
   inkscape:window-x="-9"
   inkscape:window-y="-9"
   inkscape:window-maximized="1"
   inkscape:current-layer="svg95" />

<g
   id="guides">
</g>
<path
   style="fill:#ffffff;stroke-width:0.0646947"
   d="m 40.379984,30.111967 c -0.09701,-0.06016 -0.19443,-0.153999 -0.216486,-0.208536 -0.08997,-0.222457 -0.545203,-1.964444 -0.545203,-2.086262 0,-0.07223 -0.128395,-0.629956 -0.285322,-1.239385 -0.808295,-3.139024 -1.13385,-5.071671 -1.241531,-7.37031 l -0.04484,-0.957297 -0.325048,0.01922 c -0.187654,0.0111 -0.336314,0.05341 -0.351699,0.100093 -0.01466,0.04448 0.0237,0.08087 0.08523,0.08087 0.08992,0 0.07828,0.03114 -0.0593,0.158647 -0.09415,0.08726 -0.171183,0.190085 -0.171183,0.228509 0,0.03842 -0.04894,0.178099 -0.108765,0.310389 -0.05982,0.13229 -0.168993,0.398451 -0.242605,0.591469 -0.169916,0.445535 -0.297961,0.508123 -0.248758,0.12159 0.0195,-0.153147 0.06061,-0.327481 0.09136,-0.387411 0.03075,-0.05993 0.05591,-0.213683 0.05591,-0.341677 0,-0.147177 0.03567,-0.246402 0.09704,-0.269953 0.05337,-0.02048 0.09704,-0.11021 0.09704,-0.199397 0,-0.203115 0.105402,-0.220333 -2.043356,0.333807 -1.553793,0.400705 -1.70916,0.429372 -1.960402,0.36172 -0.150077,-0.04041 -0.334817,-0.144724 -0.410534,-0.231806 -0.07572,-0.08708 -0.183738,-0.15833 -0.240048,-0.15833 -0.05631,0 -0.13112,-0.0655 -0.166244,-0.145563 -0.05606,-0.127771 -0.118884,-0.147939 -0.514027,-0.165 -0.247591,-0.01069 -0.490587,-0.05298 -0.539992,-0.09399 -0.06975,-0.05789 -0.103604,-0.04993 -0.151475,0.03561 -0.05053,0.0903 -0.160978,0.110159 -0.612698,0.110159 -0.504073,0 -0.547853,0.01007 -0.513561,0.118114 0.03401,0.107168 -0.123919,0.748765 -1.117522,4.539901 -0.462628,1.765179 -0.462413,1.559137 -0.002,1.920849 0.343925,0.270203 0.378576,0.316926 0.277819,0.374606 -0.06331,0.03625 -0.201745,0.145959 -0.307626,0.24381 l -0.192513,0.17791 h -2.454858 c -2.371133,0 -2.455972,-0.0043 -2.487524,-0.124914 -0.01797,-0.0687 -0.07347,-0.140571 -0.123332,-0.159706 -0.129169,-0.04957 -0.114846,-0.182723 0.09814,-0.912368 1.118631,-3.832257 1.159938,-3.957098 1.605419,-4.851962 0.373904,-0.751083 0.875107,-1.501824 1.380153,-2.067297 0.221017,-0.247462 0.48511,-0.625926 0.586873,-0.84103 0.166742,-0.352457 0.185028,-0.457796 0.185074,-1.066142 4.1e-5,-0.541903 -0.02527,-0.726918 -0.128351,-0.938072 -0.147199,-0.301539 -0.531341,-0.554156 -0.842677,-0.554156 -0.110802,0 -0.337935,-0.0425 -0.50474,-0.09444 -0.166805,-0.05194 -1.118434,-0.182572 -2.114732,-0.29029 -0.996297,-0.107719 -2.699384,-0.327922 -3.784637,-0.489341 -3.012444,-0.448067 -5.191188,-0.606475 -9.510113,-0.69144 -2.4762175,-0.04871 -3.6053306,-0.09281 -3.6381092,-0.142106 -0.026142,-0.03931 -0.050022,-0.202485 -0.053068,-0.362604 -0.010345,-0.54387 -0.1164086,-0.586302 -0.1212858,-0.04852 l -0.00455,0.501383 H 6.2833682 c -0.1517789,0 -0.3774015,0.05424 -0.5013835,0.120532 -0.4063864,0.217293 -0.4614401,0.389677 -0.7776282,2.434906 -0.071512,0.462567 -0.1758573,1.094691 -0.2318789,1.404722 l -0.1018573,0.56369 -1.7454263,-0.0054 -1.7454263,-0.0054 -0.070006,-0.153646 c -0.056404,-0.123794 -0.047466,-0.178554 0.046003,-0.281836 0.137816,-0.152285 0.098968,-0.574773 -0.061086,-0.664344 -0.128242,-0.07177 -0.1263265,-0.225111 0.00445,-0.355883 0.1252941,-0.125294 0.073581,-0.59936 -0.074415,-0.682184 -0.122642,-0.06863 -0.1193796,-0.234064 0.00738,-0.374129 0.1199647,-0.13256 0.066163,-0.567159 -0.077013,-0.622101 -0.10288154,-0.03948 -0.11942378,-0.252519 -0.024179,-0.311384 0.035582,-0.02199 0.064695,-0.186554 0.064695,-0.365695 0,-0.271304 -0.021614,-0.331364 -0.12938934,-0.359548 -0.15327965,-0.04008 -0.16784753,-0.165068 -0.0323473,-0.277524 0.0597819,-0.04961 0.097042,-0.191602 0.097042,-0.369798 0,-0.234853 -0.024337,-0.295626 -0.12938932,-0.323098 -0.15121149,-0.03954 -0.17348622,-0.246759 -0.0323473,-0.300919 0.0687922,-0.0264 0.097042,-0.133759 0.097042,-0.368798 0,-0.277153 -0.0212326,-0.337113 -0.12938929,-0.365397 -0.15328383,-0.04008 -0.16783413,-0.183627 -0.0323473,-0.319113 0.14698087,-0.146981 0.1262504,-0.58602 -0.0323473,-0.685066 -0.15642413,-0.09769 -0.16198404,-0.165212 -0.025978,-0.3154966 0.1240106,-0.137031 0.0683818,-0.627698 -0.0775115,-0.683682 -0.11924525,-0.04576 -0.11580397,-0.242935 0.006004,-0.344026 0.11718533,-0.09726 0.0630665,-0.585657 -0.073876,-0.666703 -0.0497317,-0.02943 -0.0874173,-0.160928 -0.0874173,-0.305024 0,-0.353879 0.13487055,-0.412241 0.85744735,-0.371041 0.3168278,0.01807 0.6086871,0.06548 0.6485763,0.10537 0.039951,0.03995 0.2788311,0.07253 0.5318577,0.07253 0.2526326,0 0.486989,0.02704 0.5207919,0.06008 0.037834,0.03698 0.18581,0.03577 0.3849332,-0.0032 0.3538374,-0.06918 2.1136689,-0.0081 2.1675197,0.07518 0.017928,0.02774 0.163491,0.02519 0.3234733,-0.0057 0.4578621,-0.08831 1.3415884,-0.07607 1.3812307,0.01913 0.024226,0.05818 0.060585,0.04763 0.129584,-0.03761 0.087651,-0.108272 0.1662924,-0.114464 0.9132723,-0.07191 0.7165573,0.04082 0.8119179,0.05942 0.773213,0.150822 -0.1330814,0.314256 -0.1119638,0.375221 0.1446534,0.41762 0.5451358,0.09007 0.5791063,0.07525 0.806826,-0.352 l 0.2102434,-0.394456 3.464972,0.02016 3.464972,0.02016 1.002767,-0.484604 1.002767,-0.484603 1.277719,0.02281 c 1.198451,0.0214 1.27772,0.03034 1.27772,0.14421 0,0.06677 -0.03384,0.195673 -0.0752,0.286453 -0.08407,0.184522 -0.0286,0.294186 0.08922,0.176368 0.0421,-0.04211 0.223849,-0.07656 0.403874,-0.07656 0.247118,0 0.345436,-0.02901 0.401255,-0.11839 0.04067,-0.06511 0.359441,-0.290736 0.708392,-0.501383 l 0.634457,-0.382994 0.665758,0.01427 0.665757,0.01427 v -0.281386 c 0,-0.171122 0.03801,-0.312847 0.09704,-0.361839 0.05337,-0.0443 0.09704,-0.118204 0.09704,-0.16424 0,-0.0627 0.197483,-0.08912 0.78721,-0.105295 0.5563,-0.01526 0.79509,-0.04531 0.814075,-0.10246 0.01646,-0.04955 0.145682,-0.08087 0.333669,-0.08087 0.237051,0 0.338786,-0.03404 0.447471,-0.149732 0.125477,-0.133564 0.140667,-0.221109 0.140667,-0.810714 0,-0.527858 0.01954,-0.668481 0.09704,-0.698219 0.07226,-0.02773 0.09704,-0.142874 0.09704,-0.450832 0,-0.2326 0.02831,-0.413594 0.06469,-0.413594 0.03628,0 0.0647,0.178989 0.0647,0.407576 0,0.22986 0.03372,0.441296 0.07733,0.484908 0.0516,0.0516 0.07153,0.276687 0.05989,0.676445 -0.01661,0.570764 -0.0096,0.606517 0.1491,0.755568 0.0916,0.08605 0.166538,0.194063 0.166538,0.24003 0,0.06198 0.179683,0.08832 0.695468,0.101939 l 0.695467,0.01836 0.02115,0.194084 c 0.01163,0.106746 0.04802,0.22174 0.08087,0.255543 0.03284,0.0338 0.05972,0.24487 0.05972,0.469037 v 0.407576 h 0.226431 c 0.198397,0 0.226431,-0.02002 0.226431,-0.161737 0,-0.135015 0.03073,-0.161736 0.185998,-0.161736 0.154907,0 0.192485,0.03244 0.224814,0.194084 0.03616,0.180824 0.05852,0.194084 0.327263,0.194084 0.266576,0 0.289998,-0.01349 0.308916,-0.177911 0.01726,-0.149999 0.05092,-0.17791 0.214555,-0.17791 0.163636,0 0.197295,0.02791 0.214555,0.17791 0.01846,0.160462 0.04543,0.177911 0.274952,0.177911 0.229995,0 0.254482,-0.01596 0.254482,-0.165836 0,-0.148125 0.02245,-0.163671 0.210257,-0.145563 0.161151,0.01554 0.215086,0.05427 0.230931,0.165836 0.01789,0.12594 0.05931,0.145563 0.3073,0.145563 0.264494,0 0.286626,-0.01281 0.286626,-0.165836 0,-0.148125 0.02245,-0.163671 0.210258,-0.145563 0.161151,0.01554 0.215085,0.05427 0.23093,0.165836 0.01783,0.125541 0.05948,0.145563 0.3028,0.145563 0.242912,0 0.285001,-0.02014 0.3028,-0.144903 0.02441,-0.171093 0.240421,-0.234018 0.339871,-0.09901 0.03793,0.0515 0.190118,0.109774 0.338188,0.129499 0.229937,0.03063 0.274073,0.0173 0.302488,-0.09136 0.02505,-0.09577 0.07844,-0.12205 0.215993,-0.10629 0.144863,0.0166 0.186963,0.0578 0.203192,0.198845 0.0189,0.164254 0.04249,0.177911 0.307299,0.177911 0.262822,0 0.286829,-0.01354 0.286829,-0.161737 0,-0.141712 0.02803,-0.161737 0.226432,-0.161737 0.198397,0 0.226431,0.02002 0.226431,0.161737 0,0.145086 0.02618,0.161737 0.254279,0.161737 0.214441,0 0.257518,-0.0228 0.274952,-0.145563 0.01584,-0.111566 0.06978,-0.150298 0.230931,-0.165836 0.187803,-0.01811 0.210258,-0.0026 0.210258,0.145563 0,0.15281 0.02232,0.165836 0.284112,0.165836 0.249099,0 0.289115,-0.01993 0.324706,-0.161737 0.03168,-0.126238 0.08198,-0.161737 0.229147,-0.161737 0.157604,0 0.191915,0.0292 0.209026,0.177911 0.01853,0.16102 0.04504,0.17791 0.279249,0.17791 0.235556,0 0.260649,-0.01631 0.27962,-0.181757 0.01777,-0.154917 0.04642,-0.178801 0.194084,-0.161737 0.134766,0.01557 0.177789,0.05953 0.193713,0.197931 0.01881,0.163506 0.04313,0.17791 0.300286,0.17791 0.244515,0 0.284937,-0.0204 0.320409,-0.161736 0.03194,-0.12727 0.08169,-0.161737 0.233444,-0.161737 0.162579,0 0.192852,0.02539 0.192852,0.161737 0,0.150954 0.02157,0.161736 0.323473,0.161736 0.301909,0 0.323473,-0.01078 0.323473,-0.161736 0,-0.12939 0.03235,-0.161737 0.161737,-0.161737 0.129389,0 0.161737,0.03235 0.161737,0.161737 0,0.150954 0.02156,0.161736 0.323473,0.161736 0.301908,0 0.323473,-0.01078 0.323473,-0.161736 0,-0.135764 0.03048,-0.161737 0.189787,-0.161737 0.158948,0 0.193113,0.02891 0.210258,0.17791 0.01875,0.162925 0.04635,0.179571 0.32777,0.197629 0.305178,0.01958 0.3073,0.01832 0.3073,-0.182207 0,-0.181474 0.01776,-0.199853 0.175351,-0.181455 0.125528,0.01465 0.186002,0.06643 0.212836,0.182207 0.03163,0.136483 0.08001,0.164843 0.309858,0.18163 0.255812,0.01868 0.272374,0.0096 0.272374,-0.149662 0,-0.152322 0.02137,-0.167495 0.210258,-0.149283 0.16037,0.01546 0.210257,0.05097 0.210257,0.149662 0,0.108462 0.0497,0.132579 0.3073,0.149108 0.291559,0.01871 0.3073,0.01125 0.3073,-0.145563 0,-0.139644 0.02941,-0.165281 0.189584,-0.165281 0.14735,0 0.194189,0.03243 0.210258,0.145563 0.01718,0.121006 0.06706,0.148919 0.295625,0.165456 0.258594,0.01871 0.274952,0.0098 0.274952,-0.149662 0,-0.152322 0.02137,-0.167495 0.210258,-0.149283 0.175198,0.01689 0.213671,0.04994 0.230728,0.198183 0.01885,0.1638 0.04288,0.177911 0.303003,0.177911 0.260123,0 0.284155,-0.01411 0.303002,-0.177911 0.01726,-0.149999 0.05092,-0.17791 0.214555,-0.17791 0.163635,0 0.197295,0.02791 0.214555,0.17791 0.0189,0.164254 0.04249,0.177911 0.307299,0.177911 0.2648,0 0.286829,-0.01275 0.286829,-0.166034 0,-0.142961 0.02472,-0.163189 0.17791,-0.145563 0.127385,0.01466 0.183782,0.06181 0.198584,0.166034 0.01789,0.12594 0.05931,0.145563 0.307299,0.145563 0.264495,0 0.286627,-0.01281 0.286627,-0.165836 0,-0.148125 0.02245,-0.163671 0.210257,-0.145563 0.161151,0.01554 0.215086,0.05427 0.230931,0.165836 0.01783,0.125541 0.05948,0.145563 0.3028,0.145563 0.243321,0 0.28497,-0.02002 0.3028,-0.145563 0.01611,-0.11345 0.06285,-0.145563 0.211841,-0.145563 0.150696,0 0.199173,0.03424 0.228986,0.161736 0.03055,0.130658 0.08305,0.165542 0.273222,0.181539 0.21552,0.01813 0.23716,0.0045 0.256223,-0.161737 0.01766,-0.153953 0.05031,-0.181538 0.214905,-0.181538 0.163635,0 0.197295,0.02791 0.214555,0.17791 0.0189,0.164254 0.04249,0.17791 0.307299,0.17791 0.262822,0 0.286829,-0.01354 0.286829,-0.161736 0,-0.141712 0.02803,-0.161737 0.226431,-0.161737 0.198398,0 0.226432,0.02002 0.226432,0.161737 0,0.145086 0.02618,0.161736 0.254279,0.161736 0.214441,0 0.257517,-0.0228 0.274952,-0.145563 0.01584,-0.111566 0.06978,-0.150297 0.230931,-0.165835 0.187803,-0.01811 0.210257,-0.0026 0.210257,0.145563 0,0.152809 0.02232,0.165835 0.284113,0.165835 0.249099,0 0.289115,-0.01993 0.324705,-0.161736 0.03168,-0.126239 0.08198,-0.161737 0.229148,-0.161737 0.157603,0 0.191915,0.0292 0.209025,0.17791 0.01895,0.164694 0.0421,0.177911 0.311597,0.177911 0.271026,0 0.292565,-0.01255 0.311972,-0.181798 0.01662,-0.144965 0.04939,-0.177733 0.161736,-0.161737 0.09929,0.01414 0.146935,0.07259 0.161362,0.197972 0.01889,0.164125 0.0426,0.17791 0.306067,0.17791 0.250681,0 0.290558,-0.01977 0.32619,-0.161737 0.03159,-0.125871 0.08208,-0.161736 0.227663,-0.161736 0.156413,0 0.187071,0.02651 0.187071,0.161736 0,0.150954 0.02156,0.161737 0.323473,0.161737 0.301909,0 0.323473,-0.01078 0.323473,-0.161737 0,-0.136577 0.03019,-0.161736 0.194084,-0.161736 0.163893,0 0.194084,0.02516 0.194084,0.161736 0,0.148558 0.02372,0.161737 0.291126,0.161737 0.267404,0 0.291126,-0.01318 0.291126,-0.161737 0,-0.136577 0.03019,-0.161736 0.194084,-0.161736 0.129389,0 0.194084,0.03235 0.194084,0.09704 0,0.06409 0.06411,0.09704 0.188792,0.09704 0.103837,0 0.23658,0.01834 0.294986,0.04075 0.07353,0.02821 0.117277,-0.0016 0.142226,-0.09704 0.02601,-0.09945 0.08674,-0.137792 0.218275,-0.137792 0.150716,0 0.185782,0.03078 0.202712,0.17791 0.01832,0.159195 0.04939,0.180003 0.295423,0.197804 0.258594,0.01871 0.274952,0.0098 0.274952,-0.149662 0,-0.152322 0.02137,-0.167495 0.210258,-0.149283 0.16037,0.01546 0.210257,0.05097 0.210257,0.149662 0,0.108462 0.0497,0.132579 0.3073,0.149108 0.293375,0.01882 0.307299,0.01204 0.307299,-0.149662 0,-0.152125 0.02142,-0.167315 0.210258,-0.149108 0.16037,0.01546 0.210258,0.05097 0.210258,0.149662 0,0.108149 0.04964,0.132593 0.302362,0.148906 0.273169,0.01763 0.3044,0.0051 0.323473,-0.129389 0.01561,-0.110074 0.06329,-0.148906 0.182848,-0.148906 0.128347,0 0.165962,0.03673 0.182207,0.17791 0.02188,0.190163 0.167688,0.241573 0.229356,0.08087 0.02048,-0.05337 0.09638,-0.09704 0.168658,-0.09704 0.07228,0 0.13142,-0.02911 0.13142,-0.0647 0,-0.03558 -0.07438,-0.0647 -0.165281,-0.0647 -0.156816,0 -0.164272,-0.01574 -0.145563,-0.3073 0.01953,-0.304337 0.02206,-0.307493 0.262323,-0.327378 0.188389,-0.01559 0.242605,-0.04761 0.242605,-0.143287 0,-0.224271 0.223775,-0.272157 1.140443,-0.244046 l 0.865091,0.02653 1.3e-5,-0.262421 c 6e-6,-0.144331 0.04192,-0.481469 0.09315,-0.749195 0.05916,-0.309177 0.07958,-0.666168 0.05596,-0.978471 -0.04853,-0.641762 0.0096,-0.960804 0.175129,-0.960804 0.118941,0 0.124317,0.06318 0.124563,1.464521 0,0.805487 0.0095,1.473759 0.02079,1.485049 0.0113,0.01129 0.330959,0.0406 0.710367,0.06513 0.629738,0.04071 0.703832,0.05929 0.850612,0.213186 0.111954,0.11739 0.166944,0.256997 0.18108,0.459713 0.01709,0.245151 0.04327,0.294388 0.165754,0.311784 0.220408,0.0313 0.956116,0.777512 1.048021,1.062977 l 0.07811,0.242605 h 0.439432 0.439432 l 0.03539,0.307299 c 0.01947,0.169015 0.0023,0.43228 -0.03809,0.585033 -0.0725,0.27399 -0.07699,0.277477 -0.333824,0.258779 -0.259477,-0.01889 -0.260693,-0.01789 -0.368818,0.304519 -0.05967,0.17791 -0.110815,0.3469406 -0.113668,0.3756246 -0.0028,0.02868 0.607282,0.04324 1.355857,0.03235 1.054031,-0.01534 1.373157,-0.03944 1.414749,-0.106858 0.04272,-0.06925 0.210937,-0.07788 0.822399,-0.04219 0.422779,0.02467 1.679719,0.04929 2.793191,0.05471 1.997234,0.0097 2.024949,0.01167 2.058558,0.145402 0.01873,0.07456 0.02476,0.249231 0.01338,0.388168 l -0.02068,0.252612 -1.139176,-0.02335 c -1.274362,-0.02612 -1.416263,0.0055 -1.416263,0.31552 0,0.144775 0.03498,0.198466 0.145563,0.223409 0.143364,0.03234 1.470303,0.09492 2.070229,0.09763 0.291986,0.0013 0.307254,0.01026 0.306413,0.179301 -6.47e-4,0.09785 -0.01861,0.244092 -0.04028,0.324981 -0.03699,0.138049 -0.04479,0.140033 -0.127274,0.03235 -0.07677,-0.100233 -0.0962,-0.102466 -0.153799,-0.01768 -0.0586,0.08626 -0.07325,0.08626 -0.131847,0 -0.05758,-0.08476 -0.07708,-0.08247 -0.154083,0.01807 -0.08452,0.110359 -0.09013,0.110359 -0.135697,0 -0.03347,-0.08106 -0.05673,-0.09039 -0.07864,-0.03155 -0.025,0.06717 -0.05029,0.06764 -0.128859,0.0024 -0.08024,-0.0666 -0.113875,-0.05907 -0.187789,0.04201 -0.07915,0.108239 -0.09004,0.1099 -0.09004,0.01373 0,-0.06017 -0.04367,-0.109407 -0.09704,-0.109407 -0.05337,0 -0.09704,0.04923 -0.09704,0.109407 0,0.09547 -0.01221,0.09341 -0.09581,-0.01617 -0.08342,-0.109335 -0.10498,-0.113026 -0.166659,-0.02854 -0.05339,0.07312 -0.07894,0.07711 -0.103667,0.01617 -0.04872,-0.120061 -0.216113,-0.09796 -0.216113,0.02854 0,0.09585 -0.01253,0.09384 -0.101104,-0.01617 -0.07423,-0.0922 -0.110298,-0.103366 -0.135684,-0.04201 -0.02654,0.06417 -0.05564,0.06608 -0.12532,0.0083 -0.06932,-0.05753 -0.113669,-0.0563 -0.187796,0.0052 -0.06705,0.05564 -0.09704,0.05809 -0.09704,0.0079 0,-0.100265 -0.193586,-0.09212 -0.196141,0.0083 -0.0012,0.0447 -0.04621,0.023 -0.100782,-0.04852 -0.09568,-0.125412 -0.100826,-0.12567 -0.167235,-0.0084 -0.0554,0.09781 -0.07946,0.104007 -0.12565,0.03235 -0.0482,-0.07477 -0.06603,-0.07484 -0.113999,-4.53e-4 -0.04801,0.07446 -0.06181,0.07446 -0.08859,0 -0.02662,-0.07401 -0.05529,-0.07423 -0.178241,-0.0014 -0.12257,0.07264 -0.1555,0.07264 -0.201543,0 -0.03027,-0.04776 -0.05548,-0.123222 -0.05603,-0.1677 -0.0017,-0.143336 -0.185363,-0.08588 -0.206744,0.0647 -0.02008,0.141317 -0.04238,0.145563 -0.764665,0.145563 -0.578228,0 -0.76055,-0.02122 -0.818316,-0.09523 -0.05834,-0.07475 -0.350496,-0.106408 -1.358588,-0.147222 -0.706342,-0.0286 -1.410835,-0.04397 -1.565539,-0.03416 l -0.281273,0.01783 -0.146475,0.452863 c -0.08056,0.249074 -0.196161,0.627538 -0.25689,0.84103 -0.06072,0.213492 -0.16259,0.533731 -0.226366,0.711641 l -0.115959,0.323473 h -0.963245 c -0.949666,0 -0.963536,-0.002 -0.983921,-0.145563 -0.01788,-0.125939 -0.05931,-0.145563 -0.3073,-0.145563 -0.200321,0 -0.286623,0.02683 -0.286623,0.08912 0,0.139037 -0.174171,0.249393 -0.320368,0.202991 -0.07332,-0.02327 -0.132495,-0.09789 -0.132495,-0.167082 0,-0.186015 -0.490715,-0.182124 -0.549904,0.0044 -0.05851,0.184363 -0.420515,0.184363 -0.420515,0 0,-0.109929 -0.04313,-0.129389 -0.286767,-0.129389 -0.232647,0 -0.294741,0.02513 -0.329026,0.133151 -0.06055,0.190773 -0.378928,0.14994 -0.407648,-0.05228 -0.01741,-0.12262 -0.06056,-0.145563 -0.273719,-0.145563 -0.217405,0 -0.25889,0.02328 -0.294527,0.165272 -0.03322,0.132342 -0.07535,0.161345 -0.21149,0.145563 -0.119447,-0.01385 -0.176159,-0.063 -0.190683,-0.165272 -0.01775,-0.124999 -0.0597,-0.145563 -0.296916,-0.145563 -0.234657,0 -0.28777,0.0253 -0.352824,0.168082 -0.05121,0.112404 -0.109983,0.155264 -0.177412,0.129389 -0.05546,-0.02127 -0.127561,-0.03868 -0.160234,-0.03868 -0.03267,0 -0.0594,-0.05823 -0.0594,-0.129389 0,-0.110611 -0.04313,-0.12939 -0.297182,-0.12939 -0.242775,0 -0.303378,0.02369 -0.331019,0.12939 -0.04709,0.180071 -0.342219,0.180071 -0.342219,0 0,-0.09983 -0.04313,-0.12939 -0.188792,-0.12939 -0.103836,0 -0.233624,-0.0172 -0.288417,-0.03823 -0.06921,-0.02656 -0.112469,0.01295 -0.141694,0.129389 -0.05833,0.232387 -0.329562,0.233786 -0.417628,0.0022 -0.05583,-0.14684 -0.09388,-0.163225 -0.338046,-0.145563 -0.228755,0.01655 -0.278621,0.04444 -0.295809,0.165465 -0.03016,0.212332 -0.317382,0.200714 -0.399842,-0.01617 -0.04965,-0.130592 -0.105711,-0.161737 -0.291126,-0.161737 -0.187808,0 -0.24129,0.03066 -0.293627,0.168313 -0.04373,0.115022 -0.09611,0.15599 -0.165426,0.12939 -0.05579,-0.02141 -0.128166,-0.03893 -0.160838,-0.03893 -0.03267,0 -0.0594,-0.05823 -0.0594,-0.129389 0,-0.112137 -0.04313,-0.129389 -0.323473,-0.129389 -0.280343,0 -0.323473,0.01725 -0.323473,0.129389 0,0.178292 -0.358307,0.185872 -0.404675,0.0086 -0.02041,-0.07804 -0.108989,-0.132587 -0.25015,-0.154033 -0.263108,-0.03997 -0.315595,-0.01515 -0.315595,0.149291 0,0.09621 -0.04509,0.125571 -0.192852,0.125571 -0.151753,0 -0.201501,-0.03447 -0.233444,-0.161736 -0.03466,-0.138077 -0.07766,-0.161737 -0.29396,-0.161737 -0.21073,0 -0.263714,0.02722 -0.314858,0.161737 -0.08543,0.224682 -0.358343,0.224682 -0.414735,0 -0.03574,-0.142417 -0.07522,-0.161737 -0.330486,-0.161737 -0.23798,0 -0.289894,0.02124 -0.289894,0.118607 0,0.162868 -0.04166,0.191327 -0.227951,0.155715 -0.102941,-0.01968 -0.160217,-0.07419 -0.160217,-0.152475 0,-0.101282 -0.04914,-0.121847 -0.291126,-0.121847 -0.247996,0 -0.291126,0.01917 -0.291126,0.129389 0,0.104744 -0.04313,0.12939 -0.226431,0.12939 -0.183301,0 -0.226431,-0.02465 -0.226431,-0.12939 0,-0.09372 -0.04313,-0.129389 -0.156445,-0.129389 -0.08604,0 -0.201819,-0.01741 -0.257275,-0.03869 -0.06743,-0.02588 -0.126198,0.01699 -0.177413,0.129389 -0.07592,0.166626 -0.08295,0.168082 -0.811788,0.168082 -0.723327,0 -0.736191,-0.0026 -0.796272,-0.16062 l -0.06107,-0.160619 -0.923924,0.03893 c -0.570591,0.02404 -0.948666,0.06746 -0.98862,0.113535 -0.04613,0.0532 -0.435962,0.06793 -1.358587,0.05135 -1.272935,-0.02288 -1.297561,-0.02077 -1.520325,0.130062 -0.147747,0.100042 -0.259669,0.24874 -0.32208,0.427911 l -0.09565,0.274591 -0.285557,-0.04282 c -0.322995,-0.04844 -0.33265,0.06514 -0.01153,0.135671 0.238726,0.05243 0.255037,0.142079 0.138224,0.759685 l -0.09461,0.500209 -0.24665,-0.03944 c -0.292174,-0.04672 -0.344728,0.07466 -0.05945,0.13732 0.183573,0.04032 0.187716,0.05075 0.21405,0.538871 0.02948,0.546501 0.0048,0.592275 -0.320378,0.593807 -0.232324,0.0011 -0.283818,0.09605 -0.08087,0.149125 0.111944,0.02928 0.129662,0.08917 0.131414,0.444234 0.0011,0.225719 0.02869,1.007207 0.06129,1.736639 0.09254,2.070938 0.212272,2.662001 1.67683,8.277861 0.143393,0.549843 0.254488,1.003342 0.246878,1.007775 -0.101478,0.05913 -0.46401,0.161041 -0.693129,0.194851 -0.313334,0.04624 -3.17508,0.762923 -3.27281,0.819631 -0.03243,0.01882 -0.204527,0.06769 -0.382438,0.108602 -0.17791,0.04091 -0.561224,0.132034 -0.851809,0.20249 -0.623569,0.151192 -0.531711,0.149315 -0.747856,0.01528 z m -13.195136,-4.820145 -0.02027,-0.210258 h -0.420515 -0.420515 l -0.02027,0.210258 -0.02027,0.210257 h 0.461061 0.461061 z m 7.767259,-6.492508 c 0.76951,-0.19948 1.480455,-0.404681 1.579879,-0.456004 0.317141,-0.163707 0.433315,-0.441358 0.433586,-1.03626 l 2.42e-4,-0.528714 -0.226431,-0.07473 c -0.208786,-0.0689 -0.226431,-0.09498 -0.226431,-0.334547 0,-0.20541 0.02709,-0.266903 0.129389,-0.293654 0.194624,-0.05089 0.15622,-0.185694 -0.09759,-0.34256 -0.205978,-0.127301 -0.343682,-0.143666 -1.487977,-0.176836 -0.929505,-0.02694 -1.260993,-0.01696 -1.260993,0.03797 0,0.04098 0.05823,0.07452 0.129389,0.07452 0.07116,0 0.129374,0.0073 0.129357,0.01617 -1.8e-5,0.0089 -0.05824,0.169328 -0.129389,0.356515 -0.139643,0.367403 -0.169431,0.944066 -0.06718,1.300582 0.0342,0.119232 0.182383,0.376003 0.329306,0.5706 0.294528,0.390101 0.298252,0.493954 0.01036,0.288956 -0.521741,-0.371512 -0.909424,-0.987034 -0.965816,-1.533419 -0.02945,-0.285354 -0.0123,-0.372002 0.102569,-0.518027 0.07586,-0.09645 0.137934,-0.244212 0.137934,-0.328368 0,-0.126884 -0.03314,-0.153012 -0.194084,-0.153012 -0.106746,0 -0.194084,-0.02911 -0.194084,-0.0647 0,-0.130745 -0.618707,-0.07078 -0.847637,0.08216 -0.384334,0.256752 -0.446041,0.471474 -0.446155,1.55247 l -1.3e-4,0.955335 0.3073,0.298291 c 0.55653,0.540214 0.776071,0.669952 1.13369,0.669952 0.181251,0 0.932753,-0.158386 1.720875,-0.36269 z M 3.9411364,16.169876 c -0.025846,-0.507044 -0.076811,-0.958289 -0.1132562,-1.002767 -0.036445,-0.04448 -0.192681,-0.08087 -0.3471914,-0.08087 -0.3847065,0 -0.4156229,0.08074 -0.3472454,0.906902 0.030869,0.372964 0.057394,0.772733 0.058945,0.888374 l 0.00282,0.210258 H 3.5916688 3.9881294 Z M 67.108894,12.921363 c 0.310625,-0.160632 0.359612,-0.526666 0.104611,-0.781669 -0.122272,-0.12227 -0.226806,-0.158796 -0.454467,-0.158796 -0.255847,0 -0.303948,0.02178 -0.357159,0.161737 -0.03382,0.08896 -0.09132,0.161736 -0.127785,0.161736 -0.09169,0 -0.07957,0.333368 0.01663,0.457559 0.198005,0.255607 0.513359,0.317059 0.818174,0.159433 z m -4.823347,-0.191449 c 0.0904,-0.118519 0.146213,-0.233639 0.124031,-0.255822 -0.02218,-0.02218 -0.461681,-0.04033 -0.976664,-0.04033 -0.815874,0 -0.947388,0.01456 -1.022274,0.113216 -0.04727,0.06227 -0.08687,0.162938 -0.088,0.22371 -0.0021,0.115102 -0.0027,0.115039 1.399628,0.161501 0.382444,0.01267 0.405705,0.0043 0.56328,-0.202273 z m 2.783169,0.11907 c 0.07468,-0.194618 0.03781,-0.22114 -0.307489,-0.22114 -0.294357,0 -0.365113,-0.02444 -0.468218,-0.161736 -0.107953,-0.143752 -0.164713,-0.160565 -0.510445,-0.151192 l -0.388986,0.01055 0.35582,0.0436 0.355821,0.04361 -0.368326,0.01054 c -0.300289,0.0086 -0.386929,0.03711 -0.469036,0.15433 -0.05539,0.07908 -0.100711,0.195531 -0.100711,0.258779 0,0.104869 0.08198,0.114994 0.931151,0.114994 0.789407,0 0.937127,-0.01558 0.970419,-0.102335 z m -5.59386,-0.132822 c 0.259081,-0.329369 0.218398,-0.347096 -0.796547,-0.347096 -0.917742,0 -0.932079,0.0022 -1.035114,0.15946 -0.209207,0.319289 -0.163059,0.336398 0.94211,0.349287 0.743733,0.0087 0.757549,0.0062 0.889551,-0.161651 z m -2.773523,-0.0398 c 0.06679,-0.08006 0.122402,-0.177898 0.123586,-0.21742 0.0027,-0.08966 -0.506171,-0.153276 -1.231943,-0.154012 -0.505442,-5.17e-4 -0.568044,0.01353 -0.703652,0.157883 -0.08581,0.09134 -0.132545,0.200938 -0.11035,0.258779 0.03218,0.08385 0.183245,0.100333 0.919714,0.100333 0.834739,0 0.887615,-0.0077 1.002645,-0.145563 z M 68.869177,9.7281784 c 0.02269,-0.02417 0.06158,-0.111143 0.08643,-0.193278 0.04335,-0.143296 0.03253,-0.148528 -0.267681,-0.129389 -0.273671,0.01745 -0.315593,0.03929 -0.334691,0.174366 -0.01201,0.08493 0.01711,0.179837 0.0647,0.210901 0.08795,0.05741 0.376121,0.01744 0.451251,-0.0626 z"
   id="path117" /></svg>
