<?xml version="1.0" encoding="UTF-8" standalone="no"?>
<!-- Generator: Adobe Illustrator 16.0.0, SVG Export Plug-In . SVG Version: 6.00 Build 0)  -->

<svg
   version="1.1"
   x="0px"
   y="0px"
   width="25.458px"
   height="32px"
   viewBox="0 0 25.458 32"
   enable-background="new 0 0 25.458 32"
   xml:space="preserve"
   id="svg657"
   sodipodi:docname="decoy.svg"
   inkscape:version="1.2.1 (9c6d41e410, 2022-07-14)"
   xmlns:inkscape="http://www.inkscape.org/namespaces/inkscape"
   xmlns:sodipodi="http://sodipodi.sourceforge.net/DTD/sodipodi-0.dtd"
   xmlns="http://www.w3.org/2000/svg"
   xmlns:svg="http://www.w3.org/2000/svg"><defs
   id="defs661" /><sodipodi:namedview
   id="namedview659"
   pagecolor="#ffffff"
   bordercolor="#000000"
   borderopacity="0.25"
   inkscape:showpageshadow="2"
   inkscape:pageopacity="0.0"
   inkscape:pagecheckerboard="0"
   inkscape:deskcolor="#d1d1d1"
   showgrid="false"
   inkscape:zoom="18.495262"
   inkscape:cx="11.840871"
   inkscape:cy="13.571043"
   inkscape:window-width="1920"
   inkscape:window-height="1017"
   inkscape:window-x="-8"
   inkscape:window-y="-8"
   inkscape:window-maximized="1"
   inkscape:current-layer="svg657" />

<g
   id="guides">
</g>
<path
   style="fill:#ffffff;stroke-width:0.0444406"
   d="M 9.6876608,30.786933 C 7.8137779,30.541133 6.9728954,30.111407 5.4263379,28.609232 4.5629099,27.770581 3.773414,26.820314 3.3804847,26.146764 3.2286005,25.886408 2.9901043,25.305207 2.8494056,24.852552 2.7823412,24.636796 2.7007364,23.50504 2.7308429,23.208255 c 0.013644,-0.134432 0.034019,-0.61439 0.045294,-1.066571 0.02116,-0.848639 0.1151434,-1.643256 0.317381,-2.683333 0.1568611,-0.806722 0.3722453,-1.43206 0.6502048,-1.887783 0.2851737,-0.467548 0.8775786,-1.078047 1.277691,-1.316711 0.7189519,-0.428849 0.9140759,-0.583446 0.9693815,-0.768038 0.029011,-0.09683 0.052748,-0.247552 0.052748,-0.334933 0,-0.08738 0.019996,-0.171233 0.044443,-0.186339 0.074871,-0.04627 0.049448,-0.147964 -0.044443,-0.177762 -0.08496,-0.02697 -0.08888,-0.06724 -0.08888,-0.913178 v -0.884968 l 0.1147626,-0.02881 c 0.1049374,-0.02633 0.1138094,-0.04638 0.1036311,-0.234155 -0.01992,-0.367534 -0.033565,-0.360897 0.7418318,-0.360897 h 0.6840718 v -0.777709 c 0,-0.77523 -2.975e-4,-0.777726 -0.099992,-0.783292 -0.054995,-0.0031 -0.3899653,-0.01807 -0.7443772,-0.03332 l -0.6443862,-0.02776 -0.028136,-0.288863 c -0.015475,-0.158877 -0.030397,-0.6288356 -0.033163,-1.0443523 -0.00449,-0.6731566 0.0043,-0.770796 0.08062,-0.8959522 0.047111,-0.07726 0.1220266,-0.1507621 0.1664861,-0.1633519 0.3092293,-0.087547 1.9377183,-0.23217 2.022726,-0.1796348 0.063489,0.039258 0.4356765,-0.084993 0.4356765,-0.1454222 0,-0.029703 -0.039997,-0.066659 -0.088881,-0.082171 -0.08671,-0.027522 -0.088882,-0.067236 -0.088882,-1.6258151 V 4.7195211 L 8.0989182,4.1209295 7.6211823,3.5223438 7.3190023,3.5218703 C 6.9695956,3.5209563 6.8281899,3.4612766 6.6223101,3.2267935 6.5008817,3.0884942 6.3546287,2.8269355 6.3546287,2.7480716 c 0,-0.0113 0.044817,-0.026961 0.099594,-0.034763 0.081403,-0.01159 0.1049032,-0.051512 0.1286641,-0.2184973 C 6.6282098,2.1763239 6.7257312,2.0282438 6.9425181,1.9487418 7.1858407,1.8595106 7.7148072,1.7147605 8.7988551,1.4407623 l 0.8665907,-0.219036 0.5110642,0.059414 c 0.281087,0.032677 0.645811,0.061931 0.8105,0.065005 0.164688,0.00282 1.124603,0.090394 2.133143,0.1940509 1.39229,0.143095 1.8751,0.2081394 2.005659,0.2701945 0.268122,0.127436 0.513229,0.4844075 0.801248,1.1669328 0.326516,0.7737563 0.398159,0.8629917 0.682018,0.8494422 0.354848,-0.016933 0.8856,0.093033 1.011318,0.2095486 0.125273,0.1160991 0.143348,0.19599 0.04433,0.19599 -0.03666,0 -0.06666,0.020007 -0.06666,0.044459 0,0.024452 0.03,0.044459 0.06666,0.044459 0.04585,0 0.06666,0.046021 0.06666,0.1473655 0,0.1376987 0.01676,0.154191 0.255533,0.2514764 1.206604,0.4916192 2.472069,1.345706 3.455511,2.3321947 0.624957,0.6268968 1.051496,1.1865922 1.305469,1.7130115 0.146489,0.3036377 0.16071,0.3669274 0.159769,0.711049 -0.0013,0.5074778 -0.08512,0.6749246 -0.44129,0.8824676 -0.218112,0.127104 -0.321445,0.15782 -0.588594,0.174965 -0.821172,0.0527 -2.131198,-0.432552 -3.332058,-1.2342356 -0.259128,-0.1729947 -0.476509,-0.3089718 -0.483068,-0.3021755 -0.0066,0.00681 0.366847,1.9021831 0.829797,4.2119771 0.46295,2.309793 0.870109,4.389607 0.904794,4.621809 0.03469,0.232202 0.08577,0.832147 0.113515,1.333214 0.02922,0.527769 0.08564,1.075884 0.134112,1.302898 0.12722,0.59582 0.206866,1.680806 0.137467,1.872723 -0.06364,0.176008 -0.07016,1.199135 -0.01315,2.068355 0.02168,0.33051 0.0197,0.604678 -0.0049,0.67691 -0.02271,0.06677 -0.06445,0.355327 -0.09277,0.64123 -0.04942,0.498957 -0.05597,0.521025 -0.16323,0.549672 -0.06147,0.01642 -0.204893,0.0027 -0.318735,-0.03051 -0.173746,-0.05066 -0.211684,-0.08171 -0.236202,-0.193341 -0.05084,-0.231491 -0.159875,-0.156901 -0.466549,0.319172 -0.595417,0.924315 -1.501928,2.060145 -2.257987,2.829187 -0.548612,0.558033 -0.626659,0.612623 -1.297786,0.907689 -0.742604,0.326493 -1.184362,0.461176 -1.954846,0.595997 -0.568195,0.09942 -0.796771,0.114604 -1.933162,0.128373 -0.920345,0.01116 -1.422169,-0.0019 -1.7553992,-0.04559 z M 17.329807,15.997788 c -9.14e-4,-0.03055 -0.148975,-0.495511 -0.329078,-1.033241 l -0.32746,-0.97769 -0.0042,0.383671 c -0.0039,0.352438 -0.01195,0.385687 -0.09898,0.408448 -0.0756,0.01977 -0.08827,0.04552 -0.0627,0.127395 0.0312,0.09987 0.11332,0.533311 0.122994,0.649202 0.0047,0.05648 0.59445,0.497765 0.665221,0.497765 0.01971,0 0.03511,-0.02499 0.03421,-0.05555 z m -1.200405,-3.688559 c -0.0012,-0.03055 -0.106879,-0.375522 -0.234907,-0.766599 l -0.232774,-0.711046 -0.18728,-0.01368 -0.187279,-0.01368 v 0.780264 0.780263 h 0.422185 c 0.309255,0 0.421614,-0.01486 0.420055,-0.05555 z M 22.06054,9.9606362 C 22.387799,9.8697734 22.472463,9.6148641 22.330645,9.1473743 21.991163,8.0283282 20.179525,6.3176714 18.420214,5.4549156 17.797866,5.1497225 17.722767,5.1306105 17.664727,5.262696 c -0.05921,0.1347516 -0.225051,0.2123535 -0.455514,0.2131528 -0.10388,2.974e-4 -0.188873,0.021801 -0.188873,0.047607 0,0.025823 0.102316,0.2808037 0.22737,0.5666198 0.313191,0.7158114 0.383157,0.9275169 0.509213,1.5407687 0.126487,0.6153663 0.06319,0.5381059 0.91175,1.1128837 0.948013,0.6421453 1.866883,1.0609354 2.632636,1.1998732 0.406083,0.07368 0.544062,0.07678 0.759231,0.01702 z"
   id="path749" /></svg>
