<?xml version="1.0" encoding="UTF-8" standalone="no"?>
<svg
   xmlns:dc="http://purl.org/dc/elements/1.1/"
   xmlns:cc="http://creativecommons.org/ns#"
   xmlns:rdf="http://www.w3.org/1999/02/22-rdf-syntax-ns#"
   xmlns:svg="http://www.w3.org/2000/svg"
   xmlns="http://www.w3.org/2000/svg"
   xmlns:sodipodi="http://sodipodi.sourceforge.net/DTD/sodipodi-0.dtd"
   xmlns:inkscape="http://www.inkscape.org/namespaces/inkscape"
   version="1.1"
   x="0px"
   y="0px"
   width="44.875px"
   height="32px"
   viewBox="0 0 44.875 32"
   enable-background="new 0 0 44.875 32"
   xml:space="preserve"
   id="svg356"
   sodipodi:docname="x16.svg"
   inkscape:version="1.0.2-2 (e86c870879, 2021-01-15)"><metadata
   id="metadata362"><rdf:RDF><cc:Work
       rdf:about=""><dc:format>image/svg+xml</dc:format><dc:type
         rdf:resource="http://purl.org/dc/dcmitype/StillImage" /></cc:Work></rdf:RDF></metadata><defs
   id="defs360" /><sodipodi:namedview
   pagecolor="#ffffff"
   bordercolor="#666666"
   borderopacity="1"
   objecttolerance="10"
   gridtolerance="10"
   guidetolerance="10"
   inkscape:pageopacity="0"
   inkscape:pageshadow="2"
   inkscape:window-width="1842"
   inkscape:window-height="1051"
   id="namedview358"
   showgrid="false"
   inkscape:zoom="19.145064"
   inkscape:cx="4.8297555"
   inkscape:cy="20.64033"
   inkscape:window-x="-9"
   inkscape:window-y="-9"
   inkscape:window-maximized="1"
   inkscape:current-layer="svg356" />

<g
   id="guides">
</g>
<path
   style="fill:#ffffff;stroke-width:0.0528767"
   d="m 2.9138667,30.842994 c -0.044579,-0.01799 -0.066096,-0.154968 -0.066096,-0.420783 v -0.394114 l 0.3172605,-0.326242 c 0.4561348,-0.469047 0.4428637,-0.494967 -0.2707391,-0.528791 -0.3233998,-0.01533 -0.6029855,-0.05148 -0.6213016,-0.08033 -0.018316,-0.02885 -0.1344288,-0.06937 -0.2580283,-0.09002 -0.1235993,-0.02066 -0.224726,-0.05738 -0.224726,-0.08159 0,-0.02421 -0.071242,-0.05968 -0.1583152,-0.0788 -0.087073,-0.01912 -0.1763029,-0.06265 -0.1982877,-0.09674 -0.044058,-0.06829 -0.3610727,-0.299908 -0.4104934,-0.299908 -0.017107,0 -0.083506,-0.05387 -0.14755212,-0.119712 -0.0640463,-0.06584 -0.1818828,-0.153143 -0.26185886,-0.194004 -0.1451071,-0.07413 -0.145411,-0.07549 -0.145411,-0.647001 0,-0.328432 0.0215314,-0.572709 0.0504808,-0.572709 0.0277644,0 0.0661043,-0.08328 0.0851998,-0.185068 0.0190955,-0.101788 0.0558656,-0.185068 0.0817111,-0.185068 0.0258457,0 0.046992,-0.0357 0.046992,-0.07932 0,-0.04362 0.0331461,-0.07932 0.0736579,-0.07932 0.0756143,0 0.13784897,-0.109377 0.13784897,-0.242269 0,-0.04124 -0.0356917,-0.07499 -0.079315,-0.07499 -0.0436233,0 -0.0793151,-0.03569 -0.0793151,-0.07932 0,-0.04362 0.0237946,-0.07932 0.0528768,-0.07932 0.0290822,0 0.0528767,-0.03569 0.0528767,-0.07932 0,-0.04362 0.0356918,-0.07932 0.079315,-0.07932 0.052877,0 0.0793149,-0.05287 0.0793149,-0.15863 0,-0.141804 -0.017217,-0.158631 -0.16230772,-0.158631 -0.13807453,0 -0.15978505,-0.01777 -0.14541102,-0.118973 0.0135208,-0.0952 0.0591562,-0.124254 0.22840367,-0.145411 0.16744307,-0.02094 0.21150697,-0.04847 0.21150697,-0.132192 0,-0.07606 -0.040828,-0.110451 -0.145411,-0.122484 -0.12178282,-0.01399 -0.14541108,-0.04192 -0.14541108,-0.171826 0,-0.145721 0.0128146,-0.155118 0.21150688,-0.155118 0.1163288,0 0.2115069,-0.0238 0.2115069,-0.05287 0,-0.02908 -0.045986,-0.05287 -0.1021902,-0.05287 -0.1165574,0 -0.1853923,-0.160867 -0.1357551,-0.317261 0.024977,-0.0787 0.080004,-0.105753 0.2150702,-0.105753 0.1260869,0 0.1815053,-0.02421 0.1815053,-0.07932 0,-0.04362 -0.034288,-0.07932 -0.076195,-0.07932 -0.1080367,0 -0.1505409,-0.09075 -0.1128447,-0.24095 0.030919,-0.12319 0.1890392,-0.187019 0.1890392,-0.07631 0,0.02908 0.059487,0.05287 0.1321919,0.05287 0.1057534,0 0.1321917,-0.02644 0.1321917,-0.132191 0,-0.11163 -0.024676,-0.132192 -0.1586301,-0.132192 -0.1614268,0 -0.1836896,-0.0318 -0.1265347,-0.180744 0.022527,-0.0587 0.1013456,-0.08364 0.2643838,-0.08364 0.2125227,0 0.232288,-0.01125 0.232288,-0.132192 0,-0.111628 -0.024676,-0.132191 -0.1586302,-0.132191 -0.1057535,0 -0.1586301,-0.02644 -0.1586301,-0.07932 0,-0.04362 0.023795,-0.07932 0.052877,-0.07932 0.029082,0 0.052877,-0.0357 0.052877,-0.07932 0,-0.05763 0.05938,-0.07932 0.2171641,-0.07932 0.1763013,0 0.2111249,-0.01574 0.1850686,-0.08364 -0.017653,-0.046 -0.032096,-0.09359 -0.032096,-0.105754 0,-0.01216 -0.04759,-0.02211 -0.1057535,-0.02211 -0.1211832,0 -0.1341147,-0.0904 -0.032146,-0.224726 0.07642,-0.100666 0.1907768,-0.124443 0.1907768,-0.03966 0,0.08682 0.2504101,0.05981 0.2851648,-0.03076 0.055188,-0.143817 0.037269,-0.168003 -0.1505671,-0.203242 -0.1442795,-0.02707 -0.1754568,-0.0533 -0.1483697,-0.124857 0.045197,-0.119397 0.1724023,-0.247545 0.1724023,-0.173682 0,0.08362 0.3125973,0.06887 0.4003524,-0.01888 0.1191572,-0.119157 0.089985,-0.174367 -0.1121757,-0.212292 -0.1631808,-0.03061 -0.1830543,-0.05038 -0.1520615,-0.151296 0.049668,-0.161713 0.056227,-0.165424 0.2672852,-0.151209 0.4029235,0.02713 0.5547485,-0.162916 0.1782436,-0.223122 -0.1163288,-0.0186 -0.211507,-0.05734 -0.211507,-0.08607 0,-0.02874 0.021019,-0.05226 0.04671,-0.05226 0.02569,0 0.058476,-0.045 0.072856,-0.09999 0.022296,-0.08526 0.062141,-0.09593 0.2705507,-0.07244 0.2185174,0.02463 0.2444039,0.01632 0.2444039,-0.07848 0,-0.0755 -0.045667,-0.115154 -0.1586303,-0.137746 -0.1452839,-0.02905 -0.2291077,-0.140124 -0.1057535,-0.140124 0.029082,0 0.052877,-0.03569 0.052877,-0.07932 0,-0.08985 0.2382455,-0.111509 0.290822,-0.02644 0.05101,0.08254 0.2231016,0.06208 0.2587264,-0.03076 0.055261,-0.144009 0.037237,-0.16801 -0.1529729,-0.203694 -0.2109743,-0.03958 -0.2242032,-0.07438 -0.087985,-0.231438 0.067339,-0.07765 0.1139666,-0.09506 0.1521886,-0.05683 0.072346,0.07235 0.3445667,0.03893 0.3723578,-0.0457 0.014211,-0.04328 -0.03458,-0.0661 -0.1413333,-0.0661 -0.1060471,0 -0.1630365,-0.0264 -0.1630365,-0.07554 0,-0.137498 0.161223,-0.241723 0.3739141,-0.241723 0.1724788,0 0.20773,-0.01795 0.20773,-0.105753 0,-0.07846 -0.035251,-0.105754 -0.1365983,-0.105754 -0.09046,0 -0.1261914,-0.02232 -0.1057875,-0.0661 0.016946,-0.03635 0.045827,-0.108994 0.064182,-0.161425 0.026241,-0.07496 0.079912,-0.09191 0.2511985,-0.07932 0.2012466,0.0148 0.2190657,0.0054 0.2340894,-0.124526 0.0139,-0.120137 -0.00823,-0.145922 -0.152451,-0.177598 -0.092792,-0.02038 -0.1449571,-0.05232 -0.1159226,-0.07096 0.029035,-0.01865 0.069497,-0.08744 0.089918,-0.152882 0.036996,-0.118546 0.1357554,-0.16663 0.1357554,-0.0661 0,0.02909 0.083281,0.05287 0.1850686,0.05287 0.1621553,0 0.1850685,-0.01637 0.1850685,-0.132192 0,-0.111629 -0.024676,-0.132191 -0.1586301,-0.132191 -0.1744927,0 -0.2022782,-0.06966 -0.07754,-0.194398 0.057742,-0.05774 0.1338644,-0.07119 0.2643836,-0.0467 0.1606043,0.03013 0.1832938,0.021 0.1832938,-0.07377 0,-0.07407 -0.034444,-0.10815 -0.1093168,-0.10815 -0.089115,0 -0.1024554,-0.02199 -0.072188,-0.118972 0.020421,-0.06544 0.054727,-0.130871 0.076235,-0.145412 0.021509,-0.01454 0.055885,-0.10377 0.076389,-0.198288 0.020506,-0.09452 0.057296,-0.171848 0.081757,-0.171848 0.024461,0 0.060152,-0.07138 0.079315,-0.15863 0.019162,-0.08725 0.052945,-0.158631 0.075071,-0.158631 0.022126,0 0.071625,-0.13087 0.1099974,-0.290822 0.038372,-0.159952 0.087871,-0.290822 0.1099973,-0.290822 0.022126,0 0.055909,-0.07138 0.075071,-0.15863 0.019162,-0.08724 0.054097,-0.15863 0.077631,-0.15863 0.023535,0 0.058414,-0.08328 0.07751,-0.185069 0.019095,-0.101788 0.054394,-0.185069 0.078441,-0.185069 0.024048,0 0.058943,-0.09518 0.077544,-0.211507 0.018601,-0.116328 0.054084,-0.211506 0.078847,-0.211506 0.024765,0 0.076496,-0.148716 0.1149577,-0.33048 0.067165,-0.317411 0.1457838,-0.462672 0.25041,-0.462672 0.026984,0 0.064999,-0.171491 0.08448,-0.381093 0.01948,-0.209601 0.06372,-0.398584 0.098309,-0.419961 0.086413,-0.05341 0.093139,-2.146364 0.00708,-2.201365 -0.032699,-0.02089 -0.07623,-0.115324 -0.096735,-0.209841 -0.020506,-0.09452 -0.059187,-0.17185 -0.085959,-0.17185 -0.026771,0 -0.048675,-0.04782 -0.048675,-0.106271 0,-0.05845 -0.047589,-0.147018 -0.1057535,-0.19682 -0.058164,-0.04981 -0.1057534,-0.116033 -0.1057534,-0.147181 0,-0.068221 -0.4716906,-0.5211694 -0.5900117,-0.5665733 C 5.4371616,9.4330646 5.3835406,9.3551659 5.3640811,9.2776327 5.3257918,9.1250738 5.0939877,8.8812929 4.9872145,8.8812929 c -0.036265,0 -0.079633,-0.035695 -0.096373,-0.079316 -0.01674,-0.043621 -0.078772,-0.079316 -0.1378491,-0.079316 -0.059077,0 -0.107413,-0.021461 -0.107413,-0.047681 0,-0.026229 -0.1427671,-0.064252 -0.3172603,-0.084509 -0.1744933,-0.020257 -0.3172604,-0.05828 -0.3172604,-0.084509 0,-0.066186 -0.3571399,-0.060234 -0.3793258,0.00628 -0.028322,0.084965 -0.4161807,0.080348 -0.4705867,-0.00557 C 3.0828156,8.3829216 3.1018089,7.9301527 3.1866977,7.897578 3.227696,7.8818464 3.2746376,7.8155996 3.2910111,7.7503581 3.3278133,7.6037254 3.4759534,7.4320203 3.6080308,7.3829082 3.6897874,7.352508 3.7015679,7.3111139 3.6747088,7.1486331 3.6567663,7.0400883 3.6418243,6.8501542 3.6415034,6.7265539 3.641078,6.5623077 3.6195754,6.5018282 3.5616064,6.5018282 c -0.069144,0 -0.079315,-0.2639636 -0.079315,-2.0584156 0,-1.8007846 0.0104,-2.0688154 0.083092,-2.1415076 0.045701,-0.045701 0.1170842,-0.083092 0.1586303,-0.083092 0.041546,0 0.075538,-0.023795 0.075538,-0.052877 0,-0.032186 0.2379453,-0.052877 0.6080825,-0.052877 0.3701371,0 0.6080824,0.020691 0.6080824,0.052877 0,0.029082 0.032917,0.052877 0.073148,0.052877 0.076622,0 0.1364117,-0.1550461 0.1376369,-0.356918 3.971e-4,-0.065435 0.022366,-0.1189725 0.048821,-0.1189725 0.026454,0 0.076194,-0.1665618 0.110531,-0.3701372 0.034337,-0.2035755 0.084076,-0.3701371 0.1105309,-0.3701371 0.026455,0 0.048099,-0.0368276 0.048099,-0.0818388 0,-0.0668096 0.060632,-0.0789474 0.3301735,-0.0660959 l 0.3301734,0.0157427 0.043997,0.27760285 c 0.024199,0.1526817 0.062911,0.2776029 0.086029,0.2776029 0.023117,0 0.057684,0.1179947 0.076815,0.2622104 0.019131,0.1442157 0.057888,0.27649 0.086127,0.2939427 0.028239,0.017453 0.051344,0.089814 0.051344,0.1608035 0,0.079479 0.030475,0.1290711 0.079315,0.1290711 0.043623,0 0.079315,-0.035692 0.079315,-0.079315 0,-0.070085 0.7788827,-0.079315 6.6926827,-0.079315 5.87855,0 6.702333,0.00965 6.771999,0.079315 0.06888,0.068883 0.533503,0.079315 3.53249,0.079315 3.004981,0 3.461718,-0.010294 3.519,-0.079315 0.05792,-0.069788 0.925702,-0.079315 7.224148,-0.079315 7.123071,0 7.158323,-5.208e-4 7.158323,-0.1057534 0,-0.058164 0.02138,-0.1057535 0.04751,-0.1057535 0.02613,0 0.06423,-0.1665617 0.08468,-0.3701371 0.02045,-0.2035754 0.05855,-0.3701372 0.08468,-0.3701372 0.02613,0 0.04751,-0.058082 0.04751,-0.1290712 0,-0.0709895 0.02356,-0.14362976 0.05235,-0.16142355 0.02879,-0.0177937 0.329995,0.24684565 0.669343,0.58808765 0.613896,0.6173211 0.618417,0.6205577 0.899435,0.6438618 0.15534,0.012882 0.282436,0.04427 0.282436,0.069751 0,0.025481 0.04666,0.046329 0.103694,0.046329 0.145249,0 0.319321,0.2040836 0.319321,0.3743753 0,0.1083573 0.03197,0.1509524 0.132192,0.1761055 l 0.132191,0.033178 v 1.497492 1.4974919 l -0.134332,0.061206 c -0.130091,0.059273 -0.133848,0.074986 -0.118973,0.4975971 0.01521,0.4324272 0.01668,0.4365433 0.160771,0.4531222 l 0.145411,0.016734 v 0.6045707 0.6045706 h -0.15863 c -0.15389,0 -0.158652,0.00749 -0.159352,0.2511647 -9.36e-4,0.3264334 -0.04672,0.4891095 -0.137637,0.4891095 -0.05609,0 -0.07315,0.097123 -0.07315,0.4164041 0,0.5607226 -0.04005,0.7358292 -0.178145,0.7788846 -0.06197,0.019325 -0.129651,0.061671 -0.150397,0.094096 -0.02637,0.04123 -0.670661,0.0646 -2.141508,0.07769 -1.505136,0.01339 -2.114841,0.03596 -2.142634,0.07932 -0.02489,0.03883 -0.03914,0.02735 -0.03966,-0.03194 -4.46e-4,-0.05089 -0.0246,-0.09254 -0.05368,-0.09254 -0.02908,0 -0.05287,-0.07138 -0.05287,-0.1586304 V 9.7801889 h -0.475884 c -0.44064,0 -0.475891,0.00779 -0.475891,0.1057529 0,0.058168 -0.0238,0.105754 -0.05287,0.105754 -0.02908,0 -0.0529,0.065437 -0.05295,0.1454112 l -5.2e-5,0.14541 -3.10644,0.01872 c -1.763231,0.01062 -3.11406,0.0392 -3.124065,0.0661 -0.0097,0.02606 -0.254964,0.04739 -0.545025,0.04739 -0.528382,0 -0.997228,0.07753 -0.997228,0.164907 0,0.02563 -0.07213,0.0466 -0.16029,0.0466 -0.09067,0 -0.172969,0.03304 -0.189486,0.07609 -0.01606,0.04185 -0.09859,0.09132 -0.183409,0.109956 -0.08481,0.01863 -0.154212,0.05577 -0.154212,0.08254 0,0.02678 -0.03224,0.04867 -0.07164,0.04867 -0.101437,0 -0.545669,0.443727 -0.591646,0.590974 -0.0211,0.06757 -0.06075,0.137278 -0.08812,0.154899 -0.02736,0.01762 -0.06299,0.130644 -0.07915,0.251164 -0.0265,0.19758 -0.0183,0.219127 0.08332,0.219127 0.07746,0 0.112715,0.03307 0.112715,0.105754 0,0.08225 -0.03525,0.105753 -0.15863,0.105753 -0.123379,0 -0.15863,0.02351 -0.15863,0.105754 0,0.08225 0.03525,0.105753 0.15863,0.105753 0.133955,0 0.15863,0.02056 0.15863,0.132192 0,0.111629 -0.02467,0.132192 -0.15863,0.132192 -0.123379,0 -0.15863,0.0235 -0.15863,0.105754 0,0.07755 0.03525,0.105753 0.132191,0.105753 0.105754,0 0.132192,0.02644 0.132192,0.132191 0,0.105754 -0.02644,0.132192 -0.132192,0.132192 -0.105752,0 -0.132191,0.02644 -0.132191,0.132192 0,0.105754 0.02644,0.132192 0.132191,0.132192 0.105754,0 0.132192,0.02644 0.132192,0.132192 0,0.105754 -0.02644,0.132192 -0.132192,0.132192 -0.105752,0 -0.132191,0.02644 -0.132191,0.132191 0,0.111629 0.02468,0.132192 0.15863,0.132192 0.133955,0 0.15863,0.02056 0.15863,0.132192 0,0.09694 -0.0282,0.132192 -0.105753,0.132192 -0.07843,0 -0.105753,0.03525 -0.105753,0.136394 0,0.122666 0.01528,0.133038 0.151759,0.10306 0.123886,-0.02721 0.156967,-0.01341 0.180117,0.07512 0.01785,0.06825 0.0029,0.108445 -0.04035,0.108445 -0.0713,0 -0.1329,0.112301 -0.1329,0.24227 0,0.05045 0.06056,0.07499 0.185069,0.07499 0.162156,0 0.185069,0.01637 0.185069,0.132192 0,0.09842 -0.02796,0.132192 -0.109432,0.132192 -0.08323,0 -0.105386,0.02848 -0.09254,0.118973 0.01295,0.09119 0.05703,0.122842 0.188747,0.135542 0.142329,0.01373 0.171849,0.0387 0.171849,0.14541 0,0.107907 -0.02577,0.128843 -0.15863,0.128843 -0.115477,0 -0.158879,0.02518 -0.159544,0.09254 -5.29e-4,0.05089 -0.0574,0.146071 -0.126426,0.211506 -0.09905,0.09388 -0.18713,0.118973 -0.417693,0.118973 -0.160701,0 -0.300113,0.02147 -0.309808,0.0477 -0.0098,0.02667 -1.11914,0.0648 -2.516052,0.08648 -1.374133,0.02133 -2.498425,0.05934 -2.498425,0.08449 0,0.02515 -0.582966,0.04572 -1.29548,0.04572 -0.712514,0 -1.295479,-0.0206 -1.295479,-0.04577 0,-0.02518 -0.169263,-0.05788 -0.376138,-0.07269 -0.206877,-0.0148 -0.391997,-0.05257 -0.41138,-0.08393 -0.01939,-0.03136 -0.135655,-0.07308 -0.258383,-0.0927 -0.122727,-0.01963 -0.223141,-0.05193 -0.223141,-0.0718 0,-0.01986 -0.118973,-0.06661 -0.264384,-0.103881 -0.145411,-0.03726 -0.264384,-0.08827 -0.264384,-0.113355 0,-0.02507 -0.08328,-0.06121 -0.185068,-0.08032 -0.101788,-0.01909 -0.185068,-0.05587 -0.185068,-0.08171 0,-0.02585 -0.118973,-0.04699 -0.264384,-0.04699 -0.145411,0 -0.264384,0.02122 -0.264384,0.04714 0,0.02593 -0.06009,0.06223 -0.133537,0.08066 -0.234475,0.05885 -0.359492,0.235111 -0.38501,0.542825 -0.01283,0.154633 -0.04417,0.281151 -0.06965,0.281151 -0.02548,0 -0.04632,0.08328 -0.04632,0.185069 0,0.162155 -0.01637,0.185068 -0.132192,0.185068 -0.09694,0 -0.132192,0.0282 -0.132192,0.105754 0,0.0705 0.03525,0.105753 0.105754,0.105753 0.05817,0 0.105754,0.03374 0.105754,0.07499 0,0.165703 -0.06864,0.24227 -0.217165,0.24227 -0.117721,0 -0.152973,0.02437 -0.152973,0.105753 0,0.07163 0.03525,0.105754 0.109266,0.105754 0.088,0 0.10601,0.02829 0.09254,0.145411 -0.01394,0.121164 -0.04538,0.148173 -0.188581,0.16198 -0.12902,0.01244 -0.171848,0.04209 -0.171848,0.118973 0,0.06903 0.03647,0.102403 0.11192,0.102403 0.09026,0 0.10575,0.02302 0.08003,0.118973 -0.01753,0.06544 -0.03221,0.136818 -0.03261,0.15863 -4.23e-4,0.02182 -0.07211,0.03965 -0.159352,0.03965 -0.101688,0 -0.15863,0.02692 -0.15863,0.07499 0,0.132893 0.06224,0.24227 0.137849,0.24227 0.05314,0 0.07366,0.07366 0.07366,0.264383 0,0.145411 0.02379,0.264384 0.05287,0.264384 0.02908,0 0.05287,0.04759 0.05287,0.105754 0,0.05817 -0.0238,0.105753 -0.05287,0.105753 -0.02908,0 -0.05287,0.06023 -0.05287,0.133851 0,0.07637 -0.038,0.148435 -0.0885,0.167811 -0.09825,0.0377 -0.281642,0.207929 -0.281642,0.261421 0,0.0515 -0.357681,0.388698 -0.412302,0.388698 -0.05672,0 -0.275096,0.183313 -0.275096,0.230929 0,0.0184 0.03727,0.03346 0.08283,0.03346 0.05916,0 0.07805,0.04155 0.06609,0.145411 -0.01394,0.121164 -0.04538,0.148174 -0.18858,0.16198 -0.14233,0.01373 -0.171849,0.0387 -0.171849,0.145411 0,0.09504 0.02872,0.128842 0.10943,0.128842 0.08324,0 0.105388,0.02848 0.09254,0.118973 -0.01351,0.0952 -0.05915,0.124254 -0.228403,0.145411 -0.169247,0.02116 -0.214883,0.05021 -0.228404,0.145411 -0.01449,0.10202 0.0071,0.118973 0.151578,0.118973 0.148911,0 0.164773,0.01382 0.136593,0.118971 -0.01753,0.06544 -0.03221,0.13682 -0.03261,0.158631 -4.24e-4,0.02182 -0.08654,0.03965 -0.191448,0.03965 -0.152193,0 -0.184242,0.0169 -0.158631,0.08364 0.01765,0.046 0.0321,0.09359 0.0321,0.105753 0,0.01216 0.03292,0.02211 0.07315,0.02211 0.100929,0 0.136791,0.168215 0.137637,0.64558 l 7.2e-4,0.407635 -0.507161,0.504694 c -0.278938,0.277581 -0.564473,0.519078 -0.634521,0.536659 -0.160398,0.04026 -0.185248,0.284885 -0.02894,0.284885 0.077,0 0.09281,0.02937 0.07262,0.134924 -0.0221,0.115615 -0.04633,0.130413 -0.16931,0.103403 -0.191658,-0.04209 -0.31526,0.09023 -0.195836,0.20965 0.04443,0.04443 0.11406,0.08079 0.154724,0.08079 0.05207,0 0.06705,0.04691 0.05065,0.15863 -0.02097,0.142928 -0.169909,0.235625 -0.169909,0.105754 0,-0.07854 -0.155063,-0.064 -0.241722,0.02266 -0.09671,0.09671 -0.09561,0.135969 0.0037,0.135969 0.04362,0 0.07932,0.0238 0.07932,0.05287 0,0.02908 0.0357,0.05287 0.07932,0.05287 0.04362,0 0.07932,0.03739 0.07932,0.08309 0,0.0457 -0.0357,0.118784 -0.07932,0.162407 -0.04362,0.04362 -0.07932,0.05382 -0.07932,0.02266 0,-0.03116 -0.06978,-0.05665 -0.155067,-0.05665 -0.189074,0 -0.281729,0.190622 -0.142236,0.292623 0.0967,0.07071 0.112654,0.165502 0.03235,0.192267 -0.02939,0.0098 -0.06868,0.249725 -0.08729,0.533173 -0.01862,0.283449 -0.05406,0.515362 -0.07876,0.515362 -0.0247,0 -0.04511,0.06544 -0.04536,0.145411 -4.76e-4,0.149477 -0.315412,0.539812 -0.439106,0.544226 -0.03452,0.0012 -0.121135,0.07261 -0.192477,0.15863 -0.07134,0.08602 -0.155272,0.156391 -0.186512,0.156391 -0.03124,0 -0.120418,0.0725 -0.198171,0.161107 -0.139141,0.158569 -0.151407,0.161612 -0.778487,0.193141 -0.565133,0.02842 -0.637119,0.04273 -0.637119,0.126726 0,0.05208 0.07139,0.136859 0.158631,0.188396 l 0.158629,0.0937 v 0.617463 c 0,0.514267 -0.01398,0.622827 -0.08364,0.649559 -0.09999,0.03837 -8.2681562,0.03551 -8.3634178,-0.0029 z M 25.997419,15.548403 c 0.01055,-0.03163 0.09935,-0.05752 0.197347,-0.05752 0.18874,0 0.427828,-0.0869 0.543845,-0.197671 0.03843,-0.0367 0.09331,-0.06671 0.121953,-0.06671 0.07264,0 0.354126,-0.311553 0.453848,-0.502329 0.0456,-0.08724 0.104451,-0.172586 0.130768,-0.189643 0.02632,-0.01706 0.06214,-0.201464 0.07961,-0.409794 0.01746,-0.20833 0.05209,-0.378782 0.07697,-0.378782 0.02486,0 0.04521,-0.345021 0.04521,-0.766714 0,-0.47589 -0.02005,-0.766712 -0.05287,-0.766712 -0.02908,0 -0.05287,-0.06969 -0.05287,-0.154853 0,-0.08517 -0.0357,-0.190545 -0.07932,-0.234168 -0.04362,-0.04362 -0.07932,-0.124917 -0.07932,-0.18065 0,-0.05574 -0.04759,-0.144403 -0.105754,-0.197041 -0.05817,-0.05264 -0.105753,-0.119639 -0.105753,-0.14889 0,-0.07403 -0.321037,-0.353439 -0.406099,-0.353439 -0.03839,0 -0.06979,-0.0238 -0.06979,-0.05287 0,-0.02909 -0.03399,-0.05287 -0.07554,-0.05287 -0.04155,0 -0.108091,-0.03256 -0.147878,-0.07234 -0.03978,-0.03979 -0.129605,-0.09051 -0.199599,-0.112729 -0.06999,-0.02221 -0.156933,-0.07006 -0.193202,-0.106333 -0.03627,-0.03627 -0.168248,-0.08062 -0.293287,-0.09856 -0.312538,-0.04484 -1.684048,0.04194 -1.813833,0.114761 -0.05807,0.03258 -0.456538,0.07461 -0.885501,0.0934 -0.428962,0.01879 -0.779931,0.05549 -0.779931,0.08154 0,0.02606 -0.09323,0.04738 -0.207182,0.04738 -0.319272,0 -0.374462,0.03864 -0.374462,0.26215 0,0.275227 -0.09322,0.514523 -0.271436,0.696845 -0.08337,0.08529 -0.151578,0.189934 -0.151578,0.232554 0,0.04262 -0.02075,0.07749 -0.04612,0.07749 -0.02537,0 -0.06134,0.09518 -0.07994,0.211507 -0.0186,0.116329 -0.05436,0.211507 -0.07947,0.211507 -0.02511,0 -0.06099,0.07679 -0.07976,0.170624 -0.02536,0.126773 -0.0067,0.207758 0.0727,0.315118 0.05876,0.07947 0.10683,0.166709 0.10683,0.193857 0,0.02715 0.0357,0.06306 0.07932,0.0798 0.04362,0.01674 0.07932,0.06687 0.07932,0.111411 0,0.04453 0.02334,0.08098 0.05187,0.08098 0.02853,0 0.0668,0.05949 0.08505,0.132192 0.01825,0.07271 0.05498,0.132192 0.08163,0.132192 0.02664,0 0.07107,0.05948 0.09871,0.132192 0.02765,0.07271 0.07464,0.132192 0.104445,0.132192 0.0298,0 0.05419,0.06786 0.05419,0.150788 0,0.182377 -0.267388,0.483732 -0.429207,0.483732 -0.09461,0 -0.105692,0.02149 -0.07494,0.145411 0.01984,0.07997 0.05812,0.153343 0.08505,0.163036 0.02693,0.0097 0.04897,0.05208 0.04897,0.0942 0,0.04211 0.0357,0.09027 0.07932,0.107005 0.04362,0.01674 0.07932,0.08737 0.07932,0.15697 0,0.105343 -0.02656,0.126535 -0.15863,0.126535 -0.08724,0 -0.15863,-0.0238 -0.15863,-0.05287 0,-0.02908 -0.03173,-0.05287 -0.0705,-0.05287 -0.08852,0 -0.775526,-0.681995 -0.775526,-0.769867 0,-0.03566 -0.03569,-0.07855 -0.07932,-0.09528 -0.04362,-0.01674 -0.07932,-0.06687 -0.07932,-0.11141 0,-0.04453 -0.0209,-0.08098 -0.04647,-0.08098 -0.02555,0 -0.07603,-0.07138 -0.112169,-0.15863 -0.03614,-0.08724 -0.08472,-0.15863 -0.107966,-0.15863 -0.02324,0 -0.05794,-0.07138 -0.0771,-0.15863 -0.01916,-0.08724 -0.05674,-0.158631 -0.08352,-0.158631 -0.02677,0 -0.04867,-0.03199 -0.04867,-0.0711 0,-0.08492 -0.219735,-0.350979 -0.292506,-0.354162 -0.02815,-0.0012 -0.109564,-0.07261 -0.180904,-0.15863 -0.231022,-0.278538 -0.287101,-0.215541 -0.248916,0.279625 0.01849,0.239808 0.05771,0.444044 0.08715,0.453858 0.02944,0.0098 0.05353,0.09745 0.05353,0.194728 0,0.09728 0.03256,0.209438 0.07234,0.249224 0.03978,0.03978 0.09029,0.128889 0.112223,0.198004 0.04747,0.149562 0.07798,0.189285 0.431014,0.561204 0.149532,0.157531 0.295039,0.286419 0.323349,0.286419 0.0283,0 0.110096,0.04611 0.181748,0.102475 0.07165,0.05637 0.193834,0.118429 0.271515,0.137925 0.07768,0.0195 0.141238,0.05522 0.141238,0.0794 0,0.08257 0.397918,0.09344 2.800919,0.07653 1.671299,-0.01175 2.410189,-0.03445 2.423517,-0.07444 z"
   id="path378" /></svg>
