<?xml version="1.0" encoding="UTF-8" standalone="no"?>
<!-- Created with Inkscape (http://www.inkscape.org/) -->

<svg
   width="17.161118mm"
   height="8.4667196mm"
   viewBox="0 0 17.161118 8.4667196"
   version="1.1"
   id="svg5"
   xmlns="http://www.w3.org/2000/svg"
   xmlns:svg="http://www.w3.org/2000/svg">
  <defs
     id="defs2" />
  <g
     id="layer1"
     transform="translate(-5.5515034,-74.465789)">
    <path
       style="fill:#ffffff;stroke-width:0.0123297;fill-opacity:1"
       d="m 18.947771,82.917975 c -0.04408,-0.0088 -0.112354,-0.02543 -0.151721,-0.0369 -0.06524,-0.01902 -0.07396,-0.02577 -0.09851,-0.07631 l -0.02693,-0.05544 0.06005,-0.235779 c 0.03303,-0.129679 0.05517,-0.237431 0.0492,-0.239449 -0.006,-0.002 -0.02846,-0.0144 -0.04998,-0.02752 -0.02942,-0.01794 -0.03746,-0.03017 -0.03245,-0.04936 0.0037,-0.01403 2.8e-4,-0.04089 -0.0075,-0.0597 -0.01158,-0.02795 -0.0084,-0.06094 0.01751,-0.180685 0.01742,-0.08057 0.0273,-0.150601 0.02195,-0.15562 -0.0053,-0.005 -0.05411,-0.01871 -0.108361,-0.03042 -0.05425,-0.01171 -0.105331,-0.02661 -0.11351,-0.0331 -0.0082,-0.0065 -0.02004,-0.0086 -0.02634,-0.0047 -0.01214,0.0075 -0.873444,-0.18894 -0.957494,-0.218386 -0.02713,-0.0095 -0.09232,-0.02678 -0.144874,-0.0384 l -0.09556,-0.02112 v -0.163073 -0.163074 l 0.173123,-0.731598 c 0.09522,-0.40238 0.180903,-0.750223 0.190414,-0.772985 0.0095,-0.02276 0.0509,-0.0731 0.09197,-0.111861 0.04107,-0.03876 0.07467,-0.07767 0.07467,-0.08647 0,-0.0088 0.0082,-0.016 0.01826,-0.016 0.01004,0 0.02172,-0.01526 0.02595,-0.03391 0.0042,-0.01865 0.01505,-0.06442 0.02405,-0.10172 0.05174,-0.214432 0.0806,-0.386377 0.06632,-0.395199 -0.0082,-0.005 -0.04872,-0.01572 -0.09013,-0.02372 -0.113996,-0.02203 -0.130763,-0.03696 -0.130763,-0.116468 v -0.06629 l -0.06158,-0.02214 c -0.03387,-0.01218 -0.06464,-0.03179 -0.06839,-0.04358 -0.0051,-0.01593 -0.04385,-0.02998 -0.151105,-0.0547 -0.194237,-0.04478 -0.208481,-0.05285 -0.219187,-0.124242 -0.01888,-0.125867 0.01332,-0.379133 0.07599,-0.597762 0.0043,-0.01514 -0.0078,-0.02345 -0.04988,-0.03403 -0.04328,-0.0109 -0.05733,-0.02081 -0.06332,-0.0447 l -0.0077,-0.0307 -0.507265,-3.7e-5 c -0.278996,-1.2e-5 -0.61962,-0.0037 -0.756943,-0.0081 l -0.249677,-0.0081 v 0.209763 c 0,0.208886 -1.4e-4,0.209907 -0.0321,0.244402 l -0.0321,0.03465 -1.487538,-0.0085 -1.487537,-0.0085 -0.02976,-0.02972 c -0.02944,-0.02941 -0.02973,-0.03202 -0.0269,-0.246281 l 0.0029,-0.216555 H 12.47 c -0.102357,0 -0.10537,8.43e-4 -0.121187,0.03391 -0.01583,0.0331 -0.01906,0.03399 -0.134628,0.03742 l -0.118407,0.0035 -0.01474,-0.03558 -0.01474,-0.03558 -0.686649,-0.008 c -0.377656,-0.0044 -1.188777,-0.01091 -1.8024896,-0.01453 l -1.1158417,-0.0066 -0.6658062,0.05917 -0.6658062,0.05917 -0.00961,0.375816 c -0.010801,0.422317 -0.015776,0.449228 -0.085431,0.462216 -0.022321,0.0042 -0.2042607,0.0058 -0.4043111,0.0037 -0.3215792,-0.0033 -0.3684039,-0.0063 -0.4041144,-0.0258 -0.082554,-0.04509 -0.6139108,-0.456589 -0.6437604,-0.498553 l -0.030975,-0.04355 0.00467,-0.846093 c 0.00257,-0.465351 0.00813,-1.14848 0.012362,-1.518064 0.00719,-0.628243 0.00919,-0.674182 0.030701,-0.705945 0.023868,-0.03525 0.5731563,-0.444562 0.6566175,-0.489294 0.044806,-0.02401 0.067384,-0.02541 0.4125533,-0.02541 0.2355675,0 0.3790727,0.0049 0.4043778,0.01367 0.07399,0.02579 0.078382,0.05479 0.073546,0.485595 l -0.00429,0.382136 0.671971,0.06974 c 0.599184,0.06219 0.704692,0.07 0.9740501,0.07212 0.4394596,0.0035 0.4192111,0.0047 0.4192111,-0.02534 v -0.02544 l 1.0634398,0.0072 c 0.584893,0.004 1.197501,0.01048 1.361353,0.01447 0.278463,0.0068 0.29831,0.0088 0.304007,0.03056 0.0051,0.01932 0.01779,0.02331 0.07436,0.02331 0.06278,0 0.07003,-0.003 0.09012,-0.03699 0.02052,-0.03473 0.02649,-0.03699 0.09779,-0.03699 0.116967,0 0.148953,0.0098 0.165895,0.05067 0.01396,0.0337 0.01854,0.03553 0.08416,0.03379 0.03817,-10e-4 0.05414,-0.0042 0.03549,-0.007 -0.03349,-0.0051 -0.03391,-0.0063 -0.03391,-0.09679 0,-0.08894 8.91e-4,-0.09166 0.03008,-0.09166 0.02586,0 0.03062,-0.0065 0.03391,-0.04624 l 0.0038,-0.04624 h 0.08014 0.08014 l -5.27e-4,0.06473 c -6.18e-4,0.07603 0.01337,0.08534 0.02498,0.01662 0.0098,-0.05814 0.02543,-0.06396 0.144782,-0.05395 0.07267,0.0061 0.0884,0.004 0.09799,-0.01315 0.0084,-0.01495 0.02873,-0.02041 0.07616,-0.02041 0.07559,0 0.09568,0.01483 0.08595,0.06345 -0.0063,0.03155 -0.0037,0.03519 0.02533,0.03519 0.03203,0 0.03237,9.46e-4 0.03237,0.09166 0,0.09052 -4.2e-4,0.09172 -0.03391,0.09679 -0.0485,0.0073 0.17486,0.01127 1.12818,0.0198 0.462832,0.0041 0.841509,0.0034 0.841505,-0.0017 -5e-6,-0.0051 -0.01388,-0.0092 -0.03083,-0.0092 -0.03014,0 -0.03082,-0.0021 -0.03082,-0.09247 0,-0.09042 6.85e-4,-0.09247 0.03082,-0.09247 0.02701,0 0.03083,-0.0053 0.03083,-0.04315 v -0.04315 h 0.08014 0.08014 l 9.73e-4,0.06473 c 9.93e-4,0.06597 0.0033,0.06671 0.01688,0.0054 l 0.0077,-0.03472 0.122256,0.0039 c 0.108014,0.0034 0.12291,0.0014 0.12787,-0.01769 0.0046,-0.01757 0.01955,-0.02158 0.08075,-0.02158 h 0.07513 v 0.04315 c 0,0.03781 0.0038,0.04315 0.03082,0.04315 0.03014,0 0.03082,0.0021 0.03082,0.09247 0,0.09042 -6.85e-4,0.09247 -0.03082,0.09247 -0.01695,0 -0.03082,0.0055 -0.03082,0.01233 0,0.0077 0.07108,0.01243 0.188028,0.0126 0.103416,1.4e-4 1.078332,0.0082 2.166479,0.01794 1.088149,0.0097 1.978956,0.01653 1.979574,0.01514 6.15e-4,-0.0014 0.01067,-0.01779 0.02233,-0.03643 l 0.02121,-0.03391 h 0.172907 0.172904 l 0.0201,0.03502 0.0201,0.03502 0.480699,0.0081 c 0.264386,0.0045 0.71147,0.0081 0.993521,0.0081 h 0.51282 l 0.01637,-0.03699 c 0.01629,-0.03681 0.01687,-0.03699 0.118633,-0.03699 0.08023,0 0.105905,0.0044 0.119182,0.02045 0.0141,0.01705 0.0165,0.202353 0.01441,1.11276 -0.0014,0.600769 -0.0073,1.108953 -0.01319,1.129297 l -0.01068,0.03699 -0.118386,0.0035 c -0.113959,0.0034 -0.118715,0.0025 -0.127181,-0.02466 -0.0048,-0.0155 -0.01498,-0.03225 -0.02255,-0.03723 -0.0076,-0.005 -0.281578,-0.0091 -0.608924,-0.0092 l -0.595176,-1.91e-4 -0.01122,0.02774 c -0.0062,0.01526 -0.02071,0.06935 -0.0323,0.120215 -0.03916,0.171851 -0.07112,0.205975 -0.171721,0.183334 -0.02034,-0.0046 -0.05295,-0.01192 -0.07245,-0.01631 -0.03352,-0.0075 -0.0351,-0.0061 -0.02878,0.02654 0.0037,0.01899 -0.0043,0.08093 -0.01773,0.137632 -0.01342,0.05671 -0.02191,0.109615 -0.01885,0.117577 0.0031,0.008 0.06583,0.02761 0.1395,0.04366 0.156983,0.0342 0.174547,0.04168 0.183607,0.07817 0.0166,0.06687 -0.221844,1.154483 -0.350656,1.599429 -0.04302,0.148611 -0.06513,0.176381 -0.127569,0.160237 -0.02198,-0.0057 -0.104714,-0.02508 -0.183849,-0.04311 l -0.143882,-0.03277 -0.04065,-0.09249 c -0.04391,-0.09991 -0.05257,-0.108015 -0.129063,-0.120676 l -0.05059,-0.0084 -0.03047,0.127158 c -0.02554,0.106588 -0.02783,0.130306 -0.01414,0.146623 0.03956,0.04717 0.02055,0.164341 -0.132225,0.815054 -0.0817,0.347996 -0.152795,0.641042 -0.157982,0.651214 -0.0052,0.01017 -0.05889,0.04433 -0.119333,0.0759 -0.114854,0.05999 -0.109727,0.05382 -0.134036,0.161227 -0.0046,0.02036 -0.02221,0.04123 -0.04452,0.05276 -0.03225,0.01668 -0.04504,0.01695 -0.10155,0.0022 l -0.06465,-0.01688 -0.03226,0.134794 -0.03226,0.134794 0.05249,0.0225 c 0.06638,0.02845 0.0716,0.03764 0.05544,0.09763 l -0.01319,0.049 -0.07015,0.0037 -0.07015,0.0037 -0.05706,0.23175 c -0.0537,0.218102 -0.05954,0.233865 -0.09907,0.26767 -0.04774,0.04082 -0.04031,0.03988 -0.146813,0.01857 z"
       id="path3031" />
  </g>
</svg>
