<?xml version="1.0" encoding="UTF-8" standalone="no"?>
<svg
   xmlns:dc="http://purl.org/dc/elements/1.1/"
   xmlns:cc="http://creativecommons.org/ns#"
   xmlns:rdf="http://www.w3.org/1999/02/22-rdf-syntax-ns#"
   xmlns:svg="http://www.w3.org/2000/svg"
   xmlns="http://www.w3.org/2000/svg"
   xmlns:sodipodi="http://sodipodi.sourceforge.net/DTD/sodipodi-0.dtd"
   xmlns:inkscape="http://www.inkscape.org/namespaces/inkscape"
   version="1.1"
   x="0px"
   y="0px"
   width="96.583px"
   height="32px"
   viewBox="0 0 96.583 32"
   enable-background="new 0 0 96.583 32"
   xml:space="preserve"
   id="svg137"
   sodipodi:docname="m91.svg"
   inkscape:version="1.0.2-2 (e86c870879, 2021-01-15)"><metadata
   id="metadata143"><rdf:RDF><cc:Work
       rdf:about=""><dc:format>image/svg+xml</dc:format><dc:type
         rdf:resource="http://purl.org/dc/dcmitype/StillImage" /></cc:Work></rdf:RDF></metadata><defs
   id="defs141" /><sodipodi:namedview
   pagecolor="#ffffff"
   bordercolor="#666666"
   borderopacity="1"
   objecttolerance="10"
   gridtolerance="10"
   guidetolerance="10"
   inkscape:pageopacity="0"
   inkscape:pageshadow="2"
   inkscape:window-width="1842"
   inkscape:window-height="1051"
   id="namedview139"
   showgrid="false"
   inkscape:zoom="12.579854"
   inkscape:cx="36.854903"
   inkscape:cy="22.268474"
   inkscape:window-x="-9"
   inkscape:window-y="-9"
   inkscape:window-maximized="1"
   inkscape:current-layer="svg137" />

<g
   id="guides">
</g>
<path
   style="fill:#ffffff;stroke-width:0.0794922"
   d="m 39.285019,28.283609 c -0.298119,-0.07871 -0.380686,-0.14724 -0.538479,-0.446919 -0.294392,-0.559106 -0.379748,-1.285185 -0.27868,-2.370581 0.04774,-0.51266 0.14879,-1.122402 0.224563,-1.354984 0.131457,-0.403499 0.131241,-0.433927 -0.0047,-0.66405 -0.178997,-0.303016 -0.126867,-0.80219 0.110116,-1.054447 0.263772,-0.28077 0.322589,-0.633046 0.322589,-1.932077 v -1.21278 h -0.665747 -0.665747 l -0.04968,-0.248413 c -0.02733,-0.136627 -0.04968,-0.565885 -0.04968,-0.953906 0,-1.08266 -0.136086,-0.837085 -0.171828,0.310074 -0.02764,0.887029 -0.05469,1.052859 -0.213734,1.310199 -0.431731,0.698554 -1.083994,0.850942 -3.044021,0.711174 -0.715111,-0.051 -1.435224,-0.131091 -1.600251,-0.177991 -0.165026,-0.0469 -0.469084,-0.07441 -0.675683,-0.06113 l -0.375635,0.02415 -0.382073,0.71543 c -0.21014,0.393486 -0.473346,0.930058 -0.584902,1.192382 -0.111555,0.262325 -0.400254,0.87044 -0.641551,1.351367 -0.401727,0.80068 -0.894544,1.920501 -0.895205,2.034164 -1.59e-4,0.02577 0.08916,0.08761 0.198458,0.137408 0.238092,0.108481 0.251224,0.250062 0.04661,0.502483 l -0.152122,0.187664 -0.543434,-0.140372 c -0.298889,-0.0772 -0.936921,-0.244203 -1.417849,-0.371109 -0.480928,-0.126905 -1.106929,-0.284657 -1.391113,-0.350561 -1.530322,-0.35489 -1.721616,-0.458859 -1.470203,-0.799056 0.06797,-0.09197 0.362293,-0.524937 0.654054,-0.962144 0.291762,-0.437207 0.702066,-1.020632 0.911788,-1.296499 0.209723,-0.275868 0.38211,-0.544154 0.383082,-0.596192 9.7e-4,-0.05204 0.07458,-0.184042 0.163571,-0.293344 0.08899,-0.109302 0.450519,-0.627988 0.803392,-1.152637 0.62751,-0.932977 0.641688,-0.964739 0.646254,-1.447676 0.004,-0.425655 -0.02232,-0.518866 -0.19098,-0.675684 -0.107607,-0.100052 -0.254484,-0.266194 -0.326393,-0.369205 -0.116285,-0.16658 -0.233814,-0.198491 -1.062762,-0.288561 -0.701921,-0.07627 -0.94981,-0.13306 -1.004083,-0.230042 -0.05919,-0.105759 -0.219025,-0.128773 -0.894376,-0.128773 -0.797731,0 -0.829692,-0.0069 -1.069195,-0.230623 -0.227561,-0.212574 -0.246883,-0.271356 -0.246883,-0.751081 0,-0.450136 -0.02789,-0.550546 -0.206401,-0.743155 l -0.2064,-0.222699 H 16.040154 9.3506085 l -0.2782226,0.191183 c -0.4452357,0.305948 -0.4769531,0.379428 -0.4769531,1.104935 0,0.740654 -0.1749329,1.196687 -0.5192207,1.353555 -0.1813812,0.08264 -1.242967,0.244957 -2.6604665,0.406779 -0.4153467,0.04742 -1.3454052,0.174348 -2.0667967,0.28207 -1.7450299,0.260578 -1.6565945,0.266811 -1.7186268,-0.121118 -0.042563,-0.266177 -0.076146,-0.312071 -0.1996698,-0.272866 -0.1151386,0.03654 -0.1485002,0.0067 -0.1485002,-0.132732 0,-0.09893 -0.087815,-0.271524 -0.1951436,-0.383551 C 0.90103754,17.467559 0.87699134,17.31976 0.5754476,14.51738 0.40141817,12.900048 0.20012991,10.92214 0.12814035,10.122031 -0.0432252,8.2174322 -0.12031896,8.3493592 1.3218982,8.0792162 c 0.3497656,-0.06551 0.9836023,-0.119166 1.408526,-0.119226 0.7480983,-1.05e-4 0.8080215,0.01375 1.8903996,0.437098 0.6147961,0.240464 1.162914,0.437207 1.2180399,0.437207 0.055126,0 0.4416998,0.139473 0.8590533,0.309939 1.2550624,0.512625 2.1175796,0.653497 4.300107,0.702322 1.22484,0.0274 2.20008,0.0084 2.782226,-0.05432 1.21867,-0.131211 3.414242,-0.605091 3.498148,-0.755021 0.03602,-0.06437 0.198667,-0.138874 0.361432,-0.165562 0.162763,-0.02669 0.470619,-0.117556 0.684122,-0.201927 0.227739,-0.09 0.580945,-0.153403 0.854541,-0.153403 0.436229,0 0.466353,-0.01204 0.466353,-0.18641 0,-0.102525 0.07169,-0.251287 0.159307,-0.330581 0.131632,-0.119125 0.193776,-0.128466 0.357715,-0.05377 0.109124,0.04972 0.198407,0.126939 0.198407,0.171597 0,0.04466 0.03577,0.0812 0.07949,0.0812 0.102536,0 0.104073,-0.958395 0.002,-1.226954 -0.09539,-0.250884 -0.431929,-0.281258 -0.555616,-0.05015 -0.106701,0.199372 -0.105438,0.209198 0.04641,0.361048 0.157172,0.157172 0.08207,0.263071 -0.08703,0.122725 -0.06664,-0.0553 -0.121156,-0.22214 -0.121156,-0.370746 0,-0.212209 0.04334,-0.289939 0.201933,-0.362201 0.301243,-0.137255 0.607746,-0.0018 0.686885,0.303642 0.05548,0.214123 0.110002,0.255536 0.402474,0.305732 0.414164,0.07108 0.587279,0.07905 1.272331,0.05854 l 0.536572,-0.01606 v -0.476954 c 0,-0.423958 0.01767,-0.476953 0.158984,-0.476953 0.112091,0 0.158773,-0.05276 0.158268,-0.178857 -4.32e-4,-0.105687 0.105233,-0.266442 0.258315,-0.392947 0.237155,-0.195981 0.247588,-0.222874 0.123362,-0.317968 -0.166199,-0.127223 -0.305067,-1.336009 -0.153483,-1.336009 0.05038,0 0.09046,0.123253 0.09046,0.278222 0,0.256142 0.01893,0.278223 0.238477,0.278223 0.131162,0 0.238476,0.03495 0.238476,0.07766 0,0.04682 0.560355,0.08628 1.410987,0.09937 l 1.410986,0.02171 0.02248,0.894287 c 0.01817,0.722843 0.04484,0.894287 0.139112,0.894287 0.06415,0 0.116635,-0.07154 0.116635,-0.158984 0,-0.212218 0.285505,-0.212218 0.341001,0 0.05983,0.228781 0.533413,0.228781 0.533413,0 0,-0.223948 0.395356,-0.223948 0.45392,0 0.0561,0.214529 0.387426,0.214529 0.443526,0 0.02559,-0.09785 0.108429,-0.158984 0.215444,-0.158984 0.107016,0 0.189854,0.06113 0.215444,0.158984 0.0561,0.214529 0.387426,0.214529 0.443526,0 0.05856,-0.223948 0.453921,-0.223948 0.453921,0 0,0.123654 0.05299,0.158984 0.238476,0.158984 0.185482,0 0.238477,-0.03533 0.238477,-0.158984 0,-0.116589 0.053,-0.158984 0.19873,-0.158984 0.145736,0 0.198731,0.0424 0.198731,0.158984 0,0.123654 0.053,0.158984 0.238476,0.158984 0.185482,0 0.238477,-0.03533 0.238477,-0.158984 0,-0.223948 0.395356,-0.223948 0.45392,0 0.05796,0.221639 0.465059,0.221639 0.523019,0 0.05664,-0.21659 0.374428,-0.21659 0.374428,0 0,0.226967 0.440632,0.226967 0.499986,0 0.05664,-0.21659 0.374428,-0.21659 0.374428,0 0,0.128702 0.053,0.158984 0.278222,0.158984 0.225228,0 0.278223,-0.03028 0.278223,-0.158984 0,-0.116589 0.05299,-0.158984 0.198731,-0.158984 0.145735,0 0.19873,0.0424 0.19873,0.158984 0,0.123654 0.05299,0.158984 0.238476,0.158984 0.185482,0 0.238477,-0.03533 0.238477,-0.158984 0,-0.223948 0.395357,-0.223948 0.45392,0 0.02615,0.1 0.108429,0.158984 0.221764,0.158984 0.113334,0 0.195612,-0.05899 0.221763,-0.158984 0.05856,-0.223948 0.45392,-0.223948 0.45392,0 0,0.123654 0.053,0.158984 0.238477,0.158984 0.185481,0 0.238476,-0.03533 0.238476,-0.158984 0,-0.116589 0.05299,-0.158984 0.198731,-0.158984 0.145735,0 0.19873,0.0424 0.19873,0.158984 0,0.123654 0.05299,0.158984 0.238477,0.158984 0.185481,0 0.238476,-0.03533 0.238476,-0.158984 0,-0.116589 0.05299,-0.158984 0.198731,-0.158984 0.145735,0 0.19873,0.0424 0.19873,0.158984 0,0.228781 0.473585,0.228781 0.533413,0 0.02389,-0.09135 0.108428,-0.158984 0.19873,-0.158984 0.0903,0 0.174841,0.06763 0.19873,0.158984 0.05796,0.221639 0.465059,0.221639 0.523019,0 0.05664,-0.21659 0.374428,-0.21659 0.374428,0 0,0.128702 0.053,0.158984 0.278223,0.158984 0.225227,0 0.278223,-0.03028 0.278223,-0.158984 0,-0.212218 0.285505,-0.212218 0.341001,0 0.05983,0.228781 0.533413,0.228781 0.533413,0 0,-0.223948 0.395356,-0.223948 0.45392,0 0.0561,0.214529 0.387426,0.214529 0.443526,0 0.05572,-0.213084 0.375165,-0.213084 0.430888,0 0.02615,0.1 0.108429,0.158984 0.221763,0.158984 0.113334,0 0.195613,-0.05899 0.221763,-0.158984 0.0281,-0.107432 0.108429,-0.158984 0.247748,-0.158984 0.153178,0 0.206173,0.04086 0.206173,0.158984 0,0.123654 0.05299,0.158984 0.238476,0.158984 0.190768,0 0.238477,-0.03407 0.238477,-0.170308 0,-0.161151 0.02627,-0.167563 0.488613,-0.119239 0.268738,0.02809 0.697996,0.05107 0.953907,0.05107 h 0.465292 v 0.437207 0.437207 h 2.272969 c 2.206117,0 2.274192,0.0047 2.314545,0.158985 0.03124,0.119465 0.108429,0.158983 0.310526,0.158983 h 0.268952 v 0.596192 c 0,0.543196 0.01413,0.596191 0.158984,0.596191 0.123655,0 0.158985,0.05299 0.158985,0.238477 0,0.218084 0.02305,0.238476 0.269525,0.238476 0.248848,0 0.272018,-0.02135 0.302007,-0.278222 0.0224,-0.19187 3.97e-4,-0.278223 -0.07079,-0.278223 -0.07219,0 -0.103277,-0.131606 -0.103277,-0.437207 0,-0.240464 0.03509,-0.437207 0.07797,-0.437207 0.04576,0 0.05948,-0.139586 0.03322,-0.337841 -0.02461,-0.185813 -0.0111,-0.426694 0.03002,-0.53529 0.07281,-0.192247 0.09601,-0.197482 0.880937,-0.198731 0.715266,-0.0011 0.806162,0.0144 0.806164,0.13783 10e-7,0.07651 0.03983,0.139111 0.08852,0.139111 0.08755,0 0.06774,0.241065 -0.05061,0.616064 -0.04261,0.135003 -0.02494,0.178857 0.07206,0.178857 0.101323,0 0.128509,0.08461 0.128509,0.399956 0,0.247676 -0.03802,0.414544 -0.09985,0.438273 -0.06588,0.02528 -0.0902,0.159662 -0.07149,0.394966 0.0276,0.347028 0.03565,0.356649 0.298584,0.356649 0.235238,0 0.270218,-0.02573 0.270218,-0.198731 v -0.19873 l 1.967432,-0.01204 c 1.082087,-0.0066 2.491591,-0.0076 3.132232,-0.0021 0.959337,0.0082 1.172732,-0.0107 1.209761,-0.107195 0.03887,-0.101293 0.648249,-0.117163 4.499017,-0.117163 2.916377,0 4.454057,0.02744 4.454057,0.07949 0,0.115214 3.947737,0.107791 4.019025,-0.0076 0.02959,-0.04788 -0.01955,-0.186257 -0.109193,-0.30751 l -0.162994,-0.220461 0.229893,-0.268808 c 0.263108,-0.307645 0.2846,-0.408032 0.117116,-0.54703 -0.09683,-0.08036 -0.119238,-0.336174 -0.119238,-1.361101 0,-0.694177 0.03143,-1.262141 0.06985,-1.262141 0.03842,0 0.114802,-0.108527 0.169745,-0.241171 0.304554,-0.73526 0.973873,-0.678054 1.357531,0.116027 0.182746,0.378241 0.191409,0.573748 0.03247,0.732691 -0.09826,0.09826 -0.119239,0.406991 -0.119239,1.7551 v 1.63586 l 0.786477,-0.05154 c 0.684486,-0.04486 0.792937,-0.0347 0.836299,0.0783 0.04107,0.107026 0.124819,0.121022 0.476698,0.07967 0.234781,-0.02759 0.591762,-0.02757 0.793291,5.2e-5 l 0.366415,0.05022 v 0.346909 0.34691 h 6.409772 c 4.70077,0 6.493375,0.02505 6.723338,0.09395 0.254359,0.07621 0.326108,0.07366 0.379988,-0.01352 0.05289,-0.08559 0.508893,-0.109825 2.239406,-0.119031 1.195141,-0.0064 2.217697,0.0036 2.272348,0.02203 0.05932,0.02005 0.09937,0.17434 0.09937,0.3827988 0,0.322149 -0.01585,0.34921 -0.204557,0.34921 -0.260925,0 -0.237698,0.265929 0.02651,0.303624 0.149294,0.0213 0.178046,0.075 0.178046,0.332485 0,0.234867 -0.03653,0.318678 -0.155343,0.356387 -0.08543,0.02712 -1.10487,0.03847 -2.265408,0.02523 -1.622142,-0.01851 -2.110097,-0.04705 -2.110184,-0.123438 0,-0.119581 -0.523901,-0.137036 -0.596311,-0.01987 -0.0321,0.05194 -2.292848,0.07949 -6.523048,0.07949 h -6.473923 v 0.620039 c 0,0.376263 -0.0375,0.657543 -0.09539,0.71543 -0.06632,0.06632 -0.486936,0.09539 -1.380393,0.09539 -1.179635,0 -1.302176,-0.01351 -1.494453,-0.164753 -0.141055,-0.110954 -0.20945,-0.240745 -0.20945,-0.397461 0,-0.127989 -0.03577,-0.232707 -0.07949,-0.232707 -0.04413,0 -0.07949,0.211474 -0.07949,0.475438 0,0.508171 -0.01035,0.496645 0.516699,0.575581 0.13956,0.0209 0.161839,0.09412 0.18234,0.599286 l 0.02336,0.575476 h -0.265807 c -0.302184,0 -0.456588,0.11828 -0.456588,0.349765 0,0.123655 -0.0212,0.137786 -0.09539,0.06359 -0.121166,-0.121166 -2.527852,-0.136302 -2.527852,-0.0159 0,0.05013 -0.543196,0.07949 -1.470605,0.07949 h -1.470605 v 0.204559 c 0,0.26092 -0.26593,0.237698 -0.303625,-0.02651 l -0.0254,-0.178045 h -4.644763 c -2.641104,0 -4.644764,0.03035 -4.644764,0.07035 0,0.03869 0.08048,0.124381 0.178857,0.190419 0.516518,0.346747 0.536572,0.396075 0.536572,1.319851 0,0.731228 -0.02162,0.878565 -0.14537,0.990555 -0.129499,0.117195 -0.4522,0.131559 -2.955528,0.131559 h -2.810159 l -0.328761,0.353035 c -0.277247,0.297717 -0.390222,0.36104 -0.720985,0.404117 -0.215723,0.0281 -0.482997,0.01609 -0.593943,-0.02668 -0.124451,-0.04797 -0.466252,-0.453975 -0.892323,-1.059927 -1.083751,-1.541291 -0.926925,-1.419373 -1.825774,-1.419373 -0.703056,0 -0.777953,0.01485 -0.891301,0.176672 -0.07035,0.100442 -0.123746,0.341613 -0.123746,0.55894 0,0.277174 -0.03499,0.395694 -0.12726,0.431103 -0.206188,0.07912 -0.267692,-0.128582 -0.268983,-0.908365 l -0.0012,-0.735303 h -0.278223 c -0.250249,0 -0.278336,0.02198 -0.279345,0.218603 -6.36e-4,0.120232 -0.174328,0.540547 -0.386024,0.934034 -0.445654,0.828355 -0.410431,0.810841 -1.659777,0.825263 -0.667088,0.0077 -0.814795,0.03102 -0.814795,0.128643 0,0.0943 0.113055,0.119238 0.540547,0.119238 0.314436,0 0.580448,0.0399 0.635937,0.09539 0.133273,0.133273 0.129073,1.447032 -0.005,1.558288 -0.05521,0.04582 -0.243005,0.09491 -0.417334,0.109099 l -0.316959,0.0258 -0.02189,1.252002 c -0.01428,0.816576 0.0065,1.252002 0.05962,1.252002 0.04483,0 0.08151,0.07325 0.08151,0.16278 0,0.08953 0.08943,0.245659 0.198731,0.346957 0.149004,0.138092 0.19873,0.264804 0.19873,0.506402 0,0.382041 -0.06256,0.573645 -0.187362,0.573863 -0.179202,3.18e-4 -0.135675,0.54952 0.07557,0.95352 0.255381,0.488407 0.382498,1.404092 0.311716,2.245451 -0.07082,0.84182 -0.139426,1.038248 -0.482419,1.381241 l -0.295923,0.295923 -0.450879,-0.09313 c -0.247984,-0.05122 -0.890754,-0.09313 -1.428378,-0.09313 -0.826752,0 -0.970593,0.018 -0.93272,0.116692 0.02463,0.06418 0.01057,0.137836 -0.03124,0.163676 -0.04181,0.02584 -0.07602,-0.02505 -0.07602,-0.11309 0,-0.1201 -0.0697,-0.173149 -0.279094,-0.212432 -0.153502,-0.0288 -0.323416,-0.01948 -0.377588,0.02071 -0.05417,0.04019 -0.58127,0.08231 -1.171331,0.0936 -0.833772,0.01595 -1.087069,0.04596 -1.136713,0.134669 -0.07503,0.134072 -0.281203,0.136328 -0.765802,0.0084 z m -5.20296,-8.256098 c 0.03218,-0.05207 0.01434,-0.109397 -0.03964,-0.127391 -0.05398,-0.01799 -0.250921,-0.163192 -0.43764,-0.32266 -0.186718,-0.159468 -0.538027,-0.395274 -0.780685,-0.524013 -0.432735,-0.229582 -0.445326,-0.231364 -0.656583,-0.09294 -0.175797,0.115186 -0.205899,0.180131 -0.163764,0.353309 0.08082,0.332186 0.384091,0.579584 0.848047,0.691813 0.548749,0.13274 1.155087,0.143526 1.230265,0.02189 z m 2.557224,-0.186216 c 0.368481,-0.217668 0.573576,-0.688673 0.57225,-1.314178 -0.0015,-0.728003 -0.05324,-0.878535 -0.281988,-0.821123 -0.239344,0.06007 -0.691796,-0.09011 -0.872272,-0.289536 -0.115601,-0.127737 -0.245819,-0.155992 -0.718927,-0.155992 -0.535922,0 -0.595019,0.01726 -0.816158,0.238402 -0.498897,0.498896 -0.548993,1.390699 -0.111538,1.985546 0.14106,0.191813 0.227013,0.388117 0.200356,0.457584 -0.07488,0.195142 1.674486,0.108285 2.028277,-0.100703 z m 36.896136,-6.986469 c 0.05251,-0.06327 0.08305,-0.28208 0.06935,-0.496826 l -0.02448,-0.383764 -0.496826,-0.02367 c -0.325666,-0.01551 -0.496827,-0.05715 -0.496827,-0.120868 0,-0.07359 -0.352357,-0.09363 -1.450732,-0.08252 -0.797903,0.0081 -1.477561,0.01775 -1.510351,0.0215 -0.03279,0.0037 -0.05962,0.20356 -0.05962,0.444024 v 0.437207 h 1.478047 c 1.411194,0 1.479928,0.0072 1.519623,0.158984 0.03493,0.133569 0.108428,0.158985 0.459778,0.158985 0.264605,0 0.452665,-0.04153 0.512035,-0.113063 z m -4.287452,-0.642113 v -0.437207 h -5.763183 -5.763183 v 0.238476 c 0,0.229645 0.01325,0.238477 0.357714,0.238477 0.293881,0 0.357715,0.02601 0.357715,0.145735 0,0.08016 0.02385,0.169584 0.053,0.198731 0.02915,0.02915 2.461608,0.053 5.405469,0.053 h 5.352473 z m -12.097648,-0.01987 0.02491,-0.25835 h -1.356404 -1.356404 v 0.280145 0.280145 l 1.331494,-0.02179 1.331494,-0.0218 z m 19.315538,-0.115264 c 0.284173,-0.284173 -0.105262,-0.744295 -0.448518,-0.529928 -0.236679,0.147809 -0.276864,0.306013 -0.121371,0.477831 0.151963,0.167917 0.428765,0.193221 0.569889,0.0521 z m 19.253006,-1.096995 c 0,-0.04672 -0.276657,-0.07949 -0.670993,-0.07949 -0.369043,0 -0.693101,0.03577 -0.72012,0.07949 -0.03138,0.05076 0.211155,0.07949 0.670993,0.07949 0.427088,0 0.72012,-0.03235 0.72012,-0.07949 z m -0.231974,-0.635937 c 0.449059,0 0.383351,-0.128326 -0.0947,-0.184944 -0.451754,-0.0535 -1.104186,0.01249 -1.104186,0.111686 0,0.06702 0.598059,0.142448 0.781551,0.09857 0.05823,-0.01392 0.246028,-0.02531 0.417334,-0.02531 z M 56.290741,9.3112482 c 0,-0.04372 -0.1252,-0.07949 -0.278222,-0.07949 -0.153023,0 -0.278223,0.03577 -0.278223,0.07949 0,0.04372 0.1252,0.07949 0.278223,0.07949 0.153022,0 0.278222,-0.03577 0.278222,-0.07949 z m 1.510352,0 c 0,-0.04372 -0.107315,-0.07949 -0.238477,-0.07949 -0.131162,0 -0.238476,0.03577 -0.238476,0.07949 0,0.04372 0.107314,0.07949 0.238476,0.07949 0.131162,0 0.238477,-0.03577 0.238477,-0.07949 z m 4.83711,-0.203317 c 0.06664,-0.05886 -0.08998,-0.194144 -0.224754,-0.194144 -0.345656,0 -0.536081,0.191964 -0.260159,0.262261 0.126989,0.03235 0.417335,-0.0084 0.484913,-0.06812 z m 1.599454,-0.0096 c 0.04597,-0.04198 -0.166351,-0.182098 -0.27592,-0.182098 -0.04372,0 -0.13315,0.03522 -0.198731,0.07827 -0.105989,0.06958 -0.105989,0.08691 0,0.155952 0.106199,0.06918 0.374015,0.03977 0.474651,-0.05213 z m 1.592146,0.05273 c 0.105989,-0.06958 0.105989,-0.08697 0,-0.15655 -0.138637,-0.09101 -0.255228,-0.0998 -0.430705,-0.03246 -0.166407,0.06386 -0.159824,0.169662 0.01337,0.214922 0.229419,0.05995 0.292497,0.05604 0.417334,-0.02591 z m 1.742041,-0.04499 c 0.103481,-0.103481 -0.402868,-0.204204 -0.550319,-0.109469 -0.105029,0.06748 -0.104953,0.08536 6.36e-4,0.156468 0.105989,0.07136 0.461714,0.04095 0.549658,-0.047 z"
   id="path319" /></svg>
