<?xml version="1.0" encoding="UTF-8" standalone="no"?>
<svg
   xmlns:dc="http://purl.org/dc/elements/1.1/"
   xmlns:cc="http://creativecommons.org/ns#"
   xmlns:rdf="http://www.w3.org/1999/02/22-rdf-syntax-ns#"
   xmlns:svg="http://www.w3.org/2000/svg"
   xmlns="http://www.w3.org/2000/svg"
   xmlns:sodipodi="http://sodipodi.sourceforge.net/DTD/sodipodi-0.dtd"
   xmlns:inkscape="http://www.inkscape.org/namespaces/inkscape"
   version="1.1"
   x="0px"
   y="0px"
   width="96.583px"
   height="32px"
   viewBox="0 0 96.583 32"
   enable-background="new 0 0 96.583 32"
   xml:space="preserve"
   id="svg227"
   sodipodi:docname="sa87.svg"
   inkscape:version="1.0.2-2 (e86c870879, 2021-01-15)"><metadata
   id="metadata233"><rdf:RDF><cc:Work
       rdf:about=""><dc:format>image/svg+xml</dc:format><dc:type
         rdf:resource="http://purl.org/dc/dcmitype/StillImage" /></cc:Work></rdf:RDF></metadata><defs
   id="defs231" /><sodipodi:namedview
   pagecolor="#ffffff"
   bordercolor="#666666"
   borderopacity="1"
   objecttolerance="10"
   gridtolerance="10"
   guidetolerance="10"
   inkscape:pageopacity="0"
   inkscape:pageshadow="2"
   inkscape:window-width="1842"
   inkscape:window-height="1051"
   id="namedview229"
   showgrid="false"
   inkscape:zoom="12.579854"
   inkscape:cx="51.390783"
   inkscape:cy="27.201856"
   inkscape:window-x="-9"
   inkscape:window-y="-9"
   inkscape:window-maximized="1"
   inkscape:current-layer="svg227" />

<g
   id="guides">
</g>
<path
   style="fill:#ffffff;stroke-width:0.0794922"
   d="M 23.357301,31.820309 C 23.181865,31.720909 23.102407,31.551865 22.888262,30.822483 22.74646,30.339502 22.569274,29.67605 22.494515,29.348145 22.419755,29.02024 22.259905,28.43001 22.13929,28.036524 22.018675,27.643038 21.885617,27.160123 21.843605,26.96338 21.801595,26.766636 21.664252,26.176407 21.5384,25.651759 21.141164,23.99577 20.833049,21.727583 20.76757,19.977321 l -0.04575,-1.222875 -0.592216,0.05006 c -0.545316,0.0461 -0.586888,0.03907 -0.524932,-0.08875 0.03701,-0.07634 0.07826,-0.657493 0.09168,-1.291443 l 0.0244,-1.152637 -3.958535,0.01872 c -2.177194,0.01029 -5.361727,0.0413 -7.0767418,0.0689 l -3.1182069,0.05018 -0.044609,0.288819 c -0.024535,0.158849 -0.1281039,0.574989 -0.230153,0.924754 -0.1020492,0.349766 -0.2517073,0.895281 -0.3325738,1.212256 l -0.1470298,0.576318 h -1.085576 c -1.3306317,0 -1.5835834,-0.07968 -1.7379702,-0.547479 -0.1130751,-0.34262 -0.067828,-1.181156 0.085246,-1.579824 0.049269,-0.128316 0.061886,-0.423218 0.030725,-0.718177 -0.036227,-0.342922 -0.022859,-0.536623 0.042467,-0.615337 0.059865,-0.07213 0.074666,-0.211271 0.039779,-0.373952 C 2.1570113,15.43436 2.1350174,15.201518 2.1386933,15.059425 2.163175,14.113064 2.099704,13.127354 1.9978764,12.872526 1.9496425,12.75182 1.9307322,12.50142 1.9558537,12.316081 1.9925345,12.045463 1.9687306,11.941487 1.8349763,11.788083 1.7174486,11.65329 1.6684235,11.488856 1.6684235,11.229452 c 0,-0.202884 -0.055039,-0.44619 -0.1228284,-0.542972 C 1.4780395,10.590031 1.4018116,10.322728 1.3761997,10.092474 1.3505879,9.8622192 1.2686684,9.6022872 1.1941564,9.5148462 0.97650433,9.2594272 0.79400959,8.7971192 0.79400959,8.5011682 c 0,-0.410058 0.13999356,-0.707919 0.45760091,-0.973627 l 0.2850569,-0.238476 1.9023324,-0.02394 c 1.7020854,-0.02142 1.9125445,-0.01 1.9993468,0.108733 0.1412232,0.193134 0.6989491,0.09007 0.8036662,-0.14851 0.056917,-0.129678 0.1689778,-0.187032 0.4344181,-0.222344 0.1967432,-0.02617 0.6617724,-0.09054 1.0333984,-0.14303 0.4909881,-0.06935 2.2292978,-0.08778 6.3593747,-0.06742 6.158464,0.03036 6.359375,0.04383 6.359375,0.426393 v 0.18876 l 1.510351,-0.01848 c 1.596708,-0.01953 1.517505,-1.51e-4 1.54678,-0.378476 0.01759,-0.227257 0.133174,-0.317874 0.405471,-0.317874 0.220535,0 0.273531,0.0308 0.273531,0.158985 0,0.123654 0.05299,0.158984 0.238476,0.158984 0.155353,0 0.238477,-0.04018 0.238477,-0.115288 0,-0.06341 0.0518,-0.14428 0.115119,-0.179713 0.09609,-0.05377 0.119086,-0.4978881 0.139112,-2.686811 l 0.02399,-2.6223868 0.198731,-0.354185 c 0.290176,-0.51716319 0.712201,-0.77814679 1.438397,-0.88951659 0.669262,-0.1026384 0.575408,-0.1385335 1.249333,0.477811 0.188492,0.1723862 0.438892,0.3505315 0.556446,0.39587829 0.238851,0.092138 6.520193,0.5378515 8.45344,0.5998422 1.36893,0.043896 1.677801,0.1226595 2.105964,0.5370336 0.465355,0.4503693 0.482866,0.7240205 0.160561,2.5092469 -0.374651,2.0751654 -0.396621,2.3280884 -0.202229,2.3280884 0.09622,0 0.149219,-0.05646 0.149219,-0.158984 0,-0.123655 0.05299,-0.158985 0.238477,-0.158985 0.185481,0 0.238476,0.03533 0.238476,0.158985 0,0.226967 0.440633,0.226967 0.499986,0 0.05572,-0.213085 0.375165,-0.213085 0.430888,0 0.05935,0.226967 0.499986,0.226967 0.499986,0 0,-0.223949 0.395356,-0.223949 0.45392,0 0.05935,0.226967 0.499986,0.226967 0.499986,0 0,-0.116589 0.05299,-0.158985 0.19873,-0.158985 0.145736,0 0.198731,0.0424 0.198731,0.158985 0,0.128701 0.05299,0.158984 0.278222,0.158984 0.225228,0 0.278223,-0.03028 0.278223,-0.158984 0,-0.223949 0.395357,-0.223949 0.45392,0 0.05935,0.226967 0.499986,0.226967 0.499986,0 0,-0.150152 0.05299,-0.158985 0.953906,-0.158985 0.900912,0 0.953907,0.0088 0.953907,0.158985 0,0.128701 0.053,0.158984 0.278222,0.158984 0.225228,0 0.278223,-0.03028 0.278223,-0.158984 0,-0.116589 0.05299,-0.158985 0.19873,-0.158985 0.145736,0 0.198731,0.0424 0.198731,0.158985 0,0.123654 0.05299,0.158984 0.238476,0.158984 0.185482,0 0.238477,-0.03533 0.238477,-0.158984 0,-0.123655 0.053,-0.158985 0.238476,-0.158985 0.185482,0 0.238477,0.03533 0.238477,0.158985 0,0.128701 0.053,0.158984 0.278223,0.158984 0.225227,0 0.278222,-0.03028 0.278222,-0.158984 0,-0.116589 0.05299,-0.158985 0.198731,-0.158985 0.145735,0 0.19873,0.0424 0.19873,0.158985 0,0.226967 0.440632,0.226967 0.499986,0 0.02856,-0.109229 0.108428,-0.158985 0.25519,-0.158985 0.146762,0 0.226626,0.04976 0.25519,0.158985 0.05935,0.226967 0.499986,0.226967 0.499986,0 0,-0.116589 0.053,-0.158985 0.19873,-0.158985 0.145735,0 0.19873,0.0424 0.19873,0.158985 0,0.128701 0.053,0.158984 0.278223,0.158984 0.225228,0 0.278223,-0.03028 0.278223,-0.158984 0,-0.223949 0.395357,-0.223949 0.45392,0 0.05935,0.226967 0.499986,0.226967 0.499986,0 0,-0.116589 0.053,-0.158985 0.19873,-0.158985 0.145736,0 0.198731,0.0424 0.198731,0.158985 0,0.128701 0.053,0.158984 0.278222,0.158984 0.225228,0 0.278223,-0.03028 0.278223,-0.158984 0,-0.116589 0.05299,-0.158985 0.198731,-0.158985 0.145735,0 0.19873,0.0424 0.19873,0.158985 0,0.123654 0.05299,0.158984 0.238477,0.158984 0.185481,0 0.238476,-0.03533 0.238476,-0.158984 0,-0.228781 0.473585,-0.228781 0.533413,0 0.05935,0.226967 0.499985,0.226967 0.499985,0 0,-0.116589 0.053,-0.158985 0.198731,-0.158985 0.145735,0 0.19873,0.0424 0.19873,0.158985 0,0.128701 0.05299,0.158984 0.278223,0.158984 0.225228,0 0.278223,-0.03028 0.278223,-0.158984 0,-0.118119 0.053,-0.158985 0.206172,-0.158985 0.13932,0 0.219654,0.05155 0.247748,0.158985 0.02945,0.112612 0.108429,0.158984 0.27078,0.158984 0.176211,0 0.229206,-0.03676 0.229206,-0.158984 0,-0.116589 0.053,-0.158985 0.19873,-0.158985 0.145736,0 0.198731,0.0424 0.198731,0.158985 0,0.127657 0.053,0.158984 0.268951,0.158984 0.202098,0 0.279286,-0.03952 0.310527,-0.158984 0.05572,-0.213085 0.375165,-0.213085 0.430887,0 0.05935,0.226967 0.499986,0.226967 0.499986,0 0,-0.123655 0.053,-0.158985 0.238477,-0.158985 0.185481,0 0.238476,0.03533 0.238476,0.158985 0,0.123654 0.05299,0.158984 0.238477,0.158984 0.185481,0 0.238476,-0.03533 0.238476,-0.158984 0,-0.08744 0.03577,-0.158985 0.07949,-0.158985 0.05156,0 0.07949,-1.031231 0.07949,-2.9347091 0,-1.61409 0.02171,-2.99129199 0.04825,-3.06044889 0.03487,-0.090875 0.155749,-0.1257398 0.435952,-0.1257398 0.311987,0 0.436176,0.043312 0.635915,0.221778 0.440037,0.39317229 0.467209,0.59064399 0.468528,3.40487369 l 0.0012,2.5535071 0.278223,0.237652 c 0.153022,0.130708 0.278223,0.306308 0.278223,0.390222 0,0.112182 0.09469,0.18053 0.357714,0.258191 l 0.357715,0.105621 v 0.690757 c 0,0.431266 0.03583,0.726591 0.09539,0.786148 0.06925,0.06925 0.641028,0.09472 2.08667,0.09293 l 1.991279,-0.0025 0.258349,-0.343163 c 0.142093,-0.18874 0.25948,-0.375435 0.260862,-0.414876 0.0014,-0.03944 0.0891,-0.170085 0.194918,-0.290317 0.186737,-0.212163 0.216793,-0.218604 1.020166,-0.218604 0.707394,0 0.857151,0.02312 1.029876,0.158985 0.111163,0.08744 0.238752,0.158984 0.28353,0.158984 0.146053,0 0.410209,0.455809 0.410209,0.707828 v 0.246082 h 10.373729 c 9.168096,0 10.37373,-0.01386 10.37373,-0.119239 0,-0.161517 0.503201,-0.159935 0.637599,0.002 0.09018,0.108664 0.114524,0.108664 0.234597,0 0.16877,-0.15273 0.274153,-0.153259 0.399679,-0.002 0.120383,0.145055 0.238476,0.154897 0.238476,0.01987 0,-0.07648 0.402763,-0.09936 1.748828,-0.09936 h 1.748828 v 1.1204348 1.120434 l -1.37124,-0.03507 c -0.768284,-0.01965 -1.520471,-3.18e-4 -1.710624,0.04397 -0.306259,0.07132 -0.348048,0.06284 -0.428216,-0.08695 l -0.08883,-0.165988 -0.139572,0.172367 -0.139573,0.172368 -0.201751,-0.158694 -0.201743,-0.158694 -0.11512,0.164351 c -0.08876,0.126731 -0.164279,0.152011 -0.329901,0.110443 -0.118125,-0.02965 -0.233604,-0.102961 -0.256617,-0.162917 -0.03513,-0.09158 -1.699129,-0.10901 -10.407052,-0.10901 H 70.270177 v 2.186035 c 0,1.692616 -0.02243,2.187396 -0.09937,2.192066 -0.635726,0.03859 -1.229182,-0.03295 -1.37124,-0.165294 C 68.523585,15.100085 68.22033,15.03951 67.209119,15.03951 h -0.983906 l -0.02444,0.337842 -0.02444,0.337842 -0.45708,0.02384 c -0.415548,0.02167 -0.45708,0.009 -0.45708,-0.139112 0,-0.133235 -0.05074,-0.162951 -0.278222,-0.162951 -0.225228,0 -0.278223,0.03028 -0.278223,0.158985 0,0.116589 -0.05299,0.158984 -0.198731,0.158984 -0.145735,0 -0.19873,-0.0424 -0.19873,-0.158984 0,-0.226532 -0.444801,-0.226532 -0.516699,0 -0.0719,0.226532 -0.516699,0.226532 -0.516699,0 0,-0.123655 -0.05299,-0.158985 -0.238477,-0.158985 -0.185481,0 -0.238476,0.03533 -0.238476,0.158985 0,0.116589 -0.053,0.158984 -0.198731,0.158984 -0.145735,0 -0.19873,-0.0424 -0.19873,-0.158984 0,-0.122226 -0.053,-0.158985 -0.229206,-0.158985 -0.162351,0 -0.241332,0.04637 -0.27078,0.158985 -0.02856,0.109228 -0.108428,0.158984 -0.25519,0.158984 -0.146762,0 -0.226626,-0.04976 -0.25519,-0.158984 -0.02945,-0.112613 -0.108429,-0.158985 -0.27078,-0.158985 -0.176211,0 -0.229206,0.03676 -0.229206,0.158985 0,0.116589 -0.05299,0.158984 -0.19873,0.158984 -0.145736,0 -0.198731,-0.0424 -0.198731,-0.158984 0,-0.128702 -0.05299,-0.158985 -0.278222,-0.158985 -0.225228,0 -0.278223,0.03028 -0.278223,0.158985 0,0.221259 -0.362633,0.221259 -0.420494,0 -0.05983,-0.228781 -0.533412,-0.228781 -0.533412,0 0,0.123655 -0.05299,0.158984 -0.238477,0.158984 -0.185481,0 -0.238476,-0.03533 -0.238476,-0.158984 0,-0.123655 -0.05299,-0.158985 -0.238477,-0.158985 -0.185481,0 -0.238476,0.03533 -0.238476,0.158985 0,0.116589 -0.053,0.158984 -0.198731,0.158984 -0.145735,0 -0.19873,-0.0424 -0.19873,-0.158984 0,-0.226532 -0.444801,-0.226532 -0.516699,0 -0.0719,0.226532 -0.5167,0.226532 -0.5167,0 0,-0.123655 -0.05299,-0.158985 -0.238476,-0.158985 -0.185482,0 -0.238477,0.03533 -0.238477,0.158985 0,0.116589 -0.05299,0.158984 -0.19873,0.158984 -0.145735,0 -0.198731,-0.0424 -0.198731,-0.158984 0,-0.128702 -0.05299,-0.158985 -0.278222,-0.158985 -0.225228,0 -0.278223,0.03028 -0.278223,0.158985 0,0.118119 -0.053,0.158984 -0.206172,0.158984 -0.13932,0 -0.219654,-0.05155 -0.247748,-0.158984 -0.02945,-0.112613 -0.108429,-0.158985 -0.270781,-0.158985 -0.17621,0 -0.229205,0.03676 -0.229205,0.158985 0,0.123655 -0.05299,0.158984 -0.238477,0.158984 -0.185481,0 -0.238476,-0.03533 -0.238476,-0.158984 0,-0.123655 -0.053,-0.158985 -0.238477,-0.158985 -0.185481,0 -0.238476,0.03533 -0.238476,0.158985 0,0.220877 -0.367104,0.220877 -0.437207,0 -0.0719,-0.226532 -0.516699,-0.226532 -0.516699,0 0,0.123655 -0.05299,0.158984 -0.238477,0.158984 -0.185481,0 -0.238476,-0.03533 -0.238476,-0.158984 0,-0.123655 -0.053,-0.158985 -0.238477,-0.158985 -0.187703,0 -0.238477,0.03482 -0.238477,0.163556 0,0.143256 -0.04193,0.16052 -0.337841,0.139111 -0.3362,-0.02433 -0.33796,-0.02609 -0.362286,-0.362286 l -0.02444,-0.337842 -0.770478,-4.77e-4 c -0.786114,-4.76e-4 -1.280987,-0.08868 -1.463352,-0.260902 -0.05613,-0.053 -0.298791,-0.21876 -0.539254,-0.368349 -0.42317,-0.263248 -0.468474,-0.273127 -1.410987,-0.307692 l -0.973779,-0.03571 v 0.208327 c 0,0.195164 0.02386,0.208494 0.377588,0.210968 0.489948,0.0034 0.947772,0.306908 1.192383,0.790406 0.160171,0.316594 0.178367,0.465966 0.174165,1.429704 -0.0057,1.314157 -0.130854,1.664102 -0.711187,1.989032 -0.33594,0.188127 -0.426067,0.200066 -1.509902,0.200066 -0.939497,0 -1.240832,-0.02934 -1.62959,-0.158645 -0.262324,-0.08725 -0.496086,-0.176684 -0.519471,-0.198731 -0.02338,-0.02205 -0.309557,-0.297718 -0.635937,-0.612603 l -0.59342,-0.572519 -0.596191,0.159939 c -0.327905,0.08797 -0.707537,0.235611 -0.843626,0.328099 -0.31588,0.214679 -0.714282,1.009935 -0.771661,1.540324 -0.02574,0.237973 -0.123506,0.523587 -0.235913,0.689229 -0.112007,0.165052 -0.212799,0.458873 -0.242006,0.705478 -0.02753,0.232443 -0.140163,0.596306 -0.250298,0.808586 -0.110135,0.212281 -0.200246,0.504311 -0.200246,0.648958 0,0.144646 -0.08908,0.454345 -0.197954,0.68822 -0.108875,0.233875 -0.198303,0.522257 -0.19873,0.640849 -10e-4,0.279049 -0.290895,1.053419 -0.440985,1.177983 -0.06393,0.05306 -0.117091,0.226231 -0.118134,0.384829 -0.0026,0.402009 -0.124469,0.886004 -0.256162,1.017697 -0.0947,0.0947 -0.179162,0.09299 -0.582166,-0.0118 -0.259268,-0.06741 -0.57871,-0.171606 -0.709873,-0.231537 -0.451747,-0.206412 -1.299188,-0.525742 -1.395219,-0.525742 -0.145589,0 -1.585737,-0.644883 -1.585737,-0.710076 0,-0.03126 0.08943,-0.355608 0.19873,-0.720783 0.109302,-0.365175 0.198731,-0.728872 0.198731,-0.808216 0,-0.410314 1.284553,-3.312599 1.767354,-3.993115 0.120973,-0.170513 0.21995,-0.355332 0.21995,-0.41071 0,-0.05538 0.02728,-0.11261 0.06062,-0.127184 0.07496,-0.03277 0.559079,-0.715846 0.79665,-1.124059 0.3629,-0.623563 0.121173,-1.321341 -0.513069,-1.481045 -0.18431,-0.04641 -0.4552,-0.08438 -0.601979,-0.08438 -0.389684,0 -0.457651,-0.114513 -0.457651,-0.771074 0,-0.508155 -0.01798,-0.580293 -0.144667,-0.580293 -0.161826,0 -5.617765,0.525651 -6.281737,0.605212 l -0.424745,0.0509 0.02728,1.460564 0.02728,1.460564 -0.270547,-4.4e-5 -0.270547,-4.3e-5 0.04755,1.291747 c 0.04612,1.252791 0.183342,2.450977 0.411947,3.597022 0.06105,0.306045 0.151609,0.78541 0.201251,1.065257 0.04964,0.279847 0.208713,0.923733 0.353495,1.430859 0.144782,0.507126 0.285459,1.047248 0.312617,1.20027 0.02716,0.153023 0.188978,0.761138 0.359601,1.351367 0.33954,1.174562 0.585823,2.15475 0.54806,2.181247 -0.357955,0.251162 -0.863042,0.401713 -1.931909,0.575844 -0.247355,0.0403 -1.16286,0.30597 -2.174635,0.631065 -0.321637,0.103345 -0.611484,0.171405 -0.644106,0.151243 -0.03262,-0.02016 -0.323924,0.04456 -0.647336,0.143831 -0.53701,0.164829 -0.606348,0.170105 -0.799243,0.06081 z M 4.1752195,18.612182 c 0.028557,-0.04621 0.029403,-0.173728 0.00188,-0.283382 -0.036767,-0.146492 -0.094581,-0.192734 -0.2179689,-0.17434 -0.206309,0.03075 -0.3458906,0.236865 -0.278804,0.41169 0.055443,0.144483 0.413464,0.177784 0.4948911,0.04603 z m 42.1030815,0.0017 c 0.161143,-0.04476 0.384715,-0.190387 0.496826,-0.323625 0.201078,-0.238966 0.203841,-0.260334 0.203841,-1.576797 0,-1.234257 -0.01251,-1.350454 -0.166499,-1.546216 -0.221343,-0.281393 -0.71456,-0.525201 -1.062463,-0.525201 -0.229542,0 -0.28139,0.02966 -0.28139,0.160951 0,0.181386 -0.273839,0.316002 -0.642817,0.316002 -0.177302,0 -0.341431,0.104736 -0.668423,0.426546 -0.23838,0.2346 -0.470126,0.523101 -0.514994,0.641112 -0.120781,0.317679 -0.09893,1.121695 0.03948,1.452973 0.07697,0.184215 0.09339,0.317414 0.04509,0.365716 -0.136165,0.136166 -0.314525,-0.0092 -0.537746,-0.438227 -0.1986,-0.381721 -0.221933,-0.515782 -0.249691,-1.434595 l -0.03062,-1.013525 h -0.707446 -0.707447 v 0.936189 0.93619 l 0.419924,0.435051 c 0.714752,0.740499 1.210354,1.11159 1.582367,1.184827 0.492189,0.09689 2.435988,0.09873 2.782003,0.0026 z m -1.207146,-6.356556 c 0,-0.897327 -0.02141,-1.11289 -0.110541,-1.11289 -0.149483,0 -0.214455,0.432565 -0.202923,1.350996 0.0088,0.704214 0.05689,0.869546 0.253845,0.873568 0.03279,6.69e-4 0.05962,-0.499584 0.05962,-1.111674 z m 50.462559,-1.967431 c -0.023,-0.120131 -0.140391,-0.142274 -0.860368,-0.16229 -0.938031,-0.02608 -1.191452,0.01299 -1.191452,0.183677 0,0.09797 0.174405,0.117724 1.039225,0.117724 0.946895,0 1.036864,-0.01236 1.012595,-0.139111 z M 94.856035,9.7345642 c -0.227936,-0.016 -0.621422,-0.01615 -0.874414,-3.18e-4 -0.252992,0.01582 -0.0665,0.02892 0.414433,0.02909 0.480927,1.59e-4 0.687917,-0.01277 0.459981,-0.02877 z M 32.749867,9.1968772 c 0,-0.07419 -0.07508,-0.119238 -0.19873,-0.119238 -0.123655,0 -0.198731,0.04505 -0.198731,0.119238 0,0.07419 0.07508,0.119238 0.198731,0.119238 0.123654,0 0.19873,-0.04505 0.19873,-0.119238 z m 15.65996,0.03975 c 0,-0.04742 -0.30472,-0.07949 -0.755176,-0.07949 -0.450456,0 -0.755176,0.03208 -0.755176,0.07949 0,0.04742 0.30472,0.07949 0.755176,0.07949 0.450456,0 0.755176,-0.03208 0.755176,-0.07949 z m 3.100195,-0.03975 c 0,-0.09527 -0.118516,-0.119238 -0.58969,-0.119238 -0.611114,0 -0.841169,0.04581 -0.841169,0.167489 0,0.03904 0.321943,0.07099 0.715429,0.07099 0.582943,0 0.71543,-0.02208 0.71543,-0.119238 z m 3.100195,0.04825 c 0,-0.119924 -0.227601,-0.167489 -0.801424,-0.167489 -0.435843,0 -0.549943,0.02474 -0.549943,0.119238 0,0.09664 0.12807,0.119238 0.675683,0.119238 0.371626,0 0.675684,-0.03195 0.675684,-0.07099 z M 2.7662741,8.8617622 c 0.021042,-0.217708 -0.00564,-0.263238 -0.1798897,-0.306972 -0.2481092,-0.06227 -0.4410078,0.07796 -0.4410078,0.320603 0,0.23955 0.071875,0.293352 0.3548579,0.265632 0.2076471,-0.02034 0.2447821,-0.05932 0.2660396,-0.279263 z m 28.7566109,0.197481 c 0.02277,-0.02277 0.06243,-0.17103 0.08815,-0.32947 l 0.04675,-0.288072 -0.745703,8.75e-4 c -0.410137,4.77e-4 -0.879847,0.02305 -1.043799,0.05015 -0.274826,0.04543 -0.298096,0.06991 -0.298096,0.31361 v 0.26434 l 0.576318,0.03145 c 0.670502,0.03658 1.317069,0.01644 1.376387,-0.04288 z m 3.91266,0.03062 c 0.0562,-0.03566 0.12348,-0.196083 0.149512,-0.356498 l 0.04733,-0.291663 h -1.043799 -1.043799 v 0.311344 c 0,0.174697 0.04361,0.328942 0.09936,0.351439 0.166233,0.06708 1.682131,0.0547 1.791391,-0.01462 z m 3.974609,0 c 0.0562,-0.03566 0.12348,-0.196083 0.149512,-0.356498 l 0.04733,-0.291663 h -1.043799 -1.043799 v 0.311344 c 0,0.174697 0.04361,0.328942 0.09936,0.351439 0.166233,0.06708 1.682131,0.0547 1.791391,-0.01462 z m 4.135813,-0.310971 c 0.02082,-0.215389 -0.002,-0.257698 -0.139111,-0.257698 -0.135099,0 -0.164021,0.05009 -0.164021,0.284051 0,0.227569 0.02766,0.278811 0.139111,0.257698 0.09162,-0.01736 0.147616,-0.114331 0.164021,-0.284051 z m 16.15175,0.06027 c 0,-0.05005 -0.529949,-0.07949 -1.43086,-0.07949 -0.900911,0 -1.430859,0.02944 -1.430859,0.07949 0,0.05005 0.529948,0.07949 1.430859,0.07949 0.900911,0 1.43086,-0.02944 1.43086,-0.07949 z m -8.187695,-0.160326 c 0,-0.157161 -0.04029,-0.159907 -2.040338,-0.139111 -1.529876,0.01591 -2.048494,0.04571 -2.072937,0.119127 -0.02507,0.07531 0.404632,0.103183 1.861481,0.120747 1.041743,0.01256 1.974565,0.0311 2.072936,0.0412 0.132432,0.0136 0.178858,-0.02325 0.178858,-0.141962 z m 4.340829,0.03459 c -0.02654,-0.06916 -0.04825,-0.1407 -0.04825,-0.158985 0,-0.01828 -0.572344,-0.03324 -1.271875,-0.03324 -1.21888,0 -1.271875,0.0066 -1.271875,0.158985 0,0.152602 0.05299,0.158984 1.320126,0.158984 1.171123,0 1.31468,-0.01419 1.271875,-0.12574 z m 3.846866,-1.146135 c 0,-0.132487 -0.053,-0.158985 -0.317969,-0.158985 -0.264974,0 -0.317969,0.0265 -0.317969,0.158985 0,0.132487 0.053,0.158984 0.317969,0.158984 0.264973,0 0.317969,-0.0265 0.317969,-0.158984 z M 28.491245,5.9091484 c 0.06464,-0.1250038 0.229097,-0.273492 0.365456,-0.3299736 0.211205,-0.087484 0.288499,-0.083345 0.521876,0.027945 0.150674,0.071851 0.314823,0.2203392 0.364776,0.3299736 l 0.09082,0.1993352 h 2.930946 c 2.531954,0 2.937175,-0.016232 2.976701,-0.1192382 0.03407,-0.088784 0.175553,-0.1192383 0.553951,-0.1192383 0.398734,0 0.508194,0.025683 0.508194,0.1192383 0,0.089683 0.09605,0.1192382 0.387525,0.1192382 0.993178,0 1.09376,-0.1243916 1.390669,-1.7198876 0.264533,-1.4215155 0.263848,-1.5555281 -0.0095,-1.8588817 L 38.354066,2.3150528 34.717554,2.063724 31.081042,1.8123951 30.226245,2.0717693 c -0.470137,0.1426558 -1.301939,0.397883 -1.848448,0.5671715 -0.546509,0.1692885 -1.154624,0.3490382 -1.351367,0.3994437 -0.356675,0.09138 -0.743181,0.4306202 -0.842379,0.7393641 -0.09952,0.3097475 0.194097,1.8073054 0.413238,2.1076637 0.08158,0.11182 0.726632,0.2446376 1.202148,0.2475267 0.552882,0.00336 0.578656,-0.00498 0.691808,-0.2237906 z"
   id="path265" /></svg>
