<?xml version="1.0" encoding="UTF-8" standalone="no"?>
<svg
   xmlns:dc="http://purl.org/dc/elements/1.1/"
   xmlns:cc="http://creativecommons.org/ns#"
   xmlns:rdf="http://www.w3.org/1999/02/22-rdf-syntax-ns#"
   xmlns:svg="http://www.w3.org/2000/svg"
   xmlns="http://www.w3.org/2000/svg"
   xmlns:sodipodi="http://sodipodi.sourceforge.net/DTD/sodipodi-0.dtd"
   xmlns:inkscape="http://www.inkscape.org/namespaces/inkscape"
   version="1.1"
   x="0px"
   y="0px"
   width="88.5px"
   height="32px"
   viewBox="0 0 88.5 32"
   enable-background="new 0 0 88.5 32"
   xml:space="preserve"
   id="svg32"
   sodipodi:docname="an94.svg"
   inkscape:version="1.0.2-2 (e86c870879, 2021-01-15)"><metadata
   id="metadata38"><rdf:RDF><cc:Work
       rdf:about=""><dc:format>image/svg+xml</dc:format><dc:type
         rdf:resource="http://purl.org/dc/dcmitype/StillImage" /></cc:Work></rdf:RDF></metadata><defs
   id="defs36" /><sodipodi:namedview
   pagecolor="#ffffff"
   bordercolor="#666666"
   borderopacity="1"
   objecttolerance="10"
   gridtolerance="10"
   guidetolerance="10"
   inkscape:pageopacity="0"
   inkscape:pageshadow="2"
   inkscape:window-width="1842"
   inkscape:window-height="1051"
   id="namedview34"
   showgrid="false"
   inkscape:zoom="9.2824859"
   inkscape:cx="19.839363"
   inkscape:cy="3.3507151"
   inkscape:window-x="-9"
   inkscape:window-y="-9"
   inkscape:window-maximized="1"
   inkscape:current-layer="svg32" />

<g
   id="guides">
</g>
<path
   style="fill:#ffffff;stroke-width:0.09639"
   d="m 40.016762,29.573353 c -0.03489,-0.03488 -0.01419,-0.122743 0.04598,-0.195246 0.08276,-0.09972 0.07221,-0.207501 -0.04333,-0.442624 -0.08399,-0.170939 -0.290345,-0.657801 -0.458541,-1.081916 -0.168197,-0.424116 -0.599837,-1.356687 -0.959205,-2.072382 -0.741997,-1.477722 -1.252528,-2.577358 -1.252528,-2.697827 0,-0.04502 -0.06161,-0.204651 -0.136912,-0.354737 -0.0753,-0.150086 -0.205428,-0.457228 -0.289169,-0.68254 -0.08374,-0.225311 -0.212659,-0.572314 -0.286483,-0.771118 -0.07383,-0.198804 -0.187347,-0.556651 -0.252268,-0.795216 -0.06492,-0.238564 -0.174946,-0.628943 -0.244493,-0.867508 -0.384277,-1.318158 -0.720794,-2.739677 -0.718781,-3.036278 0.0021,-0.311576 -1.086314,-3.530656 -1.166019,-3.448557 -0.04,0.0412 -0.09482,0.421918 -0.121806,0.846033 -0.09585,1.506139 -0.171246,1.662817 -0.635095,1.319878 -0.437196,-0.323233 -0.689843,-0.280993 -0.974369,0.162905 -0.146705,0.22888 -0.153365,0.229649 -1.829782,0.211267 -0.925396,-0.01015 -1.723746,-0.0593 -1.774108,-0.109229 -0.05731,-0.05681 0.536683,-0.09078 1.587361,-0.09078 h 1.678934 l 0.219945,-0.255967 c 0.206084,-0.239836 0.219946,-0.34007 0.219946,-1.590432 0,-0.996496 -0.03052,-1.337702 -0.120487,-1.347244 -0.06626,-0.007 -0.84701,-0.01788 -1.73498,-0.02409 l -1.614495,-0.01131 -3.5e-5,0.500538 c -2.4e-5,0.335267 0.06676,0.613747 0.202266,0.84341 0.111264,0.188581 0.165483,0.342337 0.120487,0.341681 -0.152116,-0.0022 -0.484466,-0.622316 -0.606382,-1.131387 -0.09035,-0.377286 -0.165175,-0.506047 -0.294047,-0.506047 -0.09507,0 -0.197819,-0.06506 -0.228335,-0.144585 -0.06686,-0.174226 -0.447781,-0.194834 -0.44544,-0.02409 8.69e-4,0.06626 0.08692,0.445803 0.191128,0.84341 0.104212,0.397609 0.184313,0.939802 0.178001,1.204872 -0.0063,0.265073 -0.03027,0.384356 -0.05325,0.265073 -0.05008,-0.260001 -0.06042,-0.261397 -0.393217,-0.05307 -0.561653,0.351576 -0.559147,0.343774 -1.046222,3.258035 -0.07975,0.477129 -0.206942,1.183212 -0.28266,1.569072 -0.180909,0.921905 -0.179193,1.857411 0.0038,2.099414 0.202313,0.267481 0.18041,0.475632 -0.08216,0.780898 -0.220908,0.256819 -0.262957,0.266691 -1.084386,0.254561 -1.09391,-0.01615 -2.426204,-0.322162 -2.660074,-0.610979 -0.213126,-0.2632 -0.225975,-1.0571 -0.03306,-2.041944 0.07559,-0.385861 0.207989,-1.135319 0.29422,-1.665463 0.08624,-0.530144 0.219575,-1.290204 0.296321,-1.689025 0.199444,-1.036443 0.180733,-1.651971 -0.06277,-2.064668 -0.111265,-0.18858 -0.23972,-0.342874 -0.285454,-0.342874 -0.04573,0 -0.129873,-0.173502 -0.186974,-0.385559 l -0.103828,-0.38556 h -0.603539 c -0.331948,0 -0.644748,0.03561 -0.695112,0.07914 -0.05037,0.04352 -0.525324,0.154611 -1.055468,0.246866 -0.530143,0.09225 -1.279601,0.230151 -1.665463,0.306432 -0.385861,0.07629 -0.831114,0.138691 -0.989451,0.138691 -0.158336,0 -0.536638,0.06208 -0.84067,0.137958 -0.304033,0.07588 -0.89979,0.211069 -1.323905,0.300428 -0.424115,0.08936 -0.94607,0.222469 -1.159899,0.295797 -0.213831,0.07333 -0.461767,0.133325 -0.550972,0.133325 -0.0892,0 -0.326319,0.07135 -0.526921,0.158549 -0.631916,0.274693 -0.930904,0.397472 -1.352727,0.555494 -0.225311,0.08441 -0.594002,0.223721 -0.819313,0.309589 -0.225312,0.08587 -0.496408,0.189115 -0.602437,0.229436 -0.106029,0.04031 -0.377124,0.143567 -0.6024355,0.229435 -0.2253112,0.08587 -0.5940019,0.225183 -0.8193131,0.309589 -0.2253111,0.0844 -0.5397827,0.209829 -0.6988258,0.278718 -0.1590431,0.06888 -0.6578603,0.261396 -1.1084825,0.427795 -0.4506223,0.166398 -0.9421107,0.366291 -1.0921966,0.444206 -0.1500858,0.07792 -0.353559,0.141662 -0.4521627,0.141662 -0.098604,0 -0.2031174,0.03857 -0.2322524,0.08572 -0.029135,0.04714 -0.172665,0.115549 -0.3189554,0.152017 -0.1462904,0.03647 -0.3961089,0.122134 -0.555152,0.190367 -1.1624901,0.498734 -1.9514157,0.703856 -3.0121808,0.78317 l -0.89160547,0.06667 v -0.415875 c 0,-0.296622 0.0611991,-0.481021 0.21341654,-0.64305 0.17930553,-0.190861 0.19471183,-0.257122 0.09639,-0.414561 -0.16880418,-0.2704 -0.150189,-1.203333 0.027608,-1.381129 0.21584173,-0.215842 0.21078433,-2.913524 -0.00591,-3.152969 -0.24933439,-0.275512 -0.45509925,-2.210434 -0.23506352,-2.210434 0.16924092,0 0.10340722,-0.349329 -0.10063293,-0.533984 C 0.51201236,10.30513 0.43610539,10.135752 0.45169278,10.0268 0.47984118,9.8300426 0.51529608,9.8285486 5.6850816,9.8062126 21.316367,9.7386626 21.121459,9.7420626 22.167738,9.5193966 c 0.530143,-0.112826 1.389446,-0.281668 1.909561,-0.375206 0.885572,-0.159261 0.962668,-0.191917 1.213229,-0.5139 0.14716,-0.189107 0.350554,-0.494852 0.451988,-0.679431 0.101432,-0.184579 0.238642,-0.39371 0.30491,-0.464736 0.06626,-0.07102 0.120488,-0.166316 0.120488,-0.211758 0,-0.04544 0.05422,-0.140731 0.120487,-0.211756 0.06626,-0.07103 0.202797,-0.280158 0.303396,-0.464736 0.292557,-0.5367809 0.429559,-0.648966 0.873887,-0.715597 0.338681,-0.050789 0.429942,-0.1079246 0.477959,-0.2992404 0.03264,-0.130056 0.101899,-0.2364656 0.153903,-0.2364656 0.052,0 0.09456,-0.1977492 0.09456,-0.4394426 0,-0.2684167 0.03751,-0.4162579 0.09639,-0.3798706 0.05301,0.032764 0.09639,0.2021036 0.09639,0.3763086 0,0.3817175 0.32217,0.7377295 0.503506,0.5563947 0.145038,-0.145039 0.524753,-0.1468037 0.613722,-0.00286 0.08706,0.1408832 3.213882,0.028566 3.557003,-0.1277696 0.273509,-0.1246192 0.667757,0.00549 1.024164,0.3379984 0.209509,0.19546 0.359142,0.2143593 2.251188,0.284337 3.858359,0.142702 7.311878,0.1761095 7.565942,0.073189 0.160842,-0.065156 3.616886,-0.1026709 10.124158,-0.1098952 5.433975,-0.00603 10.064298,-0.00626 10.289609,-5.108e-4 l 0.409657,0.010452 v 1.1566781 1.156679 h 2.988083 c 1.927796,0 2.988084,0.03421 2.988084,0.09639 0,0.06243 1.188807,0.09639 3.373642,0.09639 h 3.373643 l 0.0011,-0.602436 c 5.78e-4,-0.33134 0.06563,-0.815363 0.144585,-1.075607 0.09237,-0.3046103 0.143511,-0.8797618 0.143511,-1.6145287 V 3.9970936 h 0.664223 0.664221 l 0.05737,1.4217493 c 0.09808,2.4308197 0.18472,2.7230117 0.807405,2.7230117 0.194608,0 0.340599,0.05637 0.374449,0.144585 0.07577,0.197439 0.389636,0.182468 0.505236,-0.02409 0.07055,-0.12606 0.217895,-0.168683 0.583129,-0.168683 0.268802,0 0.488729,-0.02911 0.488729,-0.06468 0,-0.03557 0.336159,-0.0907 0.747021,-0.122522 1.169167,-0.09054 5.141331,-0.168912 5.390531,-0.106367 0.219659,0.05513 0.224174,0.08049 0.224174,1.2593 v 1.2030364 h -2.498103 c -1.514969,0 -2.510746,-0.03653 -2.530232,-0.09283 -0.01767,-0.05105 -0.324914,-0.100722 -0.68276,-0.11037 -0.400213,-0.01079 -0.650579,-0.05853 -0.650495,-0.1240514 9.4e-5,-0.07364 -0.393989,-0.09886 -1.277165,-0.08174 -1.823833,0.03538 -1.99442,0.144233 -2.000384,1.2764864 -0.0035,0.663434 -0.06797,0.763705 -0.537783,0.836399 -0.33366,0.05163 -0.715124,0.301119 -0.715124,0.467718 0,0.03251 -0.06196,0.121074 -0.1377,0.196809 -0.110674,0.110675 -0.538532,0.137701 -2.180049,0.137701 h -2.042351 l -0.374173,-0.385559 -0.374172,-0.38556 -2.337559,0.01211 c -1.285657,0.0066 -2.966502,0.03919 -3.735211,0.0723 l -1.397652,0.06018 -0.0287,0.602437 c -0.02168,0.455396 -0.0636,0.602436 -0.171707,0.602436 -0.07866,0 -0.167978,-0.06507 -0.198493,-0.144584 -0.06781,-0.176721 -0.808292,-0.200102 -0.977529,-0.03087 -0.08737,0.08736 -0.171392,0.08285 -0.362591,-0.01947 -0.200946,-0.107544 -0.285905,-0.110063 -0.4412,-0.01308 -0.153477,0.09585 -0.259359,0.09587 -0.524133,1.35e-4 -0.258169,-0.09336 -0.357485,-0.09429 -0.447533,-0.0043 -0.140117,0.140112 -0.462733,0.153597 -0.462733,0.01933 0,-0.136226 -0.41977,-0.120015 -0.561467,0.02168 -0.09317,0.09317 -0.157949,0.09317 -0.307139,0 -0.227581,-0.142126 -0.673632,-0.156484 -0.673632,-0.02168 0,0.05301 -0.08675,0.09639 -0.192779,0.09639 -0.106029,0 -0.19278,-0.04338 -0.19278,-0.09639 0,-0.128086 -0.348787,-0.122852 -0.595023,0.009 -0.142318,0.07617 -0.225945,0.07617 -0.30211,0 -0.140662,-0.140662 -0.48174,-0.133738 -0.628231,0.01276 -0.09317,0.09317 -0.157948,0.09317 -0.307139,0 -0.245132,-0.153088 -0.645384,-0.151709 -0.701199,0.0024 -0.0349,0.09639 -0.08444,0.09639 -0.2477,0 -0.258866,-0.152844 -0.520387,-0.153784 -0.671758,-0.0024 -0.09317,0.09317 -0.157948,0.09317 -0.307139,0 -0.234469,-0.146429 -0.544458,-0.15271 -0.630936,-0.01279 -0.04352,0.07042 -0.548247,0.09723 -1.523828,0.08096 -1.68103,-0.02804 -1.985471,0.0063 -4.784202,0.539902 -0.397609,0.0758 -0.874738,0.156276 -1.060288,0.178822 -0.18555,0.02255 -0.497655,0.0833 -0.693565,0.135016 -0.530941,0.140144 -0.709695,-0.02777 -0.783744,-0.736238 -0.03293,-0.314998 -0.111993,-0.687139 -0.175707,-0.826978 -0.115348,-0.25316 -0.120029,-0.254138 -1.086919,-0.226973 -0.924089,0.02597 -0.972562,0.03778 -1.001874,0.244161 -0.02668,0.187847 -0.08828,0.216877 -0.460236,0.216877 -0.374552,0 -0.441699,-0.03226 -0.525393,-0.252387 -0.09577,-0.251875 -0.0978,-0.252305 -1.005966,-0.212586 -0.500505,0.0219 -0.939155,0.06895 -0.974776,0.104569 -0.135269,0.135268 0.243043,2.555559 0.583661,3.734047 0.356629,1.23388 0.473727,1.619847 0.584868,1.927795 0.06697,0.18555 0.196015,0.619305 0.286774,0.963897 0.381204,1.447352 0.668157,2.22547 1.259673,3.415792 0.858363,1.727298 1.043933,2.021146 1.896726,3.003428 0.145789,0.167926 0.265072,0.345827 0.265072,0.395333 0,0.0495 -0.173502,0.187526 -0.385559,0.306709 -0.212058,0.119184 -0.385559,0.257297 -0.385559,0.306919 0,0.04962 -0.04798,0.09023 -0.106616,0.09023 -0.05864,0 -0.270915,0.130127 -0.471723,0.28917 -0.200808,0.159043 -0.409468,0.289169 -0.46369,0.289169 -0.05422,0 -0.113042,0.03478 -0.130714,0.0773 -0.01767,0.04252 -0.379132,0.313612 -0.803247,0.602436 -0.424115,0.288824 -0.785578,0.557665 -0.803248,0.597427 -0.01767,0.03976 -0.08996,0.0723 -0.16065,0.0723 -0.07069,0 -0.142979,0.03416 -0.16065,0.07591 -0.05024,0.118706 -1.454002,1.080769 -1.576962,1.080769 -0.06042,0 -0.1384,-0.02854 -0.173283,-0.06342 z m 6.838859,-16.220791 c -0.105193,-0.657836 -0.225035,-0.873166 -0.485959,-0.873166 -0.324648,0 -0.372768,0.118398 -0.243939,0.600211 0.139966,0.523477 0.248793,0.652855 0.549154,0.652855 0.227157,0 0.237885,-0.02254 0.180744,-0.3799 z M 33.568137,12.365794 c -0.05593,-0.167796 -0.342728,-0.325115 -0.431273,-0.236571 -0.04223,0.04223 0.0073,0.138281 0.110189,0.213469 0.227413,0.166288 0.372288,0.176713 0.321084,0.0231 z M 75.4713,10.551599 75.84779,10.16604 h 0.79975 c 0.735491,0 0.799752,-0.01549 0.799752,-0.1927794 0,-0.186437 -0.06422,-0.192776 -1.951893,-0.192665 -1.073541,6.3e-5 -3.936319,0.02883 -6.361727,0.06391 l -4.409832,0.06379 v 0.5144254 0.514425 h 5.185486 5.185486 z m 3.325448,-2.3597134 c 0,-0.271739 -0.246554,-0.373342 -0.781878,-0.322204 -0.275318,0.0263 -0.331394,0.07282 -0.357104,0.29627 -0.03031,0.263392 -0.02679,0.265072 0.554242,0.265072 0.558266,0 0.58474,-0.01083 0.58474,-0.239138 z m -48.48406,-2.2165351 0.433754,-0.1393917 -0.618884,0.020368 c -0.394084,0.012969 -0.633332,0.064133 -0.658663,0.140855 -0.05336,0.1616176 0.301515,0.152436 0.843793,-0.021831 z m 3.188746,-0.050461 c 0.04867,0 0.08851,-0.043375 0.08851,-0.09639 0,-0.053014 -0.108438,-0.09639 -0.240975,-0.09639 -0.15707,0 -0.240974,0.053933 -0.240974,0.1548972 0,0.1016452 0.05241,0.134783 0.152469,0.09639 0.08386,-0.032179 0.192295,-0.058508 0.240974,-0.058508 z m 45.05434,-1.445847 c 0,-0.07807 -0.07591,-0.1565629 -0.168682,-0.1744299 -0.118353,-0.022792 -0.168682,0.029253 -0.168682,0.1744299 0,0.1451773 0.05033,0.1972222 0.168682,0.1744297 0.09277,-0.017867 0.168682,-0.096361 0.168682,-0.1744297 z"
   id="path54" /></svg>
